<svg xmlns="http://www.w3.org/2000/svg" id="Layer_1" data-name="Layer 1" viewBox="0 0 723.73 116.61"><defs><style>.cls-1{fill:#d9d9d9}.cls-2{fill:#fdfdfd}</style></defs><path d="M339.73 116.55c-.48-1.66-2.12-1.39-3.25-1.8-14-5-20.62-21.35-15.22-37.92A26.2 26.2 0 0 1 354 59.48l.27.09a25.75 25.75 0 0 1 7.48 4.06c0-8.09.17-15.64-.08-23.19-.1-3.19.94-4 3.95-3.8a112.76 112.76 0 0 0 13 0c3.09-.17 4.28.53 4.25 4q-.24 35.46 0 70.93c0 3-.66 4.19-3.84 3.89a71.4 71.4 0 0 0-9.48 0c-3.46.15-6.92.5-5.9-5.8-4.55 4.25-9.3 5.36-13.85 6.93Zm11.58-41c-6.58 0-10.77 4.77-10.73 12.16 0 6.94 4.39 11.77 10.66 11.82 6.05 0 11-5.25 11-11.73-.07-7.15-4.61-12.25-10.93-12.25ZM444.73 116.55c-.11-.8-.75-.92-1.38-1.16-17.9-6.89-24.75-27.2-15.19-43.95 7.28-12.75 26.55-17.83 39.37-6.71-.37-4.59 2.05-5.39 5.66-5.09a59.28 59.28 0 0 0 10.49 0c3.67-.35 4.34 1.16 4.3 4.5q-.24 23.49 0 47c0 3.56-1 4.67-4.46 4.35a46.93 46.93 0 0 0-9.48 0c-3.92.44-6.35-.57-6.39-5.54-3.93 3.91-8.55 5-12.94 6.62Zm22.46-29.14c0-7.17-4.51-11.89-11.28-11.85-6.37 0-10.9 4.84-11 11.67-.1 7.1 4.5 12.29 10.93 12.3 6.25.02 11.35-5.43 11.35-12.12ZM276.73 116.55c-.7-1.74-2.51-1.39-3.79-1.81-12.75-4.22-19.37-13.34-19.39-27 0-13.39 6.86-23.26 19.1-27.37a35.88 35.88 0 0 1 25.41.5c14 5.65 17.38 17.57 15.61 30.53-.39 2.93-2.53 2.09-4.18 2.1-11.32.06-22.64 0-34 0 1.72 4.51 6.45 7.17 12.33 6.76 2.82-.19 5.94-.23 8.19-1.9 4.37-3.23 6.7-1.21 9.6 2.23 6.57 7.79 6.63 7.77-2.76 12.36-3.57 1.75-7.55 1.91-11.1 3.54ZM274.84 80h17.07c3 0 2.54-1.56 1.28-3a10.55 10.55 0 0 0-9.87-3.36c-3.59.59-6.99 1.71-8.48 6.36ZM616.73 116.55c-.75-1.59-2.47-1.42-3.76-2-11.45-4.86-16.54-14.09-16.93-25.91-.37-11 3.43-20.31 13.45-26 9.5-5.42 24.75-6.23 34.57 5 1.46-.69.91-2.08.76-3-.67-4.39 1.37-5.17 5.31-5.07 3.27.08 4.22.93 4.19 4.2-.16 15.63-.11 31.26 0 46.89 0 2.88.21 5.06-4 4.88-3.59-.16-6.24-.21-5.59-4.82a42.88 42.88 0 0 0 0-4.81c-4.17 6.28-9.56 8.5-15 10.64Zm28-28.9c0-11.34-8.42-20-19.25-19.92-11.71.09-20.17 8.52-20.21 20.16 0 11.44 8.33 20 19.65 20.13s19.81-8.56 19.81-20.37ZM23.73.55c.32 1.35 1.57.94 2.42 1.24a19.43 19.43 0 1 1-23.46 27c-.58-1.12-.56-2.63-2-3.27v-10a24 24 0 0 1 16-15ZM.73 92.55c3-6.72 7-12.34 14.81-14.11 10-2.27 20 3.19 23 12.69a19.38 19.38 0 0 1-11.81 24.35c-.73.27-1.7.06-2 1.07h-9c-7.22-2.28-11.76-7.44-15-14ZM91.73 116.55a62.8 62.8 0 0 1-7-4.52 19.16 19.16 0 0 1-5.18-23c3.28-7.24 12-12.27 19.47-11.27A19.93 19.93 0 0 1 116.55 95c1.24 8-3.74 16.52-11.73 20.11-1 .46-2 1-3.07 1.49ZM99.73.55c8 2.53 14.29 6.62 16.19 15.56a19.19 19.19 0 0 1-9.36 21.09 19.45 19.45 0 0 1-26.13-26.9c3.26-5.65 8.64-7.81 14.3-9.75Z" class="cls-1"/><path d="M16.73.55a24 24 0 0 0-16 15c0-4.92-1.94-12 .51-14.19 2.81-2.53 9.5-.73 14.51-.81ZM.73 102.55c3.24 6.56 7.78 11.72 15 14-4.33 0-8.67-.11-13 .06-1.74.06-2.13-.32-2-2.06.12-4 0-8 0-12Z" class="cls-2"/><path d="M723 81.68a.67.67 0 0 1 .77-.13v34l-1.1-.3Z" style="fill:#84cfcc"/><path d="M178.91 70.85c0 13.28-.12 26.57.08 39.85 0 3.53-.52 5.14-4.54 4.79a93.46 93.46 0 0 0-14 0c-3.23.21-3.82-1-3.8-3.94q.16-35.51 0-71c0-3 .68-4.06 3.85-3.9 6.48.32 13.88-1.69 19.22.83 5.12 2.41 8.11 9.34 12 14.29 2.86 3.62 5.7 7.25 8.85 11.27 6.24-8 12.32-15.7 18.22-23.51a6.19 6.19 0 0 1 5.8-2.87c5.49.22 11 .17 16.49 0 2.4-.07 3.19.71 3.19 3.11q-.11 36.24 0 72.49c0 2.86-1.24 3.25-3.62 3.18-4.83-.14-9.68-.3-14.49 0-3.6.26-4.06-1.3-4-4.32.12-13.49.05-27 .05-41.18-3.91 2.68-6 6.23-8.64 9.2-3.09 3.48-6 7.14-9 10.68-3.15 3.7-5.26 3.69-8.36 0q-8.15-9.72-16.27-19.47ZM543.31 76.8c8.57-12.64 16.77-24.75 25-36.85 1.8-2.66 10.24-4.64 13-3.1 1.33.75 1 2 1 3.09 0 24-.08 48 .1 72 0 4.69-2.93 3.28-5.3 3.47-2.66.22-4.62.28-4.58-3.66.22-19.48.1-39 .1-58.5-2-.57-2.17 1.25-2.82 2.14q-11.58 16-23 32c-3.37 4.69-3.65 4.71-6.92.13-8.3-11.61-16.58-23.22-24.95-34.95-1.57 1.53-.88 3.1-.88 4.46-.06 18-.18 36 .07 54 0 4-1.37 4.66-4.85 4.5-3.19-.16-5.47.24-5.42-4.5.29-23.32.21-46.65.05-70 0-3.56 1.08-4.19 4.46-4.46 5.63-.45 9 1.44 12 6.31 7.09 11.37 14.99 22.3 22.94 33.92ZM723 81.68l-.33 33.57c-9.08.43-9.08.43-9.08-8.39 0-7.5.07-15 0-22.5-.1-9.7-5.78-16-15-16.67a16.47 16.47 0 0 0-17.91 13.86c-1.67 9.58-.57 19.29-.63 28.93 0 3.71-.7 5-4.81 5.12-4.63.15-4.54-2-4.52-5.32.09-15.17 0-30.33.06-45.5 0-2.39-1.18-5.33 3.51-5.22 3.82.09 6.1.59 5.5 5a31 31 0 0 0 0 3.34c7.71-8.53 16.78-10.9 26.93-7.85 10.46 3.15 15.16 11.13 16.28 21.63ZM415.58 88c0 8-.09 16 0 24 .05 2.53-.61 3.57-3.33 3.46-4.82-.19-9.65-.2-14.47 0-2.72.12-3.33-.9-3.32-3.43q.15-24 0-47.91c0-2.48.52-3.59 3.28-3.46 4.81.21 9.65.19 14.47 0 2.67-.1 3.41.85 3.37 3.43-.09 7.97 0 15.96 0 23.91ZM404.84 35.37c7.18 0 12 4.15 11.88 10.44-.07 6.06-4.81 10.23-11.65 10.26s-11.68-4.07-11.85-10c-.22-6.39 4.51-10.65 11.62-10.7Z" class="cls-1"/><path d="M351.31 75.55c6.32 0 10.86 5.09 10.9 12.25 0 6.48-4.92 11.77-11 11.73-6.27 0-10.63-4.88-10.66-11.82-.01-7.38 4.18-12.16 10.76-12.16ZM467.19 87.41c0 6.69-5.1 12.14-11.35 12.12-6.43 0-11-5.2-10.93-12.3.1-6.83 4.63-11.63 11-11.67 6.82-.01 11.27 4.68 11.28 11.85ZM274.84 80c1.49-4.69 4.87-5.81 8.48-6.33a10.55 10.55 0 0 1 9.87 3.36c1.26 1.42 1.71 3-1.28 3-5.55-.03-11.09-.03-17.07-.03ZM644.73 87.65c0 11.81-8.37 20.47-19.81 20.37s-19.69-8.69-19.65-20.13c0-11.64 8.5-20.07 20.21-20.16 10.82-.08 19.19 8.58 19.25 19.92Z" class="cls-2"/></svg>