<svg xmlns="http://www.w3.org/2000/svg" id="Layer_1" data-name="Layer 1" viewBox="0 0 499.67 91.53"><defs><style>.cls-1{fill:#fcfcfd}.cls-2{fill:#d9d9d9}</style></defs><path d="M122.69 34c.57 1.37 0 2.6-.27 3.88-1.86 8.78-3.55 17.6-5.64 26.32-.78 3.26-.45 4.43 3.21 4.21a109.17 109.17 0 0 1 14.47 0c3.39.25 4.61-1.06 5.24-4.16 3.66-17.91 7.5-35.79 11.22-53.69 2.06-9.93 1.94-9.3-8.39-10.15-8.44-.69-13.26 1.89-16.85 9.7-4.11 8.93-9.75 17.16-15.32 26.73-2-11.38-3.82-21.44-5.3-31.56-.5-3.35-1.3-5.09-5.14-4.75a78.79 78.79 0 0 1-12.48 0c-3.16-.22-4.19.93-4.82 4-4 19.7-8.35 39.34-12.41 59-.29 1.43-2.35 4.38 1.24 4.6 2.7.16 6.46 1.88 7.33-3.22 1.18-6.87 2.67-13.7 4.25-20.5.82-3.54.9-7.36 3.46-11.73 1.87 10.93 3.47 20.69 5.26 30.41.36 2-.91 5.28 3 5.14 3.4-.12 7 1.26 9.36-3.35 4.89-9.43 10.5-18.49 15.87-27.67.69-1.14.87-2.89 2.71-3.21Zm268 3c-1.35-7.83-2.31-14.19-3.57-20.49-1.06-5.25.39-12.75-3.72-15.17s-11-.53-16.67-.73c-2.36-.09-3.17.94-3.61 3-4.29 20.51-8.65 41-12.95 61.5-.23 1.14-1 2.55 1.07 3.2 4 1.21 7.05-.42 7.9-4.39.35-1.63.71-3.25 1.07-4.88l5.85-26.95c2.46 10.44 4.13 20.78 5.93 31.09.34 1.91-.53 5 2.67 5s7.11 1.74 9.54-3c4.36-8.4 9.35-16.48 14.11-24.67 1.37-2.37 2.84-4.67 4.27-7a9.4 9.4 0 0 1 .15 4.74c-1.76 8.29-3.37 16.62-5.47 24.83-1.12 4.37.07 5.57 4.39 5.26a125.74 125.74 0 0 1 14 0c2.39.09 3.65-.58 4.16-3q6.42-30.76 13-61.49c.63-2.94-.57-3.34-3-3.27-4.67.15-9.35.25-14 0-3.12-.19-4.72 1-6.2 3.66-5.92 10.52-12.08 20.93-18.89 32.69Zm65.58 46.73V83c-12.57-.58-25.14-1.25-37.71-1.71-38.25-1.38-76.5-3-114.76-3.94-42.28-1.08-84.56-1.91-126.85-2.25-55.45-.5-110.91-.37-166.34 1.76C-2.02 77.34.45 74.73.01 87.95c-.11 3.4 1.24 3.74 4.12 3.52 45.47-3.5 91.05-5.09 136.62-6.37q57.66-1.62 115.35-2c44.65-.32 89.3-.07 134 0 10.65 0 21.3.46 31.95.55 11.37.09 22.79 0 34.2 0ZM39.44 40.81v.75c-3.24.33-6.47.71-9.72 1-3.48.29-7 .4-10.47.7-4.29.37-9.59-.52-12.58 1.68-3.31 2.44-2.52 8.27-3.53 12.61C.6 68.45.72 68.48 12.05 68.48c11.71 0 11.71 0 14.08-11.57 2.13-10.35 2.13-10.35 12.58-9.86a2.09 2.09 0 0 0 .5 0c2.39-.27 2.77.75 2.24 2.93-1.22 5-2.18 10.08-3.31 15.11-.5 2.22-.18 3.47 2.54 3.42 5.66-.12 11.33-.07 17 0 2 0 2.92-.75 3.35-2.79 3.82-18.4 7.82-36.76 11.62-55.17 1.22-6-2.06-9.77-8.11-9.81Q44.79.6 25.04.74c-5.38 0-8.94 2.86-11.27 8.24l41.65 3.11a20.92 20.92 0 0 1-7.75 1.73c-10.63.79-21.24 1.8-31.89 2.18-5.88.22-5 4.74-5.36 7.8-.44 3.58 3.09 1.8 4.78 2 5 .66 10.15.9 16.63 1.42a27.18 27.18 0 0 1-3.19.83q-8.44.76-16.9 1.47c-4.88.43-3.53 4.61-4 7.28-.52 3.09 2.48 1.85 3.93 2 9.28.7 18.51 1.3 27.77 2.01Zm429.51 6.5c-1.34 6.12-2.54 11.8-3.82 17.47-.55 2.4-.23 3.72 2.77 3.61 5.32-.19 10.67-.17 16 0 2.73.09 3.7-.92 4.23-3.57 3.64-17.92 7.51-35.8 11.2-53.72 1.42-6.88-1.58-10.42-8.7-10.45-12.16-.05-24.33 0-36.49 0-8.48 0-12.54 3.14-14.37 11.45-3.23 14.62-6.32 29.27-9.41 43.92-.82 3.87-3.27 9.2-1.64 11.34 2.16 2.84 7.71.61 11.78 1h.5c9.67 0 9.67 0 11.73-9.54 2.7-12.7 2.7-12.7 16.22-11.51Zm-293.46 21h17.48c4.94 0 3.35-4.16 4-6.58.86-3.4-2.22-2-3.59-2.07-5.82-.16-11.66-.24-17.47 0-3.18.14-3.6-1.05-2.94-3.74 1-4.19 2.26-8.4 2.64-12.66s2.36-4.76 5.85-4.54c4 .25 8-.05 12 .08 5.44.18 3.52-4.48 4.21-6.91.93-3.25-2.33-1.81-3.71-1.88-4.15-.22-8.32-.19-12.48 0-2.36.08-2.87-.83-2.39-2.94 1.06-4.7 2.17-9.4 3-14.14.5-2.93 1.57-4.18 4.82-4 6.31.3 12.65.13 19 .07 5-.05 3.19-4.48 3.77-6.81.68-2.7-2.34-1.44-3.61-1.45-11-.13-22-.1-33-.07-7.34 0-11.65 3-13.28 10.26q-5.31 23.57-10 47.3c-1.31 6.64 1.79 10 8.75 10.12 5.59.08 11.25 0 16.91 0ZM244.07.61h-16.49c-6.73.06-11.27 3.12-12.73 9.64-3.71 16.2-7.1 32.48-10.4 48.76-1 4.91 1.87 8.94 6.83 9.08 12.48.34 25 .39 37.45.06 3.89-.1 2.7-4.33 3.17-6.74.57-3-2.2-1.72-3.48-1.75-5.82-.15-11.66-.25-17.48 0-3.4.15-3.88-1-3.07-4a111.39 111.39 0 0 0 2.9-13.64c.4-2.91 1.73-3.42 4.27-3.32 4.32.17 8.66-.09 13 .08 5.7.23 3.92-4.59 4.48-7.17.66-3-2.49-1.55-3.88-1.63a109.17 109.17 0 0 0-12 0c-2.62.13-3.18-.84-2.65-3.18 1.07-4.7 2.21-9.39 3-14.15.46-2.88 1.62-3.87 4.56-3.77 6.15.22 12.32-.14 18.47.13 5.41.24 4-4.18 4.48-6.67.56-3.06-2.5-1.62-3.9-1.67-5.53-.14-11 0-16.52 0Zm86.66.51c-6.61-1.54-11.24-.23-15.24 5-4.39 5.74-9.82 10.67-15 16.13-.49-1.14-.8-1.73-1-2.36-1.25-3.79-2.49-7.58-3.69-11.38C293.29.59 293.3.58 285.13.58c-3.5 0-7 .22-10.49 0-4.07-.33-4.21 1.1-3 4.5 3.36 9.55 6.08 19.33 9.65 28.8 1.53 4.07.84 6.47-2.1 9.45-7.76 7.86-15.13 16.1-23 24.49 6.25 1.42 10.72.48 14.58-4.41 4.38-5.56 9.59-10.46 14.69-15.92.61 1.62 1 2.7 1.41 3.76 2.19 5.52 1.82 13.59 6.33 16.18 4.67 2.68 12 .68 18.1 1 3.25.15 4-.55 2.86-3.88-3.49-9.85-6.57-19.84-10-29.72-1-2.8-.71-4.75 1.5-7 8.4-8.65 16.46-17.5 25-26.68Zm17.9 55.69H335.4c-1.52 0-3.62-.7-3.93 1.75-.4 3.07-2 6-1.32 9.17.06.26.81.54 1.24.54 4.95-.05 10.3 1 14.69-.65 2.54-.94 1.95-6.5 2.72-10a3.65 3.65 0 0 0-.17-.81Z" class="cls-1"/><path d="M122.69 34c-1.84.32-2 2.07-2.73 3.27-5.37 9.18-11 18.24-15.87 27.67-2.39 4.61-6 3.23-9.36 3.35-3.89.14-2.62-3.18-3-5.14-1.79-9.72-3.39-19.48-5.26-30.42-2.56 4.38-2.62 8.2-3.46 11.74-1.58 6.8-3.07 13.63-4.25 20.5-.87 5.1-4.63 3.38-7.33 3.22-3.59-.22-1.53-3.17-1.24-4.6 4.06-19.69 8.38-39.33 12.41-59 .63-3.06 1.66-4.21 4.82-4a78.79 78.79 0 0 0 12.48 0c3.84-.34 4.64 1.4 5.14 4.75 1.48 10.12 3.35 20.18 5.3 31.56 5.57-9.57 11.21-17.8 15.32-26.73 3.59-7.81 8.41-10.39 16.85-9.7 10.33.85 10.45.22 8.39 10.15-3.72 17.9-7.56 35.78-11.22 53.69-.63 3.1-1.85 4.41-5.24 4.16a109.17 109.17 0 0 0-14.47 0c-3.66.22-4-1-3.21-4.21 2.09-8.72 3.78-17.54 5.64-26.32.29-1.34.86-2.57.29-3.94ZM390.67 36.98c6.81-11.76 13-22.19 18.88-32.76 1.48-2.65 3.08-3.85 6.2-3.66 4.64.28 9.32.18 14 0 2.48-.07 3.68.33 3.05 3.27q-6.61 30.72-13 61.49c-.51 2.46-1.77 3.13-4.16 3a125.74 125.74 0 0 0-14 0c-4.32.31-5.51-.89-4.39-5.26 2.1-8.21 3.71-16.54 5.47-24.83a9.4 9.4 0 0 0-.15-4.74c-1.43 2.33-2.9 4.63-4.27 7-4.76 8.24-9.75 16.24-14.11 24.67-2.43 4.69-6.23 2.91-9.54 2.95s-2.33-3.1-2.67-5c-1.8-10.31-3.47-20.65-5.93-31.09l-5.85 26.95c-.36 1.63-.72 3.25-1.07 4.88-.85 4-3.95 5.6-7.9 4.39-2.1-.65-1.3-2.06-1.07-3.2 4.3-20.5 8.66-41 12.95-61.5.44-2.1 1.25-3.13 3.61-3 5.66.2 12.43-1.75 16.67.73s2.66 9.92 3.72 15.17c1.25 6.37 2.21 12.71 3.56 20.54ZM456.25 83.66c-11.41 0-22.83.08-34.24 0-10.65-.09-21.3-.53-32-.55-44.65-.09-89.3-.34-133.95 0q-57.67.42-115.35 2c-45.57 1.28-91.15 2.87-136.62 6.37-2.88.22-4.23-.12-4.12-3.52.44-13.24-2-10.61 10.6-11.09 55.43-2.09 110.89-2.26 166.34-1.81 42.29.34 84.57 1.17 126.85 2.25 38.26 1 76.51 2.56 114.76 3.94 12.57.46 25.14 1.13 37.71 1.71ZM39.44 40.81c-9.26-.67-18.52-1.27-27.76-2.06-1.45-.12-4.45 1.12-3.93-2 .44-2.67-.91-6.85 4-7.28 5.63-.49 11.27-1 16.9-1.47a27.18 27.18 0 0 0 3.2-.83c-6.48-.52-11.58-.76-16.63-1.42-1.69-.22-5.22 1.56-4.78-2 .39-3.06-.52-7.58 5.36-7.8 10.64-.38 21.25-1.39 31.88-2.22A20.92 20.92 0 0 0 55.43 12L13.78 8.93c2.33-5.38 5.89-8.2 11.27-8.2q19.8-.16 39.5 0c6 0 9.33 3.86 8.11 9.81-3.81 18.37-7.81 36.73-11.62 55.13-.43 2-1.35 2.81-3.35 2.79-5.66 0-11.33-.1-17 0-2.72 0-3-1.2-2.54-3.42 1.13-5 2.09-10.1 3.31-15.11.53-2.18.15-3.2-2.24-2.93a2.09 2.09 0 0 1-.5 0c-10.45-.49-10.45-.49-12.58 9.86-2.37 11.57-2.37 11.57-14.08 11.57-11.33 0-11.45 0-8.91-10.93 1-4.34.22-10.17 3.53-12.61 3-2.2 8.29-1.31 12.58-1.68 3.49-.3 7-.41 10.47-.7 3.25-.27 6.48-.65 9.72-1ZM468.95 47.31c-13.48-1.19-13.48-1.19-16.23 11.49-2.06 9.54-2.06 9.54-11.73 9.54h-.5c-4.07-.38-9.62 1.85-11.78-1-1.63-2.14.82-7.47 1.64-11.34 3.09-14.65 6.18-29.3 9.41-43.92C441.59 3.77 445.65.64 454.13.63h36.49c7.12 0 10.12 3.57 8.7 10.45-3.69 17.92-7.56 35.8-11.2 53.72-.53 2.65-1.5 3.66-4.23 3.57-5.32-.17-10.67-.19-16 0-3 .11-3.32-1.21-2.77-3.61 1.25-5.65 2.45-11.33 3.83-17.45Zm8-38.32c-3.81 0-7.26.17-10.69-.06-2.6-.17-3.4 1-3.83 3.29-1.06 5.69-2.37 11.34-3.53 17-1.94 9.57-1.92 9.52 7.94 9.43 2.3 0 4 0 4.53-3 1.65-8.77 3.65-17.47 5.58-26.66ZM175.45 68.34c-5.66 0-11.32.09-17 0-7-.14-10.06-3.48-8.75-10.12q4.67-23.71 10-47.3C161.33 3.73 165.64.73 172.98.66c11 0 22-.06 33 .07 1.27 0 4.29-1.25 3.61 1.45-.58 2.33 1.19 6.76-3.77 6.81-6.32.06-12.66.23-19-.07-3.25-.15-4.32 1.1-4.82 4-.81 4.74-1.92 9.44-3 14.14-.48 2.11 0 3 2.39 2.94 4.16-.15 8.33-.18 12.48 0 1.38.07 4.64-1.37 3.71 1.88-.69 2.43 1.23 7.09-4.21 6.91-4-.13-8 .17-12-.08-3.49-.22-5.49.42-5.85 4.54a82.77 82.77 0 0 1-2.67 12.71c-.66 2.69-.24 3.88 2.94 3.74 5.81-.24 11.65-.16 17.47 0 1.37 0 4.45-1.33 3.59 2.07-.61 2.42 1 6.6-4 6.58-5.75-.03-11.57-.01-17.4-.01ZM244.03.64c5.49 0 11-.11 16.48.07 1.4 0 4.46-1.39 3.9 1.67-.46 2.49.93 6.91-4.48 6.67-6.15-.27-12.32.09-18.47-.13-2.94-.1-4.1.89-4.56 3.77-.74 4.76-1.88 9.45-3 14.15-.53 2.34 0 3.31 2.65 3.18a109.17 109.17 0 0 1 12 0c1.39.08 4.54-1.35 3.88 1.63-.56 2.58 1.22 7.4-4.48 7.17-4.32-.17-8.66.09-13-.08-2.54-.1-3.87.41-4.27 3.32a111.39 111.39 0 0 1-2.83 13.67c-.81 3-.33 4.13 3.07 4 5.82-.26 11.66-.16 17.48 0 1.28 0 4-1.2 3.48 1.75-.47 2.41.72 6.64-3.17 6.74-12.48.33-25 .28-37.45-.06-5-.14-7.83-4.17-6.83-9.08 3.3-16.29 6.69-32.56 10.37-48.76 1.49-6.52 6-9.58 12.76-9.64 5.48-.08 10.97-.04 16.47-.04ZM330.69 1.15c-8.57 9.18-16.63 18-25 26.61-2.21 2.28-2.46 4.23-1.5 7 3.39 9.88 6.47 19.87 10 29.72 1.18 3.33.39 4-2.86 3.88-6.14-.28-13.43 1.72-18.1-1-4.51-2.55-4.14-10.55-6.28-16.11-.43-1.06-.8-2.14-1.41-3.76-5.1 5.46-10.31 10.36-14.69 15.92-3.86 4.89-8.33 5.83-14.58 4.41 7.82-8.39 15.19-16.63 23-24.49 2.94-3 3.63-5.38 2.1-9.45-3.57-9.47-6.29-19.25-9.65-28.8-1.2-3.4-1.06-4.83 3-4.5 3.48.27 7 0 10.49 0 8.17 0 8.16 0 10.67 7.93 1.2 3.8 2.44 7.59 3.69 11.38.2.63.51 1.22 1 2.36 5.15-5.46 10.58-10.39 15-16.13 3.88-5.2 8.51-6.51 15.12-4.97ZM348.63 56.81a3.39 3.39 0 0 1 .17.84c-.77 3.49-.18 9-2.72 10-4.39 1.61-9.74.6-14.69.65-.43 0-1.18-.28-1.24-.54-.72-3.2.92-6.1 1.32-9.17.31-2.45 2.41-1.73 3.93-1.75 4.45-.03 8.88-.03 13.23-.03Z" class="cls-2"/><path d="M476.95 8.99c-2 9.19-4 17.89-5.58 26.65-.56 3-2.23 3-4.53 3-9.86.09-9.88.14-7.94-9.43 1.16-5.68 2.47-11.33 3.53-17 .43-2.3 1.23-3.46 3.83-3.29 3.46.24 6.91.07 10.69.07Z" class="cls-1"/></svg>