<svg xmlns="http://www.w3.org/2000/svg" id="Layer_1" data-name="Layer 1" viewBox="0 0 753.61 128.61"><defs><style>.cls-1{fill:#d9d9d9}</style></defs><path d="M474.98 22.42 456.81 39.3c-10.43-11.43-23.26-16.32-38.54-14-9.19 1.41-17.1 5.41-23.16 12.61-13.13 15.61-12.24 40.75 1.88 54.82 15.93 15.86 38.82 14.66 60-3.34 5.92 5.47 11.88 11 17.78 16.42-8.65 16.8-40.66 26.81-67.18 21.22-28.58-6-49.16-29-50.9-56.74-2-31.74 14.48-57.1 43.23-66.61 27.72-9.13 62.01-.73 75.06 18.74ZM601.14 126.08V96.83c0-20.33.08-40.66-.07-61 0-3.83.88-5.37 5-5.18 7 .33 14 .09 21.34.09v10.24a10.78 10.78 0 0 0 2.08-1c12.26-10.59 26.55-12.64 41.72-9.08 16.7 3.91 25.87 15.72 26.86 32 1.26 20.87.3 41.88.3 63.17h-27.56V74.49c-.25-13.12-6.13-20-17.93-20.82-12-.88-21.59 6.57-23.16 18.59a161.26 161.26 0 0 0-.85 18.93c-.12 11.48 0 23 0 34.86ZM117.49 78.56c0-27.82 20.88-48.47 49.65-49.12 14.8-.33 28.57 2.86 39.65 13.23 15.45 14.41 19.17 32.41 12.91 52.06-6.17 19.45-20.86 29.27-40.41 32.53a59.41 59.41 0 0 1-29-2.42c-20.58-6.89-32.81-24.28-32.8-46.28Zm76.62-.61c-.48-12.68-6.95-21.88-17.34-24.64-11-2.93-21.85 1.18-27.32 10.36-6.11 10.26-4.91 25.42 2.65 33.66a24.59 24.59 0 0 0 27.5 5.81c9.2-3.81 14.93-13.76 14.47-25.19ZM498.86 60.39l-10.13-19.67c4.42-2.19 8.36-4.64 12.63-6.18 15.55-5.61 31.46-7.05 47.57-2.75 15 4 25.17 14 26.2 29.25 1.45 21.49.37 43.16.37 65.09h-25c-.21-2.91-.42-5.8-.67-9.32-13.68 13.1-29.26 13.43-45.4 8.27-12.3-3.94-19.14-14.39-18.9-27 .24-12.44 6.81-21.12 19.87-24.84a87.31 87.31 0 0 1 18.65-2.82c7.95-.47 15.95-.11 23.91-.11.58-9.83-4.94-16.39-14.86-18-11.18-1.86-21.03.44-34.24 8.08Zm49 25.68c-8.77.44-17.39.56-25.94 1.42-4.74.48-8.43 3.32-9.18 8.51-.69 4.78 1.22 8.64 5.52 10.78 7.79 3.85 15.55 3.1 22.82-1.41 6.82-4.2 8.57-10.61 6.82-19.29ZM239.82 31.08h28v17.15c0 10.83-.07 21.66 0 32.48.12 15.35 6.76 23.16 19.45 23.07 13.1-.1 21.34-9 21.49-23.58.13-12 0-24 0-36V31.25h27.68v94.9h-25.7v-10.14c-2.22 1.7-3.56 2.7-4.87 3.74-15.59 12.34-42.07 10.76-55.48-3.34-5.73-6-8.46-13.46-9.65-21.5a81.14 81.14 0 0 1-.88-11.44c-.09-17.31-.04-34.62-.04-52.39ZM0 2.13c10.18 0 19.46-.14 28.73.14 1.33 0 3 1.81 3.84 3.19 9.44 15.48 18.75 31 28.12 46.58.84 1.39 1.76 2.74 3 4.62 1.2-1.83 2.21-3.25 3.1-4.74 9.28-15.39 18.59-30.75 27.74-46.21 1.53-2.58 3.15-3.77 6.26-3.67 7.81.22 15.64.07 24.4.07-1.11 2-1.84 3.38-2.65 4.72-14.49 24.1-29 48.15-43.41 72.32a16.66 16.66 0 0 0-2.18 7.89c-.22 13-.1 25.9-.1 39.13h-29v-12.82c-.06-10.49 2-21.59-.79-31.29-2.89-10.05-10.47-18.75-16-28q-14.4-24-28.84-47.88C1.56 5.2 1.07 4.16 0 2.13ZM734.33 24.2a19.31 19.31 0 0 1 19.28 19.42c0 10.79-9.22 19.86-19.83 19.6a19.51 19.51 0 0 1 .55-39Zm-.14 1.79a17.67 17.67 0 1 0 17.38 17.36 17.13 17.13 0 0 0-17.38-17.36Z" class="cls-1"/><path d="M742.66 37.24c-8.34-3.7-11.8-3.53-14.92.36a10 10 0 0 0-.06 12.08c3 3.81 6.66 4 14.24.77-.78 3.22-3.77 5-8 4.68a10.84 10.84 0 0 1-10.33-9.75c-.71-6.06 2.15-10.88 7.47-12.59 4.77-1.54 9.06-.11 11.6 4.45Z" class="cls-1"/></svg>