<?xml version="1.0" encoding="utf-8"?>
<!-- Generator: Adobe Illustrator 27.0.0, SVG Export Plug-In . SVG Version: 6.00 Build 0)  -->
<svg version="1.1" id="Layer_1" xmlns="http://www.w3.org/2000/svg" xmlns:xlink="http://www.w3.org/1999/xlink" x="0px" y="0px"
	 viewBox="0 0 388.5 341.5" style="enable-background:new 0 0 388.5 341.5;" xml:space="preserve">
<style type="text/css">
	.st0{fill:#C6C5C5;}
</style>
<g>
	<path class="st0" d="M47,170.7c0,27-17.2,50.8-42.9,59.1c-1.3,0.5-2.6,0.8-4.1,1.2v110.5h341.5V229.2c0-5.4,2.4-8.7,6.7-10
		c2.1-0.6,4.2-0.9,6.3-1.6c19.8-6.4,34.1-25,34.1-46.9c0-21.9-14.3-40.5-34.1-46.9c-2-0.7-4.1-1-6.1-1.6c-4.3-1.2-6.8-4.5-6.8-10
		V41.3c0-22.4,0-41.3,0-41.3H0v110.5c1.4,0.3,2.9,0.7,4.3,1.2C29.8,119.9,47,143.7,47,170.7z"/>
</g>
</svg>
