<svg id="Layer_1" data-name="Layer 1" xmlns="http://www.w3.org/2000/svg" viewBox="0 0 169.72 341.56"><defs><style>.cls-1{fill:#c5c4c4;}</style></defs><title>Puzzle 111</title><path class="cls-1" d="M315.24,239.88q0-54.78,0-109.56c0-.9.2-1.1,1.1-1.1q83.76,0,167.52,0c.9,0,1.1.2,1.1,1.1q0,169.68,0,339.36c0,.9-.2,1.1-1.1,1.1q-83.76,0-167.52,0c-.9,0-1.1-.2-1.1-1.1q0-54.78,0-109.56a68.33,68.33,0,0,0,13-5,60.25,60.25,0,0,0,19-14.87A62.52,62.52,0,0,0,359,319.48a57.39,57.39,0,0,0,3-15.15,62.48,62.48,0,0,0-.46-13.25,63.3,63.3,0,0,0-8-22.72A59.89,59.89,0,0,0,339,251.55,62.21,62.21,0,0,0,315.24,239.88Z" transform="translate(-315.22 -129.22)"/></svg>