<svg xmlns="http://www.w3.org/2000/svg" xmlns:xlink="http://www.w3.org/1999/xlink" width="959.853" height="788.144" viewBox="0 0 959.853 788.144"><defs><linearGradient id="a" y1="1" x2="0" gradientUnits="objectBoundingBox"><stop offset="0" stop-color="#4255e9"/><stop offset="1" stop-color="#8d55ea"/></linearGradient></defs><path d="M3.2-909.307c.433.953,15.769,29.546,21.055,39.164,2.513,4.505,6.238,11.35,8.231,15.163,4.939,9.184,18.889,34.918,25.127,46.355,2.686,5.026,6.845,12.564,9.1,16.9,2.253,4.245,7.538,14.036,11.7,21.661,6.5,11.87,12.65,23.221,27.293,50.254,1.56,2.859,4.072,7.538,5.632,10.4,6.932,12.91,10.657,19.755,23.221,42.889,7.278,13.6,16.116,29.719,19.408,35.958,3.379,6.152,8.578,15.769,11.524,21.228,9.444,17.5,28.333,52.247,31.192,57.619,4.159,7.711,14.21,26.253,16.9,31.192,12.13,22.354,19.408,35.784,22.528,41.59,2.079,3.812,4.592,8.491,5.632,10.4,1.993,3.552,3.119,5.632,14.3,26.427,3.466,6.412,6.932,12.823,7.8,14.3.78,1.386,3.552,6.5,6.065,11.264s4.852,9.011,5.2,9.531c.347.433,2.6,4.592,4.939,9.1,4.159,7.8,6.412,11.957,20.795,38.557,7.018,13,19.928,36.478,22.7,41.59,1.126,1.906,5.2,8.4,9.184,14.383C394.922-209.562,517.265-138.167,639-124.65c33.618,3.726,48.088,3.726,80.58,0,16.116-1.906,28.766-4.592,117.4-25.474,8.578-2.08,19.5-4.592,24.261-5.632,12.477-2.859,55.539-12.823,72.782-16.9,8.145-1.906,15.943-3.726,17.329-3.986,1.473-.347,4.679-1.126,7.192-1.819l4.505-1.213V-910h-480.1C218.946-910,3.027-909.653,3.2-909.307Z" transform="translate(-3.2 910)" fill="url(#a)"/></svg>