<svg id="Layer_1" data-name="Layer 1" xmlns="http://www.w3.org/2000/svg" viewBox="0 0 125.05 167.26"><defs><style>.cls-1{fill:#eae9ea;}.cls-2{fill:#fefefe;}.cls-3{fill:#8c56a3;}.cls-4{fill:#f8a533;}</style></defs><title>tip</title><path class="cls-1" d="M327.84,373.28c.73.62.43,1.46.43,2.21,0,6.27,0,12.53,0,18.8h-1.72l-.43-.43V381.43c1-.84.88-2,.84-3.09A14.55,14.55,0,0,1,327.84,373.28Z" transform="translate(-326.12 -227.05)"/><path class="cls-2" d="M326.14,393.86l.43.43C326.2,394.37,326.06,394.23,326.14,393.86Z" transform="translate(-326.12 -227.05)"/><path class="cls-3" d="M327.84,373.28a14.55,14.55,0,0,0-.86,5.06c-.69-.46-.39-1.17-.39-1.76q0-74.24,0-148.48a3.53,3.53,0,0,1,.16-1c.73,2.95,1.15,6,1.91,8.92a65.23,65.23,0,0,0,88,43.72c14.9-5.94,30.61,2.44,34,18.09,3,13.7-7.05,27.56-21,29.31a25.49,25.49,0,0,1-12.78-1.65c-17.75-7-35.49-7-52.75,1.21-19.42,9.26-31.53,24.67-36.18,45.78A6.07,6.07,0,0,0,327.84,373.28Z" transform="translate(-326.12 -227.05)"/><path class="cls-4" d="M422.14,377.25c-.06.33-.15.65-.56.69s-.66-.31-.72-.73Z" transform="translate(-326.12 -227.05)"/></svg>