<svg xmlns="http://www.w3.org/2000/svg" viewBox="0 0 159.85 156.85"><defs><style>.cls-1{fill:#ffe292;}.cls-2{fill:#ffcd2e;}.cls-3{fill:#231f20;}.cls-4{fill:#7e6fc1;}.cls-5{fill:#c0b2d8;}.cls-6{fill:#ee447f;}.cls-7{fill:#fff;}.cls-8{fill:#61d894;}.cls-9{fill:#d1d8ce;}</style></defs><title>design</title><g id="Layer_4" data-name="Layer 4"><circle class="cls-1" cx="127.63" cy="318.84" r="78.42" transform="translate(-237.28 -56.78) rotate(-45)"/></g><g id="Layer_2" data-name="Layer 2"><rect class="cls-2" x="73.68" y="17.07" width="6.65" height="26.8" rx="1.12" ry="1.12"/><path class="cls-3" d="M128.42,284.78H124a1.63,1.63,0,0,1-1.62-1.62V258.6A1.63,1.63,0,0,1,124,257h4.42A1.63,1.63,0,0,1,130,258.6v24.56A1.63,1.63,0,0,1,128.42,284.78ZM124,258a.62.62,0,0,0-.62.62v24.56a.62.62,0,0,0,.62.62h4.42a.62.62,0,0,0,.62-.62V258.6a.62.62,0,0,0-.62-.62Z" transform="translate(-49.21 -240.41)"/><path class="cls-2" d="M147.55,368.86a1.11,1.11,0,0,1-.69,1.41l-4.19,1.43a1.12,1.12,0,0,1-1.42-.7l-7.93-23.24a1.11,1.11,0,0,1,.7-1.42l4.18-1.43a1.12,1.12,0,0,1,1.42.7Z" transform="translate(-49.21 -240.41)"/><path class="cls-3" d="M142.31,372.26a1.62,1.62,0,0,1-1.53-1.09l-7.93-23.25a1.61,1.61,0,0,1,1-2.05l4.19-1.43a1.62,1.62,0,0,1,2.05,1L148,368.69h0a1.67,1.67,0,0,1-.08,1.24,1.6,1.6,0,0,1-.93.82l-4.19,1.42A1.54,1.54,0,0,1,142.31,372.26Zm-3.75-26.91a.51.51,0,0,0-.2,0l-4.18,1.42a.66.66,0,0,0-.36.32.63.63,0,0,0,0,.47l7.94,23.24a.61.61,0,0,0,.78.39l4.18-1.43a.58.58,0,0,0,.36-.31.64.64,0,0,0,0-.47l-7.94-23.25a.57.57,0,0,0-.31-.35A.5.5,0,0,0,138.56,345.35Z" transform="translate(-49.21 -240.41)"/><path class="cls-2" d="M106.16,368.86a1.11,1.11,0,0,0,.7,1.41L111,371.7a1.11,1.11,0,0,0,1.42-.7l7.94-23.24a1.13,1.13,0,0,0-.7-1.42l-4.18-1.43a1.11,1.11,0,0,0-1.42.7Z" transform="translate(-49.21 -240.41)"/><path class="cls-3" d="M111.4,372.26a1.58,1.58,0,0,1-.52-.09l-4.18-1.42a1.6,1.6,0,0,1-.93-.82,1.62,1.62,0,0,1-.08-1.24h0l7.94-23.24a1.55,1.55,0,0,1,.81-.93,1.62,1.62,0,0,1,1.24-.08l4.18,1.43a1.61,1.61,0,0,1,1,2.05l-7.94,23.25A1.6,1.6,0,0,1,111.4,372.26ZM106.64,369a.56.56,0,0,0,0,.47.59.59,0,0,0,.35.31l4.19,1.43a.61.61,0,0,0,.78-.39l7.93-23.24a.59.59,0,0,0,0-.47.65.65,0,0,0-.35-.32l-4.19-1.42a.61.61,0,0,0-.78.38Z" transform="translate(-49.21 -240.41)"/><path class="cls-2" d="M164.51,355c-1.9,7.38,9.74,25.1,33,2,12.18-12.06,14.49-29,6.12-36.87s-25.28-4.68-36.43,8.34C151.06,347.15,166.92,345.42,164.51,355Zm4.94-8.52c1.93-.47,4.05,1.42,4.72,4.21s-.33,5.43-2.27,5.9-4.05-1.41-4.72-4.2S167.52,346.9,169.45,346.43Z" transform="translate(-49.21 -240.41)"/><path class="cls-3" d="M159.73,339.64c.71-2.76,2.78-6.38,7.18-11.47,6.43-7.51,15.27-12.26,23.65-12.71,5.35-.29,10.11,1.25,13.39,4.34s5,7.51,5.1,12.82c.11,8.38-4.08,17.59-11.21,24.65-14.32,14.18-23.42,12.3-27.57,9.92-4.87-2.8-7.12-8.64-6.17-12.35.82-3.23-.59-5.08-2.08-7C160.39,345.67,158.73,343.5,159.73,339.64Zm47.59,0a26.94,26.94,0,0,0,.89-7.05c-.07-5.08-1.74-9.3-4.84-12.22s-7.64-4.39-12.76-4.12c-8.16.45-16.78,5.09-23.06,12.42-10.12,11.71-7.57,15.05-4.87,18.58,1.55,2,3.16,4.13,2.24,7.76h0c-.88,3.41,1.23,8.8,5.77,11.41,3.94,2.26,12.64,4,26.56-9.79A37.72,37.72,0,0,0,207.32,339.68ZM166.75,349a4.31,4.31,0,0,1,.19-.61,3.55,3.55,0,0,1,2.41-2.34,3.26,3.26,0,0,1,2.52.47,6.54,6.54,0,0,1,2.72,4.05c.73,3-.43,5.89-2.59,6.41s-4.5-1.5-5.23-4.51A7.15,7.15,0,0,1,166.75,349Zm7,4.84a6.51,6.51,0,0,0,0-3.07,5.67,5.67,0,0,0-2.33-3.53,2.5,2.5,0,0,0-1.89-.37h0a2.72,2.72,0,0,0-1.82,1.83,6,6,0,0,0-.14,3.57c.62,2.56,2.51,4.31,4.21,3.9A3,3,0,0,0,173.79,353.81Z" transform="translate(-49.21 -240.41)"/><path class="cls-4" d="M187.71,357.12a4.27,4.27,0,1,1,6-.19A4.27,4.27,0,0,1,187.71,357.12Z" transform="translate(-49.21 -240.41)"/><path class="cls-3" d="M186.1,352.83a4.63,4.63,0,0,1,1.12-2,4.71,4.71,0,1,1-1.12,2Zm8.26,2.14a3.85,3.85,0,1,0-.92,1.67A3.69,3.69,0,0,0,194.36,355Z" transform="translate(-49.21 -240.41)"/><path class="cls-5" d="M194.73,348.61a4.27,4.27,0,1,1,6-.18A4.26,4.26,0,0,1,194.73,348.61Z" transform="translate(-49.21 -240.41)"/><path class="cls-3" d="M193.12,344.32a4.59,4.59,0,0,1,1.12-2,4.69,4.69,0,1,1,.2,6.63h0A4.68,4.68,0,0,1,193.12,344.32Zm8.26,2.15a3.55,3.55,0,0,0,.12-1.08,3.85,3.85,0,0,0-6.65-2.52,3.85,3.85,0,1,0,6.53,3.6Zm-6.65,2.14h0Z" transform="translate(-49.21 -240.41)"/><path class="cls-6" d="M198.6,338.27a4.27,4.27,0,1,1,6-.18A4.27,4.27,0,0,1,198.6,338.27Z" transform="translate(-49.21 -240.41)"/><path class="cls-3" d="M197,334a4.7,4.7,0,0,1,1.13-2,4.69,4.69,0,0,1,8.11,3.07,4.7,4.7,0,0,1-4.55,4.83,4.66,4.66,0,0,1-3.36-1.28h0a4.61,4.61,0,0,1-1.47-3.27A4.49,4.49,0,0,1,197,334Zm8.27,2.15a3.85,3.85,0,1,0-7.57-.85,3.81,3.81,0,0,0,1.21,2.68h0a3.84,3.84,0,0,0,6.36-1.83Z" transform="translate(-49.21 -240.41)"/><path class="cls-7" d="M195.69,327.92a4.27,4.27,0,1,1,6-.18A4.27,4.27,0,0,1,195.69,327.92Z" transform="translate(-49.21 -240.41)"/><path class="cls-3" d="M194.08,323.64a4.56,4.56,0,0,1,1.12-2,4.7,4.7,0,1,1-1.27,3.36A4.82,4.82,0,0,1,194.08,323.64Zm8.26,2.14a3.84,3.84,0,0,0-6.52-3.6,3.84,3.84,0,0,0,.16,5.44h0a3.85,3.85,0,0,0,5.44-.17A3.69,3.69,0,0,0,202.34,325.78Z" transform="translate(-49.21 -240.41)"/><path class="cls-3" d="M68.05,356.76c-5.4,0-9.78-5.26-9.78-11.73s4.38-11.73,9.78-11.73a.5.5,0,0,1,.5.5v22.46A.51.51,0,0,1,68.05,356.76Zm-.5-22.44c-4.61.31-8.28,5-8.28,10.71s3.67,10.39,8.28,10.71Z" transform="translate(-49.21 -240.41)"/><path class="cls-3" d="M68.05,353.1c-3.73,0-6.76-3.62-6.76-8.07s3-8.07,6.76-8.07a.5.5,0,0,1,.5.5V352.6A.5.5,0,0,1,68.05,353.1ZM67.55,338c-2.94.32-5.26,3.36-5.26,7s2.31,6.73,5.26,7Z" transform="translate(-49.21 -240.41)"/><path class="cls-8" d="M21.67,87.78H41.91a2.83,2.83,0,0,1,2.83,2.83v27a2.83,2.83,0,0,1-2.83,2.83H21.68a2.84,2.84,0,0,1-2.84-2.84v-27A2.83,2.83,0,0,1,21.67,87.78Z"/><path class="cls-3" d="M91.12,361.33H70.88A3.34,3.34,0,0,1,67.55,358V331a3.33,3.33,0,0,1,3.33-3.33H91.12A3.33,3.33,0,0,1,94.45,331v27A3.34,3.34,0,0,1,91.12,361.33ZM70.88,328.7A2.33,2.33,0,0,0,68.55,331v27a2.33,2.33,0,0,0,2.33,2.34H91.12A2.34,2.34,0,0,0,93.45,358V331a2.33,2.33,0,0,0-2.33-2.33Z" transform="translate(-49.21 -240.41)"/><path class="cls-3" d="M91.12,361.33H70.88A3.34,3.34,0,0,1,67.55,358V331a3.33,3.33,0,0,1,3.33-3.33H91.12A3.33,3.33,0,0,1,94.45,331v27A3.34,3.34,0,0,1,91.12,361.33ZM70.88,328.7A2.33,2.33,0,0,0,68.55,331v27a2.33,2.33,0,0,0,2.33,2.34H91.12A2.34,2.34,0,0,0,93.45,358V331a2.33,2.33,0,0,0-2.33-2.33Z" transform="translate(-49.21 -240.41)"/><path class="cls-7" d="M81,325.09l-.15,0a.51.51,0,0,1-.33-.63c1.26-3.91.63-7.09,0-10.45-.71-3.63-1.45-7.38,0-12.35a.5.5,0,1,1,1,.29c-1.41,4.73-.7,8.36,0,11.86s1.34,6.8,0,10.95A.51.51,0,0,1,81,325.09Z" transform="translate(-49.21 -240.41)"/><path class="cls-7" d="M83.64,313.69a.51.51,0,0,1-.48-.35c-1.33-4.16-.68-7.46,0-10.95s1.4-7.13,0-11.87a.5.5,0,0,1,1-.28c1.48,5,.74,8.72,0,12.34-.66,3.37-1.28,6.54,0,10.45a.5.5,0,0,1-.33.63Z" transform="translate(-49.21 -240.41)"/><rect class="cls-7" x="47.93" y="43.21" width="58.51" height="58.51" rx="1.01" ry="1.01"/><path class="cls-3" d="M154.64,342.63H98.15a1.52,1.52,0,0,1-1.51-1.51V284.63a1.52,1.52,0,0,1,1.51-1.51h56.49a1.52,1.52,0,0,1,1.51,1.51v56.49A1.52,1.52,0,0,1,154.64,342.63ZM98.15,284.12a.51.51,0,0,0-.51.51v56.49a.51.51,0,0,0,.51.51h56.49a.51.51,0,0,0,.51-.51V284.63a.51.51,0,0,0-.51-.51Z" transform="translate(-49.21 -240.41)"/><path class="cls-5" d="M146.65,318.55a1.57,1.57,0,0,0-.57-.22.76.76,0,0,0-.53.22h0s-8.43,8-10.76,10.3a.79.79,0,0,1-1.17,0l-19.71-26.74h0a.76.76,0,0,0-1.34,0h0L97.14,321.23v19.31a1,1,0,0,0,1,1h56.38a1,1,0,0,0,1-1V327.85Z" transform="translate(-49.21 -240.41)"/><path class="cls-3" d="M154.53,342H98.15a1.49,1.49,0,0,1-1.51-1.46V321.23a.47.47,0,0,1,.11-.31l15.37-19.14,0,0a1.32,1.32,0,0,1,2.07,0l.06.07L134,328.53c.15.17.38,0,.45-.07,2.27-2.25,10.64-10.2,10.73-10.28l.08-.06a1.26,1.26,0,0,1,.81-.29,1.83,1.83,0,0,1,.83.29l.11.08,8.88,9.31a.48.48,0,0,1,.14.34v12.69A1.49,1.49,0,0,1,154.53,342ZM97.64,321.4v19.14a.49.49,0,0,0,.51.46h56.38a.49.49,0,0,0,.51-.46V328.05l-8.7-9.1a1.12,1.12,0,0,0-.27-.12.27.27,0,0,0-.18.08l-.07,0c-.76.72-8.5,8.07-10.7,10.25a1.3,1.3,0,0,1-1.91-.07l-19.66-26.67a.53.53,0,0,1-.12-.14.31.31,0,0,0-.46,0,.59.59,0,0,1-.15.17Z" transform="translate(-49.21 -240.41)"/><path class="cls-2" d="M147.61,303.08a5.46,5.46,0,1,1-5.45-5.45A5.46,5.46,0,0,1,147.61,303.08Z" transform="translate(-49.21 -240.41)"/><path class="cls-3" d="M142.16,309a6,6,0,1,1,6-6A6,6,0,0,1,142.16,309Zm0-10.91a5,5,0,1,0,5,4.95A5,5,0,0,0,142.16,298.13Z" transform="translate(-49.21 -240.41)"/><path class="cls-4" d="M138.82,334.62c-16.25,0-17-12.37-41.68-9V341.1a1,1,0,0,0,1,1h56.49a1,1,0,0,0,1-1V328C149.18,332.19,147,334.62,138.82,334.62Z" transform="translate(-49.21 -240.41)"/><path class="cls-3" d="M154.64,342.63H98.15a1.52,1.52,0,0,1-1.51-1.53v-16l.43-.06c14.47-2,20.73,1.39,26.79,4.62,4.24,2.27,8.26,4.41,15,4.41s9.33-1.69,13.89-4.76c.82-.55,1.69-1.14,2.67-1.77l.77-.5v14A1.53,1.53,0,0,1,154.64,342.63Zm-57-16.6V341.1a.52.52,0,0,0,.51.53h56.49a.52.52,0,0,0,.51-.53V328.93l-1.88,1.26c-4.57,3.08-7.32,4.93-14.45,4.93-6.95,0-11.07-2.2-15.43-4.53C117.53,327.47,111.48,324.24,97.64,326Z" transform="translate(-49.21 -240.41)"/><rect class="cls-2" x="61.45" y="37.75" width="30.75" height="6.83" rx="1.12" ry="1.12"/><path class="cls-3" d="M140.29,285.5H111.77a1.62,1.62,0,0,1-1.61-1.62v-4.6a1.61,1.61,0,0,1,1.61-1.61h28.52a1.62,1.62,0,0,1,1.62,1.61v4.6A1.63,1.63,0,0,1,140.29,285.5Zm-28.52-6.83a.61.61,0,0,0-.61.61v4.6a.61.61,0,0,0,.61.62h28.52a.62.62,0,0,0,.62-.62v-4.6a.61.61,0,0,0-.62-.61Z" transform="translate(-49.21 -240.41)"/><path class="cls-2" d="M143.75,345.89a1.21,1.21,0,0,1-1.28,1.11H109.78a1.2,1.2,0,0,1-1.28-1.11v-4.6a1.21,1.21,0,0,1,1.28-1.12h32.69a1.21,1.21,0,0,1,1.28,1.12Z" transform="translate(-49.21 -240.41)"/><path class="cls-3" d="M142.47,347.5H109.78a1.7,1.7,0,0,1-1.78-1.61v-4.6a1.7,1.7,0,0,1,1.78-1.62h32.69a1.7,1.7,0,0,1,1.78,1.62v4.6A1.7,1.7,0,0,1,142.47,347.5Zm-32.69-6.83a.72.72,0,0,0-.78.62v4.6a.71.71,0,0,0,.78.61h32.69a.71.71,0,0,0,.78-.61v-4.6a.72.72,0,0,0-.78-.62Z" transform="translate(-49.21 -240.41)"/><path class="cls-2" d="M170.37,284h0c-2.08,3.78-4.85,9.44-2.2,11.13h4.41C175.22,293.41,172.46,287.75,170.37,284Z" transform="translate(-49.21 -240.41)"/><path class="cls-3" d="M172.58,295.46h-4.41a.46.46,0,0,1-.2,0c-2.82-1.81-.36-7.16,2.09-11.62a.37.37,0,0,1,.63,0c2.45,4.46,4.9,9.81,2.08,11.62A.38.38,0,0,1,172.58,295.46Zm-4.3-.72h4.19c2.26-1.63-.68-7.42-2.1-10C169,287.32,166,293.11,168.28,294.74Z" transform="translate(-49.21 -240.41)"/><path class="cls-3" d="M172.61,305.83h-4.47a.33.33,0,0,1-.26-.11.38.38,0,0,1-.1-.26l.3-10.37a.36.36,0,0,1,.36-.35h3.74a.36.36,0,0,1,.36.35l.42,10.37a.32.32,0,0,1-.1.26A.31.31,0,0,1,172.61,305.83Zm-4.1-.72h3.72l-.39-9.65h-3.05Z" transform="translate(-49.21 -240.41)"/><path class="cls-6" d="M172.14,305.46h-3.67c-1.41,11.27-.88,23-.4,31.85.47,8.42.82,14.13,2,14.13h.44c1.19,0,1.55-5.71,2-14.13C173,328.5,173.55,316.73,172.14,305.46Z" transform="translate(-49.21 -240.41)"/><path class="cls-3" d="M170.52,351.8h-.44c-1.44,0-1.77-3.75-2.36-14.47-.54-9.68-1-20.92.39-31.92a.37.37,0,0,1,.36-.32h3.67a.36.36,0,0,1,.35.32c1.38,11,.93,22.25.4,31.92C172.3,348.05,172,351.8,170.52,351.8Zm-1.73-46c-1.33,10.84-.88,21.92-.35,31.47.32,5.82.75,13.79,1.64,13.79h.44c.89,0,1.33-8,1.65-13.79.52-9.55,1-20.63-.35-31.47Z" transform="translate(-49.21 -240.41)"/><path class="cls-3" d="M172.23,305.11l-.39-9.65Z" transform="translate(-49.21 -240.41)"/><path class="cls-7" d="M168.51,305.11h3.72l-.39-9.65h-3.05Z" transform="translate(-49.21 -240.41)"/><path class="cls-7" d="M61.29,345c0-4.25,2.76-7.74,6.26-8v-2.67c-4.61.31-8.28,5-8.28,10.71s3.67,10.39,8.28,10.71v-2.67C64.05,352.76,61.29,349.28,61.29,345Z" transform="translate(-49.21 -240.41)"/><path class="cls-7" d="M148.8,277.17c-4.16,0-6.28-2.56-6.54-5.11a4.38,4.38,0,0,1,1.86-3.91,4.19,4.19,0,0,1,3.69-.6,11.64,11.64,0,0,1,11.61-11.33,11.52,11.52,0,0,1,10.7,7.1,4.34,4.34,0,0,1,3.82,3.94c3,.65,5,2.61,5,4.84,0,2.73-3,5-6.86,5.07Zm-2.26-8.81a3.09,3.09,0,0,0-1.84.6,3.44,3.44,0,0,0-1.44,3c.19,1.94,1.76,4.21,5.54,4.21h23.3c3.24-.1,5.88-1.92,5.88-4.07,0-1.83-1.88-3.45-4.58-3.93a.5.5,0,0,1-.41-.45,3.4,3.4,0,0,0-3.23-3.43.5.5,0,0,1-.45-.32,10.61,10.61,0,0,0-20.5,3.87c0,.14,0,.27,0,.41a.5.5,0,0,1-.71.47A3.81,3.81,0,0,0,146.54,268.36Z" transform="translate(-49.21 -240.41)"/><path class="cls-7" d="M71.83,254.55a2.83,2.83,0,0,1,2.71-2.84,8.12,8.12,0,0,1,15.69,3V255a2.82,2.82,0,0,1,4.06,2.74c-.15,1.49-1.38,3.4-4.41,3.4h-17c-2.59-.07-4.66-1.54-4.66-3.33C68.18,256.23,69.73,254.93,71.83,254.55Z" transform="translate(-49.21 -240.41)"/><path class="cls-5" d="M89.88,261.62h-17c-2.9-.08-5.16-1.77-5.16-3.83,0-1.68,1.5-3.15,3.7-3.66a3.3,3.3,0,0,1,2.82-2.89,8.62,8.62,0,0,1,16.53,3,3.23,3.23,0,0,1,2.65.5,3.37,3.37,0,0,1,1.41,3C94.6,259.69,93,261.62,89.88,261.62ZM82.11,247a7.57,7.57,0,0,0-7.1,4.85.5.5,0,0,1-.45.32,2.32,2.32,0,0,0-2.23,2.38.5.5,0,0,1-.41.45c-1.91.34-3.24,1.47-3.24,2.75,0,1.49,1.87,2.76,4.18,2.83h17c2.67,0,3.78-1.59,3.91-2.95a2.34,2.34,0,0,0-1-2.07,2.26,2.26,0,0,0-2.36-.16.51.51,0,0,1-.48,0,.5.5,0,0,1-.22-.44v-.29A7.63,7.63,0,0,0,82.11,247Zm-10.28,7.51h0Z" transform="translate(-49.21 -240.41)"/><path class="cls-9" d="M94.45,250.35h0Z" transform="translate(-49.21 -240.41)"/><path class="cls-8" d="M117,250.85H94.45a.5.5,0,0,1,0-1H117a.5.5,0,1,1,0,1Z" transform="translate(-49.21 -240.41)"/><path class="cls-9" d="M97.21,253.83h0Z" transform="translate(-49.21 -240.41)"/><path class="cls-8" d="M134.61,254.33H97.21a.5.5,0,0,1-.5-.5.5.5,0,0,1,.5-.5h37.4a.5.5,0,0,1,.5.5A.5.5,0,0,1,134.61,254.33Z" transform="translate(-49.21 -240.41)"/><path class="cls-4" d="M54.72,283.74a2.07,2.07,0,1,1-2.06-2.06A2.07,2.07,0,0,1,54.72,283.74Z" transform="translate(-49.21 -240.41)"/><path class="cls-2" d="M66.76,279.08a4.45,4.45,0,1,1-4.44-4.45A4.44,4.44,0,0,1,66.76,279.08Z" transform="translate(-49.21 -240.41)"/><path class="cls-3" d="M62.32,284a5,5,0,1,1,4.94-4.95A5,5,0,0,1,62.32,284Zm0-8.9a4,4,0,1,0,3.94,3.95A4,4,0,0,0,62.32,275.13Z" transform="translate(-49.21 -240.41)"/><path class="cls-4" d="M188,282.22a2.07,2.07,0,1,1-2.06-2.07A2.06,2.06,0,0,1,188,282.22Z" transform="translate(-49.21 -240.41)"/><path class="cls-8" d="M193.88,297.47a4.79,4.79,0,1,1-4.79-4.79A4.78,4.78,0,0,1,193.88,297.47Z" transform="translate(-49.21 -240.41)"/><path class="cls-7" d="M189.09,302.76a5.29,5.29,0,1,1,5.29-5.29A5.3,5.3,0,0,1,189.09,302.76Zm0-9.58a4.29,4.29,0,1,0,4.29,4.29A4.3,4.3,0,0,0,189.09,293.18Z" transform="translate(-49.21 -240.41)"/><path class="cls-6" d="M205.69,285.85a2.92,2.92,0,1,1-2.91-2.91A2.91,2.91,0,0,1,205.69,285.85Z" transform="translate(-49.21 -240.41)"/><path class="cls-7" d="M154.37,379.41H85a.5.5,0,0,1-.5-.5.5.5,0,0,1,.5-.5h69.39a.5.5,0,0,1,.5.5A.51.51,0,0,1,154.37,379.41Z" transform="translate(-49.21 -240.41)"/><path class="cls-7" d="M186,384.15h-77.9a.5.5,0,0,1-.5-.5.5.5,0,0,1,.5-.5H186a.5.5,0,0,1,.5.5A.51.51,0,0,1,186,384.15Z" transform="translate(-49.21 -240.41)"/><path class="cls-7" d="M104,384.15h-3.26a.51.51,0,0,1-.5-.5.5.5,0,0,1,.5-.5H104a.5.5,0,0,1,.5.5A.5.5,0,0,1,104,384.15Z" transform="translate(-49.21 -240.41)"/><path class="cls-9" d="M137,253.66h0Z" transform="translate(-49.21 -240.41)"/><path class="cls-8" d="M140.44,254.16H137a.5.5,0,0,1-.5-.5.5.5,0,0,1,.5-.5h3.49a.51.51,0,0,1,.5.5A.5.5,0,0,1,140.44,254.16Z" transform="translate(-49.21 -240.41)"/><path class="cls-7" d="M87.49,267.42H64.92a.5.5,0,0,1-.5-.5.5.5,0,0,1,.5-.5H87.49a.5.5,0,0,1,.5.5A.5.5,0,0,1,87.49,267.42Z" transform="translate(-49.21 -240.41)"/><path class="cls-7" d="M105.08,270.9H76.21a.5.5,0,0,1-.5-.5.5.5,0,0,1,.5-.5h28.87a.5.5,0,0,1,.5.5A.51.51,0,0,1,105.08,270.9Z" transform="translate(-49.21 -240.41)"/><path class="cls-7" d="M115.91,270.73h-8.49a.5.5,0,0,1-.5-.5.5.5,0,0,1,.5-.5h8.49a.5.5,0,0,1,.5.5A.5.5,0,0,1,115.91,270.73Z" transform="translate(-49.21 -240.41)"/><path class="cls-7" d="M54.57,306.07a2.56,2.56,0,1,1,2.56-2.56A2.57,2.57,0,0,1,54.57,306.07Zm0-4.12a1.56,1.56,0,1,0,1.56,1.56A1.56,1.56,0,0,0,54.57,302Z" transform="translate(-49.21 -240.41)"/><path class="cls-7" d="M57.71,324.05A5.29,5.29,0,1,1,63,318.76,5.29,5.29,0,0,1,57.71,324.05Zm0-9.58A4.29,4.29,0,1,0,62,318.76,4.3,4.3,0,0,0,57.71,314.47Z" transform="translate(-49.21 -240.41)"/><path class="cls-6" d="M72.59,297.47a2.92,2.92,0,1,1-2.91-2.92A2.91,2.91,0,0,1,72.59,297.47Z" transform="translate(-49.21 -240.41)"/></g></svg>