<svg id="Layer_1" data-name="Layer 1" xmlns="http://www.w3.org/2000/svg" viewBox="0 0 780.96 79.36"><defs><style>.cls-1{fill:#fbfafc;}</style></defs><title>Header</title><path class="cls-1" d="M523.81,313.3H512.13c-.65,0-1.29-.09-1.94-.09l-94.41,0c-.59,0-1.18.05-1.76.07-6.38-.06-12.75-.16-19.12.06-.47,0-.93-.11-1.4-.11H340c-.47,0-.94.08-1.4.12-.82,0-1.64-.12-2.46-.12l-91.4,0-141.49,0c-1.12,0-2.24.07-3.35.11-5.48-.31-11,.14-16.44-.31a54.52,54.52,0,0,1-20.88-6,45.67,45.67,0,0,1-13.37-10.35A22.76,22.76,0,0,1,44.63,290c-.39-1-.85-1.16-1.83-.61-7.72,4.42-15.62,4.44-23.41.34a19,19,0,0,1-8-8.16,16,16,0,0,1-.91-13.59A19.21,19.21,0,0,1,22.38,256.5a23.14,23.14,0,0,1,20.54,1.8c.79.47,1.19.41,1.63-.45,4.42-8.75,11.68-14.38,20.34-18.51A57.21,57.21,0,0,1,80,234.78a96,96,0,0,1,12.34-.56q38.28,0,76.57,0c.82,0,1.64-.05,2.47-.08.46,0,.93.08,1.4.08l73.33,0c.47,0,.94,0,1.41-.07s1.06.08,1.59.08l88.91,0c.53,0,1.05,0,1.58-.07s.94.07,1.41.07H430c.47,0,.94,0,1.41-.06s1.06.06,1.59.06h67.32c3.36,0,6.71,0,10.07-.07.7,0,1.41.07,2.11.07h61.31c2.83,0,5.65,0,8.48-.06H616.6c.47,0,.94,0,1.41,0q43.92,0,87.85,0c.47,0,.94,0,1.41,0,4.58.15,9.18-.07,13.75.74,8.9,1.56,17,4.75,23.91,10.79.22.19.43.4.77.31,2,2.29,4,4.56,6,6.88a21.12,21.12,0,0,1,2.44,4.29c.59,1.18,1,1.81,2.7.89,8.37-4.6,16.94-4.58,24.95.61,8.25,5.35,11.06,14.87,6.2,23.9-3.21,6-8.88,9-15.54,10.05a23.29,23.29,0,0,1-16.25-3.33c-.71-.44-.94-.2-1.4.29a9.35,9.35,0,0,0-1.21,2.12,39.51,39.51,0,0,1-11.05,12.29c-7.2,5.47-15.45,8.07-24.28,9.2l-31.17.13c-.71,0-1.41-.07-2.12-.07l-159,0C525.22,313.21,524.51,313.27,523.81,313.3Zm128.92-75.19c-.71,0-1.42-.06-2.12-.06H590.73c-2.71,0-5.42,0-8.13.06-7.29,0-14.59-.06-21.88-.05-10.18,0-20.36,0-30.53.06-3.47,0-6.94-.06-10.41-.06q-18,0-36,.06c-.65,0-1.3-.05-1.94-.05H420.2c-1.71,0-3.41,0-5.12.07-.7,0-1.41-.06-2.11-.06q-24.29,0-48.56,0c-2.59,0-5.18,0-7.77.07-.7,0-1.41-.07-2.11-.07H310.92c-3.17,0-6.35,0-9.53.07-.41,0-.82-.07-1.23-.07H231.43c-.41,0-.82.05-1.23.07s-.94-.06-1.41-.06h-88.9c-.47,0-.94,0-1.41.08a8.72,8.72,0,0,0-.88-.08c-16.86,0-33.72,0-50.57,0a31.26,31.26,0,0,0-8,.89,3.21,3.21,0,0,0-1.77.4l-1.16.14c-3.91,1.06-7.8,2.16-11.24,4.43a1.67,1.67,0,0,0-1.36.63,24.76,24.76,0,0,0-6.39,4.26,30.7,30.7,0,0,0-9.61,12.88c-.37,1-1.07,1.78-1.5,2.73-.2.47-.75.6-1,.19-.42-.76-1.26-.7-1.8-1.2a16.86,16.86,0,0,0-9.59-4.44c-7.16-.91-13.17,1.34-17.42,7.24-3,4.21-2.53,12,.93,16.18,5.53,6.74,16.28,7.81,22.78,4,1.72-1,3.25-2.27,4.88-3.4.52-.36,1-.61,1.23.13.46,1.31,1.42,2.34,1.87,3.68a21.57,21.57,0,0,0,4.5,7.19A40,40,0,0,0,63,302.77a46.06,46.06,0,0,0,16,5.77,38.18,38.18,0,0,0,9.47.9q24,0,47.92,0c.7,0,1.41-.07,2.11-.11s1.4.11,2.11.11l87.69,0c.64,0,1.29-.07,1.93-.11,6,.19,12,.2,18.06,0a24.17,24.17,0,0,0,5.31,0,62,62,0,0,0,8.51,0c.52,0,1.05.1,1.58.1l73,0c.52,0,1.05-.07,1.58-.1q9.21.24,18.41,0c.59,0,1.18.1,1.76.1l49.79,0c.76,0,1.52-.06,2.29-.09s1.52.1,2.29.1l111.23,0c1.47,0,2.94-.05,4.41-.07.65,0,1.3.07,1.94.07l157.62,0c.65,0,1.3,0,1.94-.07H691l.17,0,.17,0c5.78,0,11.56.07,17.34.06a71.34,71.34,0,0,0,11.13-.38c14-2.23,25-8.73,31.35-21.9a49,49,0,0,1,2.28-4.6c.92.62,1.82,1.15,2.64,1.79,4.71,3.7,10,5.51,16,4.47S782.62,284.53,785,279c2.26-5.35,1.32-11.45-4.4-16.09-5.88-4.76-12.41-5.42-19.39-2.6-2.6,1-4.62,3-7,4.39-.68.41-1,.45-1.28-.33-.51-1.43-1.4-2.7-2-4.08-1.2-2.94-3.24-5.29-4.94-7.88a1.17,1.17,0,0,0-.86-.54c-2.91-3.92-6.88-6.57-11.1-8.72A48.2,48.2,0,0,0,711.59,238c-13.08.08-26.16,0-39.25,0C665.8,238.05,659.27,238.09,652.73,238.11Z" transform="translate(-9.4 -234.09)"/></svg>