<svg xmlns="http://www.w3.org/2000/svg" viewBox="0 0 170.65 159.79"><defs><style>.cls-1{fill:#c0b2d8;}.cls-2{fill:#fff;}.cls-3{fill:#231f20;}.cls-4{fill:#7e6fc1;}.cls-5{fill:#ffcd2e;}.cls-6{fill:#ee4052;}.cls-7{fill:#61d894;}</style></defs><title>marketing</title><g id="Layer_4" data-name="Layer 4"><circle class="cls-1" cx="127.51" cy="113.97" r="78.42" transform="translate(-78.54 90.94) rotate(-45)"/></g><g id="Layer_2" data-name="Layer 2"><path class="cls-2" d="M170.52,180.72a2.68,2.68,0,0,1-2.67,2.67H86a2.67,2.67,0,0,1-2.67-2.67v-26.2A2.67,2.67,0,0,1,86,151.85h81.85a2.68,2.68,0,0,1,2.67,2.67Z" transform="translate(-35.29 -32.6)"/><path class="cls-3" d="M86,183.89a3.18,3.18,0,0,1-3.17-3.17v-26.2A3.17,3.17,0,0,1,86,151.35h81.85a3.18,3.18,0,0,1,3.17,3.17v26.2a3.18,3.18,0,0,1-3.17,3.17H86Zm81.85-31.54H86a2.17,2.17,0,0,0-2.17,2.17v26.2a2.14,2.14,0,0,0,.63,1.53,2.17,2.17,0,0,0,1.54.64h81.85a2.19,2.19,0,0,0,2.17-2.17v-26.2A2.17,2.17,0,0,0,167.85,152.35Z" transform="translate(-35.29 -32.6)"/><rect class="cls-4" x="53.13" y="123.93" width="77" height="21.87"/><path class="cls-3" d="M88.42,178.9a.51.51,0,0,1-.5-.5V156.53a.5.5,0,0,1,.5-.5h77a.5.5,0,0,1,.5.5V178.4a.5.5,0,0,1-.5.5Zm77-.5h0ZM88.92,157V177.9h76V157Z" transform="translate(-35.29 -32.6)"/><path class="cls-3" d="M94.36,178.33a.5.5,0,0,1-.5-.5v-21.3a.5.5,0,0,1,.5-.5.51.51,0,0,1,.5.5v21.3A.5.5,0,0,1,94.36,178.33Z" transform="translate(-35.29 -32.6)"/><path class="cls-3" d="M100.8,178.33h0a.5.5,0,0,1-.5-.5v-21.3a.5.5,0,0,1,.5-.5h0a.51.51,0,0,1,.5.5v21.3A.5.5,0,0,1,100.8,178.33Z" transform="translate(-35.29 -32.6)"/><path class="cls-3" d="M107.25,178.33a.5.5,0,0,1-.5-.5v-21.3a.51.51,0,0,1,.5-.5.5.5,0,0,1,.5.5v21.3A.5.5,0,0,1,107.25,178.33Z" transform="translate(-35.29 -32.6)"/><path class="cls-3" d="M113.7,173.73a.5.5,0,0,1-.5-.5v-16.7a.5.5,0,0,1,1,0v16.7A.5.5,0,0,1,113.7,173.73Z" transform="translate(-35.29 -32.6)"/><path class="cls-3" d="M120.15,173.73a.5.5,0,0,1-.5-.5v-16.7a.5.5,0,0,1,.5-.5.51.51,0,0,1,.5.5v16.7A.51.51,0,0,1,120.15,173.73Z" transform="translate(-35.29 -32.6)"/><path class="cls-3" d="M126.59,173.73a.51.51,0,0,1-.5-.5v-16.7a.51.51,0,0,1,.5-.5.5.5,0,0,1,.5.5v16.7A.5.5,0,0,1,126.59,173.73Z" transform="translate(-35.29 -32.6)"/><path class="cls-3" d="M133,178.33a.5.5,0,0,1-.5-.5v-21.3a.5.5,0,0,1,.5-.5.51.51,0,0,1,.5.5v21.3A.5.5,0,0,1,133,178.33Z" transform="translate(-35.29 -32.6)"/><path class="cls-3" d="M139.48,178.33a.5.5,0,0,1-.5-.5v-21.3a.51.51,0,0,1,.5-.5.5.5,0,0,1,.5.5v21.3A.5.5,0,0,1,139.48,178.33Z" transform="translate(-35.29 -32.6)"/><path class="cls-3" d="M145.93,178.33a.5.5,0,0,1-.5-.5v-21.3a.51.51,0,0,1,.5-.5.5.5,0,0,1,.5.5v21.3A.5.5,0,0,1,145.93,178.33Z" transform="translate(-35.29 -32.6)"/><path class="cls-3" d="M152.38,178.33a.5.5,0,0,1-.5-.5v-21.3a.5.5,0,1,1,1,0v21.3A.5.5,0,0,1,152.38,178.33Z" transform="translate(-35.29 -32.6)"/><path class="cls-3" d="M158.83,178.33a.5.5,0,0,1-.5-.5v-21.3a.5.5,0,0,1,.5-.5.51.51,0,0,1,.5.5v21.3A.5.5,0,0,1,158.83,178.33Z" transform="translate(-35.29 -32.6)"/><path class="cls-3" d="M165.42,162.51h-77a.5.5,0,0,1-.5-.5.5.5,0,0,1,.5-.5h77a.5.5,0,0,1,.5.5A.5.5,0,0,1,165.42,162.51Z" transform="translate(-35.29 -32.6)"/><path class="cls-3" d="M133,168.12H88.46a.5.5,0,1,1,0-1H133a.5.5,0,0,1,0,1Z" transform="translate(-35.29 -32.6)"/><path class="cls-3" d="M165.35,173.73h-77a.51.51,0,0,1-.5-.5.5.5,0,0,1,.5-.5h77a.5.5,0,0,1,0,1Z" transform="translate(-35.29 -32.6)"/><path class="cls-3" d="M158.83,168.12h-19.1a.5.5,0,0,1,0-1h19.1a.51.51,0,0,1,.5.5A.5.5,0,0,1,158.83,168.12Z" transform="translate(-35.29 -32.6)"/><path class="cls-4" d="M127.57,57.83a3,3,0,0,0,1.19.26l25.6.45a2.57,2.57,0,0,0,.4,0h0V50.24h0a2.32,2.32,0,0,0-.38-.05l-25.6.47a3,3,0,0,0-1.19.25Z" transform="translate(-35.29 -32.6)"/><path class="cls-3" d="M154.36,59l-25.61-.45h0a3.4,3.4,0,0,1-1.38-.3.51.51,0,0,1-.3-.46V50.91a.51.51,0,0,1,.3-.46,3.57,3.57,0,0,1,1.39-.29l25.59-.47h0a2.22,2.22,0,0,1,.38,0,.55.55,0,0,1,.47.51h0v8.09a.68.68,0,0,1,0,.14.47.47,0,0,1-.39.51A2.49,2.49,0,0,1,154.36,59Zm-26.29-1.56a2.37,2.37,0,0,0,.69.11l25.45.45V50.69l-25.44.47a2.37,2.37,0,0,0-.7.1Z" transform="translate(-35.29 -32.6)"/><path class="cls-4" d="M88,54.36a1.87,1.87,0,0,0,1.87,1.87h1.92V52.51H89.86A1.88,1.88,0,0,0,88,54.36Z" transform="translate(-35.29 -32.6)"/><path class="cls-3" d="M91.78,56.73H89.86a2.38,2.38,0,0,1-2.37-2.37h0A2.39,2.39,0,0,1,89.86,52h1.92a.48.48,0,0,1,.43.25.46.46,0,0,1,.06.34v3.57a.63.63,0,0,1,0,.3A.52.52,0,0,1,91.78,56.73Zm-3.29-2.37a1.37,1.37,0,0,0,1.37,1.37h1.42V53H89.86A1.39,1.39,0,0,0,88.49,54.36Z" transform="translate(-35.29 -32.6)"/><path class="cls-2" d="M129.84,54.36a1.24,1.24,0,0,1,1.34-1.12h2.25a1.25,1.25,0,0,1,1.35,1.12h0a1.25,1.25,0,0,1-1.35,1.13h-2.25a1.24,1.24,0,0,1-1.34-1.13Z" transform="translate(-35.29 -32.6)"/><path class="cls-3" d="M133.43,56h-2.25a1.64,1.64,0,1,1,0-3.25h2.25a1.64,1.64,0,1,1,0,3.25Zm-2.25-2.25c-.46,0-.84.28-.84.62s.38.63.84.63h2.25c.46,0,.85-.29.85-.63s-.39-.62-.85-.62Z" transform="translate(-35.29 -32.6)"/><path class="cls-2" d="M135.78,54.36c0-.62.71-1.12,1.58-1.12H140c.87,0,1.57.5,1.57,1.12h0c0,.63-.7,1.13-1.57,1.13h-2.63c-.87,0-1.58-.5-1.58-1.13Z" transform="translate(-35.29 -32.6)"/><path class="cls-3" d="M140,56h-2.63a1.67,1.67,0,1,1,0-3.25H140A1.67,1.67,0,1,1,140,56Zm-2.63-2.25c-.64,0-1.08.33-1.08.62s.46.63,1.08.63H140c.61,0,1.07-.33,1.07-.63s-.46-.62-1.07-.62Z" transform="translate(-35.29 -32.6)"/><path class="cls-2" d="M91.78,52.51v3.71a3.08,3.08,0,0,0,2.78,1.61h33V50.91h-33A3.08,3.08,0,0,0,91.78,52.51Z" transform="translate(-35.29 -32.6)"/><path class="cls-3" d="M127.57,58.33h-33a3.61,3.61,0,0,1-3.23-1.88.46.46,0,0,1,0-.23V52.51a.46.46,0,0,1,0-.23,3.61,3.61,0,0,1,3.23-1.88h33.05a.5.5,0,0,1,.49.4.48.48,0,0,1,0,.29v6.74a.5.5,0,0,1-.14.35A.49.49,0,0,1,127.57,58.33ZM92.28,56.1a2.61,2.61,0,0,0,2.28,1.23h32.51V51.4H94.56a2.61,2.61,0,0,0-2.28,1.23Z" transform="translate(-35.29 -32.6)"/><path class="cls-2" d="M154.71,58.49c1.64.19,5.21-1.44,6.22-3h0V53.25c-1.05-1.56-4.58-3.21-6.19-3Z" transform="translate(-35.29 -32.6)"/><path class="cls-3" d="M155,59l-.32,0a.5.5,0,0,1-.44-.49V50.24a.5.5,0,0,1,.44-.5c1.86-.23,5.53,1.55,6.67,3.23a.54.54,0,0,1,.08.28v2.11a.47.47,0,0,1-.05.4C160.25,57.45,156.85,59,155,59Zm.24-8.27V58a9,9,0,0,0,5.19-2.62v-2A9.17,9.17,0,0,0,155.21,50.73Z" transform="translate(-35.29 -32.6)"/><path class="cls-4" d="M160.9,55.49h2.29a1.14,1.14,0,1,0,0-2.25H160.9Z" transform="translate(-35.29 -32.6)"/><path class="cls-3" d="M163.19,56h-2.25a.54.54,0,0,1-.54-.5V53.24a.51.51,0,0,1,.5-.5h2.29a1.64,1.64,0,1,1,0,3.25Zm-1.79-2.25V55h1.79c.46,0,.85-.29.85-.63s-.39-.62-.85-.62Z" transform="translate(-35.29 -32.6)"/><path class="cls-2" d="M168.24,63.47H85.55a3.62,3.62,0,0,0-3.63,3.63v63.64a3.63,3.63,0,0,0,3.63,3.63h82.69a3.64,3.64,0,0,0,3.63-3.63V67.1A3.63,3.63,0,0,0,168.24,63.47Z" transform="translate(-35.29 -32.6)"/><path class="cls-3" d="M168.24,134.87H85.55a4.13,4.13,0,0,1-4.13-4.13V67.1A4.13,4.13,0,0,1,85.55,63h82.69a4.13,4.13,0,0,1,4.13,4.13v63.64A4.13,4.13,0,0,1,168.24,134.87ZM85.55,64a3.13,3.13,0,0,0-3.13,3.13v63.64a3.13,3.13,0,0,0,3.13,3.13h82.69a3.13,3.13,0,0,0,3.13-3.13V67.1A3.13,3.13,0,0,0,168.24,64Z" transform="translate(-35.29 -32.6)"/><rect class="cls-2" x="80.73" y="101.76" width="21.74" height="7.6"/><path class="cls-3" d="M137.76,142.46H116a.5.5,0,0,1-.5-.5v-7.59a.5.5,0,0,1,.5-.5h21.74a.5.5,0,0,1,.5.5V142A.5.5,0,0,1,137.76,142.46Zm-21.24-1h20.74v-6.59H116.52Z" transform="translate(-35.29 -32.6)"/><path class="cls-2" d="M163.24,144.62a2.67,2.67,0,0,1-2.67,2.66H93.85a2.67,2.67,0,0,1-2.66-2.66h0A2.67,2.67,0,0,1,93.85,142h66.72a2.67,2.67,0,0,1,2.67,2.66Z" transform="translate(-35.29 -32.6)"/><path class="cls-3" d="M160.57,147.78H93.85a3.16,3.16,0,1,1,0-6.32h66.72a3.16,3.16,0,1,1,0,6.32Zm-66.72-5.32a2.16,2.16,0,1,0,0,4.32h66.72a2.16,2.16,0,1,0,0-4.32Z" transform="translate(-35.29 -32.6)"/><path class="cls-5" d="M50.25,34.7h82.7a3.63,3.63,0,0,1,3.63,3.63V87.91A3.62,3.62,0,0,1,133,91.53H50.25a3.63,3.63,0,0,1-3.63-3.63V38.33A3.63,3.63,0,0,1,50.25,34.7Z"/><path class="cls-3" d="M168.24,124.64H85.55a4.13,4.13,0,0,1-4.13-4.13V70.93a4.13,4.13,0,0,1,4.13-4.12h82.69a4.13,4.13,0,0,1,4.13,4.12v49.58A4.13,4.13,0,0,1,168.24,124.64ZM85.55,67.81a3.13,3.13,0,0,0-3.13,3.12v49.58a3.13,3.13,0,0,0,3.13,3.13h82.69a3.13,3.13,0,0,0,3.13-3.13V70.93a3.13,3.13,0,0,0-3.13-3.12Z" transform="translate(-35.29 -32.6)"/><rect class="cls-2" x="140.6" y="73.05" width="18.63" height="28.64" rx="6.94" ry="6.94"/><path class="cls-3" d="M187.58,134.8h-4.75a7.45,7.45,0,0,1-7.44-7.45V112.59a7.45,7.45,0,0,1,7.44-7.44h4.75a7.44,7.44,0,0,1,7.44,7.44v14.76a7.44,7.44,0,0,1-7.44,7.45Zm-4.75-28.65a6.45,6.45,0,0,0-6.44,6.44v14.76a6.45,6.45,0,0,0,6.44,6.45h4.75a6.44,6.44,0,0,0,6.44-6.45V112.59a6.44,6.44,0,0,0-6.44-6.44h-4.75Z" transform="translate(-35.29 -32.6)"/><path class="cls-5" d="M187.61,114.11a2.4,2.4,0,1,1-2.4-2.4A2.41,2.41,0,0,1,187.61,114.11Z" transform="translate(-35.29 -32.6)"/><path class="cls-3" d="M185.21,117h0a2.9,2.9,0,1,1,2-.85A2.9,2.9,0,0,1,185.21,117Zm0-1h0a1.91,1.91,0,0,0,1.9-1.9,1.9,1.9,0,1,0-1.9,1.9Z" transform="translate(-35.29 -32.6)"/><path class="cls-5" d="M129.35,126.87a3,3,0,1,1-4.21,0A3,3,0,0,1,129.35,126.87Z" transform="translate(-35.29 -32.6)"/><path class="cls-3" d="M127.24,132.45a3.48,3.48,0,1,1,2.46-5.93h0a3.48,3.48,0,0,1-2.46,5.93Zm0-5.95a2.47,2.47,0,1,0,1.75.72h0A2.48,2.48,0,0,0,127.24,126.5Z" transform="translate(-35.29 -32.6)"/><rect class="cls-2" x="0.5" y="32.65" width="40.64" height="82.33" rx="4.66" ry="4.66"/><path class="cls-3" d="M71.78,148.09H40.45a5.17,5.17,0,0,1-5.16-5.16v-73a5.17,5.17,0,0,1,5.16-5.16H71.78a5.16,5.16,0,0,1,5.15,5.16v73A5.16,5.16,0,0,1,71.78,148.09ZM40.45,65.76a4.16,4.16,0,0,0-4.16,4.16v73a4.16,4.16,0,0,0,4.16,4.16H71.78a4.15,4.15,0,0,0,4.15-4.16v-73a4.15,4.15,0,0,0-4.15-4.16Z" transform="translate(-35.29 -32.6)"/><path class="cls-4" d="M72.05,73a3,3,0,0,1-3,3H43.15a3,3,0,0,1-3-3h0a3,3,0,0,1,3-3H69.08a3,3,0,0,1,3,3Z" transform="translate(-35.29 -32.6)"/><path class="cls-3" d="M69.08,76.46H43.15a3.47,3.47,0,1,1,0-6.94H69.08a3.47,3.47,0,0,1,0,6.94ZM43.15,70.52a2.47,2.47,0,1,0,0,4.94H69.08a2.47,2.47,0,0,0,0-4.94Z" transform="translate(-35.29 -32.6)"/><path class="cls-4" d="M72.05,83a3,3,0,0,1-3,3H43.15a3,3,0,0,1-3-3h0a3,3,0,0,1,3-3H69.08a3,3,0,0,1,3,3Z" transform="translate(-35.29 -32.6)"/><path class="cls-3" d="M69.08,86.5H43.15a3.48,3.48,0,1,1,0-7H69.08a3.48,3.48,0,0,1,0,7Zm-25.93-6a2.48,2.48,0,1,0,0,5H69.08a2.48,2.48,0,0,0,0-5Z" transform="translate(-35.29 -32.6)"/><path class="cls-4" d="M72.05,93.07a3,3,0,0,1-3,3H43.15a3,3,0,0,1-3-3h0a3,3,0,0,1,3-3H69.08a3,3,0,0,1,3,3Z" transform="translate(-35.29 -32.6)"/><path class="cls-3" d="M69.08,96.54H43.15a3.48,3.48,0,1,1,0-7H69.08a3.48,3.48,0,0,1,0,7Zm-25.93-6a2.48,2.48,0,1,0,0,5H69.08a2.48,2.48,0,0,0,0-5Z" transform="translate(-35.29 -32.6)"/><path class="cls-5" d="M70.76,139.59a2.66,2.66,0,1,1-2.66-2.66A2.66,2.66,0,0,1,70.76,139.59Z" transform="translate(-35.29 -32.6)"/><path class="cls-3" d="M68.1,142.75a3.16,3.16,0,1,1,3.16-3.16A3.17,3.17,0,0,1,68.1,142.75Zm0-5.32a2.16,2.16,0,1,0,2.16,2.16A2.16,2.16,0,0,0,68.1,137.43Z" transform="translate(-35.29 -32.6)"/><rect class="cls-6" x="46.63" y="39.86" width="89.95" height="46.5"/><path class="cls-3" d="M171.87,119.47H81.92a.5.5,0,0,1-.5-.5V72.47a.5.5,0,0,1,.5-.5h90a.5.5,0,0,1,.5.5V119A.5.5,0,0,1,171.87,119.47Zm-89.45-1h89V73H82.42Z" transform="translate(-35.29 -32.6)"/><rect class="cls-2" x="54.63" y="43.52" width="32.23" height="38"/><path class="cls-3" d="M122.15,114.62H89.92a.5.5,0,0,1-.5-.5v-38a.5.5,0,0,1,.5-.5h32.23a.5.5,0,0,1,.5.5v38A.5.5,0,0,1,122.15,114.62Zm-31.73-1h31.23v-37H90.42Z" transform="translate(-35.29 -32.6)"/><path class="cls-2" d="M94.69,80.05h0Z" transform="translate(-35.29 -32.6)"/><path class="cls-3" d="M115.7,80.55h-21a.5.5,0,0,1-.5-.5.5.5,0,0,1,.5-.5h21a.5.5,0,0,1,.5.5A.5.5,0,0,1,115.7,80.55Z" transform="translate(-35.29 -32.6)"/><path class="cls-2" d="M94.69,84.13h0Z" transform="translate(-35.29 -32.6)"/><path class="cls-3" d="M115.7,84.63h-21a.5.5,0,0,1-.5-.5.5.5,0,0,1,.5-.5h21a.5.5,0,0,1,.5.5A.5.5,0,0,1,115.7,84.63Z" transform="translate(-35.29 -32.6)"/><path class="cls-2" d="M94.69,88.21h0Z" transform="translate(-35.29 -32.6)"/><path class="cls-3" d="M115.7,88.71h-21a.5.5,0,0,1,0-1h21a.5.5,0,0,1,0,1Z" transform="translate(-35.29 -32.6)"/><path class="cls-2" d="M94.69,92.29h0Z" transform="translate(-35.29 -32.6)"/><path class="cls-3" d="M115.7,92.79h-21a.5.5,0,0,1-.5-.5.5.5,0,0,1,.5-.5h21a.5.5,0,0,1,.5.5A.5.5,0,0,1,115.7,92.79Z" transform="translate(-35.29 -32.6)"/><path class="cls-2" d="M94.69,96.37h0Z" transform="translate(-35.29 -32.6)"/><path class="cls-3" d="M115.7,96.87h-21a.5.5,0,0,1-.5-.5.5.5,0,0,1,.5-.5h21a.5.5,0,0,1,.5.5A.5.5,0,0,1,115.7,96.87Z" transform="translate(-35.29 -32.6)"/><path class="cls-2" d="M94.69,100.44h0Z" transform="translate(-35.29 -32.6)"/><path class="cls-3" d="M115.7,100.94h-21a.5.5,0,0,1-.5-.5.5.5,0,0,1,.5-.5h21a.5.5,0,0,1,.5.5A.5.5,0,0,1,115.7,100.94Z" transform="translate(-35.29 -32.6)"/><path class="cls-2" d="M94.69,104.52h0Z" transform="translate(-35.29 -32.6)"/><path class="cls-3" d="M115.7,105h-21a.5.5,0,0,1-.5-.5.5.5,0,0,1,.5-.5h21a.5.5,0,0,1,.5.5A.5.5,0,0,1,115.7,105Z" transform="translate(-35.29 -32.6)"/><path class="cls-2" d="M94.69,108.6h0Z" transform="translate(-35.29 -32.6)"/><path class="cls-3" d="M109.69,109.1h-15a.5.5,0,0,1,0-1h15a.5.5,0,0,1,0,1Z" transform="translate(-35.29 -32.6)"/><rect class="cls-5" x="95.56" y="43.52" width="32.23" height="16.94"/><path class="cls-3" d="M163.08,93.57H130.85a.51.51,0,0,1-.5-.5V76.13a.5.5,0,0,1,.5-.5h32.23a.5.5,0,0,1,.5.5V93.07A.51.51,0,0,1,163.08,93.57Zm-31.73-1h31.23V76.63H131.35Z" transform="translate(-35.29 -32.6)"/><rect class="cls-7" x="95.56" y="64.58" width="32.23" height="16.94"/><path class="cls-3" d="M163.08,114.62H130.85a.5.5,0,0,1-.5-.5V97.18a.5.5,0,0,1,.5-.5h32.23a.5.5,0,0,1,.5.5v16.94A.5.5,0,0,1,163.08,114.62Zm-31.73-1h31.23V97.68H131.35Z" transform="translate(-35.29 -32.6)"/><path class="cls-2" d="M198.34,90.45h-7.92V82.53h7.92Zm-6.92-1h5.92V83.53h-5.92Z" transform="translate(-35.29 -32.6)"/><path class="cls-2" d="M185.21,104.61a.5.5,0,0,1-.5-.5V83.53h-8.82a.5.5,0,0,1-.5-.5.5.5,0,0,1,.5-.5h9.32a.5.5,0,0,1,.5.5v21.08A.51.51,0,0,1,185.21,104.61Z" transform="translate(-35.29 -32.6)"/><path class="cls-2" d="M184.32,166.2H172.65a.5.5,0,0,1-.5-.5.5.5,0,0,1,.5-.5h11.17V145.12h-18a.5.5,0,0,1-.5-.5.5.5,0,0,1,.5-.5h18.46a.51.51,0,0,1,.5.5V165.7A.5.5,0,0,1,184.32,166.2Z" transform="translate(-35.29 -32.6)"/><path class="cls-2" d="M79.87,162.51H68.1a.5.5,0,0,1-.5-.5V148.83a.5.5,0,0,1,1,0v12.68H79.37V144.62a.5.5,0,0,1,.5-.5h8.59a.5.5,0,0,1,.5.5.5.5,0,0,1-.5.5H80.37V162A.5.5,0,0,1,79.87,162.51Z" transform="translate(-35.29 -32.6)"/><rect class="cls-6" x="160.82" y="60.3" width="3.46" height="3.46"/><rect class="cls-5" x="145.78" y="105.25" width="3.46" height="3.46"/><rect class="cls-2" x="68.17" y="9.96" width="4.31" height="4.31"/><path class="cls-4" d="M97.31,40.53H89.39V32.6h7.92Zm-6.92-1h5.92V33.6H90.39Z" transform="translate(-35.29 -32.6)"/><rect class="cls-7" x="49.01" y="7.81" width="3.33" height="3.33"/><path class="cls-7" d="M197.67,172.31h-7.92v-7.93h7.92Zm-6.92-1h5.92v-5.93h-5.92Z" transform="translate(-35.29 -32.6)"/><rect class="cls-4" x="149.37" y="139.59" width="3.33" height="3.33"/><path class="cls-2" d="M110.2,43.07h-.5a.5.5,0,0,1,0-1h.5a.5.5,0,0,1,0,1Z" transform="translate(-35.29 -32.6)"/><path class="cls-2" d="M169.68,43.07h-1a.5.5,0,0,1,0-1h1a.5.5,0,0,1,0,1Zm-3,0h-1a.5.5,0,0,1,0-1h1a.5.5,0,0,1,0,1Zm-3,0h-1a.5.5,0,0,1,0-1h1a.5.5,0,0,1,0,1Zm-3,0h-1a.5.5,0,0,1,0-1h1a.5.5,0,0,1,0,1Zm-3,0h-1a.5.5,0,0,1,0-1h1a.5.5,0,0,1,0,1Zm-3,0h-1a.5.5,0,0,1,0-1h1a.5.5,0,0,1,0,1Zm-3,0h-1a.5.5,0,0,1,0-1h1a.5.5,0,0,1,0,1Zm-3,0h-1a.5.5,0,0,1,0-1h1a.5.5,0,0,1,0,1Zm-3,0h-1a.5.5,0,0,1,0-1h1a.5.5,0,0,1,0,1Zm-3,0h-1a.5.5,0,0,1,0-1h1a.5.5,0,0,1,0,1Zm-3,0h-1a.5.5,0,0,1,0-1h1a.5.5,0,0,1,0,1Zm-3,0h-1a.5.5,0,0,1,0-1h1a.5.5,0,0,1,0,1Zm-3,0h-1a.5.5,0,0,1,0-1h1a.5.5,0,0,1,0,1Zm-3,0h-1a.5.5,0,0,1,0-1h1a.5.5,0,0,1,0,1Zm-3,0h-1a.5.5,0,0,1,0-1h1a.5.5,0,0,1,0,1Zm-3,0h-1a.5.5,0,0,1,0-1h1a.5.5,0,0,1,0,1Zm-3,0h-1a.5.5,0,0,1,0-1h1a.5.5,0,0,1,0,1Zm-3,0h-1a.5.5,0,0,1,0-1h1a.5.5,0,0,1,0,1Zm-3,0h-1a.5.5,0,0,1,0-1h1a.5.5,0,0,1,0,1Zm-3,0h-1a.5.5,0,0,1,0-1h1a.5.5,0,0,1,0,1Z" transform="translate(-35.29 -32.6)"/><path class="cls-2" d="M172.16,43.07h-.5a.5.5,0,0,1,0-1h.5a.5.5,0,0,1,0,1Z" transform="translate(-35.29 -32.6)"/><path class="cls-1" d="M36.29,59h-.5a.5.5,0,1,1,0-1h.5a.5.5,0,0,1,0,1Z" transform="translate(-35.29 -32.6)"/><path class="cls-1" d="M86.63,59h-1a.5.5,0,1,1,0-1h1a.5.5,0,0,1,0,1Zm-3,0h-1a.5.5,0,0,1,0-1h1a.5.5,0,1,1,0,1Zm-3,0h-1a.5.5,0,0,1,0-1h1a.5.5,0,0,1,0,1Zm-3,0h-1a.5.5,0,1,1,0-1h1a.5.5,0,0,1,0,1Zm-3,0h-1a.5.5,0,0,1,0-1h1a.5.5,0,1,1,0,1Zm-3,0h-1a.5.5,0,0,1,0-1h1a.5.5,0,0,1,0,1Zm-3,0h-1a.5.5,0,0,1,0-1h1a.5.5,0,0,1,0,1Zm-3,0h-1a.5.5,0,0,1,0-1h1a.5.5,0,0,1,0,1Zm-3,0H62a.5.5,0,0,1,0-1h1a.5.5,0,0,1,0,1Zm-3,0H59a.5.5,0,0,1,0-1h1a.5.5,0,0,1,0,1Zm-3,0H56a.5.5,0,0,1,0-1h1a.5.5,0,1,1,0,1Zm-3,0h-1a.5.5,0,1,1,0-1h1a.5.5,0,0,1,0,1Zm-3,0h-1a.5.5,0,0,1,0-1h1a.5.5,0,0,1,0,1Zm-3,0h-1a.5.5,0,0,1,0-1h1a.5.5,0,0,1,0,1Zm-3,0h-1a.5.5,0,0,1,0-1h1a.5.5,0,1,1,0,1Zm-3,0h-1a.5.5,0,1,1,0-1h1a.5.5,0,0,1,0,1Zm-3,0h-1a.5.5,0,0,1,0-1h1a.5.5,0,0,1,0,1Z" transform="translate(-35.29 -32.6)"/><path class="cls-1" d="M89.1,59h-.5a.5.5,0,0,1,0-1h.5a.5.5,0,0,1,0,1Z" transform="translate(-35.29 -32.6)"/><path class="cls-6" d="M64.79,162.59H56.87v-7.93h7.92Zm-6.92-1h5.92v-5.93H57.87Z" transform="translate(-35.29 -32.6)"/><rect class="cls-5" x="16.49" y="129.87" width="3.33" height="3.33"/></g></svg>