<svg xmlns="http://www.w3.org/2000/svg" viewBox="0 0 163.86 158.38"><defs><style>.cls-1{fill:#9cf2c4;}.cls-2{fill:#ffcd2e;}.cls-3{fill:#231f20;}.cls-4{fill:#fff;}.cls-5{fill:#7e6fc1;}.cls-6{fill:#ee4052;}.cls-7{fill:#ee447f;}.cls-8{fill:#c0b2d8;}.cls-9{fill:#d1d8ce;}</style></defs><title>web</title><g id="Layer_4" data-name="Layer 4"><circle class="cls-1" cx="332.5" cy="318.84" r="78.42" transform="translate(-376.76 89.62) rotate(-45)"/></g><g id="Layer_2" data-name="Layer 2"><rect class="cls-2" x="34.11" y="46.97" width="98.17" height="62.03" rx="3.96" ry="3.96"/><path class="cls-3" d="M377,348.37H286.76a4.46,4.46,0,0,1-4.46-4.46V289.8a4.46,4.46,0,0,1,4.46-4.45H377a4.46,4.46,0,0,1,4.45,4.45v54.11A4.46,4.46,0,0,1,377,348.37Zm-90.26-62a3.46,3.46,0,0,0-3.46,3.45v54.11a3.46,3.46,0,0,0,3.46,3.46H377a3.46,3.46,0,0,0,3.45-3.46V289.8a3.46,3.46,0,0,0-3.45-3.45Z" transform="translate(-248.69 -238.88)"/><rect class="cls-4" x="34.11" y="53.48" width="98.17" height="5.52"/><path class="cls-3" d="M381,298.38H282.8a.5.5,0,0,1-.5-.5v-5.52a.5.5,0,0,1,.5-.5H381a.5.5,0,0,1,.5.5v5.52A.5.5,0,0,1,381,298.38Zm-97.67-1h97.17v-4.52H283.3Z" transform="translate(-248.69 -238.88)"/><rect class="cls-5" x="34.11" y="59" width="98.17" height="49.99"/><path class="cls-3" d="M381,348.37H282.8a.5.5,0,0,1-.5-.5v-50a.5.5,0,0,1,.5-.5H381a.5.5,0,0,1,.5.5v50A.5.5,0,0,1,381,348.37Zm-97.68-1h97.18v-49H283.3Z" transform="translate(-248.69 -238.88)"/><path class="cls-2" d="M398.23,271.08c0,2.78-1.51,9-11.36,13.66,2.48-2.49,3.51-3.92,3.75-6a35.78,35.78,0,0,1-12.8,2.19c-11.27,0-20.4-4.43-20.4-9.89s9.13-9.88,20.4-9.88S398.23,265.63,398.23,271.08Z" transform="translate(-248.69 -238.88)"/><path class="cls-3" d="M386.87,285.24a.49.49,0,0,1-.41-.22.5.5,0,0,1,.05-.64c2.14-2.14,3.08-3.41,3.45-4.82a36.86,36.86,0,0,1-12.14,1.91c-11.72,0-20.9-4.56-20.9-10.39s9.18-10.38,20.9-10.38,20.91,4.56,20.91,10.38c0,2-.77,9-11.65,14.11A.54.54,0,0,1,386.87,285.24Zm3.75-7a.48.48,0,0,1,.3.11.5.5,0,0,1,.19.45,7.53,7.53,0,0,1-1.9,4.1c7.92-4.64,8.54-10.15,8.52-11.85h0c0-5.17-8.93-9.38-19.91-9.38s-19.9,4.21-19.9,9.38,8.93,9.39,19.9,9.39a35.8,35.8,0,0,0,12.62-2.15A.53.53,0,0,1,390.62,278.28Zm8.11-7.2h0Z" transform="translate(-248.69 -238.88)"/><path d="M363.06,274.82v-7.07a.65.65,0,0,1,.66-.66.66.66,0,0,1,.67.66v2.88h3.11v-2.88a.65.65,0,0,1,.66-.66.66.66,0,0,1,.67.66v7.07a.66.66,0,0,1-.67.66.65.65,0,0,1-.66-.66V272h-3.11v2.87a.66.66,0,0,1-.67.66A.65.65,0,0,1,363.06,274.82Z" transform="translate(-248.69 -238.88)"/><path d="M376.7,268.42h-1.91v6.4a.64.64,0,0,1-.66.66.65.65,0,0,1-.66-.66v-6.4h-1.89a.67.67,0,0,1-.66-.67.65.65,0,0,1,.66-.66h5.12a.66.66,0,0,1,.66.66A.67.67,0,0,1,376.7,268.42Z" transform="translate(-248.69 -238.88)"/><path d="M386.56,267.75v7.07a.67.67,0,0,1-.67.66.66.66,0,0,1-.66-.66v-5.05l-1.72,2.4a.68.68,0,0,1-.54.28h0a.68.68,0,0,1-.55-.28l-1.72-2.4v5.05a.67.67,0,0,1-1.33,0v-7.07a.67.67,0,0,1,.66-.66h0a.65.65,0,0,1,.53.27l2.38,3.31,2.39-3.31a.64.64,0,0,1,.54-.27h0A.68.68,0,0,1,386.56,267.75Z" transform="translate(-248.69 -238.88)"/><path d="M389.47,274.82v-7.07a.66.66,0,0,1,.66-.66.67.67,0,0,1,.67.66v6.4h3.25a.67.67,0,0,1,0,1.33h-3.92A.66.66,0,0,1,389.47,274.82Z" transform="translate(-248.69 -238.88)"/><path class="cls-2" d="M355.32,264.26c0,2.77-1.52,9-11.37,13.65,2.48-2.48,3.51-3.92,3.75-6a36,36,0,0,1-12.79,2.18c-11.27,0-20.41-4.42-20.41-9.88s9.14-9.89,20.41-9.89S355.32,258.8,355.32,264.26Z" transform="translate(-248.69 -238.88)"/><path class="cls-3" d="M344,278.41a.48.48,0,0,1-.41-.21.5.5,0,0,1,0-.64c2.15-2.14,3.08-3.42,3.46-4.83a36.94,36.94,0,0,1-12.14,1.91c-11.73,0-20.91-4.56-20.91-10.38s9.18-10.39,20.91-10.39,20.9,4.56,20.91,10.38c0,2-.78,9-11.66,14.11A.41.41,0,0,1,344,278.41Zm3.75-7a.45.45,0,0,1,.3.1.51.51,0,0,1,.2.46,7.65,7.65,0,0,1-1.91,4.1c7.92-4.65,8.54-10.16,8.53-11.86h0c0-5.18-8.94-9.39-19.91-9.39S315,259.08,315,264.26s8.93,9.38,19.91,9.38a35.56,35.56,0,0,0,12.61-2.15Zm8.12-7.2h0Z" transform="translate(-248.69 -238.88)"/><path d="M323.21,264.34a4.4,4.4,0,0,1,4.4-4.32,4.45,4.45,0,0,1,2.77.94.69.69,0,0,1-.84,1.09,3,3,0,0,0-1.93-.66,3.15,3.15,0,0,0-2.15.86,3,3,0,0,0-.88,2.09,2.92,2.92,0,0,0,.88,2.09,3.19,3.19,0,0,0,2.15.86,3,3,0,0,0,1.93-.66.73.73,0,0,1,1,.13.7.7,0,0,1-.12,1,4.45,4.45,0,0,1-2.77.94A4.39,4.39,0,0,1,323.21,264.34Z" transform="translate(-248.69 -238.88)"/><path d="M332.57,266.57a.63.63,0,0,1,.88-.08,3.94,3.94,0,0,0,2.29.92,2.61,2.61,0,0,0,1.5-.44,1.09,1.09,0,0,0,.51-.87.7.7,0,0,0-.1-.38,1.22,1.22,0,0,0-.36-.36,5,5,0,0,0-1.65-.57h0a6.39,6.39,0,0,1-1.55-.46,2.61,2.61,0,0,1-1.11-.94,1.84,1.84,0,0,1-.28-1,2.22,2.22,0,0,1,1-1.75,3.51,3.51,0,0,1,2.07-.64,4.66,4.66,0,0,1,2.62,1,.61.61,0,0,1,.17.85.61.61,0,0,1-.85.18,3.48,3.48,0,0,0-1.94-.76,2.29,2.29,0,0,0-1.34.4,1,1,0,0,0-.45.76.56.56,0,0,0,.08.33,1.2,1.2,0,0,0,.32.32,4.23,4.23,0,0,0,1.5.52h0a6.94,6.94,0,0,1,1.65.51,2.86,2.86,0,0,1,1.2,1,2,2,0,0,1,.29,1,2.31,2.31,0,0,1-1,1.86,3.77,3.77,0,0,1-2.22.68,5.13,5.13,0,0,1-3.07-1.19A.64.64,0,0,1,332.57,266.57Z" transform="translate(-248.69 -238.88)"/><path d="M340.46,266.57a.62.62,0,0,1,.87-.08,3.94,3.94,0,0,0,2.29.92,2.61,2.61,0,0,0,1.5-.44,1.1,1.1,0,0,0,.52-.87.7.7,0,0,0-.11-.38,1.11,1.11,0,0,0-.36-.36,5,5,0,0,0-1.64-.57h0a6.31,6.31,0,0,1-1.54-.46,2.58,2.58,0,0,1-1.12-.94,1.84,1.84,0,0,1-.28-1,2.22,2.22,0,0,1,1-1.75,3.56,3.56,0,0,1,2.08-.64,4.65,4.65,0,0,1,2.61,1,.61.61,0,0,1,.17.85.6.6,0,0,1-.85.18,3.45,3.45,0,0,0-1.93-.76,2.32,2.32,0,0,0-1.35.4,1,1,0,0,0-.45.76.56.56,0,0,0,.08.33,1.12,1.12,0,0,0,.33.32,4.23,4.23,0,0,0,1.5.52h0a7,7,0,0,1,1.66.51,2.77,2.77,0,0,1,1.19,1,2,2,0,0,1,.29,1,2.31,2.31,0,0,1-1,1.86,3.77,3.77,0,0,1-2.22.68,5.18,5.18,0,0,1-3.07-1.19A.64.64,0,0,1,340.46,266.57Z" transform="translate(-248.69 -238.88)"/><path class="cls-2" d="M390.54,249.26c0,2.78-1.47,9-11,13.66,2.41-2.49,3.4-3.92,3.64-6a33.78,33.78,0,0,1-12.41,2.19c-10.92,0-19.79-4.43-19.79-9.89s8.87-9.88,19.79-9.88S390.54,243.8,390.54,249.26Z" transform="translate(-248.69 -238.88)"/><path class="cls-3" d="M379.52,263.42a.52.52,0,0,1-.41-.21.5.5,0,0,1,.05-.64c2.08-2.14,3-3.42,3.35-4.82a35,35,0,0,1-11.76,1.9c-11.18,0-20.29-4.66-20.29-10.39s9.11-10.38,20.29-10.38S391,243.54,391,249.26c0,2-.74,9-11.3,14.11A.59.59,0,0,1,379.52,263.42Zm3.64-7a.5.5,0,0,1,.3.11.48.48,0,0,1,.19.45,7.66,7.66,0,0,1-1.82,4.08c7.63-4.64,8.23-10.14,8.21-11.83h0c0-5.17-8.65-9.38-19.29-9.38s-19.29,4.21-19.29,9.38,8.66,9.39,19.29,9.39A33.71,33.71,0,0,0,383,256.5.41.41,0,0,1,383.16,256.46Zm7.88-7.2h0Z" transform="translate(-248.69 -238.88)"/><path d="M363.78,250.4h-1.43V253a.65.65,0,1,1-1.29,0v-7.07a.64.64,0,0,1,.64-.66h2.08a2.57,2.57,0,0,1,0,5.13Zm-1.43-1.33h1.43a1.24,1.24,0,0,0,0-2.47h-1.43Z" transform="translate(-248.69 -238.88)"/><path d="M367.84,253v-7.07a.64.64,0,0,1,.64-.66.64.64,0,0,1,.65.66v2.87h3v-2.87a.64.64,0,0,1,.64-.66.64.64,0,0,1,.65.66V253a.65.65,0,0,1-.65.66.64.64,0,0,1-.64-.66v-2.88h-3V253a.65.65,0,0,1-.65.66A.64.64,0,0,1,367.84,253Z" transform="translate(-248.69 -238.88)"/><path d="M378.81,250.4h-1.43V253a.65.65,0,1,1-1.29,0v-7.07a.64.64,0,0,1,.64-.66h2.08a2.57,2.57,0,0,1,0,5.13Zm-1.43-1.33h1.43a1.24,1.24,0,0,0,0-2.47h-1.43Z" transform="translate(-248.69 -238.88)"/><path class="cls-2" d="M277.69,364.1c0-2.77,1.52-9,11.37-13.65-2.49,2.48-3.51,3.92-3.75,5.95a35.77,35.77,0,0,1,12.79-2.18c11.27,0,20.41,4.42,20.41,9.88S309.37,374,298.1,374,277.69,369.56,277.69,364.1Z" transform="translate(-248.69 -238.88)"/><path class="cls-3" d="M298.1,374.48c-11.72,0-20.91-4.56-20.91-10.38,0-2,.77-9,11.66-14.11a.5.5,0,0,1,.56.81c-2.14,2.14-3.08,3.42-3.45,4.82a37.17,37.17,0,0,1,12.14-1.9c11.73,0,20.91,4.56,20.91,10.38S309.83,374.48,298.1,374.48Zm-11.39-22.24c-7.92,4.65-8.53,10.16-8.52,11.85h0c0,5.17,8.93,9.38,19.91,9.38S318,369.27,318,364.1s-8.93-9.38-19.91-9.38a35.56,35.56,0,0,0-12.61,2.15.51.51,0,0,1-.49-.08.49.49,0,0,1-.19-.45A7.63,7.63,0,0,1,286.71,352.24Z" transform="translate(-248.69 -238.88)"/><path d="M285.29,363.8a4.4,4.4,0,0,1,4.4-4.32,4.5,4.5,0,0,1,2.77.94.72.72,0,0,1,.12,1,.71.71,0,0,1-1,.13,3,3,0,0,0-1.93-.66,3.15,3.15,0,0,0-2.16.86,3,3,0,0,0-.88,2.09,2.9,2.9,0,0,0,.88,2.08,3.16,3.16,0,0,0,2.16.87,3,3,0,0,0,1.93-.66.69.69,0,0,1,.84,1.09,4.5,4.5,0,0,1-2.77.94A4.38,4.38,0,0,1,285.29,363.8Z" transform="translate(-248.69 -238.88)"/><path d="M302.13,360.38v7.08a.67.67,0,0,1-.67.66.66.66,0,0,1-.66-.66v-5l-1.73,2.4a.64.64,0,0,1-.54.27h0a.66.66,0,0,1-.55-.27l-1.72-2.4v5a.67.67,0,0,1-1.33,0v-7.08a.67.67,0,0,1,.66-.66h0a.64.64,0,0,1,.52.28l2.39,3.31,2.39-3.31a.65.65,0,0,1,.54-.28h0A.68.68,0,0,1,302.13,360.38Z" transform="translate(-248.69 -238.88)"/><path d="M304.77,366a.63.63,0,0,1,.88-.08,3.94,3.94,0,0,0,2.29.92,2.61,2.61,0,0,0,1.5-.44,1.1,1.1,0,0,0,.52-.87.7.7,0,0,0-.11-.38,1.22,1.22,0,0,0-.36-.36,5,5,0,0,0-1.65-.57h0a6.53,6.53,0,0,1-1.55-.46,2.61,2.61,0,0,1-1.11-.94,1.84,1.84,0,0,1-.28-1,2.21,2.21,0,0,1,1-1.75,3.52,3.52,0,0,1,2.08-.64,4.65,4.65,0,0,1,2.61,1,.61.61,0,0,1,.17.85.61.61,0,0,1-.85.18,3.49,3.49,0,0,0-1.93-.77,2.33,2.33,0,0,0-1.35.41,1,1,0,0,0-.45.76.56.56,0,0,0,.08.33,1.2,1.2,0,0,0,.32.32,4.39,4.39,0,0,0,1.5.52h0a6.94,6.94,0,0,1,1.65.51,2.8,2.8,0,0,1,1.2,1,2,2,0,0,1,.29,1,2.31,2.31,0,0,1-1,1.86,3.77,3.77,0,0,1-2.22.68,5.13,5.13,0,0,1-3.07-1.2A.64.64,0,0,1,304.77,366Z" transform="translate(-248.69 -238.88)"/><path class="cls-2" d="M352.92,369c0-2.77-1.52-9-11.37-13.65,2.49,2.49,3.51,3.92,3.75,5.95a36,36,0,0,0-12.79-2.18c-11.27,0-20.41,4.43-20.41,9.88s9.14,9.89,20.41,9.89S352.92,374.48,352.92,369Z" transform="translate(-248.69 -238.88)"/><path class="cls-3" d="M332.51,379.41c-11.72,0-20.91-4.56-20.91-10.39s9.19-10.38,20.91-10.38a36.9,36.9,0,0,1,12.14,1.91c-.37-1.41-1.31-2.68-3.45-4.83a.49.49,0,0,1,.56-.8C352.65,360,353.44,367,353.42,369,353.42,374.85,344.23,379.41,332.51,379.41Zm0-19.77c-11,0-19.91,4.21-19.91,9.38s8.93,9.39,19.91,9.39,19.91-4.21,19.91-9.39h0c0-1.7-.6-7.21-8.52-11.85a7.57,7.57,0,0,1,1.9,4.1.5.5,0,0,1-.19.45.51.51,0,0,1-.49.07A35.56,35.56,0,0,0,332.51,359.64Z" transform="translate(-248.69 -238.88)"/><path d="M322.64,366.24a1.31,1.31,0,0,0,2.56-.41v-3.78a.53.53,0,0,1,1.06,0v3.78a2.37,2.37,0,0,1-4.62.73.52.52,0,1,1,1-.32Z" transform="translate(-248.69 -238.88)"/><path d="M331,366.63h-2.32l-.46,1.23a.55.55,0,0,1-.5.34.52.52,0,0,1-.18,0,.54.54,0,0,1-.31-.69l2.1-5.61a.55.55,0,0,1,1,0l2.1,5.61a.54.54,0,0,1-.31.69.53.53,0,0,1-.67-.31Zm-.39-1.05-.78-2.05-.77,2.05Z" transform="translate(-248.69 -238.88)"/><path d="M335,368.1l-.06-.05s0,0,0,0l-.05,0a0,0,0,0,1,0,0,.35.35,0,0,0-.05-.08l-2.33-5.56a.52.52,0,0,1,1-.4l1.86,4.41,1.85-4.41a.53.53,0,0,1,.69-.27.52.52,0,0,1,.29.67l-2.36,5.56s0,.06,0,.08,0,0,0,0l-.05,0,0,0-.06.05h0s0,0-.07.05h0l-.08,0h-.23l-.07,0h0l-.09-.06Z" transform="translate(-248.69 -238.88)"/><path d="M342.11,366.63H339.8l-.47,1.23a.55.55,0,0,1-.5.34l-.18,0a.54.54,0,0,1-.31-.69l2.1-5.61a.55.55,0,0,1,.51-.33.52.52,0,0,1,.5.33l2.11,5.61a.55.55,0,0,1-.32.69.45.45,0,0,1-.18,0,.5.5,0,0,1-.48-.34Zm-.39-1.05-.77-2.05-.77,2.05Z" transform="translate(-248.69 -238.88)"/><path d="M321.06,375a.34.34,0,0,1,.48-.05,2.2,2.2,0,0,0,1.28.51,1.48,1.48,0,0,0,.83-.24.62.62,0,0,0,.29-.48.4.4,0,0,0-.06-.22.75.75,0,0,0-.2-.2,2.73,2.73,0,0,0-.91-.31h0a3.75,3.75,0,0,1-.86-.26,1.5,1.5,0,0,1-.62-.52,1,1,0,0,1-.15-.55,1.25,1.25,0,0,1,.53-1,2,2,0,0,1,1.16-.35,2.6,2.6,0,0,1,1.45.53.34.34,0,0,1,.09.47.33.33,0,0,1-.47.1,2,2,0,0,0-1.07-.42,1.31,1.31,0,0,0-.75.22.53.53,0,0,0-.25.42.36.36,0,0,0,0,.19,1,1,0,0,0,.18.17,2.44,2.44,0,0,0,.84.3h0a3.54,3.54,0,0,1,.92.28,1.57,1.57,0,0,1,.67.55,1.08,1.08,0,0,1,.16.57,1.28,1.28,0,0,1-.58,1,2.07,2.07,0,0,1-1.23.38,2.91,2.91,0,0,1-1.71-.67A.35.35,0,0,1,321.06,375Z" transform="translate(-248.69 -238.88)"/><path d="M325.45,373.8a2.44,2.44,0,0,1,2.44-2.4,2.47,2.47,0,0,1,1.54.52.39.39,0,0,1,.07.53.38.38,0,0,1-.53.07,1.68,1.68,0,0,0-1.08-.36,1.75,1.75,0,0,0-1.2.48,1.62,1.62,0,0,0-.48,1.16,1.63,1.63,0,0,0,.48,1.16,1.79,1.79,0,0,0,1.2.48,1.68,1.68,0,0,0,1.08-.37.38.38,0,0,1,.46.61,2.53,2.53,0,0,1-1.54.52A2.44,2.44,0,0,1,325.45,373.8Z" transform="translate(-248.69 -238.88)"/><path d="M333.88,375.64a.37.37,0,0,1-.23.47l-.15,0h0a.51.51,0,0,1-.26-.07.7.7,0,0,1-.21-.24,1.82,1.82,0,0,1-.14-.8.55.55,0,0,0-.08-.28.64.64,0,0,0-.2-.2,1.61,1.61,0,0,0-.37-.16h-.79v1.45a.38.38,0,0,1-.37.37.37.37,0,0,1-.37-.37V371.9a.36.36,0,0,1,.37-.37h1.19a1.43,1.43,0,0,1,.91,2.53,1.06,1.06,0,0,1,.23.24,1.31,1.31,0,0,1,.22.72,1.28,1.28,0,0,0,0,.4A.36.36,0,0,1,333.88,375.64ZM333,373a.69.69,0,0,0-.69-.69h-.82v1.37h.82A.68.68,0,0,0,333,373Z" transform="translate(-248.69 -238.88)"/><path d="M335,371.9a.36.36,0,0,1,.36-.37.38.38,0,0,1,.38.37v3.93a.38.38,0,0,1-.38.37.36.36,0,0,1-.36-.37Z" transform="translate(-248.69 -238.88)"/><path d="M338.55,374.38h-.82v1.45a.37.37,0,0,1-.37.37.38.38,0,0,1-.37-.37V371.9a.37.37,0,0,1,.37-.37h1.19a1.43,1.43,0,1,1,0,2.85Zm-.82-.74h.82a.69.69,0,0,0,.7-.68.7.7,0,0,0-.7-.69h-.82Z" transform="translate(-248.69 -238.88)"/><path d="M343.74,372.27h-1.07v3.56a.36.36,0,0,1-.36.37.37.37,0,0,1-.37-.37v-3.56h-1.05a.37.37,0,0,1-.37-.37.36.36,0,0,1,.37-.37h2.85a.37.37,0,0,1,.36.37A.37.37,0,0,1,343.74,372.27Z" transform="translate(-248.69 -238.88)"/><rect class="cls-5" x="34.11" y="59" width="18.47" height="49.99"/><path class="cls-3" d="M301.27,348.37H282.8a.5.5,0,0,1-.5-.5v-50a.5.5,0,0,1,.5-.5h18.47a.5.5,0,0,1,.5.5v50A.5.5,0,0,1,301.27,348.37Zm-18-1h17.47v-49H283.3Z" transform="translate(-248.69 -238.88)"/><rect class="cls-4" x="56.5" y="61.57" width="7.92" height="2.73"/><path class="cls-3" d="M313.12,303.67H305.2a.5.5,0,0,1-.5-.5v-2.72a.5.5,0,0,1,.5-.5h7.92a.5.5,0,0,1,.5.5v2.72A.5.5,0,0,1,313.12,303.67Zm-7.42-1h6.92V301H305.7Z" transform="translate(-248.69 -238.88)"/><rect class="cls-4" x="56.5" y="67.59" width="7.92" height="2.73"/><path class="cls-3" d="M313.12,309.7H305.2a.5.5,0,0,1-.5-.5v-2.73a.5.5,0,0,1,.5-.5h7.92a.5.5,0,0,1,.5.5v2.73A.5.5,0,0,1,313.12,309.7Zm-7.42-1h6.92V307H305.7Z" transform="translate(-248.69 -238.88)"/><rect class="cls-4" x="56.5" y="73.62" width="7.92" height="2.72"/><path class="cls-3" d="M313.12,315.72H305.2a.5.5,0,0,1-.5-.5V312.5a.5.5,0,0,1,.5-.5h7.92a.5.5,0,0,1,.5.5v2.72A.5.5,0,0,1,313.12,315.72Zm-7.42-1h6.92V313H305.7Z" transform="translate(-248.69 -238.88)"/><rect class="cls-4" x="56.5" y="79.65" width="7.92" height="2.72"/><path class="cls-3" d="M313.12,321.75H305.2a.5.5,0,0,1-.5-.5v-2.72a.5.5,0,0,1,.5-.5h7.92a.5.5,0,0,1,.5.5v2.72A.5.5,0,0,1,313.12,321.75Zm-7.42-1h6.92V319H305.7Z" transform="translate(-248.69 -238.88)"/><rect class="cls-4" x="56.5" y="85.68" width="7.92" height="2.72"/><path class="cls-3" d="M313.12,327.78H305.2a.5.5,0,0,1-.5-.5v-2.73a.5.5,0,0,1,.5-.5h7.92a.5.5,0,0,1,.5.5v2.73A.5.5,0,0,1,313.12,327.78Zm-7.42-1h6.92v-1.73H305.7Z" transform="translate(-248.69 -238.88)"/><rect class="cls-4" x="56.5" y="91.7" width="7.92" height="2.73"/><path class="cls-3" d="M313.12,333.81H305.2a.5.5,0,0,1-.5-.5v-2.73a.5.5,0,0,1,.5-.5h7.92a.5.5,0,0,1,.5.5v2.73A.5.5,0,0,1,313.12,333.81Zm-7.42-1h6.92v-1.73H305.7Z" transform="translate(-248.69 -238.88)"/><rect class="cls-4" x="56.5" y="97.73" width="7.92" height="2.73"/><path class="cls-3" d="M313.12,339.83H305.2a.5.5,0,0,1-.5-.5v-2.72a.5.5,0,0,1,.5-.5h7.92a.5.5,0,0,1,.5.5v2.72A.5.5,0,0,1,313.12,339.83Zm-7.42-1h6.92v-1.72H305.7Z" transform="translate(-248.69 -238.88)"/><rect class="cls-4" x="56.5" y="103.76" width="7.92" height="2.73"/><path class="cls-3" d="M313.12,345.86H305.2a.5.5,0,0,1-.5-.5v-2.73a.5.5,0,0,1,.5-.5h7.92a.5.5,0,0,1,.5.5v2.73A.5.5,0,0,1,313.12,345.86Zm-7.42-1h6.92v-1.73H305.7Z" transform="translate(-248.69 -238.88)"/><rect class="cls-6" x="67.82" y="61.57" width="7.93" height="2.73"/><path class="cls-3" d="M324.44,303.67h-7.93a.5.5,0,0,1-.5-.5v-2.72a.5.5,0,0,1,.5-.5h7.93a.5.5,0,0,1,.5.5v2.72A.5.5,0,0,1,324.44,303.67Zm-7.43-1h6.93V301H317Z" transform="translate(-248.69 -238.88)"/><rect class="cls-2" x="75.74" y="67.08" width="7.92" height="2.73"/><path class="cls-3" d="M332.36,309.19h-7.92a.5.5,0,0,1-.5-.5V306a.5.5,0,0,1,.5-.5h7.92a.5.5,0,0,1,.5.5v2.73A.5.5,0,0,1,332.36,309.19Zm-7.42-1h6.92v-1.73h-6.92Z" transform="translate(-248.69 -238.88)"/><rect class="cls-4" x="83.67" y="73.62" width="45.14" height="2.72"/><path class="cls-3" d="M377.5,315.72H332.36a.5.5,0,0,1-.5-.5V312.5a.5.5,0,0,1,.5-.5H377.5a.5.5,0,0,1,.5.5v2.72A.5.5,0,0,1,377.5,315.72Zm-44.64-1H377V313H332.86Z" transform="translate(-248.69 -238.88)"/><rect class="cls-4" x="83.19" y="79.65" width="18.12" height="2.72"/><path class="cls-3" d="M350,321.75H331.89a.5.5,0,0,1-.5-.5v-2.72a.5.5,0,0,1,.5-.5H350a.5.5,0,0,1,.5.5v2.72A.5.5,0,0,1,350,321.75Zm-17.62-1h17.12V319H332.39Z" transform="translate(-248.69 -238.88)"/><rect class="cls-2" x="75.74" y="85.68" width="7.92" height="2.72"/><path class="cls-3" d="M332.36,327.78h-7.92a.5.5,0,0,1-.5-.5v-2.73a.5.5,0,0,1,.5-.5h7.92a.5.5,0,0,1,.5.5v2.73A.5.5,0,0,1,332.36,327.78Zm-7.42-1h6.92v-1.73h-6.92Z" transform="translate(-248.69 -238.88)"/><rect class="cls-2" x="75.74" y="91.7" width="7.92" height="2.73"/><path class="cls-3" d="M332.36,333.81h-7.92a.5.5,0,0,1-.5-.5v-2.73a.5.5,0,0,1,.5-.5h7.92a.5.5,0,0,1,.5.5v2.73A.5.5,0,0,1,332.36,333.81Zm-7.42-1h6.92v-1.73h-6.92Z" transform="translate(-248.69 -238.88)"/><rect class="cls-4" x="75.88" y="97.73" width="35.13" height="2.73"/><path class="cls-3" d="M359.71,339.83H324.58a.5.5,0,0,1-.5-.5v-2.72a.5.5,0,0,1,.5-.5h35.13a.5.5,0,0,1,.5.5v2.72A.5.5,0,0,1,359.71,339.83Zm-34.63-1h34.13v-1.72H325.08Z" transform="translate(-248.69 -238.88)"/><rect class="cls-4" x="39.38" y="61.57" width="7.92" height="2.73"/><path class="cls-3" d="M296,303.67h-7.93a.5.5,0,0,1-.5-.5v-2.72a.5.5,0,0,1,.5-.5H296a.5.5,0,0,1,.5.5v2.72A.5.5,0,0,1,296,303.67Zm-7.43-1h6.93V301h-6.93Z" transform="translate(-248.69 -238.88)"/><rect class="cls-4" x="39.38" y="67.59" width="7.92" height="2.73"/><path class="cls-3" d="M296,309.7h-7.93a.5.5,0,0,1-.5-.5v-2.73a.51.51,0,0,1,.5-.5H296a.51.51,0,0,1,.5.5v2.73A.5.5,0,0,1,296,309.7Zm-7.43-1h6.93V307h-6.93Z" transform="translate(-248.69 -238.88)"/><path class="cls-4" d="M397.58,346.68l-2.18-.07a15.57,15.57,0,0,0-.3-2l2-.74-.31-.95-.16-.48-.31-1-2.06.59a16.26,16.26,0,0,0-.91-1.76L395.1,339l-.58-.81-.3-.4-.59-.81-1.8,1.21a14.13,14.13,0,0,0-1.39-1.4l1.22-1.8-.81-.58-.41-.3-.81-.59-1.33,1.71a13.29,13.29,0,0,0-1.76-.91l.6-2.06-.95-.31-.48-.16-.95-.31-.73,2a14.44,14.44,0,0,0-2.09-.33l-.09-2.21h-2.27l-.09,2.21a15.3,15.3,0,0,0-2.15.35l-.77-2.08-.84.27-.48.16-.83.27.59,2.12a14.4,14.4,0,0,0-1.95,1l-1.37-1.73-.71.52-.41.3-.71.51,1.23,1.84a14.36,14.36,0,0,0-1.56,1.56l-1.83-1.22-.52.71-.3.41-.51.71,1.73,1.37a15.77,15.77,0,0,0-1,2l-2.12-.6-.28.84-.15.48-.27.83,2.09.78a13.89,13.89,0,0,0-.33,2.16l-2.26.09v2.26l2.26.09a15.16,15.16,0,0,0,.35,2.14l-2.13.79.27.83.16.48.27.84,2.18-.61a13.5,13.5,0,0,0,1,1.92L366.35,357l.52.72.3.4.51.71,1.9-1.26a14.93,14.93,0,0,0,1.54,1.54L369.86,361l.71.52.41.29.71.52,1.42-1.79a16.77,16.77,0,0,0,1.93,1l-.62,2.19.84.27.48.16.84.27.8-2.15a14.53,14.53,0,0,0,2,.32l.07,2.22H382l.07-2.22a12.39,12.39,0,0,0,1.95-.31l.76,2.09.95-.3.48-.16.95-.31-.61-2.13a15.9,15.9,0,0,0,1.74-.9l1.38,1.77.8-.59.41-.29.81-.59L390.41,359a14.76,14.76,0,0,0,1.37-1.37l1.86,1.26.59-.81.3-.41.59-.81-1.77-1.38a14.9,14.9,0,0,0,.9-1.73l2.13.61.31-.94.15-.48.31-1-2.08-.75a13.68,13.68,0,0,0,.32-1.95l2.19-.07v-2.5Zm-16.91,8.9a7.71,7.71,0,1,1,7.71-7.71A7.71,7.71,0,0,1,380.67,355.58Z" transform="translate(-248.69 -238.88)"/><path class="cls-3" d="M382,365.27h-2.51a.5.5,0,0,1-.5-.48L378.9,363c-.4,0-.8-.11-1.21-.19l-.65,1.74a.5.5,0,0,1-.62.31l-2.15-.7a.51.51,0,0,1-.33-.61l.5-1.78c-.39-.18-.79-.39-1.21-.63l-1.15,1.45a.51.51,0,0,1-.69.1l-1.82-1.33a.51.51,0,0,1-.13-.69l1-1.53a12.42,12.42,0,0,1-1-1l-1.54,1a.5.5,0,0,1-.68-.12L366,357.25a.5.5,0,0,1,.09-.69l1.44-1.14q-.36-.63-.63-1.2l-1.77.49a.51.51,0,0,1-.61-.33l-.7-2.15a.5.5,0,0,1,.31-.62l1.72-.64a13.16,13.16,0,0,1-.22-1.33l-1.83-.08a.5.5,0,0,1-.48-.5V346.8a.5.5,0,0,1,.48-.5l1.82-.08q.07-.68.21-1.35l-1.69-.63a.5.5,0,0,1-.3-.62l.7-2.15a.5.5,0,0,1,.61-.33l1.71.48c.18-.4.4-.81.64-1.24l-1.4-1.1a.5.5,0,0,1-.09-.69l1.33-1.83a.5.5,0,0,1,.68-.12l1.47,1q.48-.51,1-1l-1-1.47a.49.49,0,0,1,.12-.68l1.83-1.33a.5.5,0,0,1,.69.09l1.09,1.39a13.28,13.28,0,0,1,1.23-.64l-.47-1.71a.49.49,0,0,1,.32-.61l2.15-.7a.51.51,0,0,1,.63.3l.62,1.68a12.65,12.65,0,0,1,1.35-.22l.07-1.78a.51.51,0,0,1,.5-.48h2.27a.5.5,0,0,1,.5.48l.07,1.78c.42,0,.85.11,1.28.2l.59-1.61a.49.49,0,0,1,.62-.3l2.38.77a.51.51,0,0,1,.33.62l-.47,1.64a11.49,11.49,0,0,1,1,.54l1.06-1.37a.5.5,0,0,1,.69-.09l2,1.47a.49.49,0,0,1,.12.68l-1,1.44c.28.27.56.54.82.82l1.43-1a.5.5,0,0,1,.69.12l1.47,2a.5.5,0,0,1-.1.69L394,340.48c.2.36.38.7.54,1l1.64-.47a.5.5,0,0,1,.62.32l.77,2.38a.5.5,0,0,1-.3.63l-1.64.59a11.19,11.19,0,0,1,.18,1.16l1.74.06a.51.51,0,0,1,.49.5v2.5a.51.51,0,0,1-.49.5l-1.75.06c0,.37-.11.75-.18,1.14l1.66.6a.51.51,0,0,1,.31.63l-.77,2.38a.51.51,0,0,1-.62.33l-1.71-.5c-.16.33-.33.66-.53,1l1.42,1.11a.49.49,0,0,1,.1.69l-1.47,2a.5.5,0,0,1-.69.12l-1.5-1c-.25.27-.52.54-.8.79l1,1.5a.5.5,0,0,1-.12.68l-2,1.48a.51.51,0,0,1-.69-.1l-1.11-1.43c-.36.2-.69.38-1,.53l.49,1.71a.51.51,0,0,1-.33.62l-2.38.77a.5.5,0,0,1-.62-.31l-.61-1.68c-.39.08-.77.14-1.14.19l-.06,1.78A.5.5,0,0,1,382,365.27Zm-2-1h1.54l.05-1.73a.5.5,0,0,1,.46-.48,16.28,16.28,0,0,0,1.88-.3.49.49,0,0,1,.58.31l.59,1.64,1.47-.47-.48-1.67a.5.5,0,0,1,.28-.6,13.64,13.64,0,0,0,1.68-.87.5.5,0,0,1,.65.12l1.08,1.39,1.25-.9-1-1.46a.49.49,0,0,1,.09-.65,13.91,13.91,0,0,0,1.33-1.33.49.49,0,0,1,.65-.09l1.46,1,.91-1.24L393,355.85a.5.5,0,0,1-.12-.65,13.57,13.57,0,0,0,.87-1.68.5.5,0,0,1,.6-.28l1.66.48.48-1.46-1.63-.59a.5.5,0,0,1-.31-.58,15.31,15.31,0,0,0,.31-1.88.51.51,0,0,1,.48-.46l1.7-.05v-1.54l-1.7-.05a.51.51,0,0,1-.48-.46,13.19,13.19,0,0,0-.29-1.9.49.49,0,0,1,.32-.58l1.58-.58-.47-1.46-1.61.46a.48.48,0,0,1-.59-.28,15.55,15.55,0,0,0-.88-1.7.5.5,0,0,1,.12-.65l1.34-1-.91-1.24-1.4.95a.49.49,0,0,1-.65-.09,14.33,14.33,0,0,0-1.35-1.35.51.51,0,0,1-.08-.66l.94-1.4-1.24-.9-1,1.33a.51.51,0,0,1-.66.12,12.57,12.57,0,0,0-1.69-.88.52.52,0,0,1-.29-.6l.46-1.6-1.46-.47-.56,1.56a.49.49,0,0,1-.58.32,14.59,14.59,0,0,0-2-.32.49.49,0,0,1-.46-.47l-.07-1.74h-1.31l-.07,1.74a.49.49,0,0,1-.45.47,15.37,15.37,0,0,0-2.09.33.5.5,0,0,1-.58-.31l-.6-1.63-1.24.4.46,1.66a.5.5,0,0,1-.28.6,13.2,13.2,0,0,0-1.89,1,.5.5,0,0,1-.65-.12l-1.07-1.35-1.05.76.95,1.44a.51.51,0,0,1-.09.66,15.17,15.17,0,0,0-1.5,1.5.5.5,0,0,1-.66.09l-1.43-.95-.77,1.05,1.36,1.08a.5.5,0,0,1,.12.65,14.81,14.81,0,0,0-1,1.89.5.5,0,0,1-.6.29l-1.67-.47-.4,1.24,1.64.61a.49.49,0,0,1,.31.58,16,16,0,0,0-.32,2.09.5.5,0,0,1-.47.46l-1.78.07v1.3l1.78.07a.51.51,0,0,1,.48.46,14,14,0,0,0,.34,2.06.49.49,0,0,1-.32.58l-1.68.63.41,1.24,1.71-.48a.5.5,0,0,1,.6.28,14,14,0,0,0,1,1.86.48.48,0,0,1-.11.65L367,357.05l.77,1.05,1.49-1a.51.51,0,0,1,.66.09,13.88,13.88,0,0,0,1.49,1.48.49.49,0,0,1,.09.65l-1,1.5,1.06.76,1.11-1.41a.51.51,0,0,1,.66-.12,13.26,13.26,0,0,0,1.86,1,.51.51,0,0,1,.29.6l-.48,1.73,1.23.41.64-1.71a.49.49,0,0,1,.58-.31,15.37,15.37,0,0,0,1.94.32.5.5,0,0,1,.46.48Zm.72-8.19a8.21,8.21,0,1,1,8.21-8.21A8.22,8.22,0,0,1,380.67,356.08Zm0-15.42a7.21,7.21,0,1,0,7.21,7.21A7.23,7.23,0,0,0,380.67,340.66Z" transform="translate(-248.69 -238.88)"/><path class="cls-7" d="M383.87,347.87a3.2,3.2,0,1,1-3.2-3.19A3.2,3.2,0,0,1,383.87,347.87Z" transform="translate(-248.69 -238.88)"/><path class="cls-3" d="M380.67,351.57a3.7,3.7,0,1,1,3.7-3.7A3.7,3.7,0,0,1,380.67,351.57Zm0-6.39a2.7,2.7,0,1,0,2.7,2.69A2.7,2.7,0,0,0,380.67,345.18Z" transform="translate(-248.69 -238.88)"/><path class="cls-7" d="M405.92,319.84l-1.42,0a9,9,0,0,0-.19-1.28l1.32-.48-.2-.61-.1-.31-.2-.62-1.34.39a9.58,9.58,0,0,0-.59-1.15l1.11-.86-.38-.53-.19-.26-.38-.53-1.17.79a9.56,9.56,0,0,0-.9-.9l.79-1.17-.52-.38-.27-.19-.52-.38-.87,1.1a9.32,9.32,0,0,0-1.13-.59l.38-1.33-.62-.2-.31-.1-.61-.21-.48,1.31a10,10,0,0,0-1.35-.21l-.06-1.43h-1.46l-.06,1.43a10.74,10.74,0,0,0-1.4.22l-.5-1.34-.54.17-.31.1-.54.18.38,1.37a9.42,9.42,0,0,0-1.26.66l-.89-1.12-.46.33-.26.2-.46.33.79,1.19a9.63,9.63,0,0,0-1,1l-1.19-.79-.33.46-.2.27-.33.46,1.12.89a10.09,10.09,0,0,0-.65,1.27l-1.38-.39-.17.54-.1.31-.18.54,1.35.51a10.58,10.58,0,0,0-.21,1.39l-1.46.06v1.47l1.46.06a9,9,0,0,0,.23,1.38l-1.38.51.18.54.1.32.17.54,1.41-.4a9.3,9.3,0,0,0,.66,1.25l-1.16.91.34.46.19.27.33.46,1.23-.82a9.44,9.44,0,0,0,1,1l-.82,1.22.46.34.27.19.46.34.92-1.17a8.23,8.23,0,0,0,1.25.65l-.4,1.42.54.18.31.1.55.18.51-1.4a9.41,9.41,0,0,0,1.31.21l.05,1.44h1.62l.05-1.44a10.34,10.34,0,0,0,1.26-.2l.49,1.36.62-.2.31-.1.62-.2-.4-1.38a10.12,10.12,0,0,0,1.13-.59l.89,1.15.52-.38.27-.19.52-.39-.81-1.2a9.34,9.34,0,0,0,.89-.89l1.21.82.38-.53.19-.26.38-.53-1.15-.89a9.19,9.19,0,0,0,.59-1.12l1.38.4.2-.62.1-.31.2-.62-1.35-.48a9.09,9.09,0,0,0,.21-1.27l1.42,0v-1.63Zm-11,5.78a5,5,0,1,1,5-5A5,5,0,0,1,395,325.62Z" transform="translate(-248.69 -238.88)"/><path class="cls-3" d="M395.8,332.07h-1.62a.5.5,0,0,1-.5-.48l0-1-.5-.08-.36,1a.51.51,0,0,1-.63.3l-1.39-.45a.5.5,0,0,1-.33-.61l.28-1-.53-.28-.65.83a.49.49,0,0,1-.68.09l-1.19-.86a.49.49,0,0,1-.12-.68l.58-.87-.43-.42-.87.58a.51.51,0,0,1-.68-.13l-.86-1.18a.5.5,0,0,1,.09-.69l.82-.64a5.48,5.48,0,0,1-.28-.53l-1,.28a.5.5,0,0,1-.61-.33l-.46-1.39a.49.49,0,0,1,.31-.62l1-.37c0-.19-.07-.39-.1-.58l-1,0a.5.5,0,0,1-.48-.5v-1.47a.51.51,0,0,1,.48-.5l1,0a5.58,5.58,0,0,1,.09-.59l-.95-.36a.51.51,0,0,1-.31-.62l.46-1.4a.49.49,0,0,1,.61-.32l1,.27.28-.55-.78-.62a.5.5,0,0,1-.09-.69l.86-1.18a.51.51,0,0,1,.68-.13l.83.56c.14-.15.28-.3.43-.44l-.55-.83a.51.51,0,0,1,.12-.69l1.19-.86a.51.51,0,0,1,.69.1l.61.78.55-.29-.27-1a.5.5,0,0,1,.32-.61l1.4-.45a.5.5,0,0,1,.62.3l.35.94.59-.09.05-1a.5.5,0,0,1,.5-.47h1.46a.5.5,0,0,1,.5.47l0,1,.55.08.33-.9a.5.5,0,0,1,.62-.3l1.54.5a.49.49,0,0,1,.33.61l-.26.93.41.21.59-.76a.5.5,0,0,1,.69-.1l1.31,1a.48.48,0,0,1,.12.68l-.54.81.32.33.81-.55a.49.49,0,0,1,.68.12l1,1.31a.5.5,0,0,1-.1.69l-.77.6a4.11,4.11,0,0,1,.21.42L405,316a.49.49,0,0,1,.61.33l.51,1.54a.51.51,0,0,1-.31.62l-.92.34c0,.15.05.31.08.46l1,0a.51.51,0,0,1,.49.5v1.63a.51.51,0,0,1-.49.5l-1,0c0,.15-.05.3-.08.45l.94.34a.52.52,0,0,1,.31.63l-.5,1.54a.51.51,0,0,1-.62.33l-1-.28c-.06.13-.13.26-.2.39l.8.63a.5.5,0,0,1,.09.69l-1,1.31a.49.49,0,0,1-.68.12l-.85-.57-.32.31.58.84a.51.51,0,0,1-.12.69l-1.32.95a.49.49,0,0,1-.68-.09l-.63-.81-.4.21.28,1a.5.5,0,0,1-.33.61l-1.54.5a.5.5,0,0,1-.63-.3l-.34-.95-.46.07,0,1A.5.5,0,0,1,395.8,332.07Zm-1.14-1h.66l0-.95a.51.51,0,0,1,.46-.49,7.71,7.71,0,0,0,1.19-.19.49.49,0,0,1,.58.32l.33.9.62-.2-.26-.92a.49.49,0,0,1,.28-.59,10.25,10.25,0,0,0,1.07-.56.51.51,0,0,1,.65.12l.6.77.53-.39-.55-.8a.49.49,0,0,1,.09-.65,9.74,9.74,0,0,0,.85-.85.49.49,0,0,1,.65-.08l.81.54.38-.53-.76-.59a.51.51,0,0,1-.12-.66,9.83,9.83,0,0,0,.55-1.06.5.5,0,0,1,.6-.28l.91.26.21-.62-.9-.32a.5.5,0,0,1-.31-.59,9.14,9.14,0,0,0,.19-1.19.51.51,0,0,1,.48-.46l.94,0v-.65l-.93,0a.51.51,0,0,1-.48-.46,9.83,9.83,0,0,0-.19-1.21.5.5,0,0,1,.32-.58l.86-.31-.2-.63-.87.26a.51.51,0,0,1-.6-.29,8.7,8.7,0,0,0-.56-1.08.5.5,0,0,1,.12-.65l.73-.57-.38-.53-.77.52a.49.49,0,0,1-.65-.09,10,10,0,0,0-.86-.86.49.49,0,0,1-.08-.65l.52-.77-.54-.39-.56.73a.5.5,0,0,1-.65.12,8.66,8.66,0,0,0-1.08-.56.5.5,0,0,1-.28-.6l.25-.87-.63-.2-.31.85a.49.49,0,0,1-.58.32,8.29,8.29,0,0,0-1.28-.2.51.51,0,0,1-.46-.48l0-.95h-.5l0,.95a.51.51,0,0,1-.46.48,8.63,8.63,0,0,0-1.32.21.51.51,0,0,1-.59-.31l-.33-.9-.48.16.25.91a.49.49,0,0,1-.28.59,9.31,9.31,0,0,0-1.2.63.5.5,0,0,1-.65-.12l-.59-.74-.41.29.53.79a.52.52,0,0,1-.09.66,7.26,7.26,0,0,0-1,1,.51.51,0,0,1-.66.09l-.79-.53-.29.41.74.59a.51.51,0,0,1,.12.66,9.19,9.19,0,0,0-.62,1.2.5.5,0,0,1-.59.29l-.92-.26-.16.48.91.34a.49.49,0,0,1,.31.58,8.07,8.07,0,0,0-.2,1.32.51.51,0,0,1-.48.46l-1,0v.51l1,0a.49.49,0,0,1,.48.46,9.19,9.19,0,0,0,.22,1.31.51.51,0,0,1-.32.58l-.93.35.16.48.95-.27a.51.51,0,0,1,.6.29,9,9,0,0,0,.61,1.18.49.49,0,0,1-.11.65l-.78.62.3.41.83-.55a.49.49,0,0,1,.65.08,8.52,8.52,0,0,0,1,.95.49.49,0,0,1,.09.65l-.55.83.41.3.62-.79a.5.5,0,0,1,.65-.11,11.2,11.2,0,0,0,1.18.61.49.49,0,0,1,.29.59l-.27,1,.48.15.36-.94a.49.49,0,0,1,.58-.32,7.87,7.87,0,0,0,1.23.2.52.52,0,0,1,.46.49Zm.3-4.95a5.5,5.5,0,1,1,5.5-5.5A5.5,5.5,0,0,1,395,326.12Zm0-10a4.5,4.5,0,1,0,4.5,4.5A4.5,4.5,0,0,0,395,316.12Z" transform="translate(-248.69 -238.88)"/><polygon class="cls-7" points="39.94 102.55 43.62 89.63 47.29 76.72 34.27 79.99 21.25 83.27 27.99 90.22 15.41 102.42 20.61 107.79 33.2 95.59 39.94 102.55"/><path class="cls-3" d="M269.31,347.17A.51.51,0,0,1,269,347l-5.21-5.37a.52.52,0,0,1-.14-.36.51.51,0,0,1,.15-.35L276,329.09l-6.4-6.6a.5.5,0,0,1-.12-.48.51.51,0,0,1,.36-.35l26-6.55a.53.53,0,0,1,.49.14.5.5,0,0,1,.12.48l-7.35,25.83a.51.51,0,0,1-.36.35.5.5,0,0,1-.48-.14l-6.4-6.59L269.66,347A.54.54,0,0,1,269.31,347.17Zm-4.5-5.86,4.51,4.65,12.22-11.85a.57.57,0,0,1,.36-.14.51.51,0,0,1,.35.15l6.14,6.34,6.88-24.17-24.37,6.13,6.14,6.33a.5.5,0,0,1,0,.71Z" transform="translate(-248.69 -238.88)"/><path class="cls-4" d="M295.85,283.62h-2a.5.5,0,0,1-.5-.48l-.05-1.33-.79-.13L292,283a.49.49,0,0,1-.62.3l-1.71-.55a.5.5,0,0,1-.33-.61l.37-1.33q-.39-.18-.81-.42l-.86,1.08a.5.5,0,0,1-.68.1l-1.46-1.06a.5.5,0,0,1-.12-.68l.76-1.14c-.22-.21-.44-.43-.65-.65l-1.14.76a.51.51,0,0,1-.69-.12l-1.05-1.45a.5.5,0,0,1,.09-.69l1.08-.85a8.06,8.06,0,0,1-.43-.81l-1.32.37a.51.51,0,0,1-.61-.33l-.55-1.71a.5.5,0,0,1,.3-.62l1.28-.48c-.06-.3-.11-.6-.14-.89l-1.37-.06a.5.5,0,0,1-.48-.5v-1.79a.5.5,0,0,1,.48-.5l1.36-.06a9.07,9.07,0,0,1,.14-.91l-1.26-.47a.5.5,0,0,1-.3-.62l.56-1.71a.51.51,0,0,1,.61-.33l1.27.36c.13-.27.27-.55.43-.83l-1-.82a.5.5,0,0,1-.09-.69l1.06-1.45a.49.49,0,0,1,.68-.12l1.09.72c.21-.23.44-.45.67-.66l-.74-1.1A.5.5,0,0,1,286,259l1.45-1.06a.51.51,0,0,1,.69.1l.81,1c.29-.16.56-.31.83-.43l-.35-1.27a.49.49,0,0,1,.32-.61l1.71-.56a.51.51,0,0,1,.63.3l.46,1.25c.3-.06.61-.11.91-.15l0-1.32a.5.5,0,0,1,.5-.48h1.8a.5.5,0,0,1,.5.48l.05,1.32.86.13.43-1.19a.49.49,0,0,1,.62-.3l1.89.61a.5.5,0,0,1,.33.61l-.35,1.23c.22.1.44.22.67.35l.79-1a.5.5,0,0,1,.69-.09l1.6,1.17a.48.48,0,0,1,.12.68l-.72,1.07c.18.17.36.35.53.53l1.07-.72a.49.49,0,0,1,.68.12l1.17,1.61a.49.49,0,0,1-.1.69l-1,.79c.13.24.25.46.35.67l1.23-.35a.5.5,0,0,1,.61.33l.62,1.89a.51.51,0,0,1-.31.62l-1.21.44c0,.25.08.51.11.76l1.3,0a.5.5,0,0,1,.48.5v2a.5.5,0,0,1-.48.5l-1.31,0c0,.25-.07.49-.12.74l1.24.45a.5.5,0,0,1,.31.63l-.62,1.89a.49.49,0,0,1-.61.32l-1.28-.36c-.1.21-.21.42-.34.64l1.06.83a.49.49,0,0,1,.1.69l-1.17,1.61a.5.5,0,0,1-.68.12l-1.12-.76c-.17.18-.34.35-.52.51l.76,1.12a.5.5,0,0,1-.12.68l-1.61,1.17a.5.5,0,0,1-.69-.09l-.83-1.07-.65.34.36,1.28a.49.49,0,0,1-.32.61l-1.89.62a.5.5,0,0,1-.63-.31l-.45-1.25-.74.12,0,1.33A.49.49,0,0,1,295.85,283.62Zm-1.5-1h1l0-1.28a.51.51,0,0,1,.46-.48,10.11,10.11,0,0,0,1.48-.24.51.51,0,0,1,.58.32l.44,1.21,1-.32-.35-1.22a.5.5,0,0,1,.28-.6,12.2,12.2,0,0,0,1.32-.69.51.51,0,0,1,.65.12l.8,1,.83-.6-.73-1.07a.52.52,0,0,1,.08-.66,10.41,10.41,0,0,0,1-1.05.51.51,0,0,1,.66-.08l1.08.73.6-.83-1-.8a.5.5,0,0,1-.12-.65,10.46,10.46,0,0,0,.69-1.31.49.49,0,0,1,.6-.28l1.22.35.32-1-1.2-.44a.5.5,0,0,1-.32-.58,11.74,11.74,0,0,0,.25-1.48.5.5,0,0,1,.48-.45l1.25,0v-1l-1.25,0a.5.5,0,0,1-.48-.45,10.64,10.64,0,0,0-.23-1.5.51.51,0,0,1,.32-.58l1.16-.42-.31-1-1.18.34a.5.5,0,0,1-.6-.29,10.15,10.15,0,0,0-.69-1.34.51.51,0,0,1,.12-.65l1-.76-.6-.83-1,.69a.51.51,0,0,1-.66-.08,9.64,9.64,0,0,0-1.06-1.06.51.51,0,0,1-.08-.66l.7-1L302,259l-.76,1a.51.51,0,0,1-.66.12,10.16,10.16,0,0,0-1.33-.7.5.5,0,0,1-.28-.6l.33-1.17-1-.31-.41,1.14a.49.49,0,0,1-.58.32,13.08,13.08,0,0,0-1.59-.25.5.5,0,0,1-.46-.48l-.05-1.27h-.84l-.05,1.28a.5.5,0,0,1-.46.47,13.93,13.93,0,0,0-1.64.26.49.49,0,0,1-.58-.31l-.45-1.2-.79.26.34,1.22a.5.5,0,0,1-.29.6,11.77,11.77,0,0,0-1.48.77.5.5,0,0,1-.65-.12l-.79-1-.68.5.71,1.05a.51.51,0,0,1-.09.66,11.14,11.14,0,0,0-1.19,1.19.49.49,0,0,1-.65.09l-1.06-.71-.49.68,1,.79a.5.5,0,0,1,.12.65,11.2,11.2,0,0,0-.77,1.49.48.48,0,0,1-.59.29l-1.23-.34-.26.79,1.21.45a.49.49,0,0,1,.31.58,12.72,12.72,0,0,0-.25,1.64.5.5,0,0,1-.48.46l-1.31.06v.83l1.32.06a.5.5,0,0,1,.48.45,10.61,10.61,0,0,0,.26,1.63.5.5,0,0,1-.31.58l-1.24.46.26.8,1.26-.36a.49.49,0,0,1,.6.29,11.06,11.06,0,0,0,.77,1.46.5.5,0,0,1-.12.65l-1,.83.49.67,1.11-.73a.49.49,0,0,1,.65.09,11.63,11.63,0,0,0,1.17,1.16.5.5,0,0,1,.1.66l-.74,1.1.68.5.83-1a.5.5,0,0,1,.65-.12,11.5,11.5,0,0,0,1.46.76.49.49,0,0,1,.29.59l-.36,1.29.8.25.47-1.26a.5.5,0,0,1,.58-.31,10.59,10.59,0,0,0,1.53.25.51.51,0,0,1,.46.48Zm.48-6.3a6.62,6.62,0,1,1,6.62-6.62A6.63,6.63,0,0,1,294.83,276.32Zm0-12.24a5.62,5.62,0,1,0,5.62,5.62A5.63,5.63,0,0,0,294.83,264.08Z" transform="translate(-248.69 -238.88)"/><path class="cls-7" d="M289.84,289.24a1.77,1.77,0,1,1-1.77-1.76A1.77,1.77,0,0,1,289.84,289.24Z" transform="translate(-248.69 -238.88)"/><path class="cls-4" d="M388.32,306a2.16,2.16,0,1,1-2.16-2.16A2.16,2.16,0,0,1,388.32,306Z" transform="translate(-248.69 -238.88)"/><path class="cls-8" d="M411.76,288.25a2.92,2.92,0,1,1-2.92-2.93A2.92,2.92,0,0,1,411.76,288.25Z" transform="translate(-248.69 -238.88)"/><path class="cls-4" d="M400.15,307.07a.55.55,0,0,1-.25-.07l-15.73-9.14a.49.49,0,0,1,0-.86L400,287.94a.5.5,0,0,1,.5,0,.51.51,0,0,1,.24.44v6.06l11.37,0a.5.5,0,0,1,.5.5V300a.5.5,0,0,1-.5.5h0l-11.38,0v6.06a.5.5,0,0,1-.25.43A.55.55,0,0,1,400.15,307.07Zm-14.73-9.64,14.23,8.27,0-5.7a.5.5,0,0,1,.5-.5h0l11.37,0v-4.07l-11.37,0a.53.53,0,0,1-.36-.15.5.5,0,0,1-.14-.35v-5.7Z" transform="translate(-248.69 -238.88)"/><path class="cls-4" d="M351.08,388.15a2.16,2.16,0,1,1-2.16-2.16A2.16,2.16,0,0,1,351.08,388.15Z" transform="translate(-248.69 -238.88)"/><path class="cls-7" d="M374.52,371.94a4.43,4.43,0,1,1-4.42-4.43A4.42,4.42,0,0,1,374.52,371.94Z" transform="translate(-248.69 -238.88)"/><path class="cls-4" d="M269,284.23l-4.63,5.3Z" transform="translate(-248.69 -238.88)"/><path class="cls-4" d="M269.72,284.23a.65.65,0,0,1-.17.45L264.93,290a.69.69,0,0,1-1,.06.68.68,0,0,1-.07-1l4.63-5.3a.68.68,0,0,1,1-.07A.7.7,0,0,1,269.72,284.23Z" transform="translate(-248.69 -238.88)"/><path class="cls-4" d="M269,294.84l-4.63-5.31Z" transform="translate(-248.69 -238.88)"/><path class="cls-4" d="M269.72,294.84a.71.71,0,0,1-.23.52.68.68,0,0,1-1-.07l-4.63-5.3a.69.69,0,0,1,1-.91l4.62,5.31A.65.65,0,0,1,269.72,294.84Z" transform="translate(-248.69 -238.88)"/><path class="cls-4" d="M273.07,290.16l4.63,5.3Z" transform="translate(-248.69 -238.88)"/><path class="cls-4" d="M272.38,290.16a.7.7,0,0,0,.17.45l4.63,5.31a.69.69,0,1,0,1-.91l-4.62-5.31a.69.69,0,0,0-1-.06A.66.66,0,0,0,272.38,290.16Z" transform="translate(-248.69 -238.88)"/><path class="cls-4" d="M273.07,300.77l4.63-5.31Z" transform="translate(-248.69 -238.88)"/><path class="cls-4" d="M272.38,300.77a.69.69,0,0,0,1.21.45l4.62-5.3a.69.69,0,0,0-.06-1,.68.68,0,0,0-1,.07l-4.63,5.31A.7.7,0,0,0,272.38,300.77Z" transform="translate(-248.69 -238.88)"/><path class="cls-9" d="M276.82,388.15h0Z" transform="translate(-248.69 -238.88)"/><path class="cls-5" d="M341,388.65H276.82a.5.5,0,0,1-.5-.5.5.5,0,0,1,.5-.5H341a.5.5,0,0,1,.5.5A.5.5,0,0,1,341,388.65Z" transform="translate(-248.69 -238.88)"/><path class="cls-4" d="M326,384.15H309.16a.5.5,0,0,1-.5-.5.5.5,0,0,1,.5-.5H326a.5.5,0,0,1,.5.5A.5.5,0,0,1,326,384.15Z" transform="translate(-248.69 -238.88)"/><path class="cls-2" d="M279.06,310.3a3.65,3.65,0,1,1-3.64-3.64A3.64,3.64,0,0,1,279.06,310.3Z" transform="translate(-248.69 -238.88)"/><path class="cls-4" d="M324.49,281.68a2.16,2.16,0,1,1-2.15-2.16A2.15,2.15,0,0,1,324.49,281.68Z" transform="translate(-248.69 -238.88)"/><path class="cls-4" d="M331.24,284.33a3.34,3.34,0,1,1,3.34-3.34A3.35,3.35,0,0,1,331.24,284.33Zm0-5.68a2.34,2.34,0,1,0,2.34,2.34A2.34,2.34,0,0,0,331.24,278.65Z" transform="translate(-248.69 -238.88)"/><path class="cls-9" d="M301.27,251.15h0Z" transform="translate(-248.69 -238.88)"/><path class="cls-5" d="M347.17,251.65h-45.9a.5.5,0,0,1-.5-.5.5.5,0,0,1,.5-.5h45.9a.5.5,0,0,1,.5.5A.51.51,0,0,1,347.17,251.65Z" transform="translate(-248.69 -238.88)"/><path class="cls-7" d="M252.22,315.59a1.77,1.77,0,1,1-1.76-1.76A1.76,1.76,0,0,1,252.22,315.59Z" transform="translate(-248.69 -238.88)"/><path class="cls-9" d="M277.69,247.1h0Z" transform="translate(-248.69 -238.88)"/><path class="cls-5" d="M336.15,247.6H277.69a.5.5,0,0,1-.5-.5.51.51,0,0,1,.5-.5h58.46a.5.5,0,0,1,.5.5A.5.5,0,0,1,336.15,247.6Z" transform="translate(-248.69 -238.88)"/><path class="cls-4" d="M261.85,330.07a5.52,5.52,0,1,1,5.51-5.52A5.52,5.52,0,0,1,261.85,330.07Zm0-10a4.52,4.52,0,1,0,4.51,4.51A4.52,4.52,0,0,0,261.85,320Z" transform="translate(-248.69 -238.88)"/><path class="cls-8" d="M397.29,389.19c-7.71,0-13.75-3-13.75-6.92s6-6.91,13.75-6.91a24.52,24.52,0,0,1,7.61,1.13,8.33,8.33,0,0,0-2.09-2.73.49.49,0,0,1,.56-.8c7.16,3.36,7.68,8,7.67,9.32C411,386.16,405,389.19,397.29,389.19Zm0-12.83c-6.91,0-12.75,2.71-12.75,5.91s5.84,5.92,12.75,5.92S410,385.48,410,382.27h0c0-1-.34-4.21-4.68-7.07a4.61,4.61,0,0,1,.73,2,.5.5,0,0,1-.19.45.51.51,0,0,1-.49.07A23,23,0,0,0,397.29,376.36Z" transform="translate(-248.69 -238.88)"/></g></svg>