<?xml version="1.0" encoding="utf-8"?>
<!-- Generator: Adobe Illustrator 27.0.0, SVG Export Plug-In . SVG Version: 6.00 Build 0)  -->
<svg version="1.1" id="Layer_1" xmlns="http://www.w3.org/2000/svg" xmlns:xlink="http://www.w3.org/1999/xlink" x="0px" y="0px"
	 viewBox="0 0 60 60" style="enable-background:new 0 0 60 60;" xml:space="preserve">
<style type="text/css">
	.st0{fill:#5357A6;}
	.st1{fill:url(#SVGID_1_);}
</style>
<g>
	<path class="st0" d="M40,40.1c-4.4-2.4-9-4.6-10.4-5c-2.2-0.6-2.4-1.7-0.4-5.2c1.7-3.1,2.4-11.7,0.8-15c-1.2-2.4-4-4.1-7-4.1
		c-0.9,0-1.9,0.1-2.7,0.4c-4.5,1.7-5.5,5.2-5.4,10.4c0.1,3.2,0.7,6.2,1.3,7.3c2.6,4.4,2.3,5.9,0,6.4c-1.7,0.4-7.8,3.3-10.8,5.2
		c-3.8,2.5-5.5,7.8-2.6,8.6c0.8,0.2,11,0.3,20.8,0.3c8.6,0,17.1-0.1,18.4-0.2c2.2-0.3,2.1-0.3,2.2-2C44.5,44.4,42.9,41.7,40,40.1z"
		/>
	<linearGradient id="SVGID_1_" gradientUnits="userSpaceOnUse" x1="33.0204" y1="27.7645" x2="58.6369" y2="27.7645">
		<stop  offset="0" style="stop-color:#FAA32C"/>
		<stop  offset="1" style="stop-color:#FBBC67"/>
	</linearGradient>
	<path class="st1" d="M55.3,35.7L55.3,35.7c-3.5-2-7.1-3.7-8.2-4c-1.7-0.4-1.9-1.3-0.3-4.1c1.3-2.5,1.8-9.2,0.6-11.8
		c-0.9-2-3.1-3.2-5.4-3.2c-0.7,0-1.5,0.1-2.2,0.3c-3.5,1.3-4.4,4.1-4.3,8.2c0.1,2.5,0.6,4.9,1.1,5.7c2,3.5,1.7,4.5,0,4.9
		c-0.6,0.1-2,0.8-3.6,1.5c2.4,1,5.7,2.7,8.4,4.2c2.4,1.3,4.1,3.2,5,5.4c5.2,0,9.6-0.1,10.4-0.2c1.7-0.2,1.7-0.3,1.7-1.5
		C58.8,39.1,57.6,36.9,55.3,35.7z"/>
</g>
</svg>
