<?xml version="1.0" encoding="utf-8"?>
<!-- Generator: Adobe Illustrator 27.0.0, SVG Export Plug-In . SVG Version: 6.00 Build 0)  -->
<svg version="1.1" id="Layer_1" xmlns="http://www.w3.org/2000/svg" xmlns:xlink="http://www.w3.org/1999/xlink" x="0px" y="0px"
	 viewBox="0 0 350.5 97.9" style="enable-background:new 0 0 350.5 97.9;" xml:space="preserve">
<style type="text/css">
	.st0{fill:url(#SVGID_1_);}
	.st1{fill:#FFFFFF;}
	.st2{fill:url(#SVGID_00000008832044076439451360000016944243557314105219_);}
	.st3{fill:url(#SVGID_00000030488457593776938400000002742363734768007062_);}
</style>
<g>
	<g>
		<g>
			
				<linearGradient id="SVGID_1_" gradientUnits="userSpaceOnUse" x1="-125.9405" y1="69.2114" x2="-45.2116" y2="69.2114" gradientTransform="matrix(0.9906 -0.1369 -0.1369 -0.9906 136.6813 88.2299)">
				<stop  offset="0" style="stop-color:#FBBC67"/>
				<stop  offset="1" style="stop-color:#FAA32C"/>
			</linearGradient>
			<path class="st0" d="M0.1,19.8l5.9,42.3c0.1,0.9,1.3,1.2,1.9,0.5l11.7-14.3c1.8-2.2,2.6-5.1,2.2-8l-3.2-23.1
				C17.8,12.2,13.1,8.6,8,9.3l0,0C2.9,10-0.6,14.7,0.1,19.8z"/>
			<path class="st1" d="M89.1,85.8c-0.2-0.2-0.4-0.4-0.6-0.6L58,60.3c2.3-1.3,3.5-4.2,2.4-6.8c-0.9-2.2-3.3-3.6-5.7-3.2
				c-2.2,0.3-3.7,1.9-4.3,3.7l-7.7-6.3c-0.8-0.6-0.9-1.8-0.3-2.5l6.6-8.3c-1.8-0.6-3.2-2.2-3.6-4.3c-0.4-2.4,0.9-4.8,3.2-5.8
				c2.5-1.1,5.4-0.2,6.8,2l14.3-18.1c3.8-4.6,0-11.4-5.9-10.6c-1.7,0.2-3.1,1.1-4.2,2.4L9.5,67.2c-1.5,2-2.2,4.5-1.9,7l1.8,12.9
				c0.7,5.1,5.4,8.6,10.5,7.9l0,0c5.1-0.7,8.6-5.4,7.9-10.5l-1.5-11.1c-0.2-1.4,1.3-2.5,2.6-1.9l52.2,25.6
				C88.3,100.4,94.5,91.3,89.1,85.8z"/>
		</g>
		
			<linearGradient id="SVGID_00000132794675896674863410000010013962856134452109_" gradientUnits="userSpaceOnUse" x1="-125.8562" y1="67.7183" x2="-45.0969" y2="67.7183" gradientTransform="matrix(0.9906 -0.1369 -0.1369 -0.9906 136.6813 88.2299)">
			<stop  offset="0" style="stop-color:#FBBC67"/>
			<stop  offset="1" style="stop-color:#FAA32C"/>
		</linearGradient>
		<circle style="fill:url(#SVGID_00000132794675896674863410000010013962856134452109_);" cx="50.7" cy="31.7" r="2.8"/>
		
			<linearGradient id="SVGID_00000104665885749282491730000008525907833591682465_" gradientUnits="userSpaceOnUse" x1="-128.5632" y1="53.6092" x2="-41.9306" y2="53.6092" gradientTransform="matrix(0.9906 -0.1369 -0.1369 -0.9906 136.6813 88.2299)">
			<stop  offset="0" style="stop-color:#FBBC67"/>
			<stop  offset="1" style="stop-color:#FAA32C"/>
		</linearGradient>
		<path style="fill:url(#SVGID_00000104665885749282491730000008525907833591682465_);" d="M82,38.1L65.3,24.7
			c-0.8-0.6-1.9-0.5-2.6,0.3l-16,19.8c-0.7,0.8-0.5,2.1,0.4,2.7l0.9,0.6c0.5,0.4,1.2,0.4,1.8,0.1c3.8-2,7.9-1.4,10.7,1
			c2.6,2.3,4.2,6.1,2.7,9.7c-0.3,0.7-0.1,1.5,0.5,2l2.3,2.1c0.8,0.7,2,0.6,2.6-0.2l13.7-17.2C84.5,43.4,84.2,40,82,38.1z"/>
	</g>
	<g>
		<path class="st1" d="M115.2,72.2V21.6h3.4v50.6H115.2z"/>
		<path class="st1" d="M128.7,39l-0.3-11.9v-5.5h3.6v5.5L131.6,39H128.7z"/>
		<path class="st1" d="M145.7,55.6c3.2-3.4,12.8-13.1,17.4-17.7h4.4l-13.6,13.7l15.3,20.7h-4.3l-13.5-18.5l-5.7,5.5v13h-3.4V21.6
			h3.4L145.7,55.6L145.7,55.6z"/>
		<path class="st1" d="M199,65.7c0,3,0.3,5.4,0.5,6.5h-3.3c-0.3-0.8-0.5-2.3-0.6-5.3c-1.2,2.5-4.2,6.1-11.3,6.1
			c-8,0-11.4-5.1-11.4-10.3c0-7.6,5.8-11,16.1-11c2.9,0,5.1,0,6.5,0v-3.5c0-3.4-1-8-8.9-8c-6.9,0-8,3.6-8.7,6.5h-3.4
			c0.4-3.8,2.7-9.6,12.2-9.6c7.8,0,12.2,3.3,12.2,10.8V65.7z M195.7,54.7c-1.3,0-4.5,0-6.7,0c-7.6,0-12.4,2-12.4,7.9
			c0,4.3,3.1,7.3,7.9,7.3c9.8,0,11.2-6.5,11.2-13.9V54.7z"/>
		<path class="st1" d="M210.4,47.2c0-5.8-0.1-8.2-0.1-9.3h3.4c0.1,1.1,0.1,3.3,0.1,7.7c2-5.1,6.4-8.2,11.9-8.5v3.7
			c-7.1,0.5-11.9,5.4-11.9,13.6v17.9h-3.4L210.4,47.2L210.4,47.2z"/>
		<path class="st1" d="M231.9,47.2c0-5.8-0.1-8.2-0.1-9.3h3.4c0.1,1.1,0.1,3.3,0.1,7.7c2-5.1,6.4-8.2,11.9-8.5v3.7
			c-7.1,0.5-11.9,5.4-11.9,13.6v17.9h-3.4L231.9,47.2L231.9,47.2z"/>
		<path class="st1" d="M253.6,21.6h3.4v6.7h-3.4V21.6z M253.6,37.9h3.4v34.3h-3.4V37.9z"/>
		<path class="st1" d="M269,55.4c0.1,8.9,4.5,14.3,11.1,14.3c6.5,0,8.7-3.6,9.9-6.5h3.5c-1.4,4.5-5.1,9.7-13.5,9.7
			c-10.4,0-14.5-9-14.5-17.7c0-9.8,4.9-18.3,14.9-18.3c10.6,0,13.9,9.1,13.9,15.6c0,1,0,1.9-0.1,2.8H269z M273.8,20.9l9.4,10.8h-3.7
			l-10.3-10.8H273.8z M290.8,52.4c-0.1-6.8-3.8-12.2-10.5-12.2c-7.1,0-10.3,4.9-11.1,12.2H290.8z"/>
		<path class="st1" d="M302.7,47.2c0-5.8-0.1-8.2-0.1-9.3h3.4c0.1,1.1,0.1,3.3,0.1,7.7c2-5.1,6.4-8.2,11.9-8.5v3.7
			c-7.1,0.5-11.9,5.4-11.9,13.6v17.9h-3.4L302.7,47.2L302.7,47.2z"/>
		<path class="st1" d="M325.2,55.4c0.1,8.9,4.5,14.3,11.1,14.3c6.5,0,8.7-3.6,9.9-6.5h3.5c-1.4,4.5-5.1,9.7-13.5,9.7
			c-10.4,0-14.5-9-14.5-17.7c0-9.8,4.9-18.3,14.9-18.3c10.6,0,13.9,9.1,13.9,15.6c0,1,0,1.9-0.1,2.8H325.2z M346.9,52.4
			c-0.1-6.8-3.8-12.2-10.5-12.2c-7.1,0-10.3,4.9-11.1,12.2H346.9z"/>
	</g>
</g>
</svg>
