<?xml version="1.0" encoding="utf-8"?>
<!-- Generator: Adobe Illustrator 27.0.0, SVG Export Plug-In . SVG Version: 6.00 Build 0)  -->
<svg version="1.1" id="Layer_1" xmlns="http://www.w3.org/2000/svg" xmlns:xlink="http://www.w3.org/1999/xlink" x="0px" y="0px"
	 viewBox="0 0 60 60" style="enable-background:new 0 0 60 60;" xml:space="preserve">
<style type="text/css">
	.st0{fill:#FFFFFF;}
</style>
<g>
	<path class="st0" d="M49.9,5.5c5,0,9.1,4.1,9.1,9.1v21.8c0,5-4.1,9.1-9.1,9.1H37.3v5.4h5.4c1,0,1.8,0.8,1.8,1.8
		c0,1-0.8,1.8-1.8,1.8H17.3c-1,0-1.8-0.8-1.8-1.8c0-1,0.8-1.8,1.8-1.8h5.4v-5.4H10.1c-4.9,0-8.8-3.8-9.1-8.7l0-0.4V14.6
		c0-5,4.1-9.1,9.1-9.1L49.9,5.5z M33.6,50.8v-5.4h-7.3v5.4H33.6z M49.9,9.2H10.1c-3,0-5.4,2.4-5.4,5.4v21.8c0,3,2.4,5.4,5.4,5.4
		h39.9c3,0,5.4-2.4,5.4-5.4V14.6C55.4,11.6,52.9,9.2,49.9,9.2z"/>
</g>
</svg>
