<?xml version="1.0" encoding="utf-8"?>
<!-- Generator: Adobe Illustrator 27.0.0, SVG Export Plug-In . SVG Version: 6.00 Build 0)  -->
<svg version="1.1" id="Layer_1" xmlns="http://www.w3.org/2000/svg" xmlns:xlink="http://www.w3.org/1999/xlink" x="0px" y="0px"
	 viewBox="0 0 60 60" style="enable-background:new 0 0 60 60;" xml:space="preserve">
<style type="text/css">
	.st0{fill:#FFFFFF;}
</style>
<path class="st0" d="M57.1,11.4L30.7,2.6c-0.5-0.2-0.9-0.2-1.4,0L2.9,11.4l0,0l0,0c0,0,0,0,0,0c-0.1,0-0.2,0.1-0.3,0.1c0,0,0,0,0,0
	c-0.1,0-0.2,0.1-0.3,0.2c0,0,0,0-0.1,0c-0.1,0.1-0.2,0.1-0.2,0.2c0,0,0,0,0,0c-0.1,0.1-0.1,0.1-0.2,0.2c0,0,0,0,0,0
	c-0.1,0.1-0.1,0.2-0.2,0.3c0,0,0,0,0,0c0,0.1-0.1,0.2-0.1,0.3c0,0,0,0,0,0c0,0.1-0.1,0.2-0.1,0.3c0,0,0,0,0,0.1c0,0.1,0,0.2,0,0.3
	v22c0,1.2,1,2.2,2.2,2.2s2.2-1,2.2-2.2v-19l9.2,3.1c-5.1,8.2-2.6,19.1,5.6,24.2c-5.3,2-9.7,5.6-12.8,10.3c-0.7,1-0.4,2.4,0.6,3
	c1,0.7,2.4,0.4,3-0.6c0,0,0,0,0,0c6.6-10.2,20.3-13.1,30.5-6.4c2.6,1.7,4.8,3.9,6.4,6.4c0.7,1,2,1.3,3,0.6c1-0.7,1.3-2,0.6-3
	c-3.1-4.7-7.5-8.3-12.8-10.3c8.2-5.1,10.7-16,5.6-24.2l12.1-4c1.2-0.4,1.8-1.6,1.4-2.8C58.3,12.1,57.8,11.6,57.1,11.4L57.1,11.4z
	 M43.2,28.9c0,7.3-5.9,13.2-13.2,13.2s-13.2-5.9-13.2-13.2c0-2.8,0.9-5.6,2.6-7.8l9.9,3.3c0.5,0.2,0.9,0.2,1.4,0l9.9-3.3
	C42.3,23.3,43.2,26.1,43.2,28.9z M40.7,16.4C40.7,16.4,40.6,16.4,40.7,16.4L30,20l-10.6-3.5c0,0,0,0,0,0l-8.8-2.9L30,7l19.5,6.5
	L40.7,16.4z"/>
</svg>
