<?xml version="1.0" encoding="utf-8"?>
<!-- Generator: Adobe Illustrator 27.0.0, SVG Export Plug-In . SVG Version: 6.00 Build 0)  -->
<svg version="1.1" id="Layer_1" xmlns="http://www.w3.org/2000/svg" xmlns:xlink="http://www.w3.org/1999/xlink" x="0px" y="0px"
	 viewBox="0 0 60 60" style="enable-background:new 0 0 60 60;" xml:space="preserve">
<style type="text/css">
	.st0{fill:#FFFFFF;}
</style>
<path class="st0" d="M49.8,7.4H10.2c-4.7,0-8.5,3.8-8.5,8.5v28.3c0,4.7,3.8,8.5,8.5,8.5h39.6c4.7,0,8.5-3.8,8.5-8.5V15.9
	C58.3,11.2,54.5,7.4,49.8,7.4z M49.8,13c0.5,0,1,0.1,1.4,0.4c-0.1,0.1-0.2,0.1-0.3,0.2L33.4,26.7c-2,1.5-4.8,1.5-6.8,0L9.1,13.6
	c-0.1-0.1-0.2-0.1-0.3-0.2c0.4-0.2,0.9-0.4,1.4-0.4H49.8z M49.8,47H10.2c-1.6,0-2.8-1.3-2.8-2.8V19.4l15.8,11.9
	c2,1.5,4.3,2.3,6.8,2.3s4.8-0.8,6.8-2.3l15.8-11.9v24.7C52.6,45.7,51.4,47,49.8,47z"/>
</svg>
