<?xml version="1.0" encoding="utf-8"?>
<!-- Generator: Adobe Illustrator 27.0.0, SVG Export Plug-In . SVG Version: 6.00 Build 0)  -->
<svg version="1.1" id="Layer_1" xmlns="http://www.w3.org/2000/svg" xmlns:xlink="http://www.w3.org/1999/xlink" x="0px" y="0px"
	 viewBox="0 0 60 60" style="enable-background:new 0 0 60 60;" xml:space="preserve">
<style type="text/css">
	.st0{fill:#FFFFFF;}
</style>
<g id="XMLID_129_">
	<path id="XMLID_134_" class="st0" d="M57.5,1.3H26.3c-1,0-1.9,0.8-1.9,1.9v13.3l1.4-1.6c0.6-0.8,1.5-1.2,2.4-1.4V5.1h27.5v24.6
		H28.1v-4.1l-0.8,1c-0.7,0.9-1.8,1.4-2.9,1.5v3.5c0,1,0.8,1.9,1.9,1.9h10.1l-5.2,23.4c-0.2,1,0.4,2.1,1.5,2.3c1,0.2,2.1-0.4,2.3-1.5
		l5.3-24.2h3.1l5.3,24.2c0.2,0.9,1,1.5,1.9,1.5c0.1,0,0.3,0,0.4,0c1.1-0.2,1.7-1.3,1.5-2.3l-5.2-23.4h10c1,0,1.9-0.8,1.9-1.9V3.2
		C59.4,2.1,58.5,1.3,57.5,1.3z"/>
	<path id="XMLID_132_" class="st0" d="M42.6,12.3c-0.1-0.4-0.6-0.6-0.9-0.4l-11.1,3.9c-1-0.8-2.5-0.6-3.3,0.3l-3.5,4.1l-3.1-2.7
		c0,0.2,0.1,0.4,0.1,0.7V24l1.7,1.5c1,0.9,2.6,0.7,3.4-0.3l4.2-4.9l3.4-2l8.9-5.2C42.6,13,42.7,12.6,42.6,12.3z"/>
	<path id="XMLID_131_" class="st0" d="M13.8,13.3h-2.1c-1.6,0-3,0.8-3.9,2l-6.4,5.9c-1,0.9-1.1,2.4-0.2,3.4l5.2,5.8
		c0.9,1,2.4,1.1,3.4,0.2c1-0.9,1.1-2.4,0.2-3.4l-3.6-4l5.1-4.6l-3,4l2.9,3.3c1.6,1.8,1.5,4.6-0.3,6.2c-1.2,1.1-2.9,1.4-4.4,0.9
		c0,0,0,11.2,0,23.3c0,1.6,1.3,2.9,2.9,2.9c1.6,0,2.9-1.3,2.9-2.9c0-12,0-5.2,0-17.4h1.9c0,12.2,0,5.3,0,17.4c0,0.8-0.2,1.6-0.6,2.3
		c0.5,0.4,1.1,0.6,1.8,0.6c1.6,0,2.9-1.3,2.9-2.9c0-12,0-7,0-38C18.7,15.5,16.5,13.3,13.8,13.3z"/>
	<path id="XMLID_130_" class="st0" d="M10.2,11.6c0.8,0.4,1.7,0.7,2.6,0.7c0.9,0,1.8-0.3,2.6-0.7c1.8-0.9,3.1-2.8,3.1-5
		c0-3.1-2.5-5.7-5.7-5.7c-3.1,0-5.7,2.5-5.7,5.7C7.1,8.7,8.3,10.6,10.2,11.6z"/>
</g>
</svg>
