<?xml version="1.0" encoding="utf-8"?>
<!-- Generator: Adobe Illustrator 27.0.0, SVG Export Plug-In . SVG Version: 6.00 Build 0)  -->
<svg version="1.1" id="Layer_1" xmlns="http://www.w3.org/2000/svg" xmlns:xlink="http://www.w3.org/1999/xlink" x="0px" y="0px"
	 viewBox="0 0 60 60" style="enable-background:new 0 0 60 60;" xml:space="preserve">
<style type="text/css">
	.st0{fill:#FFFFFF;}
</style>
<g>
	<path class="st0" d="M18.2,41.9c3.6,1.9,7.6,2.9,11.8,2.9c4.1,0,8.2-1,11.8-2.9c2.7,1.7,5,4.1,6.8,7.3c1.1,2,0.5,4.3,0,4.8H30H11.5
		c-0.5-0.5-1.2-2.8,0-4.8C13.2,46.1,15.5,43.6,18.2,41.9 M41.6,36.2c-3.3,2.3-7.3,3.6-11.6,3.6c-4.3,0-8.3-1.4-11.6-3.6
		C12.7,38.7,9.2,43,7,46.8c-2.9,5.1-0.6,12.2,4.3,12.2c4.9,0,18.6,0,18.6,0s13.7,0,18.6,0c4.9,0,7.2-7.2,4.3-12.2
		C50.8,43,47.3,38.7,41.6,36.2L41.6,36.2z"/>
	<path class="st0" d="M30,5.9c5.6,0,10.2,4.6,10.2,10.2v3.7c0,5.6-4.6,10.2-10.2,10.2c-5.6,0-10.2-4.6-10.2-10.2v-3.7
		C19.8,10.5,24.4,5.9,30,5.9 M30,0.9c-8.4,0-15.2,6.8-15.2,15.2v3.7c0,8.4,6.8,15.2,15.2,15.2c8.4,0,15.2-6.8,15.2-15.2v-3.7
		C45.2,7.8,38.4,0.9,30,0.9L30,0.9z"/>
</g>
</svg>
