<?xml version="1.0" encoding="utf-8"?>
<!-- Generator: Adobe Illustrator 27.0.0, SVG Export Plug-In . SVG Version: 6.00 Build 0)  -->
<svg version="1.1" id="Layer_1" xmlns="http://www.w3.org/2000/svg" xmlns:xlink="http://www.w3.org/1999/xlink" x="0px" y="0px"
	 viewBox="0 0 60 60" style="enable-background:new 0 0 60 60;" xml:space="preserve">
<style type="text/css">
	.st0{fill:#FFFFFF;}
</style>
<g>
	<path class="st0" d="M46,19.1c-0.1,0-0.2,0-0.3,0c-0.1,0-0.2,0-0.3,0c-4.8-0.2-8.5-4.1-8.5-8.9c0-2.4,0.9-4.6,2.6-6.3
		c1.7-1.7,3.9-2.6,6.3-2.6c4.9,0,8.9,4,8.9,8.9c0,0,0,0,0,0C54.7,15,50.9,18.9,46,19.1C46.1,19.1,46.1,19.1,46,19.1z M45.9,19.1
		C45.9,19.1,45.9,19.1,45.9,19.1C45.9,19.1,45.9,19.1,45.9,19.1z M45.7,19.1C45.7,19.1,45.7,19.1,45.7,19.1
		C45.7,19.1,45.7,19.1,45.7,19.1z M45.8,5.3c-1.3,0-2.5,0.5-3.5,1.4c-0.9,0.9-1.4,2.1-1.4,3.5c0,2.6,2,4.7,4.5,4.9
		c0.2,0,0.4,0,0.6,0c2.6-0.2,4.6-2.3,4.6-4.9C50.7,7.5,48.5,5.3,45.8,5.3z"/>
	<path class="st0" d="M46.1,38.7c-1,0-2.1-0.1-3.1-0.3c-1.1-0.2-1.8-1.2-1.6-2.3c0.2-1.1,1.2-1.8,2.3-1.6c3.3,0.6,6.8-0.1,9.1-1.6
		c1.2-0.8,1.9-1.9,1.9-2.9c0-1-0.7-2.1-1.9-2.9c-2.3-1.6-5.8-2.2-9.1-1.6c-1.1,0.2-2.1-0.5-2.3-1.6c-0.2-1.1,0.5-2.1,1.6-2.3
		c2-0.4,4.2-0.4,6.3,0c2.2,0.4,4.2,1.1,5.8,2.2c2.4,1.6,3.7,3.8,3.7,6.2c0,2.4-1.4,4.7-3.7,6.2C52.5,37.9,49.3,38.7,46.1,38.7z"/>
	<path class="st0" d="M14.5,19.1c-0.1,0-0.2,0-0.3,0c-0.1,0-0.2,0-0.3,0c-4.8-0.2-8.5-4.1-8.6-8.9c0,0,0,0,0,0c0-4.9,4-8.9,8.9-8.9
		c2.4,0,4.6,0.9,6.3,2.6c1.7,1.7,2.6,3.9,2.6,6.3C23.1,15,19.3,18.9,14.5,19.1C14.5,19.1,14.5,19.1,14.5,19.1z M14.1,19.1
		C14.1,19.1,14.1,19.1,14.1,19.1C14.1,19.1,14.1,19.1,14.1,19.1z M14.3,19.1C14.3,19.1,14.3,19.1,14.3,19.1
		C14.3,19.1,14.3,19.1,14.3,19.1z M14.2,15.1c0.1,0,0.2,0,0.3,0c2.6-0.2,4.5-2.3,4.5-4.9c0-1.3-0.5-2.5-1.4-3.5s-2.1-1.4-3.5-1.4
		c-2.7,0-4.9,2.2-4.9,4.9c0,2.6,2,4.7,4.6,4.9C14,15.1,14.1,15.1,14.2,15.1z"/>
	<path class="st0" d="M13.9,38.7c-3.3,0-6.5-0.9-8.9-2.5c-2.4-1.6-3.7-3.8-3.7-6.2c0-2.4,1.4-4.7,3.7-6.2c1.6-1.1,3.6-1.8,5.8-2.2
		c2.1-0.4,4.2-0.4,6.3,0c1.1,0.2,1.8,1.2,1.6,2.3c-0.2,1.1-1.2,1.8-2.3,1.6c-3.3-0.6-6.8,0-9.1,1.6C6.1,28,5.4,29,5.4,30
		c0,1,0.7,2.1,1.9,2.9c2.3,1.5,5.8,2.2,9.1,1.6c1.1-0.2,2.1,0.6,2.3,1.6c0.2,1.1-0.6,2.1-1.6,2.3C16,38.7,15,38.7,13.9,38.7z"/>
	<path class="st0" d="M30,39c-0.1,0-0.2,0-0.3,0c-0.1,0-0.2,0-0.3,0c-4.8-0.2-8.5-4.1-8.5-8.9c0-2.4,0.9-4.6,2.6-6.3
		c1.7-1.7,3.9-2.6,6.3-2.6c4.9,0,8.9,4,8.9,8.9c0,0,0,0,0,0c0,2.3-0.9,4.5-2.5,6.2C34.6,38,32.4,38.9,30,39C30.1,39,30.1,39,30,39z
		 M29.9,39C29.9,39,29.9,39,29.9,39C29.9,39,29.9,39,29.9,39z M29.7,39C29.7,39,29.7,39,29.7,39C29.7,39,29.7,39,29.7,39z M29.8,35
		c0.1,0,0.2,0,0.3,0c2.5-0.1,4.5-2.3,4.6-4.9c0-2.7-2.2-4.9-4.9-4.9c-1.3,0-2.5,0.5-3.5,1.4c-0.9,0.9-1.4,2.1-1.4,3.5
		c0,2.6,2,4.7,4.5,4.9C29.6,35,29.7,35,29.8,35z"/>
	<path class="st0" d="M30,58.7c-3.3,0-6.5-0.9-8.9-2.5c-2.4-1.6-3.7-3.8-3.7-6.2c0-2.4,1.4-4.7,3.7-6.2c0,0,0,0,0,0
		c2.4-1.6,5.5-2.5,8.9-2.5c3.3,0,6.5,0.9,8.9,2.5c2.4,1.6,3.7,3.8,3.7,6.2c0,2.4-1.4,4.7-3.7,6.2C36.5,57.8,33.4,58.7,30,58.7z
		 M23.4,47.1L23.4,47.1c-1.2,0.8-1.9,1.9-1.9,2.9c0,1,0.7,2.1,1.9,2.9c3.6,2.4,9.7,2.4,13.3,0c1.2-0.8,1.9-1.9,1.9-2.9
		c0-1-0.7-2.1-1.9-2.9c-1.7-1.1-4.1-1.8-6.6-1.8C27.5,45.3,25.1,45.9,23.4,47.1z"/>
</g>
</svg>
