<?xml version="1.0" encoding="utf-8"?>
<!-- Generator: Adobe Illustrator 27.0.0, SVG Export Plug-In . SVG Version: 6.00 Build 0)  -->
<svg version="1.1" id="Layer_1" xmlns="http://www.w3.org/2000/svg" xmlns:xlink="http://www.w3.org/1999/xlink" x="0px" y="0px"
	 viewBox="0 0 60 60" style="enable-background:new 0 0 60 60;" xml:space="preserve">
<style type="text/css">
	.st0{fill:#FFFFFF;}
</style>
<path class="st0" d="M42.9,47.9l-11.1-6.2c4.1-3.3,5.3-9.6,5.3-13.2V21c0-4.9-6.6-10.4-13.2-10.4c-6.6,0-13.3,5.5-13.3,10.4v7.5
	c0,3.3,1.4,9.9,5.6,13.2L4.7,47.9c0,0-3,1.3-3,3v4.5c0,1.6,1.3,3,3,3h38.2c1.6,0,3-1.3,3-3v-4.5C45.9,49.1,42.9,47.9,42.9,47.9
	L42.9,47.9z M42.4,54.8H5.3v-3.2c0.3-0.2,0.6-0.4,0.9-0.5C6.2,51,6.3,51,6.4,51l11.4-6.2c1-0.6,1.7-1.6,1.8-2.8
	c0.1-1.2-0.4-2.3-1.3-3.1c-3-2.4-4.2-7.6-4.2-10.4V21c0-2.5,4.8-6.9,9.8-6.9c5.1,0,9.6,4.3,9.6,6.9v7.5c0,2.8-0.9,8.1-3.9,10.5
	c-0.9,0.7-1.4,1.9-1.3,3.1c0.1,1.2,0.8,2.2,1.8,2.8L41.2,51c0.1,0.1,0.2,0.1,0.3,0.2c0.3,0.1,0.6,0.3,0.8,0.5V54.8L42.4,54.8z
	 M55.3,39.1L44,32.9c4.1-3.3,5.4-9.6,5.4-13.2v-7.5c0-4.9-6.7-10.5-13.3-10.5C31.8,1.7,27.4,4,24.9,7c1.5,0.1,3.1,0.1,4.4,0.5
	c1.9-1.5,4.2-2.3,6.8-2.3c5.1,0,9.8,4.4,9.8,7v7.5c0,2.8-1,8.1-4.1,10.5c-0.9,0.7-1.4,1.9-1.3,3.1c0.1,1.2,0.8,2.2,1.8,2.8l11.3,6.2
	c0.1,0.1,0.2,0.1,0.3,0.2c0.3,0.1,0.6,0.3,0.8,0.5v3.1h-7.1c1.1,0.8,1.4,2,1.8,3.5h5.9c1.6,0,3-1.3,3-3V42
	C58.3,40.3,55.3,39.1,55.3,39.1L55.3,39.1z"/>
</svg>
