<?xml version="1.0" encoding="utf-8"?>
<!-- Generator: Adobe Illustrator 27.0.0, SVG Export Plug-In . SVG Version: 6.00 Build 0)  -->
<svg version="1.1" id="Layer_1" xmlns="http://www.w3.org/2000/svg" xmlns:xlink="http://www.w3.org/1999/xlink" x="0px" y="0px"
	 viewBox="0 0 60 60" style="enable-background:new 0 0 60 60;" xml:space="preserve">
<style type="text/css">
	.st0{fill:#B1B1B1;}
</style>
<g>
	<g>
		<path class="st0" d="M29,15.4h3.4c2.5,0,4.2,0,4.8,0.3c0.6,0.3,1,0.7,1.3,1.3c0.3,0.6,0.3,2.3,0.3,4.8v2.3c0,1.1,0.6,2,1.5,2.5
			c0.9,0.5,2,0.5,2.9,0l7.5-4.5c1-0.6,2-1.2,2.6-1.5c0.1,0.6,0.1,1.8,0.1,3v12.7c0,1.3,0,2.4-0.1,3c-0.2,1.6,1,3.1,2.6,3.2
			c0.1,0,0.2,0,0.3,0c1.5,0,2.7-1.1,2.9-2.6c0.1-1,0.1-2.1,0.1-3.7V23.6c0-3.2,0-5-1.1-6.6c-1-1.3-2.5-2.2-4.2-2.4
			c-1.9-0.2-3.4,0.7-6.2,2.4L44.6,19c-0.1-2-0.3-3.4-0.9-4.7c-0.8-1.7-2.2-3-3.8-3.8c-1.9-1-3.9-1-7.5-1H29c-1.6,0-2.9,1.3-2.9,2.9
			S27.4,15.4,29,15.4z"/>
		<path class="st0" d="M58.4,54.2L14.5,10.4c0,0,0,0,0,0L5.8,1.6c-1.1-1.1-3-1.1-4.1,0c-1.1,1.1-1.1,3,0,4.1l4.5,4.5
			c-0.2,0.1-0.4,0.2-0.6,0.3c-1.7,0.8-3,2.2-3.8,3.8c-1,1.9-1,3.9-1,7.5v16.4c0,3.6,0,5.6,1,7.5c0.8,1.7,2.2,3,3.8,3.8
			c1.9,1,3.9,1,7.5,1h19.3c3.6,0,5.6,0,7.5-1c1.2-0.6,2.2-1.5,3-2.5l11.4,11.4c0.6,0.6,1.3,0.9,2.1,0.9s1.5-0.3,2.1-0.9
			C59.5,57.2,59.5,55.4,58.4,54.2z M38.4,43c-0.3,0.6-0.7,1-1.3,1.3c-0.6,0.3-2.3,0.3-4.8,0.3H13c-2.5,0-4.2,0-4.8-0.3
			c-0.6-0.3-1-0.7-1.3-1.3c-0.3-0.6-0.3-2.3-0.3-4.8V21.8c0-2.5,0-4.2,0.3-4.8c0.3-0.6,0.7-1,1.3-1.3c0.5-0.2,1.5-0.3,3-0.3
			l27.3,27.3C38.5,42.8,38.5,42.9,38.4,43z"/>
	</g>
</g>
</svg>
