<?xml version="1.0" encoding="utf-8"?>
<!-- Generator: Adobe Illustrator 27.0.0, SVG Export Plug-In . SVG Version: 6.00 Build 0)  -->
<svg version="1.1" id="Layer_1" xmlns="http://www.w3.org/2000/svg" xmlns:xlink="http://www.w3.org/1999/xlink" x="0px" y="0px"
	 viewBox="0 0 60 60" style="enable-background:new 0 0 60 60;" xml:space="preserve">
<style type="text/css">
	.st0{fill:#5357A6;}
	.st1{fill:url(#SVGID_1_);}
</style>
<g>
	<g>
		<path class="st0" d="M16.9,3.2c1.1-2.7,5-2.7,6,0l3.3,8.5c0.3,0.8,1,1.5,1.8,1.8l8.5,3.3c2.7,1.1,2.7,5,0,6l-8.5,3.3
			c-0.8,0.3-1.5,1-1.8,1.8l-3.3,8.5c-1.1,2.7-5,2.7-6,0l-3.3-8.5c-0.3-0.8-1-1.5-1.8-1.8l-8.5-3.3c-2.7-1.1-2.7-5,0-6l8.5-3.3
			c0.8-0.3,1.5-1,1.8-1.8L16.9,3.2z"/>
		<g>
			<linearGradient id="SVGID_1_" gradientUnits="userSpaceOnUse" x1="32.882" y1="45.8502" x2="58.8185" y2="45.8502">
				<stop  offset="0" style="stop-color:#FCBC67"/>
				<stop  offset="1" style="stop-color:#FAA32B"/>
			</linearGradient>
			<path class="st1" d="M44.2,34c0.6-1.5,2.7-1.5,3.3,0l2.6,6.6c0.2,0.5,0.5,0.8,1,1l6.6,2.6c1.5,0.6,1.5,2.7,0,3.3l-6.6,2.6
				c-0.5,0.2-0.8,0.5-1,1l-2.6,6.6c-0.6,1.5-2.7,1.5-3.3,0l-2.6-6.6c-0.2-0.5-0.5-0.8-1-1L34,47.5c-1.5-0.6-1.5-2.7,0-3.3l6.6-2.6
				c0.5-0.2,0.8-0.5,1-1L44.2,34z"/>
		</g>
	</g>
</g>
</svg>
