<svg id="Layer_1" data-name="Layer 1" xmlns="http://www.w3.org/2000/svg" xmlns:xlink="http://www.w3.org/1999/xlink" viewBox="0 0 46.27 55.6"><defs><style>.cls-1{fill:none;}.cls-2{clip-path:url(#clip-path);}.cls-3{fill:#fff;}</style><clipPath id="clip-path" transform="translate(-6.91 -9)"><circle class="cls-1" cx="30" cy="30" r="30"/></clipPath></defs><title>icon 3 white</title><g class="cls-2"><path class="cls-3" d="M52,52.9A22.55,22.55,0,0,0,41.1,42.8a19,19,0,0,1-11,3.5A19.5,19.5,0,0,1,19,42.8,23.51,23.51,0,0,0,8.1,52.9c-2.7,4.8-.6,11.7,4.1,11.7H47.8C52.5,64.6,54.7,57.8,52,52.9Z" transform="translate(-6.91 -9)"/><path class="cls-3" d="M30,41.7A14.55,14.55,0,0,0,44.6,27.1V23.6a14.6,14.6,0,0,0-29.2,0v3.5A14.62,14.62,0,0,0,30,41.7Z" transform="translate(-6.91 -9)"/></g></svg>