<?xml version="1.0" encoding="utf-8"?>
<!-- Generator: Adobe Illustrator 27.0.0, SVG Export Plug-In . SVG Version: 6.00 Build 0)  -->
<svg version="1.1" id="Layer_1" xmlns="http://www.w3.org/2000/svg" xmlns:xlink="http://www.w3.org/1999/xlink" x="0px" y="0px"
	 viewBox="0 0 60 60" style="enable-background:new 0 0 60 60;" xml:space="preserve">
<style type="text/css">
	.st0{fill:#FFFFFF;}
</style>
<path class="st0" d="M38.3,30l18.1-18.1c2.3-2.3,2.3-6,0-8.3c-2.3-2.3-6-2.3-8.3,0L30,21.7L11.9,3.6c-2.3-2.3-6-2.3-8.3,0
	c-2.3,2.3-2.3,6,0,8.3L21.7,30L3.6,48.1c-2.3,2.3-2.3,6,0,8.3c1.2,1.2,2.7,1.7,4.2,1.7c1.5,0,3-0.5,4.2-1.7L30,38.3l18.1,18.1
	c1.2,1.2,2.7,1.7,4.2,1.7c1.5,0,3-0.5,4.2-1.7c2.3-2.3,2.3-6,0-8.3L38.3,30z"/>
</svg>
