<?xml version="1.0" encoding="utf-8"?>
<!-- Generator: Adobe Illustrator 27.0.0, SVG Export Plug-In . SVG Version: 6.00 Build 0)  -->
<svg version="1.1" id="Layer_1" xmlns="http://www.w3.org/2000/svg" xmlns:xlink="http://www.w3.org/1999/xlink" x="0px" y="0px"
	 viewBox="0 0 60 60" style="enable-background:new 0 0 60 60;" xml:space="preserve">
<style type="text/css">
	.st0{clip-path:url(#SVGID_00000148631620653053828420000001569900799469621151_);}
	.st1{fill:#5357A6;}
</style>
<g>
	<defs>
		<circle id="SVGID_1_" cx="30" cy="30" r="30"/>
	</defs>
	<clipPath id="SVGID_00000002368100210650599720000015617586323859183545_">
		<use xlink:href="#SVGID_1_"  style="overflow:visible;"/>
	</clipPath>
	<g style="clip-path:url(#SVGID_00000002368100210650599720000015617586323859183545_);">
		<g>
			<path class="st1" d="M52,52.9c-2.1-3.7-5.4-7.8-10.9-10.1c-3.1,2.2-6.9,3.5-11,3.5c-4.1,0-7.9-1.3-11.1-3.5
				c-5.5,2.4-8.8,6.5-10.9,10.1c-2.7,4.8-0.6,11.7,4.1,11.7c4.7,0,17.8,0,17.8,0s13.1,0,17.8,0C52.5,64.6,54.7,57.8,52,52.9z"/>
			<path class="st1" d="M30,41.7c8.1,0,14.6-6.5,14.6-14.6v-3.5C44.6,15.5,38.1,9,30,9c-8.1,0-14.6,6.5-14.6,14.6v3.5
				C15.4,35.1,21.9,41.7,30,41.7z"/>
		</g>
	</g>
</g>
</svg>
