<?xml version="1.0" encoding="utf-8"?>
<!-- Generator: Adobe Illustrator 27.0.0, SVG Export Plug-In . SVG Version: 6.00 Build 0)  -->
<svg version="1.1" id="Layer_1" xmlns="http://www.w3.org/2000/svg" xmlns:xlink="http://www.w3.org/1999/xlink" x="0px" y="0px"
	 viewBox="0 0 60 60" style="enable-background:new 0 0 60 60;" xml:space="preserve">
<style type="text/css">
	.st0{fill:#FFFFFF;}
</style>
<path class="st0" d="M57.9,17.2c-1-1.3-2.5-2.2-4.1-2.3c-1.9-0.2-3.4,0.7-6.2,2.4l-3.1,1.9c-0.1-2-0.3-3.3-0.9-4.6
	c-0.8-1.6-2.2-3-3.8-3.8c-1.9-0.9-3.8-0.9-7.4-0.9H13.2c-3.6,0-5.6,0-7.4,0.9c-1.6,0.8-3,2.2-3.8,3.8C1,16.3,1,18.3,1,21.9v16.2
	c0,3.6,0,5.6,0.9,7.4c0.8,1.6,2.2,3,3.8,3.8c1.9,0.9,3.8,0.9,7.4,0.9h19.1c3.6,0,5.6,0,7.4-0.9c1.6-0.8,3-2.2,3.8-3.8
	c0.7-1.3,0.9-2.7,0.9-4.6l3.1,1.9c2.7,1.7,4.3,2.6,6.2,2.4c1.6-0.2,3.2-1,4.1-2.3c1.1-1.5,1.1-3.3,1.1-6.5V23.7
	C59,20.5,59,18.7,57.9,17.2z M38.7,24.2c0,0,0,0.1,0,0.1v11.5c0,0,0,0.1,0,0.1v2.3c0,2.5,0,4.2-0.3,4.8c-0.3,0.5-0.7,1-1.3,1.3
	c-0.6,0.3-2.3,0.3-4.8,0.3H13.2c-2.5,0-4.2,0-4.8-0.3c-0.5-0.3-1-0.7-1.3-1.3c-0.3-0.6-0.3-2.3-0.3-4.8V21.9c0-2.5,0-4.2,0.3-4.8
	c0.3-0.5,0.7-1,1.3-1.3c0.6-0.3,2.3-0.3,4.8-0.3h19.1c2.5,0,4.2,0,4.8,0.3c0.5,0.3,1,0.7,1.3,1.3c0.3,0.6,0.3,2.3,0.3,4.8V24.2z
	 M53.2,36.3c0,1.2,0,2.3-0.1,3c-0.6-0.3-1.6-0.9-2.6-1.5l-6.1-3.6v-8.3l6.1-3.6c1-0.6,2-1.2,2.6-1.5c0.1,0.6,0.1,1.8,0.1,3V36.3z"/>
</svg>
