<svg id="Layer_1" data-name="Layer 1" xmlns="http://www.w3.org/2000/svg" width="58.11mm" height="46.73mm" viewBox="0 0 164.71 132.47">
  <defs>
    <style>
      .cls-1 {
        fill: #fff;
      }

      .cls-2 {
        fill: #fefefe;
      }
    </style>
  </defs>
  <title>check_Light</title>
  <path class="cls-1" d="M30.41,94.4l12.86,12.86,12,12c1.8,1.82,3.49,3.78,5.44,5.43A16.53,16.53,0,0,0,71.17,129c6.55.56,12.1-1.39,16.35-6.56,5.32-5.17,10.79-10.21,15.81-15.69a28.83,28.83,0,0,1,2.55-2.75,137.94,137.94,0,0,0,10.69-10.53c4.71-4.51,9.42-9,13.78-13.87,4.73-4.34,9.26-8.88,13.65-13.56a18.23,18.23,0,0,1,1.83-2c4.87-4.1,9.17-8.77,13.6-13.31a19.11,19.11,0,0,0,2.94-22.23c-3.82-7.11-11.73-11.21-19.24-10-5.63.42-9.82,3.37-13.35,7.51L115.23,40.59,102,53.88q-7.5,7.48-15,15L74.38,81.33c-.67.66-1.28,1.46-2.3.51-.57-.62-1.12-1.28-1.72-1.88L55.47,65.27c-3.86-4.22-7.95-8.22-12.1-12.14-3.93-4.31-8.92-6-14.63-5.86-8,.56-13.74,4.43-16.85,11.78S9.89,73.18,15,79C19.88,84.39,25.27,89.28,30.41,94.4Z" transform="translate(0 0)"/>
  <path class="cls-2" d="M.45,0,0,.45C-.06.08.08-.06.45,0Z" transform="translate(0 0)"/>
  <path class="cls-2" d="M0,132l.43.43C.08,132.53-.06,132.39,0,132Z" transform="translate(0 0)"/>
  <path class="cls-1" d="M71.17,129a16.53,16.53,0,0,1-10.46-4.3c-2-1.65-3.64-3.61-5.44-5.43-.13-1.34-.37-2.67-.37-4V68.17a5.47,5.47,0,0,1,.6-2.89L70.39,80c.6.6,1.15,1.26,1.72,1.88-1.19.57-.91,1.66-.91,2.63Q71.16,106.73,71.17,129Z" transform="translate(0 0)"/>
  <path class="cls-1" d="M71.17,129V84.47c0-1-.28-2.06.91-2.63,1,1,1.63.15,2.3-.51L87,68.86a22.3,22.3,0,0,1,.48,6.36q0,23.6.07,47.21C83.27,127.59,77.72,129.59,71.17,129Z" transform="translate(0 0)"/>
  <path class="cls-1" d="M87.52,122.43q0-23.61-.07-47.21A22.3,22.3,0,0,0,87,68.86l15-15a5.48,5.48,0,0,1,.5,3.11v47.44c0,.82-.51,2,.86,2.31C98.31,112.22,92.88,117.26,87.52,122.43Z" transform="translate(0 0)"/>
  <path class="cls-1" d="M115.23,40.59,129.82,26c0,3.42,0,6.84.07,10.26.27,14.44-.62,28.9.5,43.33C126,84.44,121.32,89,116.61,93.46c-1.37-.37-.85-1.5-.85-2.31V43.71A5.52,5.52,0,0,0,115.23,40.59Z" transform="translate(0 0)"/>
  <path class="cls-1" d="M143.17,18.49c7.51-1.23,15.42,2.87,19.24,10a19.11,19.11,0,0,1-2.94,22.23c-4.43,4.54-8.73,9.21-13.6,13.31A18.23,18.23,0,0,0,144,66c-1.37-.36-.85-1.49-.85-2.31Q143.14,41.11,143.17,18.49Z" transform="translate(0 0)"/>
  <path class="cls-1" d="M115.23,40.59a5.51,5.51,0,0,1,.51,3.12V91.15c0,.81-.52,1.94.85,2.31A136.44,136.44,0,0,1,105.88,104a30.62,30.62,0,0,0-2.59,2.75c-1.37-.36-.86-1.49-.86-2.31V57a5.48,5.48,0,0,0-.5-3.11Z" transform="translate(0 0)"/>
  <path class="cls-1" d="M143.17,18.49V63.72c0,.82-.52,2,.85,2.31-4.39,4.68-8.92,9.22-13.65,13.56-1.12-14.43-.23-28.89-.5-43.33-.07-3.42-.05-6.84-.07-10.26C133.35,21.86,137.54,18.91,143.17,18.49Z" transform="translate(0 0)"/>
  <path class="cls-1" d="M55.47,65.27a5.47,5.47,0,0,0-.6,2.89v47.09c0,1.34.24,2.67.37,4l-12-12c.09-1.83-1.28-3.26-1.27-5.12Q42,78.83,42,55.55a2.37,2.37,0,0,1,1.36-2.43C47.52,57.05,51.61,61.05,55.47,65.27Z" transform="translate(0 0)"/>
  <path class="cls-1" d="M43.37,53.13A2.37,2.37,0,0,0,42,55.56v46.58c0,1.86,1.36,3.29,1.27,5.12L30.42,94.4a3.2,3.2,0,0,0-.6-2.22,8.41,8.41,0,0,1-1.1-4.7c.05-13.4,0-26.81,0-40.21C34.45,47.14,39.44,48.82,43.37,53.13Z" transform="translate(0 0)"/>
  <path class="cls-1" d="M28.74,47.27V87.48a8.41,8.41,0,0,0,1.1,4.7,3.2,3.2,0,0,1,.6,2.22C25.3,89.28,19.89,84.4,15.07,79c-5.16-5.8-6.19-12.73-3.15-19.93S20.77,47.83,28.74,47.27Z" transform="translate(0 0)"/>
</svg>
