<?xml version="1.0" encoding="utf-8"?>
<!-- Generator: Adobe Illustrator 27.0.0, SVG Export Plug-In . SVG Version: 6.00 Build 0)  -->
<svg version="1.1" id="Layer_1" xmlns="http://www.w3.org/2000/svg" xmlns:xlink="http://www.w3.org/1999/xlink" x="0px" y="0px"
	 viewBox="0 0 753.5 1120.9" style="enable-background:new 0 0 753.5 1120.9;" xml:space="preserve">
<style type="text/css">
	.st0{fill:url(#SVGID_1_);}
	
		.st1{opacity:0.2;clip-path:url(#SVGID_00000026844735381333317900000001844944154749402044_);fill:none;stroke:#FFFFFF;stroke-width:20;stroke-miterlimit:10;}
</style>
<linearGradient id="SVGID_1_" gradientUnits="userSpaceOnUse" x1="0" y1="560.474" x2="753.4902" y2="560.474">
	<stop  offset="0" style="stop-color:#FBBC67"/>
	<stop  offset="1" style="stop-color:#FAA32C"/>
</linearGradient>
<rect class="st0" width="753.5" height="1120.9"/>
<g>
	<defs>
		<rect id="SVGID_00000127009046134006778550000015779553656950698165_" width="753.5" height="1120.9"/>
	</defs>
	<clipPath id="SVGID_00000034091994065503293490000009606232574911767986_">
		<use xlink:href="#SVGID_00000127009046134006778550000015779553656950698165_"  style="overflow:visible;"/>
	</clipPath>
	
		<path style="opacity:0.2;clip-path:url(#SVGID_00000034091994065503293490000009606232574911767986_);fill:none;stroke:#FFFFFF;stroke-width:20;stroke-miterlimit:10;" d="
		M897,1045.2v538.9c0,80.4-65.2,145.5-145.5,145.5H212.5c-12.9,0-23.4-10.5-23.4-23.4v-202.8c0-16.7,17-28,32.5-21.5
		c14.1,5.9,29.5,9,45.7,8.8c62.3-0.8,112.9-51.8,113.4-114.1c0.5-63.9-51.2-115.8-114.9-115.8c-15.6,0-30.5,3.1-44.1,8.8
		c-15.4,6.4-32.5-4.7-32.5-21.4v-203c0-12.9,10.5-23.4,23.4-23.4h196.4c15.2,0,26.5,14.3,22.8,29c-2.4,9.5-3.7,19.5-3.5,29.8
		c0.7,62.4,51.7,113.1,114.1,113.6c63.9,0.5,115.8-51.2,115.8-114.9c0-9.7-1.2-19.2-3.5-28.2c-3.7-14.8,7.3-29.3,22.6-29.3h196.4
		C886.5,1021.8,897,1032.3,897,1045.2z"/>
	
		<path style="opacity:0.2;clip-path:url(#SVGID_00000034091994065503293490000009606232574911767986_);fill:none;stroke:#FFFFFF;stroke-width:20;stroke-miterlimit:10;" d="
		M-291.6,422.5c0.4,59.2,48.5,107.6,107.7,108.4c15.4,0.2,30.1-2.8,43.5-8.4c14.6-6.1,30.8,4.6,30.8,20.4v192.8
		c0,12.2,9.9,22.2,22.2,22.2h512c76.4,0,138.3-61.9,138.3-138.3v-512c0-12.2-9.9-22.2-22.2-22.2H354c-14.4,0-25.2-13.6-21.6-27.5
		c2.3-9,3.5-18.5,3.4-28.3c-0.7-59.2-49.1-107.5-108.4-107.9c-60.7-0.4-110,48.6-110,109.2c0,9.3,1.2,18.3,3.3,26.8
		c3.6,14.1-6.9,27.8-21.5,27.8H-87.4c-12.2,0-22.2,9.9-22.2,22.2v192.9c0,15.9-16.2,26.4-30.9,20.3c-12.9-5.4-27.1-8.3-41.9-8.3
		C-243,312.5-292,361.8-291.6,422.5z"/>
</g>
</svg>
