<?xml version="1.0" encoding="utf-8"?>
<!-- Generator: Adobe Illustrator 27.0.0, SVG Export Plug-In . SVG Version: 6.00 Build 0)  -->
<svg version="1.1" id="Layer_1" xmlns="http://www.w3.org/2000/svg" xmlns:xlink="http://www.w3.org/1999/xlink" x="0px" y="0px"
	 viewBox="0 0 942.6 1120.9" style="enable-background:new 0 0 942.6 1120.9;" xml:space="preserve">
<style type="text/css">
	.st0{fill:#ECECEC;}
	
		.st1{opacity:0.42;clip-path:url(#SVGID_00000047022349539170864240000006077762630385171856_);fill:none;stroke:#FFFFFF;stroke-width:20;stroke-miterlimit:10;}
</style>
<g>
	<g>
		<rect class="st0" width="942.6" height="1120.9"/>
	</g>
	<g>
		<defs>
			<rect id="SVGID_1_" width="942.6" height="1120.9"/>
		</defs>
		<clipPath id="SVGID_00000054266052892747419380000005672017864465599922_">
			<use xlink:href="#SVGID_1_"  style="overflow:visible;"/>
		</clipPath>
		
			<path style="opacity:0.42;clip-path:url(#SVGID_00000054266052892747419380000005672017864465599922_);fill:none;stroke:#FFFFFF;stroke-width:20;stroke-miterlimit:10;" d="
			M1281.5-234.6v629.4c0,93.9-76.1,170-170,170H482.1c-15.1,0-27.3-12.2-27.3-27.3V300.6c0-19.5,19.9-32.7,37.9-25.2
			c16.4,6.8,34.5,10.5,53.4,10.3c72.7-1,131.9-60.5,132.4-133.2C679,77.9,618.7,17.2,544.2,17.2c-18.3,0-35.7,3.6-51.5,10.3
			c-18,7.5-37.9-5.5-37.9-25v-237.1c0-15.1,12.2-27.3,27.3-27.3h229.3c17.7,0,31,16.7,26.6,33.9c-2.8,11.1-4.3,22.8-4.1,34.8
			c0.8,72.8,60.4,132.1,133.2,132.7c74.6,0.5,135.2-59.8,135.2-134.2c0-11.4-1.4-22.4-4.1-32.9c-4.4-17.3,8.6-34.2,26.4-34.2h229.4
			C1269.2-261.9,1281.5-249.6,1281.5-234.6z"/>
		
			<path style="opacity:0.42;clip-path:url(#SVGID_00000054266052892747419380000005672017864465599922_);fill:none;stroke:#FFFFFF;stroke-width:20;stroke-miterlimit:10;" d="
			M491.6,906.8c-0.4,59.2-48.5,107.6-107.7,108.4c-15.4,0.2-30.1-2.8-43.5-8.4c-14.6-6.1-30.8,4.6-30.8,20.4V1220
			c0,12.2-9.9,22.2-22.2,22.2h-512c-76.4,0-138.3-61.9-138.3-138.3v-512c0-12.2,9.9-22.2,22.2-22.2H-154c14.4,0,25.2-13.6,21.6-27.5
			c-2.3-9-3.5-18.5-3.4-28.3c0.7-59.2,49.1-107.5,108.4-107.9c60.7-0.4,110,48.6,110,109.2c0,9.3-1.2,18.3-3.3,26.8
			c-3.6,14.1,6.9,27.8,21.5,27.8h186.7c12.2,0,22.2,9.9,22.2,22.2v192.9c0,15.9,16.2,26.4,30.9,20.3c12.9-5.4,27.1-8.3,41.9-8.3
			C443,796.8,492,846.1,491.6,906.8z"/>
	</g>
</g>
</svg>
