<?xml version="1.0" encoding="utf-8"?>
<!-- Generator: Adobe Illustrator 27.0.0, SVG Export Plug-In . SVG Version: 6.00 Build 0)  -->
<svg version="1.1" id="Layer_1" xmlns="http://www.w3.org/2000/svg" xmlns:xlink="http://www.w3.org/1999/xlink" x="0px" y="0px"
	 viewBox="0 0 60 60" style="enable-background:new 0 0 60 60;" xml:space="preserve">
<style type="text/css">
	.st0{fill:#FFFFFF;}
</style>
<g>
	<g>
		<g>
			<path class="st0" d="M52.1,7.1H7.9L0,22.9l30,30l30-30L52.1,7.1z M50.3,9.9L56,21.2H40.6L38.7,9.9L50.3,9.9L50.3,9.9z M24.1,9.9
				h11.7l1.9,11.3H22.2L24.1,9.9z M9.7,9.9h11.6l-1.9,11.3H4L9.7,9.9z M5.1,24.1h14.4l7.2,21.6L5.1,24.1z M22.5,24.1h14.9L30,46.4
				L22.5,24.1z M33.2,45.7l7.2-21.6h14.4L33.2,45.7z"/>
		</g>
	</g>
</g>
</svg>
