<?xml version="1.0" encoding="utf-8"?>
<!-- Generator: Adobe Illustrator 27.0.0, SVG Export Plug-In . SVG Version: 6.00 Build 0)  -->
<svg version="1.1" id="Layer_1" xmlns="http://www.w3.org/2000/svg" xmlns:xlink="http://www.w3.org/1999/xlink" x="0px" y="0px"
	 viewBox="0 0 60 60" style="enable-background:new 0 0 60 60;" xml:space="preserve">
<style type="text/css">
	.st0{fill:url(#SVGID_1_);}
	.st1{fill:#FFFFFF;}
</style>
<g>
	<g>
		<linearGradient id="SVGID_1_" gradientUnits="userSpaceOnUse" x1="21.1776" y1="30" x2="41.537" y2="30">
			<stop  offset="0" style="stop-color:#FBBC67"/>
			<stop  offset="1" style="stop-color:#FAA32C"/>
		</linearGradient>
		<path class="st0" d="M26.2,42.9c-0.9,0-1.7-0.3-2.4-0.8c-1.4-1-1.8-2.6-2-3.6c-0.2-1.3-0.3-2.8-0.5-5c-0.1-1.3-0.1-2.5-0.1-3.4
			c0-1,0-2.1,0.1-3.4c0.1-2.2,0.2-3.7,0.5-5c0.2-1.1,0.6-2.6,2-3.6c1.2-0.9,2.6-1,4.1-0.5c1.1,0.4,2.2,1.1,3.8,2
			c0.9,0.5,1.6,1,2.2,1.5c0.7,0.5,1.5,1.1,2.5,1.9l0,0c0,0,0,0,0,0l-1.3,1.6l1.3-1.6c3.1,2.5,5.1,4.2,5.1,7.2c0,3-2,4.7-5.1,7.2
			c-0.9,0.7-1.7,1.4-2.5,1.9c-0.6,0.4-1.4,0.9-2.2,1.5c-1.6,1-2.7,1.7-3.8,2C27.3,42.8,26.7,42.9,26.2,42.9z M26.2,38.8
			C26.2,38.8,26.2,38.8,26.2,38.8C26.2,38.8,26.2,38.8,26.2,38.8z M26.2,21.2c-0.5,0.4-0.7,2.8-0.8,5.6c-0.1,1.2-0.1,2.3-0.1,3.2
			c0,0.9,0,2,0.1,3.2c0.2,2.8,0.3,5.2,0.8,5.6c0.5,0,2.1-1,3.4-1.8c0.8-0.5,1.5-0.9,2-1.3c0.6-0.5,1.4-1,2.2-1.7
			c2.7-2.2,3.6-3,3.6-4c0-1-0.9-1.8-3.6-4l0,0c-0.8-0.7-1.6-1.3-2.2-1.7c-0.6-0.4-1.2-0.8-2-1.3C28.3,22.2,26.7,21.2,26.2,21.2z"/>
		<path class="st1" d="M30,59.2c-3.9,0-7.8-0.8-11.4-2.3c-3.5-1.5-6.6-3.6-9.3-6.3c-2.7-2.7-4.8-5.8-6.3-9.3
			C1.6,37.8,0.8,33.9,0.8,30c0-5.1,1.4-10.2,3.9-14.6c0.6-1,1.8-1.3,2.8-0.7c1,0.6,1.3,1.8,0.7,2.8C6.1,21.2,4.9,25.6,4.9,30
			c0,6.7,2.6,13,7.4,17.8c4.7,4.7,11,7.4,17.8,7.4c6.7,0,13-2.6,17.8-7.4c4.7-4.7,7.4-11,7.4-17.8c0-6.7-2.6-13-7.4-17.8
			C43,7.5,36.7,4.9,30,4.9c-4.4,0-8.8,1.2-12.6,3.4c-1,0.6-2.2,0.2-2.8-0.7c-0.6-1-0.2-2.2,0.7-2.8c4.4-2.6,9.5-3.9,14.6-3.9
			c3.9,0,7.8,0.8,11.4,2.3c3.5,1.5,6.6,3.6,9.3,6.3c2.7,2.7,4.8,5.8,6.3,9.3c1.5,3.6,2.3,7.4,2.3,11.4c0,3.9-0.8,7.8-2.3,11.4
			c-1.5,3.5-3.6,6.6-6.3,9.3c-2.7,2.7-5.8,4.8-9.3,6.3C37.8,58.4,33.9,59.2,30,59.2z"/>
	</g>
</g>
</svg>
