<?xml version="1.0" encoding="utf-8"?>
<!-- Generator: Adobe Illustrator 27.0.0, SVG Export Plug-In . SVG Version: 6.00 Build 0)  -->
<svg version="1.1" id="Layer_1" xmlns="http://www.w3.org/2000/svg" xmlns:xlink="http://www.w3.org/1999/xlink" x="0px" y="0px"
	 viewBox="0 0 60 60" style="enable-background:new 0 0 60 60;" xml:space="preserve">
<style type="text/css">
	.st0{fill:#FFFFFF;}
</style>
<path class="st0" d="M57.2,55.2h-0.7V36.8c0-3.4-2.7-6.1-6.1-6.1h-8.2c-0.7,0-1.4,0.1-2,0.4V10.9c0-4.1,0-6.6-1.8-8.4
	c-1.8-1.8-4.3-1.8-8.4-1.8c-4.1,0-6.6,0-8.4,1.8c-1.8,1.8-1.8,4.3-1.8,8.4v6.5c-0.6-0.2-1.3-0.4-2-0.4H9.6c-3.4,0-6.1,2.7-6.1,6.1
	v32H2.8c-1.1,0-2,0.9-2,2s0.9,2,2,2h54.5c1.1,0,2-0.9,2-2S58.4,55.2,57.2,55.2z M42.3,34.8h8.2c1.1,0,2,0.9,2,2v18.4H40.2V36.8
	C40.2,35.7,41.1,34.8,42.3,34.8z M23.9,10.9c0-3,0-4.9,0.6-5.5C25.1,4.8,27,4.8,30,4.8s4.9,0,5.5,0.6c0.6,0.6,0.6,2.6,0.6,5.5v25.9
	v18.4H23.9v-32V10.9z M7.5,23.2c0-1.1,0.9-2,2-2h8.2c1.1,0,2,0.9,2,2v32H7.5V23.2z"/>
</svg>
