<?xml version="1.0" encoding="utf-8"?>
<!-- Generator: Adobe Illustrator 27.0.0, SVG Export Plug-In . SVG Version: 6.00 Build 0)  -->
<svg version="1.1" id="Layer_1" xmlns="http://www.w3.org/2000/svg" xmlns:xlink="http://www.w3.org/1999/xlink" x="0px" y="0px"
	 viewBox="0 0 60 60" style="enable-background:new 0 0 60 60;" xml:space="preserve">
<style type="text/css">
	.st0{fill:#FFFFFF;}
</style>
<path class="st0" d="M44.1,15.3c-4.7-2.2-9.4-4.4-14.1-6.6L0.6,22.6l5,2.4l-0.4,0.1v26h2.5V27.1l1.8-0.3l0.7,0.3v13.1
	c0,2.3,12.9,8.8,15.5,10c2.7,1.3,5.9,1.3,8.6-0.1c15.6-8,15.6-9.4,15.6-10V27.2l9.6-4.6C59.4,22.6,50,18.1,44.1,15.3z M47.4,39.9
	c-4.6,3-9.3,5.8-14.2,8.2c-2,1-4.4,1-6.4,0c-4.9-2.3-9.6-5.1-14.1-8.2V28.4L30,36.7l17.4-8.4V39.9z M30,34l-16.3-7.9l16-2.8
	l-0.4-2.4L9.8,24.3l-3.5-1.7L30,11.4c2,1,21.1,10,23.7,11.1L30,34z"/>
</svg>
