<svg id="Layer_1" data-name="Layer 1" xmlns="http://www.w3.org/2000/svg" xmlns:xlink="http://www.w3.org/1999/xlink" viewBox="0 0 58.4 58.3"><defs><style>.cls-1{fill:url(#linear-gradient);}.cls-2{fill:#eee;}</style><linearGradient id="linear-gradient" x1="21.18" y1="31.9" x2="41.54" y2="31.9" gradientTransform="matrix(1, 0, 0, -1, 0, 62)" gradientUnits="userSpaceOnUse"><stop offset="0" stop-color="#fbbc67"/><stop offset="1" stop-color="#faa32c"/></linearGradient></defs><title>icon 5</title><path class="cls-1" d="M26.2,42.9a4.07,4.07,0,0,1-2.4-.8,5.53,5.53,0,0,1-2-3.6c-.2-1.3-.3-2.8-.5-5-.1-1.3-.1-2.5-.1-3.4s0-2.1.1-3.4a28.73,28.73,0,0,1,.5-5,5.32,5.32,0,0,1,2-3.6,4.25,4.25,0,0,1,4.1-.5,29,29,0,0,1,3.8,2,14,14,0,0,1,2.2,1.5c.7.5,1.5,1.1,2.5,1.9h0l-1.3,1.6L36.4,23c3.1,2.5,5.1,4.2,5.1,7.2s-2,4.7-5.1,7.2c-.9.7-1.7,1.4-2.5,1.9-.6.4-1.4.9-2.2,1.5a15.69,15.69,0,0,1-3.8,2C27.3,42.8,26.7,42.9,26.2,42.9Zm0-4.1Zm0-17.6c-.5.4-.7,2.8-.8,5.6-.1,1.2-.1,2.3-.1,3.2s0,2,.1,3.2c.2,2.8.3,5.2.8,5.6A14.24,14.24,0,0,0,29.6,37a23.61,23.61,0,0,0,2-1.3c.6-.5,1.4-1,2.2-1.7,2.7-2.2,3.6-3,3.6-4s-.9-1.8-3.6-4h0a22.22,22.22,0,0,0-2.2-1.7c-.6-.4-1.2-.8-2-1.3A14.24,14.24,0,0,0,26.2,21.2Z" transform="translate(-0.8 -0.9)"/><path class="cls-2" d="M30,59.2a29.76,29.76,0,0,1-11.4-2.3A29.74,29.74,0,0,1,3,41.3,30.72,30.72,0,0,1,.8,30,29.81,29.81,0,0,1,4.7,15.4a2,2,0,0,1,2.8-.7,2,2,0,0,1,.7,2.8A25.63,25.63,0,0,0,4.9,30a25.17,25.17,0,0,0,43,17.8,25.11,25.11,0,0,0,0-35.6A25.7,25.7,0,0,0,30,4.9,25.32,25.32,0,0,0,17.4,8.3a2.08,2.08,0,0,1-2.8-.7,2.08,2.08,0,0,1,.7-2.8A28.78,28.78,0,0,1,29.9.9,29.76,29.76,0,0,1,41.3,3.2a29.27,29.27,0,0,1,17.9,27,29.76,29.76,0,0,1-2.3,11.4A29.74,29.74,0,0,1,41.3,57.2,35.31,35.31,0,0,1,30,59.2Z" transform="translate(-0.8 -0.9)"/></svg>