<?xml version="1.0" encoding="utf-8"?>
<!-- Generator: Adobe Illustrator 27.7.0, SVG Export Plug-In . SVG Version: 6.00 Build 0)  -->
<svg version="1.1" id="Layer_1" xmlns="http://www.w3.org/2000/svg" xmlns:xlink="http://www.w3.org/1999/xlink" x="0px" y="0px"
	 viewBox="0 0 551.6 485.5" style="enable-background:new 0 0 551.6 485.5;" xml:space="preserve">
<style type="text/css">
	.st0{fill:url(#SVGID_1_);}
</style>
<radialGradient id="SVGID_1_" cx="275.8152" cy="242.7649" r="259.8161" gradientUnits="userSpaceOnUse">
	<stop  offset="0" style="stop-color:#8D57A3"/>
	<stop  offset="1" style="stop-color:#5357A6"/>
</radialGradient>
<path class="st0" d="M508.6,184.4c-2.5-0.9-5.2-1.2-7.8-2c-5.4-1.6-8.6-5.7-8.6-12.6V59.9h-0.4v-3.8c0-31-25.1-56.1-56.1-56.1H435
	H116.7H116C85,0,59.8,25.1,59.8,56.1v3.8h-0.4v109.8c0,6.9-3.2,11.1-8.6,12.6c-2.6,0.8-5.2,1.1-7.8,2C18.1,192.5,0,216,0,243.8
	c0,27.7,18.1,51.2,43.1,59.3c2.6,0.9,5.3,1.3,7.9,2c5.4,1.6,8.5,5.8,8.5,12.6v106.9h0.4v4.8c0,31,25.1,56.1,56.1,56.1h0.7H435h0.7
	c31,0,56.1-25.1,56.1-56.1v-4.8h0.4V317.7c0-6.8,3.1-11,8.5-12.6c2.6-0.8,5.3-1.2,7.9-2c25-8.1,43.1-31.6,43.1-59.3
	C551.6,216,533.6,192.5,508.6,184.4z"/>
</svg>
