<svg id="Layer_1" data-name="Layer 1" xmlns="http://www.w3.org/2000/svg" xmlns:xlink="http://www.w3.org/1999/xlink" viewBox="0 0 432.7 485.5"><defs><style>.cls-1{fill:url(#linear-gradient);}</style><linearGradient id="linear-gradient" y1="242.75" x2="432.7" y2="242.75" gradientUnits="userSpaceOnUse"><stop offset="0" stop-color="#fbbc67"/><stop offset="1" stop-color="#faa32c"/></linearGradient></defs><title>Coach SVG Yellow right</title><path class="cls-1" d="M432.7,424.6h-.4v4.8a55.73,55.73,0,0,1-9.6,31.4,49.87,49.87,0,0,1-6.9,8.3,55.84,55.84,0,0,1-39.7,16.4H56.5a56.26,56.26,0,0,1-39.7-16.4,62,62,0,0,1-6.9-8.3A55.73,55.73,0,0,1,.3,429.4L0,424.6.2,328a16.93,16.93,0,0,1,11.3-16,72.43,72.43,0,0,0,48-68.2,72.53,72.53,0,0,0-48-68.2A17.06,17.06,0,0,1,.2,159.5L.4,60V56.2A55.73,55.73,0,0,1,10,24.8a49.87,49.87,0,0,1,6.9-8.3A55.52,55.52,0,0,1,56.5,0H376.2a56.26,56.26,0,0,1,39.7,16.4,62,62,0,0,1,6.9,8.3,56.51,56.51,0,0,1,9.6,31.4v3.8h0l.2,99.5c0,7.2,0,7.2.1,16.27V296.5c0,7.17-.1,24.2-.1,31.4Z" transform="translate(0 0)"/></svg>