<?xml version="1.0" encoding="utf-8"?>
<!-- Generator: Adobe Illustrator 27.7.0, SVG Export Plug-In . SVG Version: 6.00 Build 0)  -->
<svg version="1.1" id="Layer_1" xmlns="http://www.w3.org/2000/svg" xmlns:xlink="http://www.w3.org/1999/xlink" x="0px" y="0px"
	 viewBox="0 0 432.7 485.5" style="enable-background:new 0 0 432.7 485.5;" xml:space="preserve">
<style type="text/css">
	.st0{fill:#FFFFFF;}
</style>
<g>
	<path class="st0" d="M432.7,424.6h-0.4v4.8c0,11.6-3.5,22.4-9.6,31.4c-2,3-4.3,5.8-6.9,8.3c-10.2,10.2-24.2,16.4-39.7,16.4H56.5
		c-15.5,0-29.5-6.3-39.7-16.4c-2.5-2.5-4.8-5.3-6.9-8.3c-6.1-9-9.6-19.8-9.6-31.4L0,424.6l0.2-96.6c0-7.2,4.5-13.6,11.3-16
		c28-10,48-36.8,48-68.2c0-31.4-20-58.1-48-68.2c-6.8-2.4-11.3-8.9-11.3-16.1l0.2-99.5v-3.8c0-11.6,3.5-22.4,9.6-31.4
		c2-3,4.3-5.8,6.9-8.3C27,6.3,41,0,56.5,0h319.7c15.5,0,29.5,6.3,39.7,16.4c2.5,2.5,4.8,5.3,6.9,8.3c6,9,9.6,19.8,9.6,31.4v3.8h0
		l0.2,99.5c0,7.2-4.5,13.7-11.3,16.1c-28,10-48,36.8-48,68.2c0,31.4,20,58.2,48,68.2c6.8,2.4,11.3,8.8,11.3,16L432.7,424.6z"/>
</g>
</svg>
