<?xml version="1.0" encoding="utf-8"?>
<!-- Generator: Adobe Illustrator 27.0.0, SVG Export Plug-In . SVG Version: 6.00 Build 0)  -->
<svg version="1.1" id="Layer_1" xmlns="http://www.w3.org/2000/svg" xmlns:xlink="http://www.w3.org/1999/xlink" x="0px" y="0px"
	 viewBox="0 0 60 60" style="enable-background:new 0 0 60 60;" xml:space="preserve">
<style type="text/css">
	.st0{fill:#FFFFFF;}
</style>
<g>
	<path class="st0" d="M30,27.1c8.1,0,9.5-12.2,9.5-12.2c1-6.4-2-13.5-9.6-13.5c-7.6,0-10.6,7.2-9.6,13.5
		C20.3,14.8,21.9,27.1,30,27.1z"/>
	<path class="st0" d="M39.7,29.7L30,36.2l-9.8-6.3c-9,0-15.9,7.9-15.9,15.9v0c0,5.4,3.8,10,9,11C18,57.8,24,58.7,30,58.7
		c6,0,12-0.9,16.7-1.8c5.3-1,9-5.7,9-11.1v0C55.7,38,48.2,29.7,39.7,29.7z"/>
</g>
</svg>
