<?xml version="1.0" encoding="utf-8"?>
<!-- Generator: Adobe Illustrator 27.0.0, SVG Export Plug-In . SVG Version: 6.00 Build 0)  -->
<svg version="1.1" id="Layer_1" xmlns="http://www.w3.org/2000/svg" xmlns:xlink="http://www.w3.org/1999/xlink" x="0px" y="0px"
	 viewBox="0 0 1696.1 1010.2" style="enable-background:new 0 0 1696.1 1010.2;" xml:space="preserve">
<style type="text/css">
	.st0{clip-path:url(#SVGID_00000041995552663625850850000005110463534023161737_);}
	.st1{fill:#ECECEC;}
	
		.st2{clip-path:url(#SVGID_00000041995552663625850850000005110463534023161737_);fill:none;stroke:#FFFFFF;stroke-width:20;stroke-miterlimit:10;}
</style>
<g>
	<defs>
		<rect id="SVGID_1_" width="1696.1" height="1010.2"/>
	</defs>
	<clipPath id="SVGID_00000032648100756323808760000017555012023092448171_">
		<use xlink:href="#SVGID_1_"  style="overflow:visible;"/>
	</clipPath>
	<g style="clip-path:url(#SVGID_00000032648100756323808760000017555012023092448171_);">
		<rect class="st1" width="1696.1" height="1010.2"/>
	</g>
	
		<path style="clip-path:url(#SVGID_00000032648100756323808760000017555012023092448171_);fill:none;stroke:#FFFFFF;stroke-width:20;stroke-miterlimit:10;" d="
		M2077.4-18.3v629.4c0,93.9-76.1,170-170,170H1278c-15.1,0-27.3-12.2-27.3-27.3V516.8c0-19.5,19.9-32.7,37.9-25.2
		c16.4,6.8,34.5,10.5,53.4,10.3c72.7-1,131.9-60.5,132.4-133.2c0.5-74.6-59.8-135.2-134.2-135.2c-18.3,0-35.7,3.6-51.5,10.3
		c-18,7.5-37.9-5.5-37.9-25V-18.3c0-15.1,12.2-27.3,27.3-27.3h229.3c17.7,0,31,16.7,26.6,33.9c-2.8,11.1-4.3,22.8-4.1,34.8
		c0.8,72.8,60.4,132.1,133.2,132.7c74.6,0.5,135.2-59.8,135.2-134.2c0-11.4-1.4-22.4-4.1-32.9c-4.4-17.3,8.6-34.2,26.4-34.2h229.4
		C2065.2-45.7,2077.4-33.4,2077.4-18.3z"/>
	
		<path style="clip-path:url(#SVGID_00000032648100756323808760000017555012023092448171_);fill:none;stroke:#FFFFFF;stroke-width:20;stroke-miterlimit:10;" d="
		M758.5,770.6C758,829.8,709.9,878.2,650.8,879c-15.4,0.2-30.1-2.8-43.5-8.4c-14.6-6.1-30.8,4.6-30.8,20.4v192.8
		c0,12.2-9.9,22.2-22.2,22.2h-512c-76.4,0-138.3-61.9-138.3-138.3v-512c0-12.2,9.9-22.2,22.2-22.2h186.6c14.4,0,25.2-13.6,21.6-27.5
		c-2.3-9-3.5-18.5-3.4-28.3c0.7-59.2,49.1-107.5,108.4-107.9c60.7-0.4,110,48.6,110,109.2c0,9.3-1.2,18.3-3.3,26.8
		c-3.6,14.1,6.9,27.8,21.5,27.8h186.7c12.2,0,22.2,9.9,22.2,22.2v192.9c0,15.9,16.2,26.4,30.9,20.3c12.9-5.4,27.1-8.3,41.9-8.3
		C709.9,660.6,758.9,709.9,758.5,770.6z"/>
</g>
</svg>
