<?xml version="1.0" encoding="utf-8"?>
<!-- Generator: Adobe Illustrator 27.0.0, SVG Export Plug-In . SVG Version: 6.00 Build 0)  -->
<svg version="1.1" id="Layer_1" xmlns="http://www.w3.org/2000/svg" xmlns:xlink="http://www.w3.org/1999/xlink" x="0px" y="0px"
	 viewBox="0 0 346.3 347.4" style="enable-background:new 0 0 346.3 347.4;" xml:space="preserve">
<style type="text/css">
	.st0{fill:url(#SVGID_1_);}
</style>
<radialGradient id="SVGID_1_" cx="37.487" cy="359.7918" r="502.3863" gradientUnits="userSpaceOnUse">
	<stop  offset="0" style="stop-color:#FCBC67"/>
	<stop  offset="1" style="stop-color:#F9A22B"/>
</radialGradient>
<path class="st0" d="M309.5,0H41.9c0,0,0,88.1,0,100c0,4.9-2.2,7.8-6.1,8.9c-1.8,0.5-3.7,0.8-5.5,1.4C12.7,116,0,132.6,0,152.2
	c0,19.5,12.7,36.1,30.4,41.8c1.8,0.6,3.7,0.9,5.6,1.4c3.8,1.1,6,4.1,6,8.9c0,11.9,0,143.1,0,143.1h98.5c0.3-1.3,0.6-2.5,1-3.7
	c7.4-22.9,28.6-38.3,52.7-38.3c24.1,0,45.3,15.4,52.7,38.1c0.4,1.3,0.8,2.5,1.1,3.8h98.5V36.8C346.3,16.5,329.8,0,309.5,0z"/>
</svg>
