<?xml version="1.0" encoding="utf-8"?>
<!-- Generator: Adobe Illustrator 27.0.0, SVG Export Plug-In . SVG Version: 6.00 Build 0)  -->
<svg version="1.1" id="Layer_1" xmlns="http://www.w3.org/2000/svg" xmlns:xlink="http://www.w3.org/1999/xlink" x="0px" y="0px"
	 viewBox="0 0 304.4 386.3" style="enable-background:new 0 0 304.4 386.3;" xml:space="preserve">
<style type="text/css">
	.st0{fill:url(#SVGID_1_);}
</style>
<radialGradient id="SVGID_1_" cx="-1.6712" cy="42.8067" r="526.5981" gradientUnits="userSpaceOnUse">
	<stop  offset="0" style="stop-color:#8D56A3"/>
	<stop  offset="1" style="stop-color:#5356A5"/>
</radialGradient>
<path class="st0" d="M304.4,41.9h-100c-4.9,0-7.8-2.2-8.9-6.1c-0.5-1.8-0.8-3.7-1.4-5.5C188.3,12.7,171.7,0,152.2,0
	c-19.5,0-36.1,12.7-41.8,30.4c-0.6,1.8-0.9,3.7-1.4,5.6c-1.1,3.8-4.1,6-8.9,6H0v98.5c1.3,0.3,2.5,0.6,3.7,1
	c22.9,7.4,38.3,28.6,38.3,52.7c0,24.1-15.4,45.3-38.2,52.7c-1.3,0.4-2.5,0.7-3.8,1v138.5h267.6c20.3,0,36.8-16.5,36.8-36.8V41.9z"/>
</svg>
