<?xml version="1.0" encoding="utf-8"?>
<!-- Generator: Adobe Illustrator 27.0.0, SVG Export Plug-In . SVG Version: 6.00 Build 0)  -->
<svg version="1.1" id="Layer_1" xmlns="http://www.w3.org/2000/svg" xmlns:xlink="http://www.w3.org/1999/xlink" x="0px" y="0px"
	 viewBox="0 0 304.4 389.3" style="enable-background:new 0 0 304.4 389.3;" xml:space="preserve">
<style type="text/css">
	.st0{fill:url(#SVGID_1_);}
</style>
<radialGradient id="SVGID_1_" cx="310.5181" cy="350.1612" r="562.2581" gradientUnits="userSpaceOnUse">
	<stop  offset="0" style="stop-color:#FCBC67"/>
	<stop  offset="1" style="stop-color:#F9A22B"/>
</radialGradient>
<path class="st0" d="M262.5,152.2c0-24.1,15.4-45.3,38.1-52.7c1.3-0.4,2.5-0.8,3.8-1.1V0H36.8C16.5,0,0,16.5,0,36.8v310.6h100.1
	c4.8,0,7.8,2.2,8.9,6c0.5,1.9,0.8,3.8,1.4,5.6c5.7,17.6,22.3,30.4,41.8,30.4c19.6,0,36.1-12.7,41.9-30.4c0.6-1.8,0.9-3.7,1.4-5.5
	c1.1-3.8,4-6.1,8.9-6.1h100V205.9c-1.3-0.3-2.5-0.6-3.7-1C277.8,197.5,262.5,176.3,262.5,152.2z"/>
</svg>
