<?xml version="1.0" encoding="utf-8"?>
<!-- Generator: Adobe Illustrator 27.0.0, SVG Export Plug-In . SVG Version: 6.00 Build 0)  -->
<svg version="1.1" id="Layer_1" xmlns="http://www.w3.org/2000/svg" xmlns:xlink="http://www.w3.org/1999/xlink" x="0px" y="0px"
	 viewBox="0 0 346.3 344.4" style="enable-background:new 0 0 346.3 344.4;" xml:space="preserve">
<style type="text/css">
	.st0{fill:url(#SVGID_1_);}
</style>
<radialGradient id="SVGID_1_" cx="308.2531" cy="-7.2776" r="496.5326" gradientUnits="userSpaceOnUse">
	<stop  offset="0" style="stop-color:#8D56A3"/>
	<stop  offset="1" style="stop-color:#5356A5"/>
</radialGradient>
<path class="st0" d="M346.3,152.2c0-19.6-12.7-36.1-30.4-41.9c-1.8-0.6-3.7-0.9-5.5-1.4c-3.8-1.1-6.1-4-6.1-8.9c0-11.9,0-100,0-100
	h-98.5c-0.3,1.3-0.6,2.5-1,3.7c-7.4,22.9-28.6,38.3-52.7,38.3c-24.1,0-45.3-15.4-52.7-38.2c-0.4-1.3-0.7-2.5-1-3.8H0v307.6
	c0,20.3,16.5,36.8,36.8,36.8h267.6c0,0,0-128.1,0-140.1c0-4.8,2.2-7.8,6-8.9c1.9-0.5,3.8-0.8,5.6-1.4
	C333.6,188.3,346.3,171.7,346.3,152.2z"/>
</svg>
