<?xml version="1.0" encoding="utf-8"?>
<!-- Generator: Adobe Illustrator 27.0.0, SVG Export Plug-In . SVG Version: 6.00 Build 0)  -->
<svg version="1.1" id="Layer_1" xmlns="http://www.w3.org/2000/svg" xmlns:xlink="http://www.w3.org/1999/xlink" x="0px" y="0px"
	 viewBox="0 0 60 60" style="enable-background:new 0 0 60 60;" xml:space="preserve">
<style type="text/css">
	.st0{fill:#FFFFFF;}
</style>
<g id="language">
	<g>
		<g>
			<path class="st0" d="M30,59.5C13.8,59.5,0.5,46.2,0.5,30S13.8,0.5,30,0.5S59.5,13.8,59.5,30S46.2,59.5,30,59.5z M23.8,42.3
				c1.5,7.6,4.2,12.3,6.2,12.3s4.7-4.7,6.2-12.3H23.8z M41.3,42.3c-0.7,4.2-2,8.1-3.4,11.1c5.7-2,10.6-5.9,13.5-11.1H41.3z
				 M8.6,42.3c3,5.2,7.9,9.1,13.5,11.1c-1.5-3-2.7-6.9-3.4-11.1H8.6z M42.1,37.4h11.6c0.5-2.2,1-4.9,1-7.4s-0.5-5.2-1.2-7.4H41.8
				c0.5,2.5,0.5,4.9,0.5,7.4S42.3,34.9,42.1,37.4z M23.1,37.4h14c0.2-2.2,0.5-4.7,0.5-7.4s-0.2-5.2-0.5-7.4h-14
				c-0.2,2.2-0.5,4.7-0.5,7.4S22.9,35.2,23.1,37.4z M6.6,37.4h11.6c-0.2-2.5-0.2-4.9-0.2-7.4s0-4.9,0.2-7.4H6.6
				c-0.7,2.2-1.2,4.9-1.2,7.4S5.9,35.2,6.6,37.4z M41.3,17.7h10.1c-3-5.2-7.9-9.1-13.5-11.1C39.4,9.6,40.6,13.5,41.3,17.7z
				 M23.8,17.7h12.6c-1.5-7.6-4.2-12.3-6.2-12.3S25.3,10.1,23.8,17.7z M8.6,17.7h10.1c0.7-4.2,2-8.1,3.4-11.1
				C16.5,8.6,11.8,12.5,8.6,17.7z"/>
		</g>
	</g>
</g>
</svg>
