<?xml version="1.0" encoding="utf-8"?>
<!-- Generator: Adobe Illustrator 27.0.0, SVG Export Plug-In . SVG Version: 6.00 Build 0)  -->
<svg version="1.1" id="Layer_1" xmlns="http://www.w3.org/2000/svg" xmlns:xlink="http://www.w3.org/1999/xlink" x="0px" y="0px"
	 viewBox="0 0 60 60" style="enable-background:new 0 0 60 60;" xml:space="preserve">
<style type="text/css">
	.st0{fill:#FFFFFF;}
	.st1{fill:url(#SVGID_1_);}
	.st2{fill:url(#SVGID_00000011006601816016623690000001675218339096308120_);}
</style>
<g>
	<g>
		<path class="st0" d="M2.8,12.6l3.5,25.3c0.1,0.5,0.8,0.7,1.1,0.3l7-8.5c1.1-1.3,1.6-3.1,1.3-4.8l-1.9-13.8c-0.4-3-3.2-5.2-6.3-4.7
			l0,0C4.5,6.8,2.4,9.6,2.8,12.6z"/>
		<path class="st0" d="M56,52c-0.1-0.1-0.2-0.2-0.4-0.3L37.4,36.8c1.4-0.8,2.1-2.5,1.4-4.1c-0.6-1.3-2-2.1-3.4-1.9
			c-1.3,0.2-2.2,1.1-2.6,2.2l-4.6-3.8c-0.5-0.4-0.5-1-0.2-1.5l3.9-5c-1.1-0.4-1.9-1.3-2.1-2.6c-0.2-1.4,0.6-2.9,1.9-3.5
			c1.5-0.7,3.2-0.1,4,1.2l8.5-10.8c2.2-2.7,0-6.8-3.5-6.3c-1,0.1-1.9,0.6-2.5,1.4L8.4,40.9c-0.9,1.2-1.3,2.7-1.1,4.2l1.1,7.7
			c0.4,3,3.2,5.2,6.3,4.7l0,0c3-0.4,5.2-3.2,4.7-6.3l-0.9-6.6c-0.1-0.9,0.8-1.5,1.6-1.1l31.2,15.3C55.5,60.8,59.2,55.3,56,52z"/>
	</g>
	<linearGradient id="SVGID_1_" gradientUnits="userSpaceOnUse" x1="31.374" y1="19.7321" x2="34.7675" y2="19.7321">
		<stop  offset="0" style="stop-color:#FBBC67"/>
		<stop  offset="1" style="stop-color:#FAA32C"/>
	</linearGradient>
	<circle class="st1" cx="33.1" cy="19.7" r="1.7"/>
	
		<linearGradient id="SVGID_00000121250441134998836950000005591300883048445354_" gradientUnits="userSpaceOnUse" x1="30.4829" y1="26.9951" x2="52.8732" y2="26.9951">
		<stop  offset="0" style="stop-color:#FBBC67"/>
		<stop  offset="1" style="stop-color:#FAA32C"/>
	</linearGradient>
	<path style="fill:url(#SVGID_00000121250441134998836950000005591300883048445354_);" d="M51.7,23.5l-9.9-8
		c-0.5-0.4-1.2-0.3-1.5,0.2l-9.5,11.8c-0.4,0.5-0.3,1.2,0.2,1.6l0.5,0.4c0.3,0.2,0.7,0.3,1.1,0.1c2.3-1.2,4.7-0.8,6.4,0.6
		c1.6,1.4,2.5,3.6,1.6,5.8c-0.2,0.4-0.1,0.9,0.3,1.2l1.4,1.2c0.5,0.4,1.2,0.4,1.6-0.1L52.1,28C53.3,26.7,53.1,24.7,51.7,23.5z"/>
</g>
</svg>
