<?xml version="1.0" encoding="utf-8"?>
<!-- Generator: Adobe Illustrator 27.0.0, SVG Export Plug-In . SVG Version: 6.00 Build 0)  -->
<svg version="1.1" id="Layer_1" xmlns="http://www.w3.org/2000/svg" xmlns:xlink="http://www.w3.org/1999/xlink" x="0px" y="0px"
	 viewBox="0 0 60 60" style="enable-background:new 0 0 60 60;" xml:space="preserve">
<style type="text/css">
	.st0{fill:#FFFFFF;}
	.st1{fill:url(#SVGID_1_);}
</style>
<g>
	<polygon class="st0" points="59.4,41.6 59.4,20.3 43.7,31 	"/>
	<linearGradient id="SVGID_1_" gradientUnits="userSpaceOnUse" x1="0.5912" y1="20.1338" x2="59.4088" y2="20.1338">
		<stop  offset="0" style="stop-color:#FBBC67"/>
		<stop  offset="1" style="stop-color:#FAA32C"/>
	</linearGradient>
	<path class="st1" d="M50.3,7.1H9.7c-5,0-9.1,3.2-9.1,7.1v0.2l26.2,17.7c0.9,0.6,2.1,0.9,3.2,0.9c1.2,0,2.3-0.3,3.2-0.9l26.2-17.7
		v-0.2C59.4,10.3,55.3,7.1,50.3,7.1z"/>
	<path class="st0" d="M37,35.5c-2,1.4-4.5,2-7,2c-2.5,0-5-0.7-7-2l-2.4-1.6L0.8,47.3c0.9,3.2,4.6,5.5,8.9,5.5h40.5
		c4.3,0,8-2.4,8.9-5.5L39.4,33.9L37,35.5z"/>
	<polygon class="st0" points="0.6,20.3 0.6,41.6 16.3,31 	"/>
</g>
</svg>
