<?xml version="1.0" encoding="utf-8"?>
<!-- Generator: Adobe Illustrator 27.0.0, SVG Export Plug-In . SVG Version: 6.00 Build 0)  -->
<svg version="1.1" id="Layer_1" xmlns="http://www.w3.org/2000/svg" xmlns:xlink="http://www.w3.org/1999/xlink" x="0px" y="0px"
	 viewBox="0 0 60 60" style="enable-background:new 0 0 60 60;" xml:space="preserve">
<style type="text/css">
	.st0{fill:url(#SVGID_1_);}
	.st1{fill:#FFFFFF;}
</style>
<g>
	<linearGradient id="SVGID_1_" gradientUnits="userSpaceOnUse" x1="38.3026" y1="10.8626" x2="50.0186" y2="10.8626">
		<stop  offset="0" style="stop-color:#FBBC67"/>
		<stop  offset="1" style="stop-color:#FAA32C"/>
	</linearGradient>
	<path class="st0" d="M50,19.5V5.1c0-1.5-1.3-2.9-2.8-2.9h-6c-1.5,0-2.9,1.4-2.9,2.9v3.7L50,19.5z"/>
	<path class="st1" d="M59.3,30.8L50,22.3h0v0L36.8,10.2l-4.6-4.2c-1.2-1-3.1-1-4.3,0L0.7,30.8c-1.1,1-0.8,1.8,0.7,1.8h6.9v22.2
		c0,1.5,1.4,2.9,2.9,2.9h12.1V42.2c0-1.5,1.4-2.9,2.9-2.9h7.6c1.5,0,2.9,1.4,2.9,2.9v15.6h12.1c1.5,0,2.8-1.4,2.8-2.9V32.6h7
		C60.1,32.6,60.5,31.8,59.3,30.8z"/>
</g>
</svg>
