<svg id="Layer_1" data-name="Layer 1" xmlns="http://www.w3.org/2000/svg" xmlns:xlink="http://www.w3.org/1999/xlink" viewBox="0 0 164.7 132.47"><defs><style>.cls-1{fill:url(#linear-gradient);}.cls-2{fill:#fefefe;}.cls-3{fill:#fab353;}.cls-4{fill:#fab04c;}.cls-5{fill:#f9ad46;}.cls-6{fill:#f9a83b;}.cls-7{fill:#f8a431;}.cls-8{fill:#f9ab41;}.cls-9{fill:#f9a636;}.cls-10{fill:#fab558;}.cls-11{fill:#fbb75d;}.cls-12{fill:#fbba63;}</style><linearGradient id="linear-gradient" x1="321.31" y1="308.09" x2="475.82" y2="308.09" gradientUnits="userSpaceOnUse"><stop offset="0" stop-color="#fbbc67"/><stop offset="1" stop-color="#faa32c"/></linearGradient></defs><title>check</title><path class="cls-1" d="M341.53,328.81l12.86,12.86,12,12c1.8,1.82,3.49,3.78,5.44,5.43a16.55,16.55,0,0,0,10.46,4.3c6.55.56,12.1-1.39,16.35-6.56,5.32-5.17,10.79-10.21,15.81-15.69A30.7,30.7,0,0,1,417,338.4a136.18,136.18,0,0,0,10.69-10.53c4.71-4.51,9.42-9,13.78-13.87,4.73-4.34,9.26-8.88,13.65-13.56a19.61,19.61,0,0,1,1.83-2c4.87-4.1,9.17-8.77,13.6-13.31a19.11,19.11,0,0,0,2.94-22.23c-3.82-7.11-11.73-11.21-19.24-10-5.63.42-9.82,3.37-13.35,7.51L426.35,275l-13.28,13.29q-7.5,7.48-15,15L385.5,315.74c-.67.66-1.28,1.46-2.3.51-.57-.62-1.12-1.28-1.72-1.88l-14.89-14.69c-3.86-4.22-7.95-8.22-12.1-12.14-3.93-4.31-8.92-6-14.63-5.86-8,.56-13.74,4.43-16.85,11.78s-2,14.13,3.15,19.93C331,318.8,336.39,323.69,341.53,328.81Z" transform="translate(-311.12 -234.41)"/><path class="cls-2" d="M311.57,234.43l-.43.43C311.06,234.49,311.2,234.35,311.57,234.43Z" transform="translate(-311.12 -234.41)"/><path class="cls-2" d="M311.14,366.43l.43.43C311.2,366.94,311.06,366.8,311.14,366.43Z" transform="translate(-311.12 -234.41)"/><path class="cls-3" d="M382.29,363.4a16.55,16.55,0,0,1-10.46-4.3c-1.95-1.65-3.64-3.61-5.44-5.43-.13-1.34-.37-2.67-.37-4q0-23.55,0-47.09a5.43,5.43,0,0,1,.6-2.89l14.89,14.69c.6.6,1.15,1.26,1.72,1.88-1.19.57-.91,1.66-.91,2.63Q382.28,341.14,382.29,363.4Z" transform="translate(-311.12 -234.41)"/><path class="cls-4" d="M382.29,363.4q0-22.26,0-44.52c0-1-.28-2.06.91-2.63,1,.95,1.63.15,2.3-.51l12.59-12.47a22.3,22.3,0,0,1,.48,6.36q0,23.6.07,47.21C394.39,362,388.84,364,382.29,363.4Z" transform="translate(-311.12 -234.41)"/><path class="cls-5" d="M398.64,356.84q0-23.61-.07-47.21a22.3,22.3,0,0,0-.48-6.36q7.49-7.49,15-15a5.47,5.47,0,0,1,.5,3.11q0,23.72,0,47.44c0,.82-.51,2,.86,2.31C409.43,346.63,404,351.67,398.64,356.84Z" transform="translate(-311.12 -234.41)"/><path class="cls-6" d="M426.35,275l14.59-14.59c0,3.42,0,6.84.07,10.26.27,14.44-.62,28.9.5,43.33-4.36,4.85-9.07,9.36-13.78,13.87-1.37-.37-.85-1.5-.85-2.31q0-23.73,0-47.44A5.51,5.51,0,0,0,426.35,275Z" transform="translate(-311.12 -234.41)"/><path class="cls-7" d="M454.29,252.9c7.51-1.23,15.42,2.87,19.24,10a19.11,19.11,0,0,1-2.94,22.23c-4.43,4.54-8.73,9.21-13.6,13.31a19.61,19.61,0,0,0-1.83,2c-1.37-.36-.85-1.49-.85-2.31Q454.27,275.52,454.29,252.9Z" transform="translate(-311.12 -234.41)"/><path class="cls-8" d="M426.35,275a5.51,5.51,0,0,1,.51,3.12q0,23.72,0,47.44c0,.81-.52,1.94.85,2.31A136.18,136.18,0,0,1,417,338.4a30.7,30.7,0,0,0-2.59,2.75c-1.37-.36-.86-1.49-.86-2.31q0-23.71,0-47.44a5.47,5.47,0,0,0-.5-3.11Z" transform="translate(-311.12 -234.41)"/><path class="cls-9" d="M454.29,252.9q0,22.62,0,45.23c0,.82-.52,1.95.85,2.31-4.39,4.68-8.92,9.22-13.65,13.56-1.12-14.43-.23-28.89-.5-43.33-.07-3.42-.05-6.84-.07-10.26C444.47,256.27,448.66,253.32,454.29,252.9Z" transform="translate(-311.12 -234.41)"/><path class="cls-10" d="M366.59,299.68a5.43,5.43,0,0,0-.6,2.89q0,23.54,0,47.09c0,1.34.24,2.67.37,4l-12-12c.09-1.83-1.28-3.26-1.27-5.12q.08-23.3,0-46.58a2.38,2.38,0,0,1,1.36-2.43C358.64,291.46,362.73,295.46,366.59,299.68Z" transform="translate(-311.12 -234.41)"/><path class="cls-11" d="M354.49,287.54a2.38,2.38,0,0,0-1.36,2.43q0,23.29,0,46.58c0,1.86,1.36,3.29,1.27,5.12l-12.86-12.86a3.17,3.17,0,0,0-.6-2.22,8.43,8.43,0,0,1-1.1-4.7c.05-13.4,0-26.81,0-40.21C345.57,281.55,350.56,283.23,354.49,287.54Z" transform="translate(-311.12 -234.41)"/><path class="cls-12" d="M339.86,281.68c0,13.4,0,26.81,0,40.21a8.43,8.43,0,0,0,1.1,4.7,3.17,3.17,0,0,1,.6,2.22c-5.14-5.12-10.55-10-15.37-15.42-5.16-5.8-6.19-12.73-3.15-19.93S331.89,282.24,339.86,281.68Z" transform="translate(-311.12 -234.41)"/></svg>