<svg id="Layer_1" data-name="Layer 1" xmlns="http://www.w3.org/2000/svg" viewBox="0 0 152.19 154.74"><defs><style>.cls-1{fill:#fefefe;}.cls-2{fill:#1cbf0a;}.cls-3{fill:#f2f3f2;}.cls-4{fill:#1dbf0b;}.cls-5{fill:#1cbf0b;}</style></defs><title>face2</title><path class="cls-1" d="M324.43,380.57l.43.43C324.49,381.08,324.35,380.94,324.43,380.57Z" transform="translate(-324.41 -226.28)"/><path class="cls-1" d="M476.14,381l.43-.43C476.65,380.94,476.51,381.08,476.14,381Z" transform="translate(-324.41 -226.28)"/><path class="cls-2" d="M473.25,299.5c0,15.5-.26,31,.07,46.49a26.34,26.34,0,0,1-26.85,26.92c-31.14-.21-62.28-.05-93.42-.07-12.92,0-23.15-8.34-25.81-21a27.7,27.7,0,0,1-.5-5.75q0-46.49,0-93c0-15.72,11.15-26.83,26.84-26.83h93.2c15.19,0,26.43,11.14,26.46,26.29Q473.29,276,473.25,299.5Zm-134.32,0q0,23.23,0,46.49c0,9,5.69,14.71,14.7,14.71h92.76c9,0,14.76-5.71,14.76-14.68v-93c0-9-5.75-14.7-14.72-14.7H353.66c-9,0-14.73,5.7-14.73,14.68Q338.92,276.3,338.93,299.54Z" transform="translate(-324.41 -226.28)"/><path class="cls-3" d="M400,332c14.38-.63,25.34-6.67,32-19.66a4.92,4.92,0,0,0,.68-3.88,4.07,4.07,0,0,0-3.69-3.1,4.24,4.24,0,0,0-4.39,2.76,25.53,25.53,0,0,1-12.15,12.45c-13.4,6.64-31.28,1.37-37.16-12.74a4.09,4.09,0,0,0-5.73-2.12c-2.21,1.1-3,3.64-1.69,6.26C374.42,325.29,385.56,331.27,400,332Zm-20.59-64.73a8.74,8.74,0,1,0,8.83,8.66A8.84,8.84,0,0,0,379.38,267.24Zm39.69,17.47a8.74,8.74,0,1,0-8.65-8.74A8.67,8.67,0,0,0,419.07,284.71Z" transform="translate(-324.41 -226.28)"/><path class="cls-4" d="M400,332c-14.41-.7-25.55-6.68-32.09-20-1.29-2.62-.52-5.16,1.69-6.26a4.09,4.09,0,0,1,5.73,2.12c5.88,14.11,23.76,19.38,37.16,12.74a25.53,25.53,0,0,0,12.15-12.45,4.24,4.24,0,0,1,4.39-2.76,4.07,4.07,0,0,1,3.69,3.1,4.92,4.92,0,0,1-.68,3.88C425.31,325.3,414.35,331.34,400,332Z" transform="translate(-324.41 -226.28)"/><path class="cls-5" d="M379.38,267.24a8.74,8.74,0,1,1,0,17.48,8.74,8.74,0,0,1,0-17.48Z" transform="translate(-324.41 -226.28)"/><path class="cls-2" d="M419.07,284.71a8.74,8.74,0,1,1,8.8-8.6A8.67,8.67,0,0,1,419.07,284.71Z" transform="translate(-324.41 -226.28)"/></svg>