<svg id="Layer_1" data-name="Layer 1" xmlns="http://www.w3.org/2000/svg" viewBox="0 0 153.47 157.76"><defs><style>.cls-1{fill:#fefefe;}.cls-2{fill:#9c9c9b;}.cls-3{fill:#f3f3f3;}</style></defs><title>face</title><path class="cls-1" d="M323.57,221.14l-.43.43C323.06,221.2,323.2,221.06,323.57,221.14Z" transform="translate(-323.12 -221.12)"/><path class="cls-1" d="M476.57,221.57l-.43-.43C476.51,221.06,476.65,221.2,476.57,221.57Z" transform="translate(-323.12 -221.12)"/><path class="cls-1" d="M323.14,378.43l.43.43C323.2,378.94,323.06,378.8,323.14,378.43Z" transform="translate(-323.12 -221.12)"/><path class="cls-2" d="M472,300.82c0,15.71-.21,31.43.06,47.14a26,26,0,0,1-26.21,26.19q-47-.07-94.07,0a26.09,26.09,0,0,1-26.16-26q.3-47.25,0-94.5a26.13,26.13,0,0,1,26.12-26.07c31.43.07,62.85,0,94.28,0a25.55,25.55,0,0,1,26,25.88C472,269.25,472,285,472,300.82Zm-12.06.12q0-23.46,0-46.92c0-8.55-5.83-14.39-14.4-14.39h-93.4c-8.55,0-14.38,5.86-14.38,14.41q0,46.82,0,93.62c0,8.49,5.9,14.41,14.41,14.41h93.41c8.53,0,14.36-5.88,14.36-14.43Q459.9,324.28,459.89,300.94Z" transform="translate(-323.12 -221.12)"/><path class="cls-3" d="M427.93,333.05c2.47,0,4.43-2.7,3.35-5.74a25.19,25.19,0,0,0-3.65-6.52,35.91,35.91,0,0,0-38.75-12.9c-10.26,2.85-17.82,9-22.33,18.8a4.36,4.36,0,0,0,.34,4.83,4.13,4.13,0,0,0,4.22,1.49c1.88-.29,2.67-1.71,3.38-3.24,5.65-12,19.5-16.75,30.82-14a25.76,25.76,0,0,1,18.13,14.68C424.21,332.11,425.43,333,427.93,333.05Zm-49.66-47.12a8.63,8.63,0,0,0,8.71-8.64,9.06,9.06,0,0,0-8.88-8.87,8.94,8.94,0,0,0-8.67,8.82A8.58,8.58,0,0,0,378.27,285.93Zm39.72,0a8.7,8.7,0,0,0,8.77-8.84,9.2,9.2,0,0,0-8.88-8.68,8.87,8.87,0,0,0-8.65,9A8.49,8.49,0,0,0,418,285.94Z" transform="translate(-323.12 -221.12)"/><path class="cls-2" d="M427.93,333.05c-2.5,0-3.72-.94-4.49-2.58a25.76,25.76,0,0,0-18.13-14.68c-11.32-2.77-25.17,1.93-30.82,14-.71,1.53-1.5,3-3.38,3.24a4.13,4.13,0,0,1-4.22-1.49,4.36,4.36,0,0,1-.34-4.83c4.51-9.76,12.07-15.95,22.33-18.8a35.91,35.91,0,0,1,38.75,12.9,25.19,25.19,0,0,1,3.65,6.52C432.36,330.35,430.4,333.09,427.93,333.05Z" transform="translate(-323.12 -221.12)"/><path class="cls-2" d="M378.27,285.93a8.58,8.58,0,0,1-8.84-8.69,8.94,8.94,0,0,1,8.67-8.82,9.06,9.06,0,0,1,8.88,8.87A8.63,8.63,0,0,1,378.27,285.93Z" transform="translate(-323.12 -221.12)"/><path class="cls-2" d="M418,285.94a8.49,8.49,0,0,1-8.76-8.52,8.87,8.87,0,0,1,8.65-9,9.2,9.2,0,0,1,8.88,8.68A8.7,8.7,0,0,1,418,285.94Z" transform="translate(-323.12 -221.12)"/></svg>