<?xml version="1.0" encoding="utf-8"?>
<!-- Generator: Adobe Illustrator 27.0.0, SVG Export Plug-In . SVG Version: 6.00 Build 0)  -->
<svg version="1.1" id="Layer_1" xmlns="http://www.w3.org/2000/svg" xmlns:xlink="http://www.w3.org/1999/xlink" x="0px" y="0px"
	 viewBox="0 0 60 60" style="enable-background:new 0 0 60 60;" xml:space="preserve">
<style type="text/css">
	.st0{fill:#FFFFFF;}
</style>
<path class="st0" d="M50.3,6.8H9.7C4.9,6.8,1,10.7,1,15.5v29c0,4.8,3.9,8.7,8.7,8.7h40.6c4.8,0,8.7-3.9,8.7-8.7v-29
	C59,10.7,55.1,6.8,50.3,6.8z M50.3,12.6c0.5,0,1,0.1,1.4,0.4c-0.1,0.1-0.2,0.1-0.3,0.2l-18,13.5c-2,1.5-4.9,1.5-7,0l-18-13.5
	C8.4,13.1,8.3,13,8.3,13c0.4-0.2,0.9-0.4,1.4-0.4H50.3z M50.3,47.4H9.7c-1.6,0-2.9-1.3-2.9-2.9V19.1L23,31.3c2,1.5,4.4,2.3,7,2.3
	s4.9-0.8,7-2.3l16.2-12.2v25.4C53.2,46.1,51.9,47.4,50.3,47.4z"/>
</svg>
