<?xml version="1.0" encoding="utf-8"?>
<!-- Generator: Adobe Illustrator 27.0.0, SVG Export Plug-In . SVG Version: 6.00 Build 0)  -->
<svg version="1.1" id="Layer_1" xmlns="http://www.w3.org/2000/svg" xmlns:xlink="http://www.w3.org/1999/xlink" x="0px" y="0px"
	 viewBox="0 0 60 60" style="enable-background:new 0 0 60 60;" xml:space="preserve">
<style type="text/css">
	.st0{fill:#FFFFFF;}
</style>
<path class="st0" d="M49.7,52.6l-4.4-9c-0.9-1.9-2.1-3.3-4.2-2.5L37,42.6c-3.3,1.5-4.9,0-6.6-2.3l-7.4-16.9
	c-0.9-1.9-0.4-3.7,1.6-4.6l5.8-2.3c2.1-0.9,1.8-2.7,0.8-4.6l-4.9-9.2c-0.9-1.9-2.9-2.4-4.9-1.5c-4.2,1.7-7.6,4.4-9.9,8.4
	c-2.7,4.9-1.4,11.7-0.8,14.6c0.5,2.9,2.5,7.9,4.9,13.1c2.5,5.2,4.7,9.2,6.6,11.5c1.9,2.3,6.6,8.6,12.4,10c4.7,1.1,9.8,0.2,14-1.5
	C50.6,56.4,50.6,54.6,49.7,52.6z"/>
</svg>
