<svg xmlns="http://www.w3.org/2000/svg" xmlns:xlink="http://www.w3.org/1999/xlink" viewBox="0 0 326.1 550" xmlns:v="https://vecta.io/nano"><linearGradient id="A" gradientUnits="userSpaceOnUse" x1="160.486" y1="275.082" x2="171.305" y2="275.099"><stop offset="0" stop-color="#394085"/><stop offset="1" stop-color="#563168"/></linearGradient><path d="M161.7 54l-.2 426c-.4 12.7-4.1 18.2 2.9 19.3 5.3.8 4.1-2.1 4.1-9.8l3.2-432.7c.1-6-1-5.9-4.2-6-3.2-.2-5.9.6-5.8 3.2h0z" fill="url(#A)"/><linearGradient id="B" gradientUnits="userSpaceOnUse" x1="161.974" y1="52.828" x2="171.085" y2="52.843"><stop offset="0" stop-color="#394085"/><stop offset="1" stop-color="#563168"/></linearGradient><path d="M171.1 52.5c0 1.1-2 2.6-4.5 2.6s-4.6-1.2-4.6-2.3 2-2.2 4.5-2.3c2.5 0 4.6.9 4.6 2h0z" fill="url(#B)"/><linearGradient id="C" gradientUnits="userSpaceOnUse" x1="171.293" y1="52.595" x2="171.334" y2="52.595"><stop offset="0" stop-color="#394085"/><stop offset="1" stop-color="#563168"/></linearGradient><path d="M171.3 52.5v.2-.2h0z" fill="url(#C)"/><linearGradient id="D" gradientUnits="userSpaceOnUse" x1="162.563" y1="259.249" x2="171.319" y2="259.263"><stop offset="0" stop-color="#394085"/><stop offset="1" stop-color="#563168"/></linearGradient><path d="M171.6 52.6c-.1 0-.1.1-.2.1-.1 1.3-2.2 3.1-4.8 3.1h-.9c-.2 0-.4 0-.5-.1 1 .6 3.2 2.3 3.3 4 .1 2.1-3.2 404.3-5.3 404.9-.6.1-.8.7-.9 1.4 1.7 0 3.4-.1 5.2-.1.3-5.9 4.2-412.1 4.2-413.1-.1-.1-.1-.2-.1-.2h0z" fill="url(#D)"/><linearGradient id="E" gradientUnits="userSpaceOnUse" x1="164.785" y1="53.861" x2="171.078" y2="53.871"><stop offset="0" stop-color="#394085"/><stop offset="1" stop-color="#563168"/></linearGradient><path d="M171.1 52.6c-.3.1-.6.2-1 .4-.4.8-1.7 1.6-3.5 1.7h-.7c-.1 0-.3 0-.4-.1l-.7.2.4.2c.2 0 .3 0 .5.1h.9c2.5 0 4.4-1.4 4.5-2.5h0z" fill="url(#E)"/><linearGradient id="F" gradientUnits="userSpaceOnUse" x1="162.927" y1="52.828" x2="170.132" y2="52.84"><stop offset="0" stop-color="#394085"/><stop offset="1" stop-color="#563168"/></linearGradient><path d="M170.1 52.6c0 .9-1.5 2-3.5 2s-3.6-.9-3.7-1.8c0-.9 1.6-1.8 3.6-1.8s3.6.7 3.6 1.6h0z" fill="url(#F)"/><linearGradient id="G" gradientUnits="userSpaceOnUse" x1="163.867" y1="52.831" x2="169.19" y2="52.84"><stop offset="0" stop-color="#394085"/><stop offset="1" stop-color="#563168"/></linearGradient><path d="M166.3 53.5c-.7-.1-1.2-.4-1.2-.7 0-.4.6-.7 1.4-.7h.4c.6.1 1.1.3 1.1.6 0 .4-.6.8-1.4.8-.1.1-.2.1-.3 0h0zm.9-2h-.7c-1.5 0-2.6.7-2.6 1.3s.9 1.2 2.2 1.3h.5c1.5 0 2.6-.8 2.6-1.5 0-.5-.9-1-2-1.1h0z" fill="url(#G)"/><linearGradient id="H" gradientUnits="userSpaceOnUse" x1="165.096" y1="52.834" x2="167.966" y2="52.839"><stop offset="0" stop-color="#394085"/><stop offset="1" stop-color="#563168"/></linearGradient><path d="M166.9 52.1h-.4c-.8 0-1.4.4-1.4.7s.5.6 1.2.7h.3c.8 0 1.4-.5 1.4-.8s-.5-.5-1.1-.6h0z" fill="url(#H)"/><linearGradient id="I" gradientUnits="userSpaceOnUse" x1="161.569" y1="465.764" x2="161.569" y2="465.764"><stop offset="0" stop-color="#394085"/><stop offset="1" stop-color="#563168"/></linearGradient><path d="M161.6 465.8h0 0 0z" fill="url(#I)"/><linearGradient id="J" gradientUnits="userSpaceOnUse" x1="168.88" y1="470.487" x2="168.926" y2="470.487"><stop offset="0" stop-color="#394085"/><stop offset="1" stop-color="#563168"/></linearGradient><path d="M168.9 470.3v.4-.4h0z" fill="url(#J)"/><linearGradient id="K" gradientUnits="userSpaceOnUse" x1="-4.886" y1="321.3" x2="386.748" y2="321.3"><stop offset=".017" stop-color="#8d57a3"/><stop offset=".215" stop-color="#7957a4"/><stop offset=".497" stop-color="#5357a6"/><stop offset="1" stop-color="#8d57a3"/></linearGradient><path d="M57.3 343.6l151.3 1c14.5.4 29.2 1.4 43.7 1.1 10.5-8.7 20.9-17.7 32.5-24.8-5.8-4.7-12.5-8.6-18.7-12.8-5.3-3.5-10.6-7.1-16.1-10.2-.1 0-.1.1-.2.1h-.3c-.2 0-.5-.1-.7-.1-14.9-1.3-29.9-.6-44.8-.9-13.5-.3-132 .1-145.5.3-.3 4.8-.7 10.3-.4 15.1.2 3.3 7.1 1.5 9.7 1.9.4.1 3.3-.1 3 .1-2.6 1.4-8.8 2.2-11.8 2.6-2.2.3-1.7 7.7-1.8 9.6 0 .5-.4 4.9-.1 5 .4 0 .4.3 1 0 2.1.7 4.8.4 6.9.5.6 0 1.2.1 1.8.1-3 .6-6 1.2-8.9 2-.7.2-.9.9-.7 1.6.2.8.2 1.6.3 2.4-.1.5-.2 1.1-.2 1.6-.1 1.5.1 3 0 3.8z" fill="url(#K)"/><g fill="#fff"><path d="M122.7 330.1l-1.3-.3c-.4-.1-.8-.3-1.1-.5s-.7-.5-1-.8c-.5-.5-.8-1.1-1-1.8s-.3-1.5-.3-2.3v-6.5h2.8v6.2c0 .6.1 1.1.2 1.5s.3.8.6 1c.3.3.8.5 1.3.6s1.1.2 1.7.2h1.6v-9.5h2.8v12.3h-4.6c-.6 0-1.2 0-1.7-.1zm-.3-14.4c-.3-.3-.5-.6-.5-1.1 0-.4.2-.8.5-1.1s.7-.4 1.2-.4.9.1 1.2.4.5.6.5 1.1-.2.9-.5 1.1-.7.4-1.2.4-.9-.1-1.2-.4zm13.2-4.2v13.4h2.6v2.8h-5.4v-16.2h2.8z"/><path d="M141.7 324.9v2.8h-3.9v-2.8h3.9z"/><path d="M145.2 325v2.8h-3.9V325h3.9z"/><path d="M148.8 325v2.8h-3.9V325h3.9z"/><path d="M152.3 325v2.8h-3.9V325h3.9z"/><path d="M155.9 325v2.8H152V325h3.9z"/><path d="M167.9 325v-2.1c0-.4 0-.8-.1-1.1s-.2-.6-.4-.8-.4-.4-.7-.6c-.3-.1-.6-.2-1-.2h-8.4c-.3-.3-.5-.7-.6-1.2-.2-.5-.3-1-.3-1.6l3.3-5.9h3l-3.1 5.9h5.9c.9 0 1.7.1 2.4.4s1.3.6 1.8 1.2c.4.5.7 1 .9 1.7s.3 1.5.3 2.3v4.8h-15.3V325h12.3zm5.3 7.1c-.3 0-.5-.1-.6-.1l-.2-2.8c.3.1.5.1.7.1h.6c.6 0 1-.2 1.2-.5s.3-.8.3-1.5v-10.9h2.8v8.5h2.2v2.8H178c-.1 1.5-.4 2.7-1.1 3.4s-1.6 1-2.9 1a1.1 1.1 0 0 1-.8 0zm2.2-17.6c-.3-.3-.5-.6-.5-1.1 0-.4.2-.8.5-1.1s.7-.4 1.2-.4.9.1 1.2.4.5.6.5 1.1-.2.9-.5 1.1c-.3.3-.7.4-1.2.4-.5-.1-.9-.2-1.2-.4z"/><path d="M183.7 325v2.8h-3.9V325h3.9z"/><path d="M187.2 325v2.8h-3.9V325h3.9z"/><path d="M190.8 325v2.8h-3.9V325h3.9z"/><path d="M194.3 325v2.8h-3.9V325h3.9z"/><path d="M196.4 325v-8.5h2.8v11.3h-5.3V325h2.5zm.2-10.5c-.3-.3-.5-.6-.5-1.1 0-.4.2-.8.5-1.1s.7-.4 1.2-.4.9.1 1.2.4.5.6.5 1.1-.2.9-.5 1.1-.7.4-1.2.4-.9-.2-1.2-.4zm6.7 17.2c-.4-.4-.7-1-.7-1.9v-.9h4.2v1.5h-2.6c0 .3.1.6.2.7.2.2.4.3.8.3h.8v.9h-1c-.7-.1-1.3-.3-1.7-.6zm2.8-20.1v16.2h-2.8v-16.2h2.8z"/></g><linearGradient id="L" gradientUnits="userSpaceOnUse" x1="167.094" y1="200.731" x2="175.868" y2="303.317"><stop offset="0" stop-color="#fcbc67"/><stop offset="1" stop-color="#faa32b"/></linearGradient><path d="M58.6 272.7l151.3-2.9c14.5 0 29.2.7 43.7 0 10.3-9 20.4-18.3 31.8-25.7-6-4.6-12.7-8.3-19.1-12.3-5.3-3.4-10.8-6.8-16.4-9.8-.1 0-.1.1-.2.1h-.3-.7c-14.9-.9-29.9.2-44.8.2-13.5 0-132 3.5-145.4 4.1-.1 4.8-.4 10.3 0 15.1.3 3.3 7.1 1.3 9.7 1.6.4 0 3.3-.2 3 0-2.6 1.5-8.8 2.5-11.7 2.9-2.2.3-1.5 7.8-1.5 9.7 0 .5-.3 4.9 0 5 .4 0 .4.3 1 0 2.1.6 4.8.3 6.9.4.6 0 1.2.1 1.8.1-3 .7-5.9 1.4-8.8 2.2-.7.2-.9 1-.7 1.6.2.8.3 1.6.3 2.4-.1.5-.1 1.1-.2 1.6.1 1.4.3 3 .3 3.7z" fill="url(#L)"/><path d="M146.4 255.1h3.3l-6.6-17.5h-2.9l-6.6 17.5h3.3l1.6-5h6.3l1.6 5zm-7.2-7.5l2.2-7.1 2.4 7.1h-4.6zm15.5-9.9v17.5s0 3.3-3.7 2.5v2.1s6.6 1.7 6.6-4.6v-17.5h-2.9zm10.2-.2h3.3v17.9h-3.3zm13.1 11.4s-.8-3.3.4-5.8c0 0 2.1-5.4 8.7-2.1l.6-2.3s-6.7-3.2-10.8 1h0l-.2.2c-.5.5-.9 1.2-1.3 1.9-.2.3-.4.7-.5 1.2l-.3.9v.3c0 .2-.1.4-.1.6 0 .1-.1.8-.1 1.8v.2h0v.3c.1 2 .6 4.7 2.5 6.2.1 0 .1.1.2.1 0 0 .3.3 1 .6h0c1.5.7 4.5 1.7 9.4.6v-2.5c.1.1-8.2 3-9.5-3.2zm26.8-11.1c-1.8-.7-3.4-.8-4.6-.7-2.1.4-7.4 2.1-7.1 9.4 0 0-.2 8.5 8.1 8.9 0 0 8.3.4 8.3-9.1.1.1.4-6.3-4.7-8.5zm2.1 8.7c0 6.6-5.6 6.3-5.6 6.3-5.6-.3-5.4-6.2-5.4-6.2-.1-3 1-4.7 2.3-5.6.1-.1 1.8-1.3 3.9-1 .8.1 1.5.4 2 .7.2.1.4.3.6.4 2.3 2 2.2 5.4 2.2 5.4zm16-8.8h-.1-6.8v1.5 16.2h.1l-.1.1s4.1.1 7.2-.2h-.1.1s7.1-.8 7.1-9.1c.1-.2.9-7.7-7.4-8.5zm4.4 8.4c0 1.4-.2 2.6-.6 3.5 0 .1-.1.2-.1.3-1.2 2.3-3.5 2.9-4.6 3h-.7 0 0l-2.3.1v-12.9h3.5c4.8.7 4.8 6 4.8 6z" fill="#fff"/><linearGradient id="M" gradientUnits="userSpaceOnUse" x1="87.92" y1="246.428" x2="125.104" y2="246.428"><stop offset="0" stop-color="#5356a5"/><stop offset="1" stop-color="#8d56a3"/></linearGradient><path d="M124.6 240.1c-3-12.8-14.6-9.5-14.6-9.5-12.2 2.3-19 11-20.5 13.2-1.3 2.2-1.6 4.3-1.6 5.4 0 .8.1 1.3.1 1.3 1.5 6.8 10.7 10.4 10.7 10.4 10.1 4.5 18.5-.9 18.5-.9 10.7-6.8 7.4-19.9 7.4-19.9z" fill="url(#M)"/><linearGradient id="N" gradientUnits="userSpaceOnUse" x1="104.388" y1="247.216" x2="108.854" y2="247.216"><stop offset="0" stop-color="#5356a5"/><stop offset="1" stop-color="#8d56a3"/></linearGradient><path d="M104.4 254.1l4.5-13.7" fill="url(#N)"/><path d="M104.4 255.4c-.1 0-.3 0-.4-.1-.7-.2-1-1-.8-1.6l4.5-13.7c.2-.7 1-1 1.6-.8.7.2 1 1 .8 1.6l-4.5 13.7c-.2.5-.7.9-1.2.9zm-4.5-3c-.3 0-.7-.1-.9-.4l-3.9-3.9c-.5-.5-.5-1.3 0-1.8l3.9-4.2c.5-.5 1.3-.6 1.8-.1s.6 1.3.1 1.8l-3 3.3 3 3c.5.5.5 1.3 0 1.8-.3.4-.6.5-1 .5zm13.4 0c-.3 0-.7-.1-.9-.4-.5-.5-.5-1.3 0-1.8l3-3-3-3.3a1.19 1.19 0 0 1 .1-1.8 1.19 1.19 0 0 1 1.8.1l3.9 4.2c.5.5.5 1.3 0 1.8l-3.9 3.9a1.69 1.69 0 0 1-1 .3z" fill="#fff"/><linearGradient id="O" gradientUnits="userSpaceOnUse" x1="-4.649" y1="174.303" x2="386.985" y2="174.303"><stop offset=".017" stop-color="#8d57a3"/><stop offset=".215" stop-color="#7957a4"/><stop offset=".497" stop-color="#5357a6"/><stop offset="1" stop-color="#8d57a3"/></linearGradient><path d="M57.6 196.6l151.3 1c14.5.4 29.2 1.4 43.7 1.1 10.5-8.7 20.9-17.7 32.5-24.8-5.8-4.7-12.5-8.6-18.7-12.8-5.3-3.5-10.6-7.1-16.1-10.2-.1 0-.1.1-.2.1h-.3c-.2 0-.5-.1-.7-.1-14.9-1.3-29.9-.6-44.8-.9-13.5-.3-132 .1-145.5.3-.3 4.8-.7 10.3-.4 15.1.2 3.3 7.1 1.5 9.7 1.9.4.1 3.3-.1 3 .1-2.6 1.4-8.8 2.2-11.8 2.6-2.2.3-1.7 7.7-1.8 9.6 0 .5-.4 4.9-.1 5 .4 0 .4.3 1 0 2.1.7 4.8.4 6.9.5.6 0 1.2.1 1.8.1-3 .6-6 1.2-8.9 2-.7.2-.9.9-.7 1.6.2.8.2 1.6.3 2.4-.1.5-.2 1.1-.2 1.6-.1 1.5 0 3.1 0 3.8z" fill="url(#O)"/><linearGradient id="P" gradientUnits="userSpaceOnUse" x1="-20.251" y1="387.683" x2="6.177" y2="387.683" gradientTransform="matrix(0.9906 -0.1369 -0.1369 -0.9906 168.4235 549.775)"><stop offset="0" stop-color="#fbbc67"/><stop offset="1" stop-color="#faa32c"/></linearGradient><path d="M94.5 162.9l1.9 13.9c0 .3.4.4.6.2l3.8-4.7c.6-.7.9-1.7.7-2.6l-1-7.6c-.2-1.7-1.8-2.8-3.4-2.6h0c-1.7.2-2.8 1.8-2.6 3.4z" fill="url(#P)"/><path d="M123.7 184.5l-.2-.2-10-8.2c.8-.4 1.1-1.4.8-2.2-.3-.7-1.1-1.2-1.9-1.1-.7.1-1.2.6-1.4 1.2l-2.5-2.1a.53.53 0 0 1-.1-.8l2.1-2.7c-.6-.2-1.1-.7-1.2-1.4-.1-.8.3-1.6 1-1.9.8-.4 1.8-.1 2.2.7l4.7-5.9c1.2-1.5 0-3.7-1.9-3.5-.5.1-1 .4-1.4.8l-16.3 21.2c-.5.7-.7 1.5-.6 2.3l.6 4.2c.2 1.7 1.8 2.8 3.4 2.6h0c1.7-.2 2.8-1.8 2.6-3.4l-.5-3.6c-.1-.5.4-.8.9-.6l17.1 8.4c2.3 1 4.3-2 2.6-3.8z" fill="#fff"/><linearGradient id="Q" gradientUnits="userSpaceOnUse" x1="-20.223" y1="387.194" x2="6.214" y2="387.194" gradientTransform="matrix(0.9906 -0.1369 -0.1369 -0.9906 168.4235 549.775)"><stop offset="0" stop-color="#fbbc67"/><stop offset="1" stop-color="#faa32c"/></linearGradient><circle cx="111.1" cy="166.8" r=".9" fill="url(#Q)"/><linearGradient id="R" gradientUnits="userSpaceOnUse" x1="-21.109" y1="382.575" x2="7.251" y2="382.575" gradientTransform="matrix(0.9906 -0.1369 -0.1369 -0.9906 168.4235 549.775)"><stop offset="0" stop-color="#fbbc67"/><stop offset="1" stop-color="#faa32c"/></linearGradient><path d="M121.3 168.9l-5.4-4.4c-.3-.2-.6-.2-.8.1l-5.2 6.5c-.2.3-.2.7.1.9l.3.2c.2.1.4.1.6 0 1.2-.7 2.6-.4 3.5.3s1.4 2 .9 3.2c-.1.2 0 .5.2.7l.8.7c.3.2.6.2.9-.1l4.5-5.6c.5-.8.4-1.9-.4-2.5z" fill="url(#R)"/><g fill="#fff" stroke="#fff" stroke-linejoin="round" stroke-miterlimit="10"><path d="M132.2 181.8v-20h1.4v20h-1.4zm5.3-13.2l-.1-4.7v-2.2h1.4v2.2l-.1 4.7h-1.2zm6.8 6.6l6.9-7h1.7l-5.4 5.4 6.1 8.2h-1.7l-5.4-7.3-2.3 2.2v5.1h-1.4v-20h1.4l.1 13.4h0zm21.1 4c0 1.2.1 2.1.2 2.6h-1.3c-.1-.3-.2-.9-.2-2.1-.5 1-1.7 2.4-4.5 2.4-3.2 0-4.5-2-4.5-4.1 0-3 2.3-4.4 6.4-4.4h2.6v-1.4c0-1.4-.4-3.2-3.5-3.2-2.7 0-3.2 1.4-3.5 2.6h-1.4c.2-1.5 1.1-3.8 4.8-3.8 3.1 0 4.8 1.3 4.8 4.3v7.1zm-1.3-4.3h-2.7c-3 0-4.9.8-4.9 3.1 0 1.7 1.2 2.9 3.1 2.9 3.9 0 4.4-2.6 4.4-5.5v-.5z"/><use xlink:href="#U"/><use xlink:href="#U" x="8.5"/><path d="M187 161.7h1.4v2.6H187v-2.6zm0 6.5h1.4v13.6H187v-13.6zm6.1 7c0 3.5 1.8 5.7 4.4 5.7s3.4-1.4 3.9-2.6h1.4c-.6 1.8-2 3.8-5.4 3.8-4.1 0-5.7-3.6-5.7-7 0-3.9 1.9-7.2 5.9-7.2 4.2 0 5.5 3.6 5.5 6.2v1.1h-10zm1.9-13.7l3.7 4.3h-1.5l-4.1-4.3h1.9zm6.7 12.5c0-2.7-1.5-4.8-4.2-4.8-2.8 0-4.1 2-4.4 4.8h8.6z"/><use xlink:href="#U" x="36.6"/><path d="M215.4 175.2c0 3.5 1.8 5.7 4.4 5.7s3.4-1.4 3.9-2.6h1.4c-.6 1.8-2 3.8-5.4 3.8-4.1 0-5.7-3.6-5.7-7 0-3.9 1.9-7.2 5.9-7.2 4.2 0 5.5 3.6 5.5 6.2v1.1h-10zm8.6-1.2c0-2.7-1.5-4.8-4.2-4.8-2.8 0-4.1 2-4.4 4.8h8.6z"/></g><linearGradient id="S" gradientUnits="userSpaceOnUse" x1="3.208" y1="40.34" x2="22.501" y2="141.479" gradientTransform="matrix(-0.9921 0.1257 0.1257 0.9921 156.114 13.0099)"><stop offset="0" stop-color="#fcbc67"/><stop offset="1" stop-color="#faa32b"/></linearGradient><path d="M268.1 122.9l-151.3.5c-14.5.3-29.2 1.3-43.7 1-10.5-8.7-20.8-17.8-32.4-25 5.9-4.7 12.5-8.6 18.8-12.7 5.3-3.5 10.6-7.1 16.1-10.2.1 0 .1.1.2.1h.3c.2 0 .5-.1.7-.1 14.9-1.3 29.9-.5 44.8-.8 13.5-.3 132 .5 145.5.8.2 4.8.7 10.3.4 15.1-.2 3.3-7.1 1.5-9.7 1.8-.4.1-3.3-.1-3 .1 2.6 1.4 8.8 2.3 11.8 2.6 2.2.3 1.7 7.7 1.7 9.6 0 .5.4 4.9.1 5-.4 0-.4.3-1 0-2.1.7-4.8.4-6.9.5-.6 0-1.2.1-1.8.1 3 .6 6 1.2 8.9 2 .7.2.9.9.7 1.6-.2.8-.2 1.6-.3 2.4.1.5.2 1.1.2 1.6 0 1.7-.1 3.3-.1 4z" fill="url(#S)"/><g fill="#fff"><path d="M123.9 111.7c-.3 0-.5-.1-.6-.1l-.2-2.8c.3.1.5.1.7.1h.6c.6 0 1-.2 1.2-.5s.3-.8.3-1.5V96h2.8v8.5h2.2v2.8h-2.2c-.1 1.5-.4 2.7-1.1 3.4-.6.7-1.6 1-2.9 1-.3.1-.6 0-.8 0z"/><path d="M134.4 104.6v2.8h-3.9v-2.8h3.9z"/><path d="M137.9 104.6v2.8H134v-2.8h3.9z"/><path d="M141.5 104.6v2.8h-3.9v-2.8h3.9z"/><path d="M145.3 104.6v-8.5h2.8v11.3h-7v-2.8h4.2zm-3.1 6.7c-.3-.2-.5-.6-.5-1.1 0-.4.2-.8.5-1 .3-.3.7-.4 1.1-.4s.8.1 1.1.4.4.6.4 1c0 .5-.2.8-.5 1.1-.3.2-.7.4-1.1.4-.3-.1-.7-.2-1-.4zm4.3 0c-.3-.2-.5-.6-.5-1.1 0-.4.2-.8.5-1 .3-.3.7-.4 1.1-.4.5 0 .8.1 1.1.4s.4.6.4 1c0 .5-.2.8-.5 1.1-.3.2-.7.4-1.1.4-.3-.1-.7-.2-1-.4zm10.8-6.7v-3.1c0-.4 0-.8-.1-1.1s-.2-.6-.4-.8-.4-.4-.7-.6c-.3-.1-.6-.2-1-.2h-1.2V96h.9c.9 0 1.7.1 2.4.4s1.3.6 1.8 1.2c.4.5.7 1 .9 1.7s.3 1.5.3 2.3v5.7h-9.8v-2.8l6.9.1zm9.2-13.4v13.4h2.6v2.8h-5.4V91.2h2.8z"/><path d="M172.6 104.6v2.8h-3.9v-2.8h3.9z"/><path d="M176.1 104.6v2.8h-3.9v-2.8h3.9z"/><path d="M179.7 104.6v2.8h-3.9v-2.8h3.9z"/><path d="M191.7 104.7v-2.1c0-.4 0-.8-.1-1.1s-.2-.6-.4-.8-.4-.4-.7-.6c-.3-.1-.6-.2-1-.2h-8.4c-.3-.3-.5-.7-.6-1.2-.2-.5-.3-1-.3-1.6l3.2-5.9h3l-3.1 5.9h5.9c.9 0 1.7.1 2.4.4.7.2 1.3.6 1.8 1.2.4.5.7 1 .9 1.7s.3 1.5.3 2.3v4.8h-15.3v-2.8h12.4zm6.8-14.8c.4-.4 1.1-.6 1.9-.6h1v.9h-.8c-.4 0-.7.1-.8.3s-.2.4-.2.7h2.6v1.5H198v-.9c-.2-.9 0-1.5.5-1.9zm2.8 3.8v13.8h-2.8V93.7h2.8z"/></g><defs ><path id="U" d="M169.9 171.9v-3.7h1.3l.1 3c.8-2 2.5-3.3 4.7-3.4v1.5c-2.8.2-4.7 2.1-4.7 5.4v7.1h-1.4v-9.9h0z"/></defs></svg>