<svg xmlns="http://www.w3.org/2000/svg" viewBox="0 0 227.6 57" xmlns:v="https://vecta.io/nano"><linearGradient  gradientUnits="userSpaceOnUse" x1="-1.15" y1="28.287" x2="228.762" y2="28.658"><stop offset="0" stop-color="#393f84"/><stop offset="1" stop-color="#563068"/></linearGradient><linearGradient  gradientUnits="userSpaceOnUse" x1=".94" y1="21.162" x2="9.288" y2="21.176"><stop offset="0" stop-color="#393f84"/><stop offset="1" stop-color="#563068"/></linearGradient><linearGradient  gradientUnits="userSpaceOnUse" x1="-.088" y1="38.395" x2="4.465" y2="38.403"><stop offset="0" stop-color="#393f84"/><stop offset="1" stop-color="#563068"/></linearGradient><linearGradient id="D" gradientUnits="userSpaceOnUse" x1="-62.021" y1="27.042" x2="329.613" y2="27.042"><stop offset=".017" stop-color="#8d56a3"/><stop offset=".254" stop-color="#7356a4"/><stop offset=".497" stop-color="#5356a5"/><stop offset="1" stop-color="#8d56a3"/></linearGradient><path d="M.2 49.3l151.3 1c14.5.4 29.2 1.4 43.7 1.1 10.5-8.7 20.9-17.7 32.5-24.8-5.8-4.7-12.5-8.6-18.7-12.8-5.3-3.5-10.6-7.1-16.1-10.2-.1 0-.1.1-.2.1h-.3c-.2 0-.5-.1-.7-.1-14.9-1.3-29.9-.6-44.8-.9-13.5-.4-132.1.1-145.5.3C1.1 7.8.7 13.3 1 18c.2 3.3 7.1 1.5 9.7 1.9.4.1 3.3-.1 3 .1-2.6 1.4-8.8 2.2-11.8 2.6-2.2.3-1.7 7.7-1.8 9.6 0 .5-.4 4.9-.1 5 .4 0 .4.3 1 0 2.1.7 4.8.4 6.9.5.6 0 1.2.1 1.8.1-3 .6-6 1.2-8.9 2-.7.2-.9.9-.7 1.6.2.8.2 1.6.3 2.4-.1.5-.2 1.1-.2 1.6-.1 1.6 0 3.2 0 3.9z" fill="url(#D)"/><linearGradient  gradientUnits="userSpaceOnUse" x1=".206" y1="52.528" x2="194.672" y2="52.842"><stop offset="0" stop-color="#393f84"/><stop offset="1" stop-color="#563068"/></linearGradient><linearGradient  gradientUnits="userSpaceOnUse" x1="194.647" y1="41.053" x2="228.042" y2="41.107"><stop offset="0" stop-color="#393f84"/><stop offset="1" stop-color="#563068"/></linearGradient><path d="M48.6 17.2h2.9v16.2h-2.9V17.2zm9.7 16.3h-2.8V17.3h4.4l5.9 13.5V17.3h2.8v16.2h-4.4L58.3 20v13.5zM83 17.3V20h-7.5v3.9h6.8v2.7h-6.8v4.3H83v2.7H72.6V17.4l10.4-.1zm14.9 0V20l-9 10.9h9.2v2.7H85.4v-2.7l9-10.9h-8.3v-2.7h11.8zm7 15.8c-1-.4-1.9-1-2.6-1.8s-1.3-1.6-1.7-2.7a9.19 9.19 0 0 1-.6-3.3c0-1.2.2-2.3.6-3.3s1-1.9 1.7-2.7 1.6-1.3 2.7-1.8c1-.4 2.2-.6 3.5-.6 1.2 0 2.3.1 3.3.4s1.9.6 2.6 1l-1.1 2.5c-.6-.4-1.3-.7-2.1-.9a10.9 10.9 0 0 0-2.6-.3c-.7 0-1.4.1-2.1.3s-1.2.6-1.7 1c-.5.5-.9 1.1-1.2 1.8s-.4 1.5-.4 2.5.1 1.8.4 2.5.7 1.3 1.2 1.8 1.1.8 1.7 1.1c.7.2 1.4.3 2.1.3.6 0 1.1-.1 1.7-.2s1.1-.3 1.6-.5v-2.9h-3.6v-2.7h6.5v7.6a9.75 9.75 0 0 1-1.4.6c-.5.2-1.1.3-1.6.5l-1.7.3c-.6.1-1.1.1-1.7.1-1.3.1-2.5-.1-3.5-.6zm24.5.5l-1.4-3.8h-6.7l-1.4 3.8h-3l6-16.2h3.5l6 16.2h-3zM127 27l-2.4-6.7-2.4 6.7h4.8zm10.4 6.6h-2.8V17.4h4.4l5.9 13.5V17.4h2.8v16.2h-4.4l-5.9-13.5v13.5zm24.8-16.2v2.7h-7.5V24h6.8v2.7h-6.8V31h7.5v2.7h-10.4V17.5l10.4-.1z" fill="#fff"/></svg>