<svg xmlns="http://www.w3.org/2000/svg" viewBox="0 0 227.6 57" xmlns:v="https://vecta.io/nano"><linearGradient  gradientUnits="userSpaceOnUse" x1="-1036.039" y1="18.118" x2="-806.471" y2="18.118" gradientTransform="matrix(-1 1.612813e-03 1.612813e-03 1 -807.4906 11.8433)"><stop offset="0" stop-color="#fcbc67"/><stop offset="1" stop-color="#f9a22b"/></linearGradient><linearGradient  gradientUnits="userSpaceOnUse" x1="-816.491" y1="13.696" x2="-808.157" y2="13.696" gradientTransform="matrix(-1 1.612813e-03 1.612813e-03 1 -807.4906 11.8433)"><stop offset="0" stop-color="#fcbc67"/><stop offset="1" stop-color="#f9a22b"/></linearGradient><linearGradient  gradientUnits="userSpaceOnUse" x1="-812.1" y1="31.014" x2="-807.556" y2="31.014" gradientTransform="matrix(-1 1.612813e-03 1.612813e-03 1 -807.4906 11.8433)"><stop offset="0" stop-color="#fcbc67"/><stop offset="1" stop-color="#f9a22b"/></linearGradient><linearGradient id="D" gradientUnits="userSpaceOnUse" x1="109.208" y1="-19.463" x2="117.981" y2="83.123"><stop offset="0" stop-color="#fcbc67"/><stop offset="1" stop-color="#f9a22b"/></linearGradient><path d="M.7 52.5L152 49.6c14.5 0 29.2.7 43.7 0 10.3-9 20.4-18.3 31.8-25.7-6-4.6-12.7-8.3-19.1-12.3-5.3-3.4-10.8-6.8-16.4-9.8-.1 0-.1.1-.2.1h-.3-.7c-14.9-1-29.8.1-44.7.1C132.6 2 14.1 5.6.6 6.2.5 11 .2 16.5.6 21.3c.3 3.3 7.1 1.3 9.7 1.6.4 0 3.3-.2 3 0-2.6 1.5-8.8 2.5-11.7 2.9-2.2.3-1.5 7.8-1.5 9.7 0 .5-.3 4.9 0 5 .4 0 .4.3 1 0 2.1.6 4.8.3 6.9.4.6 0 1.2.1 1.8.1-3 .7-5.9 1.4-8.8 2.2-.7.2-.9 1-.7 1.6.2.8.3 1.6.3 2.4-.1.5-.1 1.1-.2 1.6.1 1.4.3 3 .3 3.7z" fill="url(#D)"/><linearGradient  gradientUnits="userSpaceOnUse" x1="-1002.611" y1="42.934" x2="-808.152" y2="42.934" gradientTransform="matrix(-1 1.612813e-03 1.612813e-03 1 -807.4906 11.8433)"><stop offset="0" stop-color="#fcbc67"/><stop offset="1" stop-color="#f9a22b"/></linearGradient><linearGradient  gradientUnits="userSpaceOnUse" x1="-1035.36" y1="28.547" x2="-1002.617" y2="28.547" gradientTransform="matrix(-1 1.612813e-03 1.612813e-03 1 -807.4906 11.8433)"><stop offset="0" stop-color="#fcbc67"/><stop offset="1" stop-color="#f9a22b"/></linearGradient><path d="M88.6 34.9h3.3l-6.6-17.5h-2.9l-6.6 17.5H79l1.6-5h6.3l1.7 5zm-7.3-7.5l2.2-7.1 2.4 7.1h-4.6zm15.6-9.9V35s0 3.3-3.7 2.5v2.1s6.6 1.7 6.6-4.6V17.5h-2.9zm10.1-.2h3.3v17.9H107zm13.1 11.4s-.8-3.3.4-5.8c0 0 2.1-5.4 8.7-2.1l.6-2.3s-6.7-3.2-10.8 1h0l-.2.2c-.5.5-.9 1.2-1.3 1.9-.2.3-.4.7-.5 1.2l-.3.9v.3c0 .2-.1.4-.1.6 0 .1-.1.8-.1 1.8v.2h0v.3c.1 2 .6 4.7 2.5 6.2.1 0 .1.1.2.1 0 0 .3.3 1 .6h0c1.5.7 4.5 1.7 9.4.6V32c.1 0-8.2 2.9-9.5-3.3zm26.8-11.1c-1.8-.7-3.4-.8-4.6-.7-2.1.4-7.4 2.1-7.1 9.4 0 0-.2 8.5 8.1 8.9 0 0 8.3.4 8.3-9.1.1.1.4-6.2-4.7-8.5zm2.1 8.7c0 6.6-5.6 6.3-5.6 6.3-5.6-.3-5.4-6.2-5.4-6.2-.1-3 1-4.7 2.3-5.6.1-.1 1.8-1.3 3.9-1 .8.1 1.5.4 2 .7.2.1.4.3.6.4 2.3 2.1 2.2 5.4 2.2 5.4zm16-8.8h-.1-6.8V19v16.2h.1l-.1.1s4.1.1 7.2-.2h-.1.1s7.1-.8 7.1-9.1c.1-.2.9-7.7-7.4-8.5zm4.4 8.4c0 1.4-.2 2.6-.6 3.5 0 .1-.1.2-.1.3-1.2 2.3-3.5 2.9-4.6 3h-.7 0 0l-2.2.1V20h3.5c4.7.6 4.7 5.9 4.7 5.9z" fill="#fff"/><linearGradient id="G" gradientUnits="userSpaceOnUse" x1="30.035" y1="26.242" x2="67.218" y2="26.242"><stop offset="0" stop-color="#4d4cc7"/><stop offset="1" stop-color="#9f4cc7"/></linearGradient><path d="M66.7 19.9c-3-12.8-14.6-9.5-14.6-9.5-12.2 2.3-19 11-20.5 13.2-1.3 2.2-1.6 4.2-1.6 5.4 0 .8.1 1.3.1 1.3 1.5 6.8 10.7 10.4 10.7 10.4 10.1 4.5 18.5-.9 18.5-.9C70 33 66.7 19.9 66.7 19.9z" fill="url(#G)"/><linearGradient id="H" gradientUnits="userSpaceOnUse" x1="46.502" y1="27.029" x2="50.968" y2="27.029"><stop offset="0" stop-color="#4d4cc7"/><stop offset="1" stop-color="#9f4cc7"/></linearGradient><path d="M46.5 33.9L51 20.2" fill="url(#H)"/><path d="M46.5 35.2c-.1 0-.3 0-.4-.1-.7-.2-1-1-.8-1.6l4.5-13.7c.2-.7 1-1 1.6-.8.7.2 1 1 .8 1.6l-4.5 13.7c-.1.5-.7.9-1.2.9zm-4.5-3c-.3 0-.7-.1-.9-.4l-3.9-3.9c-.5-.5-.5-1.3 0-1.8l3.9-4.2c.5-.5 1.3-.6 1.8-.1s.6 1.3.1 1.8L40 27l3 3c.5.5.5 1.3 0 1.8-.3.3-.6.4-1 .4zm13.4 0c-.3 0-.7-.1-.9-.4-.5-.5-.5-1.3 0-1.8l3-3-3-3.3a1.19 1.19 0 0 1 .1-1.8 1.19 1.19 0 0 1 1.8.1l3.9 4.2c.5.5.5 1.3 0 1.8l-3.9 3.9a1.69 1.69 0 0 1-1 .3z" fill="#fff"/></svg>