<svg xmlns="http://www.w3.org/2000/svg" viewBox="0 0 227.6 57" xmlns:v="https://vecta.io/nano"><linearGradient  gradientUnits="userSpaceOnUse" x1="-22.338" y1="391.934" x2="207.482" y2="391.934" gradientTransform="matrix(1 1.612813e-03 1.612813e-03 -1 20.6019 422.1852)"><stop offset="0" stop-color="#fcbc67"/><stop offset="1" stop-color="#f9a22b"/></linearGradient><linearGradient  gradientUnits="userSpaceOnUse" x1="197.13" y1="399.062" x2="205.478" y2="399.062" gradientTransform="matrix(1 1.612813e-03 1.612813e-03 -1 20.6019 422.1852)"><stop offset="0" stop-color="#fcbc67"/><stop offset="1" stop-color="#f9a22b"/></linearGradient><linearGradient  gradientUnits="userSpaceOnUse" x1="201.928" y1="381.808" x2="206.478" y2="381.808" gradientTransform="matrix(1 1.612813e-03 1.612813e-03 -1 20.6019 422.1852)"><stop offset="0" stop-color="#fcbc67"/><stop offset="1" stop-color="#f9a22b"/></linearGradient><linearGradient id="D" gradientUnits="userSpaceOnUse" x1="117.264" y1="-17.836" x2="110.837" y2="84.93"><stop offset="0" stop-color="#fcbc67"/><stop offset="1" stop-color="#f9a22b"/></linearGradient><path d="M227.4 51.6l-151.3.5c-14.5.3-29.2 1.3-43.7 1C21.9 44.4 11.6 35.4-.1 28.2c5.9-4.7 12.6-8.6 18.8-12.8 5.3-3.5 10.6-7 16.1-10.2.1 0 .1.1.2.1h.3c.2 0 .5-.1.7-.1 14.9-1.3 29.9-.5 44.8-.8 13.5-.3 132 .5 145.5.8.2 4.8.7 10.3.4 15.1-.2 3.3-7.1 1.5-9.7 1.8-.4.1-3.3-.1-3 .1 2.6 1.4 8.8 2.3 11.8 2.6 2.2.3 1.7 7.7 1.7 9.6 0 .5.4 4.9.1 5-.4 0-.4.3-1 0-2.1.7-4.8.4-6.9.5-.6 0-1.2.1-1.8.1 3 .6 6 1.2 8.9 2 .7.2.9.9.7 1.6-.2.8-.2 1.6-.3 2.4.1.5.2 1.1.2 1.6h0c.1 1.7-.1 3.3 0 4z" fill="url(#D)"/><linearGradient  gradientUnits="userSpaceOnUse" x1="11.705" y1="367.772" x2="206.202" y2="367.772" gradientTransform="matrix(1 1.612813e-03 1.612813e-03 -1 20.6019 422.1852)"><stop offset="0" stop-color="#fcbc67"/><stop offset="1" stop-color="#f9a22b"/></linearGradient><linearGradient  gradientUnits="userSpaceOnUse" x1="-21.637" y1="379.581" x2="11.754" y2="379.581" gradientTransform="matrix(1 1.612813e-03 1.612813e-03 -1 20.6019 422.1852)"><stop offset="0" stop-color="#fcbc67"/><stop offset="1" stop-color="#f9a22b"/></linearGradient><path d="M90.3 36.1l-1.4-3.8h-6.7l-1.4 3.8h-3l6-16.2h3.5l6 16.2h-3zm-2.4-6.5l-2.4-6.7-2.4 6.7h4.8zm10.8 6.1c-1-.4-1.9-1-2.6-1.8s-1.3-1.6-1.7-2.7c-.4-1-.6-2.1-.6-3.3s.2-2.3.6-3.3 1-1.9 1.7-2.7 1.6-1.3 2.7-1.8c1-.4 2.2-.6 3.5-.6 1.2 0 2.3.1 3.3.4s1.9.6 2.6 1l-1.1 2.5c-.6-.4-1.3-.7-2.1-.9a10.9 10.9 0 0 0-2.6-.3c-.7 0-1.4.1-2.1.3s-1.2.6-1.7 1c-.5.5-.9 1.1-1.2 1.8-.4.9-.5 1.7-.5 2.7s.1 1.8.4 2.5.7 1.3 1.2 1.8 1.1.8 1.7 1.1c.7.2 1.4.3 2.1.3.6 0 1.1-.1 1.7-.2s1.1-.3 1.6-.5v-2.9H102v-2.7h6.5V35c-.4.2-.8.4-1.4.6-.5.2-1.1.3-1.6.5l-1.7.3c-.6.1-1.1.1-1.7.1-1.2-.2-2.4-.4-3.4-.8zm24.5.4l-1.4-3.8h-6.7l-1.4 3.8h-3l6-16.2h3.5l6 16.2h-3zm-2.3-6.5l-2.4-6.7-2.4 6.7h4.8zm11.8-9.7c1.3 0 2.6.2 3.8.5s2.1.8 3 1.5c.8.7 1.5 1.5 2 2.5s.7 2.2.7 3.5-.2 2.5-.7 3.5-1.1 1.9-1.9 2.6-1.8 1.2-2.9 1.6-2.4.5-3.8.5h-4.4V19.9h4.2zm2.6 13.3c.8-.2 1.5-.5 2-.9s1-1 1.3-1.7.5-1.6.5-2.6c0-.9-.2-1.8-.5-2.4-.3-.7-.7-1.2-1.3-1.7-.6-.4-1.2-.8-2-1s-1.6-.3-2.6-.3h-1.4v10.9h1.3c1 0 1.9-.1 2.7-.3zM145 20h2.9v16.2H145V20zm9.8 9.8v6.4h-2.9V20h6.1c1.1 0 2 .1 2.7.4s1.4.6 1.8 1.1c.5.5.8 1 1 1.6s.3 1.2.3 1.8c0 .5-.1.9-.2 1.4s-.3.9-.6 1.3-.6.8-1 1.1a5.3 5.3 0 0 1-1.5.8l4.2 6.8h-3.2l-4-6.4-2.7-.1zm0-2.5h2.6c.5 0 1 0 1.5-.1.4-.1.8-.2 1.1-.4s.5-.4.7-.7.3-.7.3-1.2c0-.8-.3-1.4-.9-1.8s-1.5-.5-2.7-.5h-2.6v4.7z" enable-background="new" fill="#fff"/></svg>