<?xml version="1.0" encoding="utf-8"?>
<!-- Generator: Adobe Illustrator 27.7.0, SVG Export Plug-In . SVG Version: 6.00 Build 0)  -->
<svg version="1.1" id="Layer_1" xmlns="http://www.w3.org/2000/svg" xmlns:xlink="http://www.w3.org/1999/xlink" x="0px" y="0px"
	 viewBox="0 0 54.1 52.7" style="enable-background:new 0 0 54.1 52.7;" xml:space="preserve">
<style type="text/css">
	.st0{fill:#5357A6;}
</style>
<path class="st0" d="M22.2,48.2c-0.2,0-0.4,0-0.6-0.1c-1.3-0.3-2.1-1.6-1.8-2.9l9.7-38.8c0.3-1.3,1.6-2.1,2.9-1.8
	c1.3,0.3,2.1,1.6,1.8,2.9l-9.7,38.8C24.3,47.5,23.3,48.2,22.2,48.2z M14.9,38.5c-0.7,0-1.3-0.3-1.8-0.8L3.4,27.3
	c-0.4-0.5-0.7-1.1-0.6-1.7c0-0.6,0.3-1.3,0.8-1.7l9.7-9c1-0.9,2.5-0.8,3.4,0.1c0.9,1,0.8,2.5-0.1,3.4l-7.9,7.3l8.1,8.7
	c0.9,1,0.9,2.5-0.1,3.4C16.1,38.3,15.5,38.5,14.9,38.5z M39.2,38.5c-0.6,0-1.2-0.2-1.7-0.6c-1-0.9-1-2.4-0.1-3.4l8.1-8.7l-7.9-7.3
	c-1-0.9-1-2.4-0.1-3.4s2.4-1,3.4-0.1l9.7,9c0.5,0.4,0.8,1,0.8,1.7c0,0.6-0.2,1.3-0.6,1.7L41,37.7C40.5,38.2,39.8,38.5,39.2,38.5z"/>
</svg>
