<?xml version="1.0" encoding="utf-8"?>
<!-- Generator: Adobe Illustrator 27.7.0, SVG Export Plug-In . SVG Version: 6.00 Build 0)  -->
<svg version="1.1" id="Layer_1" xmlns="http://www.w3.org/2000/svg" xmlns:xlink="http://www.w3.org/1999/xlink" x="0px" y="0px"
	 viewBox="0 0 54.1 52.7" style="enable-background:new 0 0 54.1 52.7;" xml:space="preserve">
<style type="text/css">
	.st0{fill:#5357A6;}
</style>
<path class="st0" d="M41,8.1c-1-0.4-2.2-0.3-3.1,0.3l-15,9.3c-0.4,0.2-0.8,0.4-1.2,0.5l-10.4,1.9c-1.8,0.3-3,2.1-2.7,3.9l0,0.3
	l-3.3,0.6l1.4,7.9l3.3-0.6l0.1,0.3c0.4,1.8,2.1,2.9,3.9,2.6l5.5,7.6c0.8,1,2,1.6,3.3,1.3l1.7-0.3c1.8-0.3,3-2.1,2.7-3.9l-1.2-6.6
	L43,36.7c0.4,0.1,0.9,0.1,1.3,0c0.7-0.1,1.3-0.4,1.7-0.9c0.8-0.8,1.1-1.8,1-2.9l-4.1-22.3C42.7,9.5,42,8.6,41,8.1L41,8.1z
	 M20.4,21.8l1.5,8.5l-8.5,1.6l-1.5-8.5L20.4,21.8z M23.8,40.5l-1.7,0.3l-4.5-6.4l4.9-0.9L23.8,40.5z M26.3,29.9
	c-0.3-0.1-0.7-0.2-1-0.2l-1.6-8.7c0.3-0.1,0.6-0.3,0.9-0.5l15-9.4l4.1,22.3L26.3,29.9z M44.4,18.4l1.2,6.6c1.8-0.3,3-2.1,2.7-3.9
	C48,19.3,46.2,18.1,44.4,18.4z"/>
</svg>
