<?xml version="1.0" encoding="utf-8"?>
<!-- Generator: Adobe Illustrator 27.7.0, SVG Export Plug-In . SVG Version: 6.00 Build 0)  -->
<svg version="1.1" id="Layer_2_00000080905703060295101300000008197643058690294937_"
	 xmlns="http://www.w3.org/2000/svg" xmlns:xlink="http://www.w3.org/1999/xlink" x="0px" y="0px" viewBox="0 0 763.5 756.9"
	 style="enable-background:new 0 0 763.5 756.9;" xml:space="preserve">
<style type="text/css">
	.st0{fill:#5357A6;}
	.st1{clip-path:url(#SVGID_00000029729975381228533100000002334304754522048919_);}
	.st2{fill:#4375BA;}
	.st3{fill:url(#SVGID_00000080902579052921163350000014271874341805657782_);}
	.st4{opacity:0.1;enable-background:new    ;}
	.st5{fill:url(#SVGID_00000129890316451218329590000014640984404880952766_);}
	.st6{fill:#F5897D;}
	.st7{fill:url(#SVGID_00000039816112449056181290000017850055246123067538_);}
	.st8{fill:#192E35;}
	.st9{fill:url(#SVGID_00000160899408465499731430000003317838650786277772_);}
	.st10{fill:url(#SVGID_00000057858881706881149320000018110427671599127213_);}
	.st11{fill:url(#SVGID_00000055693810829263374820000011802819687423613848_);}
	.st12{fill:#D2D2EA;}
	.st13{opacity:0.2;enable-background:new    ;}
	.st14{fill:#BCB1D7;}
	.st15{opacity:0.2;fill:#FFFFFF;enable-background:new    ;}
	.st16{fill:url(#SVGID_00000082337976691344939860000015277022754216119456_);}
	.st17{fill:url(#SVGID_00000158031114470232534980000008687265417957490363_);}
	.st18{fill:url(#SVGID_00000115514076778227658600000001225528227891428015_);}
	.st19{fill:url(#SVGID_00000136373009419766021050000001988303948720065437_);}
	.st20{fill:url(#SVGID_00000099621902461795736780000004781097560130147498_);}
	.st21{fill:url(#SVGID_00000127762432932729725030000002191596688516810885_);}
	.st22{fill:url(#SVGID_00000029020340696108781000000001975939896451213958_);}
	.st23{fill:url(#SVGID_00000094604423005958288180000007338689373844795526_);}
	.st24{fill:url(#SVGID_00000063623553829735976650000002403379146124153791_);}
	.st25{fill:url(#SVGID_00000046336966213176993850000010761590485031703963_);}
	.st26{fill:url(#SVGID_00000163786786599465595910000003423128605158474886_);}
	.st27{fill:url(#SVGID_00000173880299448491780900000004104653910750377366_);}
	.st28{fill:url(#SVGID_00000061468564082844911610000005477414655245965450_);}
	.st29{fill:url(#SVGID_00000054977745948775929580000016844021512932969380_);}
	.st30{fill:url(#SVGID_00000068640524279400105880000003863593173695863691_);}
	.st31{fill:url(#SVGID_00000129921281503487119280000003677844260792041869_);}
	.st32{fill:url(#SVGID_00000076582572108581809360000004804195236351260061_);}
	.st33{fill:url(#SVGID_00000096026640975608714420000012047016745778634936_);}
	.st34{fill:url(#SVGID_00000016075774849072108660000013539007085593992885_);}
	.st35{fill:url(#SVGID_00000032646421917651624730000017086941093005232314_);}
	.st36{fill:url(#SVGID_00000005987574874318350220000016749100304100460715_);}
	.st37{fill:url(#SVGID_00000050649115606247438540000002789449098194785435_);}
	.st38{fill:url(#SVGID_00000075148964704076311630000002710943009659265699_);}
</style>
<g>
	<g>
		<g>
			<g id="XMLID_00000181070649674425353480000006246835442687778477_">
				<path id="XMLID_00000180347031819608660690000002003573726923536555_" class="st0" d="M18.1,135.2l-0.8-2.6
					c-0.2-0.9-0.4-1.8-0.5-2.7c-0.2-0.9-0.2-1.7-0.3-2.5l-0.1-1.2c-0.1-0.6,0-0.9,0.1-1.4c0.4-6.9,3.6-13.3,8.3-18.4
					c4.6-5.2,10.2-9.3,15.7-12.7c5.5-3.4,11.1-6,16.1-8.2c5.1-2.1,9.6-3.8,13.4-5c3.8-1.3,6.8-2.1,8.9-2.7c2.1-0.6,3.2-0.9,3.2-0.9
					S81,77.3,79,78c-1,0.4-2.2,0.8-3.7,1.3c-1.4,0.5-3.1,1.2-4.9,1.9c-3.7,1.4-8,3.2-12.9,5.5c-4.8,2.3-10.1,5.1-15.2,8.6
					c-5.2,3.5-10.3,7.6-14.4,12.6c-4.2,4.9-6.9,10.9-7.1,17.1c0,0.4-0.1,0.8,0,1.1l0.1,1.2c0.1,0.8,0.1,1.7,0.3,2.4l0.5,2.3l0.8,2.3
					c1.3,3.1,3.1,6.1,5.4,8.9c4.7,5.6,11.2,10.6,18.5,14.8s15.2,7.9,23.5,10.9c8.2,3,16.6,5.6,24.9,7.7c16.6,4.2,32.8,6.9,46.7,8.7
					c7,0.9,13.4,1.5,19.1,2c5.7,0.5,10.7,0.8,14.9,1c4.1,0.2,7.4,0.4,9.6,0.5c2.2,0.1,3.4,0.1,3.4,0.1s-1.2,0-3.4,0.1
					c-2.2,0-5.5,0.1-9.6,0c-4.2,0-9.2-0.2-15-0.4c-5.8-0.3-12.3-0.6-19.4-1.3c-7.1-0.6-14.7-1.6-22.7-2.8c-8-1.3-16.4-2.8-24.9-4.9
					c-8.5-2.1-17.2-4.5-25.7-7.6s-16.8-6.8-24.4-11.2c-7.6-4.4-14.4-9.7-19.5-15.8C21.3,141.9,19.4,138.6,18.1,135.2z"/>
				<path id="XMLID_00000163050819270069790270000011464697489249723533_" class="st0" d="M170.5,67.4c-5.7,0-11.1,0-16.5,0.2
					c-10.7,0.3-20.8,1-30.1,1.9s-17.8,2-25.2,3.1c-7.5,1.1-13.9,2.4-19.1,3.5c-5.2,1.2-9.4,2.1-12.1,2.8c-2.8,0.7-4.2,1.1-4.2,1.1
					s1.4-0.4,4.2-1.3c2.7-0.8,6.7-2,11.9-3.3c10.4-2.6,25.6-5.9,44.2-8c9.3-1.1,19.5-2,30.3-2.5c5.4-0.3,11-0.4,16.6-0.5
					c5.7-0.1,11.5,0,17.4,0.2c23.6,0.7,48.8,3.3,73.1,8.5c12.1,2.7,24,6.1,35.1,10.3c11.1,4.2,21.5,9.3,30.1,15.5
					c8.7,6.1,15.4,13.7,17.9,21.7c1.3,4.1,1.6,8.1,0.9,11.9c-0.6,3.9-2.3,7.4-4.3,10.6c-4,6.5-10.1,11.4-15.7,15.2
					c-5.7,3.8-11.3,6.6-15.9,8.8c-2.3,1.1-4.4,2-6.3,2.7c-1.9,0.8-3.5,1.4-4.8,1.9c-2.6,1-4,1.5-4,1.5s1.4-0.6,3.9-1.6
					c2.6-1.1,6.2-2.7,10.8-5c4.5-2.3,9.8-5.2,15.2-9.2c1.3-1,2.7-2,4-3.1c0.6-0.6,1.3-1.1,2-1.7c0.6-0.6,1.2-1.2,1.9-1.8
					c2.5-2.5,4.9-5.3,6.6-8.4c1.8-3.1,3.2-6.5,3.7-10.1s0.1-7.4-1.3-11c-2.6-7.4-9.1-14.3-17.4-20.1c-8.3-5.9-18.4-10.7-29.3-14.8
					c-10.9-4.1-22.5-7.3-34.4-9.9c-23.8-5.3-48.6-8-71.9-8.9C181.9,67.5,176.1,67.4,170.5,67.4z"/>
				<path id="XMLID_00000113354236853328540980000006340447799486316428_" class="st0" d="M209,189.6c6.5-0.6,13-1.5,19.4-2.3
					c6.4-0.9,12.8-2,19.2-3.2l1.9-0.4l0.6,1.5c0.3,0.9,0.9,1.9,1.5,2.8c0.6,1,1.3,1.9,2,2.8c1.5,1.8,3.2,3.6,5,5.2
					c3.7,3.3,8.1,6.2,12.9,8.6c4.8,2.5,10,4.5,15.4,6.2c2.7,0.9,5.4,1.6,8.2,2.4l3.2,0.8c-0.4-0.6-0.8-1.2-1.2-1.8
					c-1.2-1.8-2.3-3.7-3.3-5.6c-2-3.8-3.8-7.6-5.2-11.6c-1.4-4-2.3-8-2.5-12.2c-0.1-2.1,0-4.1,0.4-6.2c0.2-1,0.5-2.1,0.8-3.1
					s0.8-2,1.3-3l0.2-0.4l0.5-0.2c7.3-2.7,14.5-5.7,21.5-8.9c3.5-1.6,6.9-3.3,10.1-5.2s6.4-3.9,8.7-6.4c-2.1,2.7-5,4.9-8.1,6.9
					c-3.1,2.1-6.4,3.9-9.7,5.8c-6.5,3.5-13.4,6.7-20.4,9.6c-1.5,3.5-2,7.2-1.6,11c0.3,3.9,1.4,7.7,2.8,11.5s3.2,7.5,5.3,11.1
					c1.1,1.8,2.2,3.6,3.3,5.4c1.2,1.8,2.4,3.5,3.7,5.2l2.8,3.7l-5.5-1.1l-4.4-0.9l-4.4-1c-2.9-0.7-5.8-1.5-8.6-2.4
					c-5.6-1.8-11.1-4-16.2-6.7c-1.3-0.6-2.5-1.4-3.7-2.1c-1.2-0.7-2.4-1.5-3.5-2.2c-2.3-1.6-4.4-3.2-6.4-5c-2-1.8-3.8-3.7-5.3-5.7
					c-0.8-1-1.5-2-2.1-3.1c-0.4-0.7-0.7-1.3-1-2c-5.9,1-11.7,1.8-17.7,2.5c-6.6,0.8-13.2,1.3-19.8,1.7s-13.2,0.6-19.8,0.7
					c-3.3,0-6.6,0.1-9.9,0c-3.3,0-6.6-0.1-9.9-0.2c6.6-0.2,13.2-0.5,19.8-0.9C196,190.8,202.5,190.2,209,189.6z"/>
			</g>
		</g>
	</g>
	<g>
		<g>
			<defs>
				<rect id="SVGID_1_" x="-16.2" y="-22.8" width="779.7" height="779.7"/>
			</defs>
			<clipPath id="SVGID_00000112609374260772175860000004027056138796976059_">
				<use xlink:href="#SVGID_1_"  style="overflow:visible;"/>
			</clipPath>
			<g style="clip-path:url(#SVGID_00000112609374260772175860000004027056138796976059_);">
				<g>
					<path class="st2" d="M804.4,1005.4c0,0-102.2-375.8-120.8-389.8c-18.6-13.9-124.5-53.1-124.5-53.1s-257.8,43-296.5,38.8
						c-38.7-4.3-163.2-28.3-181.1,0S-6.8,799.1-6.8,799.1l-99,41.8l-62.7,164.5H804.4z"/>
					
						<linearGradient id="SVGID_00000015326560842769165510000013712786984540017829_" gradientUnits="userSpaceOnUse" x1="-325.5835" y1="-25.95" x2="647.4165" y2="-25.95" gradientTransform="matrix(1 0 0 -1 156.9835 758)">
						<stop  offset="0" style="stop-color:#394085"/>
						<stop  offset="1" style="stop-color:#563168"/>
					</linearGradient>
					<path style="fill:url(#SVGID_00000015326560842769165510000013712786984540017829_);" d="M-168.6,1005.4h973
						c0,0-101.7-374.1-120.6-389.7c-0.1,0-0.1-0.1-0.1-0.1c-3.8-2.9-11.3-6.8-20.8-11.2c-36.8-17.1-103.7-41.9-103.7-41.9
						s-257.8,43.1-296.5,38.8s-163.2-28.3-181.1,0c-3.8,6-10,18.4-17.4,34.3c-27.3,58.5-71,163.5-71,163.5l-99,41.8L-168.6,1005.4z"
						/>
					<path class="st4" d="M64.1,635.6l38.4,38L202.7,650L316,673.6l-7.3,43.8l41.3,49.1l-14.7-49.1l32.1-54c0,0,130.4,7.9,164.4,0
						c21.4-5,85.9-36.4,130.9-59C625.9,587.3,559,562.5,559,562.5s-257.8,43.1-296.5,38.8s-163.2-28.3-181.1,0
						C77.7,607.3,71.5,619.8,64.1,635.6z"/>
					<path class="st4" d="M-168.6,1005.4h973c0,0-101.7-374.1-120.6-389.7c-0.1,0-0.1-0.1-0.1-0.1l62.7,291.6l-31.3,48.3l-77-58.5
						L579,930l-82-16.6l-8.1-39.7l-116.1-76.4l72.8,67.7l-25.7,77l-111.6,19.3H185l-51-34l17-69.1l25.7-40.1l-130.1-0.3l55.4,34.3
						L81.6,913L19,942.1l-72.8-44.9L-83.5,983L-168.6,1005.4z"/>
				</g>
				<g id="_x3C_Group_x3E__00000129194829467570572800000003473239628904239505_">
					
						<linearGradient id="SVGID_00000114758750432900845290000006884045092448163497_" gradientUnits="userSpaceOnUse" x1="255.7715" y1="466.7196" x2="553.6875" y2="466.7196" gradientTransform="matrix(1 0 0 -1 156.9835 758)">
						<stop  offset="0" style="stop-color:#1F2150"/>
						<stop  offset="1" style="stop-color:#361E44"/>
					</linearGradient>
					<path style="fill:url(#SVGID_00000114758750432900845290000006884045092448163497_);" d="M460.4,161.5c0,0,148-23.1,176.3-11
						s37.6,55.7,37.6,55.7s5,8.8-10.3,9.9c0,0,62.6,156.1,42.8,186C687,432,487.5,444,460.4,429.3
						C433.3,414.7,368.3,172.5,460.4,161.5z"/>
					<path class="st6" d="M373.2,310.2c0,0-19.6,45.5-24,51.8s-101.9,51.2-101.9,51.2s-11.8-1.9-23.8,0s-28.6,6.9-30.1,8.8
						s18.1,30.3,18.1,30.3s39,2.4,43.8-13c0,0,97.7-36.3,109.1-45.8s43-65.7,43-65.7L373.2,310.2z"/>
					
						<linearGradient id="SVGID_00000049943915185172352150000013343950490407018889_" gradientUnits="userSpaceOnUse" x1="110.2165" y1="436.35" x2="275.8165" y2="436.35" gradientTransform="matrix(1 0 0 -1 156.9835 758)">
						<stop  offset="0" style="stop-color:#394085"/>
						<stop  offset="1" style="stop-color:#563168"/>
					</linearGradient>
					<path style="fill:url(#SVGID_00000049943915185172352150000013343950490407018889_);" d="M401.3,210.6
						c-18.3,10.9-47,128.5-53.1,142.4c-6.2,13.9-81,47.9-81,47.9l33.1,31.8c0,0,75.7-33.5,85.2-43.1c9.6-9.6,47.3-107.1,47.3-107.1
						L401.3,210.6z"/>
					<g>
						<path class="st8" d="M407.4,479.3c0,0-308.7-44.3-325,23.4c-17.2,71.6,230.6,119.9,378.8,125c148.1,5.1,190.8-27.5,167-210.6
							l-199.9-0.5L407.4,479.3z"/>
						
							<linearGradient id="SVGID_00000034068171949446457340000007016398113637581956_" gradientUnits="userSpaceOnUse" x1="-75.4337" y1="235.6066" x2="477.3979" y2="235.6066" gradientTransform="matrix(1 0 0 -1 156.9835 758)">
							<stop  offset="0" style="stop-color:#0F1634"/>
							<stop  offset="1" style="stop-color:#271535"/>
						</linearGradient>
						<path style="fill:url(#SVGID_00000034068171949446457340000007016398113637581956_);" d="M407.4,479.3
							c0,0-308.7-44.3-325,23.4c-17.2,71.6,230.6,119.9,378.8,125c148.1,5.1,190.8-27.5,167-210.6l-199.9-0.5L407.4,479.3z"/>
					</g>
					<g>
						<g>
							
								<linearGradient id="SVGID_00000076572451117888550710000003220564668198840465_" gradientUnits="userSpaceOnUse" x1="-42.2155" y1="182.9801" x2="-27.0084" y2="182.9801" gradientTransform="matrix(1 0 0 -1 156.9835 758)">
								<stop  offset="0" style="stop-color:#FCBC67"/>
								<stop  offset="1" style="stop-color:#FAA32B"/>
							</linearGradient>
							<path style="fill:url(#SVGID_00000076572451117888550710000003220564668198840465_);" d="M128.6,584.2
								c0.3,0.2,0.8,0.2,1.1-0.1c0.3-0.2,0.4-0.6,0.3-0.9c-0.5-1.6-5.4-15.9-10.4-17.4c-1.1-0.3-2.2,0.1-3,0.9
								c-1.4,1.2-2.1,3-1.8,4.8c0.8,2.7,2.4,5,4.6,6.7C122.3,580.5,125.3,582.5,128.6,584.2z M127.3,581.5c-4.6-2-8.4-5.6-10.6-10.2
								c-0.3-1.2,0.2-2.5,1.3-3.3c0.3-0.3,0.7-0.5,1.2-0.3c0.4,0.1,0.8,0.4,1.1,0.7C123.4,572.3,125.8,576.7,127.3,581.5z"/>
						</g>
						<g>
							
								<linearGradient id="SVGID_00000065041097152149660100000001987788328002580877_" gradientUnits="userSpaceOnUse" x1="-30.0748" y1="183.4281" x2="-20.9297" y2="183.4281" gradientTransform="matrix(1 0 0 -1 156.9835 758)">
								<stop  offset="0" style="stop-color:#FCBC67"/>
								<stop  offset="1" style="stop-color:#FAA32B"/>
							</linearGradient>
							<path style="fill:url(#SVGID_00000065041097152149660100000001987788328002580877_);" d="M128.8,584.4c0.3,0.1,0.7,0,0.9-0.3
								c0.5-0.4,7.3-9,6.2-14.9c-0.3-1.5-1.1-2.7-2.4-3.6c-1.1-1-2.7-1.2-3.9-0.4c-3.6,2.5-3.1,14.1-1.4,18.5l0.1,0.4
								C128.5,584.3,128.7,584.4,128.8,584.4z M132.7,567.5c0.6,0.5,1,1.3,1.2,2.1c0.7,3.7-2.7,9.2-4.6,11.9
								c-1.1-4.9-0.8-13,1.3-14.5c0.2-0.1,0.7-0.5,1.7,0.3L132.7,567.5L132.7,567.5z"/>
						</g>
					</g>
					<polygon class="st12" points="235.5,620.5 170.8,620.5 139.7,620.6 136,587.9 164.7,584 234.9,574.7 					"/>
					<path class="st8" d="M143,583.8l7.9,37.3c0.4,2.1-0.9,4.1-3,4.5l-18.6,3.3c0,0-24.7,6.3-31.6,1.9c-20.3-13-39.8-95-31.5-101.1
						c3-2.2,8.3,1.1,10.9,3.8c8.3,8.5,26.1,32.2,33.1,39.2c8.2,8.2,22.8,8.4,29.1,8.1C141,580.7,142.6,582,143,583.8z"/>
					<polygon class="st13" points="235.5,620.5 170.8,620.5 164.7,584 234.9,574.7 					"/>
					<g>
						<g>
							<path class="st8" d="M479.8,477v8.2c0,5.5-4.6,10.6-10.1,10.6H168.6c-5.5,0-10.9-5.1-10.9-10.6V477H479.8z"/>
							<path class="st14" d="M479.8,477v8.2c0,5.5-4.6,10.6-10.1,10.6H168.6c-5.5,0-10.9-5.1-10.9-10.6V477H479.8z"/>
							<path class="st12" d="M367.5,477v8.2c0,5.5-4.7,10.6-10.2,10.6H168.6c-5.5,0-10.9-5.1-10.9-10.6V477H367.5z"/>
						</g>
						<g>
							<path class="st8" d="M357.3,488.3H158.4c-6.1,0-12.6-4.8-14.5-10.7L98.3,334.5c-1.9-5.9,1.5-11,7.6-11h199
								c6.1,0,12.6,5.1,14.5,11L365,477.4C366.8,483.3,363.4,488.3,357.3,488.3z"/>
							<path class="st14" d="M357.3,488.3H158.4c-6.1,0-12.6-4.8-14.5-10.7L98.3,334.5c-1.9-5.9,1.5-11,7.6-11h199
								c6.1,0,12.6,5.1,14.5,11L365,477.4C366.8,483.3,363.4,488.3,357.3,488.3z"/>
							<path class="st12" d="M349.8,488.3H158.4c-6.1,0-12.6-4.8-14.5-10.7L98.3,334.5c-1.9-5.9,1.5-11,7.6-11h191.5
								c6.1,0,12.6,5.1,14.5,11l45.6,142.9C359.4,483.3,355.9,488.3,349.8,488.3z"/>
						</g>
						<path class="st15" d="M233.5,412.4c2.5,9.5-2.3,17.3-10.6,17.3s-17-7.7-19.5-17.3c-2.5-9.5,2.3-17.3,10.6-17.3
							S231,402.9,233.5,412.4z"/>
					</g>
					
						<linearGradient id="SVGID_00000060016293455958498190000014030304041757690261_" gradientUnits="userSpaceOnUse" x1="-92.7432" y1="177.3293" x2="-5.92" y2="177.3293" gradientTransform="matrix(1 0 0 -1 156.9835 758)">
						<stop  offset="0" style="stop-color:#394085"/>
						<stop  offset="1" style="stop-color:#563168"/>
					</linearGradient>
					<path style="fill:url(#SVGID_00000060016293455958498190000014030304041757690261_);" d="M143,583.8l7.9,37.3
						c0.4,2.1-0.9,4.1-3,4.5l-18.6,3.3c0,0-24.7,6.3-31.6,1.9c-20.3-13-39.8-95-31.5-101.1c3-2.2,8.3,1.1,10.9,3.8
						c8.3,8.5,26.1,32.2,33.1,39.2c8.2,8.2,22.8,8.4,29.1,8.1C141,580.7,142.6,582,143,583.8z"/>
					<g>
						<polygon points="568.7,443 631.2,443.8 630,423.5 568.7,422.2 						"/>
						<polygon points="445.5,419.5 426.9,419.1 420.2,441.1 445.5,441.4 						"/>
						
							<linearGradient id="SVGID_00000070838069491409651510000013996282996659722140_" gradientUnits="userSpaceOnUse" x1="296.5165" y1="326.7" x2="402.1165" y2="326.7" gradientTransform="matrix(1 0 0 -1 156.9835 758)">
							<stop  offset="0" style="stop-color:#0E1119"/>
							<stop  offset="1" style="stop-color:#1B1124"/>
						</linearGradient>
						<polygon style="fill:url(#SVGID_00000070838069491409651510000013996282996659722140_);" points="453.5,419.7 453.5,441.5 
							559.1,442.9 559.1,422 						"/>
						<g>
							<path class="st12" d="M514.4,437.7l0.3-8.5c0.2-4.7-3.3-8.7-7.7-8.9l-19.1-0.8c-2.1-0.1-4.2,0.7-5.8,2.3
								c-1.6,1.6-2.5,3.7-2.6,6l-0.3,8.5c-0.2,4.7,3.3,8.7,7.7,8.9L506,446l0,0c0.1,0,0.2,0,0.3,0
								C510.6,445.9,514.2,442.3,514.4,437.7z M487.1,441.6c-2.6-0.1-4.6-2.4-4.5-5.2l0.3-8.5c0-1.3,0.6-2.6,1.5-3.5
								s2.1-1.4,3.4-1.3l19.1,0.8c2.6,0.1,4.6,2.4,4.5,5.2l-0.3,8.5c-0.1,2.8-2.2,4.9-4.9,4.8L487.1,441.6z"/>
						</g>
						<g>
							<path class="st12" d="M511.1,434.9h-9.6c-1.2,0-2.2-1-2.2-2.2s1-2.2,2.2-2.2h9.6c1.2,0,2.2,1,2.2,2.2
								S512.3,434.9,511.1,434.9z"/>
						</g>
					</g>
					<g>
						<path class="st2" d="M401.3,210.6c0,0,24.1,152.3,14,206.7l222.7,6.5c0,0-26.3-157.3-61.4-216.6
							C576.6,207.2,518.4,110.1,401.3,210.6z"/>
						
							<linearGradient id="SVGID_00000058581869749499433700000008026839070372173967_" gradientUnits="userSpaceOnUse" x1="244.3165" y1="463.5828" x2="481.0165" y2="463.5828" gradientTransform="matrix(1 0 0 -1 156.9835 758)">
							<stop  offset="1.704000e-02" style="stop-color:#9C6CAE"/>
							<stop  offset="0.244" style="stop-color:#876DB1"/>
							<stop  offset="0.4974" style="stop-color:#6A6FB4"/>
							<stop  offset="1" style="stop-color:#8D57A3"/>
						</linearGradient>
						<path style="fill:url(#SVGID_00000058581869749499433700000008026839070372173967_);" d="M401.3,210.6
							c0,0,24.1,152.3,14,206.7l222.7,6.5c0,0-26.3-157.3-61.4-216.6C576.6,207.2,518.4,110.1,401.3,210.6z"/>
					</g>
					<g>
						<path class="st12" d="M531.9,176.7c0,0-36.9,36.1-58.3,30.2s-29.3-16.8-29.3-16.8s17.1-7.5,15.3-11.6
							c-0.2-0.5-0.8-1.3-1.5-2.5c-6.4-9.7-29-40.6-29-40.6l48.6-27.2c0,0,4,9.4,8.9,20.6c6.6,14.8,14.8,32.9,17.6,36.2
							C508.9,170.9,531.9,176.7,531.9,176.7z"/>
						<path class="st13" d="M486.5,128.8c-3.1,17.1-10.5,37.4-28.5,47.2c-6.4-9.7-29-40.6-29-40.6l48.6-27.2
							C477.6,108.2,481.6,117.6,486.5,128.8z"/>
					</g>
					<g>
						
							<linearGradient id="SVGID_00000051349304957862965150000005922446830779789207_" gradientUnits="userSpaceOnUse" x1="1371.509" y1="613.6438" x2="1403.3057" y2="613.6438" gradientTransform="matrix(0.9118 0.4106 0.4106 -0.9118 -1004.5872 128.8525)">
							<stop  offset="0" style="stop-color:#1F2150"/>
							<stop  offset="1" style="stop-color:#361E44"/>
						</linearGradient>
						<path style="fill:url(#SVGID_00000051349304957862965150000005922446830779789207_);" d="M523.9,111.7c0,0-1.9,16-7.2,25.6
							c-5.3,9.5,4.3,17.9,8.4,12.5c0,0-6.8,14.6-15.3,8.1c0,0-4.5,10.2-13.1,6.5c0,0-5-20.8,4.8-39.2
							C511.3,106.7,523.9,111.7,523.9,111.7z"/>
						<path class="st8" d="M469.5,28.7c11.8,12.5-5.9,44.9-42.8,62.8c-9-19.3-2.5-51.6,6.2-61.6C446.8,13.9,459.2,17.8,469.5,28.7z"
							/>
						<path class="st12" d="M411.7,100.9C411.7,100.9,411.7,100.9,411.7,100.9c-0.4,4.8-0.6,9.3-0.5,13.4
							c1.2,35.4,39.6,59.5,70.7,39c0.1-0.1,0.2-0.1,0.3-0.2c20.7-13.9,24.3-34,33.4-67.5c2-7.1,2.3-14.5,0.9-21.7
							c-4.9-25.7-29.6-42.5-55.3-37.7C429.9,32.1,414.5,70.1,411.7,100.9z"/>
						
							<linearGradient id="SVGID_00000079458980440578853210000002712814625491294339_" gradientUnits="userSpaceOnUse" x1="1313.2568" y1="642.2669" x2="1320.1221" y2="642.2669" gradientTransform="matrix(0.9118 0.4106 0.4106 -0.9118 -1004.5872 128.8525)">
							<stop  offset="0" style="stop-color:#1F2150"/>
							<stop  offset="1" style="stop-color:#361E44"/>
						</linearGradient>
						<path style="fill:url(#SVGID_00000079458980440578853210000002712814625491294339_);" d="M463,84.6c-0.6,2.8-2.5,4.7-4.3,4.3
							c-1.8-0.4-2.8-2.9-2.2-5.6c0.6-2.8,2.5-4.7,4.3-4.4C462.5,79.2,463.3,81.8,463,84.6z"/>
						
							<linearGradient id="SVGID_00000046312852751806470280000001798600814838860440_" gradientUnits="userSpaceOnUse" x1="1281.9319" y1="635.1847" x2="1288.8525" y2="635.1847" gradientTransform="matrix(0.9118 0.4106 0.4106 -0.9118 -1004.5872 128.8525)">
							<stop  offset="0" style="stop-color:#1F2150"/>
							<stop  offset="1" style="stop-color:#361E44"/>
						</linearGradient>
						<path style="fill:url(#SVGID_00000046312852751806470280000001798600814838860440_);" d="M431.6,78.2
							c-0.6,2.8-2.5,4.7-4.3,4.3c-1.8-0.4-2.8-2.9-2.3-5.7c0.6-2.8,2.5-4.7,4.3-4.3S432.1,75.4,431.6,78.2z"/>
						<path class="st13" d="M441.5,81.6c-5,7.8-11.1,14.8-18.1,20.9c4.1,5.6,12.7,5.2,12.7,5.2L441.5,81.6z"/>
						
							<linearGradient id="SVGID_00000107567401722152372600000001245972987271027844_" gradientUnits="userSpaceOnUse" x1="1311.2253" y1="658.2406" x2="1327.6497" y2="658.2406" gradientTransform="matrix(0.9118 0.4106 0.4106 -0.9118 -1004.5872 128.8525)">
							<stop  offset="0" style="stop-color:#1F2150"/>
							<stop  offset="1" style="stop-color:#361E44"/>
						</linearGradient>
						<path style="fill:url(#SVGID_00000107567401722152372600000001245972987271027844_);" d="M473.6,76.4c0.4,0.1,0.7,0.1,1.1,0
							c0.8-0.4,1.2-1.4,0.8-2.2c-2.2-4.9-6.6-8.4-11.8-9.4c-0.9-0.1-1.7,0.4-1.8,1.3v0.1c-0.1,0.9,0.5,1.7,1.4,1.9l0,0
							c4.1,0.9,7.6,3.7,9.3,7.5C472.7,76,473.1,76.3,473.6,76.4z"/>
						
							<linearGradient id="SVGID_00000025444060253298867630000001344752649487201709_" gradientUnits="userSpaceOnUse" x1="1270.0725" y1="650.179" x2="1281.8765" y2="650.179" gradientTransform="matrix(0.9118 0.4106 0.4106 -0.9118 -1004.5872 128.8525)">
							<stop  offset="0" style="stop-color:#1F2150"/>
							<stop  offset="1" style="stop-color:#361E44"/>
						</linearGradient>
						<path style="fill:url(#SVGID_00000025444060253298867630000001344752649487201709_);" d="M419.4,64.6c0.6,0.1,1.3-0.1,1.7-0.6
							c2.5-3.4,6.4-5.5,10.6-5.5c0.9,0.1,1.7-0.6,1.8-1.5c0.1-0.9-0.6-1.7-1.5-1.8c-5.3-0.1-10.4,2.5-13.5,6.8
							c-0.6,0.7-0.4,1.7,0.3,2.3l0,0C419,64.5,419.2,64.6,419.4,64.6z"/>
						
							<linearGradient id="SVGID_00000013191964945523786230000012597336901106744237_" gradientUnits="userSpaceOnUse" x1="2286.7988" y1="999.7834" x2="2308.3176" y2="999.7834" gradientTransform="matrix(0.649 0.7608 0.7603 -0.6486 -1815.2692 -974.6983)">
							<stop  offset="0" style="stop-color:#1F2150"/>
							<stop  offset="1" style="stop-color:#361E44"/>
						</linearGradient>
						<path style="fill:url(#SVGID_00000013191964945523786230000012597336901106744237_);" d="M423.1,122.5c-0.2-0.2-0.2-0.6,0-0.9
							s0.7-0.3,1-0.1c12.4,10.3,23.8,5.4,23.9,5.4c0.3-0.2,0.7,0,0.9,0.3c0.2,0.3,0,0.7-0.3,0.9
							C448.4,128.2,436.3,133.5,423.1,122.5C423.2,122.6,423.2,122.6,423.1,122.5z"/>
						
							<linearGradient id="SVGID_00000110445447512330863250000010135270090569058444_" gradientUnits="userSpaceOnUse" x1="1263.2561" y1="680.4234" x2="1383.2446" y2="680.4234" gradientTransform="matrix(0.9118 0.4106 0.4106 -0.9118 -1004.5872 128.8525)">
							<stop  offset="0" style="stop-color:#1F2150"/>
							<stop  offset="1" style="stop-color:#361E44"/>
						</linearGradient>
						<path style="fill:url(#SVGID_00000110445447512330863250000010135270090569058444_);" d="M431,41.4c0,0-6.1-11.3-2-19.5
							C435,10,446,5.2,456.8,4c8.2-1.2,18.8-0.1,32.7,5.2c36.5,13.9,51.1,33.3,48.6,55.1c0.7,8.4-5,20.9-13.6,31.1
							c0,0.1-0.1,0.1-0.1,0.2l0,0c-5.1,6-11.2,11.2-17.6,14.2c-13.2-28.6-15.3-45.5-7.9-52.8c-0.6-0.5-7.1-15-11.7-17.4
							c-6.7-3.5-22.4-2.7-35.5-1.2c-7.2,0.8-10.6-7.2-10.6-7.2L431,41.4z"/>
						<path class="st12" d="M526.2,116.1c-4.1,7.7-11,13.6-19.3,16.2c-11.1,3.4-16.8-6.5-14-17.1c2.6-9.5,11.4-22.8,22.6-21.5
							C526.6,95,531.1,106.6,526.2,116.1z"/>
					</g>
					<g>
						<g>
							
								<linearGradient id="SVGID_00000036225613835839828680000008283258239372553610_" gradientUnits="userSpaceOnUse" x1="268.886" y1="111.9604" x2="278.0081" y2="111.9604" gradientTransform="matrix(1 0 0 -1 156.9835 758)">
								<stop  offset="0" style="stop-color:#FCBC67"/>
								<stop  offset="1" style="stop-color:#FAA32B"/>
							</linearGradient>
							<path style="fill:url(#SVGID_00000036225613835839828680000008283258239372553610_);" d="M428.5,635.7
								c-0.2-0.3-0.6-0.5-1-0.5s-0.6,0.3-0.7,0.7c-0.3,1.7-2.6,16.6,1.1,20.2c0.8,0.7,2,1,3,0.6c1.8-0.4,3.2-1.7,3.8-3.4
								c0.5-2.7,0.2-5.6-1-8.1C432.3,641.9,430.6,638.7,428.5,635.7z M428.4,638.7c3.1,3.9,4.8,8.9,4.6,13.9
								c-0.3,1.2-1.4,2.1-2.6,2.3c-0.4,0.2-0.9,0.1-1.2-0.2c-0.3-0.3-0.5-0.7-0.7-1.1C427.5,648.6,427.5,643.6,428.4,638.7z"/>
						</g>
						<polygon class="st12" points="330,562.8 391.4,583.2 420.9,593 414,625.2 385.6,619.7 316,606.4 						"/>
						<path class="st8" d="M406.1,626.8l4.3-37.9c0.2-2.1,2.2-3.6,4.3-3.3l18.7,2.7c0,0,25.4,1.8,30.6,8.2
							c15.1,18.7,7.7,102.8-2.1,105.9c-3.6,1.2-7.5-3.7-9.1-7.1c-5.2-10.7-14.5-38.8-19-47.6c-5.2-10.4-18.9-15.2-25.1-16.9
							C407,630.4,405.9,628.7,406.1,626.8z"/>
						<g>
							
								<linearGradient id="SVGID_00000162332358162019323440000012389293362603465879_" gradientUnits="userSpaceOnUse" x1="257.8264" y1="114.4261" x2="271.7294" y2="114.4261" gradientTransform="matrix(1 0 0 -1 156.9835 758)">
								<stop  offset="0" style="stop-color:#FCBC67"/>
								<stop  offset="1" style="stop-color:#FAA32B"/>
							</linearGradient>
							<path style="fill:url(#SVGID_00000162332358162019323440000012389293362603465879_);" d="M428.4,635.4
								c-0.2-0.3-0.6-0.3-0.9-0.2c-0.6,0.1-10.7,4.6-12.4,10.3c-0.4,1.4-0.3,3,0.4,4.3c0.5,1.4,1.8,2.3,3.3,2.2
								c4.3-0.6,9.3-11,9.8-15.7l0.1-0.4C428.6,635.6,428.5,635.5,428.4,635.4z M417.1,648.5c-0.3-0.8-0.3-1.6-0.1-2.4
								c1.1-3.6,6.7-6.9,9.6-8.4c-1.3,4.9-5.4,11.9-7.9,12.2c-0.3,0-0.8,0.1-1.4-1.1L417.1,648.5L417.1,648.5z"/>
						</g>
						<polygon class="st13" points="330,562.8 391.4,583.2 385.6,619.7 316,606.4 						"/>
						<g>
							<polygon class="st2" points="374.9,625.4 357.4,627.1 367.9,566.5 388,577.1 							"/>
							<g>
								
									<linearGradient id="SVGID_00000003090314172571555900000013880333103529415866_" gradientUnits="userSpaceOnUse" x1="200.4165" y1="161.2" x2="231.0165" y2="161.2" gradientTransform="matrix(1 0 0 -1 156.9835 758)">
									<stop  offset="0" style="stop-color:#FCBC67"/>
									<stop  offset="1" style="stop-color:#FAA32B"/>
								</linearGradient>
								<polygon style="fill:url(#SVGID_00000003090314172571555900000013880333103529415866_);" points="374.9,625.4 357.4,627.1 
									367.9,566.5 388,577.1 								"/>
							</g>
						</g>
						
							<linearGradient id="SVGID_00000109744394507493331240000014832145884474808725_" gradientUnits="userSpaceOnUse" x1="249.0931" y1="113.9266" x2="315.6281" y2="113.9266" gradientTransform="matrix(1 0 0 -1 156.9835 758)">
							<stop  offset="0" style="stop-color:#394085"/>
							<stop  offset="1" style="stop-color:#563168"/>
						</linearGradient>
						<path style="fill:url(#SVGID_00000109744394507493331240000014832145884474808725_);" d="M406.1,626.8l4.3-37.9
							c0.2-2.1,2.2-3.6,4.3-3.3l18.7,2.7c0,0,25.4,1.8,30.6,8.2c15.1,18.7,7.7,102.8-2.1,105.9c-3.6,1.2-7.5-3.7-9.1-7.1
							c-5.2-10.7-14.5-38.8-19-47.6c-5.2-10.4-18.9-15.2-25.1-16.9C407,630.4,405.9,628.7,406.1,626.8z"/>
					</g>
					
						<linearGradient id="SVGID_00000142176545010408070860000015667083589485987247_" gradientUnits="userSpaceOnUse" x1="19.7166" y1="202.0045" x2="467.8485" y2="202.0045" gradientTransform="matrix(1 0 0 -1 156.9835 758)">
						<stop  offset="0" style="stop-color:#1F2150"/>
						<stop  offset="1" style="stop-color:#361E44"/>
					</linearGradient>
					<path style="fill:url(#SVGID_00000142176545010408070860000015667083589485987247_);" d="M176.7,579.3
						c0,0,287.2-111.5,375.1-92.9c88,18.6,88.4,64.7,43.8,107.6s-111.2,26.4-111.2,26.4s52.3-31.4,48.7-50.7
						c-3.7-19.4-36.9,24.9-36.9,24.9S322.6,637,179.3,625.8L176.7,579.3z"/>
					<g>
						<polygon class="st2" points="173.2,574.6 189.3,567.2 198.6,627.7 176.2,624 						"/>
						<g>
							
								<linearGradient id="SVGID_00000144317686637970769970000004576733718466656695_" gradientUnits="userSpaceOnUse" x1="16.1902" y1="160.55" x2="41.5901" y2="160.55" gradientTransform="matrix(1 0 0 -1 156.9835 758)">
								<stop  offset="0" style="stop-color:#FCBC67"/>
								<stop  offset="1" style="stop-color:#FAA32B"/>
							</linearGradient>
							<polygon style="fill:url(#SVGID_00000144317686637970769970000004576733718466656695_);" points="173.2,574.6 189.3,567.2 
								198.6,627.7 176.2,624 							"/>
						</g>
					</g>
					<g>
						<path class="st2" d="M550.2,165c0,0-38.8,105.6-36.8,129.4c2,23.8,82.1,201.3,82.1,201.3l66.2,26.6
							C661.6,522.4,647.9,261.2,550.2,165z"/>
						
							<linearGradient id="SVGID_00000101071322416641389330000005703008828995166907_" gradientUnits="userSpaceOnUse" x1="356.3418" y1="414.35" x2="504.7165" y2="414.35" gradientTransform="matrix(1 0 0 -1 156.9835 758)">
							<stop  offset="0" style="stop-color:#394085"/>
							<stop  offset="1" style="stop-color:#563168"/>
						</linearGradient>
						<path style="fill:url(#SVGID_00000101071322416641389330000005703008828995166907_);" d="M550.2,165
							c0,0-38.8,105.6-36.8,129.4c2,23.8,82.1,201.3,82.1,201.3l66.2,26.6C661.6,522.4,647.9,261.2,550.2,165z"/>
						<path class="st2" d="M409.9,471.7c0,0,20.7-49.3,27.4-76.6c6.6-27.3-16.6-167.5-4.1-214.5l-31.9,30l13.5,175.1L409.9,471.7z"
							/>
						
							<linearGradient id="SVGID_00000179648166424557768140000006045332160775435196_" gradientUnits="userSpaceOnUse" x1="244.3165" y1="431.85" x2="281.5236" y2="431.85" gradientTransform="matrix(1 0 0 -1 156.9835 758)">
							<stop  offset="0" style="stop-color:#394085"/>
							<stop  offset="1" style="stop-color:#563168"/>
						</linearGradient>
						<path style="fill:url(#SVGID_00000179648166424557768140000006045332160775435196_);" d="M409.9,471.7
							c0,0,20.7-49.3,27.4-76.6c6.6-27.3-16.6-167.5-4.1-214.5l-31.9,30l13.5,175.1L409.9,471.7z"/>
						
							<linearGradient id="SVGID_00000120517579516153213720000009804374700057443768_" gradientUnits="userSpaceOnUse" x1="370.197" y1="475.9991" x2="490.8165" y2="475.9991" gradientTransform="matrix(1 0 0 -1 156.9835 758)">
							<stop  offset="0" style="stop-color:#1F2150"/>
							<stop  offset="1" style="stop-color:#361E44"/>
						</linearGradient>
						<path style="fill:url(#SVGID_00000120517579516153213720000009804374700057443768_);" d="M645.5,395.2
							c0,0-137.7,26.5-116-225.2l22.4-2c0,0-13.7,95.6,11.5,158.2c25.1,62.6,84.4,59.6,84.4,59.6L645.5,395.2z"/>
						
							<linearGradient id="SVGID_00000046328401060102736870000010367875784177327236_" gradientUnits="userSpaceOnUse" x1="357.1165" y1="537.349" x2="417.6807" y2="537.349" gradientTransform="matrix(1 0 0 -1 156.9835 758)">
							<stop  offset="1.704000e-02" style="stop-color:#8D57A3"/>
							<stop  offset="0.2149" style="stop-color:#7957A4"/>
							<stop  offset="0.4974" style="stop-color:#5357A6"/>
							<stop  offset="1" style="stop-color:#8D57A3"/>
						</linearGradient>
						<path style="fill:url(#SVGID_00000046328401060102736870000010367875784177327236_);" d="M514.1,283.4L560.3,176l14,18.4
							c0,0,2.5-26-5.6-33.6c-8.1-7.6-30.6,1.9-39.5,4.1C520.4,167.3,514.1,283.4,514.1,283.4z"/>
						
							<linearGradient id="SVGID_00000096754677511484880840000013491258206775289507_" gradientUnits="userSpaceOnUse" x1="255.2415" y1="469.9795" x2="284.2723" y2="469.9795" gradientTransform="matrix(1 0 0 -1 156.9835 758)">
							<stop  offset="0" style="stop-color:#1F2150"/>
							<stop  offset="1" style="stop-color:#361E44"/>
						</linearGradient>
						<path style="fill:url(#SVGID_00000096754677511484880840000013491258206775289507_);" d="M441.3,182.3
							c0,0-17.8,52.8-14.9,135.5s-11.9,75.8-11.9,75.8l-2.1-7.8c0,0,8.3-1,7.7-28.8c-0.7-27.9-4.3-140.3,6.4-169.9L441.3,182.3z"/>
						
							<linearGradient id="SVGID_00000158719207654751936990000017722597020416399032_" gradientUnits="userSpaceOnUse" x1="264.1776" y1="528.8278" x2="305.8205" y2="528.8278" gradientTransform="matrix(1 0 0 -1 156.9835 758)">
							<stop  offset="1.704000e-02" style="stop-color:#8D57A3"/>
							<stop  offset="0.2149" style="stop-color:#7957A4"/>
							<stop  offset="0.4974" style="stop-color:#5357A6"/>
							<stop  offset="1" style="stop-color:#8D57A3"/>
						</linearGradient>
						<path style="fill:url(#SVGID_00000158719207654751936990000017722597020416399032_);" d="M431.9,280.3
							c0,0-4.2-79.3,17.9-102.5c0,0-16.7-6.2-23.5,0s-8.4,66.6,4.9,105.5"/>
					</g>
					<path class="st12" d="M543.8,312.6c0,0-20.2,46.8-24.7,53.3c-4.6,6.5-136.1,56.8-136.1,56.8s-12.2-2-24.5,0
						c-12.4,2-9.4,2.3-9.4,4.8c0,5.3,10.4,34.1,10.4,34.1s26.8,3.9,31.8-12c0,0,131.8-41.4,143.5-51.2c11.7-9.8,44.2-67.6,44.2-67.6
						L543.8,312.6z"/>
					
						<linearGradient id="SVGID_00000032623417354638030090000016998913613027563454_" gradientUnits="userSpaceOnUse" x1="228.5165" y1="429.2001" x2="443.0136" y2="429.2001" gradientTransform="matrix(1 0 0 -1 156.9835 758)">
						<stop  offset="0" style="stop-color:#394085"/>
						<stop  offset="1" style="stop-color:#563168"/>
					</linearGradient>
					<path style="fill:url(#SVGID_00000032623417354638030090000016998913613027563454_);" d="M568.7,207.6
						c-21.5,0.1-51.6,131.2-57.4,149c-5.8,17.8-125.8,60-125.8,60l28.3,33.4c0,0,127.6-38.9,138.9-54.9s45.6-107.1,47.2-128.2
						C601.5,245.9,583,207.5,568.7,207.6z"/>
				</g>
			</g>
		</g>
	</g>
</g>
</svg>
