<?xml version="1.0" encoding="utf-8"?>
<!-- Generator: Adobe Illustrator 27.7.0, SVG Export Plug-In . SVG Version: 6.00 Build 0)  -->
<svg version="1.1" id="Layer_2" xmlns="http://www.w3.org/2000/svg" xmlns:xlink="http://www.w3.org/1999/xlink" x="0px" y="0px"
	 viewBox="0 0 763.5 756.9" style="enable-background:new 0 0 763.5 756.9;" xml:space="preserve">
<style type="text/css">
	.st0{fill:#5357A6;}
	.st1{clip-path:url(#SVGID_00000177478147391457949540000005083527573040607416_);}
	.st2{fill:#4375BA;}
	.st3{fill:url(#SVGID_00000023965872157085245780000013811604559592258467_);}
	.st4{opacity:0.1;enable-background:new    ;}
	.st5{fill:url(#SVGID_00000025406565776119295200000016857737837802645930_);}
	.st6{fill:#F5897D;}
	.st7{fill:url(#SVGID_00000090253441054800164170000016467243374714238087_);}
	.st8{fill:#192E35;}
	.st9{fill:url(#SVGID_00000071530938194186468140000003143335020013195414_);}
	.st10{fill:url(#SVGID_00000101789110606101819370000016124969347134398881_);}
	.st11{fill:url(#SVGID_00000016054280767514723690000002379368963505604539_);}
	.st12{fill:#D2D2EA;}
	.st13{opacity:0.2;enable-background:new    ;}
	.st14{fill:#BCB1D7;}
	.st15{opacity:0.2;fill:#FFFFFF;enable-background:new    ;}
	.st16{fill:url(#SVGID_00000083080130706733981830000004907839811150752176_);}
	.st17{fill:url(#SVGID_00000090269612240661402790000009808109523013165751_);}
	.st18{fill:url(#SVGID_00000142859108628027949080000010141637472971549631_);}
	.st19{fill:url(#SVGID_00000106853930867143686140000002450258349685111223_);}
	.st20{fill:url(#SVGID_00000089551359469935917900000016268539116595712692_);}
	.st21{fill:url(#SVGID_00000098900935865785813480000006109771693620967315_);}
	.st22{fill:url(#SVGID_00000084503252467767659900000005223015514285051291_);}
	.st23{fill:url(#SVGID_00000171692151760756759590000014919941433882749116_);}
	.st24{fill:url(#SVGID_00000132065237005976670560000014587719182534826169_);}
	.st25{fill:url(#SVGID_00000089568375003269620340000016963697083065039030_);}
	.st26{fill:url(#SVGID_00000173874032003381924850000011736665667838782385_);}
	.st27{fill:url(#SVGID_00000033350091388956685600000005566512522021308853_);}
	.st28{fill:url(#SVGID_00000142140129539978301570000008256674807384077189_);}
	.st29{fill:url(#SVGID_00000124858688066112379890000001116915759771107976_);}
	.st30{fill:url(#SVGID_00000070082256194595391780000003156805175481092787_);}
	.st31{fill:url(#SVGID_00000141442361397180008570000002224782996407984287_);}
	.st32{fill:url(#SVGID_00000104663837034456487420000005548769483839292307_);}
	.st33{fill:url(#SVGID_00000130634224200563282010000007696112777214353539_);}
	.st34{fill:url(#SVGID_00000085216387965149948670000001888318707815030167_);}
	.st35{fill:url(#SVGID_00000119079952892227010440000017259045063279442060_);}
	.st36{fill:url(#SVGID_00000137101611750067570610000018427971255599288202_);}
	.st37{fill:url(#SVGID_00000179627039534940162170000007237433804190126002_);}
	.st38{fill:url(#SVGID_00000041295102854600462830000008567031882502929793_);}
</style>
<g>
	<g>
		<g id="XMLID_00000181070649674425353480000006246835442687778477_">
			<path id="XMLID_00000180347031819608660690000002003573726923536555_" class="st0" d="M729.2,135.2l0.8-2.6
				c0.2-0.9,0.4-1.8,0.5-2.7c0.2-0.9,0.2-1.7,0.3-2.5l0.1-1.2c0.1-0.6,0-0.9-0.1-1.4c-0.4-6.9-3.6-13.3-8.3-18.4
				c-4.6-5.2-10.2-9.3-15.7-12.7c-5.5-3.4-11.1-6-16.1-8.2c-5.1-2.1-9.6-3.8-13.4-5c-3.8-1.3-6.8-2.1-8.9-2.7
				c-2.1-0.6-3.2-0.9-3.2-0.9s1.1,0.4,3.1,1.1c1,0.4,2.2,0.8,3.7,1.3c1.4,0.5,3.1,1.2,4.9,1.9c3.7,1.4,8,3.2,12.9,5.5
				c4.8,2.3,10.1,5.1,15.2,8.6c5.2,3.5,10.3,7.6,14.4,12.6c4.2,4.9,6.9,10.9,7.1,17.1c0,0.4,0.1,0.8,0,1.1l-0.1,1.2
				c-0.1,0.8-0.1,1.7-0.3,2.4l-0.5,2.3l-0.8,2.3c-1.3,3.1-3.1,6.1-5.4,8.9c-4.7,5.6-11.2,10.6-18.5,14.8
				c-7.3,4.2-15.2,7.9-23.5,10.9c-8.2,3-16.6,5.6-24.9,7.7c-16.6,4.2-32.8,6.9-46.7,8.7c-7,0.9-13.4,1.5-19.1,2
				c-5.7,0.5-10.7,0.8-14.9,1c-4.1,0.2-7.4,0.4-9.6,0.5c-2.2,0.1-3.4,0.1-3.4,0.1s1.2,0,3.4,0.1c2.2,0,5.5,0.1,9.6,0
				c4.2,0,9.2-0.2,15-0.4c5.8-0.3,12.3-0.6,19.4-1.3c7.1-0.6,14.7-1.6,22.7-2.8c8-1.3,16.4-2.8,24.9-4.9c8.5-2.1,17.2-4.5,25.7-7.6
				c8.5-3.1,16.8-6.8,24.4-11.2c7.6-4.4,14.4-9.7,19.5-15.8C726,141.9,727.9,138.6,729.2,135.2z"/>
			<path id="XMLID_00000163050819270069790270000011464697489249723533_" class="st0" d="M576.8,67.4c5.7,0,11.1,0,16.5,0.2
				c10.7,0.3,20.8,1,30.1,1.9c9.3,0.9,17.8,2,25.2,3.1c7.5,1.1,13.9,2.4,19.1,3.5c5.2,1.2,9.4,2.1,12.1,2.8c2.8,0.7,4.2,1.1,4.2,1.1
				s-1.4-0.4-4.2-1.3c-2.7-0.8-6.7-2-11.9-3.3c-10.4-2.6-25.6-5.9-44.2-8c-9.3-1.1-19.5-2-30.3-2.5c-5.4-0.3-11-0.4-16.6-0.5
				c-5.7-0.1-11.5,0-17.4,0.2c-23.6,0.7-48.8,3.3-73.1,8.5c-12.1,2.7-24,6.1-35.1,10.3c-11.1,4.2-21.5,9.3-30.1,15.5
				c-8.7,6.1-15.4,13.7-17.9,21.7c-1.3,4.1-1.6,8.1-0.9,11.9c0.6,3.9,2.3,7.4,4.3,10.6c4,6.5,10.1,11.4,15.7,15.2
				c5.7,3.8,11.3,6.6,15.9,8.8c2.3,1.1,4.4,2,6.3,2.7c1.9,0.8,3.5,1.4,4.8,1.9c2.6,1,4,1.5,4,1.5s-1.4-0.6-3.9-1.6
				c-2.6-1.1-6.2-2.7-10.8-5c-4.5-2.3-9.8-5.2-15.2-9.2c-1.3-1-2.7-2-4-3.1c-0.6-0.6-1.3-1.1-2-1.7c-0.6-0.6-1.2-1.2-1.9-1.8
				c-2.5-2.5-4.9-5.3-6.6-8.4c-1.8-3.1-3.2-6.5-3.7-10.1c-0.5-3.6-0.1-7.4,1.3-11c2.6-7.4,9.1-14.3,17.4-20.1
				c8.3-5.9,18.4-10.7,29.3-14.8c10.9-4.1,22.5-7.3,34.4-9.9c23.8-5.3,48.6-8,71.9-8.9C565.4,67.5,571.2,67.4,576.8,67.4z"/>
			<path id="XMLID_00000113354236853328540980000006340447799486316428_" class="st0" d="M538.3,189.6c-6.5-0.6-13-1.5-19.4-2.3
				c-6.4-0.9-12.8-2-19.2-3.2l-1.9-0.4l-0.6,1.5c-0.3,0.9-0.9,1.9-1.5,2.8c-0.6,1-1.3,1.9-2,2.8c-1.5,1.8-3.2,3.6-5,5.2
				c-3.7,3.3-8.1,6.2-12.9,8.6c-4.8,2.5-10,4.5-15.4,6.2c-2.7,0.9-5.4,1.6-8.2,2.4l-3.2,0.8c0.4-0.6,0.8-1.2,1.2-1.8
				c1.2-1.8,2.3-3.7,3.3-5.6c2-3.8,3.8-7.6,5.2-11.6c1.4-4,2.3-8,2.5-12.2c0.1-2.1,0-4.1-0.4-6.2c-0.2-1-0.5-2.1-0.8-3.1
				c-0.3-1-0.8-2-1.3-3l-0.2-0.4l-0.5-0.2c-7.3-2.7-14.5-5.7-21.5-8.9c-3.5-1.6-6.9-3.3-10.1-5.2c-3.2-1.9-6.4-3.9-8.7-6.4
				c2.1,2.7,5,4.9,8.1,6.9c3.1,2.1,6.4,3.9,9.7,5.8c6.5,3.5,13.4,6.7,20.4,9.6c1.5,3.5,2,7.2,1.6,11c-0.3,3.9-1.4,7.7-2.8,11.5
				c-1.4,3.8-3.2,7.5-5.3,11.1c-1.1,1.8-2.2,3.6-3.3,5.4c-1.2,1.8-2.4,3.5-3.7,5.2l-2.8,3.7l5.5-1.1l4.4-0.9l4.4-1
				c2.9-0.7,5.8-1.5,8.6-2.4c5.6-1.8,11.1-4,16.2-6.7c1.3-0.6,2.5-1.4,3.7-2.1c1.2-0.7,2.4-1.5,3.5-2.2c2.3-1.6,4.4-3.2,6.4-5
				c2-1.8,3.8-3.7,5.3-5.7c0.8-1,1.5-2,2.1-3.1c0.4-0.7,0.7-1.3,1-2c5.9,1,11.7,1.8,17.7,2.5c6.6,0.8,13.2,1.3,19.8,1.7
				c6.6,0.4,13.2,0.6,19.8,0.7c3.3,0,6.6,0.1,9.9,0c3.3,0,6.6-0.1,9.9-0.2c-6.6-0.2-13.2-0.5-19.8-0.9
				C551.3,190.8,544.8,190.2,538.3,189.6z"/>
		</g>
	</g>
</g>
<g>
	<defs>
		<rect id="SVGID_1_" x="-16.2" y="-22.8" width="779.7" height="779.7"/>
	</defs>
	<clipPath id="SVGID_00000060748674115137268950000004552456314265179534_">
		<use xlink:href="#SVGID_1_"  style="overflow:visible;"/>
	</clipPath>
	<g style="clip-path:url(#SVGID_00000060748674115137268950000004552456314265179534_);">
		<g>
			<path class="st2" d="M-57.1,1005.4c0,0,102.2-375.8,120.8-389.8c18.6-13.9,124.5-53.1,124.5-53.1s257.8,43,296.5,38.8
				c38.7-4.3,163.2-28.3,181.1,0c17.9,28.3,88.3,197.8,88.3,197.8l99,41.8l62.7,164.5H-57.1z"/>
			
				<linearGradient id="SVGID_00000170256119429965853850000012056106752153006214_" gradientUnits="userSpaceOnUse" x1="828.4445" y1="783.9706" x2="1801.4231" y2="783.9706" gradientTransform="matrix(-1 0 0 1 1744.3165 0)">
				<stop  offset="0" style="stop-color:#394085"/>
				<stop  offset="1" style="stop-color:#563168"/>
			</linearGradient>
			<path style="fill:url(#SVGID_00000170256119429965853850000012056106752153006214_);" d="M915.9,1005.4h-973
				c0,0,101.7-374.1,120.6-389.7c0.1,0,0.1-0.1,0.1-0.1c3.8-2.9,11.3-6.8,20.8-11.2c36.8-17.1,103.7-41.9,103.7-41.9
				s257.8,43.1,296.5,38.8c38.7-4.3,163.2-28.3,181.1,0c3.8,6,10,18.4,17.4,34.3c27.3,58.5,71,163.5,71,163.5l99,41.8L915.9,1005.4z
				"/>
			<path class="st4" d="M683.2,635.6l-38.4,38l-100.2-23.6l-113.3,23.6l7.3,43.8l-41.3,49.1l14.7-49.1l-32.1-54
				c0,0-130.4,7.9-164.4,0c-21.4-5-85.9-36.4-130.9-59c36.8-17.1,103.7-41.9,103.7-41.9s257.8,43.1,296.5,38.8
				c38.7-4.3,163.2-28.3,181.1,0C669.6,607.3,675.8,619.8,683.2,635.6z"/>
			<path class="st4" d="M915.9,1005.4h-973c0,0,101.7-374.1,120.6-389.7c0.1,0,0.1-0.1,0.1-0.1L0.9,907.2l31.3,48.3l77-58.5l59.1,33
				l82-16.6l8.1-39.7l116.1-76.4L301.7,865l25.7,77L439,961.3h123.3l51-34l-17-69.1l-25.7-40.1l130.1-0.3l-55.4,34.3l20.4,60.9
				l62.6,29.1l72.8-44.9l29.7,85.8L915.9,1005.4z"/>
		</g>
		<g id="_x3C_Group_x3E__00000129194829467570572800000003473239628904239505_">
			
				<linearGradient id="SVGID_00000039132310640749636860000003420701836665365663_" gradientUnits="userSpaceOnUse" x1="1409.7944" y1="291.2783" x2="1707.7052" y2="291.2783" gradientTransform="matrix(-1 0 0 1 1744.3165 0)">
				<stop  offset="0" style="stop-color:#1F2150"/>
				<stop  offset="1" style="stop-color:#361E44"/>
			</linearGradient>
			<path style="fill:url(#SVGID_00000039132310640749636860000003420701836665365663_);" d="M286.9,161.5c0,0-148-23.1-176.3-11
				s-37.6,55.7-37.6,55.7s-5,8.8,10.3,9.9c0,0-62.6,156.1-42.8,186c19.8,29.9,219.3,41.9,246.4,27.2
				C314,414.7,379,172.5,286.9,161.5z"/>
			<path class="st6" d="M374.1,310.2c0,0,19.6,45.5,24,51.8c4.4,6.3,101.9,51.2,101.9,51.2s11.8-1.9,23.8,0
				c12,1.9,28.6,6.9,30.1,8.8c1.5,1.9-18.1,30.3-18.1,30.3s-39,2.4-43.8-13c0,0-97.7-36.3-109.1-45.8c-11.4-9.5-43-65.7-43-65.7
				L374.1,310.2z"/>
			
				<linearGradient id="SVGID_00000009570322150045165330000017381139537508764820_" gradientUnits="userSpaceOnUse" x1="1264.1554" y1="321.681" x2="1429.9038" y2="321.681" gradientTransform="matrix(-1 0 0 1 1744.3165 0)">
				<stop  offset="0" style="stop-color:#394085"/>
				<stop  offset="1" style="stop-color:#563168"/>
			</linearGradient>
			<path style="fill:url(#SVGID_00000009570322150045165330000017381139537508764820_);" d="M346,210.6
				c18.3,10.9,47,128.5,53.1,142.4c6.2,13.9,81,47.9,81,47.9L447,432.7c0,0-75.7-33.5-85.2-43.1c-9.6-9.6-47.3-107.1-47.3-107.1
				L346,210.6z"/>
			<g>
				<path class="st8" d="M339.9,479.3c0,0,308.7-44.3,325,23.4c17.2,71.6-230.6,119.9-378.8,125c-148.1,5.1-190.8-27.5-167-210.6
					l199.9-0.5L339.9,479.3z"/>
				
					<linearGradient id="SVGID_00000123417382351935259340000009026217848384576404_" gradientUnits="userSpaceOnUse" x1="1078.5386" y1="522.3578" x2="1631.3279" y2="522.3578" gradientTransform="matrix(-1 0 0 1 1744.3165 0)">
					<stop  offset="0" style="stop-color:#0F1634"/>
					<stop  offset="1" style="stop-color:#271535"/>
				</linearGradient>
				<path style="fill:url(#SVGID_00000123417382351935259340000009026217848384576404_);" d="M339.9,479.3c0,0,308.7-44.3,325,23.4
					c17.2,71.6-230.6,119.9-378.8,125c-148.1,5.1-190.8-27.5-167-210.6l199.9-0.5L339.9,479.3z"/>
			</g>
			<g>
				<g>
					
						<linearGradient id="SVGID_00000124862572474449890840000014453916569540317371_" gradientUnits="userSpaceOnUse" x1="1111.7845" y1="575.0838" x2="1126.9916" y2="575.0838" gradientTransform="matrix(-1 0 0 1 1744.3165 0)">
						<stop  offset="0" style="stop-color:#FCBC67"/>
						<stop  offset="1" style="stop-color:#FAA32B"/>
					</linearGradient>
					<path style="fill:url(#SVGID_00000124862572474449890840000014453916569540317371_);" d="M618.7,584.2
						c-0.3,0.2-0.8,0.2-1.1-0.1c-0.3-0.2-0.4-0.6-0.3-0.9c0.5-1.6,5.4-15.9,10.4-17.4c1.1-0.3,2.2,0.1,3,0.9c1.4,1.2,2.1,3,1.8,4.8
						c-0.8,2.7-2.4,5-4.6,6.7C625,580.5,622,582.5,618.7,584.2z M620,581.5c4.6-2,8.4-5.6,10.6-10.2c0.3-1.2-0.2-2.5-1.3-3.3
						c-0.3-0.3-0.7-0.5-1.2-0.3c-0.4,0.1-0.8,0.4-1.1,0.7C623.9,572.3,621.5,576.7,620,581.5z"/>
				</g>
				<g>
					
						<linearGradient id="SVGID_00000009584536547680320310000003764660833673739171_" gradientUnits="userSpaceOnUse" x1="1123.9252" y1="574.6522" x2="1133.0703" y2="574.6522" gradientTransform="matrix(-1 0 0 1 1744.3165 0)">
						<stop  offset="0" style="stop-color:#FCBC67"/>
						<stop  offset="1" style="stop-color:#FAA32B"/>
					</linearGradient>
					<path style="fill:url(#SVGID_00000009584536547680320310000003764660833673739171_);" d="M618.5,584.4c-0.3,0.1-0.7,0-0.9-0.3
						c-0.5-0.4-7.3-9-6.2-14.9c0.3-1.5,1.1-2.7,2.4-3.6c1.1-1,2.7-1.2,3.9-0.4c3.6,2.5,3.1,14.1,1.4,18.5l-0.1,0.4
						C618.8,584.3,618.6,584.4,618.5,584.4z M614.6,567.5c-0.6,0.5-1,1.3-1.2,2.1c-0.7,3.7,2.7,9.2,4.6,11.9
						c1.1-4.9,0.8-13-1.3-14.5c-0.2-0.1-0.7-0.5-1.7,0.3L614.6,567.5L614.6,567.5z"/>
				</g>
			</g>
			<polygon class="st12" points="511.8,620.5 576.5,620.5 607.6,620.6 611.3,587.9 582.6,584 512.4,574.7 			"/>
			<path class="st8" d="M604.3,583.8l-7.9,37.3c-0.4,2.1,0.9,4.1,3,4.5l18.6,3.3c0,0,24.7,6.3,31.6,1.9c20.3-13,39.8-95,31.5-101.1
				c-3-2.2-8.3,1.1-10.9,3.8c-8.3,8.5-26.1,32.2-33.1,39.2c-8.2,8.2-22.8,8.4-29.1,8.1C606.3,580.7,604.7,582,604.3,583.8z"/>
			<polygon class="st13" points="511.8,620.5 576.5,620.5 582.6,584 512.4,574.7 			"/>
			<g>
				<g>
					<path class="st8" d="M267.5,477v8.2c0,5.5,4.6,10.6,10.1,10.6h301.1c5.5,0,10.9-5.1,10.9-10.6V477H267.5z"/>
					<path class="st14" d="M267.5,477v8.2c0,5.5,4.6,10.6,10.1,10.6h301.1c5.5,0,10.9-5.1,10.9-10.6V477H267.5z"/>
					<path class="st12" d="M379.8,477v8.2c0,5.5,4.7,10.6,10.2,10.6h188.7c5.5,0,10.9-5.1,10.9-10.6V477H379.8z"/>
				</g>
				<g>
					<path class="st8" d="M390,488.3h198.9c6.1,0,12.6-4.8,14.5-10.7l45.6-143.1c1.9-5.9-1.5-11-7.6-11H442.4
						c-6.1,0-12.6,5.1-14.5,11l-45.6,142.9C380.5,483.3,383.9,488.3,390,488.3z"/>
					<path class="st14" d="M390,488.3h198.9c6.1,0,12.6-4.8,14.5-10.7l45.6-143.1c1.9-5.9-1.5-11-7.6-11H442.4
						c-6.1,0-12.6,5.1-14.5,11l-45.6,142.9C380.5,483.3,383.9,488.3,390,488.3z"/>
					<path class="st12" d="M397.5,488.3h191.4c6.1,0,12.6-4.8,14.5-10.7l45.6-143.1c1.9-5.9-1.5-11-7.6-11H449.9
						c-6.1,0-12.6,5.1-14.5,11l-45.6,142.9C387.9,483.3,391.4,488.3,397.5,488.3z"/>
				</g>
				<path class="st15" d="M513.8,412.4c-2.5,9.5,2.3,17.3,10.6,17.3c8.3,0,17-7.7,19.5-17.3c2.5-9.5-2.3-17.3-10.6-17.3
					S516.3,402.9,513.8,412.4z"/>
			</g>
			
				<linearGradient id="SVGID_00000050652319860704163070000005636114078582929072_" gradientUnits="userSpaceOnUse" x1="1061.1768" y1="580.6325" x2="1148" y2="580.6325" gradientTransform="matrix(-1 0 0 1 1744.3165 0)">
				<stop  offset="0" style="stop-color:#394085"/>
				<stop  offset="1" style="stop-color:#563168"/>
			</linearGradient>
			<path style="fill:url(#SVGID_00000050652319860704163070000005636114078582929072_);" d="M604.3,583.8l-7.9,37.3
				c-0.4,2.1,0.9,4.1,3,4.5l18.6,3.3c0,0,24.7,6.3,31.6,1.9c20.3-13,39.8-95,31.5-101.1c-3-2.2-8.3,1.1-10.9,3.8
				c-8.3,8.5-26.1,32.2-33.1,39.2c-8.2,8.2-22.8,8.4-29.1,8.1C606.3,580.7,604.7,582,604.3,583.8z"/>
			<g>
				<polygon points="178.6,443 116.1,443.8 117.3,423.5 178.6,422.2 				"/>
				<polygon points="301.8,419.5 320.4,419.1 327.1,441.1 301.8,441.4 				"/>
				
					<linearGradient id="SVGID_00000178911629666716032040000016896860346919794879_" gradientUnits="userSpaceOnUse" x1="1450.5304" y1="431.3001" x2="1556.1445" y2="431.3001" gradientTransform="matrix(-1 0 0 1 1744.3165 0)">
					<stop  offset="0" style="stop-color:#0E1119"/>
					<stop  offset="1" style="stop-color:#1B1124"/>
				</linearGradient>
				<polygon style="fill:url(#SVGID_00000178911629666716032040000016896860346919794879_);" points="293.8,419.7 293.8,441.5 
					188.2,442.9 188.2,422 				"/>
				<g>
					<path class="st12" d="M232.9,437.7l-0.3-8.5c-0.2-4.7,3.3-8.7,7.7-8.9l19.1-0.8c2.1-0.1,4.2,0.7,5.8,2.3c1.6,1.6,2.5,3.7,2.6,6
						l0.3,8.5c0.2,4.7-3.3,8.7-7.7,8.9l-19.1,0.8l0,0c-0.1,0-0.2,0-0.3,0C236.7,445.9,233.1,442.3,232.9,437.7z M260.2,441.6
						c2.6-0.1,4.6-2.4,4.5-5.2l-0.3-8.5c0-1.3-0.6-2.6-1.5-3.5c-0.9-0.9-2.1-1.4-3.4-1.3l-19.1,0.8c-2.6,0.1-4.6,2.4-4.5,5.2
						l0.3,8.5c0.1,2.8,2.2,4.9,4.9,4.8L260.2,441.6z"/>
				</g>
				<g>
					<path class="st12" d="M236.2,434.9h9.6c1.2,0,2.2-1,2.2-2.2c0-1.2-1-2.2-2.2-2.2h-9.6c-1.2,0-2.2,1-2.2,2.2
						C234,433.9,235,434.9,236.2,434.9z"/>
				</g>
			</g>
			<g>
				<path class="st2" d="M346,210.6c0,0-24.1,152.3-14,206.7l-222.7,6.5c0,0,26.3-157.3,61.4-216.6
					C170.7,207.2,228.9,110.1,346,210.6z"/>
				
					<linearGradient id="SVGID_00000132785948824760601720000016207787360584245928_" gradientUnits="userSpaceOnUse" x1="1398.2838" y1="294.4258" x2="1635.009" y2="294.4258" gradientTransform="matrix(-1 0 0 1 1744.3165 0)">
					<stop  offset="1.704000e-02" style="stop-color:#9C6CAE"/>
					<stop  offset="0.244" style="stop-color:#876DB1"/>
					<stop  offset="0.4974" style="stop-color:#6A6FB4"/>
					<stop  offset="1" style="stop-color:#8D57A3"/>
				</linearGradient>
				<path style="fill:url(#SVGID_00000132785948824760601720000016207787360584245928_);" d="M346,210.6c0,0-24.1,152.3-14,206.7
					l-222.7,6.5c0,0,26.3-157.3,61.4-216.6C170.7,207.2,228.9,110.1,346,210.6z"/>
			</g>
			<g>
				<path class="st12" d="M215.4,176.7c0,0,36.9,36.1,58.3,30.2c21.4-5.9,29.3-16.8,29.3-16.8s-17.1-7.5-15.3-11.6
					c0.2-0.5,0.8-1.3,1.5-2.5c6.4-9.7,29-40.6,29-40.6l-48.6-27.2c0,0-4,9.4-8.9,20.6c-6.6,14.8-14.8,32.9-17.6,36.2
					C238.4,170.9,215.4,176.7,215.4,176.7z"/>
				<path class="st13" d="M260.8,128.8c3.1,17.1,10.5,37.4,28.5,47.2c6.4-9.7,29-40.6,29-40.6l-48.6-27.2
					C269.7,108.2,265.7,117.6,260.8,128.8z"/>
			</g>
			<g>
				
					<linearGradient id="SVGID_00000180335738292434463800000005309276843984023231_" gradientUnits="userSpaceOnUse" x1="2236.0671" y1="-41.364" x2="2267.8638" y2="-41.364" gradientTransform="matrix(-0.9118 0.4106 0.4106 0.9118 2305.2024 -747.9639)">
					<stop  offset="0" style="stop-color:#1F2150"/>
					<stop  offset="1" style="stop-color:#361E44"/>
				</linearGradient>
				<path style="fill:url(#SVGID_00000180335738292434463800000005309276843984023231_);" d="M223.4,111.7c0,0,1.9,16,7.2,25.6
					c5.3,9.5-4.3,17.9-8.4,12.5c0,0,6.8,14.6,15.3,8.1c0,0,4.5,10.2,13.1,6.5c0,0,5-20.8-4.8-39.2
					C236,106.7,223.4,111.7,223.4,111.7z"/>
				<path class="st8" d="M277.8,28.7c-11.8,12.5,5.9,44.9,42.8,62.8c9-19.3,2.5-51.6-6.2-61.6C300.5,13.9,288.1,17.8,277.8,28.7z"/>
				<path class="st12" d="M335.6,100.9c0,0,0,0,0,0.1c0.4,4.7,0.6,9.2,0.5,13.3c-1.2,35.4-39.6,59.5-70.7,39
					c-0.1-0.1-0.2-0.1-0.3-0.2c-20.7-13.9-24.3-34-33.4-67.5c-2-7.1-2.3-14.5-0.9-21.7c4.9-25.7,29.6-42.5,55.3-37.7
					C317.4,32.1,332.8,70.1,335.6,100.9z"/>
				
					<linearGradient id="SVGID_00000063611864751980972530000009417250592969738888_" gradientUnits="userSpaceOnUse" x1="2177.8149" y1="-69.9719" x2="2184.6802" y2="-69.9719" gradientTransform="matrix(-0.9118 0.4106 0.4106 0.9118 2305.2024 -747.9639)">
					<stop  offset="0" style="stop-color:#1F2150"/>
					<stop  offset="1" style="stop-color:#361E44"/>
				</linearGradient>
				<path style="fill:url(#SVGID_00000063611864751980972530000009417250592969738888_);" d="M284.3,84.6c0.6,2.8,2.5,4.7,4.3,4.3
					c1.8-0.4,2.8-2.9,2.2-5.6c-0.6-2.8-2.5-4.7-4.3-4.4C284.8,79.2,284,81.8,284.3,84.6z"/>
				
					<linearGradient id="SVGID_00000128463703672654011620000007782178181741964687_" gradientUnits="userSpaceOnUse" x1="2146.49" y1="-62.9115" x2="2153.4106" y2="-62.9115" gradientTransform="matrix(-0.9118 0.4106 0.4106 0.9118 2305.2024 -747.9639)">
					<stop  offset="0" style="stop-color:#1F2150"/>
					<stop  offset="1" style="stop-color:#361E44"/>
				</linearGradient>
				<path style="fill:url(#SVGID_00000128463703672654011620000007782178181741964687_);" d="M315.7,78.2c0.6,2.8,2.5,4.7,4.3,4.3
					c1.8-0.4,2.8-2.9,2.3-5.7c-0.6-2.8-2.5-4.7-4.3-4.3S315.2,75.4,315.7,78.2z"/>
				<path class="st13" d="M305.8,81.6c5,7.8,11.1,14.8,18.1,20.9c-4.1,5.6-12.7,5.2-12.7,5.2L305.8,81.6z"/>
				
					<linearGradient id="SVGID_00000093156989772122797780000001666818545732588966_" gradientUnits="userSpaceOnUse" x1="2175.7834" y1="-85.9324" x2="2192.2078" y2="-85.9324" gradientTransform="matrix(-0.9118 0.4106 0.4106 0.9118 2305.2024 -747.9639)">
					<stop  offset="0" style="stop-color:#1F2150"/>
					<stop  offset="1" style="stop-color:#361E44"/>
				</linearGradient>
				<path style="fill:url(#SVGID_00000093156989772122797780000001666818545732588966_);" d="M273.7,76.4c-0.4,0.1-0.7,0.1-1.1,0
					c-0.8-0.4-1.2-1.4-0.8-2.2c2.2-4.9,6.6-8.4,11.8-9.4c0.9-0.1,1.7,0.4,1.8,1.3c0,0,0,0.1,0,0.1c0.1,0.9-0.5,1.7-1.4,1.9l0,0
					c-4.1,0.9-7.6,3.7-9.3,7.5C274.6,76,274.2,76.3,273.7,76.4z"/>
				
					<linearGradient id="SVGID_00000163770529932866732600000002703026992706641040_" gradientUnits="userSpaceOnUse" x1="2134.6306" y1="-77.8884" x2="2146.4346" y2="-77.8884" gradientTransform="matrix(-0.9118 0.4106 0.4106 0.9118 2305.2024 -747.9639)">
					<stop  offset="0" style="stop-color:#1F2150"/>
					<stop  offset="1" style="stop-color:#361E44"/>
				</linearGradient>
				<path style="fill:url(#SVGID_00000163770529932866732600000002703026992706641040_);" d="M327.9,64.6c-0.6,0.1-1.3-0.1-1.7-0.6
					c-2.5-3.4-6.4-5.5-10.6-5.5c-0.9,0.1-1.7-0.6-1.8-1.5c-0.1-0.9,0.6-1.7,1.5-1.8c5.3-0.1,10.4,2.5,13.5,6.8
					c0.6,0.7,0.4,1.7-0.3,2.3c0,0,0,0,0,0C328.3,64.5,328.1,64.6,327.9,64.6z"/>
				
					<linearGradient id="SVGID_00000087369966497272018950000017262840371323074951_" gradientUnits="userSpaceOnUse" x1="2796.2646" y1="-477.403" x2="2817.7676" y2="-477.403" gradientTransform="matrix(-0.649 0.7608 0.7603 0.6486 2496.0005 -1701.1553)">
					<stop  offset="0" style="stop-color:#1F2150"/>
					<stop  offset="1" style="stop-color:#361E44"/>
				</linearGradient>
				<path style="fill:url(#SVGID_00000087369966497272018950000017262840371323074951_);" d="M324.2,122.5c0.2-0.2,0.2-0.6,0-0.9
					c-0.2-0.3-0.7-0.3-1-0.1c-12.4,10.3-23.8,5.4-23.9,5.4c-0.3-0.2-0.7,0-0.9,0.3c-0.2,0.3,0,0.7,0.3,0.9
					C298.9,128.2,311,133.5,324.2,122.5C324.1,122.6,324.1,122.6,324.2,122.5z"/>
				
					<linearGradient id="SVGID_00000165192668227225152410000006210504716712191142_" gradientUnits="userSpaceOnUse" x1="2127.8557" y1="-108.2292" x2="2247.8633" y2="-108.2292" gradientTransform="matrix(-0.9118 0.4106 0.4106 0.9118 2305.2024 -747.9639)">
					<stop  offset="0" style="stop-color:#1F2150"/>
					<stop  offset="1" style="stop-color:#361E44"/>
				</linearGradient>
				<path style="fill:url(#SVGID_00000165192668227225152410000006210504716712191142_);" d="M316.3,41.4c0,0,6.1-11.3,2-19.5
					c-6-11.9-17-16.7-27.8-17.9c-8.2-1.2-18.8-0.1-32.7,5.2c-36.5,13.9-51.1,33.3-48.6,55.1c-0.7,8.4,5,20.9,13.6,31.1
					c0,0.1,0.1,0.1,0.1,0.2c0,0,0,0,0,0c5.1,6,11.2,11.2,17.6,14.2c13.2-28.6,15.3-45.5,7.9-52.8c0.6-0.5,7.1-15,11.7-17.4
					c6.7-3.5,22.4-2.7,35.5-1.2c7.2,0.8,10.6-7.2,10.6-7.2L316.3,41.4z"/>
				<path class="st12" d="M221.1,116.1c4.1,7.7,11,13.6,19.3,16.2c11.1,3.4,16.8-6.5,14-17.1c-2.6-9.5-11.4-22.8-22.6-21.5
					C220.7,95,216.2,106.6,221.1,116.1z"/>
			</g>
			<g>
				<g>
					
						<linearGradient id="SVGID_00000006694552996051240470000007365293466111196860_" gradientUnits="userSpaceOnUse" x1="1422.886" y1="646.0297" x2="1432.0081" y2="646.0297" gradientTransform="matrix(-1 0 0 1 1744.3165 0)">
						<stop  offset="0" style="stop-color:#FCBC67"/>
						<stop  offset="1" style="stop-color:#FAA32B"/>
					</linearGradient>
					<path style="fill:url(#SVGID_00000006694552996051240470000007365293466111196860_);" d="M318.8,635.7c0.2-0.3,0.6-0.5,1-0.5
						c0.4,0,0.6,0.3,0.7,0.7c0.3,1.7,2.6,16.6-1.1,20.2c-0.8,0.7-2,1-3,0.6c-1.8-0.4-3.2-1.7-3.8-3.4c-0.5-2.7-0.2-5.6,1-8.1
						C315,641.9,316.7,638.7,318.8,635.7z M318.9,638.7c-3.1,3.9-4.8,8.9-4.6,13.9c0.3,1.2,1.4,2.1,2.6,2.3c0.4,0.2,0.9,0.1,1.2-0.2
						c0.3-0.3,0.5-0.7,0.7-1.1C319.8,648.6,319.8,643.6,318.9,638.7z"/>
				</g>
				<polygon class="st12" points="417.3,562.8 355.9,583.2 326.4,593 333.3,625.2 361.7,619.7 431.3,606.4 				"/>
				<path class="st8" d="M341.2,626.8l-4.3-37.9c-0.2-2.1-2.2-3.6-4.3-3.3l-18.7,2.7c0,0-25.4,1.8-30.6,8.2
					c-15.1,18.7-7.7,102.8,2.1,105.9c3.6,1.2,7.5-3.7,9.1-7.1c5.2-10.7,14.5-38.8,19-47.6c5.2-10.4,18.9-15.2,25.1-16.9
					C340.3,630.4,341.4,628.7,341.2,626.8z"/>
				<g>
					
						<linearGradient id="SVGID_00000137830847548560772490000007378569234258568365_" gradientUnits="userSpaceOnUse" x1="1411.8264" y1="643.5016" x2="1425.7294" y2="643.5016" gradientTransform="matrix(-1 0 0 1 1744.3165 0)">
						<stop  offset="0" style="stop-color:#FCBC67"/>
						<stop  offset="1" style="stop-color:#FAA32B"/>
					</linearGradient>
					<path style="fill:url(#SVGID_00000137830847548560772490000007378569234258568365_);" d="M318.9,635.4c0.2-0.3,0.6-0.3,0.9-0.2
						c0.6,0.1,10.7,4.6,12.4,10.3c0.4,1.4,0.3,3-0.4,4.3c-0.5,1.4-1.8,2.3-3.3,2.2c-4.3-0.6-9.3-11-9.8-15.7l-0.1-0.4
						C318.7,635.6,318.8,635.5,318.9,635.4z M330.2,648.5c0.3-0.8,0.3-1.6,0.1-2.4c-1.1-3.6-6.7-6.9-9.6-8.4
						c1.3,4.9,5.4,11.9,7.9,12.2c0.3,0,0.8,0.1,1.4-1.1L330.2,648.5L330.2,648.5z"/>
				</g>
				<polygon class="st13" points="417.3,562.8 355.9,583.2 361.7,619.7 431.3,606.4 				"/>
				<g>
					<polygon class="st2" points="372.4,625.4 389.9,627.1 379.4,566.5 359.3,577.1 					"/>
					<g>
						
							<linearGradient id="SVGID_00000057133580992301026440000009701174725771906720_" gradientUnits="userSpaceOnUse" x1="1354.412" y1="596.7899" x2="1384.9824" y2="596.7899" gradientTransform="matrix(-1 0 0 1 1744.3165 0)">
							<stop  offset="0" style="stop-color:#FCBC67"/>
							<stop  offset="1" style="stop-color:#FAA32B"/>
						</linearGradient>
						<polygon style="fill:url(#SVGID_00000057133580992301026440000009701174725771906720_);" points="372.4,625.4 389.9,627.1 
							379.4,566.5 359.3,577.1 						"/>
					</g>
				</g>
				
					<linearGradient id="SVGID_00000030480793678347526230000007184704664771220404_" gradientUnits="userSpaceOnUse" x1="1403.0884" y1="644.1498" x2="1469.6616" y2="644.1498" gradientTransform="matrix(-1 0 0 1 1744.3165 0)">
					<stop  offset="0" style="stop-color:#394085"/>
					<stop  offset="1" style="stop-color:#563168"/>
				</linearGradient>
				<path style="fill:url(#SVGID_00000030480793678347526230000007184704664771220404_);" d="M341.2,626.8l-4.3-37.9
					c-0.2-2.1-2.2-3.6-4.3-3.3l-18.7,2.7c0,0-25.4,1.8-30.6,8.2c-15.1,18.7-7.7,102.8,2.1,105.9c3.6,1.2,7.5-3.7,9.1-7.1
					c5.2-10.7,14.5-38.8,19-47.6c5.2-10.4,18.9-15.2,25.1-16.9C340.3,630.4,341.4,628.7,341.2,626.8z"/>
			</g>
			
				<linearGradient id="SVGID_00000134936225548711108990000014377976442949024932_" gradientUnits="userSpaceOnUse" x1="1173.6799" y1="555.9609" x2="1621.8278" y2="555.9609" gradientTransform="matrix(-1 0 0 1 1744.3165 0)">
				<stop  offset="0" style="stop-color:#1F2150"/>
				<stop  offset="1" style="stop-color:#361E44"/>
			</linearGradient>
			<path style="fill:url(#SVGID_00000134936225548711108990000014377976442949024932_);" d="M570.6,579.3
				c0,0-287.2-111.5-375.1-92.9c-88,18.6-88.4,64.7-43.8,107.6c44.6,42.9,111.2,26.4,111.2,26.4s-52.3-31.4-48.7-50.7
				c3.7-19.4,36.9,24.9,36.9,24.9S424.7,637,568,625.8L570.6,579.3z"/>
			<g>
				<polygon class="st2" points="574.1,574.6 558,567.2 548.7,627.7 571.1,624 				"/>
				<g>
					
						<linearGradient id="SVGID_00000140712844265421858680000017607014037012780458_" gradientUnits="userSpaceOnUse" x1="1170.1902" y1="597.4664" x2="1195.601" y2="597.4664" gradientTransform="matrix(-1 0 0 1 1744.3165 0)">
						<stop  offset="0" style="stop-color:#FCBC67"/>
						<stop  offset="1" style="stop-color:#FAA32B"/>
					</linearGradient>
					<polygon style="fill:url(#SVGID_00000140712844265421858680000017607014037012780458_);" points="574.1,574.6 558,567.2 
						548.7,627.7 571.1,624 					"/>
				</g>
			</g>
			<g>
				<path class="st2" d="M197.1,165c0,0,38.8,105.6,36.8,129.4c-2,23.8-82.1,201.3-82.1,201.3l-66.2,26.6
					C85.7,522.4,99.4,261.2,197.1,165z"/>
				
					<linearGradient id="SVGID_00000027574661416442500120000007983420163061186191_" gradientUnits="userSpaceOnUse" x1="1510.2528" y1="343.6935" x2="1658.6315" y2="343.6935" gradientTransform="matrix(-1 0 0 1 1744.3165 0)">
					<stop  offset="0" style="stop-color:#394085"/>
					<stop  offset="1" style="stop-color:#563168"/>
				</linearGradient>
				<path style="fill:url(#SVGID_00000027574661416442500120000007983420163061186191_);" d="M197.1,165c0,0,38.8,105.6,36.8,129.4
					c-2,23.8-82.1,201.3-82.1,201.3l-66.2,26.6C85.7,522.4,99.4,261.2,197.1,165z"/>
				<path class="st2" d="M337.4,471.7c0,0-20.7-49.3-27.4-76.6c-6.6-27.3,16.6-167.5,4.1-214.5l31.9,30l-13.5,175.1L337.4,471.7z"/>
				
					<linearGradient id="SVGID_00000182492849379200790900000010811797740219940787_" gradientUnits="userSpaceOnUse" x1="1398.2838" y1="326.1829" x2="1435.5068" y2="326.1829" gradientTransform="matrix(-1 0 0 1 1744.3165 0)">
					<stop  offset="0" style="stop-color:#394085"/>
					<stop  offset="1" style="stop-color:#563168"/>
				</linearGradient>
				<path style="fill:url(#SVGID_00000182492849379200790900000010811797740219940787_);" d="M337.4,471.7c0,0-20.7-49.3-27.4-76.6
					c-6.6-27.3,16.6-167.5,4.1-214.5l31.9,30l-13.5,175.1L337.4,471.7z"/>
				
					<linearGradient id="SVGID_00000033353027872273501500000009151030518459090581_" gradientUnits="userSpaceOnUse" x1="1524.2383" y1="281.9808" x2="1644.8827" y2="281.9808" gradientTransform="matrix(-1 0 0 1 1744.3165 0)">
					<stop  offset="0" style="stop-color:#1F2150"/>
					<stop  offset="1" style="stop-color:#361E44"/>
				</linearGradient>
				<path style="fill:url(#SVGID_00000033353027872273501500000009151030518459090581_);" d="M101.8,395.2c0,0,137.7,26.5,116-225.2
					l-22.4-2c0,0,13.7,95.6-11.5,158.2c-25.1,62.6-84.4,59.6-84.4,59.6L101.8,395.2z"/>
				
					<linearGradient id="SVGID_00000169536329928944842630000015035707370948773760_" gradientUnits="userSpaceOnUse" x1="1511.132" y1="220.6929" x2="1571.746" y2="220.6929" gradientTransform="matrix(-1 0 0 1 1744.3165 0)">
					<stop  offset="1.704000e-02" style="stop-color:#8D57A3"/>
					<stop  offset="0.2149" style="stop-color:#7957A4"/>
					<stop  offset="0.4974" style="stop-color:#5357A6"/>
					<stop  offset="1" style="stop-color:#8D57A3"/>
				</linearGradient>
				<path style="fill:url(#SVGID_00000169536329928944842630000015035707370948773760_);" d="M233.2,283.4L187,176l-14,18.4
					c0,0-2.5-26,5.6-33.6s30.6,1.9,39.5,4.1C226.9,167.3,233.2,283.4,233.2,283.4z"/>
				
					<linearGradient id="SVGID_00000028297337937302179270000010659131852158738871_" gradientUnits="userSpaceOnUse" x1="1409.2415" y1="288.0128" x2="1438.2723" y2="288.0128" gradientTransform="matrix(-1 0 0 1 1744.3165 0)">
					<stop  offset="0" style="stop-color:#1F2150"/>
					<stop  offset="1" style="stop-color:#361E44"/>
				</linearGradient>
				<path style="fill:url(#SVGID_00000028297337937302179270000010659131852158738871_);" d="M306,182.3c0,0,17.8,52.8,14.9,135.5
					s11.9,75.8,11.9,75.8l2.1-7.8c0,0-8.3-1-7.7-28.8c0.7-27.9,4.3-140.3-6.4-169.9L306,182.3z"/>
				
					<linearGradient id="SVGID_00000004510965556778023960000007079138224000719244_" gradientUnits="userSpaceOnUse" x1="1418.1819" y1="229.23" x2="1459.8248" y2="229.23" gradientTransform="matrix(-1 0 0 1 1744.3165 0)">
					<stop  offset="1.704000e-02" style="stop-color:#8D57A3"/>
					<stop  offset="0.2149" style="stop-color:#7957A4"/>
					<stop  offset="0.4974" style="stop-color:#5357A6"/>
					<stop  offset="1" style="stop-color:#8D57A3"/>
				</linearGradient>
				<path style="fill:url(#SVGID_00000004510965556778023960000007079138224000719244_);" d="M315.4,280.3c0,0,4.2-79.3-17.9-102.5
					c0,0,16.7-6.2,23.5,0c6.8,6.2,8.4,66.6-4.9,105.5"/>
			</g>
			<path class="st12" d="M203.5,312.6c0,0,20.2,46.8,24.7,53.3c4.6,6.5,136.1,56.8,136.1,56.8s12.2-2,24.5,0c12.4,2,9.4,2.3,9.4,4.8
				c0,5.3-10.4,34.1-10.4,34.1s-26.8,3.9-31.8-12c0,0-131.8-41.4-143.5-51.2c-11.7-9.8-44.2-67.6-44.2-67.6L203.5,312.6z"/>
			
				<linearGradient id="SVGID_00000013882566286599469500000000232591621043388054_" gradientUnits="userSpaceOnUse" x1="1382.5552" y1="328.8083" x2="1597.0649" y2="328.8083" gradientTransform="matrix(-1 0 0 1 1744.3165 0)">
				<stop  offset="0" style="stop-color:#394085"/>
				<stop  offset="1" style="stop-color:#563168"/>
			</linearGradient>
			<path style="fill:url(#SVGID_00000013882566286599469500000000232591621043388054_);" d="M178.6,207.6
				c21.5,0.1,51.6,131.2,57.4,149c5.8,17.8,125.8,60,125.8,60L333.5,450c0,0-127.6-38.9-138.9-54.9c-11.3-16-45.6-107.1-47.2-128.2
				C145.8,245.9,164.3,207.5,178.6,207.6z"/>
		</g>
	</g>
</g>
</svg>
