<?xml version="1.0" encoding="utf-8"?>
<!-- Generator: Adobe Illustrator 27.7.0, SVG Export Plug-In . SVG Version: 6.00 Build 0)  -->
<svg version="1.1" id="Layer_1" xmlns="http://www.w3.org/2000/svg" xmlns:xlink="http://www.w3.org/1999/xlink" x="0px" y="0px"
	 viewBox="0 0 901 756.9" style="enable-background:new 0 0 901 756.9;" xml:space="preserve">
<style type="text/css">
	.st0{fill:#5357A6;}
	.st1{clip-path:url(#SVGID_00000046334877394478318680000017794746566683380630_);}
	.st2{fill:#4375BA;}
	.st3{fill:url(#SVGID_00000173858863856205077380000007295349458386298763_);}
	.st4{opacity:0.1;enable-background:new    ;}
	.st5{fill:url(#SVGID_00000059303335219889560770000008266074884895379121_);}
	.st6{fill:#F5897D;}
	.st7{fill:url(#SVGID_00000016789530762317905120000010862171661603922598_);}
	.st8{fill:#192E35;}
	.st9{fill:url(#SVGID_00000015319132335355033450000002197268877135854014_);}
	.st10{fill:url(#SVGID_00000027577096268506308190000002095456152492090286_);}
	.st11{fill:url(#SVGID_00000040556106520800440290000010089411075364118457_);}
	.st12{fill:#D2D2EA;}
	.st13{opacity:0.2;enable-background:new    ;}
	.st14{fill:#BCB1D7;}
	.st15{opacity:0.2;fill:#FFFFFF;enable-background:new    ;}
	.st16{fill:url(#SVGID_00000087380006718950281480000004148537027329628821_);}
	.st17{fill:url(#SVGID_00000029036738622794211510000017876990303250093713_);}
	.st18{fill:url(#SVGID_00000142144676654772606350000002716402861628784777_);}
	.st19{fill:url(#SVGID_00000127758261275016580870000006561894257489068679_);}
	.st20{fill:url(#SVGID_00000148627006881868044990000014936807903802014863_);}
	.st21{fill:url(#SVGID_00000021842369403865467600000011492233819265721731_);}
	.st22{fill:url(#SVGID_00000114781280557462586220000010891214659528441508_);}
	.st23{fill:url(#SVGID_00000021106303438067599060000008776702320006384063_);}
	.st24{fill:url(#SVGID_00000039838417835337588930000012736347934224502964_);}
	.st25{fill:url(#SVGID_00000031170610115475265440000013757056656442505902_);}
	.st26{fill:url(#SVGID_00000104694558763782134340000014172384774210435734_);}
	.st27{fill:url(#SVGID_00000121244855274913502770000018146417244388761745_);}
	.st28{fill:url(#SVGID_00000091728582655515038720000001624678039190993566_);}
	.st29{fill:url(#SVGID_00000119089983302738510610000012391074692694428296_);}
	.st30{fill:url(#SVGID_00000111876053193323485790000017235247643288344726_);}
	.st31{fill:url(#SVGID_00000016077333000188259660000017337389037705174174_);}
	.st32{fill:url(#SVGID_00000131327087598968142010000008474973912272943274_);}
	.st33{fill:url(#SVGID_00000000206320793392366330000014578525603308047499_);}
	.st34{fill:url(#SVGID_00000111905430335602511590000001497422264175927450_);}
	.st35{fill:url(#SVGID_00000069391490494739747640000017066036988020451498_);}
	.st36{fill:url(#SVGID_00000031922051991941376070000008725022473290331545_);}
	.st37{fill:url(#SVGID_00000037687410567498822400000005136839069874585752_);}
	.st38{fill:url(#SVGID_00000029019565210029269930000008544717393550198412_);}
</style>
<g id="Layer_1_00000120535366648479440510000005852044189082535093_">
	<g>
		<g>
			<g id="XMLID_13_">
				<path id="XMLID_168_" class="st0" d="M881.3,132.1l1.2-3.8c0.3-1.3,0.5-2.6,0.8-3.9s0.3-2.5,0.4-3.7l0.1-1.8
					c0.1-0.8-0.1-1.3-0.1-2c-0.5-10.1-5.3-19.5-12.1-27c-6.7-7.6-14.9-13.7-23-18.7c-8.1-5-16.3-8.8-23.6-12
					c-7.4-3.1-14-5.5-19.6-7.4c-5.5-1.9-10-3.1-13.1-4c-3-0.9-4.7-1.3-4.7-1.3s1.6,0.5,4.5,1.6c1.5,0.5,3.3,1.1,5.4,1.9
					c2.1,0.8,4.5,1.7,7.2,2.7c5.4,2.1,11.8,4.7,18.8,8.1c7,3.4,14.7,7.5,22.3,12.6s15.1,11.2,21.1,18.5c6.1,7.2,10,15.9,10.3,25.1
					c0,0.5,0.1,1.2,0.1,1.6l-0.1,1.8c-0.1,1.2-0.1,2.5-0.4,3.5l-0.8,3.3l-1.2,3.4c-1.9,4.5-4.5,8.9-7.9,13
					c-6.9,8.2-16.4,15.5-27.1,21.6c-10.6,6.2-22.3,11.5-34.4,15.9c-12.1,4.4-24.4,8.2-36.5,11.3c-24.4,6.2-48,10.2-68.4,12.7
					c-10.2,1.3-19.6,2.2-28,3c-8.4,0.7-15.7,1.2-21.8,1.5c-6,0.3-10.8,0.5-14.1,0.7c-3.3,0.1-5,0.2-5,0.2s1.7,0,5,0.1
					c3.3,0,8,0.2,14.1,0.1c6.1,0,13.5-0.2,21.9-0.6c8.5-0.4,18-0.9,28.4-1.9c10.4-0.9,21.6-2.3,33.3-4.1s24.1-4.1,36.5-7.2
					c12.5-3,25.2-6.6,37.6-11.2c12.4-4.5,24.6-9.9,35.7-16.4c11.1-6.5,21.1-14.2,28.6-23.1C876.6,141.9,879.3,137,881.3,132.1z"/>
				<path id="XMLID_169_" class="st0" d="M658.1,32.7c8.3,0,16.3,0,24.2,0.3c15.7,0.4,30.5,1.4,44.1,2.7s26,2.9,36.9,4.6
					c10.9,1.7,20.3,3.6,28,5.2c7.7,1.7,13.7,3.1,17.8,4.2c4.1,1.1,6.2,1.6,6.2,1.6s-2.1-0.7-6.1-1.9s-9.8-3-17.5-4.9
					c-15.2-3.8-37.4-8.6-64.8-11.7c-13.7-1.6-28.6-2.9-44.4-3.6c-7.9-0.4-16.1-0.6-24.4-0.7c-8.4-0.1-16.9,0-25.5,0.3
					c-34.6,1-71.5,4.8-107.1,12.5c-17.7,4-35.1,8.9-51.4,15.1C457.8,62.5,442.6,70,429.9,79c-12.7,8.9-22.5,20-26.2,31.8
					c-1.9,6-2.3,11.8-1.4,17.5c0.9,5.6,3.3,10.9,6.3,15.6c5.9,9.5,14.8,16.6,23,22.3c8.3,5.6,16.5,9.7,23.3,12.9
					c3.4,1.6,6.5,2.9,9.3,4s5.1,2,7,2.7c3.9,1.4,5.9,2.1,5.9,2.1s-2-0.8-5.8-2.4c-3.8-1.6-9.1-4-15.8-7.3
					c-6.6-3.4-14.4-7.7-22.2-13.5c-1.9-1.5-4-2.9-5.8-4.6c-0.9-0.8-2-1.6-2.9-2.5s-1.8-1.8-2.7-2.7c-3.6-3.7-7.1-7.7-9.7-12.3
					c-2.6-4.5-4.7-9.5-5.4-14.8c-0.7-5.2-0.1-10.9,1.9-16.2c3.9-10.9,13.4-21,25.5-29.5c12.1-8.6,27-15.7,42.9-21.6
					s33-10.7,50.4-14.5c34.9-7.7,71.2-11.8,105.4-13C641.4,32.9,649.9,32.8,658.1,32.7z"/>
				<path id="XMLID_170_" class="st0" d="M601.7,211.7c-9.5-0.9-19-2.1-28.5-3.4c-9.4-1.3-18.8-2.9-28.1-4.7l-2.8-0.5l-0.9,2.2
					c-0.5,1.3-1.3,2.8-2.2,4.1c-0.9,1.4-1.9,2.8-3,4.1c-2.1,2.7-4.6,5.2-7.4,7.6c-5.5,4.8-11.8,9-18.8,12.6s-14.6,6.6-22.5,9.1
					c-3.9,1.3-8,2.4-12,3.4l-4.7,1.1c0.6-0.9,1.2-1.7,1.7-2.6c1.7-2.7,3.4-5.4,4.9-8.2c3-5.5,5.6-11.2,7.6-17s3.4-11.8,3.6-17.8
					c0.1-3,0-6.1-0.6-9.1c-0.3-1.5-0.7-3-1.2-4.5s-1.2-2.9-1.9-4.4l-0.3-0.6l-0.8-0.3c-10.7-4-21.3-8.4-31.5-13.1
					c-5.1-2.4-10.1-4.9-14.8-7.6c-4.7-2.8-9.3-5.7-12.8-9.3c3,3.9,7.4,7.2,11.9,10.2s9.3,5.8,14.2,8.4c9.6,5.2,19.6,9.8,29.9,14.1
					c2.2,5.1,2.9,10.6,2.4,16.1c-0.5,5.7-2.1,11.3-4.1,16.8c-2.1,5.5-4.7,11-7.8,16.3c-1.5,2.7-3.2,5.3-4.9,7.9
					c-1.7,2.6-3.5,5.2-5.4,7.6l-4.2,5.4l8-1.6l6.5-1.3l6.4-1.5c4.3-1.1,8.5-2.2,12.6-3.5c8.3-2.7,16.3-5.9,23.7-9.8
					c1.9-0.9,3.7-2,5.4-3c1.8-1.1,3.5-2.1,5.2-3.3c3.4-2.3,6.5-4.7,9.4-7.4c2.9-2.6,5.5-5.4,7.8-8.4c1.1-1.5,2.2-3,3.1-4.6
					c0.6-1,1.1-1.9,1.5-2.9c8.6,1.4,17.2,2.6,25.9,3.6c9.6,1.1,19.3,1.9,28.9,2.6c9.7,0.6,19.4,0.9,29.1,1.1c4.8,0.1,9.7,0.1,14.5,0
					c4.8,0,9.7-0.2,14.5-0.4c-9.7-0.3-19.3-0.7-28.9-1.3C620.8,213.4,611.2,212.6,601.7,211.7z"/>
			</g>
		</g>
	</g>
	<g>
		<g>
			<defs>
				<rect id="SVGID_1_" y="-22.8" width="901" height="779.7"/>
			</defs>
			<clipPath id="SVGID_00000042014108148474091150000015651542806103164037_">
				<use xlink:href="#SVGID_1_"  style="overflow:visible;"/>
			</clipPath>
			<g style="clip-path:url(#SVGID_00000042014108148474091150000015651542806103164037_);">
				<g>
					<path class="st2" d="M-57.1,1005.4c0,0,102.2-375.8,120.8-389.8c18.6-13.9,124.5-53.1,124.5-53.1s257.8,43,296.5,38.8
						c38.7-4.3,163.2-28.3,181.1,0s88.3,197.8,88.3,197.8l99,41.8l62.7,164.5H-57.1z"/>
					
						<linearGradient id="SVGID_00000000917277721200308160000010389822131391473076_" gradientUnits="userSpaceOnUse" x1="-189.5835" y1="-25.95" x2="783.4165" y2="-25.95" gradientTransform="matrix(-1 0 0 -1 726.3165 758)">
						<stop  offset="0" style="stop-color:#394085"/>
						<stop  offset="1" style="stop-color:#563168"/>
					</linearGradient>
					<path style="fill:url(#SVGID_00000000917277721200308160000010389822131391473076_);" d="M915.9,1005.4h-973
						c0,0,101.7-374.1,120.6-389.7c0.1,0,0.1-0.1,0.1-0.1c3.8-2.9,11.3-6.8,20.8-11.2c36.8-17.1,103.7-41.9,103.7-41.9
						s257.8,43.1,296.5,38.8s163.2-28.3,181.1,0c3.8,6,10,18.4,17.4,34.3c27.3,58.5,71,163.5,71,163.5l99,41.8L915.9,1005.4z"/>
					<path class="st4" d="M683.2,635.6l-38.4,38L544.6,650l-113.3,23.6l7.3,43.8l-41.3,49.1l14.7-49.1l-32.1-54
						c0,0-130.4,7.9-164.4,0c-21.4-5-85.9-36.4-130.9-59c36.8-17.1,103.7-41.9,103.7-41.9s257.8,43.1,296.5,38.8s163.2-28.3,181.1,0
						C669.6,607.3,675.8,619.8,683.2,635.6z"/>
					<path class="st4" d="M915.9,1005.4h-973c0,0,101.7-374.1,120.6-389.7c0.1,0,0.1-0.1,0.1-0.1L0.9,907.2l31.3,48.3l77-58.5
						l59.1,33l82-16.6l8.1-39.7l116.1-76.4L301.7,865l25.7,77L439,961.3h123.3l51-34l-17-69.1l-25.7-40.1l130.1-0.3l-55.4,34.3
						l20.4,60.9l62.6,29.1l72.8-44.9l29.7,85.8L915.9,1005.4z"/>
				</g>
				<g id="_x3C_Group_x3E__00000041257799873245352710000002405825477149494163_">
					
						<linearGradient id="SVGID_00000052824708657732561910000004793513667784406194_" gradientUnits="userSpaceOnUse" x1="391.7715" y1="466.7196" x2="689.6875" y2="466.7196" gradientTransform="matrix(-1 0 0 -1 726.3165 758)">
						<stop  offset="0" style="stop-color:#1F2150"/>
						<stop  offset="1" style="stop-color:#361E44"/>
					</linearGradient>
					<path style="fill:url(#SVGID_00000052824708657732561910000004793513667784406194_);" d="M286.9,161.5c0,0-148-23.1-176.3-11
						S73,206.2,73,206.2s-5,8.8,10.3,9.9c0,0-62.6,156.1-42.8,186C60.3,432,259.8,444,286.9,429.3C314,414.7,379,172.5,286.9,161.5z
						"/>
					<path class="st6" d="M374.1,310.2c0,0,19.6,45.5,24,51.8S500,413.2,500,413.2s11.8-1.9,23.8,0s28.6,6.9,30.1,8.8
						s-18.1,30.3-18.1,30.3s-39,2.4-43.8-13c0,0-97.7-36.3-109.1-45.8s-43-65.7-43-65.7L374.1,310.2z"/>
					
						<linearGradient id="SVGID_00000018934773800030930550000012145113291909697967_" gradientUnits="userSpaceOnUse" x1="246.2165" y1="436.35" x2="411.8165" y2="436.35" gradientTransform="matrix(-1 0 0 -1 726.3165 758)">
						<stop  offset="0" style="stop-color:#394085"/>
						<stop  offset="1" style="stop-color:#563168"/>
					</linearGradient>
					<path style="fill:url(#SVGID_00000018934773800030930550000012145113291909697967_);" d="M346,210.6
						c18.3,10.9,47,128.5,53.1,142.4c6.2,13.9,81,47.9,81,47.9L447,432.7c0,0-75.7-33.5-85.2-43.1c-9.6-9.6-47.3-107.1-47.3-107.1
						L346,210.6z"/>
					<g>
						<path class="st8" d="M339.9,479.3c0,0,308.7-44.3,325,23.4c17.2,71.6-230.6,119.9-378.8,125c-148.1,5.1-190.8-27.5-167-210.6
							l199.9-0.5L339.9,479.3z"/>
						
							<linearGradient id="SVGID_00000003086728788003920700000008014147305631464370_" gradientUnits="userSpaceOnUse" x1="60.5663" y1="235.6066" x2="613.3979" y2="235.6066" gradientTransform="matrix(-1 0 0 -1 726.3165 758)">
							<stop  offset="0" style="stop-color:#0F1634"/>
							<stop  offset="1" style="stop-color:#271535"/>
						</linearGradient>
						<path style="fill:url(#SVGID_00000003086728788003920700000008014147305631464370_);" d="M339.9,479.3
							c0,0,308.7-44.3,325,23.4c17.2,71.6-230.6,119.9-378.8,125c-148.1,5.1-190.8-27.5-167-210.6l199.9-0.5L339.9,479.3z"/>
					</g>
					<g>
						<g>
							
								<linearGradient id="SVGID_00000000941509468689518910000016626167123484439741_" gradientUnits="userSpaceOnUse" x1="93.7845" y1="182.9801" x2="108.9916" y2="182.9801" gradientTransform="matrix(-1 0 0 -1 726.3165 758)">
								<stop  offset="0" style="stop-color:#FCBC67"/>
								<stop  offset="1" style="stop-color:#FAA32B"/>
							</linearGradient>
							<path style="fill:url(#SVGID_00000000941509468689518910000016626167123484439741_);" d="M618.7,584.2
								c-0.3,0.2-0.8,0.2-1.1-0.1c-0.3-0.2-0.4-0.6-0.3-0.9c0.5-1.6,5.4-15.9,10.4-17.4c1.1-0.3,2.2,0.1,3,0.9
								c1.4,1.2,2.1,3,1.8,4.8c-0.8,2.7-2.4,5-4.6,6.7C625,580.5,622,582.5,618.7,584.2z M620,581.5c4.6-2,8.4-5.6,10.6-10.2
								c0.3-1.2-0.2-2.5-1.3-3.3c-0.3-0.3-0.7-0.5-1.2-0.3c-0.4,0.1-0.8,0.4-1.1,0.7C623.9,572.3,621.5,576.7,620,581.5z"/>
						</g>
						<g>
							
								<linearGradient id="SVGID_00000101065321547724849870000007284638316707883431_" gradientUnits="userSpaceOnUse" x1="105.9252" y1="183.4281" x2="115.0703" y2="183.4281" gradientTransform="matrix(-1 0 0 -1 726.3165 758)">
								<stop  offset="0" style="stop-color:#FCBC67"/>
								<stop  offset="1" style="stop-color:#FAA32B"/>
							</linearGradient>
							<path style="fill:url(#SVGID_00000101065321547724849870000007284638316707883431_);" d="M618.5,584.4
								c-0.3,0.1-0.7,0-0.9-0.3c-0.5-0.4-7.3-9-6.2-14.9c0.3-1.5,1.1-2.7,2.4-3.6c1.1-1,2.7-1.2,3.9-0.4c3.6,2.5,3.1,14.1,1.4,18.5
								l-0.1,0.4C618.8,584.3,618.6,584.4,618.5,584.4z M614.6,567.5c-0.6,0.5-1,1.3-1.2,2.1c-0.7,3.7,2.7,9.2,4.6,11.9
								c1.1-4.9,0.8-13-1.3-14.5c-0.2-0.1-0.7-0.5-1.7,0.3L614.6,567.5L614.6,567.5z"/>
						</g>
					</g>
					<polygon class="st12" points="511.8,620.5 576.5,620.5 607.6,620.6 611.3,587.9 582.6,584 512.4,574.7 					"/>
					<path class="st8" d="M604.3,583.8l-7.9,37.3c-0.4,2.1,0.9,4.1,3,4.5l18.6,3.3c0,0,24.7,6.3,31.6,1.9
						c20.3-13,39.8-95,31.5-101.1c-3-2.2-8.3,1.1-10.9,3.8c-8.3,8.5-26.1,32.2-33.1,39.2c-8.2,8.2-22.8,8.4-29.1,8.1
						C606.3,580.7,604.7,582,604.3,583.8z"/>
					<polygon class="st13" points="511.8,620.5 576.5,620.5 582.6,584 512.4,574.7 					"/>
					<g>
						<g>
							<path class="st8" d="M267.5,477v8.2c0,5.5,4.6,10.6,10.1,10.6h301.1c5.5,0,10.9-5.1,10.9-10.6V477H267.5z"/>
							<path class="st14" d="M267.5,477v8.2c0,5.5,4.6,10.6,10.1,10.6h301.1c5.5,0,10.9-5.1,10.9-10.6V477H267.5z"/>
							<path class="st12" d="M379.8,477v8.2c0,5.5,4.7,10.6,10.2,10.6h188.7c5.5,0,10.9-5.1,10.9-10.6V477H379.8z"/>
						</g>
						<g>
							<path class="st8" d="M390,488.3h198.9c6.1,0,12.6-4.8,14.5-10.7L649,334.5c1.9-5.9-1.5-11-7.6-11h-199
								c-6.1,0-12.6,5.1-14.5,11l-45.6,142.9C380.5,483.3,383.9,488.3,390,488.3z"/>
							<path class="st14" d="M390,488.3h198.9c6.1,0,12.6-4.8,14.5-10.7L649,334.5c1.9-5.9-1.5-11-7.6-11h-199
								c-6.1,0-12.6,5.1-14.5,11l-45.6,142.9C380.5,483.3,383.9,488.3,390,488.3z"/>
							<path class="st12" d="M397.5,488.3h191.4c6.1,0,12.6-4.8,14.5-10.7L649,334.5c1.9-5.9-1.5-11-7.6-11H449.9
								c-6.1,0-12.6,5.1-14.5,11l-45.6,142.9C387.9,483.3,391.4,488.3,397.5,488.3z"/>
						</g>
						<path class="st15" d="M513.8,412.4c-2.5,9.5,2.3,17.3,10.6,17.3s17-7.7,19.5-17.3c2.5-9.5-2.3-17.3-10.6-17.3
							S516.3,402.9,513.8,412.4z"/>
					</g>
					
						<linearGradient id="SVGID_00000176030195481316232070000013920055954523580060_" gradientUnits="userSpaceOnUse" x1="43.2568" y1="177.3293" x2="130.08" y2="177.3293" gradientTransform="matrix(-1 0 0 -1 726.3165 758)">
						<stop  offset="0" style="stop-color:#394085"/>
						<stop  offset="1" style="stop-color:#563168"/>
					</linearGradient>
					<path style="fill:url(#SVGID_00000176030195481316232070000013920055954523580060_);" d="M604.3,583.8l-7.9,37.3
						c-0.4,2.1,0.9,4.1,3,4.5l18.6,3.3c0,0,24.7,6.3,31.6,1.9c20.3-13,39.8-95,31.5-101.1c-3-2.2-8.3,1.1-10.9,3.8
						c-8.3,8.5-26.1,32.2-33.1,39.2c-8.2,8.2-22.8,8.4-29.1,8.1C606.3,580.7,604.7,582,604.3,583.8z"/>
					<g>
						<polygon points="178.6,443 116.1,443.8 117.3,423.5 178.6,422.2 						"/>
						<polygon points="301.8,419.5 320.4,419.1 327.1,441.1 301.8,441.4 						"/>
						
							<linearGradient id="SVGID_00000133500313188335003930000005953391892054196142_" gradientUnits="userSpaceOnUse" x1="432.5165" y1="326.7" x2="538.1165" y2="326.7" gradientTransform="matrix(-1 0 0 -1 726.3165 758)">
							<stop  offset="0" style="stop-color:#0E1119"/>
							<stop  offset="1" style="stop-color:#1B1124"/>
						</linearGradient>
						<polygon style="fill:url(#SVGID_00000133500313188335003930000005953391892054196142_);" points="293.8,419.7 293.8,441.5 
							188.2,442.9 188.2,422 						"/>
						<g>
							<path class="st12" d="M232.9,437.7l-0.3-8.5c-0.2-4.7,3.3-8.7,7.7-8.9l19.1-0.8c2.1-0.1,4.2,0.7,5.8,2.3
								c1.6,1.6,2.5,3.7,2.6,6l0.3,8.5c0.2,4.7-3.3,8.7-7.7,8.9l-19.1,0.8l0,0c-0.1,0-0.2,0-0.3,0
								C236.7,445.9,233.1,442.3,232.9,437.7z M260.2,441.6c2.6-0.1,4.6-2.4,4.5-5.2l-0.3-8.5c0-1.3-0.6-2.6-1.5-3.5
								s-2.1-1.4-3.4-1.3l-19.1,0.8c-2.6,0.1-4.6,2.4-4.5,5.2l0.3,8.5c0.1,2.8,2.2,4.9,4.9,4.8L260.2,441.6z"/>
						</g>
						<g>
							<path class="st12" d="M236.2,434.9h9.6c1.2,0,2.2-1,2.2-2.2s-1-2.2-2.2-2.2h-9.6c-1.2,0-2.2,1-2.2,2.2S235,434.9,236.2,434.9
								z"/>
						</g>
					</g>
					<g>
						<path class="st2" d="M346,210.6c0,0-24.1,152.3-14,206.7l-222.7,6.5c0,0,26.3-157.3,61.4-216.6
							C170.7,207.2,228.9,110.1,346,210.6z"/>
						
							<linearGradient id="SVGID_00000029765035749180947400000005467108401141739911_" gradientUnits="userSpaceOnUse" x1="380.3165" y1="463.5828" x2="617.0165" y2="463.5828" gradientTransform="matrix(-1 0 0 -1 726.3165 758)">
							<stop  offset="1.704000e-02" style="stop-color:#9C6CAE"/>
							<stop  offset="0.244" style="stop-color:#876DB1"/>
							<stop  offset="0.4974" style="stop-color:#6A6FB4"/>
							<stop  offset="1" style="stop-color:#8D57A3"/>
						</linearGradient>
						<path style="fill:url(#SVGID_00000029765035749180947400000005467108401141739911_);" d="M346,210.6c0,0-24.1,152.3-14,206.7
							l-222.7,6.5c0,0,26.3-157.3,61.4-216.6C170.7,207.2,228.9,110.1,346,210.6z"/>
					</g>
					<g>
						<path class="st12" d="M215.4,176.7c0,0,36.9,36.1,58.3,30.2s29.3-16.8,29.3-16.8s-17.1-7.5-15.3-11.6c0.2-0.5,0.8-1.3,1.5-2.5
							c6.4-9.7,29-40.6,29-40.6l-48.6-27.2c0,0-4,9.4-8.9,20.6c-6.6,14.8-14.8,32.9-17.6,36.2C238.4,170.9,215.4,176.7,215.4,176.7z
							"/>
						<path class="st13" d="M260.8,128.8c3.1,17.1,10.5,37.4,28.5,47.2c6.4-9.7,29-40.6,29-40.6l-48.6-27.2
							C269.7,108.2,265.7,117.6,260.8,128.8z"/>
					</g>
					<g>
						
							<linearGradient id="SVGID_00000139270320575522118940000009406531777274317231_" gradientUnits="userSpaceOnUse" x1="460.1453" y1="633.3" x2="491.95" y2="633.3" gradientTransform="matrix(-1 0 0 -1 726.3165 758)">
							<stop  offset="0" style="stop-color:#1F2150"/>
							<stop  offset="1" style="stop-color:#361E44"/>
						</linearGradient>
						<path style="fill:url(#SVGID_00000139270320575522118940000009406531777274317231_);" d="M251.1,95.1c0,0-4.9,15.4-3.9,26.3
							c0.9,10.9-11.2,14.6-12.8,7.9c0,0,0.2,16.1,10.7,13.7c0,0-0.1,11.1,9.3,11.3c0,0,13.1-16.9,11.7-37.7
							C264.6,95.7,251.1,95.1,251.1,95.1z"/>
						<path class="st8" d="M334.7,41.7c-15.8,6.6-13.1,43.4,13.2,74.9c16.2-13.9,23.5-46,19.7-58.7
							C361.5,37.5,348.5,36.1,334.7,41.7z"/>
						<path class="st12" d="M357.8,131.3c0,0,0,0,0,0.1c-1.5,4.4-3.2,8.6-5.1,12.4c-15.6,31.8-60.6,38-80.5,6.5
							c-0.1-0.1-0.2-0.2-0.2-0.3c-13.1-21.2-8.2-41-2.7-75.2c1.1-7.3,3.8-14.1,8.1-20.2c15-21.4,44.5-26.6,65.9-11.6
							C369.4,61.1,367.9,102.1,357.8,131.3z"/>
						
							<linearGradient id="SVGID_00000165916216044960045620000001943217912138036920_" gradientUnits="userSpaceOnUse" x1="401.8931" y1="661.8619" x2="408.7526" y2="661.8619" gradientTransform="matrix(-1 0 0 -1 726.3165 758)">
							<stop  offset="0" style="stop-color:#1F2150"/>
							<stop  offset="1" style="stop-color:#361E44"/>
						</linearGradient>
						<path style="fill:url(#SVGID_00000165916216044960045620000001943217912138036920_);" d="M317.7,95.4
							c-0.6,2.8,0.4,5.3,2.2,5.7c1.8,0.4,3.7-1.5,4.3-4.2c0.6-2.8-0.3-5.3-2.1-5.7C320.4,90.7,318.5,92.7,317.7,95.4z"/>
						
							<linearGradient id="SVGID_00000036969707669723090810000010224746411683357585_" gradientUnits="userSpaceOnUse" x1="370.5681" y1="654.889" x2="377.4889" y2="654.889" gradientTransform="matrix(-1 0 0 -1 726.3165 758)">
							<stop  offset="0" style="stop-color:#1F2150"/>
							<stop  offset="1" style="stop-color:#361E44"/>
						</linearGradient>
						<path style="fill:url(#SVGID_00000036969707669723090810000010224746411683357585_);" d="M349,102.4c-0.6,2.8,0.4,5.3,2.2,5.7
							c1.8,0.4,3.8-1.5,4.4-4.3s-0.4-5.3-2.2-5.7C351.6,97.8,349.6,99.7,349,102.4z"/>
						<path class="st13" d="M338.5,101.5c1.4,9.1,4,18.1,7.9,26.5c-6,3.4-13.7-0.5-13.7-0.5L338.5,101.5z"/>
						
							<linearGradient id="SVGID_00000031180852437884571090000005219989850786803858_" gradientUnits="userSpaceOnUse" x1="399.8616" y1="677.8486" x2="416.286" y2="677.8486" gradientTransform="matrix(-1 0 0 -1 726.3165 758)">
							<stop  offset="0" style="stop-color:#1F2150"/>
							<stop  offset="1" style="stop-color:#361E44"/>
						</linearGradient>
						<path style="fill:url(#SVGID_00000031180852437884571090000005219989850786803858_);" d="M311.4,83.6c-0.4,0-0.7-0.2-1-0.5
							c-0.6-0.7-0.5-1.7,0.2-2.3c4-3.6,9.5-4.9,14.7-3.7c0.9,0.2,1.4,1.1,1.1,1.9v0.1c-0.3,0.9-1.2,1.3-2.1,1.1l0,0
							c-4.1-0.9-8.4,0.2-11.5,3.1C312.4,83.6,311.9,83.7,311.4,83.6z"/>
						
							<linearGradient id="SVGID_00000108299862609612054410000006878196637435174295_" gradientUnits="userSpaceOnUse" x1="358.7089" y1="669.794" x2="370.5127" y2="669.794" gradientTransform="matrix(-1 0 0 -1 726.3165 758)">
							<stop  offset="0" style="stop-color:#1F2150"/>
							<stop  offset="1" style="stop-color:#361E44"/>
						</linearGradient>
						<path style="fill:url(#SVGID_00000108299862609612054410000006878196637435174295_);" d="M365.6,95.1
							c-0.6-0.1-1.1-0.6-1.3-1.2c-0.8-4.1-3.6-7.6-7.5-9.4c-0.9-0.3-1.3-1.3-1-2.1c0.3-0.8,1.2-1.3,2.1-1c4.9,2.1,8.5,6.5,9.6,11.7
							c0.2,0.9-0.3,1.8-1.2,2l0,0C366.1,95.1,365.9,95.1,365.6,95.1z"/>
						
							<linearGradient id="SVGID_00000171679882471377005180000011307953684939689915_" gradientUnits="userSpaceOnUse" x1="399.4512" y1="622.6127" x2="420.954" y2="622.6127" gradientTransform="matrix(-1 0 0 -1 726.3165 758)">
							<stop  offset="0" style="stop-color:#1F2150"/>
							<stop  offset="1" style="stop-color:#361E44"/>
						</linearGradient>
						<path style="fill:url(#SVGID_00000171679882471377005180000011307953684939689915_);" d="M326.2,143.7c0.3,0,0.6-0.2,0.7-0.6
							c0.1-0.4-0.2-0.7-0.6-0.8c-15.9-2.8-19.6-14.6-19.6-14.7c-0.1-0.4-0.5-0.6-0.8-0.5c-0.4,0.1-0.6,0.5-0.5,0.8
							c0,0.1,3.9,12.8,20.7,15.7C326.1,143.7,326.1,143.7,326.2,143.7z"/>
						
							<linearGradient id="SVGID_00000126318406409843574860000011151404328438106510_" gradientUnits="userSpaceOnUse" x1="351.9051" y1="700.0931" x2="471.892" y2="700.0931" gradientTransform="matrix(-1 0 0 -1 726.3165 758)">
							<stop  offset="0" style="stop-color:#1F2150"/>
							<stop  offset="1" style="stop-color:#361E44"/>
						</linearGradient>
						<path style="fill:url(#SVGID_00000126318406409843574860000011151404328438106510_);" d="M364.6,69.2c0,0,10.2-7.8,9.8-17
							c-0.6-13.3-8.6-22.2-18-27.8c-7-4.5-17.1-7.9-32-8.7c-39-2.3-60.3,9.4-66.9,30.3c-4.1,7.4-4,21.1-0.3,34c0,0.1,0,0.2,0,0.2
							l0,0c2.2,7.5,5.6,14.8,10.2,20.2c23.7-20.6,32.6-35.2,28.9-44.9c0.8-0.2,12.6-10.8,17.8-11.1c7.5-0.4,21.5,6.8,32.8,13.5
							c6.2,3.7,12.6-2.2,12.6-2.2L364.6,69.2z"/>
						<path class="st12" d="M247.2,98.2c0.5,8.7,4.5,16.9,11,22.7c8.7,7.6,18,1,19.8-9.8c1.6-9.7-1.1-25.5-11.8-28.9
							C255.4,78.8,246.6,87.5,247.2,98.2z"/>
					</g>
					<g>
						<g>
							
								<linearGradient id="SVGID_00000080208683790791272480000011691392254381448104_" gradientUnits="userSpaceOnUse" x1="404.886" y1="111.9604" x2="414.0081" y2="111.9604" gradientTransform="matrix(-1 0 0 -1 726.3165 758)">
								<stop  offset="0" style="stop-color:#FCBC67"/>
								<stop  offset="1" style="stop-color:#FAA32B"/>
							</linearGradient>
							<path style="fill:url(#SVGID_00000080208683790791272480000011691392254381448104_);" d="M318.8,635.7c0.2-0.3,0.6-0.5,1-0.5
								s0.6,0.3,0.7,0.7c0.3,1.7,2.6,16.6-1.1,20.2c-0.8,0.7-2,1-3,0.6c-1.8-0.4-3.2-1.7-3.8-3.4c-0.5-2.7-0.2-5.6,1-8.1
								C315,641.9,316.7,638.7,318.8,635.7z M318.9,638.7c-3.1,3.9-4.8,8.9-4.6,13.9c0.3,1.2,1.4,2.1,2.6,2.3
								c0.4,0.2,0.9,0.1,1.2-0.2c0.3-0.3,0.5-0.7,0.7-1.1C319.8,648.6,319.8,643.6,318.9,638.7z"/>
						</g>
						<polygon class="st12" points="417.3,562.8 355.9,583.2 326.4,593 333.3,625.2 361.7,619.7 431.3,606.4 						"/>
						<path class="st8" d="M341.2,626.8l-4.3-37.9c-0.2-2.1-2.2-3.6-4.3-3.3l-18.7,2.7c0,0-25.4,1.8-30.6,8.2
							c-15.1,18.7-7.7,102.8,2.1,105.9c3.6,1.2,7.5-3.7,9.1-7.1c5.2-10.7,14.5-38.8,19-47.6c5.2-10.4,18.9-15.2,25.1-16.9
							C340.3,630.4,341.4,628.7,341.2,626.8z"/>
						<g>
							
								<linearGradient id="SVGID_00000025412754558472316440000005414221295979326136_" gradientUnits="userSpaceOnUse" x1="393.8264" y1="114.4261" x2="407.7294" y2="114.4261" gradientTransform="matrix(-1 0 0 -1 726.3165 758)">
								<stop  offset="0" style="stop-color:#FCBC67"/>
								<stop  offset="1" style="stop-color:#FAA32B"/>
							</linearGradient>
							<path style="fill:url(#SVGID_00000025412754558472316440000005414221295979326136_);" d="M318.9,635.4
								c0.2-0.3,0.6-0.3,0.9-0.2c0.6,0.1,10.7,4.6,12.4,10.3c0.4,1.4,0.3,3-0.4,4.3c-0.5,1.4-1.8,2.3-3.3,2.2
								c-4.3-0.6-9.3-11-9.8-15.7l-0.1-0.4C318.7,635.6,318.8,635.5,318.9,635.4z M330.2,648.5c0.3-0.8,0.3-1.6,0.1-2.4
								c-1.1-3.6-6.7-6.9-9.6-8.4c1.3,4.9,5.4,11.9,7.9,12.2c0.3,0,0.8,0.1,1.4-1.1L330.2,648.5L330.2,648.5z"/>
						</g>
						<polygon class="st13" points="417.3,562.8 355.9,583.2 361.7,619.7 431.3,606.4 						"/>
						<g>
							<polygon class="st2" points="372.4,625.4 389.9,627.1 379.4,566.5 359.3,577.1 							"/>
							<g>
								
									<linearGradient id="SVGID_00000013883779307994803800000013700215303048824229_" gradientUnits="userSpaceOnUse" x1="336.4165" y1="161.2" x2="367.0165" y2="161.2" gradientTransform="matrix(-1 0 0 -1 726.3165 758)">
									<stop  offset="0" style="stop-color:#FCBC67"/>
									<stop  offset="1" style="stop-color:#FAA32B"/>
								</linearGradient>
								<polygon style="fill:url(#SVGID_00000013883779307994803800000013700215303048824229_);" points="372.4,625.4 389.9,627.1 
									379.4,566.5 359.3,577.1 								"/>
							</g>
						</g>
						
							<linearGradient id="SVGID_00000093895633207092283900000001889458785748157367_" gradientUnits="userSpaceOnUse" x1="385.0931" y1="113.9266" x2="451.6281" y2="113.9266" gradientTransform="matrix(-1 0 0 -1 726.3165 758)">
							<stop  offset="0" style="stop-color:#394085"/>
							<stop  offset="1" style="stop-color:#563168"/>
						</linearGradient>
						<path style="fill:url(#SVGID_00000093895633207092283900000001889458785748157367_);" d="M341.2,626.8l-4.3-37.9
							c-0.2-2.1-2.2-3.6-4.3-3.3l-18.7,2.7c0,0-25.4,1.8-30.6,8.2c-15.1,18.7-7.7,102.8,2.1,105.9c3.6,1.2,7.5-3.7,9.1-7.1
							c5.2-10.7,14.5-38.8,19-47.6c5.2-10.4,18.9-15.2,25.1-16.9C340.3,630.4,341.4,628.7,341.2,626.8z"/>
					</g>
					
						<linearGradient id="SVGID_00000092434968477446921980000002371681299632801718_" gradientUnits="userSpaceOnUse" x1="155.7166" y1="202.0045" x2="603.8485" y2="202.0045" gradientTransform="matrix(-1 0 0 -1 726.3165 758)">
						<stop  offset="0" style="stop-color:#1F2150"/>
						<stop  offset="1" style="stop-color:#361E44"/>
					</linearGradient>
					<path style="fill:url(#SVGID_00000092434968477446921980000002371681299632801718_);" d="M570.6,579.3
						c0,0-287.2-111.5-375.1-92.9c-88,18.6-88.4,64.7-43.8,107.6s111.2,26.4,111.2,26.4s-52.3-31.4-48.7-50.7
						c3.7-19.4,36.9,24.9,36.9,24.9S424.7,637,568,625.8L570.6,579.3z"/>
					<g>
						<polygon class="st2" points="574.1,574.6 558,567.2 548.7,627.7 571.1,624 						"/>
						<g>
							
								<linearGradient id="SVGID_00000036213898450875084650000010600036336854655386_" gradientUnits="userSpaceOnUse" x1="152.1902" y1="160.55" x2="177.5901" y2="160.55" gradientTransform="matrix(-1 0 0 -1 726.3165 758)">
								<stop  offset="0" style="stop-color:#FCBC67"/>
								<stop  offset="1" style="stop-color:#FAA32B"/>
							</linearGradient>
							<polygon style="fill:url(#SVGID_00000036213898450875084650000010600036336854655386_);" points="574.1,574.6 558,567.2 
								548.7,627.7 571.1,624 							"/>
						</g>
					</g>
					<g>
						<path class="st2" d="M197.1,165c0,0,38.8,105.6,36.8,129.4s-82.1,201.3-82.1,201.3l-66.2,26.6
							C85.7,522.4,99.4,261.2,197.1,165z"/>
						
							<linearGradient id="SVGID_00000096756120252017466070000010351650102330410938_" gradientUnits="userSpaceOnUse" x1="492.3418" y1="414.35" x2="640.7165" y2="414.35" gradientTransform="matrix(-1 0 0 -1 726.3165 758)">
							<stop  offset="0" style="stop-color:#394085"/>
							<stop  offset="1" style="stop-color:#563168"/>
						</linearGradient>
						<path style="fill:url(#SVGID_00000096756120252017466070000010351650102330410938_);" d="M197.1,165
							c0,0,38.8,105.6,36.8,129.4s-82.1,201.3-82.1,201.3l-66.2,26.6C85.7,522.4,99.4,261.2,197.1,165z"/>
						<path class="st2" d="M337.4,471.7c0,0-20.7-49.3-27.4-76.6c-6.6-27.3,16.6-167.5,4.1-214.5l31.9,30l-13.5,175.1L337.4,471.7z"
							/>
						
							<linearGradient id="SVGID_00000098223189821835312040000010085276080463627451_" gradientUnits="userSpaceOnUse" x1="380.3165" y1="431.85" x2="417.5236" y2="431.85" gradientTransform="matrix(-1 0 0 -1 726.3165 758)">
							<stop  offset="0" style="stop-color:#394085"/>
							<stop  offset="1" style="stop-color:#563168"/>
						</linearGradient>
						<path style="fill:url(#SVGID_00000098223189821835312040000010085276080463627451_);" d="M337.4,471.7
							c0,0-20.7-49.3-27.4-76.6c-6.6-27.3,16.6-167.5,4.1-214.5l31.9,30l-13.5,175.1L337.4,471.7z"/>
						
							<linearGradient id="SVGID_00000057863469152995567350000003880970386613817266_" gradientUnits="userSpaceOnUse" x1="506.197" y1="475.9991" x2="626.8165" y2="475.9991" gradientTransform="matrix(-1 0 0 -1 726.3165 758)">
							<stop  offset="0" style="stop-color:#1F2150"/>
							<stop  offset="1" style="stop-color:#361E44"/>
						</linearGradient>
						<path style="fill:url(#SVGID_00000057863469152995567350000003880970386613817266_);" d="M101.8,395.2
							c0,0,137.7,26.5,116-225.2l-22.4-2c0,0,13.7,95.6-11.5,158.2c-25.1,62.6-84.4,59.6-84.4,59.6L101.8,395.2z"/>
						
							<linearGradient id="SVGID_00000059311678293160741510000004814945980555420291_" gradientUnits="userSpaceOnUse" x1="493.1165" y1="537.349" x2="553.6807" y2="537.349" gradientTransform="matrix(-1 0 0 -1 726.3165 758)">
							<stop  offset="1.704000e-02" style="stop-color:#8D57A3"/>
							<stop  offset="0.2149" style="stop-color:#7957A4"/>
							<stop  offset="0.4974" style="stop-color:#5357A6"/>
							<stop  offset="1" style="stop-color:#8D57A3"/>
						</linearGradient>
						<path style="fill:url(#SVGID_00000059311678293160741510000004814945980555420291_);" d="M233.2,283.4L187,176l-14,18.4
							c0,0-2.5-26,5.6-33.6s30.6,1.9,39.5,4.1C226.9,167.3,233.2,283.4,233.2,283.4z"/>
						
							<linearGradient id="SVGID_00000004534867661389218830000014935465447155211190_" gradientUnits="userSpaceOnUse" x1="391.2415" y1="469.9795" x2="420.2723" y2="469.9795" gradientTransform="matrix(-1 0 0 -1 726.3165 758)">
							<stop  offset="0" style="stop-color:#1F2150"/>
							<stop  offset="1" style="stop-color:#361E44"/>
						</linearGradient>
						<path style="fill:url(#SVGID_00000004534867661389218830000014935465447155211190_);" d="M306,182.3c0,0,17.8,52.8,14.9,135.5
							s11.9,75.8,11.9,75.8l2.1-7.8c0,0-8.3-1-7.7-28.8c0.7-27.9,4.3-140.3-6.4-169.9L306,182.3z"/>
						
							<linearGradient id="SVGID_00000124872349908331498300000012483550627108876215_" gradientUnits="userSpaceOnUse" x1="400.1776" y1="528.8278" x2="441.8205" y2="528.8278" gradientTransform="matrix(-1 0 0 -1 726.3165 758)">
							<stop  offset="1.704000e-02" style="stop-color:#8D57A3"/>
							<stop  offset="0.2149" style="stop-color:#7957A4"/>
							<stop  offset="0.4974" style="stop-color:#5357A6"/>
							<stop  offset="1" style="stop-color:#8D57A3"/>
						</linearGradient>
						<path style="fill:url(#SVGID_00000124872349908331498300000012483550627108876215_);" d="M315.4,280.3
							c0,0,4.2-79.3-17.9-102.5c0,0,16.7-6.2,23.5,0s8.4,66.6-4.9,105.5"/>
					</g>
					<path class="st12" d="M203.5,312.6c0,0,20.2,46.8,24.7,53.3c4.6,6.5,136.1,56.8,136.1,56.8s12.2-2,24.5,0
						c12.4,2,9.4,2.3,9.4,4.8c0,5.3-10.4,34.1-10.4,34.1s-26.8,3.9-31.8-12c0,0-131.8-41.4-143.5-51.2
						c-11.7-9.8-44.2-67.6-44.2-67.6L203.5,312.6z"/>
					
						<linearGradient id="SVGID_00000113342407257940489610000010045091132118431918_" gradientUnits="userSpaceOnUse" x1="364.5165" y1="429.2001" x2="579.0136" y2="429.2001" gradientTransform="matrix(-1 0 0 -1 726.3165 758)">
						<stop  offset="0" style="stop-color:#394085"/>
						<stop  offset="1" style="stop-color:#563168"/>
					</linearGradient>
					<path style="fill:url(#SVGID_00000113342407257940489610000010045091132118431918_);" d="M178.6,207.6
						c21.5,0.1,51.6,131.2,57.4,149c5.8,17.8,125.8,60,125.8,60L333.5,450c0,0-127.6-38.9-138.9-54.9
						c-11.3-16-45.6-107.1-47.2-128.2C145.8,245.9,164.3,207.5,178.6,207.6z"/>
				</g>
			</g>
		</g>
	</g>
</g>
</svg>
