<?xml version="1.0" encoding="utf-8"?>
<!-- Generator: Adobe Illustrator 27.7.0, SVG Export Plug-In . SVG Version: 6.00 Build 0)  -->
<svg version="1.1" id="Layer_1" xmlns="http://www.w3.org/2000/svg" xmlns:xlink="http://www.w3.org/1999/xlink" x="0px" y="0px"
	 viewBox="0 0 901 756.9" style="enable-background:new 0 0 901 756.9;" xml:space="preserve">
<style type="text/css">
	.st0{fill:#5357A6;}
	.st1{clip-path:url(#SVGID_00000065059369439494690820000015114241353844318640_);}
	.st2{fill:#4375BA;}
	.st3{fill:url(#SVGID_00000150802196858166847840000001429287658117249664_);}
	.st4{opacity:0.1;enable-background:new    ;}
	.st5{fill:url(#SVGID_00000062155828457862041730000002352659674805513884_);}
	.st6{fill:#F5897D;}
	.st7{fill:url(#SVGID_00000030446403707575713080000003867244673267733402_);}
	.st8{fill:#192E35;}
	.st9{fill:url(#SVGID_00000170973924040658472620000016739355037074938289_);}
	.st10{fill:url(#SVGID_00000140010995247168111730000005965931534990644864_);}
	.st11{fill:url(#SVGID_00000083066714456967904270000014906343476545408412_);}
	.st12{fill:#D2D2EA;}
	.st13{opacity:0.2;enable-background:new    ;}
	.st14{fill:#BCB1D7;}
	.st15{opacity:0.2;fill:#FFFFFF;enable-background:new    ;}
	.st16{fill:url(#SVGID_00000093168632322928168150000002222861088665219241_);}
	.st17{fill:url(#SVGID_00000049198283591007029070000012816188746841742978_);}
	.st18{fill:url(#SVGID_00000000918924917877271450000002533508698191211398_);}
	.st19{fill:url(#SVGID_00000121250608734543552130000010179375479705350034_);}
	.st20{fill:url(#SVGID_00000163031130533887112830000001256064350183601591_);}
	.st21{fill:url(#SVGID_00000103981467728439853560000014658433005247198363_);}
	.st22{fill:url(#SVGID_00000183237348876889963750000005413225255533372064_);}
	.st23{fill:url(#SVGID_00000062896212530823747030000008378249841236112575_);}
	.st24{fill:url(#SVGID_00000173851490444375772110000000533318669366534021_);}
	.st25{fill:url(#SVGID_00000174573614431052968340000018321415054708895649_);}
	.st26{fill:url(#SVGID_00000029031187270569085590000016459058879665273517_);}
	.st27{fill:url(#SVGID_00000127760152011459852310000003963341645677938062_);}
	.st28{fill:url(#SVGID_00000163764993172061907610000007556844344143148168_);}
	.st29{fill:url(#SVGID_00000075842798849048794330000008622244810600453020_);}
	.st30{fill:url(#SVGID_00000127041251960196908110000009866205531351382152_);}
	.st31{fill:url(#SVGID_00000158722989882951485580000007118693502166857115_);}
	.st32{fill:url(#SVGID_00000072965514827890409750000003346180046573916290_);}
	.st33{fill:url(#SVGID_00000034066518033565633190000017739875667282892687_);}
	.st34{fill:url(#SVGID_00000137110586319883194180000011009220434466260907_);}
	.st35{fill:url(#SVGID_00000070082588467307997730000012871098248725902223_);}
	.st36{fill:url(#SVGID_00000050660590779990228640000014011403917256917681_);}
	.st37{fill:url(#SVGID_00000092431554293114394600000014315416428086489522_);}
	.st38{fill:url(#SVGID_00000176005879123105110520000007208693788921868696_);}
</style>
<g id="Layer_1_00000120535366648479440510000005852044189082535093_">
	<g>
		<g>
			<g id="XMLID_13_">
				<path id="XMLID_168_" class="st0" d="M19.7,132.1l-1.2-3.8c-0.3-1.3-0.5-2.6-0.8-3.9s-0.3-2.5-0.4-3.7l-0.1-1.8
					c-0.1-0.8,0.1-1.3,0.1-2c0.5-10.1,5.3-19.5,12.1-27c6.7-7.6,14.9-13.7,23-18.7c8.1-5,16.3-8.8,23.6-12c7.4-3.1,14-5.5,19.6-7.4
					c5.5-1.9,10-3.1,13.1-4c3-0.9,4.7-1.3,4.7-1.3s-1.6,0.5-4.5,1.6c-1.5,0.5-3.3,1.1-5.4,1.9c-2.1,0.8-4.5,1.7-7.2,2.7
					c-5.4,2.1-11.8,4.7-18.8,8.1c-7,3.4-14.7,7.5-22.3,12.6S40.1,84.6,34.1,91.9c-6.1,7.2-10,15.9-10.3,25.1c0,0.5-0.1,1.2-0.1,1.6
					l0.1,1.8c0.1,1.2,0.1,2.5,0.4,3.5l0.8,3.3l1.2,3.4c1.9,4.5,4.5,8.9,7.9,13c6.9,8.2,16.4,15.5,27.1,21.6
					c10.6,6.2,22.3,11.5,34.4,15.9c12.1,4.4,24.4,8.2,36.5,11.3c24.4,6.2,48,10.2,68.4,12.7c10.2,1.3,19.6,2.2,28,3
					c8.4,0.7,15.7,1.2,21.8,1.5c6,0.3,10.8,0.5,14.1,0.7c3.3,0.1,5,0.2,5,0.2s-1.7,0-5,0.1c-3.3,0-8,0.2-14.1,0.1
					c-6.1,0-13.5-0.2-21.9-0.6c-8.5-0.4-18-0.9-28.4-1.9c-10.4-0.9-21.6-2.3-33.3-4.1s-24.1-4.1-36.5-7.2
					c-12.5-3-25.2-6.6-37.6-11.2c-12.4-4.5-24.6-9.9-35.7-16.4c-11.1-6.5-21.1-14.2-28.6-23.1C24.4,141.9,21.7,137,19.7,132.1z"/>
				<path id="XMLID_169_" class="st0" d="M242.9,32.7c-8.3,0-16.3,0-24.2,0.3c-15.7,0.4-30.5,1.4-44.1,2.7s-26,2.9-36.9,4.6
					c-10.9,1.7-20.3,3.6-28,5.2c-7.7,1.7-13.7,3.1-17.8,4.2c-4.1,1.1-6.2,1.6-6.2,1.6s2.1-0.7,6.1-1.9s9.8-3,17.5-4.9
					c15.2-3.8,37.4-8.6,64.8-11.7c13.7-1.6,28.6-2.9,44.4-3.6c7.9-0.4,16.1-0.6,24.4-0.7c8.4-0.1,16.9,0,25.5,0.3
					c34.6,1,71.5,4.8,107.1,12.5c17.7,4,35.1,8.9,51.4,15.1c16.3,6.1,31.5,13.6,44.2,22.6c12.7,8.9,22.5,20,26.2,31.8
					c1.9,6,2.3,11.8,1.4,17.5c-0.9,5.6-3.3,10.9-6.3,15.6c-5.9,9.5-14.8,16.6-23,22.3c-8.3,5.6-16.5,9.7-23.3,12.9
					c-3.4,1.6-6.5,2.9-9.3,4s-5.1,2-7,2.7c-3.9,1.4-5.9,2.1-5.9,2.1s2-0.8,5.8-2.4c3.8-1.6,9.1-4,15.8-7.3
					c6.6-3.4,14.4-7.7,22.2-13.5c1.9-1.5,4-2.9,5.8-4.6c0.9-0.8,2-1.6,2.9-2.5s1.8-1.8,2.7-2.7c3.6-3.7,7.1-7.7,9.7-12.3
					c2.6-4.5,4.7-9.5,5.4-14.8c0.7-5.2,0.1-10.9-1.9-16.2c-3.9-10.9-13.4-21-25.5-29.5c-12.1-8.6-27-15.7-42.9-21.6
					s-33-10.7-50.4-14.5c-34.9-7.7-71.2-11.8-105.4-13C259.6,32.9,251.1,32.8,242.9,32.7z"/>
				<path id="XMLID_170_" class="st0" d="M299.3,211.7c9.5-0.9,19-2.1,28.5-3.4c9.4-1.3,18.8-2.9,28.1-4.7l2.8-0.5l0.9,2.2
					c0.5,1.3,1.3,2.8,2.2,4.1c0.9,1.4,1.9,2.8,3,4.1c2.1,2.7,4.6,5.2,7.4,7.6c5.5,4.8,11.8,9,18.8,12.6s14.6,6.6,22.5,9.1
					c3.9,1.3,8,2.4,12,3.4l4.7,1.1c-0.6-0.9-1.2-1.7-1.7-2.6c-1.7-2.7-3.4-5.4-4.9-8.2c-3-5.5-5.6-11.2-7.6-17s-3.4-11.8-3.6-17.8
					c-0.1-3,0-6.1,0.6-9.1c0.3-1.5,0.7-3,1.2-4.5s1.2-2.9,1.9-4.4l0.3-0.6l0.8-0.3c10.7-4,21.3-8.4,31.5-13.1
					c5.1-2.4,10.1-4.9,14.8-7.6c4.7-2.8,9.3-5.7,12.8-9.3c-3,3.9-7.4,7.2-11.9,10.2s-9.3,5.8-14.2,8.4c-9.6,5.2-19.6,9.8-29.9,14.1
					c-2.2,5.1-2.9,10.6-2.4,16.1c0.5,5.7,2.1,11.3,4.1,16.8c2.1,5.5,4.7,11,7.8,16.3c1.5,2.7,3.2,5.3,4.9,7.9
					c1.7,2.6,3.5,5.2,5.4,7.6l4.2,5.4l-8-1.6l-6.5-1.3l-6.4-1.5c-4.3-1.1-8.5-2.2-12.6-3.5c-8.3-2.7-16.3-5.9-23.7-9.8
					c-1.9-0.9-3.7-2-5.4-3c-1.8-1.1-3.5-2.1-5.2-3.3c-3.4-2.3-6.5-4.7-9.4-7.4c-2.9-2.6-5.5-5.4-7.8-8.4c-1.1-1.5-2.2-3-3.1-4.6
					c-0.6-1-1.1-1.9-1.5-2.9c-8.6,1.4-17.2,2.6-25.9,3.6c-9.6,1.1-19.3,1.9-28.9,2.6c-9.7,0.6-19.4,0.9-29.1,1.1
					c-4.8,0.1-9.7,0.1-14.5,0c-4.8,0-9.7-0.2-14.5-0.4c9.7-0.3,19.3-0.7,28.9-1.3C280.2,213.4,289.8,212.6,299.3,211.7z"/>
			</g>
		</g>
	</g>
	<g>
		<g>
			<g>
				<defs>
					<rect id="SVGID_1_" y="-22.8" width="901" height="779.7"/>
				</defs>
				<clipPath id="SVGID_00000016042270648522861410000006264952168314250157_">
					<use xlink:href="#SVGID_1_"  style="overflow:visible;"/>
				</clipPath>
				<g style="clip-path:url(#SVGID_00000016042270648522861410000006264952168314250157_);">
					<g>
						<path class="st2" d="M958.1,1005.4c0,0-102.2-375.8-120.8-389.8c-18.6-13.9-124.5-53.1-124.5-53.1s-257.8,43-296.5,38.8
							c-38.7-4.3-163.2-28.3-181.1,0s-88.3,197.8-88.3,197.8l-99,41.8l-62.7,164.5H958.1z"/>
						
							<linearGradient id="SVGID_00000034771277178613585470000007286744774596924059_" gradientUnits="userSpaceOnUse" x1="-1207.5835" y1="1945.95" x2="-234.5835" y2="1945.95" gradientTransform="matrix(1 0 0 1 1192.6835 -1162)">
							<stop  offset="0" style="stop-color:#394085"/>
							<stop  offset="1" style="stop-color:#563168"/>
						</linearGradient>
						<path style="fill:url(#SVGID_00000034771277178613585470000007286744774596924059_);" d="M-14.9,1005.4h973
							c0,0-101.7-374.1-120.6-389.7c-0.1,0-0.1-0.1-0.1-0.1c-3.8-2.9-11.3-6.8-20.8-11.2c-36.8-17.1-103.7-41.9-103.7-41.9
							s-257.8,43.1-296.5,38.8s-163.2-28.3-181.1,0c-3.8,6-10,18.4-17.4,34.3c-27.3,58.5-71,163.5-71,163.5l-99,41.8L-14.9,1005.4z"
							/>
						<path class="st4" d="M217.8,635.6l38.4,38L356.4,650l113.3,23.6l-7.3,43.8l41.3,49.1L489,717.4l32.1-54c0,0,130.4,7.9,164.4,0
							c21.4-5,85.9-36.4,130.9-59c-36.8-17.1-103.7-41.9-103.7-41.9s-257.8,43.1-296.5,38.8s-163.2-28.3-181.1,0
							C231.4,607.3,225.2,619.8,217.8,635.6z"/>
						<path class="st4" d="M-14.9,1005.4h973c0,0-101.7-374.1-120.6-389.7c-0.1,0-0.1-0.1-0.1-0.1l62.7,291.6l-31.3,48.3l-77-58.5
							l-59.1,33l-82-16.6l-8.1-39.7l-116.1-76.4l72.8,67.7l-25.7,77L462,961.3H338.7l-51-34l17-69.1l25.7-40.1l-130.1-0.3l55.4,34.3
							L235.3,913l-62.6,29.1l-72.8-44.9L70.2,983L-14.9,1005.4z"/>
					</g>
					<g id="_x3C_Group_x3E__00000041257799873245352710000002405825477149494163_">
						
							<linearGradient id="SVGID_00000067954685188795083590000015363398472695882174_" gradientUnits="userSpaceOnUse" x1="-626.2285" y1="1453.2804" x2="-328.3125" y2="1453.2804" gradientTransform="matrix(1 0 0 1 1192.6835 -1162)">
							<stop  offset="0" style="stop-color:#1F2150"/>
							<stop  offset="1" style="stop-color:#361E44"/>
						</linearGradient>
						<path style="fill:url(#SVGID_00000067954685188795083590000015363398472695882174_);" d="M614.1,161.5c0,0,148-23.1,176.3-11
							c28.3,12.1,37.6,55.7,37.6,55.7s5,8.8-10.3,9.9c0,0,62.6,156.1,42.8,186C840.7,432,641.2,444,614.1,429.3
							C587,414.7,522,172.5,614.1,161.5z"/>
						<path class="st6" d="M526.9,310.2c0,0-19.6,45.5-24,51.8S401,413.2,401,413.2s-11.8-1.9-23.8,0s-28.6,6.9-30.1,8.8
							s18.1,30.3,18.1,30.3s39,2.4,43.8-13c0,0,97.7-36.3,109.1-45.8c11.4-9.5,43-65.7,43-65.7L526.9,310.2z"/>
						
							<linearGradient id="SVGID_00000088843112942381490540000007126135850202929062_" gradientUnits="userSpaceOnUse" x1="-771.7834" y1="1483.65" x2="-606.1835" y2="1483.65" gradientTransform="matrix(1 0 0 1 1192.6835 -1162)">
							<stop  offset="0" style="stop-color:#394085"/>
							<stop  offset="1" style="stop-color:#563168"/>
						</linearGradient>
						<path style="fill:url(#SVGID_00000088843112942381490540000007126135850202929062_);" d="M555,210.6
							c-18.3,10.9-47,128.5-53.1,142.4c-6.2,13.9-81,47.9-81,47.9l33.1,31.8c0,0,75.7-33.5,85.2-43.1c9.6-9.6,47.3-107.1,47.3-107.1
							L555,210.6z"/>
						<g>
							<path class="st8" d="M561.1,479.3c0,0-308.7-44.3-325,23.4c-17.2,71.6,230.6,119.9,378.8,125c148.1,5.1,190.8-27.5,167-210.6
								L582,416.6L561.1,479.3z"/>
							
								<linearGradient id="SVGID_00000059311336315514311370000009611724011963813001_" gradientUnits="userSpaceOnUse" x1="-957.4337" y1="1684.3934" x2="-404.6021" y2="1684.3934" gradientTransform="matrix(1 0 0 1 1192.6835 -1162)">
								<stop  offset="0" style="stop-color:#0F1634"/>
								<stop  offset="1" style="stop-color:#271535"/>
							</linearGradient>
							<path style="fill:url(#SVGID_00000059311336315514311370000009611724011963813001_);" d="M561.1,479.3
								c0,0-308.7-44.3-325,23.4c-17.2,71.6,230.6,119.9,378.8,125c148.1,5.1,190.8-27.5,167-210.6L582,416.6L561.1,479.3z"/>
						</g>
						<g>
							<g>
								
									<linearGradient id="SVGID_00000078730803332901264680000007869687064958931590_" gradientUnits="userSpaceOnUse" x1="-924.2155" y1="1737.0199" x2="-909.0084" y2="1737.0199" gradientTransform="matrix(1 0 0 1 1192.6835 -1162)">
									<stop  offset="0" style="stop-color:#FCBC67"/>
									<stop  offset="1" style="stop-color:#FAA32B"/>
								</linearGradient>
								<path style="fill:url(#SVGID_00000078730803332901264680000007869687064958931590_);" d="M282.3,584.2
									c0.3,0.2,0.8,0.2,1.1-0.1c0.3-0.2,0.4-0.6,0.3-0.9c-0.5-1.6-5.4-15.9-10.4-17.4c-1.1-0.3-2.2,0.1-3,0.9
									c-1.4,1.2-2.1,3-1.8,4.8c0.8,2.7,2.4,5,4.6,6.7C276,580.5,279,582.5,282.3,584.2z M281,581.5c-4.6-2-8.4-5.6-10.6-10.2
									c-0.3-1.2,0.2-2.5,1.3-3.3c0.3-0.3,0.7-0.5,1.2-0.3c0.4,0.1,0.8,0.4,1.1,0.7C277.1,572.3,279.5,576.7,281,581.5z"/>
							</g>
							<g>
								
									<linearGradient id="SVGID_00000114046019686517106460000006282844682695109815_" gradientUnits="userSpaceOnUse" x1="-912.0748" y1="1736.5719" x2="-902.9297" y2="1736.5719" gradientTransform="matrix(1 0 0 1 1192.6835 -1162)">
									<stop  offset="0" style="stop-color:#FCBC67"/>
									<stop  offset="1" style="stop-color:#FAA32B"/>
								</linearGradient>
								<path style="fill:url(#SVGID_00000114046019686517106460000006282844682695109815_);" d="M282.5,584.4
									c0.3,0.1,0.7,0,0.9-0.3c0.5-0.4,7.3-9,6.2-14.9c-0.3-1.5-1.1-2.7-2.4-3.6c-1.1-1-2.7-1.2-3.9-0.4
									c-3.6,2.5-3.1,14.1-1.4,18.5l0.1,0.4C282.2,584.3,282.4,584.4,282.5,584.4z M286.4,567.5c0.6,0.5,1,1.3,1.2,2.1
									c0.7,3.7-2.7,9.2-4.6,11.9c-1.1-4.9-0.8-13,1.3-14.5c0.2-0.1,0.7-0.5,1.7,0.3L286.4,567.5L286.4,567.5z"/>
							</g>
						</g>
						<polygon class="st12" points="389.2,620.5 324.5,620.5 293.4,620.6 289.7,587.9 318.4,584 388.6,574.7 						"/>
						<path class="st8" d="M296.7,583.8l7.9,37.3c0.4,2.1-0.9,4.1-3,4.5l-18.6,3.3c0,0-24.7,6.3-31.6,1.9
							c-20.3-13-39.8-95-31.5-101.1c3-2.2,8.3,1.1,10.9,3.8c8.3,8.5,26.1,32.2,33.1,39.2c8.2,8.2,22.8,8.4,29.1,8.1
							C294.7,580.7,296.3,582,296.7,583.8z"/>
						<polygon class="st13" points="389.2,620.5 324.5,620.5 318.4,584 388.6,574.7 						"/>
						<g>
							<g>
								<path class="st8" d="M633.5,477v8.2c0,5.5-4.6,10.6-10.1,10.6H322.3c-5.5,0-10.9-5.1-10.9-10.6V477H633.5z"/>
								<path class="st14" d="M633.5,477v8.2c0,5.5-4.6,10.6-10.1,10.6H322.3c-5.5,0-10.9-5.1-10.9-10.6V477H633.5z"/>
								<path class="st12" d="M521.2,477v8.2c0,5.5-4.7,10.6-10.2,10.6H322.3c-5.5,0-10.9-5.1-10.9-10.6V477H521.2z"/>
							</g>
							<g>
								<path class="st8" d="M511,488.3H312.1c-6.1,0-12.6-4.8-14.5-10.7L252,334.5c-1.9-5.9,1.5-11,7.6-11h199
									c6.1,0,12.6,5.1,14.5,11l45.6,142.9C520.5,483.3,517.1,488.3,511,488.3z"/>
								<path class="st14" d="M511,488.3H312.1c-6.1,0-12.6-4.8-14.5-10.7L252,334.5c-1.9-5.9,1.5-11,7.6-11h199
									c6.1,0,12.6,5.1,14.5,11l45.6,142.9C520.5,483.3,517.1,488.3,511,488.3z"/>
								<path class="st12" d="M503.5,488.3H312.1c-6.1,0-12.6-4.8-14.5-10.7L252,334.5c-1.9-5.9,1.5-11,7.6-11h191.5
									c6.1,0,12.6,5.1,14.5,11l45.6,142.9C513.1,483.3,509.6,488.3,503.5,488.3z"/>
							</g>
							<path class="st15" d="M387.2,412.4c2.5,9.5-2.3,17.3-10.6,17.3s-17-7.7-19.5-17.3c-2.5-9.5,2.3-17.3,10.6-17.3
								S384.7,402.9,387.2,412.4z"/>
						</g>
						
							<linearGradient id="SVGID_00000121278654736667292020000013760546185534302874_" gradientUnits="userSpaceOnUse" x1="-974.7432" y1="1742.6708" x2="-887.92" y2="1742.6708" gradientTransform="matrix(1 0 0 1 1192.6835 -1162)">
							<stop  offset="0" style="stop-color:#394085"/>
							<stop  offset="1" style="stop-color:#563168"/>
						</linearGradient>
						<path style="fill:url(#SVGID_00000121278654736667292020000013760546185534302874_);" d="M296.7,583.8l7.9,37.3
							c0.4,2.1-0.9,4.1-3,4.5l-18.6,3.3c0,0-24.7,6.3-31.6,1.9c-20.3-13-39.8-95-31.5-101.1c3-2.2,8.3,1.1,10.9,3.8
							c8.3,8.5,26.1,32.2,33.1,39.2c8.2,8.2,22.8,8.4,29.1,8.1C294.7,580.7,296.3,582,296.7,583.8z"/>
						<g>
							<polygon points="722.4,443 784.9,443.8 783.7,423.5 722.4,422.2 							"/>
							<polygon points="599.2,419.5 580.6,419.1 573.9,441.1 599.2,441.4 							"/>
							
								<linearGradient id="SVGID_00000018943880140288653370000012456857652726812838_" gradientUnits="userSpaceOnUse" x1="-585.4835" y1="1593.3" x2="-479.8835" y2="1593.3" gradientTransform="matrix(1 0 0 1 1192.6835 -1162)">
								<stop  offset="0" style="stop-color:#0E1119"/>
								<stop  offset="1" style="stop-color:#1B1124"/>
							</linearGradient>
							<polygon style="fill:url(#SVGID_00000018943880140288653370000012456857652726812838_);" points="607.2,419.7 607.2,441.5 
								712.8,442.9 712.8,422 							"/>
							<g>
								<path class="st12" d="M668.1,437.7l0.3-8.5c0.2-4.7-3.3-8.7-7.7-8.9l-19.1-0.8c-2.1-0.1-4.2,0.7-5.8,2.3
									c-1.6,1.6-2.5,3.7-2.6,6l-0.3,8.5c-0.2,4.7,3.3,8.7,7.7,8.9l19.1,0.8l0,0c0.1,0,0.2,0,0.3,0
									C664.3,445.9,667.9,442.3,668.1,437.7z M640.8,441.6c-2.6-0.1-4.6-2.4-4.5-5.2l0.3-8.5c0-1.3,0.6-2.6,1.5-3.5
									s2.1-1.4,3.4-1.3l19.1,0.8c2.6,0.1,4.6,2.4,4.5,5.2l-0.3,8.5c-0.1,2.8-2.2,4.9-4.9,4.8L640.8,441.6z"/>
							</g>
							<g>
								<path class="st12" d="M664.8,434.9h-9.6c-1.2,0-2.2-1-2.2-2.2s1-2.2,2.2-2.2h9.6c1.2,0,2.2,1,2.2,2.2S666,434.9,664.8,434.9
									z"/>
							</g>
						</g>
						<g>
							<path class="st2" d="M555,210.6c0,0,24.1,152.3,14,206.7l222.7,6.5c0,0-26.3-157.3-61.4-216.6
								C730.3,207.2,672.1,110.1,555,210.6z"/>
							
								<linearGradient id="SVGID_00000158721860230579718120000011426377270914214074_" gradientUnits="userSpaceOnUse" x1="-637.6835" y1="1456.4172" x2="-400.9835" y2="1456.4172" gradientTransform="matrix(1 0 0 1 1192.6835 -1162)">
								<stop  offset="1.704000e-02" style="stop-color:#9C6CAE"/>
								<stop  offset="0.244" style="stop-color:#876DB1"/>
								<stop  offset="0.4974" style="stop-color:#6A6FB4"/>
								<stop  offset="1" style="stop-color:#8D57A3"/>
							</linearGradient>
							<path style="fill:url(#SVGID_00000158721860230579718120000011426377270914214074_);" d="M555,210.6c0,0,24.1,152.3,14,206.7
								l222.7,6.5c0,0-26.3-157.3-61.4-216.6C730.3,207.2,672.1,110.1,555,210.6z"/>
						</g>
						<g>
							<path class="st12" d="M685.6,176.7c0,0-36.9,36.1-58.3,30.2c-21.4-5.9-29.3-16.8-29.3-16.8s17.1-7.5,15.3-11.6
								c-0.2-0.5-0.8-1.3-1.5-2.5c-6.4-9.7-29-40.6-29-40.6l48.6-27.2c0,0,4,9.4,8.9,20.6c6.6,14.8,14.8,32.9,17.6,36.2
								C662.6,170.9,685.6,176.7,685.6,176.7z"/>
							<path class="st13" d="M640.2,128.8c-3.1,17.1-10.5,37.4-28.5,47.2c-6.4-9.7-29-40.6-29-40.6l48.6-27.2
								C631.3,108.2,635.3,117.6,640.2,128.8z"/>
						</g>
						<g>
							
								<linearGradient id="SVGID_00000026147586972450151500000009851869269656237218_" gradientUnits="userSpaceOnUse" x1="-557.8547" y1="1286.7" x2="-526.05" y2="1286.7" gradientTransform="matrix(1 0 0 1 1192.6835 -1162)">
								<stop  offset="0" style="stop-color:#1F2150"/>
								<stop  offset="1" style="stop-color:#361E44"/>
							</linearGradient>
							<path style="fill:url(#SVGID_00000026147586972450151500000009851869269656237218_);" d="M649.9,95.1c0,0,4.9,15.4,3.9,26.3
								c-0.9,10.9,11.2,14.6,12.8,7.9c0,0-0.2,16.1-10.7,13.7c0,0,0.1,11.1-9.3,11.3c0,0-13.1-16.9-11.7-37.7
								C636.4,95.7,649.9,95.1,649.9,95.1z"/>
							<path class="st8" d="M566.3,41.7c15.8,6.6,13.1,43.4-13.2,74.9c-16.2-13.9-23.5-46-19.7-58.7
								C539.5,37.5,552.5,36.1,566.3,41.7z"/>
							<path class="st12" d="M543.2,131.3c0,0,0,0,0,0.1c1.5,4.4,3.2,8.6,5.1,12.4c15.6,31.8,60.6,38,80.5,6.5
								c0.1-0.1,0.2-0.2,0.2-0.3c13.1-21.2,8.2-41,2.7-75.2c-1.1-7.3-3.8-14.1-8.1-20.2c-15-21.4-44.5-26.6-65.9-11.6
								C531.6,61.1,533.1,102.1,543.2,131.3z"/>
							
								<linearGradient id="SVGID_00000125565422457974941470000017681487175489325958_" gradientUnits="userSpaceOnUse" x1="-616.1069" y1="1258.1382" x2="-609.2474" y2="1258.1382" gradientTransform="matrix(1 0 0 1 1192.6835 -1162)">
								<stop  offset="0" style="stop-color:#1F2150"/>
								<stop  offset="1" style="stop-color:#361E44"/>
							</linearGradient>
							<path style="fill:url(#SVGID_00000125565422457974941470000017681487175489325958_);" d="M583.3,95.4
								c0.6,2.8-0.4,5.3-2.2,5.7c-1.8,0.4-3.7-1.5-4.3-4.2c-0.6-2.8,0.3-5.3,2.1-5.7C580.6,90.7,582.5,92.7,583.3,95.4z"/>
							
								<linearGradient id="SVGID_00000022538565483536734760000011550335847490624944_" gradientUnits="userSpaceOnUse" x1="-647.4319" y1="1265.111" x2="-640.5111" y2="1265.111" gradientTransform="matrix(1 0 0 1 1192.6835 -1162)">
								<stop  offset="0" style="stop-color:#1F2150"/>
								<stop  offset="1" style="stop-color:#361E44"/>
							</linearGradient>
							<path style="fill:url(#SVGID_00000022538565483536734760000011550335847490624944_);" d="M552,102.4c0.6,2.8-0.4,5.3-2.2,5.7
								c-1.8,0.4-3.8-1.5-4.4-4.3c-0.6-2.8,0.4-5.3,2.2-5.7C549.4,97.8,551.4,99.7,552,102.4z"/>
							<path class="st13" d="M562.5,101.5c-1.4,9.1-4,18.1-7.9,26.5c6,3.4,13.7-0.5,13.7-0.5L562.5,101.5z"/>
							
								<linearGradient id="SVGID_00000033343161272843643460000005060843802626067621_" gradientUnits="userSpaceOnUse" x1="-618.1384" y1="1242.1514" x2="-601.714" y2="1242.1514" gradientTransform="matrix(1 0 0 1 1192.6835 -1162)">
								<stop  offset="0" style="stop-color:#1F2150"/>
								<stop  offset="1" style="stop-color:#361E44"/>
							</linearGradient>
							<path style="fill:url(#SVGID_00000033343161272843643460000005060843802626067621_);" d="M589.6,83.6c0.4,0,0.7-0.2,1-0.5
								c0.6-0.7,0.5-1.7-0.2-2.3c-4-3.6-9.5-4.9-14.7-3.7c-0.9,0.2-1.4,1.1-1.1,1.9v0.1c0.3,0.9,1.2,1.3,2.1,1.1l0,0
								c4.1-0.9,8.4,0.2,11.5,3.1C588.6,83.6,589.1,83.7,589.6,83.6z"/>
							
								<linearGradient id="SVGID_00000143619663392656926750000015351722882667806861_" gradientUnits="userSpaceOnUse" x1="-659.2911" y1="1250.2061" x2="-647.4873" y2="1250.2061" gradientTransform="matrix(1 0 0 1 1192.6835 -1162)">
								<stop  offset="0" style="stop-color:#1F2150"/>
								<stop  offset="1" style="stop-color:#361E44"/>
							</linearGradient>
							<path style="fill:url(#SVGID_00000143619663392656926750000015351722882667806861_);" d="M535.4,95.1
								c0.6-0.1,1.1-0.6,1.3-1.2c0.8-4.1,3.6-7.6,7.5-9.4c0.9-0.3,1.3-1.3,1-2.1c-0.3-0.8-1.2-1.3-2.1-1c-4.9,2.1-8.5,6.5-9.6,11.7
								c-0.2,0.9,0.3,1.8,1.2,2l0,0C534.9,95.1,535.1,95.1,535.4,95.1z"/>
							
								<linearGradient id="SVGID_00000021112220847193585310000007641280131965015993_" gradientUnits="userSpaceOnUse" x1="-618.5488" y1="1297.3872" x2="-597.046" y2="1297.3872" gradientTransform="matrix(1 0 0 1 1192.6835 -1162)">
								<stop  offset="0" style="stop-color:#1F2150"/>
								<stop  offset="1" style="stop-color:#361E44"/>
							</linearGradient>
							<path style="fill:url(#SVGID_00000021112220847193585310000007641280131965015993_);" d="M574.8,143.7
								c-0.3,0-0.6-0.2-0.7-0.6c-0.1-0.4,0.2-0.7,0.6-0.8c15.9-2.8,19.6-14.6,19.6-14.7c0.1-0.4,0.5-0.6,0.8-0.5
								c0.4,0.1,0.6,0.5,0.5,0.8c0,0.1-3.9,12.8-20.7,15.7C574.9,143.7,574.9,143.7,574.8,143.7z"/>
							
								<linearGradient id="SVGID_00000166644167988348614290000005587351259303695771_" gradientUnits="userSpaceOnUse" x1="-666.0949" y1="1219.907" x2="-546.108" y2="1219.907" gradientTransform="matrix(1 0 0 1 1192.6835 -1162)">
								<stop  offset="0" style="stop-color:#1F2150"/>
								<stop  offset="1" style="stop-color:#361E44"/>
							</linearGradient>
							<path style="fill:url(#SVGID_00000166644167988348614290000005587351259303695771_);" d="M536.4,69.2c0,0-10.2-7.8-9.8-17
								c0.6-13.3,8.6-22.2,18-27.8c7-4.5,17.1-7.9,32-8.7c39-2.3,60.3,9.4,66.9,30.3c4.1,7.4,4,21.1,0.3,34c0,0.1,0,0.2,0,0.2l0,0
								c-2.2,7.5-5.6,14.8-10.2,20.2c-23.7-20.6-32.6-35.2-28.9-44.9c-0.8-0.2-12.6-10.8-17.8-11.1c-7.5-0.4-21.5,6.8-32.8,13.5
								c-6.2,3.7-12.6-2.2-12.6-2.2L536.4,69.2z"/>
							<path class="st12" d="M653.8,98.2c-0.5,8.7-4.5,16.9-11,22.7c-8.7,7.6-18,1-19.8-9.8c-1.6-9.7,1.1-25.5,11.8-28.9
								C645.6,78.8,654.4,87.5,653.8,98.2z"/>
						</g>
						<g>
							<g>
								
									<linearGradient id="SVGID_00000000223232626265217520000011991333630184053890_" gradientUnits="userSpaceOnUse" x1="-613.114" y1="1808.0396" x2="-603.9919" y2="1808.0396" gradientTransform="matrix(1 0 0 1 1192.6835 -1162)">
									<stop  offset="0" style="stop-color:#FCBC67"/>
									<stop  offset="1" style="stop-color:#FAA32B"/>
								</linearGradient>
								<path style="fill:url(#SVGID_00000000223232626265217520000011991333630184053890_);" d="M582.2,635.7
									c-0.2-0.3-0.6-0.5-1-0.5s-0.6,0.3-0.7,0.7c-0.3,1.7-2.6,16.6,1.1,20.2c0.8,0.7,2,1,3,0.6c1.8-0.4,3.2-1.7,3.8-3.4
									c0.5-2.7,0.2-5.6-1-8.1C586,641.9,584.3,638.7,582.2,635.7z M582.1,638.7c3.1,3.9,4.8,8.9,4.6,13.9
									c-0.3,1.2-1.4,2.1-2.6,2.3c-0.4,0.2-0.9,0.1-1.2-0.2c-0.3-0.3-0.5-0.7-0.7-1.1C581.2,648.6,581.2,643.6,582.1,638.7z"/>
							</g>
							<polygon class="st12" points="483.7,562.8 545.1,583.2 574.6,593 567.7,625.2 539.3,619.7 469.7,606.4 							"/>
							<path class="st8" d="M559.8,626.8l4.3-37.9c0.2-2.1,2.2-3.6,4.3-3.3l18.7,2.7c0,0,25.4,1.8,30.6,8.2
								c15.1,18.7,7.7,102.8-2.1,105.9c-3.6,1.2-7.5-3.7-9.1-7.1c-5.2-10.7-14.5-38.8-19-47.6c-5.2-10.4-18.9-15.2-25.1-16.9
								C560.7,630.4,559.6,628.7,559.8,626.8z"/>
							<g>
								
									<linearGradient id="SVGID_00000058585576931326186580000014367527470640571535_" gradientUnits="userSpaceOnUse" x1="-624.1736" y1="1805.5739" x2="-610.2706" y2="1805.5739" gradientTransform="matrix(1 0 0 1 1192.6835 -1162)">
									<stop  offset="0" style="stop-color:#FCBC67"/>
									<stop  offset="1" style="stop-color:#FAA32B"/>
								</linearGradient>
								<path style="fill:url(#SVGID_00000058585576931326186580000014367527470640571535_);" d="M582.1,635.4
									c-0.2-0.3-0.6-0.3-0.9-0.2c-0.6,0.1-10.7,4.6-12.4,10.3c-0.4,1.4-0.3,3,0.4,4.3c0.5,1.4,1.8,2.3,3.3,2.2
									c4.3-0.6,9.3-11,9.8-15.7l0.1-0.4C582.3,635.6,582.2,635.5,582.1,635.4z M570.8,648.5c-0.3-0.8-0.3-1.6-0.1-2.4
									c1.1-3.6,6.7-6.9,9.6-8.4c-1.3,4.9-5.4,11.9-7.9,12.2c-0.3,0-0.8,0.1-1.4-1.1L570.8,648.5L570.8,648.5z"/>
							</g>
							<polygon class="st13" points="483.7,562.8 545.1,583.2 539.3,619.7 469.7,606.4 							"/>
							<g>
								<polygon class="st2" points="528.6,625.4 511.1,627.1 521.6,566.5 541.7,577.1 								"/>
								<g>
									
										<linearGradient id="SVGID_00000125581790219491557300000007907460033886081469_" gradientUnits="userSpaceOnUse" x1="-681.5835" y1="1758.8" x2="-650.9835" y2="1758.8" gradientTransform="matrix(1 0 0 1 1192.6835 -1162)">
										<stop  offset="0" style="stop-color:#FCBC67"/>
										<stop  offset="1" style="stop-color:#FAA32B"/>
									</linearGradient>
									<polygon style="fill:url(#SVGID_00000125581790219491557300000007907460033886081469_);" points="528.6,625.4 511.1,627.1 
										521.6,566.5 541.7,577.1 									"/>
								</g>
							</g>
							
								<linearGradient id="SVGID_00000069361268253657190560000011624007705688743076_" gradientUnits="userSpaceOnUse" x1="-632.9069" y1="1806.0734" x2="-566.3719" y2="1806.0734" gradientTransform="matrix(1 0 0 1 1192.6835 -1162)">
								<stop  offset="0" style="stop-color:#394085"/>
								<stop  offset="1" style="stop-color:#563168"/>
							</linearGradient>
							<path style="fill:url(#SVGID_00000069361268253657190560000011624007705688743076_);" d="M559.8,626.8l4.3-37.9
								c0.2-2.1,2.2-3.6,4.3-3.3l18.7,2.7c0,0,25.4,1.8,30.6,8.2c15.1,18.7,7.7,102.8-2.1,105.9c-3.6,1.2-7.5-3.7-9.1-7.1
								c-5.2-10.7-14.5-38.8-19-47.6c-5.2-10.4-18.9-15.2-25.1-16.9C560.7,630.4,559.6,628.7,559.8,626.8z"/>
						</g>
						
							<linearGradient id="SVGID_00000022522974348138080270000015637792870739431325_" gradientUnits="userSpaceOnUse" x1="-862.2834" y1="1717.9955" x2="-414.1515" y2="1717.9955" gradientTransform="matrix(1 0 0 1 1192.6835 -1162)">
							<stop  offset="0" style="stop-color:#1F2150"/>
							<stop  offset="1" style="stop-color:#361E44"/>
						</linearGradient>
						<path style="fill:url(#SVGID_00000022522974348138080270000015637792870739431325_);" d="M330.4,579.3
							c0,0,287.2-111.5,375.1-92.9c88,18.6,88.4,64.7,43.8,107.6s-111.2,26.4-111.2,26.4s52.3-31.4,48.7-50.7
							c-3.7-19.4-36.9,24.9-36.9,24.9S476.3,637,333,625.8L330.4,579.3z"/>
						<g>
							<polygon class="st2" points="326.9,574.6 343,567.2 352.3,627.7 329.9,624 							"/>
							<g>
								
									<linearGradient id="SVGID_00000091729055631265186960000006432315727861568901_" gradientUnits="userSpaceOnUse" x1="-865.8098" y1="1759.45" x2="-840.4099" y2="1759.45" gradientTransform="matrix(1 0 0 1 1192.6835 -1162)">
									<stop  offset="0" style="stop-color:#FCBC67"/>
									<stop  offset="1" style="stop-color:#FAA32B"/>
								</linearGradient>
								<polygon style="fill:url(#SVGID_00000091729055631265186960000006432315727861568901_);" points="326.9,574.6 343,567.2 
									352.3,627.7 329.9,624 								"/>
							</g>
						</g>
						<g>
							<path class="st2" d="M703.9,165c0,0-38.8,105.6-36.8,129.4s82.1,201.3,82.1,201.3l66.2,26.6
								C815.3,522.4,801.6,261.2,703.9,165z"/>
							
								<linearGradient id="SVGID_00000039821429231074129440000007445413864694968249_" gradientUnits="userSpaceOnUse" x1="-525.6582" y1="1505.65" x2="-377.2835" y2="1505.65" gradientTransform="matrix(1 0 0 1 1192.6835 -1162)">
								<stop  offset="0" style="stop-color:#394085"/>
								<stop  offset="1" style="stop-color:#563168"/>
							</linearGradient>
							<path style="fill:url(#SVGID_00000039821429231074129440000007445413864694968249_);" d="M703.9,165
								c0,0-38.8,105.6-36.8,129.4s82.1,201.3,82.1,201.3l66.2,26.6C815.3,522.4,801.6,261.2,703.9,165z"/>
							<path class="st2" d="M563.6,471.7c0,0,20.7-49.3,27.4-76.6c6.6-27.3-16.6-167.5-4.1-214.5l-31.9,30l13.5,175.1L563.6,471.7z"
								/>
							
								<linearGradient id="SVGID_00000120523627465300801440000001601048165783818647_" gradientUnits="userSpaceOnUse" x1="-637.6835" y1="1488.15" x2="-600.4764" y2="1488.15" gradientTransform="matrix(1 0 0 1 1192.6835 -1162)">
								<stop  offset="0" style="stop-color:#394085"/>
								<stop  offset="1" style="stop-color:#563168"/>
							</linearGradient>
							<path style="fill:url(#SVGID_00000120523627465300801440000001601048165783818647_);" d="M563.6,471.7
								c0,0,20.7-49.3,27.4-76.6c6.6-27.3-16.6-167.5-4.1-214.5l-31.9,30l13.5,175.1L563.6,471.7z"/>
							
								<linearGradient id="SVGID_00000089533424017813392890000016567101194669300926_" gradientUnits="userSpaceOnUse" x1="-511.803" y1="1444.0009" x2="-391.1835" y2="1444.0009" gradientTransform="matrix(1 0 0 1 1192.6835 -1162)">
								<stop  offset="0" style="stop-color:#1F2150"/>
								<stop  offset="1" style="stop-color:#361E44"/>
							</linearGradient>
							<path style="fill:url(#SVGID_00000089533424017813392890000016567101194669300926_);" d="M799.2,395.2
								c0,0-137.7,26.5-116-225.2l22.4-2c0,0-13.7,95.6,11.5,158.2c25.1,62.6,84.4,59.6,84.4,59.6L799.2,395.2z"/>
							
								<linearGradient id="SVGID_00000089568520021357550620000014748103004293747080_" gradientUnits="userSpaceOnUse" x1="-524.8835" y1="1382.651" x2="-464.3193" y2="1382.651" gradientTransform="matrix(1 0 0 1 1192.6835 -1162)">
								<stop  offset="1.704000e-02" style="stop-color:#8D57A3"/>
								<stop  offset="0.2149" style="stop-color:#7957A4"/>
								<stop  offset="0.4974" style="stop-color:#5357A6"/>
								<stop  offset="1" style="stop-color:#8D57A3"/>
							</linearGradient>
							<path style="fill:url(#SVGID_00000089568520021357550620000014748103004293747080_);" d="M667.8,283.4L714,176l14,18.4
								c0,0,2.5-26-5.6-33.6c-8.1-7.6-30.6,1.9-39.5,4.1C674.1,167.3,667.8,283.4,667.8,283.4z"/>
							
								<linearGradient id="SVGID_00000183964955367867015950000010803191050923202695_" gradientUnits="userSpaceOnUse" x1="-626.7585" y1="1450.0205" x2="-597.7277" y2="1450.0205" gradientTransform="matrix(1 0 0 1 1192.6835 -1162)">
								<stop  offset="0" style="stop-color:#1F2150"/>
								<stop  offset="1" style="stop-color:#361E44"/>
							</linearGradient>
							<path style="fill:url(#SVGID_00000183964955367867015950000010803191050923202695_);" d="M595,182.3
								c0,0-17.8,52.8-14.9,135.5c2.9,82.7-11.9,75.8-11.9,75.8l-2.1-7.8c0,0,8.3-1,7.7-28.8c-0.7-27.9-4.3-140.3,6.4-169.9
								L595,182.3z"/>
							
								<linearGradient id="SVGID_00000026871557404403329480000002293685217771750073_" gradientUnits="userSpaceOnUse" x1="-617.8224" y1="1391.1722" x2="-576.1796" y2="1391.1722" gradientTransform="matrix(1 0 0 1 1192.6835 -1162)">
								<stop  offset="1.704000e-02" style="stop-color:#8D57A3"/>
								<stop  offset="0.2149" style="stop-color:#7957A4"/>
								<stop  offset="0.4974" style="stop-color:#5357A6"/>
								<stop  offset="1" style="stop-color:#8D57A3"/>
							</linearGradient>
							<path style="fill:url(#SVGID_00000026871557404403329480000002293685217771750073_);" d="M585.6,280.3
								c0,0-4.2-79.3,17.9-102.5c0,0-16.7-6.2-23.5,0s-8.4,66.6,4.9,105.5"/>
						</g>
						<path class="st12" d="M697.5,312.6c0,0-20.2,46.8-24.7,53.3c-4.6,6.5-136.1,56.8-136.1,56.8s-12.2-2-24.5,0
							c-12.4,2-9.4,2.3-9.4,4.8c0,5.3,10.4,34.1,10.4,34.1s26.8,3.9,31.8-12c0,0,131.8-41.4,143.5-51.2
							c11.7-9.8,44.2-67.6,44.2-67.6L697.5,312.6z"/>
						
							<linearGradient id="SVGID_00000085245331414323147690000000055179174152773035_" gradientUnits="userSpaceOnUse" x1="-653.4835" y1="1490.7999" x2="-438.9864" y2="1490.7999" gradientTransform="matrix(1 0 0 1 1192.6835 -1162)">
							<stop  offset="0" style="stop-color:#394085"/>
							<stop  offset="1" style="stop-color:#563168"/>
						</linearGradient>
						<path style="fill:url(#SVGID_00000085245331414323147690000000055179174152773035_);" d="M722.4,207.6
							c-21.5,0.1-51.6,131.2-57.4,149c-5.8,17.8-125.8,60-125.8,60l28.3,33.4c0,0,127.6-38.9,138.9-54.9
							c11.3-16,45.6-107.1,47.2-128.2C755.2,245.9,736.7,207.5,722.4,207.6z"/>
					</g>
				</g>
			</g>
		</g>
	</g>
</g>
</svg>
