<?xml version="1.0" encoding="utf-8"?>
<!-- Generator: Adobe Illustrator 27.0.0, SVG Export Plug-In . SVG Version: 6.00 Build 0)  -->
<svg version="1.1" id="Layer_1" xmlns="http://www.w3.org/2000/svg" xmlns:xlink="http://www.w3.org/1999/xlink" x="0px" y="0px"
	 viewBox="0 0 60 60" style="enable-background:new 0 0 60 60;" xml:space="preserve">
<style type="text/css">
	.st0{fill:#5357A6;}
</style>
<g>
	<g>
		<path class="st0" d="M15.6,39.6C15.6,39.6,15.6,39.6,15.6,39.6c2.1,0,3.8-1.7,3.8-3.8v-1.9H55c2.1,0,3.8-1.7,3.8-3.8
			c0-2.1-1.7-3.8-3.8-3.8H19.4v-1.9c0-2.1-1.7-3.8-3.8-3.8c-2.1,0-3.8,1.7-3.8,3.8l0,0v1.9H5c-2.1,0-3.8,1.7-3.8,3.8
			c0,2.1,1.7,3.8,3.8,3.8h6.7v1.9C11.7,37.9,13.5,39.6,15.6,39.6z"/>
		<path class="st0" d="M55,45.4H31.9v-1.9c0-2.1-1.7-3.8-3.8-3.8s-3.8,1.7-3.8,3.8v1.9H5c-2.1,0-3.8,1.7-3.8,3.8
			c0,2.1,1.7,3.8,3.8,3.8h19.2V55c0,2.1,1.7,3.8,3.8,3.8s3.8-1.7,3.8-3.8v-1.9H55c2.1,0,3.8-1.7,3.8-3.8
			C58.8,47.1,57.1,45.4,55,45.4z"/>
		<path class="st0" d="M5,14.6h34.6v1.9c0,2.1,1.7,3.8,3.8,3.8s3.8-1.7,3.8-3.8v-1.9H55c2.1,0,3.8-1.7,3.8-3.8c0,0,0,0,0,0
			c0-2.1-1.7-3.8-3.8-3.8h-7.7V5c0-2.1-1.7-3.8-3.8-3.8S39.6,2.9,39.6,5v1.9H5c-2.1,0-3.8,1.7-3.8,3.8C1.2,12.9,2.9,14.6,5,14.6z"/>
	</g>
</g>
</svg>
