<?xml version="1.0" encoding="utf-8"?>
<!-- Generator: Adobe Illustrator 27.0.0, SVG Export Plug-In . SVG Version: 6.00 Build 0)  -->
<svg version="1.1" id="Layer_1" xmlns="http://www.w3.org/2000/svg" xmlns:xlink="http://www.w3.org/1999/xlink" x="0px" y="0px"
	 viewBox="0 0 60 60" style="enable-background:new 0 0 60 60;" xml:space="preserve">
<style type="text/css">
	.st0{fill:#FFFFFF;}
</style>
<g>
	<path class="st0" d="M45,0H15C6.8,0,0,6.8,0,15v30c0,8.3,6.8,15,15,15h30c8.3,0,15-6.8,15-15V15C60,6.8,53.2,0,45,0z M31.4,46.6
		c-2.9,0-5.7-0.7-8.2-2.1L13.8,47l2.5-9.3c-1.4-2.6-2.2-5.4-2.2-8.3c0-9.5,7.7-17.2,17.2-17.2c9.5,0,17.2,7.7,17.2,17.2
		C48.6,38.8,40.9,46.6,31.4,46.6z"/>
	<path class="st0" d="M31.4,15.3c-7.7,0-14,6.3-14,14c0,2.5,0.7,5,2,7.2l0.4,0.6l-1.4,5.2l5.2-1.4l0.6,0.4c2.2,1.3,4.6,2,7.1,2
		c7.7,0,14-6.3,14-14C45.3,21.6,39.1,15.3,31.4,15.3z M39.6,34.6c-0.5,1.3-1.8,2.1-3.1,2.3c-1.3,0.2-2.3-0.2-3.4-0.5
		c-1-0.3-2-0.8-3-1.4c-1.9-1.1-3.5-2.7-4.7-4.4c-0.4-0.5-0.8-1.1-1.1-1.7c-0.4-0.8-0.8-1.6-1-2.4c-0.1-0.4-0.1-0.7-0.1-1.1
		c0-1.3,0.5-2.6,1.5-3.4c0.6-0.5,1.5-0.7,2.1-0.3c0.7,0.4,1.1,1.4,1.4,2.2c0.3,0.6,0.6,1.3,0.5,1.9c-0.1,0.6-0.6,1.2-1,1.6
		c-0.3,0.3-0.3,0.6-0.1,0.9c1.3,2.2,3.2,3.8,5.6,4.8c0.3,0.1,0.6,0.1,0.8-0.2c0.4-0.5,0.8-1.5,1.5-1.8c0.8-0.3,1.8,0.1,2.5,0.6
		c0.7,0.4,1.8,0.9,1.9,1.7C39.8,33.8,39.7,34.2,39.6,34.6z"/>
</g>
</svg>
