<?xml version="1.0" encoding="utf-8"?>
<!-- Generator: Adobe Illustrator 27.0.0, SVG Export Plug-In . SVG Version: 6.00 Build 0)  -->
<svg version="1.1" id="Layer_1" xmlns="http://www.w3.org/2000/svg" xmlns:xlink="http://www.w3.org/1999/xlink" x="0px" y="0px"
	 viewBox="0 0 60 60" style="enable-background:new 0 0 60 60;" xml:space="preserve">
<style type="text/css">
	.st0{fill:#FFFFFF;}
</style>
<g>
	<path class="st0" d="M37,15.7H23c-4,0-7.3,3.3-7.3,7.3v14c0,4,3.3,7.3,7.3,7.3h14c4,0,7.3-3.3,7.3-7.3V23C44.3,19,41,15.7,37,15.7z
		 M30.1,38.7c-4.8,0-8.7-3.9-8.7-8.7c0-4.8,3.9-8.7,8.7-8.7s8.7,3.9,8.7,8.7C38.8,34.8,34.9,38.7,30.1,38.7z M39.3,22.8
		c-1.1,0-2.1-0.9-2.1-2.1c0-1.1,0.9-2.1,2.1-2.1c1.1,0,2.1,0.9,2.1,2.1C41.4,21.9,40.5,22.8,39.3,22.8z"/>
	<path class="st0" d="M30.1,24.5c-3.1,0-5.5,2.5-5.5,5.6c0,3.1,2.5,5.5,5.5,5.5s5.5-2.5,5.5-5.5C35.7,26.9,33.2,24.5,30.1,24.5z"/>
	<path class="st0" d="M45,0H15C6.8,0,0,6.8,0,15v30c0,8.3,6.8,15,15,15h30c8.3,0,15-6.8,15-15V15C60,6.8,53.2,0,45,0z M47.6,37
		c0,5.8-4.7,10.6-10.6,10.6H23c-5.8,0-10.6-4.7-10.6-10.6V23c0-5.8,4.7-10.6,10.6-10.6h14c5.8,0,10.6,4.7,10.6,10.6V37z"/>
</g>
</svg>
