<?xml version="1.0" encoding="utf-8"?>
<!-- Generator: Adobe Illustrator 27.0.0, SVG Export Plug-In . SVG Version: 6.00 Build 0)  -->
<svg version="1.1" id="Layer_1" xmlns="http://www.w3.org/2000/svg" xmlns:xlink="http://www.w3.org/1999/xlink" x="0px" y="0px"
	 viewBox="0 0 60 60" style="enable-background:new 0 0 60 60;" xml:space="preserve">
<style type="text/css">
	.st0{fill:#FFFFFF;}
</style>
<g id="Mail_1_">
	<g>
		<path class="st0" d="M51.5,9.4h-43c-3.9,0-7.2,3.2-7.2,7.2v26.8c0,3.9,3.2,7.2,7.2,7.2h43c3.9,0,7.2-3.2,7.2-7.2V16.6
			C58.6,12.6,55.4,9.4,51.5,9.4z M55.1,43.4c0,2-1.6,3.6-3.6,3.6h-43c-2,0-3.6-1.6-3.6-3.6V16.6c0-2,1.6-3.6,3.6-3.6h43
			c2,0,3.6,1.6,3.6,3.6V43.4z"/>
		<path class="st0" d="M48.6,18.8L30,34L11.4,18.8c-0.8-0.6-1.9-0.5-2.5,0.3c-0.6,0.8-0.5,1.9,0.3,2.5l19.7,16.1
			c0.3,0.3,0.7,0.4,1.1,0.4s0.8-0.1,1.1-0.4l19.7-16.1c0.8-0.6,0.9-1.8,0.3-2.5C50.4,18.3,49.3,18.1,48.6,18.8z"/>
	</g>
</g>
</svg>
