<?xml version="1.0" encoding="utf-8"?>
<!-- Generator: Adobe Illustrator 27.0.0, SVG Export Plug-In . SVG Version: 6.00 Build 0)  -->
<svg version="1.1" id="Layer_1" xmlns="http://www.w3.org/2000/svg" xmlns:xlink="http://www.w3.org/1999/xlink" x="0px" y="0px"
	 viewBox="0 0 60 60" style="enable-background:new 0 0 60 60;" xml:space="preserve">
<style type="text/css">
	.st0{fill:#FFFFFF;}
</style>
<path class="st0" d="M60,15c0-8.3-6.8-15-15-15H15C6.8,0,0,6.8,0,15v30c0,8.3,6.8,15,15,15h30c8.3,0,15-6.8,15-15L60,15z M23.2,43.1
	h-5.8V24.4h5.8V43.1z M20.3,21.9c-1.9,0-3.4-1.5-3.4-3.4c0-1.9,1.5-3.4,3.4-3.4c1.9,0,3.4,1.5,3.4,3.4
	C23.7,20.4,22.2,21.9,20.3,21.9z M45,43.1h-5.8V34c0-2.2,0-5-3-5c-3,0-3.5,2.4-3.5,4.8v9.2h-5.8V24.4h5.6V27h0.1
	c0.8-1.5,2.7-3,5.5-3c5.9,0,7,3.9,7,8.9V43.1z"/>
</svg>
