<?xml version="1.0" encoding="utf-8"?>
<!-- Generator: Adobe Illustrator 27.0.0, SVG Export Plug-In . SVG Version: 6.00 Build 0)  -->
<svg version="1.1" id="Layer_1" xmlns="http://www.w3.org/2000/svg" xmlns:xlink="http://www.w3.org/1999/xlink" x="0px" y="0px"
	 viewBox="0 0 60 60" style="enable-background:new 0 0 60 60;" xml:space="preserve">
<style type="text/css">
	.st0{fill:#FFFFFF;}
</style>
<path class="st0" d="M60,15.7C60,7.1,52.9,0,44.3,0H15.7C7.1,0,0,7.1,0,15.7v28.6C0,52.9,7.1,60,15.7,60h9.6V39.7h-7.6V31h7.6v-6.6
	c0-7.5,4.5-11.7,11.3-11.7c3.3,0,6.7,0.6,6.7,0.6v7.4h-3.8c-3.7,0-4.9,2.3-4.9,4.7V31H43l-1.3,8.7h-7V60h9.6
	C52.9,60,60,52.9,60,44.3V15.7z"/>
</svg>
