<?xml version="1.0" encoding="utf-8"?>
<!-- Generator: Adobe Illustrator 27.0.0, SVG Export Plug-In . SVG Version: 6.00 Build 0)  -->
<svg version="1.1" id="Layer_1" xmlns="http://www.w3.org/2000/svg" xmlns:xlink="http://www.w3.org/1999/xlink" x="0px" y="0px"
	 viewBox="0 0 60 60" style="enable-background:new 0 0 60 60;" xml:space="preserve">
<style type="text/css">
	.st0{fill:#FFFFFF;}
</style>
<g id="Map_pin_1_">
	<path class="st0" d="M30,0.9C17.1,0.9,6.6,11.4,6.6,24.3c0,11.1,12,24.4,22.2,33.7l1.2,1.1l1.2-1.2c11.2-10.8,22.1-22.2,22.1-33.7
		C53.4,11.4,42.9,0.9,30,0.9z M30,54.2C17.2,42.3,10.2,31.7,10.2,24.3c0-10.9,8.9-19.8,19.8-19.8c10.9,0,19.8,8.9,19.8,19.8
		C49.8,33.9,40.2,44.3,30,54.2z"/>
	<path class="st0" d="M30,15.3c-5,0-9,4-9,9s4,9,9,9s9-4,9-9S35,15.3,30,15.3z M30,29.7c-3,0-5.4-2.4-5.4-5.4s2.4-5.4,5.4-5.4
		s5.4,2.4,5.4,5.4S33,29.7,30,29.7z"/>
</g>
</svg>
