<?xml version="1.0" encoding="utf-8"?>
<!-- Generator: Adobe Illustrator 27.0.0, SVG Export Plug-In . SVG Version: 6.00 Build 0)  -->
<svg version="1.1" id="Layer_1" xmlns="http://www.w3.org/2000/svg" xmlns:xlink="http://www.w3.org/1999/xlink" x="0px" y="0px"
	 viewBox="0 0 60 60" style="enable-background:new 0 0 60 60;" xml:space="preserve">
<style type="text/css">
	.st0{fill:#FFFFFF;}
</style>
<g>
	<path class="st0" d="M58.8,26.8C53.7,15.1,44.6,6,33.1,1.1c-1-0.4-2.1,0.1-2.4,1.1c-0.4,1,0.1,2.1,1,2.5
		c10.6,4.5,19.1,12.8,23.8,23.7c0.3,0.7,1,1.1,1.7,1.1c0.3,0,0.5-0.1,0.8-0.2C58.8,28.9,59.3,27.8,58.8,26.8z"/>
	<path class="st0" d="M30.7,15.1c6.4,2.7,11.6,7.8,14.4,14.3c0.3,0.7,1,1.1,1.7,1.1c0.2,0,0.5-0.1,0.7-0.2c0.9-0.4,1.3-1.5,0.9-2.5
		c-3.2-7.4-9-13.2-16.4-16.2c-0.9-0.4-2,0.1-2.4,1S29.7,14.7,30.7,15.1z"/>
	<path class="st0" d="M49,37.6c-1-1-2.2-1.5-3.3-1.5c-1.2,0-2.3,0.5-3.3,1.5c-1.6,1.5-3.1,3.1-4.7,4.7c-0.3,0.3-0.5,0.4-0.7,0.4
		c-0.2,0-0.3-0.1-0.5-0.2c-1-0.6-2.1-1-3.1-1.6c-4.5-2.8-8.3-6.5-11.7-10.6c-1.7-2-3.2-4.2-4.2-6.7c-0.2-0.5-0.2-0.8,0.2-1.2
		c1.6-1.5,3.1-3.1,4.6-4.6c2.1-2.2,2.1-4.7,0-6.8c-1.2-1.2-2.4-2.4-3.7-3.7c-1.3-1.3-2.5-2.5-3.8-3.8c-1-1-2.2-1.5-3.3-1.5
		c-1.2,0-2.3,0.5-3.3,1.5C6.5,5,5,6.6,3.4,8.1C2,9.5,1.2,11.3,1,13.3c-0.2,3.3,0.6,6.4,1.7,9.4C5,28.9,8.6,34.4,12.8,39.5
		c5.8,6.9,12.6,12.3,20.7,16.2c3.6,1.8,7.4,3.1,11.5,3.3c0.2,0,0.5,0,0.7,0c2.5,0,4.7-0.8,6.5-2.8c1.3-1.5,2.8-2.9,4.3-4.3
		c2.1-2.1,2.1-4.7,0-6.8C54,42.6,51.5,40.1,49,37.6z M53.8,49.3c-0.5,0.5-0.9,0.9-1.4,1.4c-1,1-2,1.9-3,3c-0.9,1-2,1.5-3.6,1.5
		c-0.2,0-0.3,0-0.5,0c-3.1-0.2-6.1-1.1-10-3c-7.5-3.6-14-8.7-19.5-15.2c-4.4-5.2-7.4-10.3-9.4-15.7c-1.2-3.1-1.6-5.5-1.4-7.7
		c0.1-1.1,0.5-2,1.2-2.7C7,9.9,8,9,9,8c0.6-0.6,1.2-1.2,1.8-1.8c0.3-0.3,0.6-0.4,0.7-0.4c0.1,0,0.3,0.1,0.7,0.4
		C13,7,13.8,7.8,14.6,8.7l1.3,1.3c0.6,0.6,1.2,1.3,1.9,1.9c0.6,0.6,1.2,1.2,1.8,1.8c0.7,0.7,0.7,0.8,0,1.5l-0.6,0.6
		c-1.3,1.3-2.6,2.6-4,4c-1.5,1.5-1.9,3.5-1.1,5.4c1.1,2.5,2.6,5,4.7,7.6c4,4.9,8.1,8.6,12.6,11.5c0.7,0.5,1.5,0.8,2.2,1.2
		c0.4,0.2,0.7,0.4,1,0.5c0.8,0.4,1.6,0.7,2.4,0.7c0.9,0,2.2-0.3,3.5-1.6c1.5-1.5,3-3.1,4.6-4.6c0.3-0.3,0.6-0.4,0.7-0.4
		c0.1,0,0.3,0.1,0.7,0.4c2.5,2.5,5,5,7.5,7.5C54.4,48.4,54.4,48.6,53.8,49.3z"/>
</g>
</svg>
