<?xml version="1.0" encoding="utf-8"?>
<!-- Generator: Adobe Illustrator 27.0.0, SVG Export Plug-In . SVG Version: 6.00 Build 0)  -->
<svg version="1.1" id="Layer_1" xmlns="http://www.w3.org/2000/svg" xmlns:xlink="http://www.w3.org/1999/xlink" x="0px" y="0px"
	 viewBox="0 0 369.6 380.4" style="enable-background:new 0 0 369.6 380.4;" xml:space="preserve">
<style type="text/css">
	.st0{opacity:0.14;}
	.st1{fill:url(#SVGID_1_);}
	.st2{fill:url(#SVGID_00000156559359228448273940000014804389911307515547_);}
</style>
<g class="st0">
	<g>
		<linearGradient id="SVGID_1_" gradientUnits="userSpaceOnUse" x1="86.9313" y1="85.273" x2="33.899" y2="85.273">
			<stop  offset="0" style="stop-color:#5357A5"/>
			<stop  offset="1" style="stop-color:#8C57A2"/>
		</linearGradient>
		<path class="st1" d="M60.4,60.8c13.5,0,24.5,11,24.5,24.5c0,13.5-11,24.5-24.5,24.5s-24.5-11-24.5-24.5
			C35.9,71.7,46.9,60.8,60.4,60.8 M60.4,58.8c-14.6,0-26.5,11.9-26.5,26.5c0,14.6,11.9,26.5,26.5,26.5s26.5-11.9,26.5-26.5
			C86.9,70.7,75,58.8,60.4,58.8L60.4,58.8z"/>
	</g>
	<g>
		
			<linearGradient id="SVGID_00000165193718475396559540000014508986551136913305_" gradientUnits="userSpaceOnUse" x1="348.5171" y1="190.2174" x2="21.0248" y2="190.2174">
			<stop  offset="0" style="stop-color:#5357A5"/>
			<stop  offset="1" style="stop-color:#8C57A2"/>
		</linearGradient>
		<path style="fill:url(#SVGID_00000165193718475396559540000014508986551136913305_);" d="M176.6,20.7c3.5,0,6.9,1.1,9.8,3.5
			l143.6,115.5c19.6,16.7,22,46.1,5.4,65.6L216.9,353.8c-3.1,3.9-7.7,5.9-12.3,5.9c-3.7,0-7.5-1.3-10.5-4L174,337.8
			c-5-4.4-6.5-11.5-4.1-17.6c12.4-31.4-0.9-64.6-23.7-84.1c-14.4-12.3-32.8-19.2-52.1-19.2c-13.3,0-27.1,3.3-40.3,10.2
			c-2.2,1.2-4.6,1.7-7,1.7c-3.1,0-6.2-0.9-8.8-2.7l-7.9-5.3c-7.7-5.1-9.3-15.8-3.5-23L164.4,26.6C167.5,22.7,172.1,20.7,176.6,20.7
			 M176.6,18.7c-5.4,0-10.4,2.4-13.8,6.6L25,196.5c-3.1,3.8-4.5,8.9-3.7,13.8c0.7,4.9,3.5,9.3,7.7,12.1l7.9,5.3c3,2,6.4,3,9.9,3
			c2.8,0,5.5-0.7,7.9-1.9c12.6-6.6,25.9-10,39.4-10c18.7,0,36.7,6.7,50.8,18.8c20.6,17.6,35.8,49.8,23.1,81.9
			c-2.7,7-0.9,14.9,4.6,19.9l20.1,17.9c3.3,2.9,7.5,4.5,11.8,4.5c5.4,0,10.5-2.4,13.9-6.7L337,206.7c17.3-20.4,14.8-51.1-5.6-68.4
			l0,0l0,0L187.7,22.7C184.6,20.1,180.7,18.7,176.6,18.7L176.6,18.7z"/>
	</g>
</g>
</svg>
