<?xml version="1.0" encoding="utf-8"?>
<!-- Generator: Adobe Illustrator 27.0.0, SVG Export Plug-In . SVG Version: 6.00 Build 0)  -->
<svg version="1.1" id="Layer_1" xmlns="http://www.w3.org/2000/svg" xmlns:xlink="http://www.w3.org/1999/xlink" x="0px" y="0px"
	 viewBox="0 0 369.6 380.4" style="enable-background:new 0 0 369.6 380.4;" xml:space="preserve">
<style type="text/css">
	.st0{opacity:0.14;}
	.st1{fill:url(#SVGID_1_);}
	.st2{fill:url(#SVGID_00000074429207936253413220000005903763033652848277_);}
</style>
<g class="st0">
	<g>
		<linearGradient id="SVGID_1_" gradientUnits="userSpaceOnUse" x1="282.6339" y1="85.273" x2="335.6662" y2="85.273">
			<stop  offset="0" style="stop-color:#5356A5"/>
			<stop  offset="1" style="stop-color:#8D56A3"/>
		</linearGradient>
		<path class="st1" d="M309.2,60.8c13.5,0,24.5,11,24.5,24.5c0,13.5-11,24.5-24.5,24.5c-13.5,0-24.5-11-24.5-24.5
			C284.6,71.7,295.6,60.8,309.2,60.8 M309.2,58.8c-14.6,0-26.5,11.9-26.5,26.5c0,14.6,11.9,26.5,26.5,26.5
			c14.6,0,26.5-11.9,26.5-26.5C335.7,70.7,323.8,58.8,309.2,58.8L309.2,58.8z"/>
	</g>
	<g>
		
			<linearGradient id="SVGID_00000112622009804319908210000003358315570212510848_" gradientUnits="userSpaceOnUse" x1="21.0482" y1="190.2174" x2="348.5404" y2="190.2174">
			<stop  offset="0" style="stop-color:#5356A5"/>
			<stop  offset="1" style="stop-color:#8D56A3"/>
		</linearGradient>
		<path style="fill:url(#SVGID_00000112622009804319908210000003358315570212510848_);" d="M192.9,20.7c4.6,0,9.1,2,12.2,5.8
			L343,197.7c5.8,7.2,4.2,17.8-3.5,23l-7.9,5.3c-2.6,1.8-5.7,2.7-8.8,2.7c-2.4,0-4.8-0.6-7-1.7c-13.3-7-27-10.2-40.3-10.2
			c-19.4,0-37.7,6.9-52.1,19.2c-22.8,19.5-36.1,52.7-23.7,84.1c2.4,6.2,0.9,13.2-4.1,17.6l-20.1,17.9c-3,2.7-6.8,4-10.5,4
			c-4.6,0-9.2-2-12.3-5.9L34.1,205.4c-16.6-19.6-14.2-49,5.4-65.6L183.1,24.2C186,21.9,189.5,20.7,192.9,20.7 M192.9,18.7
			L192.9,18.7c-4,0-8,1.4-11.1,3.9L38.2,138.2l0,0l0,0c-20.4,17.3-22.9,48-5.6,68.4L151.1,355c3.4,4.2,8.4,6.7,13.9,6.7
			c4.3,0,8.5-1.6,11.8-4.5l20.1-17.9c5.5-4.9,7.4-12.9,4.6-19.9c-12.6-32.1,2.5-64.3,23.1-81.9c14.1-12.1,32.2-18.8,50.8-18.8
			c13.5,0,26.8,3.4,39.4,10c2.4,1.3,5.1,1.9,7.9,1.9c3.5,0,7-1.1,9.9-3l7.9-5.3c4.1-2.8,6.9-7.2,7.7-12.1c0.7-4.9-0.6-9.9-3.7-13.8
			L206.7,25.3C203.3,21.1,198.3,18.7,192.9,18.7L192.9,18.7z"/>
	</g>
</g>
</svg>
