<?xml version="1.0" encoding="utf-8"?>
<!-- Generator: Adobe Illustrator 27.0.0, SVG Export Plug-In . SVG Version: 6.00 Build 0)  -->
<svg version="1.1" id="Layer_1" xmlns="http://www.w3.org/2000/svg" xmlns:xlink="http://www.w3.org/1999/xlink" x="0px" y="0px"
	 viewBox="0 0 24.9 33.2" style="enable-background:new 0 0 24.9 33.2;" xml:space="preserve">
<style type="text/css">
	.st0{fill:url(#SVGID_1_);}
</style>
<linearGradient id="SVGID_1_" gradientUnits="userSpaceOnUse" x1="24.9323" y1="16.6114" x2="-1.404706e-04" y2="16.6114">
	<stop  offset="0" style="stop-color:#5357A6"/>
	<stop  offset="1" style="stop-color:#8D57A3"/>
</linearGradient>
<path class="st0" d="M24.9,33.2c0-7.2-5.8-13-13-13c-1.7,0-3.4,0.3-5,1c-0.6,0.2-1.2,0.4-1.9,0.4c-1.8,0-3-0.9-3.5-1.5
	C0.9,19.6,0,18.4,0,16.6c0-2.7,2.2-4.9,4.9-4.9l0.1,0c0.7,0,1.3,0.1,1.9,0.4c1.6,0.7,3.3,1,5,1c7.2,0,13-5.9,13-13V33.2z"/>
</svg>
