<?xml version="1.0" encoding="utf-8"?>
<!-- Generator: Adobe Illustrator 27.0.0, SVG Export Plug-In . SVG Version: 6.00 Build 0)  -->
<svg version="1.1" id="Layer_1" xmlns="http://www.w3.org/2000/svg" xmlns:xlink="http://www.w3.org/1999/xlink" x="0px" y="0px"
	 viewBox="0 0 92.1 92.1" style="enable-background:new 0 0 92.1 92.1;" xml:space="preserve">
<style type="text/css">
	.st0{fill:url(#SVGID_1_);}
</style>
<g>
	
		<linearGradient id="SVGID_1_" gradientUnits="userSpaceOnUse" x1="-1204.745" y1="46.0649" x2="-1112.6154" y2="46.0649" gradientTransform="matrix(-1 0 0 1 -1112.6154 0)">
		<stop  offset="0" style="stop-color:#FCBC67"/>
		<stop  offset="1" style="stop-color:#FAA32B"/>
	</linearGradient>
	<path class="st0" d="M0,3v70.1c0,10.5,8.5,18.9,18.9,18.9h70.1c1.7,0,3-1.4,3-3V62.7c0-2.2-2.2-3.6-4.2-2.8c-1.8,0.8-3.8,1.2-6,1.1
		c-8.1-0.1-14.7-6.7-14.8-14.8c-0.1-8.3,6.7-15.1,15-15.1c2,0,4,0.4,5.7,1.1c2,0.8,4.2-0.6,4.2-2.8V3c0-1.7-1.4-3-3-3H63.5
		c-2,0-3.5,1.9-3,3.8C60.9,5,61,6.3,61,7.7c-0.1,8.1-6.7,14.7-14.8,14.8c-8.3,0.1-15.1-6.7-15.1-15c0-1.3,0.2-2.5,0.5-3.7
		C32,1.9,30.6,0,28.6,0H3C1.4,0,0,1.4,0,3z"/>
</g>
</svg>
