<?xml version="1.0" encoding="utf-8"?>
<!-- Generator: Adobe Illustrator 27.0.0, SVG Export Plug-In . SVG Version: 6.00 Build 0)  -->
<svg version="1.1" id="Layer_1" xmlns="http://www.w3.org/2000/svg" xmlns:xlink="http://www.w3.org/1999/xlink" x="0px" y="0px"
	 viewBox="0 0 92.1 115.2" style="enable-background:new 0 0 92.1 115.2;" xml:space="preserve">
<style type="text/css">
	.st0{fill:url(#SVGID_1_);}
</style>
<g>
	<g>
		<linearGradient id="SVGID_1_" gradientUnits="userSpaceOnUse" x1="0" y1="57.6056" x2="92.1297" y2="57.6056">
			<stop  offset="0" style="stop-color:#FCBC67"/>
			<stop  offset="1" style="stop-color:#FAA32B"/>
		</linearGradient>
		<path class="st0" d="M82,31.1c2.1,0,4.1,0.4,6,1.1c2,0.8,4.2-0.6,4.2-2.8V3c0-1.7-1.4-3-3-3H18.9C8.5,0,0,8.5,0,18.9v64.7v2.3v3.2
			v0.2v0c0,0.8,0.3,1.6,0.9,2.2c0.6,0.6,1.3,0.9,2.2,0.9l24.6,0.1c2,0,3.5,1.9,3,3.9c-0.3,1.2-0.5,2.4-0.5,3.7
			c0,8.4,6.9,15.2,15.3,15.2c8.2-0.1,15-6.8,15.1-15c0-1.4-0.1-2.7-0.5-3.9c-0.5-1.9,1-3.8,3-3.8H89c1.7,0,3.1-1.4,3.1-3.1v-0.3
			v-5.5V62.7c0-2.2-2.2-3.6-4.2-2.8c-1.8,0.7-3.7,1.1-5.7,1.1c-8.3,0-15-6.8-15-15.1C67.3,37.8,73.8,31.2,82,31.1z"/>
	</g>
</g>
</svg>
