<?xml version="1.0" encoding="UTF-8"?>
<svg xmlns="http://www.w3.org/2000/svg" xmlns:xlink="http://www.w3.org/1999/xlink" width="154px" height="150px" viewBox="0 0 154 150" version="1.1">
<g id="surface1">
<path style=" stroke:none;fill-rule:nonzero;fill:rgb(100%,100%,100%);fill-opacity:1;" d="M 2.089844 2.226562 C 3.839844 0.519531 6.363281 -0.203125 8.789062 0.308594 L 112.03125 24.488281 C 114.300781 25.082031 116.179688 26.628906 117.15625 28.710938 L 134.492188 72.464844 L 149.863281 87.4375 C 155.382812 92.855469 155.382812 101.59375 149.863281 107.011719 L 109.667969 145.777344 C 104.105469 151.15625 95.132812 151.15625 89.570312 145.777344 L 74.203125 130.808594 L 29.277344 113.921875 C 26.984375 113.183594 25.3125 111.253906 24.945312 108.929688 L 0.117188 8.75 C -0.46875 6.390625 0.28125 3.902344 2.089844 2.226562 Z M 56.074219 64.40625 L 19.820312 29.09375 L 37.949219 102.023438 L 80.902344 118.140625 C 81.6875 118.527344 82.871094 118.910156 83.265625 119.675781 L 99.421875 135.414062 L 139.222656 96.648438 L 123.066406 81.292969 C 122.40625 80.621094 121.875 79.84375 121.488281 78.992188 L 104.9375 37.15625 L 30.066406 19.5 L 66.320312 54.8125 C 66.808594 55.246094 67.207031 55.769531 67.503906 56.347656 C 68.789062 56.027344 70.117188 55.898438 71.445312 55.960938 C 79.277344 55.960938 85.628906 62.148438 85.628906 69.78125 C 85.628906 77.410156 79.277344 83.597656 71.445312 83.597656 C 63.609375 83.597656 57.257812 77.410156 57.257812 69.78125 C 57.191406 68.488281 57.324219 67.195312 57.652344 65.941406 C 56.863281 65.175781 56.46875 65.175781 56.074219 64.40625 Z M 56.074219 64.40625 "/>
</g>
</svg>
