<svg id="Layer_1" data-name="Layer 1" xmlns="http://www.w3.org/2000/svg" width="19.09mm" height="18.59mm" viewBox="0 0 54.1 52.7">
  <defs>
    <style>
      .cls-1 {
        fill: #fff;
      }
    </style>
  </defs>
  <title>Artboard 1</title>
  <path class="cls-1" d="M8.1,7.4a1.85,1.85,0,0,1,1.7-.5L36,13.2a2,2,0,0,1,1.3,1.1l4.4,11.4,3.9,3.9a3.62,3.62,0,0,1,0,5.1L35.4,44.8a3.62,3.62,0,0,1-5.1,0l-3.9-3.9L15,36.5a1.63,1.63,0,0,1-1.1-1.3L7.6,9.1A1.77,1.77,0,0,1,8.1,7.4ZM21.8,23.6l-9.2-9.2,4.6,19,10.9,4.2c.2.1.5.2.6.4l4.1,4.1L42.9,32l-4.1-4a2.09,2.09,0,0,1-.4-.6L34.2,16.5l-19-4.6,9.2,9.2a1.38,1.38,0,0,1,.3.4,3.4,3.4,0,0,1,1-.1A3.6,3.6,0,1,1,22.1,25a3.4,3.4,0,0,1,.1-1C22,23.8,21.9,23.8,21.8,23.6Z"/>
</svg>
