<?xml version="1.0" encoding="utf-8"?>
<!-- Generator: Adobe Illustrator 22.1.0, SVG Export Plug-In . SVG Version: 6.00 Build 0)  -->
<svg version="1.1" id="Layer_1" xmlns="http://www.w3.org/2000/svg" xmlns:xlink="http://www.w3.org/1999/xlink" x="0px" y="0px"
	 width="54.1px" height="52.7px" viewBox="0 0 54.1 52.7" style="enable-background:new 0 0 54.1 52.7;" xml:space="preserve">
<style type="text/css">
	.st0{fill:#FFFFFF;}
</style>
<path class="st0" d="M8.1,7.4c0.5-0.5,1.1-0.6,1.7-0.5L36,13.2c0.6,0.1,1,0.6,1.3,1.1l4.4,11.4l3.9,3.9c1.4,1.4,1.4,3.7,0,5.1
	L35.4,44.8c-1.4,1.4-3.7,1.4-5.1,0l-3.9-3.9L15,36.5c-0.6-0.2-1-0.7-1.1-1.3L7.6,9.1C7.5,8.5,7.6,7.8,8.1,7.4z M21.8,23.6l-9.2-9.2
	l4.6,19l10.9,4.2c0.2,0.1,0.5,0.2,0.6,0.4l4.1,4.1L42.9,32l-4.1-4c-0.2-0.2-0.3-0.4-0.4-0.6l-4.2-10.9l-19-4.6l9.2,9.2
	c0.1,0.1,0.2,0.2,0.3,0.4c0.3-0.1,0.7-0.1,1-0.1c2,0,3.6,1.6,3.6,3.6s-1.6,3.6-3.6,3.6S22.1,27,22.1,25c0-0.3,0-0.7,0.1-1
	C22,23.8,21.9,23.8,21.8,23.6z"/>
</svg>
