<?xml version="1.0" encoding="UTF-8"?>
<svg xmlns="http://www.w3.org/2000/svg" xmlns:xlink="http://www.w3.org/1999/xlink" width="154px" height="150px" viewBox="0 0 154 150" version="1.1">
<g id="surface1">
<path style=" stroke:none;fill-rule:nonzero;fill:rgb(100%,100%,100%);fill-opacity:1;" d="M 61.511719 150 C 60.863281 150.054688 60.210938 149.9375 59.613281 149.65625 C 57.636719 149.15625 55.925781 147.828125 54.855469 145.957031 C 53.785156 144.089844 53.445312 141.835938 53.910156 139.691406 L 84.632812 6.390625 C 85.59375 1.929688 89.707031 -0.835938 93.820312 0.207031 C 97.929688 1.25 100.480469 5.710938 99.519531 10.167969 L 68.796875 143.472656 C 68.226562 147.324219 65.105469 150.117188 61.511719 150 Z M 38.390625 116.675781 C 36.222656 116.644531 34.164062 115.648438 32.6875 113.925781 L 1.964844 78.195312 C 0.605469 76.621094 -0.0820312 74.503906 0.0664062 72.355469 C 0.101562 70.105469 1.023438 67.976562 2.597656 66.515625 L 33.324219 35.59375 C 35.261719 33.339844 38.195312 32.445312 40.9375 33.269531 C 43.675781 34.089844 45.765625 36.496094 46.363281 39.511719 C 46.957031 42.523438 45.960938 45.648438 43.773438 47.617188 L 18.753906 72.699219 L 44.40625 102.589844 C 45.8125 104.171875 46.574219 106.304688 46.515625 108.5 C 46.453125 110.699219 45.582031 112.777344 44.089844 114.269531 C 42.523438 115.796875 40.496094 116.648438 38.390625 116.675781 Z M 115.355469 116.675781 C 113.398438 116.671875 111.5 115.945312 109.972656 114.613281 C 108.480469 113.121094 107.609375 111.042969 107.550781 108.84375 C 107.488281 106.648438 108.25 104.515625 109.65625 102.933594 L 135.3125 73.042969 L 110.289062 47.960938 C 107.539062 44.769531 107.546875 39.808594 110.3125 36.628906 C 113.074219 33.449219 117.640625 33.144531 120.742188 35.9375 L 151.464844 66.859375 C 153.09375 68.277344 154.027344 70.433594 153.996094 72.699219 C 154.050781 74.832031 153.375 76.914062 152.097656 78.539062 L 121.058594 113.925781 C 119.546875 115.589844 117.507812 116.574219 115.355469 116.675781 Z M 115.355469 116.675781 "/>
</g>
</svg>
