<?xml version="1.0" encoding="UTF-8"?>
<svg xmlns="http://www.w3.org/2000/svg" xmlns:xlink="http://www.w3.org/1999/xlink" width="154px" height="150px" viewBox="0 0 154 150" version="1.1">
<g id="surface1">
<path style=" stroke:none;fill-rule:nonzero;fill:rgb(100%,100%,100%);fill-opacity:1;" d="M 127.457031 0.992188 C 123.824219 -0.683594 119.714844 -0.222656 116.421875 2.238281 L 63.027344 40.75 C 61.671875 41.617188 60.238281 42.308594 58.757812 42.820312 L 21.738281 50.691406 C 15.289062 52.136719 11.019531 59.3125 12.125 66.839844 L 12.125 68.082031 L 0.378906 70.570312 L 5.363281 103.285156 L 17.109375 100.800781 L 17.464844 102.042969 C 18.839844 109.402344 24.980469 114.167969 31.347656 112.8125 L 50.925781 144.285156 C 53.59375 148.609375 58.1875 150.714844 62.671875 149.667969 L 68.722656 148.425781 C 75.171875 146.980469 79.441406 139.804688 78.335938 132.273438 L 74.0625 104.941406 L 134.578125 119.4375 C 136.097656 119.851562 137.683594 119.851562 139.203125 119.4375 C 141.558594 119.144531 143.726562 117.808594 145.257812 115.710938 C 147.976562 112.5625 149.292969 108.128906 148.816406 103.699219 L 134.222656 11.347656 C 133.515625 6.839844 131.003906 2.992188 127.457031 0.992188 Z M 54.128906 57.730469 L 59.46875 92.933594 L 29.210938 99.558594 L 23.871094 64.355469 Z M 66.230469 135.175781 L 60.179688 136.417969 L 44.164062 109.910156 L 61.605469 106.183594 Z M 75.132812 91.277344 C 73.984375 90.800781 72.785156 90.523438 71.570312 90.449219 L 65.875 54.417969 C 67.015625 53.886719 68.09375 53.191406 69.078125 52.347656 L 122.472656 13.417969 L 137.070312 105.769531 Z M 139.5625 43.648438 L 143.832031 70.984375 C 150.320312 69.609375 154.621094 62.378906 153.441406 54.832031 C 152.265625 47.285156 146.046875 42.277344 139.5625 43.648438 Z M 139.5625 43.648438 "/>
</g>
</svg>
