<?xml version="1.0" encoding="utf-8"?>
<!-- Generator: Adobe Illustrator 27.0.0, SVG Export Plug-In . SVG Version: 6.00 Build 0)  -->
<svg version="1.1" id="Layer_1" xmlns="http://www.w3.org/2000/svg" xmlns:xlink="http://www.w3.org/1999/xlink" x="0px" y="0px"
	 viewBox="0 0 60 60" style="enable-background:new 0 0 60 60;" xml:space="preserve">
<style type="text/css">
	.st0{fill:#FFFFFF;}
</style>
<g>
	<g>
		<path class="st0" d="M57.3,17.8c-0.5-3.4-1.4-5.6-3.2-7.4c-1.8-1.8-4-2.7-7.4-3.2C46.1,7.1,45.5,7,44.8,7V4.9
			c0-1.1-0.9-1.9-1.9-1.9S41,3.8,41,4.9v2c-1.7,0-3.6,0-5.8,0H24.8c-2.2,0-4.1,0-5.8,0v-2c0-1.1-0.9-1.9-1.9-1.9
			c-1.1,0-1.9,0.9-1.9,1.9V7c-0.7,0.1-1.3,0.1-1.9,0.2c-3.4,0.5-5.6,1.4-7.4,3.2c-1.8,1.8-2.7,4-3.2,7.4c-0.1,1-0.2,2-0.3,3.2
			c-0.1,0.2-0.1,0.4-0.1,0.7c0,0.2,0,0.3,0.1,0.5c-0.1,2.1-0.1,4.4-0.1,7.2v5.2c0,5,0,8.6,0.4,11.6c0.5,3.4,1.4,5.6,3.2,7.4
			c1.8,1.8,4,2.7,7.4,3.2c2.9,0.4,6.6,0.4,11.6,0.4h10.3c1.1,0,1.9-0.9,1.9-1.9c0-1.1-0.9-1.9-1.9-1.9H24.8c-9.2,0-13.8,0-16.2-2.5
			c-2.5-2.5-2.5-7.1-2.5-16.2v-5.2c0-2.2,0-4.1,0-5.8h8c1.1,0,1.9-0.9,1.9-1.9c0-1.1-0.9-1.9-1.9-1.9H6.3c0.3-3.1,0.9-5.2,2.2-6.6
			c2.5-2.5,7.1-2.5,16.2-2.5h10.3c9.2,0,13.8,0,16.2,2.5c1.4,1.4,2,3.4,2.2,6.6H26.8c-1.1,0-1.9,0.9-1.9,1.9c0,1.1,0.9,1.9,1.9,1.9
			h27.1c0,1.7,0,3.6,0,5.8v5.2c0,9.2,0,13.8-2.5,16.2c-1.3,1.3-3,1.9-6.1,2.2c-1.1,0.1-1.8,1.1-1.7,2.1c0.1,1.1,1.1,1.8,2.1,1.7
			c4-0.4,6.5-1.4,8.5-3.3c1.8-1.8,2.7-4,3.2-7.4c0.4-2.9,0.4-6.6,0.4-11.6v-5.2C57.7,24.3,57.7,20.7,57.3,17.8z"/>
		<circle class="st0" cx="42.9" cy="42.3" r="2.6"/>
		<circle class="st0" cx="42.9" cy="31.9" r="2.6"/>
		<circle class="st0" cx="30" cy="42.3" r="2.6"/>
		<circle class="st0" cx="30" cy="31.9" r="2.6"/>
		<circle class="st0" cx="17.1" cy="42.3" r="2.6"/>
		<circle class="st0" cx="17.1" cy="31.9" r="2.6"/>
	</g>
</g>
</svg>
