<?xml version="1.0" encoding="utf-8"?>
<!-- Generator: Adobe Illustrator 27.0.0, SVG Export Plug-In . SVG Version: 6.00 Build 0)  -->
<svg version="1.1" id="Layer_1" xmlns="http://www.w3.org/2000/svg" xmlns:xlink="http://www.w3.org/1999/xlink" x="0px" y="0px"
	 viewBox="0 0 60 60" style="enable-background:new 0 0 60 60;" xml:space="preserve">
<style type="text/css">
	.st0{fill:#FFFFFF;}
</style>
<g>
	<g>
		<path class="st0" d="M52.5,46.5c-2.1-3.7-5.6-8-11.2-10.4c-3.2,2.2-7.1,3.6-11.3,3.6c-4.2,0-8.1-1.3-11.3-3.6
			c-5.6,2.4-9.1,6.7-11.2,10.4c-2.8,5-0.6,12,4.2,12c4.8,0,18.3,0,18.3,0s13.4,0,18.3,0C53.1,58.5,55.3,51.5,52.5,46.5z"/>
		<path class="st0" d="M30,35c8.3,0,14.9-6.7,14.9-14.9v-3.6c0-8.3-6.7-14.9-14.9-14.9c-8.3,0-14.9,6.7-14.9,14.9V20
			C15.1,28.3,21.7,35,30,35z"/>
	</g>
</g>
</svg>
