<?xml version="1.0" encoding="utf-8"?>
<!-- Generator: Adobe Illustrator 27.0.0, SVG Export Plug-In . SVG Version: 6.00 Build 0)  -->
<svg version="1.1" id="Layer_1" xmlns="http://www.w3.org/2000/svg" xmlns:xlink="http://www.w3.org/1999/xlink" x="0px" y="0px"
	 viewBox="0 0 60 60" style="enable-background:new 0 0 60 60;" xml:space="preserve">
<style type="text/css">
	.st0{opacity:0.4039;}
	.st1{fill:#FFFFFF;}
</style>
<g>
	<g>
		<g>
			<g class="st0">
				<path class="st1" d="M56.6,7.6v44.9c0,2.3-1.9,4.2-4.2,4.2h0c-2.3,0-4.2-1.9-4.2-4.2V7.6c0-2.3,1.9-4.2,4.2-4.2h0
					C54.8,3.4,56.6,5.2,56.6,7.6z M45.4,18.8v33.6c0,2.3-1.9,4.2-4.2,4.2h0c-2.3,0-4.2-1.9-4.2-4.2V18.8c0-2.3,1.9-4.2,4.2-4.2h0
					C43.5,14.6,45.4,16.5,45.4,18.8z M34.2,30v22.4c0,2.3-1.9,4.2-4.2,4.2h0c-2.3,0-4.2-1.9-4.2-4.2V30c0-2.3,1.9-4.2,4.2-4.2h0
					C32.3,25.8,34.2,27.7,34.2,30z"/>
			</g>
		</g>
		<path class="st1" d="M3.4,52.4L3.4,52.4c0-2.3,1.9-4.2,4.2-4.2h0c2.3,0,4.2,1.9,4.2,4.2v0c0,2.3-1.9,4.2-4.2,4.2h0
			C5.2,56.6,3.4,54.8,3.4,52.4z M23,42.6v9.8c0,2.3-1.9,4.2-4.2,4.2h0c-2.3,0-4.2-1.9-4.2-4.2v-9.8c0-2.3,1.9-4.2,4.2-4.2h0
			C21.1,38.4,23,40.3,23,42.6z"/>
	</g>
</g>
</svg>
