<?xml version="1.0" encoding="utf-8"?>
<!-- Generator: Adobe Illustrator 27.0.0, SVG Export Plug-In . SVG Version: 6.00 Build 0)  -->
<svg version="1.1" id="Layer_1" xmlns="http://www.w3.org/2000/svg" xmlns:xlink="http://www.w3.org/1999/xlink" x="0px" y="0px"
	 viewBox="0 0 60 60" style="enable-background:new 0 0 60 60;" xml:space="preserve">
<style type="text/css">
	.st0{fill:url(#SVGID_1_);}
	.st1{fill:url(#SVGID_00000052820693314245500130000018283863079124359068_);}
	.st2{fill:url(#SVGID_00000070111897873904563090000000488164748509530036_);}
	.st3{fill:url(#SVGID_00000083808849937772081020000004232069668021831315_);}
	.st4{fill:url(#SVGID_00000036219741256951499970000009279744410608943495_);}
	.st5{fill:url(#SVGID_00000088852334989900551730000015373407765942119098_);}
	.st6{fill:url(#SVGID_00000067194426063054962660000010283960893908379833_);}
</style>
<g id="_40_shopping_online">
	<linearGradient id="SVGID_1_" gradientUnits="userSpaceOnUse" x1="50.9871" y1="43.6411" x2="53.0889" y2="43.6411">
		<stop  offset="0" style="stop-color:#5357A6"/>
		<stop  offset="1" style="stop-color:#8D57A3"/>
	</linearGradient>
	<path class="st0" d="M53.1,43.6c0,0.6-0.5,1.1-1.1,1.1c-0.6,0-1.1-0.5-1.1-1.1s0.5-1.1,1.1-1.1C52.6,42.6,53.1,43.1,53.1,43.6z"/>
	
		<linearGradient id="SVGID_00000109016865164697684100000011294912339453074354_" gradientUnits="userSpaceOnUse" x1="46.7938" y1="43.6359" x2="48.8853" y2="43.6359">
		<stop  offset="0" style="stop-color:#5357A6"/>
		<stop  offset="1" style="stop-color:#8D57A3"/>
	</linearGradient>
	<path style="fill:url(#SVGID_00000109016865164697684100000011294912339453074354_);" d="M48.9,43.6c0,0.6-0.5,1-1.1,1
		c-0.6,0-1-0.5-1-1.1c0-0.6,0.5-1,1-1C48.4,42.6,48.9,43.1,48.9,43.6C48.9,43.6,48.9,43.6,48.9,43.6z"/>
	
		<linearGradient id="SVGID_00000104695329427844001500000007297594266039609745_" gradientUnits="userSpaceOnUse" x1="0.6366" y1="30" x2="59.3634" y2="30">
		<stop  offset="0" style="stop-color:#5357A6"/>
		<stop  offset="1" style="stop-color:#8D57A3"/>
	</linearGradient>
	<path style="fill:url(#SVGID_00000104695329427844001500000007297594266039609745_);" d="M57.3,38.9h-3.2V14.7
		c0-1.7-1.4-3.1-3.1-3.1H9c-1.7,0-3.1,1.4-3.1,3.1v24.2H2.7c-1.1,0-2.1,0.9-2.1,2.1v1.2c0,3.4,2.8,6.2,6.2,6.2h46.4
		c3.4,0,6.2-2.8,6.2-6.2V41C59.4,39.9,58.4,38.9,57.3,38.9z M7.9,14.7c0-0.6,0.5-1,1-1H51c0.6,0,1,0.5,1,1v24.2H7.9V14.7z M36.7,41
		l-1.1,2.1H24.3L23.3,41H36.7z M57.3,42.2c0,2.3-1.8,4.1-4.1,4.1H6.8c-2.3,0-4.1-1.8-4.1-4.1V41H21l1.8,3.6c0.2,0.3,0.5,0.6,0.9,0.6
		h12.6c0.4,0,0.8-0.2,0.9-0.6L39,41h18.3V42.2z"/>
	
		<linearGradient id="SVGID_00000066501240380184855010000017080162689216699267_" gradientUnits="userSpaceOnUse" x1="17.4304" y1="26.5376" x2="42.5696" y2="26.5376">
		<stop  offset="0" style="stop-color:#5357A6"/>
		<stop  offset="1" style="stop-color:#8D57A3"/>
	</linearGradient>
	<path style="fill:url(#SVGID_00000066501240380184855010000017080162689216699267_);" d="M41.5,24.3h-3.1l-5-7.5
		c-0.3-0.5-0.9-0.7-1.4-0.4c-0.5,0.3-0.7,0.9-0.4,1.4c0,0,0,0.1,0.1,0.1l4.2,6.3H24.1l4.2-6.3c0.3-0.5,0.3-1.1-0.2-1.4
		s-1.1-0.3-1.4,0.2c0,0,0,0.1-0.1,0.1l-5,7.5h-3.1c-0.6,0-1,0.5-1,1s0.5,1,1,1h0.8l1.3,7.6c0.2,1.6,1.6,2.8,3.2,2.8h12.5
		c1.6-0.1,2.9-1.3,3.2-2.8l1.3-7.6h0.8c0.6,0,1-0.5,1-1S42.1,24.3,41.5,24.3L41.5,24.3z M37.4,33.6c-0.1,0.6-0.5,1.1-1.1,1.1H23.8
		c-0.6-0.1-1.1-0.5-1.1-1.1l-1.3-7.3h17.3L37.4,33.6z"/>
	
		<linearGradient id="SVGID_00000065784837222902157990000003507991965640067980_" gradientUnits="userSpaceOnUse" x1="28.9697" y1="30.5249" x2="31.0303" y2="30.5249">
		<stop  offset="0" style="stop-color:#5357A6"/>
		<stop  offset="1" style="stop-color:#8D57A3"/>
	</linearGradient>
	<path style="fill:url(#SVGID_00000065784837222902157990000003507991965640067980_);" d="M30,33.7c0.6,0,1-0.5,1-1v-4.2
		c0-0.6-0.5-1-1-1s-1,0.5-1,1v4.2C29,33.2,29.4,33.7,30,33.7C30,33.7,30,33.7,30,33.7z"/>
	
		<linearGradient id="SVGID_00000025411250716410922000000002730277734389976219_" gradientUnits="userSpaceOnUse" x1="24.7723" y1="30.5249" x2="26.8329" y2="30.5249">
		<stop  offset="0" style="stop-color:#5357A6"/>
		<stop  offset="1" style="stop-color:#8D57A3"/>
	</linearGradient>
	<path style="fill:url(#SVGID_00000025411250716410922000000002730277734389976219_);" d="M25.8,33.7c0.6,0,1-0.5,1-1v-4.2
		c0-0.6-0.5-1-1-1s-1,0.5-1,1v4.2C24.8,33.2,25.2,33.7,25.8,33.7C25.8,33.7,25.8,33.7,25.8,33.7z"/>
	
		<linearGradient id="SVGID_00000071551325042553725200000001033029235417467033_" gradientUnits="userSpaceOnUse" x1="33.1671" y1="30.5249" x2="35.2277" y2="30.5249">
		<stop  offset="0" style="stop-color:#5357A6"/>
		<stop  offset="1" style="stop-color:#8D57A3"/>
	</linearGradient>
	<path style="fill:url(#SVGID_00000071551325042553725200000001033029235417467033_);" d="M34.2,33.7c0.6,0,1-0.5,1-1v-4.2
		c0-0.6-0.5-1-1-1s-1,0.5-1,1v4.2C33.2,33.2,33.6,33.7,34.2,33.7L34.2,33.7z"/>
</g>
</svg>
