<?xml version="1.0" encoding="utf-8"?>
<!-- Generator: Adobe Illustrator 27.7.0, SVG Export Plug-In . SVG Version: 6.00 Build 0)  -->
<svg version="1.1" id="Layer_1" xmlns="http://www.w3.org/2000/svg" xmlns:xlink="http://www.w3.org/1999/xlink" x="0px" y="0px"
	 viewBox="0 0 262.6 111.2" style="enable-background:new 0 0 262.6 111.2;" xml:space="preserve">
<style type="text/css">
	.st0{fill:url(#SVGID_1_);}
	.st1{fill:url(#SVGID_00000060014353570523695970000015129563751249595784_);}
	.st2{fill:url(#SVGID_00000096061240091807769530000012523602883227783816_);}
	.st3{fill:url(#SVGID_00000010993897262568900590000017607661100340524941_);}
	.st4{fill:#1D1D1B;stroke:#1D1D1B;stroke-width:0.5;stroke-miterlimit:10;}
</style>
<g>
	<g>
		<g>
			<g>
				
					<linearGradient id="SVGID_1_" gradientUnits="userSpaceOnUse" x1="-1373.7379" y1="392.7291" x2="-1309.5192" y2="392.7291" gradientTransform="matrix(0.9906 -0.1369 -0.1369 -0.9906 1594.0302 246.9846)">
					<stop  offset="0" style="stop-color:#FBBC67"/>
					<stop  offset="1" style="stop-color:#FAA32C"/>
				</linearGradient>
				<path class="st0" d="M177.6,32.4l4.7,33.7c0.1,0.7,1,1,1.5,0.4l9.3-11.4c1.4-1.8,2.1-4.1,1.8-6.3l-2.5-18.4
					c-0.6-4-4.3-6.9-8.3-6.3l0,0C179.8,24.6,177,28.4,177.6,32.4z"/>
				
					<linearGradient id="SVGID_00000176043794680899440170000010211037954203773114_" gradientUnits="userSpaceOnUse" x1="-1373.7401" y1="375.4263" x2="-1309.6334" y2="375.4263" gradientTransform="matrix(0.9906 -0.1369 -0.1369 -0.9906 1594.0302 246.9846)">
					<stop  offset="0" style="stop-color:#5357A6"/>
					<stop  offset="1" style="stop-color:#8D57A3"/>
				</linearGradient>
				<path style="fill:url(#SVGID_00000176043794680899440170000010211037954203773114_);" d="M248.4,84.9c-0.2-0.2-0.3-0.3-0.5-0.5
					l-24.3-19.8c1.9-1,2.8-3.3,1.9-5.4c-0.7-1.8-2.7-2.9-4.6-2.6c-1.7,0.3-3,1.5-3.4,3l-6.1-5c-0.6-0.5-0.7-1.4-0.2-2l5.2-6.6
					c-1.4-0.5-2.6-1.7-2.8-3.4c-0.3-1.9,0.7-3.8,2.5-4.6c2-0.9,4.3-0.1,5.4,1.6l11.3-14.4c3-3.6,0-9.1-4.7-8.4
					c-1.3,0.2-2.5,0.9-3.3,1.9L185,70.1c-1.2,1.6-1.8,3.6-1.5,5.6l1.4,10.2c0.6,4,4.3,6.9,8.3,6.3l0,0c4-0.6,6.9-4.3,6.3-8.3
					l-1.2-8.8c-0.2-1.1,1-2,2.1-1.5L242,94C247.7,96.5,252.7,89.3,248.4,84.9z"/>
			</g>
			
				<linearGradient id="SVGID_00000095304616022064360110000013047959727651723432_" gradientUnits="userSpaceOnUse" x1="-1373.6708" y1="391.5413" x2="-1309.428" y2="391.5413" gradientTransform="matrix(0.9906 -0.1369 -0.1369 -0.9906 1594.0302 246.9846)">
				<stop  offset="0" style="stop-color:#FBBC67"/>
				<stop  offset="1" style="stop-color:#FAA32C"/>
			</linearGradient>
			<circle style="fill:url(#SVGID_00000095304616022064360110000013047959727651723432_);" cx="217.8" cy="41.9" r="2.3"/>
			
				<linearGradient id="SVGID_00000045604354170617669680000005820427063944779448_" gradientUnits="userSpaceOnUse" x1="-1375.8241" y1="380.3177" x2="-1306.9092" y2="380.3177" gradientTransform="matrix(0.9906 -0.1369 -0.1369 -0.9906 1594.0302 246.9846)">
				<stop  offset="0" style="stop-color:#FBBC67"/>
				<stop  offset="1" style="stop-color:#FAA32C"/>
			</linearGradient>
			<path style="fill:url(#SVGID_00000045604354170617669680000005820427063944779448_);" d="M242.7,46.9l-13.2-10.6
				c-0.6-0.5-1.5-0.4-2,0.2l-12.7,15.8c-0.5,0.7-0.4,1.6,0.3,2.1l0.7,0.5c0.4,0.3,1,0.3,1.5,0.1c3-1.6,6.3-1.1,8.5,0.8
				c2.1,1.8,3.3,4.9,2.2,7.8c-0.2,0.6-0.1,1.2,0.4,1.6l1.9,1.7c0.6,0.6,1.6,0.5,2.1-0.2L243.2,53C244.7,51.2,244.5,48.5,242.7,46.9z
				"/>
		</g>
	</g>
	<g>
		<g>
			<path class="st4" d="M29.2,49.5v20.8h2.6V73h-2.6c0,8.1-4.6,12.1-13.6,12.1c-0.6,0-1.1,0-1.5-0.1l-1.5-1.8v-0.9
				c0.9,0.1,1.8,0.1,2.7,0.1c3.8,0,6.5-0.7,8.3-2.1c1.8-1.5,2.8-3.8,2.8-7V49.5H29.2z"/>
			<path class="st4" d="M43.7,49.5v19.2c0,0.5-0.1,1-0.3,1.5h2.8V73H44l-1.1-1.6h-0.2c-0.9,1.1-1.9,1.6-3.2,1.6h-8.1v-2.7h6.9
				c0.8,0,1.4-0.2,1.8-0.7c0.4-0.4,0.6-1,0.6-1.7V49.5H43.7z M36.7,79.5c0.5,0,1,0.2,1.4,0.6c0.4,0.4,0.6,0.8,0.6,1.4
				c0,0.5-0.2,1-0.6,1.4c-0.4,0.4-0.8,0.6-1.4,0.6c-0.5,0-1-0.2-1.4-0.6c-0.4-0.4-0.6-0.8-0.6-1.4c0-0.5,0.2-1,0.6-1.4
				C35.8,79.7,36.2,79.5,36.7,79.5z M41.8,79.5c0.5,0,1,0.2,1.3,0.6c0.4,0.4,0.6,0.8,0.6,1.4c0,0.5-0.2,1-0.6,1.4
				c-0.4,0.4-0.8,0.6-1.3,0.6c-0.5,0-1-0.2-1.4-0.6c-0.4-0.4-0.6-0.8-0.6-1.4c0-0.5,0.2-1,0.6-1.4C40.8,79.7,41.2,79.5,41.8,79.5z"
				/>
			<path class="st4" d="M58,49.5v19.2c0,1.2-0.4,2.2-1.3,3C55.9,72.6,55,73,53.9,73h-8.1v-2.7h6.8c0.7,0,1.3-0.2,1.7-0.6
				c0.4-0.4,0.7-1.1,0.7-1.8V49.5H58z M50.6,79.5c0.5,0,1,0.2,1.4,0.6c0.4,0.4,0.6,0.8,0.6,1.4c0,0.5-0.2,1-0.6,1.4
				c-0.4,0.4-0.8,0.6-1.4,0.6c-0.5,0-1-0.2-1.3-0.6c-0.4-0.4-0.6-0.8-0.6-1.4c0-0.5,0.2-1,0.6-1.4C49.7,79.7,50.1,79.5,50.6,79.5z
				 M55.7,79.5c0.5,0,1,0.2,1.4,0.6c0.4,0.4,0.6,0.8,0.6,1.4c0,0.5-0.2,1-0.6,1.4c-0.4,0.4-0.8,0.6-1.4,0.6c-0.5,0-1-0.2-1.4-0.6
				c-0.4-0.4-0.6-0.8-0.6-1.4c0-0.5,0.2-1,0.6-1.4C54.7,79.7,55.1,79.5,55.7,79.5z"/>
			<path class="st4" d="M77.5,49.5v23.6c0,4.2-1.4,7.4-4.2,9.5c-2.2,1.7-5.2,2.5-8.9,2.5c-0.7,0-1.4,0-2-0.1l-1.5-1.8v-0.9
				c0.9,0.1,1.8,0.1,2.7,0.1c3.8,0,6.5-0.7,8.3-2.1c1.8-1.5,2.8-3.8,2.8-7V49.5H77.5z"/>
			<path class="st4" d="M87.6,36.5v31.4c0,0.7,0.2,1.3,0.6,1.7c0.4,0.4,1,0.7,1.8,0.7h0.3V73h-1.4c-1.1,0-2-0.4-2.8-1.2
				c-0.9-0.8-1.3-1.9-1.3-3V36.5H87.6z"/>
			<path class="st4" d="M99.2,70.3V73h-9.4v-2.7H99.2z"/>
			<path class="st4" d="M108.3,70.3V73h-9.4v-2.7H108.3z"/>
			<path class="st4" d="M129.6,35.7v2.6L116,46.1c5.4,0.9,9.9,3.6,13.6,8.2c3.2,3.9,4.8,8.3,4.8,13c0,1.4-0.2,2.4-0.5,3.1h1.7V73h-1
				l-1.1-1.6h-0.2c-0.8,1.1-1.9,1.6-3.2,1.6h-22.2v-2.7H129c1.7,0,2.5-1.1,2.5-3.4c0-4.8-2-9.1-5.9-12.9c-3.3-3.2-7.1-5-11.2-5.5
				c-0.2,0-0.3-0.1-0.3-0.3v-3.7L129.6,35.7z"/>
			<path class="st4" d="M147.5,36.5v32.3c0,1.2-0.4,2.2-1.3,3c-0.8,0.8-1.8,1.2-2.9,1.2h-8.1v-2.7h6.9c0.7,0,1.3-0.2,1.7-0.6
				c0.4-0.4,0.7-1.1,0.7-1.8V36.5H147.5z"/>
			<path class="st4" d="M157.5,36.5v36.6l-1.5,1.2h-1.4V36.5H157.5z"/>
		</g>
	</g>
</g>
</svg>
