<?xml version="1.0" encoding="utf-8"?>
<!-- Generator: Adobe Illustrator 27.0.0, SVG Export Plug-In . SVG Version: 6.00 Build 0)  -->
<svg version="1.1" id="Layer_1" xmlns="http://www.w3.org/2000/svg" xmlns:xlink="http://www.w3.org/1999/xlink" x="0px" y="0px"
	 viewBox="0 0 288.2 83.9" style="enable-background:new 0 0 288.2 83.9;" xml:space="preserve">
<style type="text/css">
	.st0{fill:url(#SVGID_1_);}
	.st1{fill:url(#SVGID_00000064340462863334856810000009730518135221459585_);}
	.st2{fill:url(#SVGID_00000125590382184833439050000009158768837064772491_);}
	.st3{fill:url(#SVGID_00000145742339949519788030000013164998597884772027_);}
	.st4{fill:#231F20;}
</style>
<g>
	<g>
		<g>
			
				<linearGradient id="SVGID_1_" gradientUnits="userSpaceOnUse" x1="-123.0503" y1="50.8708" x2="-58.8316" y2="50.8708" gradientTransform="matrix(0.9906 -0.1369 -0.1369 -0.9906 135.1265 65.6155)">
				<stop  offset="0" style="stop-color:#FBBC67"/>
				<stop  offset="1" style="stop-color:#FAA32C"/>
			</linearGradient>
			<path class="st0" d="M4.4,18.5L9,52.2c0.1,0.7,1,1,1.5,0.4l9.3-11.4c1.4-1.8,2.1-4.1,1.8-6.3L19,16.5c-0.6-4-4.3-6.9-8.3-6.3l0,0
				C6.7,10.7,3.8,14.4,4.4,18.5z"/>
			
				<linearGradient id="SVGID_00000112620708355475813210000017702412945021352834_" gradientUnits="userSpaceOnUse" x1="-123.0526" y1="33.568" x2="-58.9458" y2="33.568" gradientTransform="matrix(0.9906 -0.1369 -0.1369 -0.9906 135.1265 65.6155)">
				<stop  offset="0" style="stop-color:#5357A6"/>
				<stop  offset="1" style="stop-color:#8D57A3"/>
			</linearGradient>
			<path style="fill:url(#SVGID_00000112620708355475813210000017702412945021352834_);" d="M75.2,71c-0.2-0.2-0.3-0.3-0.5-0.5
				L50.4,50.7c1.9-1,2.8-3.3,1.9-5.4c-0.7-1.8-2.7-2.9-4.6-2.6c-1.7,0.3-3,1.5-3.4,3l-6.1-5c-0.6-0.5-0.7-1.4-0.2-2l5.2-6.6
				c-1.4-0.5-2.6-1.7-2.8-3.4c-0.3-1.9,0.7-3.8,2.5-4.6c2-0.9,4.3-0.1,5.4,1.6l11.3-14.4c3-3.6,0-9.1-4.7-8.4
				c-1.3,0.2-2.5,0.9-3.3,1.9L11.9,56.2c-1.2,1.6-1.8,3.6-1.5,5.6L11.8,72c0.6,4,4.3,6.9,8.3,6.3l0,0c4-0.6,6.9-4.3,6.3-8.3
				l-1.2-8.8c-0.2-1.1,1-2,2.1-1.5L68.9,80C74.6,82.6,79.5,75.4,75.2,71z"/>
		</g>
		
			<linearGradient id="SVGID_00000053539911591453253480000008990496728738372764_" gradientUnits="userSpaceOnUse" x1="-122.9833" y1="49.683" x2="-58.7404" y2="49.683" gradientTransform="matrix(0.9906 -0.1369 -0.1369 -0.9906 135.1265 65.6155)">
			<stop  offset="0" style="stop-color:#FBBC67"/>
			<stop  offset="1" style="stop-color:#FAA32C"/>
		</linearGradient>
		<circle style="fill:url(#SVGID_00000053539911591453253480000008990496728738372764_);" cx="44.7" cy="28" r="2.3"/>
		
			<linearGradient id="SVGID_00000164480910635426604200000009156302044273597358_" gradientUnits="userSpaceOnUse" x1="-125.1366" y1="38.4595" x2="-56.2216" y2="38.4595" gradientTransform="matrix(0.9906 -0.1369 -0.1369 -0.9906 135.1265 65.6155)">
			<stop  offset="0" style="stop-color:#FBBC67"/>
			<stop  offset="1" style="stop-color:#FAA32C"/>
		</linearGradient>
		<path style="fill:url(#SVGID_00000164480910635426604200000009156302044273597358_);" d="M69.5,33L56.3,22.3
			c-0.6-0.5-1.5-0.4-2,0.2L41.5,38.3C41,39,41.2,40,41.9,40.4l0.7,0.5c0.4,0.3,1,0.3,1.5,0.1c3-1.6,6.3-1.1,8.5,0.8
			c2.1,1.8,3.3,4.9,2.2,7.8c-0.2,0.6-0.1,1.2,0.4,1.6l1.9,1.7c0.6,0.6,1.6,0.5,2.1-0.2L70,39C71.6,37.2,71.3,34.5,69.5,33z"/>
	</g>
	<g>
		<path class="st4" d="M95.9,60.1V19.9h2.7v40.3H95.9z"/>
		<path class="st4" d="M106.7,33.7l-0.3-9.4v-4.4h2.8v4.4l-0.3,9.4H106.7z"/>
		<path class="st4" d="M120.2,46.9c2.5-2.7,10.2-10.4,13.8-14.1h3.5l-10.8,10.9l12.2,16.4h-3.4l-10.8-14.7l-4.5,4.4v10.3h-2.7V19.9
			h2.7L120.2,46.9L120.2,46.9z"/>
		<path class="st4" d="M162.7,54.9c0,2.4,0.2,4.3,0.4,5.2h-2.6c-0.2-0.7-0.4-1.9-0.5-4.2c-0.9,2-3.3,4.9-9,4.9
			c-6.3,0-9.1-4.1-9.1-8.2c0-6,4.6-8.7,12.8-8.7c2.3,0,4.1,0,5.2,0v-2.8c0-2.7-0.8-6.4-7-6.4c-5.5,0-6.3,2.9-6.9,5.1h-2.7
			c0.3-3,2.2-7.6,9.7-7.6c6.2,0,9.7,2.6,9.7,8.6V54.9z M160,46.2c-1,0-3.6,0-5.4,0c-6.1,0-9.8,1.6-9.8,6.3c0,3.4,2.5,5.8,6.3,5.8
			c7.8,0,8.9-5.2,8.9-11.1V46.2z"/>
		<path class="st4" d="M171.7,40.2c0-4.6-0.1-6.6-0.1-7.4h2.7c0.1,0.9,0.1,2.6,0.1,6.1c1.6-4.1,5.1-6.6,9.5-6.8v3
			c-5.7,0.4-9.5,4.3-9.5,10.8v14.2h-2.7L171.7,40.2L171.7,40.2z"/>
		<path class="st4" d="M188.8,40.2c0-4.6-0.1-6.6-0.1-7.4h2.7c0.1,0.9,0.1,2.6,0.1,6.1c1.6-4.1,5.1-6.6,9.5-6.8v3
			c-5.7,0.4-9.5,4.3-9.5,10.8v14.2h-2.7L188.8,40.2L188.8,40.2z"/>
		<path class="st4" d="M206,19.9h2.7v5.3H206V19.9z M206,32.8h2.7v27.3H206V32.8z"/>
		<path class="st4" d="M218.3,46.8c0.1,7,3.6,11.4,8.8,11.4c5.1,0,6.9-2.9,7.9-5.1h2.8c-1.1,3.6-4,7.7-10.8,7.7
			c-8.3,0-11.5-7.2-11.5-14.1c0-7.8,3.9-14.5,11.8-14.5c8.4,0,11.1,7.3,11.1,12.4c0,0.8,0,1.5-0.1,2.2H218.3z M222.1,19.3l7.5,8.6
			h-2.9l-8.2-8.6H222.1z M235.6,44.4c-0.1-5.4-3-9.7-8.4-9.7c-5.6,0-8.2,3.9-8.8,9.7H235.6z"/>
		<path class="st4" d="M245.1,40.2c0-4.6-0.1-6.6-0.1-7.4h2.7c0.1,0.9,0.1,2.6,0.1,6.1c1.6-4.1,5.1-6.6,9.5-6.8v3
			c-5.7,0.4-9.5,4.3-9.5,10.8v14.2h-2.7L245.1,40.2L245.1,40.2z"/>
		<path class="st4" d="M263,46.8c0.1,7,3.6,11.4,8.8,11.4c5.1,0,6.9-2.9,7.9-5.1h2.8c-1.1,3.6-4,7.7-10.8,7.7
			c-8.3,0-11.5-7.2-11.5-14.1c0-7.8,3.9-14.5,11.9-14.5c8.4,0,11.1,7.3,11.1,12.4c0,0.8,0,1.5-0.1,2.2H263z M280.3,44.4
			c-0.1-5.4-3-9.7-8.4-9.7c-5.6,0-8.2,3.9-8.8,9.7H280.3z"/>
	</g>
</g>
</svg>
