<svg id="Layer_1" data-name="Layer 1" xmlns="http://www.w3.org/2000/svg" xmlns:xlink="http://www.w3.org/1999/xlink" width="83.84mm" height="27.44mm" viewBox="0 0 237.67 77.77">
  <defs>
    <style>
      .cls-1 {
        fill: url(#linear-gradient);
      }

      .cls-2 {
        fill: url(#linear-gradient-2);
      }

      .cls-3 {
        fill: url(#linear-gradient-3);
      }

      .cls-4 {
        fill: url(#linear-gradient-4);
      }

      .cls-5 {
        fill: #1d1d1b;
        stroke: #1d1d1b;
        stroke-miterlimit: 10;
        stroke-width: 0.5px;
      }
    </style>
    <linearGradient id="linear-gradient" x1="-1421.88" y1="224.96" x2="-1357.66" y2="224.96" gradientTransform="matrix(0.99, -0.14, 0.14, 0.99, 1544.81, -388.2)" gradientUnits="userSpaceOnUse">
      <stop offset="0" stop-color="#fbbc67"/>
      <stop offset="1" stop-color="#faa32c"/>
    </linearGradient>
    <linearGradient id="linear-gradient-2" x1="-1421.93" y1="242.28" x2="-1357.77" y2="242.28" gradientTransform="matrix(0.99, -0.14, 0.14, 0.99, 1544.81, -388.2)" gradientUnits="userSpaceOnUse">
      <stop offset="0" stop-color="#5357a6"/>
      <stop offset="1" stop-color="#8d57a3"/>
    </linearGradient>
    <linearGradient id="linear-gradient-3" x1="-1421.81" y1="226.11" x2="-1357.57" y2="226.11" xlink:href="#linear-gradient"/>
    <linearGradient id="linear-gradient-4" x1="-1423.97" y1="237.41" x2="-1355.05" y2="237.41" xlink:href="#linear-gradient"/>
  </defs>
  <title>Logo Arabe</title>
  <g>
    <g>
      <g>
        <path class="cls-1" d="M165.25,15.66l4.7,33.7a.85.85,0,0,0,1.5.4l9.3-11.4a8.53,8.53,0,0,0,1.8-6.3l-2.5-18.4a7.4,7.4,0,0,0-8.3-6.3h0A7.28,7.28,0,0,0,165.25,15.66Z"/>
        <path class="cls-2" d="M236.05,68.16l-.5-.5-24.3-19.8a4.2,4.2,0,0,0,1.9-5.4,4.3,4.3,0,0,0-4.6-2.6,4.22,4.22,0,0,0-3.4,3l-6.1-5a1.43,1.43,0,0,1-.2-2l5.2-6.6a4.14,4.14,0,0,1-2.8-3.4,4.3,4.3,0,0,1,2.5-4.6,4.36,4.36,0,0,1,5.4,1.6l11.3-14.4a5.16,5.16,0,0,0-4.7-8.4,5.3,5.3,0,0,0-3.3,1.9l-39.8,51.4a7.51,7.51,0,0,0-1.5,5.6l1.4,10.2a7.4,7.4,0,0,0,8.3,6.3h0a7.4,7.4,0,0,0,6.3-8.3l-1.2-8.8a1.46,1.46,0,0,1,2.1-1.5l41.6,20.4C235.35,79.76,240.35,72.56,236.05,68.16Z"/>
      </g>
      <circle class="cls-3" cx="205.45" cy="25.16" r="2.3"/>
      <path class="cls-4" d="M230.35,30.16l-13.2-10.6a1.43,1.43,0,0,0-2,.2l-12.7,15.8a1.46,1.46,0,0,0,.3,2.1l.7.5a1.58,1.58,0,0,0,1.5.1,7.48,7.48,0,0,1,8.5.8,7.11,7.11,0,0,1,2.2,7.8,1.38,1.38,0,0,0,.4,1.6l1.9,1.7a1.38,1.38,0,0,0,2.1-.2l10.8-13.7A4.4,4.4,0,0,0,230.35,30.16Z"/>
    </g>
    <g>
      <path class="cls-5" d="M16.85,32.76v20.8h2.6v2.7h-2.6c0,8.1-4.6,12.1-13.6,12.1a6.62,6.62,0,0,1-1.5-.1l-1.5-1.8v-.9a24.37,24.37,0,0,0,2.7.1c3.8,0,6.5-.7,8.3-2.1s2.8-3.8,2.8-7V32.76Z"/>
      <path class="cls-5" d="M31.35,32.76V52a4,4,0,0,1-.3,1.5h2.8v2.8h-2.2l-1.1-1.6h-.2a3.88,3.88,0,0,1-3.2,1.6h-8.1v-2.7H26a2.14,2.14,0,0,0,1.8-.7,2.35,2.35,0,0,0,.6-1.7V32.76Zm-7,30a2,2,0,0,1,1.4.6,1.82,1.82,0,0,1,.6,1.4,2,2,0,0,1-.6,1.4,1.82,1.82,0,0,1-1.4.6,2,2,0,0,1-1.4-.6,1.82,1.82,0,0,1-.6-1.4,2,2,0,0,1,.6-1.4A2.16,2.16,0,0,1,24.35,62.76Zm5.1,0a1.61,1.61,0,0,1,1.3.6,1.82,1.82,0,0,1,.6,1.4,2,2,0,0,1-.6,1.4,1.76,1.76,0,0,1-1.3.6,2,2,0,0,1-1.4-.6,1.82,1.82,0,0,1-.6-1.4,2,2,0,0,1,.6-1.4A1.82,1.82,0,0,1,29.45,62.76Z"/>
      <path class="cls-5" d="M45.65,32.76V52a3.8,3.8,0,0,1-1.3,3,3.54,3.54,0,0,1-2.8,1.3h-8.1v-2.7h6.8A2.35,2.35,0,0,0,42,53a2.67,2.67,0,0,0,.7-1.8V32.76Zm-7.4,30a2,2,0,0,1,1.4.6,1.82,1.82,0,0,1,.6,1.4,2,2,0,0,1-.6,1.4,1.82,1.82,0,0,1-1.4.6,1.61,1.61,0,0,1-1.3-.6,1.82,1.82,0,0,1-.6-1.4,2,2,0,0,1,.6-1.4A1.76,1.76,0,0,1,38.25,62.76Zm5.1,0a2,2,0,0,1,1.4.6,1.82,1.82,0,0,1,.6,1.4,2,2,0,0,1-.6,1.4,1.82,1.82,0,0,1-1.4.6,2,2,0,0,1-1.4-.6,1.82,1.82,0,0,1-.6-1.4,2,2,0,0,1,.6-1.4A1.82,1.82,0,0,1,43.35,62.76Z"/>
      <path class="cls-5" d="M65.15,32.76v23.6c0,4.2-1.4,7.4-4.2,9.5-2.2,1.7-5.2,2.5-8.9,2.5a12.75,12.75,0,0,1-2-.1l-1.5-1.8v-.9a24.37,24.37,0,0,0,2.7.1c3.8,0,6.5-.7,8.3-2.1s2.8-3.8,2.8-7V32.76Z"/>
      <path class="cls-5" d="M75.25,19.76v31.4a2.35,2.35,0,0,0,.6,1.7,2.48,2.48,0,0,0,1.8.7H78v2.7h-1.4a3.78,3.78,0,0,1-2.8-1.2,4,4,0,0,1-1.3-3V19.76Z"/>
      <path class="cls-5" d="M86.85,53.56v2.7h-9.4v-2.7Z"/>
      <path class="cls-5" d="M96,53.56v2.7h-9.4v-2.7Z"/>
      <path class="cls-5" d="M117.25,19v2.6l-13.6,7.8a21.53,21.53,0,0,1,13.6,8.2,20.13,20.13,0,0,1,4.8,13,8,8,0,0,1-.5,3.1h1.7v2.6h-1l-1.1-1.6H121a3.76,3.76,0,0,1-3.2,1.6H95.55v-2.7h21.1c1.7,0,2.5-1.1,2.5-3.4,0-4.8-2-9.1-5.9-12.9a19.2,19.2,0,0,0-11.2-5.5.27.27,0,0,1-.3-.3v-3.7Z"/>
      <path class="cls-5" d="M135.15,19.76v32.3a3.8,3.8,0,0,1-1.3,3,4,4,0,0,1-2.9,1.2h-8.1v-2.7h6.9a2.35,2.35,0,0,0,1.7-.6,2.67,2.67,0,0,0,.7-1.8V19.76Z"/>
      <path class="cls-5" d="M145.15,19.76v36.6l-1.5,1.2h-1.4V19.76Z"/>
    </g>
  </g>
</svg>
