<svg id="Layer_1" data-name="Layer 1" xmlns="http://www.w3.org/2000/svg" xmlns:xlink="http://www.w3.org/1999/xlink" viewBox="0 0 72.52 77.7"><defs><style>.cls-1{fill:url(#linear-gradient);}.cls-2{fill:url(#linear-gradient-2);}.cls-3{fill:url(#linear-gradient-3);}.cls-4{fill:url(#linear-gradient-4);}</style><linearGradient id="linear-gradient" x1="-200.57" y1="-549.57" x2="-136.35" y2="-549.57" gradientTransform="matrix(0.99, -0.14, -0.14, -0.99, 125.42, -543.13)" gradientUnits="userSpaceOnUse"><stop offset="0" stop-color="#fbbc67"/><stop offset="1" stop-color="#faa32c"/></linearGradient><linearGradient id="linear-gradient-2" x1="-200.55" y1="-567.06" x2="-136.5" y2="-567.06" gradientTransform="matrix(0.99, -0.14, -0.14, -0.99, 125.42, -543.13)" gradientUnits="userSpaceOnUse"><stop offset="0" stop-color="#5357a6"/><stop offset="1" stop-color="#8d57a3"/></linearGradient><linearGradient id="linear-gradient-3" x1="-200.5" y1="-550.87" x2="-136.26" y2="-550.87" gradientTransform="matrix(0.99, -0.14, -0.14, -0.99, 125.42, -543.14)" xlink:href="#linear-gradient"/><linearGradient id="linear-gradient-4" x1="-202.65" y1="-562.1" x2="-133.74" y2="-562.1" xlink:href="#linear-gradient"/></defs><title>LogoDark</title><path class="cls-1" d="M.08,15.66l4.6,33.7a.85.85,0,0,0,1.5.4l9.3-11.4a8.56,8.56,0,0,0,1.8-6.3l-2.6-18.4a7.4,7.4,0,0,0-8.3-6.3h0A7.29,7.29,0,0,0,.06,15.5C.07,15.56.07,15.61.08,15.66Z" transform="translate(0 -0.01)"/><path class="cls-2" d="M70.88,68.16l-.5-.5-24.3-19.8a4.2,4.2,0,0,0,1.9-5.4,4.3,4.3,0,0,0-4.6-2.6,4.2,4.2,0,0,0-3.4,3l-6.1-5a1.43,1.43,0,0,1-.2-2l5.2-6.6a4.13,4.13,0,0,1-2.8-3.4,4.3,4.3,0,0,1,2.5-4.6,4.36,4.36,0,0,1,5.4,1.6l11.3-14.4a5.17,5.17,0,0,0-.68-7.27,5.21,5.21,0,0,0-4-1.13A5.29,5.29,0,0,0,47.28,2L7.58,53.36A7.51,7.51,0,0,0,6.08,59l1.4,10.2a7.4,7.4,0,0,0,8.3,6.3h0a7.4,7.4,0,0,0,6.3-8.3l-1.2-8.8a1.46,1.46,0,0,1,2.1-1.5l41.6,20.3C70.28,79.76,75.18,72.56,70.88,68.16Z" transform="translate(0 -0.01)"/><circle class="cls-3" cx="40.38" cy="25.15" r="2.3"/><path class="cls-4" d="M65.18,30.16,52,19.46a1.43,1.43,0,0,0-2,.2l-12.8,15.8a1.46,1.46,0,0,0,.31,2l.09.06.7.5a1.6,1.6,0,0,0,1.5.1,7.47,7.47,0,0,1,8.5.8,7.1,7.1,0,0,1,2.2,7.8,1.38,1.38,0,0,0,.4,1.6l1.9,1.7a1.39,1.39,0,0,0,1.95,0,1.19,1.19,0,0,0,.15-.18l10.8-13.7a4.19,4.19,0,0,0-.38-5.9Z" transform="translate(0 -0.01)"/></svg>