<?xml version="1.0" encoding="utf-8"?>
<!-- Generator: Adobe Illustrator 27.7.0, SVG Export Plug-In . SVG Version: 6.00 Build 0)  -->
<svg version="1.1" id="Layer_1" xmlns="http://www.w3.org/2000/svg" xmlns:xlink="http://www.w3.org/1999/xlink" x="0px" y="0px"
	 viewBox="0 0 326.1 550" style="enable-background:new 0 0 326.1 550;" xml:space="preserve">
<style type="text/css">
	.st0{fill:url(#SVGID_1_);}
	.st1{fill:url(#SVGID_00000115488634686201729930000010302288894714108807_);}
	.st2{fill:url(#SVGID_00000080920887900424862340000015169024244481553294_);}
	.st3{fill:url(#SVGID_00000160175582969207688650000014472973139550006922_);}
	.st4{fill:url(#SVGID_00000123437025328021732200000007605011189627273873_);}
	.st5{fill:url(#SVGID_00000071529414297355192990000010959897070953021609_);}
	.st6{fill:url(#SVGID_00000157281814846554280800000013507074216963949199_);}
	.st7{fill:url(#SVGID_00000111185958824429778980000001008540483898505138_);}
	.st8{fill:url(#SVGID_00000016075778042442218120000018444465661925062307_);}
	.st9{fill:url(#SVGID_00000170256387598154103060000018410685179405711515_);}
	.st10{fill:url(#SVGID_00000157284904600431111540000008329045034014045354_);}
	.st11{fill:#FFFFFF;}
	.st12{fill:url(#SVGID_00000074415141671260979310000003271490207840837000_);}
	.st13{fill:url(#SVGID_00000035501432086987551950000002245612824043610806_);}
	.st14{fill:url(#SVGID_00000126319906975143034780000006424472060559304636_);}
	.st15{fill:url(#SVGID_00000070087125873064838270000009738855341252862652_);}
	.st16{fill:url(#SVGID_00000026885966952759515070000002601852660777834173_);}
	.st17{fill:url(#SVGID_00000138545784137802363330000012635468882300559790_);}
	.st18{fill:url(#SVGID_00000039819269427091422220000001975919044369254037_);}
	.st19{fill:#FFFFFF;stroke:#FFFFFF;stroke-linecap:round;stroke-linejoin:round;stroke-miterlimit:10;}
	.st20{fill:url(#SVGID_00000113342275692677413590000001292305217983178928_);}
</style>
<g>
	<g>
		<g>
			
				<linearGradient id="SVGID_1_" gradientUnits="userSpaceOnUse" x1="138.3536" y1="263.0775" x2="149.1726" y2="263.0775" gradientTransform="matrix(1 1.612813e-03 -1.612813e-03 1 22.5568 11.7812)">
				<stop  offset="0" style="stop-color:#394085"/>
				<stop  offset="1" style="stop-color:#563168"/>
			</linearGradient>
			<path class="st0" d="M161.7,54c0,0,0.2,413.3-0.2,426c-0.4,12.7-4.1,18.2,2.9,19.3c5.3,0.8,4.1-2.1,4.1-9.8
				c0-7.7,3.2-429.1,3.2-432.7c0.1-6-1-5.9-4.2-6C164.3,50.6,161.6,51.4,161.7,54L161.7,54z"/>
			
				<linearGradient id="SVGID_00000069396200237602207450000009963352380818005382_" gradientUnits="userSpaceOnUse" x1="139.4831" y1="40.8223" x2="148.5941" y2="40.8223" gradientTransform="matrix(1 1.612813e-03 -1.612813e-03 1 22.5568 11.7812)">
				<stop  offset="0" style="stop-color:#394085"/>
				<stop  offset="1" style="stop-color:#563168"/>
			</linearGradient>
			<path style="fill:url(#SVGID_00000069396200237602207450000009963352380818005382_);" d="M171.1,52.5c0,1.1-2,2.6-4.5,2.6
				c-2.5,0-4.6-1.2-4.6-2.3c0-1.1,2-2.2,4.5-2.3C169,50.5,171.1,51.4,171.1,52.5L171.1,52.5z"/>
			
				<linearGradient id="SVGID_00000160885837250571012630000014114885255076751543_" gradientUnits="userSpaceOnUse" x1="148.8015" y1="40.5737" x2="148.8424" y2="40.5737" gradientTransform="matrix(1 1.612813e-03 -1.612813e-03 1 22.5568 11.7812)">
				<stop  offset="0" style="stop-color:#394085"/>
				<stop  offset="1" style="stop-color:#563168"/>
			</linearGradient>
			<path style="fill:url(#SVGID_00000160885837250571012630000014114885255076751543_);" d="M171.3,52.5
				C171.3,52.5,171.3,52.5,171.3,52.5c0,0.1,0,0.1,0,0.2C171.3,52.6,171.3,52.5,171.3,52.5L171.3,52.5z"/>
			
				<linearGradient id="SVGID_00000010276783427595798070000015122368083391265965_" gradientUnits="userSpaceOnUse" x1="140.4045" y1="247.2414" x2="149.1606" y2="247.2414" gradientTransform="matrix(1 1.612813e-03 -1.612813e-03 1 22.5568 11.7812)">
				<stop  offset="0" style="stop-color:#394085"/>
				<stop  offset="1" style="stop-color:#563168"/>
			</linearGradient>
			<path style="fill:url(#SVGID_00000010276783427595798070000015122368083391265965_);" d="M171.6,52.6c-0.1,0-0.1,0.1-0.2,0.1
				c-0.1,1.3-2.2,3.1-4.8,3.1c-0.3,0-0.6,0-0.9,0c-0.2,0-0.4,0-0.5-0.1c1,0.6,3.2,2.3,3.3,4c0.1,2.1-3.2,404.3-5.3,404.9
				c-0.6,0.1-0.8,0.7-0.9,1.4c1.7,0,3.4-0.1,5.2-0.1c0.3-5.9,4.2-412.1,4.2-413.1C171.6,52.7,171.6,52.6,171.6,52.6L171.6,52.6z"/>
			
				<linearGradient id="SVGID_00000158707064396493508430000000251656598160876191_" gradientUnits="userSpaceOnUse" x1="142.2961" y1="41.8503" x2="148.5884" y2="41.8503" gradientTransform="matrix(1 1.612813e-03 -1.612813e-03 1 22.5568 11.7812)">
				<stop  offset="0" style="stop-color:#394085"/>
				<stop  offset="1" style="stop-color:#563168"/>
			</linearGradient>
			<path style="fill:url(#SVGID_00000158707064396493508430000000251656598160876191_);" d="M171.1,52.6c-0.3,0.1-0.6,0.2-1,0.4
				c-0.4,0.8-1.7,1.6-3.5,1.7c-0.2,0-0.5,0-0.7,0c-0.1,0-0.3,0-0.4-0.1c-0.4,0.1-0.7,0.2-0.7,0.2s0.2,0.1,0.4,0.2
				c0.2,0,0.3,0,0.5,0.1c0.3,0,0.6,0,0.9,0C169.1,55.1,171,53.7,171.1,52.6L171.1,52.6z"/>
			
				<linearGradient id="SVGID_00000052786290905963349550000010069049818819874945_" gradientUnits="userSpaceOnUse" x1="140.4363" y1="40.8208" x2="147.641" y2="40.8208" gradientTransform="matrix(1 1.612813e-03 -1.612813e-03 1 22.5568 11.7812)">
				<stop  offset="0" style="stop-color:#394085"/>
				<stop  offset="1" style="stop-color:#563168"/>
			</linearGradient>
			<path style="fill:url(#SVGID_00000052786290905963349550000010069049818819874945_);" d="M170.1,52.6c0,0.9-1.5,2-3.5,2
				c-2,0-3.6-0.9-3.7-1.8c0-0.9,1.6-1.8,3.6-1.8C168.5,51,170.1,51.7,170.1,52.6L170.1,52.6z"/>
			
				<linearGradient id="SVGID_00000003065780081079393080000017049183176504389522_" gradientUnits="userSpaceOnUse" x1="141.376" y1="40.8222" x2="146.6986" y2="40.8222" gradientTransform="matrix(1 1.612813e-03 -1.612813e-03 1 22.5568 11.7812)">
				<stop  offset="0" style="stop-color:#394085"/>
				<stop  offset="1" style="stop-color:#563168"/>
			</linearGradient>
			<path style="fill:url(#SVGID_00000003065780081079393080000017049183176504389522_);" d="M166.3,53.5c-0.7-0.1-1.2-0.4-1.2-0.7
				c0-0.4,0.6-0.7,1.4-0.7c0.1,0,0.3,0,0.4,0c0.6,0.1,1.1,0.3,1.1,0.6c0,0.4-0.6,0.8-1.4,0.8C166.5,53.6,166.4,53.6,166.3,53.5
				L166.3,53.5z M167.2,51.5c-0.2,0-0.4,0-0.7,0c-1.5,0-2.6,0.7-2.6,1.3c0,0.6,0.9,1.2,2.2,1.3c0.2,0,0.3,0,0.5,0
				c1.5,0,2.6-0.8,2.6-1.5C169.2,52.1,168.3,51.6,167.2,51.5L167.2,51.5z"/>
			
				<linearGradient id="SVGID_00000075142205045819136880000017862014395300807818_" gradientUnits="userSpaceOnUse" x1="142.6048" y1="40.823" x2="145.4753" y2="40.823" gradientTransform="matrix(1 1.612813e-03 -1.612813e-03 1 22.5568 11.7812)">
				<stop  offset="0" style="stop-color:#394085"/>
				<stop  offset="1" style="stop-color:#563168"/>
			</linearGradient>
			<path style="fill:url(#SVGID_00000075142205045819136880000017862014395300807818_);" d="M166.9,52.1c-0.1,0-0.2,0-0.4,0
				c-0.8,0-1.4,0.4-1.4,0.7c0,0.3,0.5,0.6,1.2,0.7c0.1,0,0.2,0,0.3,0c0.8,0,1.4-0.5,1.4-0.8C168,52.4,167.5,52.2,166.9,52.1
				L166.9,52.1z"/>
			
				<linearGradient id="SVGID_00000120541140686470392620000004248261817679191210_" gradientUnits="userSpaceOnUse" x1="139.7439" y1="453.7573" x2="139.7439" y2="453.7573" gradientTransform="matrix(1 1.612813e-03 -1.612813e-03 1 22.5568 11.7812)">
				<stop  offset="0" style="stop-color:#394085"/>
				<stop  offset="1" style="stop-color:#563168"/>
			</linearGradient>
			<path style="fill:url(#SVGID_00000120541140686470392620000004248261817679191210_);" d="M161.6,465.8L161.6,465.8L161.6,465.8
				C161.6,465.8,161.6,465.8,161.6,465.8L161.6,465.8z"/>
			
				<linearGradient id="SVGID_00000138554700514537955050000017095960497602477225_" gradientUnits="userSpaceOnUse" x1="147.0626" y1="458.4684" x2="147.1091" y2="458.4684" gradientTransform="matrix(1 1.612813e-03 -1.612813e-03 1 22.5568 11.7812)">
				<stop  offset="0" style="stop-color:#394085"/>
				<stop  offset="1" style="stop-color:#563168"/>
			</linearGradient>
			<path style="fill:url(#SVGID_00000138554700514537955050000017095960497602477225_);" d="M168.9,470.3c0,0.2,0,0.3,0,0.4
				C168.9,470.6,168.9,470.4,168.9,470.3L168.9,470.3z"/>
		</g>
	</g>
	
		<linearGradient id="SVGID_00000038389020807835161310000001874242882137355401_" gradientUnits="userSpaceOnUse" x1="-129.105" y1="327.636" x2="259.2459" y2="277.1585" gradientTransform="matrix(0.9917 0.1289 -0.1289 0.9917 165.3798 13.0248)">
		<stop  offset="1.704000e-02" style="stop-color:#8D57A3"/>
		<stop  offset="0.2149" style="stop-color:#7957A4"/>
		<stop  offset="0.4974" style="stop-color:#5357A6"/>
		<stop  offset="1" style="stop-color:#8D57A3"/>
	</linearGradient>
	<path style="fill:url(#SVGID_00000038389020807835161310000001874242882137355401_);" d="M57.3,343.6c15.4,0.2,135.9,0.6,151.3,1
		c14.5,0.4,29.2,1.4,43.7,1.1c10.5-8.7,20.9-17.7,32.5-24.8c-5.8-4.7-12.5-8.6-18.7-12.8c-5.3-3.5-10.6-7.1-16.1-10.2
		c-0.1,0-0.1,0.1-0.2,0.1c-0.1,0-0.2,0-0.3,0c-0.2,0-0.5-0.1-0.7-0.1c-14.9-1.3-29.9-0.6-44.8-0.9c-13.5-0.3-132,0.1-145.5,0.3
		c-0.3,4.8-0.7,10.3-0.4,15.1c0.2,3.3,7.1,1.5,9.7,1.9c0.4,0.1,3.3-0.1,3,0.1c-2.6,1.4-8.8,2.2-11.8,2.6c-2.2,0.3-1.7,7.7-1.8,9.6
		c0,0.5-0.4,4.9-0.1,5c0.4,0,0.4,0.3,1,0c2.1,0.7,4.8,0.4,6.9,0.5c0.6,0,1.2,0.1,1.8,0.1c-3,0.6-6,1.2-8.9,2
		c-0.7,0.2-0.9,0.9-0.7,1.6c0.2,0.8,0.2,1.6,0.3,2.4c-0.1,0.5-0.2,1.1-0.2,1.6c0,0,0,0,0,0C57.2,341.3,57.4,342.8,57.3,343.6z"/>
	<g>
		<path class="st11" d="M122.7,330.1c-0.5-0.1-0.9-0.2-1.3-0.3c-0.4-0.1-0.8-0.3-1.1-0.5c-0.3-0.2-0.7-0.5-1-0.8
			c-0.5-0.5-0.8-1.1-1-1.8c-0.2-0.7-0.3-1.5-0.3-2.3l0-6.5l2.8,0l0,6.2c0,0.6,0.1,1.1,0.2,1.5c0.1,0.4,0.3,0.8,0.6,1
			c0.3,0.3,0.8,0.5,1.3,0.6c0.5,0.1,1.1,0.2,1.7,0.2l1.6,0l0-9.5l2.8,0l0,12.3l-4.6,0C123.8,330.2,123.2,330.2,122.7,330.1z
			 M122.4,315.7c-0.3-0.3-0.5-0.6-0.5-1.1c0-0.4,0.2-0.8,0.5-1.1c0.3-0.3,0.7-0.4,1.2-0.4c0.5,0,0.9,0.1,1.2,0.4
			c0.3,0.3,0.5,0.6,0.5,1.1c0,0.5-0.2,0.9-0.5,1.1s-0.7,0.4-1.2,0.4C123.1,316.1,122.7,316,122.4,315.7z"/>
		<path class="st11" d="M135.6,311.5l0,13.4l2.6,0l0,2.8l-5.4,0l0-16.2L135.6,311.5z"/>
		<path class="st11" d="M141.7,324.9l0,2.8l-3.9,0l0-2.8L141.7,324.9z"/>
		<path class="st11" d="M145.2,325l0,2.8l-3.9,0l0-2.8L145.2,325z"/>
		<path class="st11" d="M148.8,325l0,2.8l-3.9,0l0-2.8L148.8,325z"/>
		<path class="st11" d="M152.3,325l0,2.8l-3.9,0l0-2.8L152.3,325z"/>
		<path class="st11" d="M155.9,325l0,2.8l-3.9,0l0-2.8L155.9,325z"/>
		<path class="st11" d="M167.9,325l0-2.1c0-0.4,0-0.8-0.1-1.1c-0.1-0.3-0.2-0.6-0.4-0.8c-0.2-0.2-0.4-0.4-0.7-0.6
			c-0.3-0.1-0.6-0.2-1-0.2l-8.4,0c-0.3-0.3-0.5-0.7-0.6-1.2c-0.2-0.5-0.3-1-0.3-1.6l3.3-5.9l3,0l-3.1,5.9l5.9,0
			c0.9,0,1.7,0.1,2.4,0.4s1.3,0.6,1.8,1.2c0.4,0.5,0.7,1,0.9,1.7c0.2,0.7,0.3,1.5,0.3,2.3l0,4.8l-15.3,0l0-2.8L167.9,325z"/>
		<path class="st11" d="M173.2,332.1c-0.3,0-0.5-0.1-0.6-0.1l-0.2-2.8c0.3,0.1,0.5,0.1,0.7,0.1c0.2,0,0.4,0,0.6,0
			c0.6,0,1-0.2,1.2-0.5c0.2-0.3,0.3-0.8,0.3-1.5l0-10.9l2.8,0l0,8.5l2.2,0l0,2.8l-2.2,0c-0.1,1.5-0.4,2.7-1.1,3.4s-1.6,1-2.9,1
			C173.7,332.2,173.5,332.2,173.2,332.1z M175.4,314.5c-0.3-0.3-0.5-0.6-0.5-1.1c0-0.4,0.2-0.8,0.5-1.1c0.3-0.3,0.7-0.4,1.2-0.4
			c0.5,0,0.9,0.1,1.2,0.4c0.3,0.3,0.5,0.6,0.5,1.1c0,0.5-0.2,0.9-0.5,1.1c-0.3,0.3-0.7,0.4-1.2,0.4
			C176.1,314.8,175.7,314.7,175.4,314.5z"/>
		<path class="st11" d="M183.7,325l0,2.8l-3.9,0l0-2.8L183.7,325z"/>
		<path class="st11" d="M187.2,325l0,2.8l-3.9,0l0-2.8L187.2,325z"/>
		<path class="st11" d="M190.8,325l0,2.8l-3.9,0l0-2.8L190.8,325z"/>
		<path class="st11" d="M194.3,325l0,2.8l-3.9,0l0-2.8L194.3,325z"/>
		<path class="st11" d="M196.4,325l0-8.5l2.8,0l0,11.3l-5.3,0l0-2.8L196.4,325z M196.6,314.5c-0.3-0.3-0.5-0.6-0.5-1.1
			c0-0.4,0.2-0.8,0.5-1.1c0.3-0.3,0.7-0.4,1.2-0.4c0.5,0,0.9,0.1,1.2,0.4c0.3,0.3,0.5,0.6,0.5,1.1c0,0.5-0.2,0.9-0.5,1.1
			s-0.7,0.4-1.2,0.4C197.3,314.9,196.9,314.7,196.6,314.5z"/>
		<path class="st11" d="M203.3,331.7c-0.4-0.4-0.7-1-0.7-1.9l0-0.9l4.2,0l0,1.5l-2.6,0c0,0.3,0.1,0.6,0.2,0.7
			c0.2,0.2,0.4,0.3,0.8,0.3l0.8,0l0,0.9l-1,0C204.3,332.2,203.7,332,203.3,331.7z M206.1,311.6l0,16.2l-2.8,0l0-16.2L206.1,311.6z"
			/>
	</g>
	
		<linearGradient id="SVGID_00000069388632144029774230000005033569684206265244_" gradientUnits="userSpaceOnUse" x1="1051.6195" y1="79.1562" x2="1070.9093" y2="180.2817" gradientTransform="matrix(0.9948 0.103 -0.103 0.9948 -870.9036 13.6692)">
		<stop  offset="0" style="stop-color:#FCBC67"/>
		<stop  offset="1" style="stop-color:#FAA32B"/>
	</linearGradient>
	<path style="fill:url(#SVGID_00000069388632144029774230000005033569684206265244_);" d="M58.6,272.7c15.4-0.1,135.9-2.9,151.3-2.9
		c14.5,0,29.2,0.7,43.7,0c10.3-9,20.4-18.3,31.8-25.7c-6-4.6-12.7-8.3-19.1-12.3c-5.3-3.4-10.8-6.8-16.4-9.8c-0.1,0-0.1,0.1-0.2,0.1
		c-0.1,0-0.2,0-0.3,0c-0.2,0-0.5,0-0.7,0c-14.9-0.9-29.9,0.2-44.8,0.2c-13.5,0-132,3.5-145.4,4.1c-0.1,4.8-0.4,10.3,0,15.1
		c0.3,3.3,7.1,1.3,9.7,1.6c0.4,0,3.3-0.2,3,0c-2.6,1.5-8.8,2.5-11.7,2.9c-2.2,0.3-1.5,7.8-1.5,9.7c0,0.5-0.3,4.9,0,5
		c0.4,0,0.4,0.3,1,0c2.1,0.6,4.8,0.3,6.9,0.4c0.6,0,1.2,0.1,1.8,0.1c-3,0.7-5.9,1.4-8.8,2.2c-0.7,0.2-0.9,1-0.7,1.6
		c0.2,0.8,0.3,1.6,0.3,2.4c-0.1,0.5-0.1,1.1-0.2,1.6c0,0,0,0,0,0C58.4,270.4,58.6,272,58.6,272.7z"/>
	<g>
		<g>
			<g>
				<path class="st11" d="M146.4,255.1h3.3l-6.6-17.5h-2.9l-6.6,17.5h3.3l1.6-5h6.3L146.4,255.1z M139.2,247.6l2.2-7.1l2.4,7.1
					H139.2z"/>
				<path class="st11" d="M154.7,237.7v17.5c0,0,0,3.3-3.7,2.5v2.1c0,0,6.6,1.7,6.6-4.6v-17.5H154.7z"/>
				<rect x="164.9" y="237.5" class="st11" width="3.3" height="17.9"/>
				<path class="st11" d="M178,248.9c0,0-0.8-3.3,0.4-5.8c0,0,2.1-5.4,8.7-2.1l0.6-2.3c0,0-6.7-3.2-10.8,1l0,0c0,0-0.1,0.1-0.2,0.2
					c-0.5,0.5-0.9,1.2-1.3,1.9c-0.2,0.3-0.4,0.7-0.5,1.2c-0.1,0.3-0.2,0.6-0.3,0.9c0,0,0,0.1,0,0.3c0,0.2-0.1,0.4-0.1,0.6
					c0,0.1-0.1,0.8-0.1,1.8c0,0.1,0,0.1,0,0.2h0c0,0.1,0,0.2,0,0.3c0.1,2,0.6,4.7,2.5,6.2c0.1,0,0.1,0.1,0.2,0.1c0,0,0.3,0.3,1,0.6
					c0,0,0,0,0,0h0c1.5,0.7,4.5,1.7,9.4,0.6v-2.5C187.6,252.2,179.3,255.1,178,248.9z"/>
				<path class="st11" d="M204.8,237.8c-1.8-0.7-3.4-0.8-4.6-0.7c-2.1,0.4-7.4,2.1-7.1,9.4c0,0-0.2,8.5,8.1,8.9c0,0,8.3,0.4,8.3-9.1
					C209.6,246.4,209.9,240,204.8,237.8z M206.9,246.5c0,6.6-5.6,6.3-5.6,6.3c-5.6-0.3-5.4-6.2-5.4-6.2c-0.1-3,1-4.7,2.3-5.6
					c0.1-0.1,1.8-1.3,3.9-1c0.8,0.1,1.5,0.4,2,0.7c0.2,0.1,0.4,0.3,0.6,0.4C207,243.1,206.9,246.5,206.9,246.5z"/>
				<path class="st11" d="M222.9,237.7l-0.1,0H216l0,1.5v16.2l0.1,0l-0.1,0.1c0,0,4.1,0.1,7.2-0.2l-0.1,0l0.1,0c0,0,7.1-0.8,7.1-9.1
					C230.4,246,231.2,238.5,222.9,237.7z M227.3,246.1c0,1.4-0.2,2.6-0.6,3.5c0,0.1-0.1,0.2-0.1,0.3c0,0,0,0,0,0
					c-1.2,2.3-3.5,2.9-4.6,3l-0.7,0h0l0,0L219,253v-12.9l3.5,0C227.3,240.8,227.3,246.1,227.3,246.1z"/>
			</g>
		</g>
		<g>
			
				<linearGradient id="SVGID_00000091722183873832923260000007984337178018134198_" gradientUnits="userSpaceOnUse" x1="87.92" y1="246.428" x2="125.1035" y2="246.428">
				<stop  offset="0" style="stop-color:#5356A5"/>
				<stop  offset="1" style="stop-color:#8D56A3"/>
			</linearGradient>
			<path style="fill:url(#SVGID_00000091722183873832923260000007984337178018134198_);" d="M124.6,240.1c-3-12.8-14.6-9.5-14.6-9.5
				c-12.2,2.3-19,11-20.5,13.2c-1.3,2.2-1.6,4.3-1.6,5.4c0,0.8,0.1,1.3,0.1,1.3c1.5,6.8,10.7,10.4,10.7,10.4
				c10.1,4.5,18.5-0.9,18.5-0.9C127.9,253.2,124.6,240.1,124.6,240.1z"/>
			<g>
				
					<linearGradient id="SVGID_00000046309196255002736560000010395742093028772790_" gradientUnits="userSpaceOnUse" x1="104.3877" y1="247.2157" x2="108.8535" y2="247.2157">
					<stop  offset="0" style="stop-color:#5356A5"/>
					<stop  offset="1" style="stop-color:#8D56A3"/>
				</linearGradient>
				
					<line style="fill:url(#SVGID_00000046309196255002736560000010395742093028772790_);" x1="104.4" y1="254.1" x2="108.9" y2="240.4"/>
				<path class="st11" d="M104.4,255.4c-0.1,0-0.3,0-0.4-0.1c-0.7-0.2-1-1-0.8-1.6l4.5-13.7c0.2-0.7,1-1,1.6-0.8
					c0.7,0.2,1,1,0.8,1.6l-4.5,13.7C105.4,255,104.9,255.4,104.4,255.4z"/>
			</g>
			<path class="st11" d="M99.9,252.4c-0.3,0-0.7-0.1-0.9-0.4l-3.9-3.9c-0.5-0.5-0.5-1.3,0-1.8l3.9-4.2c0.5-0.5,1.3-0.6,1.8-0.1
				c0.5,0.5,0.6,1.3,0.1,1.8l-3,3.3l3,3c0.5,0.5,0.5,1.3,0,1.8C100.6,252.3,100.3,252.4,99.9,252.4z"/>
			<path class="st11" d="M113.3,252.4c-0.3,0-0.7-0.1-0.9-0.4c-0.5-0.5-0.5-1.3,0-1.8l3-3l-3-3.3c-0.5-0.5-0.5-1.3,0.1-1.8
				c0.5-0.5,1.3-0.5,1.8,0.1l3.9,4.2c0.5,0.5,0.5,1.3,0,1.8l-3.9,3.9C114,252.3,113.7,252.4,113.3,252.4z"/>
		</g>
	</g>
	
		<linearGradient id="SVGID_00000154397835661508397730000003689552732702293408_" gradientUnits="userSpaceOnUse" x1="-147.8162" y1="181.8414" x2="240.5347" y2="131.3639" gradientTransform="matrix(0.9917 0.1289 -0.1289 0.9917 165.3798 13.0248)">
		<stop  offset="1.704000e-02" style="stop-color:#8D57A3"/>
		<stop  offset="0.2149" style="stop-color:#7957A4"/>
		<stop  offset="0.4974" style="stop-color:#5357A6"/>
		<stop  offset="1" style="stop-color:#8D57A3"/>
	</linearGradient>
	<path style="fill:url(#SVGID_00000154397835661508397730000003689552732702293408_);" d="M57.6,196.6c15.4,0.2,135.9,0.6,151.3,1
		c14.5,0.4,29.2,1.4,43.7,1.1c10.5-8.7,20.9-17.7,32.5-24.8c-5.8-4.7-12.5-8.6-18.7-12.8c-5.3-3.5-10.6-7.1-16.1-10.2
		c-0.1,0-0.1,0.1-0.2,0.1c-0.1,0-0.2,0-0.3,0c-0.2,0-0.5-0.1-0.7-0.1c-14.9-1.3-29.9-0.6-44.8-0.9c-13.5-0.3-132,0.1-145.5,0.3
		c-0.3,4.8-0.7,10.3-0.4,15.1c0.2,3.3,7.1,1.5,9.7,1.9c0.4,0.1,3.3-0.1,3,0.1c-2.6,1.4-8.8,2.2-11.8,2.6c-2.2,0.3-1.7,7.7-1.8,9.6
		c0,0.5-0.4,4.9-0.1,5c0.4,0,0.4,0.3,1,0c2.1,0.7,4.8,0.4,6.9,0.5c0.6,0,1.2,0.1,1.8,0.1c-3,0.6-6,1.2-8.9,2
		c-0.7,0.2-0.9,0.9-0.7,1.6c0.2,0.8,0.2,1.6,0.3,2.4c-0.1,0.5-0.2,1.1-0.2,1.6c0,0,0,0,0,0C57.5,194.3,57.6,195.9,57.6,196.6z"/>
	<g>
		<g>
			<g>
				
					<linearGradient id="SVGID_00000138572721433338421560000002111389598927105721_" gradientUnits="userSpaceOnUse" x1="-20.2506" y1="387.6827" x2="6.1769" y2="387.6827" gradientTransform="matrix(0.9906 -0.1369 -0.1369 -0.9906 168.4235 549.775)">
					<stop  offset="0" style="stop-color:#FBBC67"/>
					<stop  offset="1" style="stop-color:#FAA32C"/>
				</linearGradient>
				<path style="fill:url(#SVGID_00000138572721433338421560000002111389598927105721_);" d="M94.5,162.9l1.9,13.9
					c0,0.3,0.4,0.4,0.6,0.2l3.8-4.7c0.6-0.7,0.9-1.7,0.7-2.6l-1-7.6c-0.2-1.7-1.8-2.8-3.4-2.6l0,0C95.4,159.7,94.3,161.3,94.5,162.9
					z"/>
				<path class="st11" d="M123.7,184.5c-0.1-0.1-0.1-0.1-0.2-0.2l-10-8.2c0.8-0.4,1.1-1.4,0.8-2.2c-0.3-0.7-1.1-1.2-1.9-1.1
					c-0.7,0.1-1.2,0.6-1.4,1.2l-2.5-2.1c-0.3-0.2-0.3-0.6-0.1-0.8l2.1-2.7c-0.6-0.2-1.1-0.7-1.2-1.4c-0.1-0.8,0.3-1.6,1-1.9
					c0.8-0.4,1.8-0.1,2.2,0.7l4.7-5.9c1.2-1.5,0-3.7-1.9-3.5c-0.5,0.1-1,0.4-1.4,0.8l-16.3,21.2c-0.5,0.7-0.7,1.5-0.6,2.3l0.6,4.2
					c0.2,1.7,1.8,2.8,3.4,2.6l0,0c1.7-0.2,2.8-1.8,2.6-3.4l-0.5-3.6c-0.1-0.5,0.4-0.8,0.9-0.6l17.1,8.4
					C123.4,189.3,125.4,186.3,123.7,184.5z"/>
			</g>
			
				<linearGradient id="SVGID_00000110434261043040097460000017981621401881203889_" gradientUnits="userSpaceOnUse" x1="-20.223" y1="387.1939" x2="6.2144" y2="387.1939" gradientTransform="matrix(0.9906 -0.1369 -0.1369 -0.9906 168.4235 549.775)">
				<stop  offset="0" style="stop-color:#FBBC67"/>
				<stop  offset="1" style="stop-color:#FAA32C"/>
			</linearGradient>
			<circle style="fill:url(#SVGID_00000110434261043040097460000017981621401881203889_);" cx="111.1" cy="166.8" r="0.9"/>
			
				<linearGradient id="SVGID_00000150796504221816106790000010647786511078874545_" gradientUnits="userSpaceOnUse" x1="-21.1091" y1="382.5752" x2="7.251" y2="382.5752" gradientTransform="matrix(0.9906 -0.1369 -0.1369 -0.9906 168.4235 549.775)">
				<stop  offset="0" style="stop-color:#FBBC67"/>
				<stop  offset="1" style="stop-color:#FAA32C"/>
			</linearGradient>
			<path style="fill:url(#SVGID_00000150796504221816106790000010647786511078874545_);" d="M121.3,168.9l-5.4-4.4
				c-0.3-0.2-0.6-0.2-0.8,0.1l-5.2,6.5c-0.2,0.3-0.2,0.7,0.1,0.9l0.3,0.2c0.2,0.1,0.4,0.1,0.6,0c1.2-0.7,2.6-0.4,3.5,0.3
				c0.9,0.7,1.4,2,0.9,3.2c-0.1,0.2,0,0.5,0.2,0.7l0.8,0.7c0.3,0.2,0.6,0.2,0.9-0.1l4.5-5.6C122.2,170.6,122.1,169.5,121.3,168.9z"
				/>
		</g>
		<g>
			<g>
				<path class="st19" d="M132.2,181.8v-20h1.4v20H132.2z"/>
				<path class="st19" d="M137.5,168.6l-0.1-4.7v-2.2h1.4v2.2l-0.1,4.7H137.5z"/>
				<path class="st19" d="M144.3,175.2c1.3-1.3,5.1-5.2,6.9-7h1.7l-5.4,5.4l6.1,8.2h-1.7l-5.4-7.3l-2.3,2.2v5.1h-1.4v-20h1.4
					L144.3,175.2L144.3,175.2z"/>
				<path class="st19" d="M165.4,179.2c0,1.2,0.1,2.1,0.2,2.6h-1.3c-0.1-0.3-0.2-0.9-0.2-2.1c-0.5,1-1.7,2.4-4.5,2.4
					c-3.2,0-4.5-2-4.5-4.1c0-3,2.3-4.4,6.4-4.4c1.1,0,2,0,2.6,0v-1.4c0-1.4-0.4-3.2-3.5-3.2c-2.7,0-3.2,1.4-3.5,2.6h-1.4
					c0.2-1.5,1.1-3.8,4.8-3.8c3.1,0,4.8,1.3,4.8,4.3V179.2z M164.1,174.9c-0.5,0-1.8,0-2.7,0c-3,0-4.9,0.8-4.9,3.1
					c0,1.7,1.2,2.9,3.1,2.9c3.9,0,4.4-2.6,4.4-5.5V174.9z"/>
				<path class="st19" d="M169.9,171.9c0-2.3,0-3.3,0-3.7h1.3c0,0.4,0.1,1.3,0.1,3c0.8-2,2.5-3.3,4.7-3.4v1.5
					c-2.8,0.2-4.7,2.1-4.7,5.4v7.1h-1.4L169.9,171.9L169.9,171.9z"/>
				<path class="st19" d="M178.4,171.9c0-2.3,0-3.3,0-3.7h1.3c0,0.4,0.1,1.3,0.1,3c0.8-2,2.5-3.3,4.7-3.4v1.5
					c-2.8,0.2-4.7,2.1-4.7,5.4v7.1h-1.4L178.4,171.9L178.4,171.9z"/>
				<path class="st19" d="M187,161.7h1.4v2.6H187V161.7z M187,168.2h1.4v13.6H187V168.2z"/>
				<path class="st19" d="M193.1,175.2c0,3.5,1.8,5.7,4.4,5.7c2.6,0,3.4-1.4,3.9-2.6h1.4c-0.6,1.8-2,3.8-5.4,3.8
					c-4.1,0-5.7-3.6-5.7-7c0-3.9,1.9-7.2,5.9-7.2c4.2,0,5.5,3.6,5.5,6.2c0,0.4,0,0.8,0,1.1H193.1z M195,161.5l3.7,4.3h-1.5l-4.1-4.3
					H195z M201.7,174c0-2.7-1.5-4.8-4.2-4.8c-2.8,0-4.1,2-4.4,4.8H201.7z"/>
				<path class="st19" d="M206.5,171.9c0-2.3,0-3.3,0-3.7h1.3c0,0.4,0.1,1.3,0.1,3c0.8-2,2.5-3.3,4.7-3.4v1.5
					c-2.8,0.2-4.7,2.1-4.7,5.4v7.1h-1.4L206.5,171.9L206.5,171.9z"/>
				<path class="st19" d="M215.4,175.2c0,3.5,1.8,5.7,4.4,5.7c2.6,0,3.4-1.4,3.9-2.6h1.4c-0.6,1.8-2,3.8-5.4,3.8
					c-4.1,0-5.7-3.6-5.7-7c0-3.9,1.9-7.2,5.9-7.2c4.2,0,5.5,3.6,5.5,6.2c0,0.4,0,0.8,0,1.1H215.4z M224,174c0-2.7-1.5-4.8-4.2-4.8
					c-2.8,0-4.1,2-4.4,4.8H224z"/>
			</g>
		</g>
	</g>
	
		<linearGradient id="SVGID_00000161610910007463663520000015029324078732095907_" gradientUnits="userSpaceOnUse" x1="3.208" y1="40.3399" x2="22.5005" y2="141.4793" gradientTransform="matrix(-0.9921 0.1257 0.1257 0.9921 156.114 13.0099)">
		<stop  offset="0" style="stop-color:#FCBC67"/>
		<stop  offset="1" style="stop-color:#FAA32B"/>
	</linearGradient>
	<path style="fill:url(#SVGID_00000161610910007463663520000015029324078732095907_);" d="M268.1,122.9
		c-15.4,0.2-135.9,0.2-151.3,0.5c-14.5,0.3-29.2,1.3-43.7,1c-10.5-8.7-20.8-17.8-32.4-25c5.9-4.7,12.5-8.6,18.8-12.7
		c5.3-3.5,10.6-7.1,16.1-10.2c0.1,0,0.1,0.1,0.2,0.1c0.1,0,0.2,0,0.3,0c0.2,0,0.5-0.1,0.7-0.1c14.9-1.3,29.9-0.5,44.8-0.8
		c13.5-0.3,132,0.5,145.5,0.8c0.2,4.8,0.7,10.3,0.4,15.1c-0.2,3.3-7.1,1.5-9.7,1.8c-0.4,0.1-3.3-0.1-3,0.1c2.6,1.4,8.8,2.3,11.8,2.6
		c2.2,0.3,1.7,7.7,1.7,9.6c0,0.5,0.4,4.9,0.1,5c-0.4,0-0.4,0.3-1,0c-2.1,0.7-4.8,0.4-6.9,0.5c-0.6,0-1.2,0.1-1.8,0.1
		c3,0.6,6,1.2,8.9,2c0.7,0.2,0.9,0.9,0.7,1.6c-0.2,0.8-0.2,1.6-0.3,2.4c0.1,0.5,0.2,1.1,0.2,1.6c0,0,0,0,0,0
		C268.2,120.6,268.1,122.2,268.1,122.9z"/>
	<g>
		<path class="st11" d="M123.9,111.7c-0.3,0-0.5-0.1-0.6-0.1l-0.2-2.8c0.3,0.1,0.5,0.1,0.7,0.1c0.2,0,0.4,0,0.6,0
			c0.6,0,1-0.2,1.2-0.5c0.2-0.3,0.3-0.8,0.3-1.5l0-10.9l2.8,0l0,8.5l2.2,0l0,2.8l-2.2,0c-0.1,1.5-0.4,2.7-1.1,3.4
			c-0.6,0.7-1.6,1-2.9,1C124.4,111.8,124.1,111.7,123.9,111.7z"/>
		<path class="st11" d="M134.4,104.6l0,2.8l-3.9,0l0-2.8L134.4,104.6z"/>
		<path class="st11" d="M137.9,104.6l0,2.8l-3.9,0l0-2.8L137.9,104.6z"/>
		<path class="st11" d="M141.5,104.6l0,2.8l-3.9,0l0-2.8L141.5,104.6z"/>
		<path class="st11" d="M145.3,104.6l0-8.5l2.8,0l0,11.3l-7,0l0-2.8L145.3,104.6z M142.2,111.3c-0.3-0.2-0.5-0.6-0.5-1.1
			c0-0.4,0.2-0.8,0.5-1c0.3-0.3,0.7-0.4,1.1-0.4c0.4,0,0.8,0.1,1.1,0.4c0.3,0.3,0.4,0.6,0.4,1c0,0.5-0.2,0.8-0.5,1.1
			c-0.3,0.2-0.7,0.4-1.1,0.4C142.9,111.6,142.5,111.5,142.2,111.3z M146.5,111.3c-0.3-0.2-0.5-0.6-0.5-1.1c0-0.4,0.2-0.8,0.5-1
			c0.3-0.3,0.7-0.4,1.1-0.4c0.5,0,0.8,0.1,1.1,0.4s0.4,0.6,0.4,1c0,0.5-0.2,0.8-0.5,1.1c-0.3,0.2-0.7,0.4-1.1,0.4
			C147.2,111.6,146.8,111.5,146.5,111.3z"/>
		<path class="st11" d="M157.3,104.6l0-3.1c0-0.4,0-0.8-0.1-1.1c-0.1-0.3-0.2-0.6-0.4-0.8c-0.2-0.2-0.4-0.4-0.7-0.6
			c-0.3-0.1-0.6-0.2-1-0.2l-1.2,0l0-2.8l0.9,0c0.9,0,1.7,0.1,2.4,0.4s1.3,0.6,1.8,1.2c0.4,0.5,0.7,1,0.9,1.7
			c0.2,0.7,0.3,1.5,0.3,2.3l0,5.7l-9.8,0l0-2.8L157.3,104.6z"/>
		<path class="st11" d="M166.5,91.2l0,13.4l2.6,0l0,2.8l-5.4,0l0-16.2L166.5,91.2z"/>
		<path class="st11" d="M172.6,104.6l0,2.8l-3.9,0l0-2.8L172.6,104.6z"/>
		<path class="st11" d="M176.1,104.6l0,2.8l-3.9,0l0-2.8L176.1,104.6z"/>
		<path class="st11" d="M179.7,104.6l0,2.8l-3.9,0l0-2.8L179.7,104.6z"/>
		<path class="st11" d="M191.7,104.7l0-2.1c0-0.4,0-0.8-0.1-1.1c-0.1-0.3-0.2-0.6-0.4-0.8c-0.2-0.2-0.4-0.4-0.7-0.6
			c-0.3-0.1-0.6-0.2-1-0.2l-8.4,0c-0.3-0.3-0.5-0.7-0.6-1.2c-0.2-0.5-0.3-1-0.3-1.6l3.2-5.9l3,0l-3.1,5.9l5.9,0
			c0.9,0,1.7,0.1,2.4,0.4c0.7,0.2,1.3,0.6,1.8,1.2c0.4,0.5,0.7,1,0.9,1.7c0.2,0.7,0.3,1.5,0.3,2.3l0,4.8l-15.3,0l0-2.8L191.7,104.7z
			"/>
		<path class="st11" d="M198.5,89.9c0.4-0.4,1.1-0.6,1.9-0.6l1,0l0,0.9l-0.8,0c-0.4,0-0.7,0.1-0.8,0.3s-0.2,0.4-0.2,0.7l2.6,0l0,1.5
			l-4.2,0l0-0.9C197.8,90.9,198,90.3,198.5,89.9z M201.3,93.7l0,13.8l-2.8,0l0-13.8L201.3,93.7z"/>
	</g>
</g>
</svg>
