<?xml version="1.0" encoding="utf-8"?>
<!-- Generator: Adobe Illustrator 27.0.0, SVG Export Plug-In . SVG Version: 6.00 Build 0)  -->
<svg version="1.1" id="Layer_1" xmlns="http://www.w3.org/2000/svg" xmlns:xlink="http://www.w3.org/1999/xlink" x="0px" y="0px"
	 viewBox="0 0 398.4 426.5" style="enable-background:new 0 0 398.4 426.5;" xml:space="preserve">
<style type="text/css">
	.st0{fill:#4375BA;}
	.st1{fill:url(#SVGID_1_);}
	.st2{opacity:0.1;enable-background:new    ;}
	.st3{fill:url(#SVGID_00000165222866136355121430000015935031865238487982_);}
	.st4{fill:#F5897D;}
	.st5{fill:url(#SVGID_00000094619484700219124610000002800150058372118447_);}
	.st6{fill:#192E35;}
	.st7{fill:url(#SVGID_00000052074249371480678690000004781722475277477507_);}
	.st8{fill:url(#SVGID_00000064328307918915789270000016651794168611368886_);}
	.st9{fill:url(#SVGID_00000121965443660417556270000003078531698814085783_);}
	.st10{fill:#D2D2EA;}
	.st11{opacity:0.2;enable-background:new    ;}
	.st12{fill:#BCB1D7;}
	.st13{opacity:0.2;fill:#FFFFFF;enable-background:new    ;}
	.st14{fill:url(#SVGID_00000083046967750148798570000002376575231049586839_);}
	.st15{fill:url(#SVGID_00000151524997300239454940000003200393962122079920_);}
	.st16{fill:url(#SVGID_00000100349972152706770660000017162624472116587190_);}
	.st17{fill:url(#SVGID_00000021814680745565662160000009597172481103906984_);}
	.st18{fill:url(#SVGID_00000131360273511480473180000015206521676554087817_);}
	.st19{fill:url(#SVGID_00000014622502808508562970000012618669383602382481_);}
	.st20{fill:url(#SVGID_00000011019229291591200180000004078062793202101671_);}
	.st21{fill:url(#SVGID_00000062886368768967229830000000836122412004758687_);}
	.st22{fill:url(#SVGID_00000115512557582164826240000004518719160927422345_);}
	.st23{fill:url(#SVGID_00000139980515682744582660000010382218652327477422_);}
	.st24{fill:url(#SVGID_00000020383681359512977340000003556665467662540474_);}
	.st25{fill:url(#SVGID_00000123400181183019676990000000421415724109887395_);}
	.st26{fill:url(#SVGID_00000039092307578001973240000018248306408930729911_);}
	.st27{fill:url(#SVGID_00000111184732350734728920000015981565067818279042_);}
	.st28{fill:url(#SVGID_00000004514458497391830330000008890038919433768885_);}
	.st29{fill:url(#SVGID_00000056408445367404913810000015948527759105076129_);}
	.st30{fill:url(#SVGID_00000127011757134807499890000004346016140991489686_);}
	.st31{fill:url(#SVGID_00000169533470453253801750000005869644393890658183_);}
	.st32{fill:url(#SVGID_00000015357221854472432980000007751363521563839413_);}
	.st33{fill:url(#SVGID_00000044143946837250756550000007106298558032612758_);}
	.st34{fill:url(#SVGID_00000000208281454339222950000002016133586556132241_);}
	.st35{fill:url(#SVGID_00000127739276437281972660000017274670761785173935_);}
	.st36{fill:url(#SVGID_00000062161077229008227450000001575510078305536128_);}
</style>
<g>
	<g>
		<path class="st0" d="M398.4,426.5c0,0-41.8-153.9-49.4-159.6c-7.6-5.7-51-21.7-51-21.7S192.4,262.8,176.6,261
			c-15.9-1.7-66.8-11.6-74.2,0c-7.3,11.6-36.2,81-36.2,81l-40.5,17.1L0,426.5H398.4z"/>
		<linearGradient id="SVGID_1_" gradientUnits="userSpaceOnUse" x1="0" y1="335.8223" x2="398.3871" y2="335.8223">
			<stop  offset="0" style="stop-color:#394085"/>
			<stop  offset="1" style="stop-color:#563168"/>
		</linearGradient>
		<path class="st1" d="M0,426.5h398.4c0,0-41.6-153.2-49.4-159.6c0,0-0.1,0-0.1,0c-1.6-1.2-4.6-2.8-8.5-4.6
			c-15.1-7-42.5-17.1-42.5-17.1S192.4,262.8,176.6,261c-15.9-1.7-66.8-11.6-74.2,0c-1.6,2.5-4.1,7.6-7.1,14
			C84.1,299,66.2,342,66.2,342l-40.5,17.1L0,426.5z"/>
		<path class="st2" d="M95.3,275.1l15.7,15.6l41-9.6l46.4,9.6l-3,17.9l16.9,20.1l-6-20.1l13.2-22.1c0,0,53.4,3.2,67.3,0
			c8.7-2,35.2-14.9,53.6-24.2c-15.1-7-42.5-17.1-42.5-17.1S192.4,262.8,176.6,261c-15.9-1.7-66.8-11.6-74.2,0
			C100.9,263.5,98.3,268.6,95.3,275.1z"/>
		<path class="st2" d="M0,426.5h398.4c0,0-41.6-153.2-49.4-159.6c0,0-0.1,0-0.1,0l25.7,119.4l-12.8,19.8l-31.5-23.9l-24.2,13.5
			l-33.6-6.8l-3.3-16.2l-47.6-31.3l29.9,27.7L241,400.5l-45.7,7.9h-50.5l-20.9-13.9l7-28.3l10.5-16.4l-53.3-0.1l22.7,14l-8.4,24.9
			l-25.7,11.9l-29.8-18.4l-12.1,35.1L0,426.5z"/>
	</g>
	<g id="_x3C_Group_x3E__37_">
		
			<linearGradient id="SVGID_00000042725862118002932010000000962687201782203529_" gradientUnits="userSpaceOnUse" x1="238.0344" y1="134.0889" x2="360.0142" y2="134.0889">
			<stop  offset="0" style="stop-color:#1F2150"/>
			<stop  offset="1" style="stop-color:#361E44"/>
		</linearGradient>
		<path style="fill:url(#SVGID_00000042725862118002932010000000962687201782203529_);" d="M257.5,81c0,0,60.6-9.5,72.2-4.5
			s15.4,22.8,15.4,22.8s2.1,3.6-4.2,4.1c0,0,25.6,63.9,17.5,76.1c-8.1,12.2-89.8,17.1-100.9,11.1C246.5,184.6,219.8,85.4,257.5,81z"
			/>
		<path class="st4" d="M221.8,141.8c0,0-8,18.6-9.8,21.2c-1.8,2.6-41.7,21-41.7,21s-4.8-0.8-9.8,0c-4.9,0.8-11.7,2.8-12.3,3.6
			c-0.6,0.8,7.4,12.4,7.4,12.4s16,1,17.9-5.3c0,0,40-14.9,44.7-18.7c4.7-3.9,17.6-26.9,17.6-26.9L221.8,141.8z"/>
		
			<linearGradient id="SVGID_00000000927524217077347960000014499994964260892297_" gradientUnits="userSpaceOnUse" x1="178.4023" y1="146.5373" x2="246.2682" y2="146.5373">
			<stop  offset="0" style="stop-color:#394085"/>
			<stop  offset="1" style="stop-color:#563168"/>
		</linearGradient>
		<path style="fill:url(#SVGID_00000000927524217077347960000014499994964260892297_);" d="M233.3,101.1
			c-7.5,4.5-19.2,52.6-21.8,58.3c-2.5,5.7-33.2,19.6-33.2,19.6l13.6,13c0,0,31-13.7,34.9-17.6c3.9-3.9,19.4-43.9,19.4-43.9
			L233.3,101.1z"/>
		<g>
			<path class="st6" d="M235.8,211.1c0,0-126.4-18.2-133.1,9.6c-7.1,29.3,94.4,49.1,155.1,51.2s78.1-11.3,68.4-86.2l-81.8-0.2
				L235.8,211.1z"/>
			
				<linearGradient id="SVGID_00000109002200992650941940000009838455358964822156_" gradientUnits="userSpaceOnUse" x1="102.4013" y1="228.7046" x2="328.7415" y2="228.7046">
				<stop  offset="0" style="stop-color:#0F1634"/>
				<stop  offset="1" style="stop-color:#271535"/>
			</linearGradient>
			<path style="fill:url(#SVGID_00000109002200992650941940000009838455358964822156_);" d="M235.8,211.1c0,0-126.4-18.2-133.1,9.6
				c-7.1,29.3,94.4,49.1,155.1,51.2s78.1-11.3,68.4-86.2l-81.8-0.2L235.8,211.1z"/>
		</g>
		<g>
			<g>
				
					<linearGradient id="SVGID_00000157308950374683686580000007308573914939456136_" gradientUnits="userSpaceOnUse" x1="116.0139" y1="250.2934" x2="122.2404" y2="250.2934">
					<stop  offset="0" style="stop-color:#FCBC67"/>
					<stop  offset="1" style="stop-color:#FAA32B"/>
				</linearGradient>
				<path style="fill:url(#SVGID_00000157308950374683686580000007308573914939456136_);" d="M121.7,254c0.1,0.1,0.3,0.1,0.4,0
					c0.1-0.1,0.2-0.2,0.1-0.4c-0.2-0.7-2.2-6.5-4.2-7.1c-0.4-0.1-0.9,0-1.2,0.4c-0.6,0.5-0.9,1.2-0.7,2c0.3,1.1,1,2.1,1.9,2.7
					C119.1,252.5,120.3,253.3,121.7,254z M121.1,252.9c-1.9-0.8-3.4-2.3-4.3-4.2c-0.1-0.5,0.1-1,0.5-1.3c0.1-0.1,0.3-0.2,0.5-0.1
					c0.2,0.1,0.3,0.2,0.5,0.3C119.6,249.2,120.5,251,121.1,252.9z"/>
			</g>
			<g>
				
					<linearGradient id="SVGID_00000176728877348139810910000002872868459168274842_" gradientUnits="userSpaceOnUse" x1="120.9849" y1="250.1166" x2="124.7294" y2="250.1166">
					<stop  offset="0" style="stop-color:#FCBC67"/>
					<stop  offset="1" style="stop-color:#FAA32B"/>
				</linearGradient>
				<path style="fill:url(#SVGID_00000176728877348139810910000002872868459168274842_);" d="M121.8,254.1c0.1,0,0.3,0,0.4-0.1
					c0.2-0.2,3-3.7,2.5-6.1c-0.1-0.6-0.5-1.1-1-1.5c-0.4-0.4-1.1-0.5-1.6-0.2c-1.5,1-1.3,5.8-0.6,7.6l0.1,0.2
					C121.6,254.1,121.7,254.1,121.8,254.1z M123.4,247.2c0.3,0.2,0.4,0.5,0.5,0.8c0.3,1.5-1.1,3.8-1.9,4.9c-0.5-2-0.3-5.3,0.5-5.9
					c0.1,0,0.3-0.2,0.7,0.1L123.4,247.2L123.4,247.2z"/>
			</g>
		</g>
		<polygon class="st10" points="165.4,268.9 139,268.9 126.2,268.9 124.7,255.5 136.5,254 165.2,250.1 		"/>
		<path class="st6" d="M127.6,253.8l3.2,15.3c0.2,0.9-0.4,1.7-1.2,1.8l-7.6,1.4c0,0-10.1,2.6-13,0.8c-8.3-5.3-16.3-38.9-12.9-41.4
			c1.2-0.9,3.4,0.5,4.5,1.6c3.4,3.5,10.7,13.2,13.5,16.1c3.4,3.4,9.3,3.5,11.9,3.3C126.8,252.6,127.4,253.1,127.6,253.8z"/>
		<polygon class="st11" points="165.4,268.9 139,268.9 136.5,254 165.2,250.1 		"/>
		<g>
			<g>
				<path class="st6" d="M265.5,210.1v3.3c0,2.3-1.9,4.3-4.1,4.3H138.1c-2.3,0-4.5-2.1-4.5-4.3v-3.3H265.5z"/>
				<path class="st12" d="M265.5,210.1v3.3c0,2.3-1.9,4.3-4.1,4.3H138.1c-2.3,0-4.5-2.1-4.5-4.3v-3.3H265.5z"/>
				<path class="st10" d="M219.5,210.1v3.3c0,2.3-1.9,4.3-4.2,4.3h-77.3c-2.3,0-4.5-2.1-4.5-4.3v-3.3H219.5z"/>
			</g>
			<g>
				<path class="st6" d="M215.3,214.7h-81.4c-2.5,0-5.2-2-5.9-4.4l-18.7-58.6c-0.8-2.4,0.6-4.5,3.1-4.5h81.4c2.5,0,5.2,2.1,5.9,4.5
					l18.7,58.5C219.2,212.7,217.8,214.7,215.3,214.7z"/>
				<path class="st12" d="M215.3,214.7h-81.4c-2.5,0-5.2-2-5.9-4.4l-18.7-58.6c-0.8-2.4,0.6-4.5,3.1-4.5h81.4c2.5,0,5.2,2.1,5.9,4.5
					l18.7,58.5C219.2,212.7,217.8,214.7,215.3,214.7z"/>
				<path class="st10" d="M212.3,214.7h-78.4c-2.5,0-5.2-2-5.9-4.4l-18.7-58.6c-0.8-2.4,0.6-4.5,3.1-4.5h78.4c2.5,0,5.2,2.1,5.9,4.5
					l18.7,58.5C216.2,212.7,214.8,214.7,212.3,214.7z"/>
			</g>
			<path class="st13" d="M164.6,183.7c1,3.9-0.9,7.1-4.3,7.1c-3.4,0-7-3.2-8-7.1c-1-3.9,0.9-7.1,4.3-7.1S163.6,179.8,164.6,183.7z"
				/>
		</g>
		
			<linearGradient id="SVGID_00000043433829935475193110000007004956116801146302_" gradientUnits="userSpaceOnUse" x1="95.2925" y1="252.5652" x2="130.8424" y2="252.5652">
			<stop  offset="0" style="stop-color:#394085"/>
			<stop  offset="1" style="stop-color:#563168"/>
		</linearGradient>
		<path style="fill:url(#SVGID_00000043433829935475193110000007004956116801146302_);" d="M127.6,253.8l3.2,15.3
			c0.2,0.9-0.4,1.7-1.2,1.8l-7.6,1.4c0,0-10.1,2.6-13,0.8c-8.3-5.3-16.3-38.9-12.9-41.4c1.2-0.9,3.4,0.5,4.5,1.6
			c3.4,3.5,10.7,13.2,13.5,16.1c3.4,3.4,9.3,3.5,11.9,3.3C126.8,252.6,127.4,253.1,127.6,253.8z"/>
		<g>
			<polygon points="301.9,196.2 327.5,196.5 327,188.2 301.9,187.7 			"/>
			<polygon points="251.5,186.6 243.8,186.4 241.1,195.4 251.5,195.6 			"/>
			
				<linearGradient id="SVGID_00000154427701817132596290000009294586174114847108_" gradientUnits="userSpaceOnUse" x1="254.7138" y1="191.421" x2="297.9576" y2="191.421">
				<stop  offset="0" style="stop-color:#0E1119"/>
				<stop  offset="1" style="stop-color:#1B1124"/>
			</linearGradient>
			<polygon style="fill:url(#SVGID_00000154427701817132596290000009294586174114847108_);" points="254.7,186.7 254.7,195.6 
				298,196.2 298,187.6 			"/>
			<g>
				<path class="st10" d="M279.6,194l0.1-3.5c0.1-1.9-1.3-3.6-3.2-3.6l-7.8-0.3c-0.9,0-1.7,0.3-2.4,0.9c-0.6,0.6-1,1.5-1.1,2.4
					l-0.1,3.5c-0.1,1.9,1.3,3.6,3.2,3.6l7.8,0.3l0,0c0,0,0.1,0,0.1,0C278.1,197.4,279.6,195.9,279.6,194z M268.5,195.6
					c-1.1,0-1.9-1-1.8-2.1l0.1-3.5c0-0.5,0.2-1.1,0.6-1.4c0.4-0.4,0.9-0.6,1.4-0.5l7.8,0.3c1.1,0,1.9,1,1.8,2.1l-0.1,3.5
					c0,1.1-0.9,2-2,2L268.5,195.6z"/>
			</g>
			<g>
				<path class="st10" d="M278.3,192.9h-3.9c-0.5,0-0.9-0.4-0.9-0.9c0-0.5,0.4-0.9,0.9-0.9h3.9c0.5,0,0.9,0.4,0.9,0.9
					C279.2,192.5,278.8,192.9,278.3,192.9z"/>
			</g>
		</g>
		<g>
			<path class="st0" d="M233.3,101.1c0,0,9.9,62.3,5.7,84.6l91.2,2.7c0,0-10.8-64.4-25.1-88.7C305.1,99.7,281.3,59.9,233.3,101.1z"
				/>
			
				<linearGradient id="SVGID_00000147214413305883768200000007458116967784635535_" gradientUnits="userSpaceOnUse" x1="233.3214" y1="135.3776" x2="330.2487" y2="135.3776">
				<stop  offset="1.704000e-02" style="stop-color:#9C6CAE"/>
				<stop  offset="0.244" style="stop-color:#876DB1"/>
				<stop  offset="0.4974" style="stop-color:#6A6FB4"/>
				<stop  offset="1" style="stop-color:#8D57A3"/>
			</linearGradient>
			<path style="fill:url(#SVGID_00000147214413305883768200000007458116967784635535_);" d="M233.3,101.1c0,0,9.9,62.3,5.7,84.6
				l91.2,2.7c0,0-10.8-64.4-25.1-88.7C305.1,99.7,281.3,59.9,233.3,101.1z"/>
		</g>
		<g>
			<path class="st10" d="M286.8,87.2c0,0-15.1,14.8-23.9,12.4c-8.8-2.4-12-6.9-12-6.9s7-3.1,6.3-4.8c-0.1-0.2-0.3-0.5-0.6-1
				c-2.6-4-11.9-16.6-11.9-16.6l19.9-11.1c0,0,1.6,3.8,3.6,8.4c2.7,6.1,6,13.5,7.2,14.8C277.4,84.8,286.8,87.2,286.8,87.2z"/>
			<path class="st11" d="M268.2,67.5c-1.3,7-4.3,15.3-11.7,19.3c-2.6-4-11.9-16.6-11.9-16.6l19.9-11.1
				C264.6,59.1,266.2,63,268.2,67.5z"/>
		</g>
		<g>
			
				<linearGradient id="SVGID_00000106855098795302531190000012661883787290008501_" gradientUnits="userSpaceOnUse" x1="266.0207" y1="65.892" x2="279.0399" y2="65.892">
				<stop  offset="0" style="stop-color:#1F2150"/>
				<stop  offset="1" style="stop-color:#361E44"/>
			</linearGradient>
			<path style="fill:url(#SVGID_00000106855098795302531190000012661883787290008501_);" d="M272.2,53.8c0,0,2,6.3,1.6,10.8
				c-0.4,4.5,4.6,6,5.2,3.2c0,0-0.1,6.6-4.4,5.6c0,0,0,4.6-3.8,4.6c0,0-5.4-6.9-4.8-15.4C266.6,54,272.2,53.8,272.2,53.8z"/>
			<path class="st6" d="M237.9,31.9c6.5,2.7,5.4,17.8-5.4,30.7c-6.6-5.7-9.6-18.9-8.1-24C227,30.2,232.3,29.6,237.9,31.9z"/>
			<path class="st10" d="M228.5,68.6C228.5,68.6,228.5,68.6,228.5,68.6c0.6,1.9,1.3,3.6,2.1,5.1c6.4,13,24.8,15.6,32.9,2.7
				c0,0,0.1-0.1,0.1-0.1c5.4-8.7,3.4-16.8,1.1-30.8c-0.4-3-1.6-5.8-3.3-8.3c-6.1-8.8-18.2-10.9-27-4.8
				C223.7,39.8,224.4,56.6,228.5,68.6z"/>
			
				<linearGradient id="SVGID_00000080925432974297084490000002341082529847912350_" gradientUnits="userSpaceOnUse" x1="242.1693" y1="54.1784" x2="244.9803" y2="54.1784">
				<stop  offset="0" style="stop-color:#1F2150"/>
				<stop  offset="1" style="stop-color:#361E44"/>
			</linearGradient>
			<path style="fill:url(#SVGID_00000080925432974297084490000002341082529847912350_);" d="M244.9,53.9c0.3,1.1-0.1,2.2-0.9,2.3
				c-0.7,0.2-1.5-0.6-1.8-1.7c-0.3-1.1,0.1-2.2,0.9-2.3C243.8,52,244.6,52.8,244.9,53.9z"/>
			
				<linearGradient id="SVGID_00000086674589690100905930000007794938683635956924_" gradientUnits="userSpaceOnUse" x1="229.3432" y1="57.0693" x2="232.177" y2="57.0693">
				<stop  offset="0" style="stop-color:#1F2150"/>
				<stop  offset="1" style="stop-color:#361E44"/>
			</linearGradient>
			<path style="fill:url(#SVGID_00000086674589690100905930000007794938683635956924_);" d="M232.1,56.8c0.3,1.1-0.1,2.2-0.9,2.3
				c-0.7,0.2-1.5-0.6-1.8-1.7c-0.3-1.1,0.1-2.2,0.9-2.3C231,54.9,231.8,55.6,232.1,56.8z"/>
			<path class="st11" d="M236.4,56.4c-0.6,3.7-1.7,7.4-3.2,10.8c2.5,1.4,5.6-0.2,5.6-0.2L236.4,56.4z"/>
			
				<linearGradient id="SVGID_00000155861814595852412060000016568654422357525913_" gradientUnits="userSpaceOnUse" x1="241.3375" y1="47.6434" x2="248.0625" y2="47.6434">
				<stop  offset="0" style="stop-color:#1F2150"/>
				<stop  offset="1" style="stop-color:#361E44"/>
			</linearGradient>
			<path style="fill:url(#SVGID_00000155861814595852412060000016568654422357525913_);" d="M247.5,49.1c0.2,0,0.3-0.1,0.4-0.2
				c0.2-0.3,0.2-0.7-0.1-1c-1.6-1.5-3.9-2-6-1.5c-0.3,0.1-0.6,0.4-0.5,0.8c0,0,0,0,0,0c0.1,0.3,0.5,0.5,0.8,0.5l0,0
				c1.7-0.4,3.4,0.1,4.7,1.3C247.1,49.1,247.3,49.1,247.5,49.1z"/>
			
				<linearGradient id="SVGID_00000114791768582965610110000012952935881865746869_" gradientUnits="userSpaceOnUse" x1="224.4874" y1="50.937" x2="229.3205" y2="50.937">
				<stop  offset="0" style="stop-color:#1F2150"/>
				<stop  offset="1" style="stop-color:#361E44"/>
			</linearGradient>
			<path style="fill:url(#SVGID_00000114791768582965610110000012952935881865746869_);" d="M225.3,53.8c0.3-0.1,0.5-0.3,0.5-0.5
				c0.3-1.7,1.5-3.1,3.1-3.8c0.4-0.1,0.5-0.5,0.4-0.9c-0.1-0.3-0.5-0.5-0.9-0.4c-2,0.9-3.5,2.7-3.9,4.8c-0.1,0.4,0.1,0.7,0.5,0.8
				c0,0,0,0,0,0C225.1,53.8,225.2,53.8,225.3,53.8z"/>
			
				<linearGradient id="SVGID_00000134944220309784576920000011192354417094429085_" gradientUnits="userSpaceOnUse" x1="241.1694" y1="70.2709" x2="249.9738" y2="70.2709">
				<stop  offset="0" style="stop-color:#1F2150"/>
				<stop  offset="1" style="stop-color:#361E44"/>
			</linearGradient>
			<path style="fill:url(#SVGID_00000134944220309784576920000011192354417094429085_);" d="M241.4,73.7c-0.1,0-0.3-0.1-0.3-0.2
				c0-0.2,0.1-0.3,0.2-0.3c6.5-1.1,8-6,8-6c0-0.1,0.2-0.2,0.3-0.2c0.1,0,0.2,0.2,0.2,0.3C249.9,67.3,248.4,72.5,241.4,73.7
				C241.5,73.7,241.5,73.7,241.4,73.7z"/>
			
				<linearGradient id="SVGID_00000145018449369879497210000005978444815964966326_" gradientUnits="userSpaceOnUse" x1="221.7135" y1="38.5139" x2="270.8506" y2="38.5139">
				<stop  offset="0" style="stop-color:#1F2150"/>
				<stop  offset="1" style="stop-color:#361E44"/>
			</linearGradient>
			<path style="fill:url(#SVGID_00000145018449369879497210000005978444815964966326_);" d="M225.7,43.1c0,0-4.2-3.2-4-7
				c0.2-5.5,3.5-9.1,7.4-11.4c2.9-1.8,7-3.2,13.1-3.6c16-0.9,24.7,3.9,27.4,12.4c1.7,3,1.7,8.6,0.1,13.9c0,0,0,0.1,0,0.1
				c0,0,0,0,0,0c-0.9,3.1-2.3,6-4.2,8.3c-9.7-8.4-13.3-14.4-11.8-18.4c-0.3-0.1-5.2-4.4-7.3-4.5c-3.1-0.2-8.8,2.8-13.4,5.5
				c-2.5,1.5-5.2-0.9-5.2-0.9L225.7,43.1z"/>
			<path class="st10" d="M273.8,55c-0.2,3.6-1.8,6.9-4.5,9.3c-3.6,3.1-7.4,0.4-8.1-4c-0.6-4,0.4-10.4,4.8-11.8
				C270.4,47.1,274,50.7,273.8,55z"/>
		</g>
		<g>
			<g>
				
					<linearGradient id="SVGID_00000052077897311272303400000017777124567419515270_" gradientUnits="userSpaceOnUse" x1="243.3947" y1="279.3422" x2="247.1298" y2="279.3422">
					<stop  offset="0" style="stop-color:#FCBC67"/>
					<stop  offset="1" style="stop-color:#FAA32B"/>
				</linearGradient>
				<path style="fill:url(#SVGID_00000052077897311272303400000017777124567419515270_);" d="M244.5,275.1c-0.1-0.1-0.2-0.2-0.4-0.2
					c-0.1,0-0.3,0.1-0.3,0.3c-0.1,0.7-1.1,6.8,0.4,8.3c0.3,0.3,0.8,0.4,1.2,0.2c0.7-0.2,1.3-0.7,1.5-1.4c0.2-1.1,0.1-2.3-0.4-3.3
					C246,277.6,245.3,276.3,244.5,275.1z M244.4,276.3c1.3,1.6,2,3.6,1.9,5.7c-0.1,0.5-0.6,0.9-1.1,0.9c-0.2,0.1-0.4,0-0.5-0.1
					c-0.1-0.1-0.2-0.3-0.3-0.5C244.1,280.4,244.1,278.3,244.4,276.3z"/>
			</g>
			<polygon class="st10" points="204.1,245.2 229.3,253.6 241.3,257.6 238.6,270.8 226.9,268.6 198.4,263.1 			"/>
			<path class="st6" d="M235.3,271.5l1.8-15.5c0.1-0.9,0.9-1.5,1.8-1.4l7.7,1.1c0,0,10.4,0.8,12.5,3.4c6.2,7.7,3.2,42.1-0.8,43.4
				c-1.5,0.5-3.1-1.5-3.7-2.9c-2.1-4.4-6-15.9-7.8-19.5c-2.1-4.2-7.7-6.2-10.3-6.9C235.7,272.9,235.2,272.2,235.3,271.5z"/>
			<g>
				
					<linearGradient id="SVGID_00000092457183826401915930000008499160893573416357_" gradientUnits="userSpaceOnUse" x1="238.8663" y1="278.3071" x2="244.559" y2="278.3071">
					<stop  offset="0" style="stop-color:#FCBC67"/>
					<stop  offset="1" style="stop-color:#FAA32B"/>
				</linearGradient>
				<path style="fill:url(#SVGID_00000092457183826401915930000008499160893573416357_);" d="M244.4,275c-0.1-0.1-0.3-0.1-0.4-0.1
					c-0.2,0.1-4.4,1.9-5.1,4.2c-0.2,0.6-0.1,1.2,0.2,1.7c0.2,0.6,0.8,0.9,1.4,0.9c1.8-0.2,3.8-4.5,4-6.4l0-0.2
					C244.5,275.1,244.5,275,244.4,275z M239.8,280.4c-0.1-0.3-0.1-0.7,0-1c0.4-1.5,2.7-2.8,3.9-3.4c-0.5,2-2.2,4.9-3.2,5
					c-0.1,0-0.3,0-0.6-0.4L239.8,280.4L239.8,280.4z"/>
			</g>
			<polygon class="st11" points="204.1,245.2 229.3,253.6 226.9,268.6 198.4,263.1 			"/>
			<g>
				<polygon class="st0" points="222.5,270.9 215.4,271.6 219.6,246.8 227.9,251.1 				"/>
				<g>
					
						<linearGradient id="SVGID_00000084520105391599704690000014634946436132732597_" gradientUnits="userSpaceOnUse" x1="215.358" y1="259.1809" x2="227.875" y2="259.1809">
						<stop  offset="0" style="stop-color:#FCBC67"/>
						<stop  offset="1" style="stop-color:#FAA32B"/>
					</linearGradient>
					<polygon style="fill:url(#SVGID_00000084520105391599704690000014634946436132732597_);" points="222.5,270.9 215.4,271.6 
						219.6,246.8 227.9,251.1 					"/>
				</g>
			</g>
			
				<linearGradient id="SVGID_00000091004915503637795160000014118168967562391456_" gradientUnits="userSpaceOnUse" x1="235.2886" y1="278.5725" x2="262.5471" y2="278.5725">
				<stop  offset="0" style="stop-color:#394085"/>
				<stop  offset="1" style="stop-color:#563168"/>
			</linearGradient>
			<path style="fill:url(#SVGID_00000091004915503637795160000014118168967562391456_);" d="M235.3,271.5l1.8-15.5
				c0.1-0.9,0.9-1.5,1.8-1.4l7.7,1.1c0,0,10.4,0.8,12.5,3.4c6.2,7.7,3.2,42.1-0.8,43.4c-1.5,0.5-3.1-1.5-3.7-2.9
				c-2.1-4.4-6-15.9-7.8-19.5c-2.1-4.2-7.7-6.2-10.3-6.9C235.7,272.9,235.2,272.2,235.3,271.5z"/>
		</g>
		
			<linearGradient id="SVGID_00000036972641100268391510000002724977853710127776_" gradientUnits="userSpaceOnUse" x1="141.357" y1="242.4634" x2="324.8517" y2="242.4634">
			<stop  offset="0" style="stop-color:#1F2150"/>
			<stop  offset="1" style="stop-color:#361E44"/>
		</linearGradient>
		<path style="fill:url(#SVGID_00000036972641100268391510000002724977853710127776_);" d="M141.4,252c0,0,117.6-45.7,153.6-38
			c36,7.6,36.2,26.5,17.9,44c-18.3,17.6-45.5,10.8-45.5,10.8s21.4-12.8,19.9-20.8c-1.5-7.9-15.1,10.2-15.1,10.2
			s-71.1,17.4-129.7,12.8L141.4,252z"/>
		<g>
			<polygon class="st0" points="139.9,250.1 146.5,247.1 150.3,271.8 141.1,270.3 			"/>
			<g>
				
					<linearGradient id="SVGID_00000165195701218634968540000012310133160711781780_" gradientUnits="userSpaceOnUse" x1="139.9281" y1="259.4579" x2="150.3326" y2="259.4579">
					<stop  offset="0" style="stop-color:#FCBC67"/>
					<stop  offset="1" style="stop-color:#FAA32B"/>
				</linearGradient>
				<polygon style="fill:url(#SVGID_00000165195701218634968540000012310133160711781780_);" points="139.9,250.1 146.5,247.1 
					150.3,271.8 141.1,270.3 				"/>
			</g>
		</g>
		<g>
			<path class="st0" d="M294.3,82.4c0,0-15.9,43.2-15.1,53c0.8,9.7,33.6,82.4,33.6,82.4l27.1,10.9
				C339.9,228.7,334.3,121.8,294.3,82.4z"/>
			
				<linearGradient id="SVGID_00000104697534424728011290000015753981849616320657_" gradientUnits="userSpaceOnUse" x1="279.1672" y1="155.5504" x2="339.921" y2="155.5504">
				<stop  offset="0" style="stop-color:#394085"/>
				<stop  offset="1" style="stop-color:#563168"/>
			</linearGradient>
			<path style="fill:url(#SVGID_00000104697534424728011290000015753981849616320657_);" d="M294.3,82.4c0,0-15.9,43.2-15.1,53
				c0.8,9.7,33.6,82.4,33.6,82.4l27.1,10.9C339.9,228.7,334.3,121.8,294.3,82.4z"/>
			<path class="st0" d="M236.8,208c0,0,8.5-20.2,11.2-31.4c2.7-11.2-6.8-68.6-1.7-87.8l-13.1,12.3l5.5,71.7L236.8,208z"/>
			
				<linearGradient id="SVGID_00000176004437253386108680000012046878047086736285_" gradientUnits="userSpaceOnUse" x1="233.3214" y1="148.3806" x2="248.5623" y2="148.3806">
				<stop  offset="0" style="stop-color:#394085"/>
				<stop  offset="1" style="stop-color:#563168"/>
			</linearGradient>
			<path style="fill:url(#SVGID_00000176004437253386108680000012046878047086736285_);" d="M236.8,208c0,0,8.5-20.2,11.2-31.4
				c2.7-11.2-6.8-68.6-1.7-87.8l-13.1,12.3l5.5,71.7L236.8,208z"/>
			
				<linearGradient id="SVGID_00000158746195748399566970000006143557746807405461_" gradientUnits="userSpaceOnUse" x1="284.8935" y1="130.282" x2="334.2915" y2="130.282">
				<stop  offset="0" style="stop-color:#1F2150"/>
				<stop  offset="1" style="stop-color:#361E44"/>
			</linearGradient>
			<path style="fill:url(#SVGID_00000158746195748399566970000006143557746807405461_);" d="M333.3,176.6c0,0-56.4,10.8-47.5-92.2
				l9.2-0.8c0,0-5.6,39.2,4.7,64.8c10.3,25.6,34.6,24.4,34.6,24.4L333.3,176.6z"/>
			
				<linearGradient id="SVGID_00000135652316877489055510000000830812986028024758_" gradientUnits="userSpaceOnUse" x1="279.5271" y1="105.1876" x2="304.3456" y2="105.1876">
				<stop  offset="1.704000e-02" style="stop-color:#8D57A3"/>
				<stop  offset="0.2149" style="stop-color:#7957A4"/>
				<stop  offset="0.4974" style="stop-color:#5357A6"/>
				<stop  offset="1" style="stop-color:#8D57A3"/>
			</linearGradient>
			<path style="fill:url(#SVGID_00000135652316877489055510000000830812986028024758_);" d="M279.5,130.9l18.9-44l5.7,7.6
				c0,0,1-10.7-2.3-13.7s-12.5,0.8-16.2,1.7C282.1,83.3,279.5,130.9,279.5,130.9z"/>
			
				<linearGradient id="SVGID_00000009581906617145828800000004338658149405428388_" gradientUnits="userSpaceOnUse" x1="237.808" y1="132.7518" x2="249.6947" y2="132.7518">
				<stop  offset="0" style="stop-color:#1F2150"/>
				<stop  offset="1" style="stop-color:#361E44"/>
			</linearGradient>
			<path style="fill:url(#SVGID_00000009581906617145828800000004338658149405428388_);" d="M249.7,89.5c0,0-7.3,21.6-6.1,55.5
				s-4.9,31-4.9,31l-0.9-3.2c0,0,3.4-0.4,3.1-11.8c-0.3-11.4-1.8-57.5,2.6-69.6L249.7,89.5z"/>
			
				<linearGradient id="SVGID_00000137118860077015564580000014079429362759567233_" gradientUnits="userSpaceOnUse" x1="241.4686" y1="108.6831" x2="258.5194" y2="108.6831">
				<stop  offset="1.704000e-02" style="stop-color:#8D57A3"/>
				<stop  offset="0.2149" style="stop-color:#7957A4"/>
				<stop  offset="0.4974" style="stop-color:#5357A6"/>
				<stop  offset="1" style="stop-color:#8D57A3"/>
			</linearGradient>
			<path style="fill:url(#SVGID_00000137118860077015564580000014079429362759567233_);" d="M245.9,129.6c0,0-1.7-32.5,7.3-42
				c0,0-6.8-2.6-9.6,0c-2.8,2.6-3.5,27.3,2,43.2"/>
		</g>
		<path class="st10" d="M291.7,142.8c0,0-8.3,19.2-10.1,21.8c-1.9,2.7-55.7,23.2-55.7,23.2s-5-0.8-10,0c-5.1,0.8-3.8,1-3.8,2
			c0,2.2,4.2,14,4.2,14s11,1.6,13-4.9c0,0,54-17,58.8-21c4.8-4,18.1-27.7,18.1-27.7L291.7,142.8z"/>
		
			<linearGradient id="SVGID_00000107580088404193102920000001409367244522470021_" gradientUnits="userSpaceOnUse" x1="226.8812" y1="149.4556" x2="314.7125" y2="149.4556">
			<stop  offset="0" style="stop-color:#394085"/>
			<stop  offset="1" style="stop-color:#563168"/>
		</linearGradient>
		<path style="fill:url(#SVGID_00000107580088404193102920000001409367244522470021_);" d="M301.9,99.8c-8.8,0-21.1,53.7-23.5,61
			c-2.4,7.3-51.5,24.6-51.5,24.6l11.6,13.7c0,0,52.2-15.9,56.9-22.5c4.6-6.5,18.7-43.9,19.3-52.5C315.3,115.5,307.7,99.8,301.9,99.8
			z"/>
	</g>
</g>
</svg>
