<svg version="1.1" id="Layer_1" xmlns="http://www.w3.org/2000/svg" x="0" y="0" viewBox="0 0 398.4 426.5" style="enable-background:new 0 0 398.4 426.5" xml:space="preserve"><style>.st0{fill:#4375ba}.st2{opacity:.1;enable-background:new}.st6{fill:#192e35}.st10{fill:#d2d2ea}.st11{opacity:.2;enable-background:new}.st12{fill:#bcb1d7}</style><path class="st0" d="M398.4 426.5S356.6 272.6 349 266.9c-7.6-5.7-51-21.7-51-21.7S192.4 262.8 176.6 261c-15.9-1.7-66.8-11.6-74.2 0-7.3 11.6-36.2 81-36.2 81l-40.5 17.1L0 426.5h398.4z"/><linearGradient id="SVGID_1_" gradientUnits="userSpaceOnUse" x1="0" y1="335.822" x2="398.387" y2="335.822"><stop offset="0" style="stop-color:#394085"/><stop offset="1" style="stop-color:#563168"/></linearGradient><path d="M0 426.5h398.4S356.8 273.3 349 266.9h-.1c-1.6-1.2-4.6-2.8-8.5-4.6-15.1-7-42.5-17.1-42.5-17.1S192.4 262.8 176.6 261c-15.9-1.7-66.8-11.6-74.2 0-1.6 2.5-4.1 7.6-7.1 14-11.2 24-29.1 67-29.1 67l-40.5 17.1L0 426.5z" style="fill:url(#SVGID_1_)"/><path class="st2" d="m95.3 275.1 15.7 15.6 41-9.6 46.4 9.6-3 17.9 16.9 20.1-6-20.1 13.2-22.1s53.4 3.2 67.3 0c8.7-2 35.2-14.9 53.6-24.2-15.1-7-42.5-17.1-42.5-17.1S192.4 262.8 176.6 261c-15.9-1.7-66.8-11.6-74.2 0-1.5 2.5-4.1 7.6-7.1 14.1z"/><path class="st2" d="M0 426.5h398.4S356.8 273.3 349 266.9h-.1l25.7 119.4-12.8 19.8-31.5-23.9-24.2 13.5-33.6-6.8-3.3-16.2-47.6-31.3 29.9 27.7-10.5 31.4-45.7 7.9h-50.5l-20.9-13.9 7-28.3 10.5-16.4-53.3-.1 22.7 14-8.4 24.9-25.7 11.9-29.8-18.4-12.1 35.1L0 426.5z"/><g id="_x3C_Group_x3E__37_"><linearGradient id="SVGID_00000042725862118002932010000000962687201782203529_" gradientUnits="userSpaceOnUse" x1="238.034" y1="134.089" x2="360.014" y2="134.089"><stop offset="0" style="stop-color:#1f2150"/><stop offset="1" style="stop-color:#361e44"/></linearGradient><path style="fill:url(#SVGID_00000042725862118002932010000000962687201782203529_)" d="M257.5 81s60.6-9.5 72.2-4.5 15.4 22.8 15.4 22.8 2.1 3.6-4.2 4.1c0 0 25.6 63.9 17.5 76.1-8.1 12.2-89.8 17.1-100.9 11.1-11-6-37.7-105.2 0-109.6z"/><path d="M221.8 141.8s-8 18.6-9.8 21.2c-1.8 2.6-41.7 21-41.7 21s-4.8-.8-9.8 0c-4.9.8-11.7 2.8-12.3 3.6-.6.8 7.4 12.4 7.4 12.4s16 1 17.9-5.3c0 0 40-14.9 44.7-18.7 4.7-3.9 17.6-26.9 17.6-26.9l-14-7.3z" style="fill:#f5897d"/><linearGradient id="SVGID_00000000927524217077347960000014499994964260892297_" gradientUnits="userSpaceOnUse" x1="178.402" y1="146.537" x2="246.268" y2="146.537"><stop offset="0" style="stop-color:#394085"/><stop offset="1" style="stop-color:#563168"/></linearGradient><path style="fill:url(#SVGID_00000000927524217077347960000014499994964260892297_)" d="M233.3 101.1c-7.5 4.5-19.2 52.6-21.8 58.3-2.5 5.7-33.2 19.6-33.2 19.6l13.6 13s31-13.7 34.9-17.6c3.9-3.9 19.4-43.9 19.4-43.9l-12.9-29.4z"/><path class="st6" d="M235.8 211.1s-126.4-18.2-133.1 9.6c-7.1 29.3 94.4 49.1 155.1 51.2s78.1-11.3 68.4-86.2l-81.8-.2-8.6 25.6z"/><linearGradient id="SVGID_00000109002200992650941940000009838455358964822156_" gradientUnits="userSpaceOnUse" x1="102.401" y1="228.705" x2="328.741" y2="228.705"><stop offset="0" style="stop-color:#0f1634"/><stop offset="1" style="stop-color:#271535"/></linearGradient><path style="fill:url(#SVGID_00000109002200992650941940000009838455358964822156_)" d="M235.8 211.1s-126.4-18.2-133.1 9.6c-7.1 29.3 94.4 49.1 155.1 51.2s78.1-11.3 68.4-86.2l-81.8-.2-8.6 25.6z"/><linearGradient id="SVGID_00000157308950374683686580000007308573914939456136_" gradientUnits="userSpaceOnUse" x1="116.014" y1="250.293" x2="122.24" y2="250.293"><stop offset="0" style="stop-color:#fcbc67"/><stop offset="1" style="stop-color:#faa32b"/></linearGradient><path style="fill:url(#SVGID_00000157308950374683686580000007308573914939456136_)" d="M121.7 254c.1.1.3.1.4 0 .1-.1.2-.2.1-.4-.2-.7-2.2-6.5-4.2-7.1-.4-.1-.9 0-1.2.4-.6.5-.9 1.2-.7 2 .3 1.1 1 2.1 1.9 2.7 1.1.9 2.3 1.7 3.7 2.4zm-.6-1.1c-1.9-.8-3.4-2.3-4.3-4.2-.1-.5.1-1 .5-1.3.1-.1.3-.2.5-.1s.3.2.5.3c1.3 1.6 2.2 3.4 2.8 5.3z"/><linearGradient id="SVGID_00000176728877348139810910000002872868459168274842_" gradientUnits="userSpaceOnUse" x1="120.985" y1="250.117" x2="124.729" y2="250.117"><stop offset="0" style="stop-color:#fcbc67"/><stop offset="1" style="stop-color:#faa32b"/></linearGradient><path style="fill:url(#SVGID_00000176728877348139810910000002872868459168274842_)" d="M121.8 254.1c.1 0 .3 0 .4-.1.2-.2 3-3.7 2.5-6.1-.1-.6-.5-1.1-1-1.5-.4-.4-1.1-.5-1.6-.2-1.5 1-1.3 5.8-.6 7.6l.1.2c0 .1.1.1.2.1zm1.6-6.9c.3.2.4.5.5.8.3 1.5-1.1 3.8-1.9 4.9-.5-2-.3-5.3.5-5.9.1 0 .3-.2.7.1l.2.1z"/><path class="st10" d="M165.4 268.9h-39.2l-1.5-13.4 11.8-1.5 28.7-3.9z"/><path class="st6" d="m127.6 253.8 3.2 15.3c.2.9-.4 1.7-1.2 1.8l-7.6 1.4s-10.1 2.6-13 .8c-8.3-5.3-16.3-38.9-12.9-41.4 1.2-.9 3.4.5 4.5 1.6 3.4 3.5 10.7 13.2 13.5 16.1 3.4 3.4 9.3 3.5 11.9 3.3.8-.1 1.4.4 1.6 1.1z"/><path class="st11" d="M165.4 268.9H139l-2.5-14.9 28.7-3.9z"/><path class="st6" d="M265.5 210.1v3.3c0 2.3-1.9 4.3-4.1 4.3H138.1c-2.3 0-4.5-2.1-4.5-4.3v-3.3h131.9z"/><path class="st12" d="M265.5 210.1v3.3c0 2.3-1.9 4.3-4.1 4.3H138.1c-2.3 0-4.5-2.1-4.5-4.3v-3.3h131.9z"/><path class="st10" d="M219.5 210.1v3.3c0 2.3-1.9 4.3-4.2 4.3H138c-2.3 0-4.5-2.1-4.5-4.3v-3.3h86z"/><path class="st6" d="M215.3 214.7h-81.4c-2.5 0-5.2-2-5.9-4.4l-18.7-58.6c-.8-2.4.6-4.5 3.1-4.5h81.4c2.5 0 5.2 2.1 5.9 4.5l18.7 58.5c.8 2.5-.6 4.5-3.1 4.5z"/><path class="st12" d="M215.3 214.7h-81.4c-2.5 0-5.2-2-5.9-4.4l-18.7-58.6c-.8-2.4.6-4.5 3.1-4.5h81.4c2.5 0 5.2 2.1 5.9 4.5l18.7 58.5c.8 2.5-.6 4.5-3.1 4.5z"/><path class="st10" d="M212.3 214.7h-78.4c-2.5 0-5.2-2-5.9-4.4l-18.7-58.6c-.8-2.4.6-4.5 3.1-4.5h78.4c2.5 0 5.2 2.1 5.9 4.5l18.7 58.5c.8 2.5-.6 4.5-3.1 4.5z"/><path d="M164.6 183.7c1 3.9-.9 7.1-4.3 7.1s-7-3.2-8-7.1c-1-3.9.9-7.1 4.3-7.1s7 3.2 8 7.1z" style="opacity:.2;fill:#fff;enable-background:new"/><linearGradient id="SVGID_00000043433829935475193110000007004956116801146302_" gradientUnits="userSpaceOnUse" x1="95.293" y1="252.565" x2="130.842" y2="252.565"><stop offset="0" style="stop-color:#394085"/><stop offset="1" style="stop-color:#563168"/></linearGradient><path style="fill:url(#SVGID_00000043433829935475193110000007004956116801146302_)" d="m127.6 253.8 3.2 15.3c.2.9-.4 1.7-1.2 1.8l-7.6 1.4s-10.1 2.6-13 .8c-8.3-5.3-16.3-38.9-12.9-41.4 1.2-.9 3.4.5 4.5 1.6 3.4 3.5 10.7 13.2 13.5 16.1 3.4 3.4 9.3 3.5 11.9 3.3.8-.1 1.4.4 1.6 1.1z"/><path d="m301.9 196.2 25.6.3-.5-8.3-25.1-.5zM251.5 186.6l-7.7-.2-2.7 9 10.4.2z"/><linearGradient id="SVGID_00000154427701817132596290000009294586174114847108_" gradientUnits="userSpaceOnUse" x1="254.714" y1="191.421" x2="297.958" y2="191.421"><stop offset="0" style="stop-color:#0e1119"/><stop offset="1" style="stop-color:#1b1124"/></linearGradient><path style="fill:url(#SVGID_00000154427701817132596290000009294586174114847108_)" d="M254.7 186.7v8.9l43.3.6v-8.6z"/><path class="st10" d="m279.6 194 .1-3.5c.1-1.9-1.3-3.6-3.2-3.6l-7.8-.3c-.9 0-1.7.3-2.4.9-.6.6-1 1.5-1.1 2.4l-.1 3.5c-.1 1.9 1.3 3.6 3.2 3.6l7.8.3h.1c1.9.1 3.4-1.4 3.4-3.3zm-11.1 1.6c-1.1 0-1.9-1-1.8-2.1l.1-3.5c0-.5.2-1.1.6-1.4.4-.4.9-.6 1.4-.5l7.8.3c1.1 0 1.9 1 1.8 2.1l-.1 3.5c0 1.1-.9 2-2 2l-7.8-.4z"/><path class="st10" d="M278.3 192.9h-3.9c-.5 0-.9-.4-.9-.9s.4-.9.9-.9h3.9c.5 0 .9.4.9.9s-.4.9-.9.9z"/><path class="st0" d="M233.3 101.1s9.9 62.3 5.7 84.6l91.2 2.7s-10.8-64.4-25.1-88.7c0 0-23.8-39.8-71.8 1.4z"/><linearGradient id="SVGID_00000147214413305883768200000007458116967784635535_" gradientUnits="userSpaceOnUse" x1="233.321" y1="135.378" x2="330.249" y2="135.378"><stop offset=".017" style="stop-color:#9c6cae"/><stop offset=".244" style="stop-color:#876db1"/><stop offset=".497" style="stop-color:#6a6fb4"/><stop offset="1" style="stop-color:#8d57a3"/></linearGradient><path style="fill:url(#SVGID_00000147214413305883768200000007458116967784635535_)" d="M233.3 101.1s9.9 62.3 5.7 84.6l91.2 2.7s-10.8-64.4-25.1-88.7c0 0-23.8-39.8-71.8 1.4z"/><path class="st10" d="M286.8 87.2s-15.1 14.8-23.9 12.4c-8.8-2.4-12-6.9-12-6.9s7-3.1 6.3-4.8c-.1-.2-.3-.5-.6-1-2.6-4-11.9-16.6-11.9-16.6l19.9-11.1s1.6 3.8 3.6 8.4c2.7 6.1 6 13.5 7.2 14.8 2 2.4 11.4 4.8 11.4 4.8z"/><path class="st11" d="M268.2 67.5c-1.3 7-4.3 15.3-11.7 19.3-2.6-4-11.9-16.6-11.9-16.6l19.9-11.1c.1 0 1.7 3.9 3.7 8.4z"/><linearGradient id="SVGID_00000106855098795302531190000012661883787290008501_" gradientUnits="userSpaceOnUse" x1="266.021" y1="65.892" x2="279.04" y2="65.892"><stop offset="0" style="stop-color:#1f2150"/><stop offset="1" style="stop-color:#361e44"/></linearGradient><path style="fill:url(#SVGID_00000106855098795302531190000012661883787290008501_)" d="M272.2 53.8s2 6.3 1.6 10.8c-.4 4.5 4.6 6 5.2 3.2 0 0-.1 6.6-4.4 5.6 0 0 0 4.6-3.8 4.6 0 0-5.4-6.9-4.8-15.4.6-8.6 6.2-8.8 6.2-8.8z"/><path class="st6" d="M237.9 31.9c6.5 2.7 5.4 17.8-5.4 30.7-6.6-5.7-9.6-18.9-8.1-24 2.6-8.4 7.9-9 13.5-6.7z"/><path class="st10" d="M228.5 68.6c.6 1.9 1.3 3.6 2.1 5.1 6.4 13 24.8 15.6 32.9 2.7l.1-.1c5.4-8.7 3.4-16.8 1.1-30.8-.4-3-1.6-5.8-3.3-8.3-6.1-8.8-18.2-10.9-27-4.8-10.7 7.4-10 24.2-5.9 36.2z"/><linearGradient id="SVGID_00000080925432974297084490000002341082529847912350_" gradientUnits="userSpaceOnUse" x1="242.169" y1="54.178" x2="244.98" y2="54.178"><stop offset="0" style="stop-color:#1f2150"/><stop offset="1" style="stop-color:#361e44"/></linearGradient><path style="fill:url(#SVGID_00000080925432974297084490000002341082529847912350_)" d="M244.9 53.9c.3 1.1-.1 2.2-.9 2.3-.7.2-1.5-.6-1.8-1.7-.3-1.1.1-2.2.9-2.3.7-.2 1.5.6 1.8 1.7z"/><linearGradient id="SVGID_00000086674589690100905930000007794938683635956924_" gradientUnits="userSpaceOnUse" x1="229.343" y1="57.069" x2="232.177" y2="57.069"><stop offset="0" style="stop-color:#1f2150"/><stop offset="1" style="stop-color:#361e44"/></linearGradient><path style="fill:url(#SVGID_00000086674589690100905930000007794938683635956924_)" d="M232.1 56.8c.3 1.1-.1 2.2-.9 2.3-.7.2-1.5-.6-1.8-1.7-.3-1.1.1-2.2.9-2.3.7-.2 1.5.5 1.8 1.7z"/><path class="st11" d="M236.4 56.4c-.6 3.7-1.7 7.4-3.2 10.8 2.5 1.4 5.6-.2 5.6-.2l-2.4-10.6z"/><linearGradient id="SVGID_00000155861814595852412060000016568654422357525913_" gradientUnits="userSpaceOnUse" x1="241.338" y1="47.643" x2="248.063" y2="47.643"><stop offset="0" style="stop-color:#1f2150"/><stop offset="1" style="stop-color:#361e44"/></linearGradient><path style="fill:url(#SVGID_00000155861814595852412060000016568654422357525913_)" d="M247.5 49.1c.2 0 .3-.1.4-.2.2-.3.2-.7-.1-1-1.6-1.5-3.9-2-6-1.5-.3.1-.6.4-.5.8.1.3.5.5.8.5 1.7-.4 3.4.1 4.7 1.3.3.1.5.1.7.1z"/><linearGradient id="SVGID_00000114791768582965610110000012952935881865746869_" gradientUnits="userSpaceOnUse" x1="224.487" y1="50.937" x2="229.321" y2="50.937"><stop offset="0" style="stop-color:#1f2150"/><stop offset="1" style="stop-color:#361e44"/></linearGradient><path style="fill:url(#SVGID_00000114791768582965610110000012952935881865746869_)" d="M225.3 53.8c.3-.1.5-.3.5-.5.3-1.7 1.5-3.1 3.1-3.8.4-.1.5-.5.4-.9-.1-.3-.5-.5-.9-.4-2 .9-3.5 2.7-3.9 4.8-.1.4.1.7.5.8h.3z"/><linearGradient id="SVGID_00000134944220309784576920000011192354417094429085_" gradientUnits="userSpaceOnUse" x1="241.169" y1="70.271" x2="249.974" y2="70.271"><stop offset="0" style="stop-color:#1f2150"/><stop offset="1" style="stop-color:#361e44"/></linearGradient><path style="fill:url(#SVGID_00000134944220309784576920000011192354417094429085_)" d="M241.4 73.7c-.1 0-.3-.1-.3-.2 0-.2.1-.3.2-.3 6.5-1.1 8-6 8-6 0-.1.2-.2.3-.2.1 0 .2.2.2.3.1 0-1.4 5.2-8.4 6.4.1 0 .1 0 0 0z"/><linearGradient id="SVGID_00000145018449369879497210000005978444815964966326_" gradientUnits="userSpaceOnUse" x1="221.714" y1="38.514" x2="270.851" y2="38.514"><stop offset="0" style="stop-color:#1f2150"/><stop offset="1" style="stop-color:#361e44"/></linearGradient><path style="fill:url(#SVGID_00000145018449369879497210000005978444815964966326_)" d="M225.7 43.1s-4.2-3.2-4-7c.2-5.5 3.5-9.1 7.4-11.4 2.9-1.8 7-3.2 13.1-3.6 16-.9 24.7 3.9 27.4 12.4 1.7 3 1.7 8.6.1 13.9v.1c-.9 3.1-2.3 6-4.2 8.3-9.7-8.4-13.3-14.4-11.8-18.4-.3-.1-5.2-4.4-7.3-4.5-3.1-.2-8.8 2.8-13.4 5.5-2.5 1.5-5.2-.9-5.2-.9l-2.1 5.6z"/><path class="st10" d="M273.8 55c-.2 3.6-1.8 6.9-4.5 9.3-3.6 3.1-7.4.4-8.1-4-.6-4 .4-10.4 4.8-11.8 4.4-1.4 8 2.2 7.8 6.5z"/><linearGradient id="SVGID_00000052077897311272303400000017777124567419515270_" gradientUnits="userSpaceOnUse" x1="243.395" y1="279.342" x2="247.13" y2="279.342"><stop offset="0" style="stop-color:#fcbc67"/><stop offset="1" style="stop-color:#faa32b"/></linearGradient><path style="fill:url(#SVGID_00000052077897311272303400000017777124567419515270_)" d="M244.5 275.1c-.1-.1-.2-.2-.4-.2-.1 0-.3.1-.3.3-.1.7-1.1 6.8.4 8.3.3.3.8.4 1.2.2.7-.2 1.3-.7 1.5-1.4.2-1.1.1-2.3-.4-3.3-.5-1.4-1.2-2.7-2-3.9zm-.1 1.2c1.3 1.6 2 3.6 1.9 5.7-.1.5-.6.9-1.1.9-.2.1-.4 0-.5-.1-.1-.1-.2-.3-.3-.5-.3-1.9-.3-4 0-6z"/><path class="st10" d="m204.1 245.2 25.2 8.4 12 4-2.7 13.2-11.7-2.2-28.5-5.5z"/><path class="st6" d="m235.3 271.5 1.8-15.5c.1-.9.9-1.5 1.8-1.4l7.7 1.1s10.4.8 12.5 3.4c6.2 7.7 3.2 42.1-.8 43.4-1.5.5-3.1-1.5-3.7-2.9-2.1-4.4-6-15.9-7.8-19.5-2.1-4.2-7.7-6.2-10.3-6.9-.8-.3-1.3-1-1.2-1.7z"/><linearGradient id="SVGID_00000092457183826401915930000008499160893573416357_" gradientUnits="userSpaceOnUse" x1="238.866" y1="278.307" x2="244.559" y2="278.307"><stop offset="0" style="stop-color:#fcbc67"/><stop offset="1" style="stop-color:#faa32b"/></linearGradient><path style="fill:url(#SVGID_00000092457183826401915930000008499160893573416357_)" d="M244.4 275c-.1-.1-.3-.1-.4-.1-.2.1-4.4 1.9-5.1 4.2-.2.6-.1 1.2.2 1.7.2.6.8.9 1.4.9 1.8-.2 3.8-4.5 4-6.4v-.2s0-.1-.1-.1zm-4.6 5.4c-.1-.3-.1-.7 0-1 .4-1.5 2.7-2.8 3.9-3.4-.5 2-2.2 4.9-3.2 5-.1 0-.3 0-.6-.4l-.1-.2z"/><path class="st11" d="m204.1 245.2 25.2 8.4-2.4 15-28.5-5.5z"/><path class="st0" d="m222.5 270.9-7.1.7 4.2-24.8 8.3 4.3z"/><linearGradient id="SVGID_00000084520105391599704690000014634946436132732597_" gradientUnits="userSpaceOnUse" x1="215.358" y1="259.181" x2="227.875" y2="259.181"><stop offset="0" style="stop-color:#fcbc67"/><stop offset="1" style="stop-color:#faa32b"/></linearGradient><path style="fill:url(#SVGID_00000084520105391599704690000014634946436132732597_)" d="m222.5 270.9-7.1.7 4.2-24.8 8.3 4.3z"/><linearGradient id="SVGID_00000091004915503637795160000014118168967562391456_" gradientUnits="userSpaceOnUse" x1="235.289" y1="278.572" x2="262.547" y2="278.572"><stop offset="0" style="stop-color:#394085"/><stop offset="1" style="stop-color:#563168"/></linearGradient><path style="fill:url(#SVGID_00000091004915503637795160000014118168967562391456_)" d="m235.3 271.5 1.8-15.5c.1-.9.9-1.5 1.8-1.4l7.7 1.1s10.4.8 12.5 3.4c6.2 7.7 3.2 42.1-.8 43.4-1.5.5-3.1-1.5-3.7-2.9-2.1-4.4-6-15.9-7.8-19.5-2.1-4.2-7.7-6.2-10.3-6.9-.8-.3-1.3-1-1.2-1.7z"/><linearGradient id="SVGID_00000036972641100268391510000002724977853710127776_" gradientUnits="userSpaceOnUse" x1="141.357" y1="242.463" x2="324.852" y2="242.463"><stop offset="0" style="stop-color:#1f2150"/><stop offset="1" style="stop-color:#361e44"/></linearGradient><path style="fill:url(#SVGID_00000036972641100268391510000002724977853710127776_)" d="M141.4 252S259 206.3 295 214c36 7.6 36.2 26.5 17.9 44-18.3 17.6-45.5 10.8-45.5 10.8s21.4-12.8 19.9-20.8c-1.5-7.9-15.1 10.2-15.1 10.2s-71.1 17.4-129.7 12.8l-1.1-19z"/><path class="st0" d="m139.9 250.1 6.6-3 3.8 24.7-9.2-1.5z"/><linearGradient id="SVGID_00000165195701218634968540000012310133160711781780_" gradientUnits="userSpaceOnUse" x1="139.928" y1="259.458" x2="150.333" y2="259.458"><stop offset="0" style="stop-color:#fcbc67"/><stop offset="1" style="stop-color:#faa32b"/></linearGradient><path style="fill:url(#SVGID_00000165195701218634968540000012310133160711781780_)" d="m139.9 250.1 6.6-3 3.8 24.7-9.2-1.5z"/><path class="st0" d="M294.3 82.4s-15.9 43.2-15.1 53c.8 9.7 33.6 82.4 33.6 82.4l27.1 10.9s-5.6-106.9-45.6-146.3z"/><linearGradient id="SVGID_00000104697534424728011290000015753981849616320657_" gradientUnits="userSpaceOnUse" x1="279.167" y1="155.55" x2="339.921" y2="155.55"><stop offset="0" style="stop-color:#394085"/><stop offset="1" style="stop-color:#563168"/></linearGradient><path style="fill:url(#SVGID_00000104697534424728011290000015753981849616320657_)" d="M294.3 82.4s-15.9 43.2-15.1 53c.8 9.7 33.6 82.4 33.6 82.4l27.1 10.9s-5.6-106.9-45.6-146.3z"/><path class="st0" d="M236.8 208s8.5-20.2 11.2-31.4c2.7-11.2-6.8-68.6-1.7-87.8l-13.1 12.3 5.5 71.7-1.9 35.2z"/><linearGradient id="SVGID_00000176004437253386108680000012046878047086736285_" gradientUnits="userSpaceOnUse" x1="233.321" y1="148.381" x2="248.562" y2="148.381"><stop offset="0" style="stop-color:#394085"/><stop offset="1" style="stop-color:#563168"/></linearGradient><path style="fill:url(#SVGID_00000176004437253386108680000012046878047086736285_)" d="M236.8 208s8.5-20.2 11.2-31.4c2.7-11.2-6.8-68.6-1.7-87.8l-13.1 12.3 5.5 71.7-1.9 35.2z"/><linearGradient id="SVGID_00000158746195748399566970000006143557746807405461_" gradientUnits="userSpaceOnUse" x1="284.894" y1="130.282" x2="334.291" y2="130.282"><stop offset="0" style="stop-color:#1f2150"/><stop offset="1" style="stop-color:#361e44"/></linearGradient><path style="fill:url(#SVGID_00000158746195748399566970000006143557746807405461_)" d="M333.3 176.6s-56.4 10.8-47.5-92.2l9.2-.8s-5.6 39.2 4.7 64.8c10.3 25.6 34.6 24.4 34.6 24.4l-1 3.8z"/><linearGradient id="SVGID_00000135652316877489055510000000830812986028024758_" gradientUnits="userSpaceOnUse" x1="279.527" y1="105.188" x2="304.346" y2="105.188"><stop offset=".017" style="stop-color:#8d57a3"/><stop offset=".215" style="stop-color:#7957a4"/><stop offset=".497" style="stop-color:#5357a6"/><stop offset="1" style="stop-color:#8d57a3"/></linearGradient><path style="fill:url(#SVGID_00000135652316877489055510000000830812986028024758_)" d="m279.5 130.9 18.9-44 5.7 7.6s1-10.7-2.3-13.7-12.5.8-16.2 1.7c-3.5.8-6.1 48.4-6.1 48.4z"/><linearGradient id="SVGID_00000009581906617145828800000004338658149405428388_" gradientUnits="userSpaceOnUse" x1="237.808" y1="132.752" x2="249.695" y2="132.752"><stop offset="0" style="stop-color:#1f2150"/><stop offset="1" style="stop-color:#361e44"/></linearGradient><path style="fill:url(#SVGID_00000009581906617145828800000004338658149405428388_)" d="M249.7 89.5s-7.3 21.6-6.1 55.5-4.9 31-4.9 31l-.9-3.2s3.4-.4 3.1-11.8c-.3-11.4-1.8-57.5 2.6-69.6l6.2-1.9z"/><linearGradient id="SVGID_00000137118860077015564580000014079429362759567233_" gradientUnits="userSpaceOnUse" x1="241.469" y1="108.683" x2="258.519" y2="108.683"><stop offset=".017" style="stop-color:#8d57a3"/><stop offset=".215" style="stop-color:#7957a4"/><stop offset=".497" style="stop-color:#5357a6"/><stop offset="1" style="stop-color:#8d57a3"/></linearGradient><path style="fill:url(#SVGID_00000137118860077015564580000014079429362759567233_)" d="M245.9 129.6s-1.7-32.5 7.3-42c0 0-6.8-2.6-9.6 0s-3.5 27.3 2 43.2"/><path class="st10" d="M291.7 142.8s-8.3 19.2-10.1 21.8c-1.9 2.7-55.7 23.2-55.7 23.2s-5-.8-10 0c-5.1.8-3.8 1-3.8 2 0 2.2 4.2 14 4.2 14s11 1.6 13-4.9c0 0 54-17 58.8-21 4.8-4 18.1-27.7 18.1-27.7l-14.5-7.4z"/><linearGradient id="SVGID_00000107580088404193102920000001409367244522470021_" gradientUnits="userSpaceOnUse" x1="226.881" y1="149.456" x2="314.712" y2="149.456"><stop offset="0" style="stop-color:#394085"/><stop offset="1" style="stop-color:#563168"/></linearGradient><path style="fill:url(#SVGID_00000107580088404193102920000001409367244522470021_)" d="M301.9 99.8c-8.8 0-21.1 53.7-23.5 61-2.4 7.3-51.5 24.6-51.5 24.6l11.6 13.7s52.2-15.9 56.9-22.5c4.6-6.5 18.7-43.9 19.3-52.5.6-8.6-7-24.3-12.8-24.3z"/></g></svg>