<svg id="Layer_1" data-name="Layer 1" xmlns="http://www.w3.org/2000/svg" xmlns:xlink="http://www.w3.org/1999/xlink" width="80.37mm" height="17.22mm" viewBox="0 0 227.81 48.82">
  <defs>
    <style>
      .cls-1 {
        fill: url(#linear-gradient);
      }

      .cls-2 {
        fill: #fff;
      }
    </style>
    <linearGradient id="linear-gradient" x1="-504.6" y1="406.55" x2="-485.31" y2="305.41" gradientTransform="matrix(-0.99, 0.13, -0.13, -0.99, -332.2, 444.57)" gradientUnits="userSpaceOnUse">
      <stop offset="0" stop-color="#fcbc67"/>
      <stop offset="1" stop-color="#faa32b"/>
    </linearGradient>
  </defs>
  <title>Sign 1 AR</title>
  <path class="cls-1" d="M227.4,47.27c-15.4.2-135.9.2-151.3.5-14.5.3-29.2,1.3-43.7,1C21.9,40.07,11.6,31,0,23.77c5.9-4.7,12.5-8.6,18.8-12.7C24.1,7.57,29.4,4,34.9.87c.1,0,.1.1.2.1h.3c.2,0,.5-.1.7-.1C51-.43,66,.37,80.9.07c13.5-.3,132,.5,145.5.8.2,4.8.7,10.3.4,15.1-.2,3.3-7.1,1.5-9.7,1.8-.4.1-3.3-.1-3,.1,2.6,1.4,8.8,2.3,11.8,2.6,2.2.3,1.7,7.7,1.7,9.6,0,.5.4,4.9.1,5s-.4.3-1,0c-2.1.7-4.8.4-6.9.5-.6,0-1.2.1-1.8.1,3,.6,6,1.2,8.9,2a1.18,1.18,0,0,1,.7,1.6,19.67,19.67,0,0,0-.3,2.4,8.75,8.75,0,0,1,.2,1.6h0C227.5,45,227.4,46.57,227.4,47.27Z"/>
  <g>
    <path class="cls-2" d="M83.2,36.07a3.54,3.54,0,0,1-.6-.1l-.2-2.8a2,2,0,0,0,.7.1h.6a1.36,1.36,0,0,0,1.2-.5,2.81,2.81,0,0,0,.3-1.5V20.37H88v8.5h2.2v2.8H88a5.29,5.29,0,0,1-1.1,3.4,3.66,3.66,0,0,1-2.9,1A2.13,2.13,0,0,1,83.2,36.07Z"/>
    <path class="cls-2" d="M93.7,29v2.8H89.8V29Z"/>
    <path class="cls-2" d="M97.2,29v2.8H93.3V29Z"/>
    <path class="cls-2" d="M100.8,29v2.8H96.9V29Z"/>
    <path class="cls-2" d="M104.6,29v-8.5h2.8v11.3h-7V29Zm-3.1,6.7a1.29,1.29,0,0,1-.5-1.1,1.23,1.23,0,0,1,.5-1,1.71,1.71,0,0,1,2.2,0,1.28,1.28,0,0,1,.4,1,1.43,1.43,0,0,1-.5,1.1,2.1,2.1,0,0,1-1.1.4A4.18,4.18,0,0,1,101.5,35.67Zm4.3,0a1.29,1.29,0,0,1-.5-1.1,1.23,1.23,0,0,1,.5-1,1.5,1.5,0,0,1,1.1-.4,1.37,1.37,0,0,1,1.1.4,1.28,1.28,0,0,1,.4,1,1.43,1.43,0,0,1-.5,1.1,2.1,2.1,0,0,1-1.1.4A4.18,4.18,0,0,1,105.8,35.67Z"/>
    <path class="cls-2" d="M116.6,29v-3.1a3.75,3.75,0,0,0-.1-1.1,2,2,0,0,0-.4-.8,4.35,4.35,0,0,0-.7-.6,3,3,0,0,0-1-.2h-1.2v-2.8h.9a6.05,6.05,0,0,1,2.4.4,4.39,4.39,0,0,1,1.8,1.2,4.61,4.61,0,0,1,.9,1.7,8.52,8.52,0,0,1,.3,2.3v5.7h-9.8v-2.8Z"/>
    <path class="cls-2" d="M125.8,15.57V29h2.6v2.8H123V15.57Z"/>
    <path class="cls-2" d="M131.9,29v2.8H128V29Z"/>
    <path class="cls-2" d="M135.4,29v2.8h-3.9V29Z"/>
    <path class="cls-2" d="M139,29v2.8h-3.9V29Z"/>
    <path class="cls-2" d="M151,29.07V27a3.75,3.75,0,0,0-.1-1.1,2,2,0,0,0-.4-.8,4.35,4.35,0,0,0-.7-.6,3,3,0,0,0-1-.2h-8.4a2.28,2.28,0,0,1-.6-1.2,4.15,4.15,0,0,1-.3-1.6l3.2-5.9h3l-3.1,5.9h5.9a6.05,6.05,0,0,1,2.4.4,3.6,3.6,0,0,1,1.8,1.2,4.61,4.61,0,0,1,.9,1.7,8.52,8.52,0,0,1,.3,2.3v4.8H138.6v-2.8Z"/>
    <path class="cls-2" d="M157.8,14.27a2.71,2.71,0,0,1,1.9-.6h1v.9h-.8c-.4,0-.7.1-.8.3a1.45,1.45,0,0,0-.2.7h2.6v1.5h-4.2v-.9A1.73,1.73,0,0,1,157.8,14.27Zm2.8,3.8v13.8h-2.8V18.07Z"/>
  </g>
</svg>
