<svg version="1.1" id="Layer_1" xmlns="http://www.w3.org/2000/svg" x="0" y="0" viewBox="0 0 227.6 57" style="enable-background:new 0 0 227.6 57" xml:space="preserve"><style>.st29{fill:#fff}</style><linearGradient id="SVGID_1_" gradientUnits="userSpaceOnUse" x1="-23.553" y1="16.481" x2="206.358" y2="16.481" gradientTransform="translate(22.43 11.843)"><stop offset="0" style="stop-color:#393f84"/><stop offset="1" style="stop-color:#563068"/></linearGradient><linearGradient id="SVGID_00000075876490245862166430000012434968946860629397_" gradientUnits="userSpaceOnUse" x1="-21.476" y1="9.354" x2="-13.127" y2="9.354" gradientTransform="translate(22.43 11.843)"><stop offset="0" style="stop-color:#393f84"/><stop offset="1" style="stop-color:#563068"/></linearGradient><linearGradient id="SVGID_00000147216842465837801000000005209163727554658990_" gradientUnits="userSpaceOnUse" x1="-22.475" y1="26.588" x2="-17.923" y2="26.588" gradientTransform="translate(22.43 11.843)"><stop offset="0" style="stop-color:#393f84"/><stop offset="1" style="stop-color:#563068"/></linearGradient><linearGradient id="SVGID_00000016779960509947073400000001596526846292482961_" gradientUnits="userSpaceOnUse" x1="-213.892" y1="37.585" x2="174.459" y2="-12.892" gradientTransform="rotate(7.406 -56.493 1205.677)"><stop offset=".017" style="stop-color:#8d56a3"/><stop offset=".254" style="stop-color:#7356a4"/><stop offset=".497" style="stop-color:#5356a5"/><stop offset="1" style="stop-color:#8d56a3"/></linearGradient><path style="fill:url(#SVGID_00000016779960509947073400000001596526846292482961_)" d="M.2 49.3c15.4.2 135.9.6 151.3 1 14.5.4 29.2 1.4 43.7 1.1 10.5-8.7 20.9-17.7 32.5-24.8-5.8-4.7-12.5-8.6-18.7-12.8-5.3-3.5-10.6-7.1-16.1-10.2-.1 0-.1.1-.2.1h-.3c-.2 0-.5-.1-.7-.1-14.9-1.3-29.9-.6-44.8-.9-13.5-.4-132.1.1-145.5.3C1.1 7.8.7 13.3 1 18c.2 3.3 7.1 1.5 9.7 1.9.4.1 3.3-.1 3 .1-2.6 1.4-8.8 2.2-11.8 2.6-2.2.3-1.7 7.7-1.8 9.6 0 .5-.4 4.9-.1 5 .4 0 .4.3 1 0 2.1.7 4.8.4 6.9.5.6 0 1.2.1 1.8.1-3 .6-6 1.2-8.9 2-.7.2-.9.9-.7 1.6.2.8.2 1.6.3 2.4-.1.5-.2 1.1-.2 1.6-.1 1.6 0 3.2 0 3.9z"/><linearGradient id="SVGID_00000127016869381227275840000018115449453320083074_" gradientUnits="userSpaceOnUse" x1="-22.158" y1="40.721" x2="172.307" y2="40.721" gradientTransform="translate(22.43 11.843)"><stop offset="0" style="stop-color:#393f84"/><stop offset="1" style="stop-color:#563068"/></linearGradient><linearGradient id="SVGID_00000181053727699870951730000016364237322011518896_" gradientUnits="userSpaceOnUse" x1="172.263" y1="28.932" x2="205.659" y2="28.932" gradientTransform="translate(22.43 11.843)"><stop offset="0" style="stop-color:#393f84"/><stop offset="1" style="stop-color:#563068"/></linearGradient><path class="st29" d="M48.6 17.2h2.9v16.2h-2.9V17.2zM58.3 33.5h-2.8V17.3h4.4l5.9 13.5V17.3h2.8v16.2h-4.4L58.3 20v13.5zM83 17.3V20h-7.5v3.9h6.8v2.7h-6.8v4.3H83v2.7H72.6V17.4l10.4-.1zM97.9 17.3V20l-9 10.9h9.2v2.7H85.4v-2.7l9-10.9h-8.3v-2.7h11.8zM104.9 33.1c-1-.4-1.9-1-2.6-1.8-.7-.8-1.3-1.6-1.7-2.7s-.6-2.1-.6-3.3.2-2.3.6-3.3 1-1.9 1.7-2.7c.7-.8 1.6-1.3 2.7-1.8 1-.4 2.2-.6 3.5-.6 1.2 0 2.3.1 3.3.4 1 .3 1.9.6 2.6 1l-1.1 2.5c-.6-.4-1.3-.7-2.1-.9-.8-.2-1.7-.3-2.6-.3-.7 0-1.4.1-2.1.3-.7.2-1.2.6-1.7 1-.5.5-.9 1.1-1.2 1.8-.3.7-.4 1.5-.4 2.5s.1 1.8.4 2.5c.3.7.7 1.3 1.2 1.8s1.1.8 1.7 1.1c.7.2 1.4.3 2.1.3.6 0 1.1-.1 1.7-.2.6-.1 1.1-.3 1.6-.5v-2.9h-3.6v-2.7h6.5v7.6c-.4.2-.8.4-1.4.6-.5.2-1.1.3-1.6.5-.6.1-1.1.2-1.7.3-.6.1-1.1.1-1.7.1-1.3.1-2.5-.1-3.5-.6zM129.4 33.6l-1.4-3.8h-6.7l-1.4 3.8h-3l6-16.2h3.5l6 16.2h-3zM127 27l-2.4-6.7-2.4 6.7h4.8zM137.4 33.6h-2.8V17.4h4.4l5.9 13.5V17.4h2.8v16.2h-4.4l-5.9-13.5v13.5zM162.2 17.4v2.7h-7.5V24h6.8v2.7h-6.8V31h7.5v2.7h-10.4V17.5l10.4-.1z"/></svg>