<?xml version="1.0" encoding="utf-8"?>
<!-- Generator: Adobe Illustrator 27.0.0, SVG Export Plug-In . SVG Version: 6.00 Build 0)  -->
<svg version="1.1" id="Layer_1" xmlns="http://www.w3.org/2000/svg" xmlns:xlink="http://www.w3.org/1999/xlink" x="0px" y="0px"
	 viewBox="0 0 227.6 57" style="enable-background:new 0 0 227.6 57;" xml:space="preserve">
<style type="text/css">
	.st0{display:none;opacity:0.5;fill:url(#SVGID_1_);}
	.st1{display:none;opacity:0.5;fill:url(#SVGID_00000142872872602084095620000007275286114680876207_);}
	.st2{display:none;opacity:0.5;fill:url(#SVGID_00000059275321202020396200000009888433872314918038_);}
	.st3{fill:url(#SVGID_00000034801350437872713040000007682527077265684372_);}
	.st4{display:none;opacity:0.3;}
	.st5{display:inline;fill:url(#SVGID_00000057826320768416859610000013762281723776033702_);}
	.st6{display:inline;fill:url(#SVGID_00000144303570970237277620000010463903539563539638_);}
	.st7{display:inline;fill:url(#SVGID_00000133508249211424126060000011944301494018130577_);}
	.st8{display:inline;fill:url(#SVGID_00000014607795425852754310000007180526179795210145_);}
	.st9{display:inline;fill:url(#SVGID_00000118396157781049494910000018311982240808690061_);}
	.st10{display:inline;fill:url(#SVGID_00000026876885886929920010000009834214967545768891_);}
	.st11{display:inline;fill:url(#SVGID_00000182504235097345760010000001933006551047126961_);}
	.st12{display:inline;opacity:0.8;fill:url(#SVGID_00000128443980709780121320000011567956794446677691_);}
	.st13{display:inline;fill:url(#SVGID_00000077297489816244586510000005670798246582725561_);}
	.st14{display:inline;fill:url(#SVGID_00000055702568775445713810000012157796172951849642_);}
	.st15{display:inline;fill:url(#SVGID_00000087399260363783136780000013554437560507253420_);}
	.st16{display:inline;fill:url(#SVGID_00000000901750101866885280000002762675890049447567_);}
	.st17{display:inline;fill:url(#SVGID_00000094600472101380189680000002879952776935132575_);}
	.st18{display:inline;opacity:0.8;fill:url(#SVGID_00000041996266088332771530000016751134722019444667_);}
	.st19{display:inline;fill:url(#SVGID_00000056402976163625250920000002438653612819547289_);}
	.st20{display:inline;fill:url(#SVGID_00000136396587775943212550000015155563321124209597_);}
	.st21{display:inline;fill:url(#SVGID_00000171679902138994582310000002052354639343405737_);}
	.st22{display:inline;fill:url(#SVGID_00000127029121339037661440000000237714879889301692_);}
	.st23{display:inline;opacity:0.8;fill:url(#SVGID_00000065789220340809796680000006824445190263923893_);}
	.st24{display:inline;fill:url(#SVGID_00000065764689321468050220000002783772944512545471_);}
	.st25{display:inline;fill:url(#SVGID_00000132084732353581029950000008862804967783640449_);}
	.st26{display:inline;opacity:0.8;fill:url(#SVGID_00000052087028247612466500000003066307245145185441_);}
	.st27{display:none;opacity:0.5;fill:url(#SVGID_00000132058271015895952550000010477191360005146245_);}
	.st28{display:none;opacity:0.5;fill:url(#SVGID_00000177460705454291832240000010344564305518518717_);}
	.st29{fill:#FFFFFF;}
</style>
<g>
	
		<linearGradient id="SVGID_1_" gradientUnits="userSpaceOnUse" x1="-23.5535" y1="16.4814" x2="206.358" y2="16.4814" gradientTransform="matrix(1 1.612813e-03 -1.612813e-03 1 22.4302 11.8433)">
		<stop  offset="0" style="stop-color:#393F84"/>
		<stop  offset="1" style="stop-color:#563068"/>
	</linearGradient>
	<path class="st0" d="M228.7,26.4c0-0.1,0-0.2,0-0.3c0,0,0,0,0,0c-1.4-1.1-9.8-6.8-18.1-12.3c-2.7-1.7-5.4-3.5-8.1-5.3
		c-1.4-0.9-2.8-1.7-4.3-2.5c-1.2-0.7-2.4-1.3-3.5-2.1c-0.3-0.2-0.5-0.3-0.8-0.5c0,0,0,0,0,0c-0.1-0.1-0.2-0.1-0.4-0.2
		c-0.1-0.1-0.2-0.1-0.3-0.2c0,0,0,0,0,0c0,0,0,0,0,0c0,0-0.1-0.1-0.1-0.1c-0.1-0.1-0.2-0.1-0.3-0.2c0,0-0.1,0-0.2,0
		c-15.2-0.8-30.4-0.8-45.6-1.2C135.5,1.3,18.4,0.9,6.7,1.9c-2,0.2-4,0.5-6.1,0.6c-1.2,5.7,0.7,12.1-0.8,17.9
		C-0.1,20.6-0.1,20.6,0,21c0,0,0.5,0.6,0.5,0.6C0.7,22,0.7,21.8,1.2,22c-0.4,0.1-0.8,0.1-1.1,0.2c-0.2,0-0.3,0.2-0.3,0.4
		C-0.8,27.7-0.5,32.9-1.2,38c0,0.2,0.1,0.4,0.3,0.5c0,0.2,0,0.4,0.1,0.6c-0.2,0.2-0.3,0.4-0.3,0.7c0,0.5,0.1,0.9,0.1,1.3
		c-0.5,2.5,0.2,6.1,0.2,7.9c-0.1,0.3-0.3,0.7-0.3,1c0.4,1,1.2,1.8,1.8,2.7c0.1,0.1,0.2,0.2,0.2,0.3c0,0,0.1,0,0.2,0
		c0.3,0.1,0.7,0.1,1,0.2c8.1-0.7,16.8,0.2,24.8,0.5c2.1,0.1,109.2,0.3,111.3,0.4c0.5,0,0.9,0,1.4,0c0.1,0,1.2,0.1,1.2,0
		c1.3,0.2,1.6,0.2,2.9,0.2c0.3,0,0.6,0,0.9,0c3.9,0.2,7.9,0,11.7,0.2c2.3,0.1,6.5,0,8.8,0.2c27.3,1,19.3,0.7,29.7,0.9
		c0,0,0.1-0.1,0.1-0.2c0.6-0.3,1.2-0.9,1.7-1.3c3.9-3,7.9-6,12-8.9c6.4-4.5,13.1-9.7,18.8-15c0.1-0.1,0.1-0.1,0-0.2
		c0-0.1,0.1-0.2,0.1-0.3C228,28.8,228.4,27.6,228.7,26.4z"/>
	
		<linearGradient id="SVGID_00000075876490245862166430000012434968946860629397_" gradientUnits="userSpaceOnUse" x1="-21.4755" y1="9.3535" x2="-13.1271" y2="9.3535" gradientTransform="matrix(1 1.612813e-03 -1.612813e-03 1 22.4302 11.8433)">
		<stop  offset="0" style="stop-color:#393F84"/>
		<stop  offset="1" style="stop-color:#563068"/>
	</linearGradient>
	<path style="display:none;opacity:0.5;fill:url(#SVGID_00000075876490245862166430000012434968946860629397_);" d="M1.5,21.4
		c0.2,0.1,0.4,0.4,0.2,0.5c2.2-0.3,4.3-0.5,6.5-1.1c3.1-0.9-1.3-0.3-1.8-0.3c-1.8,0-3.6,0.2-5.5,0.3C1.2,21.1,1.3,21.2,1.5,21.4z"/>
	
		<linearGradient id="SVGID_00000147216842465837801000000005209163727554658990_" gradientUnits="userSpaceOnUse" x1="-22.475" y1="26.5883" x2="-17.9227" y2="26.5883" gradientTransform="matrix(1 1.612813e-03 -1.612813e-03 1 22.4302 11.8433)">
		<stop  offset="0" style="stop-color:#393F84"/>
		<stop  offset="1" style="stop-color:#563068"/>
	</linearGradient>
	<path style="display:none;opacity:0.5;fill:url(#SVGID_00000147216842465837801000000005209163727554658990_);" d="M0.2,38.7
		c0.2,0,0.5-0.1,0.7-0.1c0.2,0,0.3-0.1,0.5-0.1c1-0.1,2-0.2,3-0.4c-1.3-0.1-2.6-0.1-4-0.1c-0.2,0.1-0.4,0.2-0.6,0.3
		C0,38.5,0.1,38.6,0.2,38.7z"/>
	
		<linearGradient id="SVGID_00000016779960509947073400000001596526846292482961_" gradientUnits="userSpaceOnUse" x1="-213.8923" y1="37.5853" x2="174.4586" y2="-12.8923" gradientTransform="matrix(0.9917 0.1289 -0.1289 0.9917 154.9405 17.3398)">
		<stop  offset="1.704000e-02" style="stop-color:#8D56A3"/>
		<stop  offset="0.2537" style="stop-color:#7356A4"/>
		<stop  offset="0.4974" style="stop-color:#5356A5"/>
		<stop  offset="1" style="stop-color:#8D56A3"/>
	</linearGradient>
	<path style="fill:url(#SVGID_00000016779960509947073400000001596526846292482961_);" d="M0.2,49.3c15.4,0.2,135.9,0.6,151.3,1
		c14.5,0.4,29.2,1.4,43.7,1.1c10.5-8.7,20.9-17.7,32.5-24.8c-5.8-4.7-12.5-8.6-18.7-12.8c-5.3-3.5-10.6-7.1-16.1-10.2
		c-0.1,0-0.1,0.1-0.2,0.1c-0.1,0-0.2,0-0.3,0c-0.2,0-0.5-0.1-0.7-0.1c-14.9-1.3-29.9-0.6-44.8-0.9C133.4,2.3,14.8,2.8,1.4,3
		C1.1,7.8,0.7,13.3,1,18c0.2,3.3,7.1,1.5,9.7,1.9c0.4,0.1,3.3-0.1,3,0.1c-2.6,1.4-8.8,2.2-11.8,2.6c-2.2,0.3-1.7,7.7-1.8,9.6
		c0,0.5-0.4,4.9-0.1,5c0.4,0,0.4,0.3,1,0c2.1,0.7,4.8,0.4,6.9,0.5c0.6,0,1.2,0.1,1.8,0.1c-3,0.6-6,1.2-8.9,2
		c-0.7,0.2-0.9,0.9-0.7,1.6c0.2,0.8,0.2,1.6,0.3,2.4c-0.1,0.5-0.2,1.1-0.2,1.6c0,0,0,0,0,0C0.1,47,0.2,48.6,0.2,49.3z"/>
	<g class="st4">
		
			<linearGradient id="SVGID_00000075153823194164730170000012571025941063773348_" gradientUnits="userSpaceOnUse" x1="-186.1198" y1="28.5237" x2="-83.3082" y2="74.0109" gradientTransform="matrix(0.9917 0.1289 -0.1289 0.9917 154.9405 17.3398)">
			<stop  offset="0" style="stop-color:#393F84"/>
			<stop  offset="1" style="stop-color:#563068"/>
		</linearGradient>
		<path style="display:inline;fill:url(#SVGID_00000075153823194164730170000012571025941063773348_);" d="M3.4,43.1
			c-1-0.1-2.1-0.2-3.1-0.4c0,0.3,0,0.7,0,1c0,0,0,0.1,0,0.1c0.7,0.2,1.5,0.4,2.1,0.8c0.2,0.2,0,0.5-0.2,0.6
			c-0.7,0.3-1.4,0.5-2.2,0.6c0,0.3,0,0.5,0,0.8c4-0.3,8.1-0.6,11.5-2.4C9.1,43,6.1,43.3,3.4,43.1z"/>
		
			<linearGradient id="SVGID_00000071548532752615052880000011338072759813341620_" gradientUnits="userSpaceOnUse" x1="-57.3122" y1="-40.4495" x2="45.5111" y2="5.0429" gradientTransform="matrix(0.9917 0.1289 -0.1289 0.9917 154.9405 17.3398)">
			<stop  offset="0" style="stop-color:#393F84"/>
			<stop  offset="1" style="stop-color:#563068"/>
		</linearGradient>
		<path style="display:inline;fill:url(#SVGID_00000071548532752615052880000011338072759813341620_);" d="M198.4,32.2
			c-3.4,0.4-6.8-0.1-10.1,0.5c2,1.4,5.1,1.3,7.4,1.3c2.6,0,5.2-0.1,7.9,0.1c4.2,0.3,8.4,0.4,12.6,0.4c1.8-1.4,3.7-2.7,5.5-4
			c-3.8-0.1-7.7-0.2-11.5,0.1C206.3,31,202.4,31.8,198.4,32.2z"/>
		
			<linearGradient id="SVGID_00000148637976133238363880000002387165746887299736_" gradientUnits="userSpaceOnUse" x1="-183.0723" y1="-46.831" x2="9.5998" y2="38.4136" gradientTransform="matrix(0.9917 0.1289 -0.1289 0.9917 154.9405 17.3398)">
			<stop  offset="0" style="stop-color:#393F84"/>
			<stop  offset="1" style="stop-color:#563068"/>
		</linearGradient>
		<path style="display:inline;fill:url(#SVGID_00000148637976133238363880000002387165746887299736_);" d="M202.8,34.6
			c-2.8-0.2-5.7,0-8.5-0.1c-2.3-0.1-5.1-0.2-6.9-1.8c-0.2-0.2,0-0.4,0.2-0.5c3.8-0.8,7.7-0.2,11.5-0.7c3.7-0.5,7.5-1.3,11.2-1.5
			c4.1-0.3,8.1-0.2,12.2,0c0.9-0.6,1.9-1.3,2.8-1.9c-3.5-0.1-7-0.2-10.5-0.1c-5.4,0.1-10.8,0.8-16.1,1.6c-5,0.7-9.9,1-15,0.8
			c-5.5-0.3-10.9-1-16.4-1.6c-10.9-1.1-127-1.7-138-1.9c-5.5-0.1-10.9,0-16.4-0.1c-2.9,0-5.8-0.2-8.7,0.3c-1.4,0.2-2.8,0.4-4.2,0.5
			c0,0.2,0,0.5,0,0.7c18.4-2.1,142.1,1.4,160.3,4.2c10.2,1.6,20.3,2.9,30.6,3.3c7.7,0.4,15.7,0.8,23.4,0c0.4-0.3,0.7-0.5,1.1-0.8
			C211.3,35,207,34.9,202.8,34.6z"/>
		
			<linearGradient id="SVGID_00000149369810140347477070000012016693966152893352_" gradientUnits="userSpaceOnUse" x1="-197.9582" y1="-62.7956" x2="101.8171" y2="69.835" gradientTransform="matrix(0.9917 0.1289 -0.1289 0.9917 154.9405 17.3398)">
			<stop  offset="0" style="stop-color:#393F84"/>
			<stop  offset="1" style="stop-color:#563068"/>
		</linearGradient>
		<path style="display:inline;fill:url(#SVGID_00000149369810140347477070000012016693966152893352_);" d="M11.8,3
			c3.7,0,7.4,0.5,11.1,0.8C31.6,4.7,145.4,4.7,154.2,4c4.4-0.3,8.9-0.8,13.3-1.2c-6.9,0-13.7,0.1-20.6-0.1
			C135.3,2.4,18.8,2.6,7.3,2.9C8.8,2.9,10.3,2.9,11.8,3z"/>
		
			<linearGradient id="SVGID_00000052789543941349108460000009618808068277406376_" gradientUnits="userSpaceOnUse" x1="-172.9476" y1="-56.2103" x2="44.4736" y2="39.9841" gradientTransform="matrix(0.9917 0.1289 -0.1289 0.9917 154.9405 17.3398)">
			<stop  offset="0" style="stop-color:#393F84"/>
			<stop  offset="1" style="stop-color:#563068"/>
		</linearGradient>
		<path style="display:inline;fill:url(#SVGID_00000052789543941349108460000009618808068277406376_);" d="M192.7,3.7
			c-0.1,0-0.2,0-0.3,0c-0.2,0-0.5-0.1-0.7-0.1c-6.3-0.5-12.5-0.7-18.8-0.8c-6.7,0.7-13.3,1.4-20,1.9C144,5.3,30.1,5.3,21.3,4.3
			C17.1,3.8,13,3.6,8.8,3.5C6.8,3.5,4.7,3.3,2.7,3C2.3,3,1.8,3,1.4,3c0,0.4-0.1,0.9-0.1,1.3c5.1,0.2,10.2,1,15.2,1.4
			C26.3,6.7,141.2,6.6,151,6.2c9.8-0.4,19.7-0.9,29.5-0.5c5.9,0.2,12,1.6,18,1.2c-1.8-1.2-3.7-2.3-5.6-3.4
			C192.8,3.6,192.8,3.7,192.7,3.7z"/>
		
			<linearGradient id="SVGID_00000056415000804564726160000012693938129067472817_" gradientUnits="userSpaceOnUse" x1="-172.3865" y1="-2.5278" x2="-69.5569" y2="42.9675" gradientTransform="matrix(0.9917 0.1289 -0.1289 0.9917 154.9405 17.3398)">
			<stop  offset="0" style="stop-color:#393F84"/>
			<stop  offset="1" style="stop-color:#563068"/>
		</linearGradient>
		<path style="display:inline;fill:url(#SVGID_00000056415000804564726160000012693938129067472817_);" d="M12.9,7.9
			C10,7.8,7.2,7.3,4.4,7.1C3.3,7,2.2,7,1.1,6.9c0,0.3,0,0.6,0,1C3.1,8,5,8.2,7,8.5C7.3,8.5,7.5,9,7.1,9C5.1,9.5,3,9.9,1,10.3
			c0,0.3,0,0.6,0,0.9c3.6-0.1,7.1-0.3,10.7-0.6c2.4-0.2,4.7-0.3,7.1-0.3c2.3-0.1,4.8-0.2,6.9-1.1C21.9,7.3,16.8,8.2,12.9,7.9z"/>
		
			<linearGradient id="SVGID_00000104687375854103451880000015690252215777217417_" gradientUnits="userSpaceOnUse" x1="-174.1996" y1="1.5565" x2="-71.3459" y2="47.0625" gradientTransform="matrix(0.9917 0.1289 -0.1289 0.9917 154.9405 17.3398)">
			<stop  offset="0" style="stop-color:#393F84"/>
			<stop  offset="1" style="stop-color:#563068"/>
		</linearGradient>
		<path style="display:inline;fill:url(#SVGID_00000104687375854103451880000015690252215777217417_);" d="M1.1,8.4
			C1,8.8,1,9.3,1,9.7c1.4-0.3,2.8-0.6,4.2-0.9C3.8,8.7,2.5,8.5,1.1,8.4z"/>
		
			<linearGradient id="SVGID_00000114762375399290187810000014705465792544528290_" gradientUnits="userSpaceOnUse" x1="-174.1089" y1="-52.8235" x2="36.8344" y2="40.5048" gradientTransform="matrix(0.9917 0.1289 -0.1289 0.9917 154.9405 17.3398)">
			<stop  offset="0" style="stop-color:#393F84"/>
			<stop  offset="1" style="stop-color:#563068"/>
		</linearGradient>
		<path style="display:inline;opacity:0.8;fill:url(#SVGID_00000114762375399290187810000014705465792544528290_);" d="M199.3,7.5
			c-6.1,0.6-12.3-0.9-18.4-1.1c-9.8-0.4-19.5,0.1-29.3,0.4c-9.4,0.3-124,0.5-133.4-0.3c-5.6-0.5-11.3-1.4-17-1.6
			c0,0.4-0.1,0.9-0.1,1.3c1.3,0.1,2.6,0.1,3.9,0.2c2.8,0.2,5.5,0.7,8.3,0.8c4.1,0.1,9.4-0.6,13.1,1.6c0.2,0.1,0.2,0.5,0,0.6
			c-4.2,2.1-9.6,1.4-14.2,1.7c-3.8,0.3-7.6,0.5-11.4,0.6c0,0.2,0,0.4,0,0.5c8.3-0.3,16.6-0.8,24.9-1.2c9.9-0.6,125-0.7,134.9-1.2
			c9.8-0.5,19.6-1.1,29.5-0.7c4.4,0.2,8.8,0.7,13.1,0.8C202,9.2,200.6,8.3,199.3,7.5z"/>
		
			<linearGradient id="SVGID_00000000906079425919527920000014858794474312893866_" gradientUnits="userSpaceOnUse" x1="-51.7287" y1="-53.001" x2="51.0663" y2="-7.5211" gradientTransform="matrix(0.9917 0.1289 -0.1289 0.9917 154.9405 17.3398)">
			<stop  offset="0" style="stop-color:#393F84"/>
			<stop  offset="1" style="stop-color:#563068"/>
		</linearGradient>
		<path style="display:inline;fill:url(#SVGID_00000000906079425919527920000014858794474312893866_);" d="M210.3,14.7
			c-0.4-0.3-0.9-0.5-1.3-0.8c-4.4,0.2-8.9-0.2-13.4,0.1C200.6,14.4,205.4,14.6,210.3,14.7z"/>
		
			<linearGradient id="SVGID_00000045592686350055083430000016984799276988726915_" gradientUnits="userSpaceOnUse" x1="-55.1318" y1="-45.3256" x2="47.6747" y2="0.1594" gradientTransform="matrix(0.9917 0.1289 -0.1289 0.9917 154.9405 17.3398)">
			<stop  offset="0" style="stop-color:#393F84"/>
			<stop  offset="1" style="stop-color:#563068"/>
		</linearGradient>
		<path style="display:inline;fill:url(#SVGID_00000045592686350055083430000016984799276988726915_);" d="M192.8,14.3
			c-0.3,0-0.5-0.6-0.1-0.6c5.1-0.8,10.4-0.1,15.5-0.3c-0.4-0.3-0.9-0.6-1.3-0.9c-7.7,0.8-15.4-0.6-23.1-1.1
			c-7.6-0.5-16.3-2.1-23.7,0.8c2.3,0.6,4.6,0.6,7,0.8c2.5,0.2,4.9,0.6,7.4,1c5.4,0.9,10.8,1.7,16.3,2.2c5.4,0.5,10.9,1,16.4,0.8
			c2.1-0.1,4.1-0.2,6.2-0.3c-0.7-0.4-1.4-0.9-2-1.3C205.1,15.2,198.9,15,192.8,14.3z"/>
		
			<linearGradient id="SVGID_00000092457428878757821760000003320422782623855530_" gradientUnits="userSpaceOnUse" x1="-53.4126" y1="-49.1912" x2="49.3859" y2="-3.7097" gradientTransform="matrix(0.9917 0.1289 -0.1289 0.9917 154.9405 17.3398)">
			<stop  offset="0" style="stop-color:#393F84"/>
			<stop  offset="1" style="stop-color:#563068"/>
		</linearGradient>
		<path style="display:inline;fill:url(#SVGID_00000092457428878757821760000003320422782623855530_);" d="M182.4,10.7
			c7.8,0.5,15.9,1.9,23.7,1.2c-0.7-0.4-1.3-0.9-2-1.3c-4.9-0.1-9.8-0.6-14.7-0.8c-5.6-0.2-11.3-0.1-16.9,0.2
			C175.9,10.1,179.2,10.5,182.4,10.7z"/>
		
			<linearGradient id="SVGID_00000015338975887199531370000013684283028342394764_" gradientUnits="userSpaceOnUse" x1="-174.1852" y1="-52.1441" x2="18.9944" y2="33.325" gradientTransform="matrix(0.9917 0.1289 -0.1289 0.9917 154.9405 17.3398)">
			<stop  offset="0" style="stop-color:#393F84"/>
			<stop  offset="1" style="stop-color:#563068"/>
		</linearGradient>
		<path style="display:inline;fill:url(#SVGID_00000015338975887199531370000013684283028342394764_);" d="M207.9,17.6
			c-5.7,0.1-11.4-0.3-17-0.8c-5.7-0.6-11.3-1.4-16.9-2.3c-2.6-0.4-5.2-0.8-7.9-1c-2.3-0.2-4.6-0.3-6.9-1c-0.2-0.1-0.4-0.4-0.1-0.5
			c1.7-0.8,3.5-1.2,5.4-1.5c-1.5,0.1-2.9,0.1-4.4,0.2c-10,0.4-125,0.6-134.9,1.2C17,12.2,8.9,12.7,0.9,12.9c0,0.1,0,0.1,0,0.2
			c19.3,1.1,143.7-0.3,163,1.9c5.4,0.6,10.8,1.6,16.2,2.2c5.4,0.6,10.8,1,16.2,1.4c5.4,0.4,10.8,1,16.2,1.7c2.7,0.4,5.4,0.7,8.1,1
			c-2.1-1.4-4.3-2.8-6.4-4.2C212.1,17.4,210,17.5,207.9,17.6z"/>
		
			<linearGradient id="SVGID_00000138537511526049881220000018093612401357280689_" gradientUnits="userSpaceOnUse" x1="-198.862" y1="-46.6416" x2="67.0648" y2="71.0133" gradientTransform="matrix(0.9917 0.1289 -0.1289 0.9917 154.9405 17.3398)">
			<stop  offset="0" style="stop-color:#393F84"/>
			<stop  offset="1" style="stop-color:#563068"/>
		</linearGradient>
		<path style="display:inline;fill:url(#SVGID_00000138537511526049881220000018093612401357280689_);" d="M154,19.7
			c2.9,0.3,5.8,0.5,8.8,0.8c2.4,0.2,5.1,0.4,7.4-0.4c-5.4-1.8-11.2-1.3-16.9-1.9C146.9,17.5,35.4,17.2,29,17
			c-6.4-0.2-12.9,0-19.3-0.2c-2.9-0.1-5.9-0.3-8.9-0.4c0,0.6,0,1.1,0.1,1.6c0,0.4,0.2,0.8,0.4,1c9.3-0.3,18.6-0.8,28-0.8
			C35.9,18.2,147.5,19,154,19.7z"/>
		
			<linearGradient id="SVGID_00000155137958451789210470000002066259446430492858_" gradientUnits="userSpaceOnUse" x1="-174.4003" y1="-49.3877" x2="13.5418" y2="33.7641" gradientTransform="matrix(0.9917 0.1289 -0.1289 0.9917 154.9405 17.3398)">
			<stop  offset="0" style="stop-color:#393F84"/>
			<stop  offset="1" style="stop-color:#563068"/>
		</linearGradient>
		<path style="display:inline;opacity:0.8;fill:url(#SVGID_00000155137958451789210470000002066259446430492858_);" d="M221.6,22.2
			c-4-0.4-8-0.9-12-1.5c-5.4-0.7-10.8-1.1-16.3-1.6c-5.4-0.4-10.8-0.9-16.2-1.5c-5.4-0.7-10.8-1.7-16.2-2.2
			c-18.3-1.8-141.8-0.6-160.1-1.7c0,0.7,0,1.4,0,2.1c0.5,0,1.1,0,1.6,0c3.1,0.1,6.2,0.4,9.3,0.4c6.5,0.1,12.9,0.1,19.3,0.2
			c6.3,0.2,117.6,0.8,123.9,1.2c5.4,0.3,11,0.1,16.1,2c0.3,0.1,0.2,0.4,0,0.5c-2.2,1-4.6,1-6.9,0.9c-2.8-0.2-5.6-0.4-8.4-0.7
			c-6.7-0.7-118.5-1.6-125.3-1.6c-9.5,0-19,0.5-28.4,0.8c2.1,1,6.5,0,8.6,0.3c0.4,0.1,3.3-0.1,3,0.1c-0.7,0.4-1.8,0.7-2.9,1
			c17.2-0.6,139.5-0.5,156.6,1.9c5.3,0.7,10.6,1.5,15.9,1.7c5.5,0.2,11,0.2,16.4,0.2c7.7-0.1,15.4-0.1,23.1,0.5c1.1,0,2.1,0,3.2,0.1
			C224.6,24.3,223.1,23.2,221.6,22.2z"/>
		
			<linearGradient id="SVGID_00000170983956015132513790000010026450043827323533_" gradientUnits="userSpaceOnUse" x1="-185.5514" y1="-47.0865" x2="19.8598" y2="43.7943" gradientTransform="matrix(0.9917 0.1289 -0.1289 0.9917 154.9405 17.3398)">
			<stop  offset="0" style="stop-color:#393F84"/>
			<stop  offset="1" style="stop-color:#563068"/>
		</linearGradient>
		<path style="display:inline;fill:url(#SVGID_00000170983956015132513790000010026450043827323533_);" d="M31.9,23.3
			c10.8,0.3,126.6,2,137.3,2.7c10.9,0.8,21.7,0.2,32.6-0.3c2.8-0.1,5.6-0.3,8.5-0.3c-5.9-0.1-11.7,0.1-17.6,0
			c-5.1,0-10.2-0.1-15.3-0.6c-5.4-0.5-10.8-1.5-16.2-2.1c-16.3-1.7-137.8-1.7-154.2-1c-2,0.4-3.9,0.6-5.2,0.7
			c-0.6,0.1-1,0.6-1.2,1.5C11,23.5,21.5,23,31.9,23.3z"/>
		
			<linearGradient id="SVGID_00000068659843310494690880000014567416883220031378_" gradientUnits="userSpaceOnUse" x1="-180.7326" y1="-47.8555" x2="9.8054" y2="36.4449" gradientTransform="matrix(0.9917 0.1289 -0.1289 0.9917 154.9405 17.3398)">
			<stop  offset="0" style="stop-color:#393F84"/>
			<stop  offset="1" style="stop-color:#563068"/>
		</linearGradient>
		<path style="display:inline;fill:url(#SVGID_00000068659843310494690880000014567416883220031378_);" d="M225,26.1
			c-0.8-0.1-1.5-0.1-2.3-0.2c-7.4-0.1-14.8,0.1-22.2,0.5c-10.9,0.6-21.7,1-32.6,0.2c-10.8-0.8-126.5-2.5-137.3-2.7
			c-10.1-0.2-20.2,0.3-30.2,0.7c-0.1,0.7-0.2,1.5-0.3,2.3c1.5-0.1,3-0.4,4.6-0.6c5.1-0.6,10.2-0.1,15.3-0.1
			c5.5-0.1,116.1,0.2,121.6,0.4c5.5,0.2,11,0.5,16.5,0.8c5.5,0.3,10.9,1,16.3,1.6c5.4,0.6,10.8,1.1,16.2,0.8
			c5.1-0.2,10.1-1.3,15.1-1.8c6.8-0.8,13.6-0.6,20.4-0.4c0.5-0.3,0.9-0.6,1.4-0.9c-0.1-0.1-0.2-0.2-0.3-0.2
			C226.6,26.3,225.8,26.2,225,26.1z"/>
		
			<linearGradient id="SVGID_00000039850780506340990020000007659572917285998006_" gradientUnits="userSpaceOnUse" x1="-221.0431" y1="-38.0332" x2="61.7322" y2="87.076" gradientTransform="matrix(0.9917 0.1289 -0.1289 0.9917 154.9405 17.3398)">
			<stop  offset="0" style="stop-color:#393F84"/>
			<stop  offset="1" style="stop-color:#563068"/>
		</linearGradient>
		<path style="display:inline;fill:url(#SVGID_00000039850780506340990020000007659572917285998006_);" d="M156.8,34.6
			c-2.1-0.1-4.2-0.1-6.3-0.3c-2.3-0.2-4.6-0.8-6.9-1.3c-2.8-0.5-110.8-1.1-113.6-1.4c-9.8-0.9-20.3-4-29.9-0.2c0,0.3,0,0.5,0,0.7
			c0,0.1,0,0.2,0,0.5c3-0.2,6.1-0.8,9.1-0.9c3.8-0.1,7.6-0.2,11.4,0.3c5.7,0.7,117.5,0.1,122.6,3c0.2,0.1,0.3,0.6,0,0.6
			c-3.2,1.1-111.8,1-115.2,0.8c-3.5-0.1-7-0.2-10.4-0.2c-5.9,0-11.8-0.6-17.7-0.5c0,0.8,0,1.4,0.1,1.4c0.4,0,0.4,0.3,1,0
			c2.1,0.7,4.8,0.4,6.9,0.5c0.6,0,1.2,0.1,1.8,0.1c-1.2,0.2-2.3,0.5-3.5,0.7c0.9,0,1.8,0,2.7,0c5.6-0.1,11.3-0.4,16.9-0.4
			c5.5,0,116.2-0.2,121.7-0.7c2.8-0.3,5.6-0.6,8.4-0.8c1.3-0.1,2.6-0.1,3.9-0.1c1,0,1.9,0,2.7-0.5C161,34.9,158.7,34.7,156.8,34.6z"
			/>
		
			<linearGradient id="SVGID_00000043423555348251758570000008887192599927557036_" gradientUnits="userSpaceOnUse" x1="-255.9556" y1="-49.0168" x2="130.3823" y2="121.9121" gradientTransform="matrix(0.9917 0.1289 -0.1289 0.9917 154.9405 17.3398)">
			<stop  offset="0" style="stop-color:#393F84"/>
			<stop  offset="1" style="stop-color:#563068"/>
		</linearGradient>
		<path style="display:inline;fill:url(#SVGID_00000043423555348251758570000008887192599927557036_);" d="M27.5,35.8
			c3.2,0.1,111.6,0.3,114.7-0.6c-2.6-1.2-110.6-1.6-113.4-1.9c-3-0.2-5.9-0.4-8.9-0.7c-4.1-0.4-8.3-0.5-12.3-0.1
			c-2.5,0.2-5,0.7-7.6,0.8c0,0.5-0.1,1.1-0.1,1.7c5.5,0,11,0.4,16.4,0.5C20.1,35.6,23.8,35.6,27.5,35.8z"/>
		
			<linearGradient id="SVGID_00000117666909853382315070000010076048805233739157_" gradientUnits="userSpaceOnUse" x1="-190.0011" y1="-37.3081" x2="8.6539" y2="50.5836" gradientTransform="matrix(0.9917 0.1289 -0.1289 0.9917 154.9405 17.3398)">
			<stop  offset="0" style="stop-color:#393F84"/>
			<stop  offset="1" style="stop-color:#563068"/>
		</linearGradient>
		<path style="display:inline;opacity:0.8;fill:url(#SVGID_00000117666909853382315070000010076048805233739157_);" d="M187,36.3
			c-10.1-0.6-20.2-2.1-30.2-3.7C139.8,30,17.3,27,0.1,29c0,0.6,0,1.2,0,1.7c9.7-3.7,20.5-0.6,30.4,0.4c5.7,0.6,116.3,2.5,122,2.7
			c3.3,0.1,8-0.3,10.8,2c0.1,0.1,0.2,0.3,0.1,0.5c-1.4,1.2-3.4,0.8-5.2,0.9c-3,0.2-6.1,0.5-9.1,0.8c-5.7,0.6-116.6,0.9-122.4,0.9
			c-5.9,0-11.7,0.5-17.6,0.4c-1.6,0-3.2-0.1-4.8-0.2c-1.2,0.3-2.3,0.5-3.5,0.8c-0.1,0-0.3,0.1-0.4,0.2c1.9,0.1,3.8,0.3,5.7,0.5
			c5,0.6,10,1.2,15,1.5c10.8,0.5,126.6-0.5,137.3-1.2c17-1.1,34.1-1.8,51.2-1.2c1.3-1,2.5-2,3.8-3C204.8,37.4,195.8,36.9,187,36.3z"
			/>
		
			<linearGradient id="SVGID_00000085231250887087950420000003705137084015795897_" gradientUnits="userSpaceOnUse" x1="-200.6398" y1="-35.0268" x2="6.6757" y2="56.6965" gradientTransform="matrix(0.9917 0.1289 -0.1289 0.9917 154.9405 17.3398)">
			<stop  offset="0" style="stop-color:#393F84"/>
			<stop  offset="1" style="stop-color:#563068"/>
		</linearGradient>
		<path style="display:inline;fill:url(#SVGID_00000085231250887087950420000003705137084015795897_);" d="M0.2,42.1
			c1.7,0.2,3.5,0.4,5.2,0.5c2.3,0.1,4.8,0.1,6.9,1.3c0.1,0.1,0.4,0.4,0.1,0.5c-3.6,2.2-8,2.5-12.3,2.8c0,0.4,0,0.8,0,1.2
			c3.1-0.8,6.4-1,9.7-1.1c4.8-0.2,9.5-0.5,14.2-1.3c5-0.9,115-1.5,120.1-1.7c4.9-0.2,9.8-0.1,14.7-0.1c15.9,0,31.8-1.7,47.7-2
			c0.8-0.7,1.6-1.3,2.5-2c-16.6-0.6-33.3,0.1-49.9,1.2C148.3,42,32.5,43,21.7,42.5c-4.7-0.2-9.4-0.7-14.1-1.3
			c-2.5-0.3-5-0.6-7.5-0.7c-0.1,0.3-0.1,0.6,0,0.9C0.2,41.6,0.2,41.9,0.2,42.1z"/>
		
			<linearGradient id="SVGID_00000111176836592738225000000016941597079020402078_" gradientUnits="userSpaceOnUse" x1="-208.5547" y1="-36.0231" x2="6.1561" y2="58.9721" gradientTransform="matrix(0.9917 0.1289 -0.1289 0.9917 154.9405 17.3398)">
			<stop  offset="0" style="stop-color:#393F84"/>
			<stop  offset="1" style="stop-color:#563068"/>
		</linearGradient>
		<path style="display:inline;fill:url(#SVGID_00000111176836592738225000000016941597079020402078_);" d="M163.9,47.2
			c13.1-0.7,26.2-2.5,39.3-2.3c0.9-0.8,1.8-1.5,2.7-2.3c-15.5,0.4-31,2-46.5,2c-5.3,0-10.5-0.1-15.8,0.2
			c-4.9,0.3-114.7,0.8-119.5,1.7c-4.6,0.8-9,1.1-13.7,1.3C7,48,3.5,48.1,0.2,49c0,0.1,0,0.2,0,0.3c6.7,0.1,13.3,0.2,20,0.3
			C32.9,47.9,151,47.9,163.9,47.2z"/>
		
			<linearGradient id="SVGID_00000078751081959031756380000000798773423408745639_" gradientUnits="userSpaceOnUse" x1="-250.8196" y1="-59.0093" x2="4.9618" y2="54.1569" gradientTransform="matrix(0.9917 0.1289 -0.1289 0.9917 154.9405 17.3398)">
			<stop  offset="0" style="stop-color:#393F84"/>
			<stop  offset="1" style="stop-color:#563068"/>
		</linearGradient>
		<path style="display:inline;opacity:0.8;fill:url(#SVGID_00000078751081959031756380000000798773423408745639_);" d="M163.2,47.8
			C151.8,48.4,35.3,48.4,24,49.7c7.5,0.1,120,0.4,127.5,0.6c14.5,0.4,29.2,1.4,43.7,1.1c2.4-2,4.8-4,7.2-6
			C189.4,45.4,176.2,47.2,163.2,47.8z"/>
	</g>
	
		<linearGradient id="SVGID_00000127016869381227275840000018115449453320083074_" gradientUnits="userSpaceOnUse" x1="-22.1584" y1="40.7205" x2="172.3071" y2="40.7205" gradientTransform="matrix(1 1.612813e-03 -1.612813e-03 1 22.4302 11.8433)">
		<stop  offset="0" style="stop-color:#393F84"/>
		<stop  offset="1" style="stop-color:#563068"/>
	</linearGradient>
	<path style="display:none;opacity:0.5;fill:url(#SVGID_00000127016869381227275840000018115449453320083074_);" d="M194.1,55
		c0.1-0.7,0.4-1.4,0.6-2.1c-15.2,0.3-30.6-0.8-45.8-1.2c-8.5-0.2-122-1.1-130.5-1c-3.7,0.1-7.4-0.5-11.1-0.4c-1.9,0-3.8,0.1-5.7,0.1
		c0,0,0,0-0.1,0c-0.4,0.1-0.9,0.1-1.3,0.1c0,0,0,0.1,0.1,0.1c0.3,0.6,0.7,1.1,1,1.7c0,0,0,0,0,0c0.3,0.6,8,0,8.8,0
		c2.9,0,5.9-0.2,8.7,0.1c5.3,0.5,115.7,0.7,121,1c0.1,0,0.1,0,0.1,0.1c14.1,0.5,21,0.4,31.3,1.2C178.9,54.3,186.5,55.2,194.1,55
		C194.1,55,194.1,55,194.1,55z"/>
	
		<linearGradient id="SVGID_00000181053727699870951730000016364237322011518896_" gradientUnits="userSpaceOnUse" x1="172.2634" y1="28.9322" x2="205.6588" y2="28.9322" gradientTransform="matrix(1 1.612813e-03 -1.612813e-03 1 22.4302 11.8433)">
		<stop  offset="0" style="stop-color:#393F84"/>
		<stop  offset="1" style="stop-color:#563068"/>
	</linearGradient>
	<path style="display:none;opacity:0.5;fill:url(#SVGID_00000181053727699870951730000016364237322011518896_);" d="M228.1,27.1
		c-0.2,0.2-0.4,0.5-0.7,0.7c-4.8,4.2-10.8,7.6-15.7,11.6c-5.3,4.3-9.8,7.5-15,11.8c-0.1,0.2-1,1-1.3,1.1c-0.2,0.7-0.5,2-0.7,2.7
		c0,0,0,0,0,0.1c0,0,0.1,0,0.1,0c0,0,0,0,0,0c1.7-0.1,7.7-5.7,8.7-6.4c3-2.3,6.1-4.6,9.1-7c4.7-3.9,9.5-8,14.7-11.3
		c0.1-0.8,0.4-1.6,0.7-2.4C227.9,27.7,228,27.4,228.1,27.1z"/>
	<g>
		<path class="st29" d="M48.6,17.2l2.9,0l0,16.2l-2.9,0L48.6,17.2z"/>
		<path class="st29" d="M58.3,33.5l-2.8,0l0-16.2l4.4,0l5.9,13.5l0-13.5l2.8,0l0,16.2l-4.4,0l-5.9-13.5L58.3,33.5z"/>
		<path class="st29" d="M83,17.3l0,2.7l-7.5,0l0,3.9l6.8,0l0,2.7l-6.8,0l0,4.3l7.5,0l0,2.7l-10.4,0l0-16.2L83,17.3z"/>
		<path class="st29" d="M97.9,17.3l0,2.7l-9,10.9l9.2,0l0,2.7l-12.7,0l0-2.7l9-10.9l-8.3,0l0-2.7L97.9,17.3z"/>
		<path class="st29" d="M104.9,33.1c-1-0.4-1.9-1-2.6-1.8c-0.7-0.8-1.3-1.6-1.7-2.7s-0.6-2.1-0.6-3.3s0.2-2.3,0.6-3.3s1-1.9,1.7-2.7
			c0.7-0.8,1.6-1.3,2.7-1.8c1-0.4,2.2-0.6,3.5-0.6c1.2,0,2.3,0.1,3.3,0.4c1,0.3,1.9,0.6,2.6,1l-1.1,2.5c-0.6-0.4-1.3-0.7-2.1-0.9
			c-0.8-0.2-1.7-0.3-2.6-0.3c-0.7,0-1.4,0.1-2.1,0.3c-0.7,0.2-1.2,0.6-1.7,1c-0.5,0.5-0.9,1.1-1.2,1.8c-0.3,0.7-0.4,1.5-0.4,2.5
			c0,1,0.1,1.8,0.4,2.5c0.3,0.7,0.7,1.3,1.2,1.8c0.5,0.5,1.1,0.8,1.7,1.1c0.7,0.2,1.4,0.3,2.1,0.3c0.6,0,1.1-0.1,1.7-0.2
			c0.6-0.1,1.1-0.3,1.6-0.5l0-2.9l-3.6,0l0-2.7l6.5,0l0,7.6c-0.4,0.2-0.8,0.4-1.4,0.6c-0.5,0.2-1.1,0.3-1.6,0.5
			c-0.6,0.1-1.1,0.2-1.7,0.3c-0.6,0.1-1.1,0.1-1.7,0.1C107.1,33.8,105.9,33.6,104.9,33.1z"/>
		<path class="st29" d="M129.4,33.6l-1.4-3.8l-6.7,0l-1.4,3.8l-3,0l6-16.2l3.5,0l6,16.2L129.4,33.6z M127,27l-2.4-6.7l-2.4,6.7
			L127,27z"/>
		<path class="st29" d="M137.4,33.6l-2.8,0l0-16.2l4.4,0l5.9,13.5l0-13.5l2.8,0l0,16.2l-4.4,0l-5.9-13.5L137.4,33.6z"/>
		<path class="st29" d="M162.2,17.4l0,2.7l-7.5,0l0,3.9l6.8,0l0,2.7l-6.8,0l0,4.3l7.5,0l0,2.7l-10.4,0l0-16.2L162.2,17.4z"/>
	</g>
</g>
</svg>
