<?xml version="1.0" encoding="utf-8"?>
<!-- Generator: Adobe Illustrator 27.0.0, SVG Export Plug-In . SVG Version: 6.00 Build 0)  -->
<svg version="1.1" id="Layer_1" xmlns="http://www.w3.org/2000/svg" xmlns:xlink="http://www.w3.org/1999/xlink" x="0px" y="0px"
	 viewBox="0 0 227.6 57" style="enable-background:new 0 0 227.6 57;" xml:space="preserve">
<style type="text/css">
	.st0{fill:url(#SVGID_1_);}
	.st1{fill:url(#SVGID_00000033346318320891676680000008124655137929696429_);}
	.st2{fill:#FFFFFF;}
	.st3{fill:url(#SVGID_00000102535397116269809030000010620591999421414330_);}
	.st4{fill:url(#SVGID_00000129922649434725773090000014822442205220886664_);}
</style>
<g>
	
		<linearGradient id="SVGID_1_" gradientUnits="userSpaceOnUse" x1="-97.4647" y1="83.0421" x2="290.8862" y2="133.5197" gradientTransform="matrix(0.9917 0.1289 0.1289 -0.9917 23.9309 121.9136)">
		<stop  offset="1.704000e-02" style="stop-color:#8D56A3"/>
		<stop  offset="0.2537" style="stop-color:#7356A4"/>
		<stop  offset="0.4974" style="stop-color:#5356A5"/>
		<stop  offset="1" style="stop-color:#8D56A3"/>
	</linearGradient>
	<path class="st0" d="M0.2,49.3c15.4,0.2,135.9,0.6,151.3,1c14.5,0.4,29.2,1.4,43.7,1.1c10.5-8.7,20.9-17.7,32.5-24.8
		c-5.8-4.7-12.5-8.6-18.7-12.8c-5.3-3.5-10.6-7.1-16.1-10.2c-0.1,0-0.1,0.1-0.2,0.1c-0.1,0-0.2,0-0.3,0c-0.2,0-0.5-0.1-0.7-0.1
		c-14.9-1.3-29.9-0.6-44.8-0.9C133.4,2.3,14.8,2.8,1.4,3C1.1,7.8,0.7,13.3,1,18c0.2,3.3,7.1,1.5,9.7,1.9c0.4,0.1,3.3-0.1,3,0.1
		c-2.6,1.4-8.8,2.2-11.8,2.6c-2.2,0.3-1.7,7.7-1.8,9.6c0,0.5-0.4,4.9-0.1,5c0.4,0,0.4,0.3,1,0c2.1,0.7,4.8,0.4,6.9,0.5
		c0.6,0,1.2,0.1,1.8,0.1c-3,0.6-6,1.2-8.9,2c-0.7,0.2-0.9,0.9-0.7,1.6c0.2,0.8,0.2,1.6,0.3,2.4c-0.1,0.5-0.2,1.1-0.2,1.6l0,0
		C0.1,47,0.2,48.6,0.2,49.3z"/>
	<g>
		<g>
			<g>
				
					<linearGradient id="SVGID_00000023979642205877542600000003799310081971057034_" gradientUnits="userSpaceOnUse" x1="-199.4901" y1="1589.6128" x2="-173.0627" y2="1589.6128" gradientTransform="matrix(0.9906 -0.1369 0.1369 0.9906 17.9249 -1580.6569)">
					<stop  offset="0" style="stop-color:#FCBC67"/>
					<stop  offset="1" style="stop-color:#F9A22B"/>
				</linearGradient>
				<path style="fill:url(#SVGID_00000023979642205877542600000003799310081971057034_);" d="M37.1,15.7L39,29.6
					c0,0.3,0.4,0.4,0.6,0.2l3.8-4.7c0.6-0.7,0.9-1.7,0.7-2.6l-1-7.6c-0.2-1.7-1.8-2.8-3.4-2.6l0,0C38.1,12.5,36.9,14,37.1,15.7z"/>
				<path class="st2" d="M66.3,37.3c-0.1-0.1-0.1-0.1-0.2-0.2l-10-8.2c0.8-0.4,1.1-1.4,0.8-2.2c-0.3-0.7-1.1-1.2-1.9-1.1
					c-0.7,0.1-1.2,0.6-1.4,1.2l-2.5-2.1c-0.3-0.2-0.3-0.6-0.1-0.8l2.1-2.7c-0.6-0.2-1.1-0.7-1.2-1.4c-0.1-0.8,0.3-1.6,1-1.9
					c0.8-0.4,1.8-0.1,2.2,0.7l4.7-5.9c1.2-1.5,0-3.7-1.9-3.5c-0.5,0.1-1,0.4-1.4,0.8L40.2,31.2c-0.5,0.7-0.7,1.5-0.6,2.3l0.6,4.2
					c0.2,1.7,1.8,2.8,3.4,2.6l0,0c1.7-0.2,2.8-1.8,2.6-3.4l-0.5-3.6c-0.1-0.5,0.4-0.8,0.9-0.6L63.7,41C66,42,68,39.1,66.3,37.3z"/>
			</g>
			
				<linearGradient id="SVGID_00000057115612791878142980000006984060183630815371_" gradientUnits="userSpaceOnUse" x1="-199.4625" y1="1590.0645" x2="-173.0251" y2="1590.0645" gradientTransform="matrix(0.9906 -0.1369 0.1369 0.9906 17.9249 -1580.6569)">
				<stop  offset="0" style="stop-color:#FCBC67"/>
				<stop  offset="1" style="stop-color:#F9A22B"/>
			</linearGradient>
			<circle style="fill:url(#SVGID_00000057115612791878142980000006984060183630815371_);" cx="53.7" cy="19.6" r="0.9"/>
			
				<linearGradient id="SVGID_00000045579933322899750380000015782263354190364810_" gradientUnits="userSpaceOnUse" x1="-200.3487" y1="1594.6132" x2="-171.9886" y2="1594.6132" gradientTransform="matrix(0.9906 -0.1369 0.1369 0.9906 17.9249 -1580.6569)">
				<stop  offset="0" style="stop-color:#FCBC67"/>
				<stop  offset="1" style="stop-color:#F9A22B"/>
			</linearGradient>
			<path style="fill:url(#SVGID_00000045579933322899750380000015782263354190364810_);" d="M63.9,21.6l-5.4-4.4
				c-0.3-0.2-0.6-0.2-0.8,0.1l-5.2,6.5c-0.2,0.3-0.2,0.7,0.1,0.9l0.3,0.2c0.2,0.1,0.4,0.1,0.6,0c1.2-0.7,2.6-0.4,3.5,0.3
				c0.9,0.7,1.4,2,0.9,3.2c-0.1,0.2,0,0.5,0.2,0.7l0.8,0.7c0.3,0.2,0.6,0.2,0.9-0.1l4.5-5.6C64.8,23.4,64.7,22.3,63.9,21.6z"/>
		</g>
		<g>
			<path class="st2" d="M76.2,14h-1.4c-0.3,0-0.5,0.2-0.5,0.5v20c0,0.3,0.2,0.5,0.5,0.5h1.4c0.3,0,0.5-0.2,0.5-0.5v-20
				C76.7,14.2,76.5,14,76.2,14z"/>
			<path class="st2" d="M81.4,14H80c-0.3,0-0.5,0.2-0.5,0.5l0,2.2l0.2,4.7c0,0.3,0.2,0.5,0.5,0.5h1.1c0.3,0,0.5-0.2,0.5-0.5l0.1-4.7
				v-2.2C81.9,14.2,81.7,14,81.4,14z"/>
			<path class="st2" d="M90.8,26.3l5.1-5.1c0.1-0.1,0.2-0.4,0.1-0.5c-0.1-0.2-0.3-0.3-0.5-0.3h-1.7c-0.1,0-0.3,0.1-0.4,0.1
				c-1,1-2.5,2.5-3.9,4c-0.8,0.8-1.5,1.6-2.1,2.2l-0.1-12.2c0-0.3-0.2-0.5-0.5-0.5h-1.4c-0.3,0-0.5,0.2-0.5,0.5v20
				c0,0.3,0.2,0.5,0.5,0.5h1.4c0.3,0,0.5-0.2,0.5-0.5v-4.9L89,28l5.1,6.8c0.1,0.1,0.2,0.2,0.4,0.2h1.7c0.2,0,0.4-0.1,0.4-0.3
				s0.1-0.4,0-0.5L90.8,26.3z"/>
			<path class="st2" d="M108.4,31.6v-6.7c0-3.2-1.8-4.8-5.3-4.8c-4.1,0-5.1,2.7-5.3,4.2c0,0.1,0,0.3,0.1,0.4
				c0.1,0.1,0.2,0.2,0.4,0.2h1.4c0.2,0,0.4-0.2,0.5-0.4c0.3-1.2,0.7-2.2,3-2.2c2.6,0,3,1.4,3,2.7v0.8h-2.1c-5.7,0-6.9,2.7-6.9,4.9
				c0,2.1,1.3,4.6,5,4.6c2,0,3.3-0.7,4.1-1.5c0,0.3,0.1,0.6,0.2,0.8c0.1,0.2,0.3,0.3,0.5,0.3h1.3c0.1,0,0.3-0.1,0.4-0.2
				c0.1-0.1,0.1-0.3,0.1-0.4c0-0.2-0.2-1.1-0.2-2.5C108.5,31.8,108.5,31.7,108.4,31.6z M102.2,33.1c-1.6,0-2.6-0.9-2.6-2.4
				c0-1.2,0.5-2.6,4.4-2.6h2.1C106.1,31.3,105.5,33.1,102.2,33.1z"/>
			<path class="st2" d="M118.6,20c-1.7,0.1-3.2,0.8-4.2,2.1c0-0.3,0-0.5,0-0.7c0-0.2,0-0.4,0-0.5c0-0.3-0.2-0.5-0.5-0.5h-1.3
				c-0.3,0-0.5,0.2-0.5,0.5v13.6c0,0.3,0.2,0.5,0.5,0.5h1.4c0.3,0,0.5-0.2,0.5-0.5v-7.1c0-2.9,1.6-4.7,4.2-4.9
				c0.3,0,0.5-0.2,0.5-0.5v-1.5c0-0.1-0.1-0.3-0.2-0.4C118.8,20,118.7,20,118.6,20z"/>
			<path class="st2" d="M127.1,20c-1.7,0.1-3.2,0.8-4.2,2.1c0-0.3,0-0.5,0-0.7c0-0.2,0-0.4,0-0.5c0-0.3-0.2-0.5-0.5-0.5H121
				c-0.3,0-0.5,0.2-0.5,0.5v13.6c0,0.3,0.2,0.5,0.5,0.5h1.4c0.3,0,0.5-0.2,0.5-0.5v-7.1c0-2.9,1.6-4.7,4.2-4.9
				c0.3,0,0.5-0.2,0.5-0.5v-1.5c0-0.1-0.1-0.3-0.2-0.4C127.3,20,127.2,20,127.1,20z"/>
			<path class="st2" d="M131,20.4h-1.4c-0.3,0-0.5,0.2-0.5,0.5v13.6c0,0.3,0.2,0.5,0.5,0.5h1.4c0.3,0,0.5-0.2,0.5-0.5V20.9
				C131.5,20.6,131.3,20.4,131,20.4z"/>
			<path class="st2" d="M131,14h-1.4c-0.3,0-0.5,0.2-0.5,0.5v2.6c0,0.3,0.2,0.5,0.5,0.5h1.4c0.3,0,0.5-0.2,0.5-0.5v-2.6
				C131.5,14.2,131.3,14,131,14z"/>
			<path class="st2" d="M140.2,20.1c-3.9,0-6.4,3-6.4,7.7c0,3.5,1.6,7.5,6.2,7.5c2.9,0,5-1.4,5.9-4.1c0.1-0.2,0-0.3-0.1-0.5
				c-0.1-0.1-0.2-0.2-0.4-0.2H144c-0.2,0-0.4,0.1-0.5,0.3c-0.5,1.2-1.1,2.3-3.4,2.3c-2.2,0-3.7-1.8-3.9-4.7h9.5
				c0.3,0,0.5-0.2,0.5-0.5v-1.1C146.2,23.5,144.3,20.1,140.2,20.1z M136.4,26.2c0.4-2.5,1.7-3.8,3.8-3.8c2.1,0,3.5,1.5,3.7,3.8
				H136.4z"/>
			<path class="st2" d="M139.4,18.8c0.1,0.1,0.2,0.2,0.4,0.2h1.5c0.2,0,0.4-0.1,0.5-0.3c0.1-0.2,0.1-0.4-0.1-0.5l-3.7-4.3
				c-0.1-0.1-0.2-0.2-0.4-0.2h-1.9c-0.2,0-0.4,0.1-0.5,0.3c-0.1,0.2,0,0.4,0.1,0.5L139.4,18.8z"/>
			<path class="st2" d="M155.2,20c-1.7,0.1-3.2,0.8-4.2,2.1c0-0.3,0-0.5,0-0.7c0-0.2,0-0.4,0-0.5c0-0.3-0.2-0.5-0.5-0.5h-1.3
				c-0.3,0-0.5,0.2-0.5,0.5v13.6c0,0.3,0.2,0.5,0.5,0.5h1.4c0.3,0,0.5-0.2,0.5-0.5v-7.1c0-2.9,1.6-4.7,4.2-4.9
				c0.3,0,0.5-0.2,0.5-0.5v-1.5c0-0.1-0.1-0.3-0.2-0.4C155.4,20,155.3,20,155.2,20z"/>
			<path class="st2" d="M162.5,20.1c-3.9,0-6.4,3-6.4,7.7c0,3.5,1.6,7.5,6.2,7.5c2.9,0,5-1.4,5.9-4.1c0.1-0.2,0-0.3-0.1-0.5
				c-0.1-0.1-0.2-0.2-0.4-0.2h-1.4c-0.2,0-0.4,0.1-0.5,0.3c-0.5,1.2-1.1,2.3-3.4,2.3c-2.2,0-3.7-1.8-3.9-4.7h9.5
				c0.3,0,0.5-0.2,0.5-0.5v-1.1C168.5,23.5,166.6,20.1,162.5,20.1z M158.6,26.2c0.4-2.5,1.7-3.8,3.8-3.8c2.1,0,3.5,1.5,3.7,3.8
				H158.6z"/>
		</g>
	</g>
</g>
</svg>
