<?xml version="1.0" encoding="utf-8"?>
<!-- Generator: Adobe Illustrator 27.0.0, SVG Export Plug-In . SVG Version: 6.00 Build 0)  -->
<svg version="1.1" id="Layer_1" xmlns="http://www.w3.org/2000/svg" xmlns:xlink="http://www.w3.org/1999/xlink" x="0px" y="0px"
	 viewBox="0 0 227.6 57" style="enable-background:new 0 0 227.6 57;" xml:space="preserve">
<style type="text/css">
	.st0{display:none;fill:url(#SVGID_1_);}
	.st1{display:none;opacity:0.5;fill:url(#SVGID_00000028285141825806227910000011103160839050238350_);}
	.st2{display:none;opacity:0.5;fill:url(#SVGID_00000088115378594896571000000014829209575398315695_);}
	.st3{fill:url(#SVGID_00000094618824922056424290000013005777844730688906_);}
	.st4{display:none;opacity:0.3;}
	.st5{display:inline;fill:url(#SVGID_00000014621073275248011060000013934434432852625286_);}
	.st6{display:inline;fill:url(#SVGID_00000039827587331946010570000005267635323707905188_);}
	.st7{display:inline;fill:url(#SVGID_00000018233491062420031150000002295454495648023708_);}
	.st8{display:inline;fill:url(#SVGID_00000075876375734602866620000008473543581580525993_);}
	.st9{display:inline;fill:url(#SVGID_00000082346115727223618950000008057583658387455161_);}
	.st10{display:inline;fill:url(#SVGID_00000137118139205412034300000002711439580297854618_);}
	.st11{display:inline;fill:url(#SVGID_00000076596731323036764850000015812563368969323692_);}
	.st12{display:inline;opacity:0.8;fill:url(#SVGID_00000085219513688445612070000012665635524233932983_);}
	.st13{display:inline;fill:url(#SVGID_00000034770211305613856770000004515833844103536300_);}
	.st14{display:inline;fill:url(#SVGID_00000051378263695935752510000006480436647447796915_);}
	.st15{display:inline;fill:url(#SVGID_00000159454949512392153680000008976466130834627479_);}
	.st16{display:inline;fill:url(#SVGID_00000163037251050637888230000011258650103249052050_);}
	.st17{display:inline;fill:url(#SVGID_00000012445512961719305590000005028854168377688221_);}
	.st18{display:inline;opacity:0.8;fill:url(#SVGID_00000049201251769272450890000001633984335034259873_);}
	.st19{display:inline;fill:url(#SVGID_00000056400470590246494320000010418872384713415340_);}
	.st20{display:inline;fill:url(#SVGID_00000178897011601465867530000009113240443574860677_);}
	.st21{display:inline;fill:url(#SVGID_00000094602060164915838920000015817635277674886307_);}
	.st22{display:inline;fill:url(#SVGID_00000139997518808949888350000011807631331891461042_);}
	.st23{display:inline;opacity:0.8;fill:url(#SVGID_00000004523293256284142420000011339037670438470828_);}
	.st24{display:inline;fill:url(#SVGID_00000003808721662236180510000003303384898441798786_);}
	.st25{display:inline;fill:url(#SVGID_00000145060465431565904280000001807415010193709977_);}
	.st26{display:inline;opacity:0.8;fill:url(#SVGID_00000103237134160465087060000014836019758126536890_);}
	.st27{display:none;opacity:0.5;fill:url(#SVGID_00000181056434275100723360000015990317025149025713_);}
	.st28{display:none;opacity:0.5;fill:url(#SVGID_00000130626121935538562830000000106977282895609743_);}
	.st29{fill:#FFFFFF;}
	.st30{fill:url(#SVGID_00000150074150345189267660000010095742021759338397_);}
	.st31{fill:url(#SVGID_00000116935436295644865350000015826040138642803625_);}
</style>
<g>
	
		<linearGradient id="SVGID_1_" gradientUnits="userSpaceOnUse" x1="-1036.0393" y1="18.1183" x2="-806.4712" y2="18.1183" gradientTransform="matrix(-1 1.612813e-03 1.612813e-03 1 -807.4906 11.8433)">
		<stop  offset="0" style="stop-color:#FCBC67"/>
		<stop  offset="1" style="stop-color:#F9A22B"/>
	</linearGradient>
	<path class="st0" d="M228.5,23.6c0-0.1,0-0.2,0-0.3c0,0,0,0,0,0c-1.5-1-10-6.5-18.4-11.8c-2.8-1.7-5.5-3.4-8.2-5.1
		c-1.4-0.8-2.9-1.6-4.3-2.4c-1.2-0.6-2.4-1.3-3.5-2c-0.3-0.2-0.5-0.3-0.8-0.5c0,0,0,0,0,0c-0.1-0.1-0.2-0.1-0.4-0.2
		c-0.1-0.1-0.2-0.1-0.3-0.2c0,0,0,0,0,0c0,0,0,0,0,0c-0.1,0-0.1-0.1-0.1-0.1c-0.1-0.1-0.2-0.1-0.3-0.2c0,0-0.1,0-0.1,0
		c-15.2-0.4-30.4,0-45.6,0C134.7,0.9,17.7,3.7,6,4.9c-2,0.3-4,0.6-6,0.7c-1.1,5.8,1,12.1-0.3,17.9c-0.1,0.3-0.1,0.2,0.1,0.6
		c0,0,0.5,0.6,0.5,0.6c0.1,0.4,0.2,0.2,0.6,0.4c-0.4,0.1-0.8,0.1-1.1,0.2c-0.2,0-0.3,0.2-0.3,0.4C-0.9,30.9-0.4,36.1-1,41.3
		c0,0.2,0.1,0.4,0.3,0.5c0,0.2,0,0.4,0.1,0.6c-0.2,0.2-0.3,0.4-0.3,0.7c0,0.5,0.1,0.9,0.2,1.3c-0.4,2.5,0.4,6.1,0.4,7.9
		c-0.1,0.3-0.3,0.7-0.3,1c0.5,1,1.3,1.8,1.9,2.6c0.1,0.1,0.2,0.2,0.2,0.3c0,0,0.1,0,0.2,0c0.3,0.1,0.7,0.1,1,0.2
		c8.1-0.9,16.8-0.3,24.8-0.1c2.1,0,109.2-2.5,111.2-2.5c0.5,0,0.9,0,1.4-0.1c0.1,0,1.2,0.1,1.2,0c1.3,0.2,1.6,0.1,2.9,0.2
		c0.3,0,0.6,0,0.9,0c3.9,0,7.9-0.2,11.7-0.1c2.3,0.1,6.5-0.1,8.8,0c27.3,0.3,19.3,0.2,29.7,0.1c0-0.1,0.1-0.1,0.1-0.2
		c0.6-0.3,1.2-1,1.7-1.4c3.8-3.1,7.8-6.2,11.8-9.2c6.3-4.6,12.8-10.1,18.4-15.5c0.1-0.1,0-0.1,0-0.2c0-0.1,0.1-0.2,0.1-0.3
		C227.9,26,228.2,24.8,228.5,23.6z"/>
	
		<linearGradient id="SVGID_00000174571615497727774020000001870673248440064434_" gradientUnits="userSpaceOnUse" x1="-816.4913" y1="13.696" x2="-808.1571" y2="13.696" gradientTransform="matrix(-1 1.612813e-03 1.612813e-03 1 -807.4906 11.8433)">
		<stop  offset="0" style="stop-color:#FCBC67"/>
		<stop  offset="1" style="stop-color:#F9A22B"/>
	</linearGradient>
	<path style="display:none;opacity:0.5;fill:url(#SVGID_00000174571615497727774020000001870673248440064434_);" d="M1.3,24.6
		c0.2,0.1,0.4,0.4,0.2,0.5c2.2-0.4,4.3-0.6,6.4-1.2c3.1-1-1.3-0.2-1.8-0.2c-1.8,0.1-3.6,0.2-5.5,0.4C0.9,24.3,1,24.4,1.3,24.6z"/>
	
		<linearGradient id="SVGID_00000052103829490248379440000001703332086753567893_" gradientUnits="userSpaceOnUse" x1="-812.1003" y1="31.0144" x2="-807.5558" y2="31.0144" gradientTransform="matrix(-1 1.612813e-03 1.612813e-03 1 -807.4906 11.8433)">
		<stop  offset="0" style="stop-color:#FCBC67"/>
		<stop  offset="1" style="stop-color:#F9A22B"/>
	</linearGradient>
	<path style="display:none;opacity:0.5;fill:url(#SVGID_00000052103829490248379440000001703332086753567893_);" d="M0.4,41.9
		c0.2-0.1,0.5-0.1,0.7-0.1c0.2-0.1,0.3-0.1,0.5-0.1c1-0.1,2-0.3,3-0.5c-1.3,0-2.6,0-4,0c-0.2,0.1-0.4,0.2-0.6,0.3
		C0.2,41.7,0.3,41.8,0.4,41.9z"/>
	
		<linearGradient id="SVGID_00000080170120621725173430000004551593515098094263_" gradientUnits="userSpaceOnUse" x1="979.2484" y1="-138.2721" x2="998.5381" y2="-37.1467" gradientTransform="matrix(0.9948 0.103 -0.103 0.9948 -879.1908 17.2273)">
		<stop  offset="0" style="stop-color:#FCBC67"/>
		<stop  offset="1" style="stop-color:#F9A22B"/>
	</linearGradient>
	<path style="fill:url(#SVGID_00000080170120621725173430000004551593515098094263_);" d="M0.7,52.5c15.4-0.1,135.9-2.9,151.3-2.9
		c14.5,0,29.2,0.7,43.7,0c10.3-9,20.4-18.3,31.8-25.7c-6-4.6-12.7-8.3-19.1-12.3c-5.3-3.4-10.8-6.8-16.4-9.8c-0.1,0-0.1,0.1-0.2,0.1
		c-0.1,0-0.2,0-0.3,0c-0.2,0-0.5,0-0.7,0C175.9,0.9,161,2,146.1,2C132.6,2,14.1,5.6,0.6,6.2c-0.1,4.8-0.4,10.3,0,15.1
		c0.3,3.3,7.1,1.3,9.7,1.6c0.4,0,3.3-0.2,3,0c-2.6,1.5-8.8,2.5-11.7,2.9c-2.2,0.3-1.5,7.8-1.5,9.7c0,0.5-0.3,4.9,0,5
		c0.4,0,0.4,0.3,1,0c2.1,0.6,4.8,0.3,6.9,0.4c0.6,0,1.2,0.1,1.8,0.1c-3,0.7-5.9,1.4-8.8,2.2c-0.7,0.2-0.9,1-0.7,1.6
		c0.2,0.8,0.3,1.6,0.3,2.4c-0.1,0.5-0.1,1.1-0.2,1.6c0,0,0,0,0,0C0.5,50.2,0.7,51.8,0.7,52.5z"/>
	<g class="st4">
		
			<linearGradient id="SVGID_00000097485557720794282000000008264437859201991305_" gradientUnits="userSpaceOnUse" x1="841.965" y1="-78.6576" x2="944.7676" y2="-33.1743" gradientTransform="matrix(0.9948 0.103 -0.103 0.9948 -879.1908 17.2273)">
			<stop  offset="0" style="stop-color:#FCBC67"/>
			<stop  offset="1" style="stop-color:#F9A22B"/>
		</linearGradient>
		<path style="display:inline;fill:url(#SVGID_00000097485557720794282000000008264437859201991305_);" d="M3.7,46.2
			c-1-0.1-2.1-0.2-3.1-0.3c0,0.3,0.1,0.7,0.1,1c0,0,0,0.1,0,0.1c0.7,0.1,1.5,0.3,2.1,0.8c0.3,0.2,0,0.5-0.2,0.6
			c-0.7,0.3-1.4,0.5-2.2,0.6c0,0.3,0,0.5,0,0.8c4-0.4,8.1-0.8,11.4-2.7C9.5,46,6.4,46.4,3.7,46.2z"/>
		
			<linearGradient id="SVGID_00000085220103129005419580000008304533147338321820_" gradientUnits="userSpaceOnUse" x1="970.7565" y1="-147.6363" x2="1073.5813" y2="-102.1432" gradientTransform="matrix(0.9948 0.103 -0.103 0.9948 -879.1908 17.2273)">
			<stop  offset="0" style="stop-color:#FCBC67"/>
			<stop  offset="1" style="stop-color:#F9A22B"/>
		</linearGradient>
		<path style="display:inline;fill:url(#SVGID_00000085220103129005419580000008304533147338321820_);" d="M198.4,30.2
			c-3.3,0.5-6.8,0.1-10.1,0.7c2.1,1.3,5.1,1.2,7.5,1.1c2.6-0.1,5.2-0.2,7.9-0.1c4.2,0.2,8.4,0.2,12.6,0.1c1.8-1.4,3.6-2.8,5.4-4.1
			c-3.8,0-7.7,0-11.5,0.4C206.3,28.8,202.4,29.7,198.4,30.2z"/>
		
			<linearGradient id="SVGID_00000035511419493745561660000016356812605039710620_" gradientUnits="userSpaceOnUse" x1="845.0082" y1="-154.0118" x2="1037.6681" y2="-68.7727" gradientTransform="matrix(0.9948 0.103 -0.103 0.9948 -879.1908 17.2273)">
			<stop  offset="0" style="stop-color:#FCBC67"/>
			<stop  offset="1" style="stop-color:#F9A22B"/>
		</linearGradient>
		<path style="display:inline;fill:url(#SVGID_00000035511419493745561660000016356812605039710620_);" d="M202.8,32.5
			c-2.9-0.1-5.7,0.2-8.5,0.2c-2.2,0-5.1,0-6.9-1.6c-0.2-0.2,0-0.4,0.2-0.5c3.7-0.9,7.6-0.4,11.4-1c3.7-0.6,7.4-1.4,11.2-1.8
			c4.1-0.4,8.1-0.4,12.2-0.4c0.9-0.7,1.9-1.3,2.8-2c-3.5,0-7,0-10.5,0.2c-5.4,0.3-10.7,1.1-16.1,2c-5,0.8-9.9,1.3-15,1.1
			c-5.5-0.1-10.9-0.7-16.4-1.1c-10.9-0.9-127,1.6-138,1.7c-5.5,0-10.9,0.3-16.4,0.4c-2.9,0-5.8,0-8.7,0.5c-1.4,0.2-2.8,0.5-4.2,0.6
			c0,0.2,0,0.5,0,0.7c18.4-2.6,142.1-2.3,160.3,0c10.2,1.3,20.4,2.3,30.7,2.5c7.7,0.2,15.7,0.4,23.4-0.6c0.3-0.3,0.7-0.5,1-0.8
			C211.3,32.7,207.1,32.7,202.8,32.5z"/>
		
			<linearGradient id="SVGID_00000077305889920852259600000000706346612685552010_" gradientUnits="userSpaceOnUse" x1="830.1199" y1="-169.9745" x2="1129.8839" y2="-37.3489" gradientTransform="matrix(0.9948 0.103 -0.103 0.9948 -879.1908 17.2273)">
			<stop  offset="0" style="stop-color:#FCBC67"/>
			<stop  offset="1" style="stop-color:#F9A22B"/>
		</linearGradient>
		<path style="display:inline;fill:url(#SVGID_00000077305889920852259600000000706346612685552010_);" d="M11,5.9
			c3.7-0.1,7.4,0.3,11.1,0.6c8.8,0.7,122.5-2.3,131.3-3.2c4.4-0.4,8.8-1,13.2-1.6C159.8,1.8,152.9,2,146.1,2C134.6,2,18,5.3,6.5,5.9
			C8,5.9,9.6,5.9,11,5.9z"/>
		
			<linearGradient id="SVGID_00000165928801039373773490000000607110337458107056_" gradientUnits="userSpaceOnUse" x1="855.1284" y1="-163.3893" x2="1072.5449" y2="-67.1969" gradientTransform="matrix(0.9948 0.103 -0.103 0.9948 -879.1908 17.2273)">
			<stop  offset="0" style="stop-color:#FCBC67"/>
			<stop  offset="1" style="stop-color:#F9A22B"/>
		</linearGradient>
		<path style="display:inline;fill:url(#SVGID_00000165928801039373773490000000607110337458107056_);" d="M191.9,1.8
			c-0.1,0-0.2,0-0.3,0c-0.2,0-0.5,0-0.7,0c-6.3-0.4-12.6-0.4-18.8-0.3c-6.6,0.9-13.3,1.8-19.9,2.4c-8.8,0.8-122.6,3.8-131.4,3
			c-4.2-0.4-8.3-0.4-12.5-0.4C6,6.5,4,6.4,2,6.1c-0.4,0-0.9,0.1-1.4,0.1c0,0.4,0,0.9,0,1.3c5.1,0.1,10.2,0.7,15.3,1
			c9.8,0.7,124.7-2.4,134.5-3c9.8-0.6,19.6-1.4,29.5-1.2c5.9,0.1,12.1,1.3,18,0.8c-1.9-1.1-3.8-2.2-5.7-3.2
			C192,1.8,192,1.8,191.9,1.8z"/>
		
			<linearGradient id="SVGID_00000005232720573749532440000004623654596478431872_" gradientUnits="userSpaceOnUse" x1="855.6977" y1="-109.7071" x2="958.5014" y2="-64.2233" gradientTransform="matrix(0.9948 0.103 -0.103 0.9948 -879.1908 17.2273)">
			<stop  offset="0" style="stop-color:#FCBC67"/>
			<stop  offset="1" style="stop-color:#F9A22B"/>
		</linearGradient>
		<path style="display:inline;fill:url(#SVGID_00000005232720573749532440000004623654596478431872_);" d="M12.3,10.8
			c-2.8-0.1-5.7-0.5-8.5-0.6c-1.1,0-2.2-0.1-3.3-0.1c0,0.3,0,0.6,0,1c2,0.1,4,0.3,5.9,0.5c0.3,0,0.5,0.5,0.1,0.5
			c-2,0.5-4.1,1-6.1,1.4c0,0.3,0,0.6,0,0.9c3.6-0.2,7.1-0.5,10.6-0.9c2.4-0.2,4.7-0.4,7.1-0.5c2.3-0.1,4.8-0.3,6.9-1.3
			C21.3,10,16.3,10.9,12.3,10.8z"/>
		
			<linearGradient id="SVGID_00000026145731123556769320000011337454554953504445_" gradientUnits="userSpaceOnUse" x1="853.9368" y1="-105.6051" x2="956.5403" y2="-60.2099" gradientTransform="matrix(0.9948 0.103 -0.103 0.9948 -879.1908 17.2273)">
			<stop  offset="0" style="stop-color:#FCBC67"/>
			<stop  offset="1" style="stop-color:#F9A22B"/>
		</linearGradient>
		<path style="display:inline;fill:url(#SVGID_00000026145731123556769320000011337454554953504445_);" d="M0.5,11.6
			c0,0.4,0,0.8,0,1.3c1.4-0.3,2.8-0.6,4.2-1C3.3,11.8,1.9,11.7,0.5,11.6z"/>
		
			<linearGradient id="SVGID_00000118375696230488263140000008384703329282378371_" gradientUnits="userSpaceOnUse" x1="853.9724" y1="-159.9957" x2="1064.8945" y2="-66.6767" gradientTransform="matrix(0.9948 0.103 -0.103 0.9948 -879.1908 17.2273)">
			<stop  offset="0" style="stop-color:#FCBC67"/>
			<stop  offset="1" style="stop-color:#F9A22B"/>
		</linearGradient>
		<path style="display:inline;opacity:0.8;fill:url(#SVGID_00000118375696230488263140000008384703329282378371_);" d="M198.6,5.5
			c-6.1,0.8-12.4-0.6-18.4-0.6c-9.8-0.1-19.5,0.6-29.3,1.2C141.5,6.6,27,9.8,17.6,9.3C12,8.9,6.2,8.1,0.6,8.1c0,0.4,0,0.9,0,1.3
			c1.3,0,2.6,0.1,3.9,0.1c2.8,0.1,5.5,0.6,8.3,0.6c4.1,0.1,9.4-0.9,13.1,1.3c0.2,0.1,0.2,0.5,0,0.6c-4.1,2.2-9.6,1.6-14.1,2.1
			C8,14.5,4.2,14.8,0.4,15c0,0.2,0,0.4,0,0.5c8.3-0.5,16.6-1.2,24.8-1.9c9.9-0.8,124.9-3.9,134.9-4.7c9.8-0.7,19.6-1.6,29.4-1.5
			c4.4,0.1,8.8,0.5,13.1,0.4C201.4,7.1,200,6.3,198.6,5.5z"/>
		
			<linearGradient id="SVGID_00000075855968329762292550000001736180224612297915_" gradientUnits="userSpaceOnUse" x1="976.3312" y1="-160.1886" x2="1079.1372" y2="-114.7038" gradientTransform="matrix(0.9948 0.103 -0.103 0.9948 -879.1908 17.2273)">
			<stop  offset="0" style="stop-color:#FCBC67"/>
			<stop  offset="1" style="stop-color:#F9A22B"/>
		</linearGradient>
		<path style="display:inline;fill:url(#SVGID_00000075855968329762292550000001736180224612297915_);" d="M209.8,12.4
			c-0.4-0.3-0.9-0.5-1.3-0.8c-4.4,0.4-8.9,0-13.4,0.4C200.1,12.4,205,12.4,209.8,12.4z"/>
		
			<linearGradient id="SVGID_00000178182438197038848660000009469672645304295607_" gradientUnits="userSpaceOnUse" x1="972.9332" y1="-152.5178" x2="1075.744" y2="-107.0308" gradientTransform="matrix(0.9948 0.103 -0.103 0.9948 -879.1908 17.2273)">
			<stop  offset="0" style="stop-color:#FCBC67"/>
			<stop  offset="1" style="stop-color:#F9A22B"/>
		</linearGradient>
		<path style="display:inline;fill:url(#SVGID_00000178182438197038848660000009469672645304295607_);" d="M192.3,12.4
			c-0.3,0-0.5-0.5-0.1-0.6c5.1-0.9,10.4-0.4,15.5-0.7c-0.4-0.3-0.9-0.6-1.3-0.9c-7.7,0.9-15.4-0.2-23.1-0.5
			c-7.7-0.3-16.4-1.7-23.6,1.4c2.3,0.5,4.6,0.5,7,0.6c2.5,0.1,5,0.5,7.4,0.9c5.4,0.8,10.9,1.4,16.3,1.8c5.5,0.4,10.9,0.7,16.4,0.4
			c2.1-0.1,4.1-0.3,6.2-0.5c-0.7-0.4-1.4-0.9-2.1-1.3C204.6,13,198.5,13,192.3,12.4z"/>
		
			<linearGradient id="SVGID_00000155825572880721883900000006658331150601586833_" gradientUnits="userSpaceOnUse" x1="974.6476" y1="-156.3853" x2="1077.4579" y2="-110.8987" gradientTransform="matrix(0.9948 0.103 -0.103 0.9948 -879.1908 17.2273)">
			<stop  offset="0" style="stop-color:#FCBC67"/>
			<stop  offset="1" style="stop-color:#F9A22B"/>
		</linearGradient>
		<path style="display:inline;fill:url(#SVGID_00000155825572880721883900000006658331150601586833_);" d="M181.8,9.1
			c7.9,0.3,15.9,1.5,23.8,0.6c-0.7-0.4-1.3-0.9-2-1.3c-4.9,0.1-9.8-0.4-14.7-0.4C183.2,8,177.6,8.3,172,8.7
			C175.3,8.7,178.7,9,181.8,9.1z"/>
		
			<linearGradient id="SVGID_00000118356407755208112780000010949465029353593503_" gradientUnits="userSpaceOnUse" x1="853.9009" y1="-159.3267" x2="1047.0646" y2="-73.8646" gradientTransform="matrix(0.9948 0.103 -0.103 0.9948 -879.1908 17.2273)">
			<stop  offset="0" style="stop-color:#FCBC67"/>
			<stop  offset="1" style="stop-color:#F9A22B"/>
		</linearGradient>
		<path style="display:inline;fill:url(#SVGID_00000118356407755208112780000010949465029353593503_);" d="M207.5,15.3
			c-5.7,0.3-11.4,0-17-0.4c-5.7-0.4-11.3-1.1-17-1.9c-2.6-0.4-5.3-0.7-7.9-0.8c-2.3-0.1-4.6-0.2-6.9-0.8c-0.2-0.1-0.4-0.4-0.2-0.5
			c1.7-0.8,3.5-1.3,5.3-1.7c-1.5,0.1-2.9,0.2-4.4,0.3c-9.9,0.7-124.9,3.9-134.9,4.7C16.5,15,8.5,15.6,0.4,16.1c0,0.1,0,0.2,0,0.2
			c19.3,0.6,143.7-4.1,163-2.3c5.4,0.5,10.8,1.3,16.3,1.8c5.4,0.5,10.8,0.7,16.2,1c5.4,0.3,10.9,0.7,16.3,1.3
			c2.7,0.3,5.4,0.6,8.1,0.8c-2.1-1.4-4.3-2.7-6.5-4C211.7,15,209.6,15.2,207.5,15.3z"/>
		
			<linearGradient id="SVGID_00000022546462076834749230000011453240974445057953_" gradientUnits="userSpaceOnUse" x1="829.2248" y1="-153.8201" x2="1095.1321" y2="-36.1738" gradientTransform="matrix(0.9948 0.103 -0.103 0.9948 -879.1908 17.2273)">
			<stop  offset="0" style="stop-color:#FCBC67"/>
			<stop  offset="1" style="stop-color:#F9A22B"/>
		</linearGradient>
		<path style="display:inline;fill:url(#SVGID_00000022546462076834749230000011453240974445057953_);" d="M153.7,18.8
			c2.9,0.2,5.9,0.3,8.8,0.5c2.5,0.2,5.1,0.3,7.4-0.6c-5.5-1.7-11.3-1-16.9-1.4c-6.4-0.5-117.9,2.1-124.3,2.1
			c-6.4,0-12.9,0.4-19.3,0.3c-3,0-5.9-0.1-8.9-0.2c0,0.5,0.1,1.1,0.1,1.6c0,0.4,0.2,0.8,0.4,1c9.3-0.6,18.6-1.3,27.9-1.6
			C35.6,20.5,147.1,18.3,153.7,18.8z"/>
		
			<linearGradient id="SVGID_00000070102324166321898860000007262181789557169540_" gradientUnits="userSpaceOnUse" x1="853.6835" y1="-156.5685" x2="1041.6093" y2="-73.4239" gradientTransform="matrix(0.9948 0.103 -0.103 0.9948 -879.1908 17.2273)">
			<stop  offset="0" style="stop-color:#FCBC67"/>
			<stop  offset="1" style="stop-color:#F9A22B"/>
		</linearGradient>
		<path style="display:inline;opacity:0.8;fill:url(#SVGID_00000070102324166321898860000007262181789557169540_);" d="M221.3,19.6
			c-4-0.3-8-0.7-12-1.1c-5.4-0.6-10.9-0.8-16.3-1.1c-5.4-0.3-10.8-0.6-16.2-1.1c-5.4-0.5-10.8-1.4-16.2-1.8
			c-18.3-1.3-141.8,3.1-160.1,2.5c0,0.7,0,1.4,0.1,2.1C1,19,1.6,19,2.1,19c3.1,0.1,6.2,0.2,9.4,0.1c6.5-0.1,12.9-0.3,19.3-0.3
			c6.3,0,117.6-2.3,123.9-2c5.4,0.2,11-0.2,16.1,1.6c0.3,0.1,0.2,0.4,0,0.5c-2.1,1.1-4.6,1.2-6.9,1c-2.8-0.1-5.6-0.3-8.4-0.5
			C148.7,19.1,37,21,30.2,21.2c-9.5,0.3-18.9,1-28.4,1.6c2.1,0.9,6.5-0.2,8.6,0c0.4,0,3.3-0.2,3,0c-0.7,0.4-1.7,0.8-2.9,1.1
			c17.2-1.1,139.5-4.1,156.6-2.2c5.3,0.6,10.6,1.2,16,1.3c5.5,0.1,11-0.1,16.4-0.3c7.7-0.3,15.4-0.5,23.1-0.1c1.1,0,2.1,0,3.2,0
			C224.4,21.6,222.9,20.6,221.3,19.6z"/>
		
			<linearGradient id="SVGID_00000021083581806860677720000005566147843204796847_" gradientUnits="userSpaceOnUse" x1="842.5342" y1="-154.2647" x2="1047.925" y2="-63.3929" gradientTransform="matrix(0.9948 0.103 -0.103 0.9948 -879.1908 17.2273)">
			<stop  offset="0" style="stop-color:#FCBC67"/>
			<stop  offset="1" style="stop-color:#F9A22B"/>
		</linearGradient>
		<path style="display:inline;fill:url(#SVGID_00000021083581806860677720000005566147843204796847_);" d="M31.7,25.7
			c10.8,0,126.6-1.3,137.3-0.9c10.9,0.5,21.7-0.4,32.6-1.2c2.8-0.2,5.6-0.4,8.5-0.6c-5.9,0.1-11.7,0.4-17.6,0.5
			c-5.1,0.1-10.2,0.1-15.3-0.2c-5.4-0.4-10.8-1.2-16.2-1.6c-16.4-1.3-137.8,1.9-154.1,3c-2,0.4-3.9,0.7-5.2,0.9
			c-0.6,0.1-1,0.7-1.2,1.5C10.8,26.4,21.2,25.7,31.7,25.7z"/>
		
			<linearGradient id="SVGID_00000125586489923491371590000005430516961897323192_" gradientUnits="userSpaceOnUse" x1="847.3512" y1="-155.0388" x2="1037.8787" y2="-70.7431" gradientTransform="matrix(0.9948 0.103 -0.103 0.9948 -879.1908 17.2273)">
			<stop  offset="0" style="stop-color:#FCBC67"/>
			<stop  offset="1" style="stop-color:#F9A22B"/>
		</linearGradient>
		<path style="display:inline;fill:url(#SVGID_00000125586489923491371590000005430516961897323192_);" d="M224.8,23.4
			c-0.8-0.1-1.5-0.1-2.3-0.1c-7.4,0.1-14.8,0.5-22.1,1.1c-10.9,0.9-21.6,1.6-32.6,1c-10.8-0.5-126.6,0.9-137.3,0.9
			c-10.1,0.1-20.2,0.8-30.2,1.5c-0.1,0.7-0.2,1.5-0.2,2.3c1.5-0.2,3-0.5,4.5-0.7c5-0.8,10.2-0.3,15.3-0.6
			c5.5-0.2,116.1-2.9,121.6-2.8c5.5,0.1,11,0.2,16.5,0.3c5.5,0.1,10.9,0.7,16.4,1.1c5.4,0.4,10.9,0.8,16.3,0.4
			c5.1-0.4,10.1-1.6,15.1-2.2c6.8-0.9,13.6-1,20.4-0.9c0.5-0.3,0.9-0.6,1.4-0.9c-0.1-0.1-0.2-0.2-0.3-0.2
			C226.4,23.6,225.6,23.5,224.8,23.4z"/>
		
			<linearGradient id="SVGID_00000003817895564462039020000004065982160024484744_" gradientUnits="userSpaceOnUse" x1="807.0453" y1="-145.2154" x2="1089.7969" y2="-20.1167" gradientTransform="matrix(0.9948 0.103 -0.103 0.9948 -879.1908 17.2273)">
			<stop  offset="0" style="stop-color:#FCBC67"/>
			<stop  offset="1" style="stop-color:#F9A22B"/>
		</linearGradient>
		<path style="display:inline;fill:url(#SVGID_00000003817895564462039020000004065982160024484744_);" d="M156.9,33.7
			c-2.1-0.1-4.2,0-6.3-0.1c-2.3-0.1-4.7-0.7-7-1.1c-2.9-0.4-110.8,1.8-113.6,1.6c-9.8-0.6-20.4-3.5-29.9,0.5c0,0.3,0,0.5,0,0.7
			c0,0.1,0,0.2,0,0.5c3-0.2,6.1-0.9,9.1-1.1c3.8-0.2,7.6-0.4,11.4,0c5.7,0.5,117.4-3,122.7-0.2c0.2,0.1,0.3,0.5,0,0.6
			c-3.2,1.1-111.7,3.9-115.1,3.8c-3.5,0-7,0-10.4,0C11.8,39.1,5.9,38.7,0,38.9c0,0.8,0,1.4,0.2,1.4c0.4,0,0.4,0.3,1,0
			c2.1,0.6,4.8,0.3,6.9,0.4c0.6,0,1.2,0.1,1.8,0.1c-1.2,0.3-2.3,0.5-3.5,0.8c0.9,0,1.8,0,2.7,0c5.6-0.3,11.3-0.7,16.9-0.8
			c5.6-0.1,116.2-3.2,121.7-3.9c2.8-0.4,5.6-0.7,8.4-1c1.3-0.1,2.6-0.2,3.9-0.2c1,0,1.9-0.1,2.7-0.6C161,33.9,158.7,33.8,156.9,33.7
			z"/>
		
			<linearGradient id="SVGID_00000099630949801220959620000003892516205008337319_" gradientUnits="userSpaceOnUse" x1="772.1356" y1="-156.1911" x2="1158.444" y2="14.7246" gradientTransform="matrix(0.9948 0.103 -0.103 0.9948 -879.1908 17.2273)">
			<stop  offset="0" style="stop-color:#FCBC67"/>
			<stop  offset="1" style="stop-color:#F9A22B"/>
		</linearGradient>
		<path style="display:inline;fill:url(#SVGID_00000099630949801220959620000003892516205008337319_);" d="M27.6,38.2
			c3.2,0,111.6-2.6,114.7-3.6c-2.6-1.1-110.6,1.3-113.4,1.1c-3-0.2-5.9-0.3-8.9-0.5C15.9,35,11.7,35,7.6,35.5c-2.5,0.3-5,0.8-7.5,1
			C0.1,37,0,37.6,0,38.2c5.5-0.2,11,0.1,16.5,0.1C20.2,38.3,23.9,38.2,27.6,38.2z"/>
		
			<linearGradient id="SVGID_00000038413541773197848240000009017795717893767305_" gradientUnits="userSpaceOnUse" x1="838.0875" y1="-144.4829" x2="1036.7274" y2="-56.5979" gradientTransform="matrix(0.9948 0.103 -0.103 0.9948 -879.1908 17.2273)">
			<stop  offset="0" style="stop-color:#FCBC67"/>
			<stop  offset="1" style="stop-color:#F9A22B"/>
		</linearGradient>
		<path style="display:inline;opacity:0.8;fill:url(#SVGID_00000038413541773197848240000009017795717893767305_);" d="M187.1,34.6
			c-10.2-0.4-20.2-1.6-30.3-2.9c-17.1-2.2-139.7-2-156.8,0.5c0,0.6,0,1.2,0,1.7c9.6-3.9,20.5-1.1,30.4-0.4
			c5.7,0.4,116.4-0.5,122-0.5c3.3,0,8-0.5,10.8,1.7c0.1,0.1,0.2,0.3,0.1,0.5c-1.4,1.3-3.4,0.9-5.1,1c-3,0.3-6.1,0.6-9.1,1
			c-5.7,0.7-116.5,3.9-122.3,4.1c-5.9,0.1-11.7,0.8-17.6,0.8c-1.6,0-3.2,0-4.8-0.1c-1.2,0.3-2.3,0.6-3.4,0.9c-0.1,0-0.3,0.1-0.4,0.2
			c1.9,0,3.8,0.1,5.7,0.3c5,0.5,10,1,15.1,1.1c10.8,0.2,126.5-3.8,137.2-4.8c17-1.5,34.1-2.7,51.2-2.5c1.2-1,2.5-2.1,3.7-3.1
			C204.9,35.2,195.9,35,187.1,34.6z"/>
		
			<linearGradient id="SVGID_00000093890684833673775910000012776220003481777290_" gradientUnits="userSpaceOnUse" x1="827.4426" y1="-142.207" x2="1034.7483" y2="-50.488" gradientTransform="matrix(0.9948 0.103 -0.103 0.9948 -879.1908 17.2273)">
			<stop  offset="0" style="stop-color:#FCBC67"/>
			<stop  offset="1" style="stop-color:#F9A22B"/>
		</linearGradient>
		<path style="display:inline;fill:url(#SVGID_00000093890684833673775910000012776220003481777290_);" d="M0.5,45.3
			c1.7,0.2,3.5,0.3,5.2,0.4c2.3,0,4.8,0,6.9,1.2c0.1,0.1,0.4,0.4,0.1,0.5c-3.6,2.3-8,2.7-12.2,3.1c0,0.4,0.1,0.8,0.1,1.2
			c3.1-0.9,6.4-1.2,9.7-1.4c4.8-0.3,9.4-0.7,14.2-1.7c5-1,115-4.5,120-4.9c4.9-0.3,9.8-0.4,14.7-0.5c15.9-0.4,31.7-2.5,47.6-3.3
			c0.8-0.7,1.6-1.4,2.4-2.1c-16.7-0.2-33.3,1-49.9,2.5c-10.7,1-126.5,5-137.3,4.8c-4.7-0.1-9.4-0.4-14.1-0.9c-2.5-0.3-5-0.5-7.5-0.5
			c-0.1,0.3,0,0.6,0,0.9C0.5,44.8,0.5,45,0.5,45.3z"/>
		
			<linearGradient id="SVGID_00000093166103688858943780000002687684991519450557_" gradientUnits="userSpaceOnUse" x1="819.538" y1="-143.2034" x2="1034.2286" y2="-48.2172" gradientTransform="matrix(0.9948 0.103 -0.103 0.9948 -879.1908 17.2273)">
			<stop  offset="0" style="stop-color:#FCBC67"/>
			<stop  offset="1" style="stop-color:#F9A22B"/>
		</linearGradient>
		<path style="display:inline;fill:url(#SVGID_00000093166103688858943780000002687684991519450557_);" d="M164.2,46.1
			c13-1,26.1-3.2,39.2-3.3c0.9-0.8,1.8-1.6,2.7-2.3c-15.5,0.8-30.9,2.8-46.4,3.2c-5.2,0.1-10.5,0.2-15.7,0.6
			c-4.9,0.4-114.6,3.8-119.4,4.8c-4.5,0.9-9,1.4-13.6,1.7C7.5,51,4,51.2,0.7,52.2c0,0.1,0,0.2,0,0.3c6.7-0.1,13.3-0.1,20-0.2
			C33.4,50.2,151.4,47.1,164.2,46.1z"/>
		
			<linearGradient id="SVGID_00000070816692007532749670000004912922456641415823_" gradientUnits="userSpaceOnUse" x1="777.2783" y1="-166.1844" x2="1033.0345" y2="-53.0293" gradientTransform="matrix(0.9948 0.103 -0.103 0.9948 -879.1908 17.2273)">
			<stop  offset="0" style="stop-color:#FCBC67"/>
			<stop  offset="1" style="stop-color:#F9A22B"/>
		</linearGradient>
		<path style="display:inline;opacity:0.8;fill:url(#SVGID_00000070816692007532749670000004912922456641415823_);" d="M163.6,46.8
			c-11.3,0.8-127.8,3.9-139.1,5.5c7.5-0.1,120-2.7,127.5-2.7c14.5,0,29.2,0.7,43.7,0c2.4-2.1,4.7-4.1,7.1-6.2
			C189.7,43.6,176.6,45.8,163.6,46.8z"/>
	</g>
	
		<linearGradient id="SVGID_00000138570086290503412450000012722208851482312604_" gradientUnits="userSpaceOnUse" x1="-1002.6115" y1="42.934" x2="-808.1516" y2="42.934" gradientTransform="matrix(-1 1.612813e-03 1.612813e-03 1 -807.4906 11.8433)">
		<stop  offset="0" style="stop-color:#FCBC67"/>
		<stop  offset="1" style="stop-color:#F9A22B"/>
	</linearGradient>
	<path style="display:none;opacity:0.5;fill:url(#SVGID_00000138570086290503412450000012722208851482312604_);" d="M194.7,53.1
		c0.1-0.7,0.3-1.4,0.5-2.1c-15.2,0.7-30.6,0-45.8,0c-8.5,0-122,2.1-130.5,2.4c-3.7,0.2-7.4-0.3-11.1-0.1c-1.9,0.1-3.8,0.2-5.7,0.2
		c0,0,0,0-0.1,0c-0.4,0.1-0.9,0.1-1.3,0.1c0,0,0,0.1,0.1,0.1c0.4,0.6,0.7,1.1,1,1.7l0,0c0.3,0.6,8-0.2,8.8-0.3
		c2.9-0.1,5.8-0.3,8.8-0.1c5.3,0.3,115.7-2.4,121-2.2c0.1,0,0.1,0,0.1,0.1c14.1,0.1,21-0.2,31.3,0.4
		C179.5,52.8,187.1,53.5,194.7,53.1C194.7,53.2,194.7,53.2,194.7,53.1z"/>
	
		<linearGradient id="SVGID_00000159441994003269240720000010495257267862198916_" gradientUnits="userSpaceOnUse" x1="-1035.3597" y1="28.547" x2="-1002.617" y2="28.547" gradientTransform="matrix(-1 1.612813e-03 1.612813e-03 1 -807.4906 11.8433)">
		<stop  offset="0" style="stop-color:#FCBC67"/>
		<stop  offset="1" style="stop-color:#F9A22B"/>
	</linearGradient>
	<path style="display:none;opacity:0.5;fill:url(#SVGID_00000159441994003269240720000010495257267862198916_);" d="M227.9,24.3
		c-0.2,0.2-0.4,0.5-0.6,0.7c-4.7,4.3-10.6,7.9-15.4,12c-5.2,4.4-9.6,7.7-14.7,12.2c-0.1,0.2-1,1.1-1.3,1.2c-0.2,0.7-0.4,2-0.6,2.7
		c0,0,0,0,0,0c0,0,0.1,0,0.1,0c0,0,0,0,0,0c1.7-0.2,7.5-5.9,8.5-6.7c3-2.4,6-4.7,8.9-7.2c4.6-4,9.3-8.3,14.4-11.7
		c0.1-0.8,0.4-1.6,0.6-2.4C227.8,24.9,227.8,24.6,227.9,24.3z"/>
	<g>
		<g>
			<g>
				<path class="st29" d="M88.6,34.9h3.3l-6.6-17.5h-2.9l-6.6,17.5H79l1.6-5h6.3L88.6,34.9z M81.3,27.4l2.2-7.1l2.4,7.1H81.3z"/>
				<path class="st29" d="M96.9,17.5v17.5c0,0,0,3.3-3.7,2.5v2.1c0,0,6.6,1.7,6.6-4.6V17.5H96.9z"/>
				<rect x="107" y="17.3" class="st29" width="3.3" height="17.9"/>
				<path class="st29" d="M120.1,28.7c0,0-0.8-3.3,0.4-5.8c0,0,2.1-5.4,8.7-2.1l0.6-2.3c0,0-6.7-3.2-10.8,1l0,0c0,0-0.1,0.1-0.2,0.2
					c-0.5,0.5-0.9,1.2-1.3,1.9c-0.2,0.3-0.4,0.7-0.5,1.2c-0.1,0.3-0.2,0.6-0.3,0.9c0,0,0,0.1,0,0.3c0,0.2-0.1,0.4-0.1,0.6
					c0,0.1-0.1,0.8-0.1,1.8c0,0.1,0,0.1,0,0.2l0,0c0,0.1,0,0.2,0,0.3c0.1,2,0.6,4.7,2.5,6.2c0.1,0,0.1,0.1,0.2,0.1
					c0,0,0.3,0.3,1,0.6c0,0,0,0,0,0h0c1.5,0.7,4.5,1.7,9.4,0.6V32C129.7,32,121.4,34.9,120.1,28.7z"/>
				<path class="st29" d="M146.9,17.6c-1.8-0.7-3.4-0.8-4.6-0.7c-2.1,0.4-7.4,2.1-7.1,9.4c0,0-0.2,8.5,8.1,8.9c0,0,8.3,0.4,8.3-9.1
					C151.7,26.2,152,19.9,146.9,17.6z M149,26.3c0,6.6-5.6,6.3-5.6,6.3c-5.6-0.3-5.4-6.2-5.4-6.2c-0.1-3,1-4.7,2.3-5.6
					c0.1-0.1,1.8-1.3,3.9-1c0.8,0.1,1.5,0.4,2,0.7c0.2,0.1,0.4,0.3,0.6,0.4C149.1,23,149,26.3,149,26.3z"/>
				<path class="st29" d="M165,17.5l-0.1,0h-6.8l0,1.5v16.2l0.1,0l-0.1,0.1c0,0,4.1,0.1,7.2-0.2l-0.1,0l0.1,0c0,0,7.1-0.8,7.1-9.1
					C172.5,25.8,173.3,18.3,165,17.5z M169.4,25.9c0,1.4-0.2,2.6-0.6,3.5c0,0.1-0.1,0.2-0.1,0.3c0,0,0,0,0,0c-1.2,2.3-3.5,2.9-4.6,3
					l-0.7,0h0l0,0l-2.2,0.1V20l3.5,0C169.4,20.6,169.4,25.9,169.4,25.9z"/>
			</g>
		</g>
		<g>
			
				<linearGradient id="SVGID_00000157279331588765478140000009855262618147116728_" gradientUnits="userSpaceOnUse" x1="30.0345" y1="26.2417" x2="67.218" y2="26.2417">
				<stop  offset="0" style="stop-color:#4D4CC7"/>
				<stop  offset="1" style="stop-color:#9F4CC7"/>
			</linearGradient>
			<path style="fill:url(#SVGID_00000157279331588765478140000009855262618147116728_);" d="M66.7,19.9c-3-12.8-14.6-9.5-14.6-9.5
				c-12.2,2.3-19,11-20.5,13.2C30.3,25.8,30,27.8,30,29c0,0.8,0.1,1.3,0.1,1.3c1.5,6.8,10.7,10.4,10.7,10.4
				c10.1,4.5,18.5-0.9,18.5-0.9C70,33,66.7,19.9,66.7,19.9z"/>
			<g>
				
					<linearGradient id="SVGID_00000158023772907294548410000014812436245977092537_" gradientUnits="userSpaceOnUse" x1="46.5023" y1="27.0293" x2="50.968" y2="27.0293">
					<stop  offset="0" style="stop-color:#4D4CC7"/>
					<stop  offset="1" style="stop-color:#9F4CC7"/>
				</linearGradient>
				<line style="fill:url(#SVGID_00000158023772907294548410000014812436245977092537_);" x1="46.5" y1="33.9" x2="51" y2="20.2"/>
				<path class="st29" d="M46.5,35.2c-0.1,0-0.3,0-0.4-0.1c-0.7-0.2-1-1-0.8-1.6l4.5-13.7c0.2-0.7,1-1,1.6-0.8c0.7,0.2,1,1,0.8,1.6
					l-4.5,13.7C47.6,34.8,47,35.2,46.5,35.2z"/>
			</g>
			<path class="st29" d="M42,32.2c-0.3,0-0.7-0.1-0.9-0.4l-3.9-3.9c-0.5-0.5-0.5-1.3,0-1.8l3.9-4.2c0.5-0.5,1.3-0.6,1.8-0.1
				c0.5,0.5,0.6,1.3,0.1,1.8L40,27l3,3c0.5,0.5,0.5,1.3,0,1.8C42.7,32.1,42.4,32.2,42,32.2z"/>
			<path class="st29" d="M55.4,32.2c-0.3,0-0.7-0.1-0.9-0.4c-0.5-0.5-0.5-1.3,0-1.8l3-3l-3-3.3c-0.5-0.5-0.5-1.3,0.1-1.8
				c0.5-0.5,1.3-0.5,1.8,0.1l3.9,4.2c0.5,0.5,0.5,1.3,0,1.8l-3.9,3.9C56.1,32.1,55.8,32.2,55.4,32.2z"/>
		</g>
	</g>
</g>
</svg>
