<svg version="1.1" id="Layer_1" xmlns="http://www.w3.org/2000/svg" x="0" y="0" viewBox="0 0 227.6 57" style="enable-background:new 0 0 227.6 57" xml:space="preserve"><style>.st30{fill:#fff}</style><linearGradient id="SVGID_1_" gradientUnits="userSpaceOnUse" x1="-22.338" y1="391.934" x2="207.482" y2="391.934" gradientTransform="matrix(1 .00161 .00161 -1 20.602 422.185)"><stop offset="0" style="stop-color:#fcbc67"/><stop offset="1" style="stop-color:#f9a22b"/></linearGradient><linearGradient id="SVGID_00000119818357396628066810000012370245962530618786_" gradientUnits="userSpaceOnUse" x1="197.13" y1="399.062" x2="205.477" y2="399.062" gradientTransform="matrix(1 .00161 .00161 -1 20.602 422.185)"><stop offset="0" style="stop-color:#fcbc67"/><stop offset="1" style="stop-color:#f9a22b"/></linearGradient><linearGradient id="SVGID_00000058551676178492683900000002056674240813376391_" gradientUnits="userSpaceOnUse" x1="201.928" y1="381.808" x2="206.478" y2="381.808" gradientTransform="matrix(1 .00161 .00161 -1 20.602 422.185)"><stop offset="0" style="stop-color:#fcbc67"/><stop offset="1" style="stop-color:#f9a22b"/></linearGradient><linearGradient id="SVGID_00000114768764653430375860000014961419587955709113_" gradientUnits="userSpaceOnUse" x1="-750.013" y1="395.685" x2="-730.721" y2="294.546" gradientTransform="scale(-1) rotate(-7.221 -3427.774 -4807.274)"><stop offset="0" style="stop-color:#fcbc67"/><stop offset="1" style="stop-color:#f9a22b"/></linearGradient><path style="fill:url(#SVGID_00000114768764653430375860000014961419587955709113_)" d="M227.4 51.6c-15.4.2-135.9.2-151.3.5-14.5.3-29.2 1.3-43.7 1C21.9 44.4 11.6 35.4-.1 28.2c5.9-4.7 12.6-8.6 18.8-12.8 5.3-3.5 10.6-7 16.1-10.2.1 0 .1.1.2.1h.3c.2 0 .5-.1.7-.1 14.9-1.3 29.9-.5 44.8-.8 13.5-.3 132 .5 145.5.8.2 4.8.7 10.3.4 15.1-.2 3.3-7.1 1.5-9.7 1.8-.4.1-3.3-.1-3 .1 2.6 1.4 8.8 2.3 11.8 2.6 2.2.3 1.7 7.7 1.7 9.6 0 .5.4 4.9.1 5-.4 0-.4.3-1 0-2.1.7-4.8.4-6.9.5-.6 0-1.2.1-1.8.1 3 .6 6 1.2 8.9 2 .7.2.9.9.7 1.6-.2.8-.2 1.6-.3 2.4.1.5.2 1.1.2 1.6.1 1.7-.1 3.3 0 4z"/><linearGradient id="SVGID_00000072961363038818955110000015888073913405991818_" gradientUnits="userSpaceOnUse" x1="11.705" y1="367.772" x2="206.202" y2="367.772" gradientTransform="matrix(1 .00161 .00161 -1 20.602 422.185)"><stop offset="0" style="stop-color:#fcbc67"/><stop offset="1" style="stop-color:#f9a22b"/></linearGradient><linearGradient id="SVGID_00000011020100764154024890000004848580348538194599_" gradientUnits="userSpaceOnUse" x1="-21.637" y1="379.581" x2="11.754" y2="379.581" gradientTransform="matrix(1 .00161 .00161 -1 20.602 422.185)"><stop offset="0" style="stop-color:#fcbc67"/><stop offset="1" style="stop-color:#f9a22b"/></linearGradient><g style="enable-background:new"><path class="st30" d="m90.3 36.1-1.4-3.8h-6.7l-1.4 3.8h-3l6-16.2h3.5l6 16.2h-3zm-2.4-6.5-2.4-6.7-2.4 6.7h4.8zM98.7 35.7c-1-.4-1.9-1-2.6-1.8s-1.3-1.6-1.7-2.7c-.4-1-.6-2.1-.6-3.3s.2-2.3.6-3.3c.4-1 1-1.9 1.7-2.7.7-.8 1.6-1.3 2.7-1.8 1-.4 2.2-.6 3.5-.6 1.2 0 2.3.1 3.3.4 1 .3 1.9.6 2.6 1l-1.1 2.5c-.6-.4-1.3-.7-2.1-.9-.8-.2-1.7-.3-2.6-.3-.7 0-1.4.1-2.1.3-.7.2-1.2.6-1.7 1-.5.5-.9 1.1-1.2 1.8-.4.9-.5 1.7-.5 2.7s.1 1.8.4 2.5.7 1.3 1.2 1.8 1.1.8 1.7 1.1c.7.2 1.4.3 2.1.3.6 0 1.1-.1 1.7-.2.6-.1 1.1-.3 1.6-.5v-2.9H102v-2.7h6.5V35c-.4.2-.8.4-1.4.6-.5.2-1.1.3-1.6.5-.6.1-1.1.2-1.7.3-.6.1-1.1.1-1.7.1-1.2-.2-2.4-.4-3.4-.8zM123.2 36.1l-1.4-3.8h-6.7l-1.4 3.8h-3l6-16.2h3.5l6 16.2h-3zm-2.3-6.5-2.4-6.7-2.4 6.7h4.8zM132.7 19.9c1.3 0 2.6.2 3.8.5 1.2.3 2.1.8 3 1.5.8.7 1.5 1.5 2 2.5s.7 2.2.7 3.5c0 1.3-.2 2.5-.7 3.5-.5 1-1.1 1.9-1.9 2.6-.8.7-1.8 1.2-2.9 1.6-1.1.4-2.4.5-3.8.5h-4.4V19.9h4.2zm2.6 13.3c.8-.2 1.5-.5 2-.9s1-1 1.3-1.7c.3-.7.5-1.6.5-2.6 0-.9-.2-1.8-.5-2.4-.3-.7-.7-1.2-1.3-1.7-.6-.4-1.2-.8-2-1-.8-.2-1.6-.3-2.6-.3h-1.4v10.9h1.3c1 0 1.9-.1 2.7-.3zM145 20h2.9v16.2H145V20zM154.8 29.8v6.4h-2.9V20h6.1c1.1 0 2 .1 2.7.4.7.3 1.4.6 1.8 1.1.5.5.8 1 1 1.6s.3 1.2.3 1.8c0 .5-.1.9-.2 1.4-.1.5-.3.9-.6 1.3s-.6.8-1 1.1c-.4.3-.9.6-1.5.8l4.2 6.8h-3.2l-4-6.4-2.7-.1zm0-2.5h2.6c.5 0 1 0 1.5-.1.4-.1.8-.2 1.1-.4.3-.2.5-.4.7-.7.2-.3.3-.7.3-1.2 0-.8-.3-1.4-.9-1.8-.6-.4-1.5-.5-2.7-.5h-2.6v4.7z"/></g></svg>