<svg version="1.1" id="Layer_1" xmlns="http://www.w3.org/2000/svg" x="0" y="0" viewBox="0 0 227.6 57" style="enable-background:new 0 0 227.6 57" xml:space="preserve"><style>.st2{fill:#fff}</style><linearGradient id="SVGID_1_" gradientUnits="userSpaceOnUse" x1="-97.465" y1="83.042" x2="290.886" y2="133.52" gradientTransform="scale(1 -1) rotate(-7.406 -929.89 -245.835)"><stop offset=".017" style="stop-color:#8d56a3"/><stop offset=".254" style="stop-color:#7356a4"/><stop offset=".497" style="stop-color:#5356a5"/><stop offset="1" style="stop-color:#8d56a3"/></linearGradient><path d="M.2 49.3c15.4.2 135.9.6 151.3 1 14.5.4 29.2 1.4 43.7 1.1 10.5-8.7 20.9-17.7 32.5-24.8-5.8-4.7-12.5-8.6-18.7-12.8-5.3-3.5-10.6-7.1-16.1-10.2-.1 0-.1.1-.2.1h-.3c-.2 0-.5-.1-.7-.1-14.9-1.3-29.9-.6-44.8-.9-13.5-.4-132.1.1-145.5.3C1.1 7.8.7 13.3 1 18c.2 3.3 7.1 1.5 9.7 1.9.4.1 3.3-.1 3 .1-2.6 1.4-8.8 2.2-11.8 2.6-2.2.3-1.7 7.7-1.8 9.6 0 .5-.4 4.9-.1 5 .4 0 .4.3 1 0 2.1.7 4.8.4 6.9.5.6 0 1.2.1 1.8.1-3 .6-6 1.2-8.9 2-.7.2-.9.9-.7 1.6.2.8.2 1.6.3 2.4-.1.5-.2 1.1-.2 1.6-.1 1.6 0 3.2 0 3.9z" style="fill:url(#SVGID_1_)"/><linearGradient id="SVGID_00000023979642205877542600000003799310081971057034_" gradientUnits="userSpaceOnUse" x1="-199.49" y1="1589.613" x2="-173.063" y2="1589.613" gradientTransform="rotate(-7.862 -11482.941 -919.39)"><stop offset="0" style="stop-color:#fcbc67"/><stop offset="1" style="stop-color:#f9a22b"/></linearGradient><path style="fill:url(#SVGID_00000023979642205877542600000003799310081971057034_)" d="M37.1 15.7 39 29.6c0 .3.4.4.6.2l3.8-4.7c.6-.7.9-1.7.7-2.6l-1-7.6c-.2-1.7-1.8-2.8-3.4-2.6-1.6.2-2.8 1.7-2.6 3.4z"/><path class="st2" d="m66.3 37.3-.2-.2-10-8.2c.8-.4 1.1-1.4.8-2.2-.3-.7-1.1-1.2-1.9-1.1-.7.1-1.2.6-1.4 1.2l-2.5-2.1c-.3-.2-.3-.6-.1-.8l2.1-2.7c-.6-.2-1.1-.7-1.2-1.4-.1-.8.3-1.6 1-1.9.8-.4 1.8-.1 2.2.7l4.7-5.9c1.2-1.5 0-3.7-1.9-3.5-.5.1-1 .4-1.4.8L40.2 31.2c-.5.7-.7 1.5-.6 2.3l.6 4.2c.2 1.7 1.8 2.8 3.4 2.6 1.7-.2 2.8-1.8 2.6-3.4l-.5-3.6c-.1-.5.4-.8.9-.6L63.7 41c2.3 1 4.3-1.9 2.6-3.7z"/><linearGradient id="SVGID_00000057115612791878142980000006984060183630815371_" gradientUnits="userSpaceOnUse" x1="-199.463" y1="1590.064" x2="-173.025" y2="1590.064" gradientTransform="rotate(-7.862 -11482.941 -919.39)"><stop offset="0" style="stop-color:#fcbc67"/><stop offset="1" style="stop-color:#f9a22b"/></linearGradient><circle style="fill:url(#SVGID_00000057115612791878142980000006984060183630815371_)" cx="53.7" cy="19.6" r=".9"/><linearGradient id="SVGID_00000045579933322899750380000015782263354190364810_" gradientUnits="userSpaceOnUse" x1="-200.349" y1="1594.613" x2="-171.989" y2="1594.613" gradientTransform="rotate(-7.862 -11482.941 -919.39)"><stop offset="0" style="stop-color:#fcbc67"/><stop offset="1" style="stop-color:#f9a22b"/></linearGradient><path style="fill:url(#SVGID_00000045579933322899750380000015782263354190364810_)" d="m63.9 21.6-5.4-4.4c-.3-.2-.6-.2-.8.1l-5.2 6.5c-.2.3-.2.7.1.9l.3.2c.2.1.4.1.6 0 1.2-.7 2.6-.4 3.5.3.9.7 1.4 2 .9 3.2-.1.2 0 .5.2.7l.8.7c.3.2.6.2.9-.1l4.5-5.6c.5-.7.4-1.8-.4-2.5z"/><path class="st2" d="M76.2 14h-1.4c-.3 0-.5.2-.5.5v20c0 .3.2.5.5.5h1.4c.3 0 .5-.2.5-.5v-20c0-.3-.2-.5-.5-.5zM81.4 14H80c-.3 0-.5.2-.5.5v2.2l.2 4.7c0 .3.2.5.5.5h1.1c.3 0 .5-.2.5-.5l.1-4.7v-2.2c0-.3-.2-.5-.5-.5zM90.8 26.3l5.1-5.1c.1-.1.2-.4.1-.5-.1-.2-.3-.3-.5-.3h-1.7c-.1 0-.3.1-.4.1-1 1-2.5 2.5-3.9 4-.8.8-1.5 1.6-2.1 2.2l-.1-12.2c0-.3-.2-.5-.5-.5h-1.4c-.3 0-.5.2-.5.5v20c0 .3.2.5.5.5h1.4c.3 0 .5-.2.5-.5v-4.9L89 28l5.1 6.8c.1.1.2.2.4.2h1.7c.2 0 .4-.1.4-.3s.1-.4 0-.5l-5.8-7.9zM108.4 31.6v-6.7c0-3.2-1.8-4.8-5.3-4.8-4.1 0-5.1 2.7-5.3 4.2 0 .1 0 .3.1.4.1.1.2.2.4.2h1.4c.2 0 .4-.2.5-.4.3-1.2.7-2.2 3-2.2 2.6 0 3 1.4 3 2.7v.8h-2.1c-5.7 0-6.9 2.7-6.9 4.9 0 2.1 1.3 4.6 5 4.6 2 0 3.3-.7 4.1-1.5 0 .3.1.6.2.8.1.2.3.3.5.3h1.3c.1 0 .3-.1.4-.2.1-.1.1-.3.1-.4 0-.2-.2-1.1-.2-2.5-.1 0-.1-.1-.2-.2zm-6.2 1.5c-1.6 0-2.6-.9-2.6-2.4 0-1.2.5-2.6 4.4-2.6h2.1c0 3.2-.6 5-3.9 5zM118.6 20c-1.7.1-3.2.8-4.2 2.1v-1.2c0-.3-.2-.5-.5-.5h-1.3c-.3 0-.5.2-.5.5v13.6c0 .3.2.5.5.5h1.4c.3 0 .5-.2.5-.5v-7.1c0-2.9 1.6-4.7 4.2-4.9.3 0 .5-.2.5-.5v-1.5c0-.1-.1-.3-.2-.4-.2-.1-.3-.1-.4-.1zM127.1 20c-1.7.1-3.2.8-4.2 2.1v-1.2c0-.3-.2-.5-.5-.5H121c-.3 0-.5.2-.5.5v13.6c0 .3.2.5.5.5h1.4c.3 0 .5-.2.5-.5v-7.1c0-2.9 1.6-4.7 4.2-4.9.3 0 .5-.2.5-.5v-1.5c0-.1-.1-.3-.2-.4-.1-.1-.2-.1-.3-.1zM131 20.4h-1.4c-.3 0-.5.2-.5.5v13.6c0 .3.2.5.5.5h1.4c.3 0 .5-.2.5-.5V20.9c0-.3-.2-.5-.5-.5zM131 14h-1.4c-.3 0-.5.2-.5.5v2.6c0 .3.2.5.5.5h1.4c.3 0 .5-.2.5-.5v-2.6c0-.3-.2-.5-.5-.5zM140.2 20.1c-3.9 0-6.4 3-6.4 7.7 0 3.5 1.6 7.5 6.2 7.5 2.9 0 5-1.4 5.9-4.1.1-.2 0-.3-.1-.5-.1-.1-.2-.2-.4-.2H144c-.2 0-.4.1-.5.3-.5 1.2-1.1 2.3-3.4 2.3-2.2 0-3.7-1.8-3.9-4.7h9.5c.3 0 .5-.2.5-.5v-1.1c0-3.3-1.9-6.7-6-6.7zm-3.8 6.1c.4-2.5 1.7-3.8 3.8-3.8 2.1 0 3.5 1.5 3.7 3.8h-7.5zM139.4 18.8c.1.1.2.2.4.2h1.5c.2 0 .4-.1.5-.3.1-.2.1-.4-.1-.5l-3.7-4.3c-.1-.1-.2-.2-.4-.2h-1.9c-.2 0-.4.1-.5.3-.1.2 0 .4.1.5l4.1 4.3zM155.2 20c-1.7.1-3.2.8-4.2 2.1v-1.2c0-.3-.2-.5-.5-.5h-1.3c-.3 0-.5.2-.5.5v13.6c0 .3.2.5.5.5h1.4c.3 0 .5-.2.5-.5v-7.1c0-2.9 1.6-4.7 4.2-4.9.3 0 .5-.2.5-.5v-1.5c0-.1-.1-.3-.2-.4-.2-.1-.3-.1-.4-.1zM162.5 20.1c-3.9 0-6.4 3-6.4 7.7 0 3.5 1.6 7.5 6.2 7.5 2.9 0 5-1.4 5.9-4.1.1-.2 0-.3-.1-.5-.1-.1-.2-.2-.4-.2h-1.4c-.2 0-.4.1-.5.3-.5 1.2-1.1 2.3-3.4 2.3-2.2 0-3.7-1.8-3.9-4.7h9.5c.3 0 .5-.2.5-.5v-1.1c0-3.3-1.9-6.7-6-6.7zm-3.9 6.1c.4-2.5 1.7-3.8 3.8-3.8 2.1 0 3.5 1.5 3.7 3.8h-7.5z"/></svg>