<svg id="Layer_1" data-name="Layer 1" xmlns="http://www.w3.org/2000/svg" xmlns:xlink="http://www.w3.org/1999/xlink" width="80.37mm" height="17.24mm" viewBox="0 0 227.81 48.86">
  <defs>
    <style>
      .cls-1 {
        fill: url(#linear-gradient);
      }

      .cls-2 {
        fill: #fff;
      }
    </style>
    <linearGradient id="linear-gradient" x1="-184.98" y1="-41.93" x2="203.38" y2="8.55" gradientTransform="matrix(0.99, 0.13, 0.13, -0.99, 126.97, 6.69)" gradientUnits="userSpaceOnUse">
      <stop offset="0.02" stop-color="#8d57a3"/>
      <stop offset="0.21" stop-color="#7957a4"/>
      <stop offset="0.5" stop-color="#5357a6"/>
      <stop offset="1" stop-color="#8d57a3"/>
    </linearGradient>
  </defs>
  <title>Sign 4 AR</title>
  <path class="cls-1" d="M.31,46.71c15.4.2,135.9.6,151.3,1,14.5.4,29.2,1.4,43.7,1.1,10.5-8.7,20.9-17.7,32.5-24.8-5.8-4.7-12.5-8.6-18.7-12.8-5.3-3.5-10.6-7.1-16.1-10.2-.1,0-.1.1-.2.1h-.3c-.2,0-.5-.1-.7-.1-14.9-1.3-29.9-.6-44.8-.9-13.5-.3-132,.1-145.5.3a126.92,126.92,0,0,0-.4,15.1c.2,3.3,7.1,1.5,9.7,1.9.4.1,3.3-.1,3,.1-2.6,1.4-8.8,2.2-11.8,2.6-2.2.3-1.7,7.7-1.8,9.6,0,.5-.4,4.9-.1,5s.4.3,1,0c2.1.7,4.8.4,6.9.5.6,0,1.2.1,1.8.1-3,.6-6,1.2-8.9,2a1.18,1.18,0,0,0-.7,1.6,19.67,19.67,0,0,1,.3,2.4,8.75,8.75,0,0,0-.2,1.6h0C.21,44.41.41,45.91.31,46.71Z"/>
  <g>
    <path class="cls-2" d="M65.71,33.21c-.5-.1-.9-.2-1.3-.3a3.7,3.7,0,0,1-1.1-.5,7,7,0,0,1-1-.8,4,4,0,0,1-1-1.8,8.52,8.52,0,0,1-.3-2.3V21h2.8v6.2a6.05,6.05,0,0,0,.2,1.5,1.7,1.7,0,0,0,.6,1,2.62,2.62,0,0,0,1.3.6,8.81,8.81,0,0,0,1.7.2h1.6V21H72v12.3h-4.6A9.15,9.15,0,0,1,65.71,33.21Zm-.3-14.4a1.43,1.43,0,0,1-.5-1.1,1.79,1.79,0,0,1,2.9-1.1,1.43,1.43,0,0,1,.5,1.1,1.29,1.29,0,0,1-.5,1.1,2.14,2.14,0,0,1-1.2.4A1.59,1.59,0,0,1,65.41,18.81Z"/>
    <path class="cls-2" d="M78.61,14.61V28h2.6v2.8h-5.4V14.61Z"/>
    <path class="cls-2" d="M84.71,28v2.8h-3.9V28Z"/>
    <path class="cls-2" d="M88.21,28.11v2.8h-3.9v-2.8Z"/>
    <path class="cls-2" d="M91.81,28.11v2.8h-3.9v-2.8Z"/>
    <path class="cls-2" d="M95.31,28.11v2.8h-3.9v-2.8Z"/>
    <path class="cls-2" d="M98.91,28.11v2.8H95v-2.8Z"/>
    <path class="cls-2" d="M110.91,28.11V26a3.75,3.75,0,0,0-.1-1.1,2,2,0,0,0-.4-.8,4.35,4.35,0,0,0-.7-.6,3,3,0,0,0-1-.2h-8.4a2.28,2.28,0,0,1-.6-1.2,4.15,4.15,0,0,1-.3-1.6l3.3-5.9h3l-3.1,5.9h5.9a6.05,6.05,0,0,1,2.4.4,4.39,4.39,0,0,1,1.8,1.2,4.61,4.61,0,0,1,.9,1.7,8.52,8.52,0,0,1,.3,2.3v4.8H98.61v-2.8Z"/>
    <path class="cls-2" d="M116.21,35.21a3.54,3.54,0,0,1-.6-.1l-.2-2.8a2,2,0,0,0,.7.1h.6a1.36,1.36,0,0,0,1.2-.5,2.81,2.81,0,0,0,.3-1.5V19.51H121V28h2.2v2.8H121a5.29,5.29,0,0,1-1.1,3.4,3.8,3.8,0,0,1-2.9,1A1.1,1.1,0,0,1,116.21,35.21Zm2.2-17.6a1.43,1.43,0,0,1-.5-1.1,1.79,1.79,0,0,1,2.9-1.1,1.43,1.43,0,0,1,.5,1.1,1.29,1.29,0,0,1-.5,1.1,1.59,1.59,0,0,1-1.2.4A3.37,3.37,0,0,1,118.41,17.61Z"/>
    <path class="cls-2" d="M126.71,28.11v2.8h-3.9v-2.8Z"/>
    <path class="cls-2" d="M130.21,28.11v2.8h-3.9v-2.8Z"/>
    <path class="cls-2" d="M133.81,28.11v2.8h-3.9v-2.8Z"/>
    <path class="cls-2" d="M137.31,28.11v2.8h-3.9v-2.8Z"/>
    <path class="cls-2" d="M139.41,28.11v-8.5h2.8v11.3h-5.3v-2.8Zm.2-10.5a1.43,1.43,0,0,1-.5-1.1,1.79,1.79,0,0,1,2.9-1.1,1.43,1.43,0,0,1,.5,1.1,1.29,1.29,0,0,1-.5,1.1,2,2,0,0,1-2.4,0Z"/>
    <path class="cls-2" d="M146.31,34.81a2.56,2.56,0,0,1-.7-1.9V32h4.2v1.5h-2.6a1.17,1.17,0,0,0,.2.7,1,1,0,0,0,.8.3h.8v.9h-1A3.78,3.78,0,0,1,146.31,34.81Zm2.8-20.1v16.2h-2.8V14.71Z"/>
  </g>
</svg>
