<svg version="1.1" id="Layer_1" xmlns="http://www.w3.org/2000/svg" x="0" y="0" viewBox="0 0 227.6 57" style="enable-background:new 0 0 227.6 57" xml:space="preserve"><style>.st29{fill:#fff}</style><linearGradient id="SVGID_1_" gradientUnits="userSpaceOnUse" x1="-1036.039" y1="18.118" x2="-806.471" y2="18.118" gradientTransform="matrix(-1 .00161 .00161 1 -807.49 11.843)"><stop offset="0" style="stop-color:#fcbc67"/><stop offset="1" style="stop-color:#f9a22b"/></linearGradient><linearGradient id="SVGID_00000174571615497727774020000001870673248440064434_" gradientUnits="userSpaceOnUse" x1="-816.491" y1="13.696" x2="-808.157" y2="13.696" gradientTransform="matrix(-1 .00161 .00161 1 -807.49 11.843)"><stop offset="0" style="stop-color:#fcbc67"/><stop offset="1" style="stop-color:#f9a22b"/></linearGradient><linearGradient id="SVGID_00000052103829490248379440000001703332086753567893_" gradientUnits="userSpaceOnUse" x1="-812.1" y1="31.014" x2="-807.556" y2="31.014" gradientTransform="matrix(-1 .00161 .00161 1 -807.49 11.843)"><stop offset="0" style="stop-color:#fcbc67"/><stop offset="1" style="stop-color:#f9a22b"/></linearGradient><linearGradient id="SVGID_00000080170120621725173430000004551593515098094263_" gradientUnits="userSpaceOnUse" x1="979.248" y1="-138.272" x2="998.538" y2="-37.147" gradientTransform="matrix(.9948 .103 -.103 .9948 -879.19 17.227)"><stop offset="0" style="stop-color:#fcbc67"/><stop offset="1" style="stop-color:#f9a22b"/></linearGradient><path style="fill:url(#SVGID_00000080170120621725173430000004551593515098094263_)" d="M.7 52.5c15.4-.1 135.9-2.9 151.3-2.9 14.5 0 29.2.7 43.7 0 10.3-9 20.4-18.3 31.8-25.7-6-4.6-12.7-8.3-19.1-12.3-5.3-3.4-10.8-6.8-16.4-9.8-.1 0-.1.1-.2.1h-1c-14.9-1-29.8.1-44.7.1C132.6 2 14.1 5.6.6 6.2.5 11 .2 16.5.6 21.3c.3 3.3 7.1 1.3 9.7 1.6.4 0 3.3-.2 3 0-2.6 1.5-8.8 2.5-11.7 2.9-2.2.3-1.5 7.8-1.5 9.7 0 .5-.3 4.9 0 5 .4 0 .4.3 1 0 2.1.6 4.8.3 6.9.4.6 0 1.2.1 1.8.1-3 .7-5.9 1.4-8.8 2.2-.7.2-.9 1-.7 1.6.2.8.3 1.6.3 2.4-.1.5-.1 1.1-.2 1.6.1 1.4.3 3 .3 3.7z"/><linearGradient id="SVGID_00000138570086290503412450000012722208851482312604_" gradientUnits="userSpaceOnUse" x1="-1002.611" y1="42.934" x2="-808.152" y2="42.934" gradientTransform="matrix(-1 .00161 .00161 1 -807.49 11.843)"><stop offset="0" style="stop-color:#fcbc67"/><stop offset="1" style="stop-color:#f9a22b"/></linearGradient><linearGradient id="SVGID_00000159441994003269240720000010495257267862198916_" gradientUnits="userSpaceOnUse" x1="-1035.36" y1="28.547" x2="-1002.617" y2="28.547" gradientTransform="matrix(-1 .00161 .00161 1 -807.49 11.843)"><stop offset="0" style="stop-color:#fcbc67"/><stop offset="1" style="stop-color:#f9a22b"/></linearGradient><path class="st29" d="M88.6 34.9h3.3l-6.6-17.5h-2.9l-6.6 17.5H79l1.6-5h6.3l1.7 5zm-7.3-7.5 2.2-7.1 2.4 7.1h-4.6zM96.9 17.5V35s0 3.3-3.7 2.5v2.1s6.6 1.7 6.6-4.6V17.5h-2.9zM107 17.3h3.3v17.9H107zM120.1 28.7s-.8-3.3.4-5.8c0 0 2.1-5.4 8.7-2.1l.6-2.3s-6.7-3.2-10.8 1l-.2.2c-.5.5-.9 1.2-1.3 1.9-.2.3-.4.7-.5 1.2l-.3.9v.3c0 .2-.1.4-.1.6 0 .1-.1.8-.1 1.8v.5c.1 2 .6 4.7 2.5 6.2.1 0 .1.1.2.1 0 0 .3.3 1 .6 1.5.7 4.5 1.7 9.4.6V32c.1 0-8.2 2.9-9.5-3.3zM146.9 17.6c-1.8-.7-3.4-.8-4.6-.7-2.1.4-7.4 2.1-7.1 9.4 0 0-.2 8.5 8.1 8.9 0 0 8.3.4 8.3-9.1.1.1.4-6.2-4.7-8.5zm2.1 8.7c0 6.6-5.6 6.3-5.6 6.3-5.6-.3-5.4-6.2-5.4-6.2-.1-3 1-4.7 2.3-5.6.1-.1 1.8-1.3 3.9-1 .8.1 1.5.4 2 .7.2.1.4.3.6.4 2.3 2.1 2.2 5.4 2.2 5.4zM165 17.5H158.1v17.7h.1l-.1.1s4.1.1 7.2-.2h-.1.1s7.1-.8 7.1-9.1c.1-.2.9-7.7-7.4-8.5zm4.4 8.4c0 1.4-.2 2.6-.6 3.5 0 .1-.1.2-.1.3-1.2 2.3-3.5 2.9-4.6 3h-.7l-2.2.1V20h3.5c4.7.6 4.7 5.9 4.7 5.9z"/><linearGradient id="SVGID_00000157279331588765478140000009855262618147116728_" gradientUnits="userSpaceOnUse" x1="30.035" y1="26.242" x2="67.218" y2="26.242"><stop offset="0" style="stop-color:#4d4cc7"/><stop offset="1" style="stop-color:#9f4cc7"/></linearGradient><path style="fill:url(#SVGID_00000157279331588765478140000009855262618147116728_)" d="M66.7 19.9c-3-12.8-14.6-9.5-14.6-9.5-12.2 2.3-19 11-20.5 13.2-1.3 2.2-1.6 4.2-1.6 5.4 0 .8.1 1.3.1 1.3 1.5 6.8 10.7 10.4 10.7 10.4 10.1 4.5 18.5-.9 18.5-.9C70 33 66.7 19.9 66.7 19.9z"/><linearGradient id="SVGID_00000158023772907294548410000014812436245977092537_" gradientUnits="userSpaceOnUse" x1="46.502" y1="27.029" x2="50.968" y2="27.029"><stop offset="0" style="stop-color:#4d4cc7"/><stop offset="1" style="stop-color:#9f4cc7"/></linearGradient><path style="fill:url(#SVGID_00000158023772907294548410000014812436245977092537_)" d="M46.5 33.9 51 20.2"/><path class="st29" d="M46.5 35.2c-.1 0-.3 0-.4-.1-.7-.2-1-1-.8-1.6l4.5-13.7c.2-.7 1-1 1.6-.8.7.2 1 1 .8 1.6l-4.5 13.7c-.1.5-.7.9-1.2.9zM42 32.2c-.3 0-.7-.1-.9-.4l-3.9-3.9c-.5-.5-.5-1.3 0-1.8l3.9-4.2c.5-.5 1.3-.6 1.8-.1s.6 1.3.1 1.8L40 27l3 3c.5.5.5 1.3 0 1.8-.3.3-.6.4-1 .4zM55.4 32.2c-.3 0-.7-.1-.9-.4-.5-.5-.5-1.3 0-1.8l3-3-3-3.3c-.5-.5-.5-1.3.1-1.8.5-.5 1.3-.5 1.8.1l3.9 4.2c.5.5.5 1.3 0 1.8l-3.9 3.9c-.3.2-.6.3-1 .3z"/></svg>