<?xml version="1.0" encoding="utf-8"?>
<!-- Generator: Adobe Illustrator 27.0.0, SVG Export Plug-In . SVG Version: 6.00 Build 0)  -->
<svg version="1.1" id="Layer_1" xmlns="http://www.w3.org/2000/svg" xmlns:xlink="http://www.w3.org/1999/xlink" x="0px" y="0px"
	 viewBox="0 0 266 467.9" style="enable-background:new 0 0 266 467.9;" xml:space="preserve">
<style type="text/css">
	.st0{fill:url(#SVGID_1_);}
	.st1{fill:url(#SVGID_00000172441782917789010980000011174921777965548723_);}
	.st2{fill:url(#SVGID_00000017511595569744937690000008901125866591197608_);}
	.st3{fill:url(#SVGID_00000019661294752097947380000012033591153464798398_);}
	.st4{fill:url(#SVGID_00000164499822264753798870000003980522608154772358_);}
	.st5{fill:url(#SVGID_00000145022211588086464900000018017442538207078539_);}
	.st6{fill:url(#SVGID_00000080173272217288683860000006488009221286244512_);}
	.st7{fill:url(#SVGID_00000052065247073972017930000008238164230604283035_);}
	.st8{fill:url(#SVGID_00000154422075769768539390000005001565930691322026_);}
	.st9{fill:url(#SVGID_00000047060422974003180650000010546237190958153894_);}
</style>
<g>
	<g>
		
			<linearGradient id="SVGID_1_" gradientUnits="userSpaceOnUse" x1="109.9986" y1="247.2672" x2="120.8175" y2="247.2672" gradientTransform="matrix(1 1.612813e-03 1.612813e-03 -1 20.5533 482.4802)">
			<stop  offset="0" style="stop-color:#393F84"/>
			<stop  offset="1" style="stop-color:#563068"/>
		</linearGradient>
		<path class="st0" d="M132.1,14.3c0,0,0.2,413.3-0.2,426s-4.1,18.2,2.9,19.3c5.3,0.8,4.1-2.1,4.1-9.8c0-7.7,3.2-429.1,3.2-432.7
			c0.1-6-1-5.9-4.2-6C134.7,10.9,132.1,11.7,132.1,14.3L132.1,14.3z"/>
		
			<linearGradient id="SVGID_00000093170938711192417140000005007849343027339394_" gradientUnits="userSpaceOnUse" x1="111.1281" y1="469.5669" x2="120.239" y2="469.5669" gradientTransform="matrix(1 1.612813e-03 1.612813e-03 -1 20.5533 482.4802)">
			<stop  offset="0" style="stop-color:#393F84"/>
			<stop  offset="1" style="stop-color:#563068"/>
		</linearGradient>
		<path style="fill:url(#SVGID_00000093170938711192417140000005007849343027339394_);" d="M141.6,12.8c0,1.1-2,2.6-4.5,2.6
			s-4.6-1.2-4.6-2.3s2-2.2,4.5-2.3C139.5,10.8,141.5,11.7,141.6,12.8L141.6,12.8z"/>
		
			<linearGradient id="SVGID_00000039135696299068849610000017634818630645173690_" gradientUnits="userSpaceOnUse" x1="120.4465" y1="469.7745" x2="120.4873" y2="469.7745" gradientTransform="matrix(1 1.612813e-03 1.612813e-03 -1 20.5533 482.4802)">
			<stop  offset="0" style="stop-color:#393F84"/>
			<stop  offset="1" style="stop-color:#563068"/>
		</linearGradient>
		<path style="fill:url(#SVGID_00000039135696299068849610000017634818630645173690_);" d="M141.8,12.8L141.8,12.8
			c0,0.1,0,0.1,0,0.2C141.8,12.9,141.8,12.8,141.8,12.8L141.8,12.8z"/>
		
			<linearGradient id="SVGID_00000166640973720360646150000001033795513987960740_" gradientUnits="userSpaceOnUse" x1="112.0494" y1="263.1681" x2="120.8056" y2="263.1681" gradientTransform="matrix(1 1.612813e-03 1.612813e-03 -1 20.5533 482.4802)">
			<stop  offset="0" style="stop-color:#393F84"/>
			<stop  offset="1" style="stop-color:#563068"/>
		</linearGradient>
		<path style="fill:url(#SVGID_00000166640973720360646150000001033795513987960740_);" d="M142.1,12.8c-0.1,0-0.1,0.1-0.2,0.1
			c-0.1,1.3-2.2,3.1-4.8,3.1c-0.3,0-0.6,0-0.9,0c-0.2,0-0.4,0-0.5-0.1c1,0.6,3.2,2.3,3.3,4c0.1,2.1-3.2,404.3-5.3,404.9
			c-0.6,0.1-0.8,0.7-0.9,1.4c1.7,0,3.4-0.1,5.2-0.1c0.3-5.9,4.2-412.1,4.2-413.1C142.1,13,142.1,12.9,142.1,12.8L142.1,12.8z"/>
		
			<linearGradient id="SVGID_00000139253446424040804060000003469053891946251164_" gradientUnits="userSpaceOnUse" x1="113.941" y1="468.5197" x2="120.2374" y2="468.5197" gradientTransform="matrix(1 1.612813e-03 1.612813e-03 -1 20.5533 482.4802)">
			<stop  offset="0" style="stop-color:#393F84"/>
			<stop  offset="1" style="stop-color:#563068"/>
		</linearGradient>
		<path style="fill:url(#SVGID_00000139253446424040804060000003469053891946251164_);" d="M141.5,12.9c-0.3,0.1-0.6,0.2-1,0.4
			c-0.4,0.8-1.7,1.6-3.5,1.7c-0.2,0-0.5,0-0.7,0c-0.1,0-0.3,0-0.4-0.1c-0.4,0.1-0.7,0.2-0.7,0.2s0.2,0.1,0.4,0.2
			c0.2,0,0.3,0,0.5,0.1c0.3,0,0.6,0,0.9,0C139.5,15.4,141.5,14,141.5,12.9L141.5,12.9z"/>
		
			<linearGradient id="SVGID_00000183964199238489767250000009171156232717035929_" gradientUnits="userSpaceOnUse" x1="112.0812" y1="469.5669" x2="119.2809" y2="469.5669" gradientTransform="matrix(1 1.612813e-03 1.612813e-03 -1 20.5533 482.4802)">
			<stop  offset="0" style="stop-color:#393F84"/>
			<stop  offset="1" style="stop-color:#563068"/>
		</linearGradient>
		<path style="fill:url(#SVGID_00000183964199238489767250000009171156232717035929_);" d="M140.6,12.9c0,0.9-1.5,2-3.5,2
			s-3.6-0.9-3.7-1.8c0-0.9,1.6-1.8,3.6-1.8C139,11.3,140.6,12,140.6,12.9L140.6,12.9z"/>
		
			<linearGradient id="SVGID_00000150104463893480793930000016078932609352531609_" gradientUnits="userSpaceOnUse" x1="113.0209" y1="469.5669" x2="118.3435" y2="469.5669" gradientTransform="matrix(1 1.612813e-03 1.612813e-03 -1 20.5533 482.4802)">
			<stop  offset="0" style="stop-color:#393F84"/>
			<stop  offset="1" style="stop-color:#563068"/>
		</linearGradient>
		<path style="fill:url(#SVGID_00000150104463893480793930000016078932609352531609_);" d="M136.7,13.8c-0.7-0.1-1.2-0.4-1.2-0.7
			c0-0.4,0.6-0.7,1.4-0.7c0.1,0,0.3,0,0.4,0c0.6,0.1,1.1,0.3,1.1,0.6c0,0.4-0.6,0.8-1.4,0.8C136.9,13.9,136.8,13.8,136.7,13.8
			L136.7,13.8z M137.6,11.8c-0.2,0-0.4,0-0.7,0c-1.5,0-2.6,0.7-2.6,1.3s0.9,1.2,2.2,1.3c0.2,0,0.3,0,0.5,0c1.5,0,2.6-0.8,2.6-1.5
			C139.7,12.4,138.8,11.9,137.6,11.8L137.6,11.8z"/>
		
			<linearGradient id="SVGID_00000008126967981254888800000008158582535264343474_" gradientUnits="userSpaceOnUse" x1="114.2497" y1="469.5668" x2="117.1202" y2="469.5668" gradientTransform="matrix(1 1.612813e-03 1.612813e-03 -1 20.5533 482.4802)">
			<stop  offset="0" style="stop-color:#393F84"/>
			<stop  offset="1" style="stop-color:#563068"/>
		</linearGradient>
		<path style="fill:url(#SVGID_00000008126967981254888800000008158582535264343474_);" d="M137.3,12.4c-0.1,0-0.2,0-0.4,0
			c-0.8,0-1.4,0.4-1.4,0.7s0.5,0.6,1.2,0.7c0.1,0,0.2,0,0.3,0c0.8,0,1.4-0.5,1.4-0.8C138.4,12.7,138,12.5,137.3,12.4L137.3,12.4z"/>
		
			<linearGradient id="SVGID_00000124129130258849858320000001753911679416290482_" gradientUnits="userSpaceOnUse" x1="111.3553" y1="56.6598" x2="111.3553" y2="56.6598" gradientTransform="matrix(1 1.612813e-03 1.612813e-03 -1 20.5533 482.4802)">
			<stop  offset="0" style="stop-color:#393F84"/>
			<stop  offset="1" style="stop-color:#563068"/>
		</linearGradient>
		<path style="fill:url(#SVGID_00000124129130258849858320000001753911679416290482_);" d="M132,426L132,426L132,426L132,426
			L132,426z"/>
		
			<linearGradient id="SVGID_00000154388290531457184380000014058126736994409397_" gradientUnits="userSpaceOnUse" x1="118.7076" y1="51.8716" x2="118.754" y2="51.8716" gradientTransform="matrix(1 1.612813e-03 1.612813e-03 -1 20.5533 482.4802)">
			<stop  offset="0" style="stop-color:#393F84"/>
			<stop  offset="1" style="stop-color:#563068"/>
		</linearGradient>
		<path style="fill:url(#SVGID_00000154388290531457184380000014058126736994409397_);" d="M139.3,430.6c0,0.2,0,0.3,0,0.4
			C139.4,430.8,139.4,430.7,139.3,430.6L139.3,430.6z"/>
	</g>
</g>
</svg>
