<?xml version="1.0" encoding="utf-8"?>
<!-- Generator: Adobe Illustrator 27.0.0, SVG Export Plug-In . SVG Version: 6.00 Build 0)  -->
<svg version="1.1" id="Layer_1" xmlns="http://www.w3.org/2000/svg" xmlns:xlink="http://www.w3.org/1999/xlink" x="0px" y="0px"
	 viewBox="0 0 227.6 57" style="enable-background:new 0 0 227.6 57;" xml:space="preserve">
<style type="text/css">
	.st0{display:none;opacity:0.5;fill:url(#SVGID_1_);enable-background:new    ;}
	.st1{display:none;opacity:0.5;fill:url(#SVGID_00000060002607494803980810000008594049790633922720_);enable-background:new    ;}
	.st2{display:none;opacity:0.5;fill:url(#SVGID_00000138563701866983428210000013781861003523814071_);enable-background:new    ;}
	.st3{fill:url(#SVGID_00000016058059261480222320000011739236905860652216_);}
	.st4{display:none;opacity:0.3;}
	.st5{display:inline;fill:url(#SVGID_00000103982247226690166060000014661305262183193528_);}
	.st6{display:inline;fill:url(#SVGID_00000120525614931215093930000007492972722568213139_);}
	.st7{display:inline;fill:url(#SVGID_00000178914582393067164910000005367462394430514310_);}
	.st8{display:inline;fill:url(#SVGID_00000067953927818452462610000005396367973615463552_);}
	.st9{display:inline;fill:url(#SVGID_00000023269551658854595880000006528906226420789917_);}
	.st10{display:inline;fill:url(#SVGID_00000161604096076845604960000007385803292173954479_);}
	.st11{display:inline;fill:url(#SVGID_00000016796343173290714360000014141602138232296578_);}
	
		.st12{display:inline;opacity:0.8;fill:url(#SVGID_00000067927128405444699890000016569361051637446808_);enable-background:new    ;}
	.st13{display:inline;fill:url(#SVGID_00000096059597081870198200000014358992571144381827_);}
	.st14{display:inline;fill:url(#SVGID_00000102514115519729001390000003486835077710555284_);}
	.st15{display:inline;fill:url(#SVGID_00000132066137554624477490000012039187360714218656_);}
	.st16{display:inline;fill:url(#SVGID_00000147921760244646227440000005134765508920802978_);}
	.st17{display:inline;fill:url(#SVGID_00000175294064569599839520000007245055986511689627_);}
	
		.st18{display:inline;opacity:0.8;fill:url(#SVGID_00000069369285847338217590000010509840334090962622_);enable-background:new    ;}
	.st19{display:inline;fill:url(#SVGID_00000040540968990656754830000007026803885852360108_);}
	.st20{display:inline;fill:url(#SVGID_00000152964351100236704360000014988750130691250588_);}
	.st21{display:inline;fill:url(#SVGID_00000106828952446740476520000009597187654720936091_);}
	.st22{display:inline;fill:url(#SVGID_00000021839868144804226670000014017412914642454718_);}
	
		.st23{display:inline;opacity:0.8;fill:url(#SVGID_00000130626832504480826620000003109271008297666457_);enable-background:new    ;}
	.st24{display:inline;fill:url(#SVGID_00000071558714214444898320000004379619033530466989_);}
	.st25{display:inline;fill:url(#SVGID_00000099640900965250440270000007773552672548740784_);}
	
		.st26{display:inline;opacity:0.8;fill:url(#SVGID_00000174589554271336807330000013268216844462820748_);enable-background:new    ;}
	.st27{display:none;opacity:0.5;fill:url(#SVGID_00000056420025743704773610000004756180070096215742_);enable-background:new    ;}
	.st28{display:none;opacity:0.5;fill:url(#SVGID_00000150799022094247946260000000807758018864609424_);enable-background:new    ;}
	.st29{enable-background:new    ;}
	.st30{fill:#FFFFFF;}
</style>
<g>
	
		<linearGradient id="SVGID_1_" gradientUnits="userSpaceOnUse" x1="-22.3382" y1="391.9341" x2="207.4817" y2="391.9341" gradientTransform="matrix(1 1.612813e-03 1.612813e-03 -1 20.6019 422.1852)">
		<stop  offset="0" style="stop-color:#FCBC67"/>
		<stop  offset="1" style="stop-color:#F9A22B"/>
	</linearGradient>
	<path class="st0" d="M-1.1,27.9c0-0.1,0-0.2,0-0.3l0,0c1.4-1.1,9.9-6.8,18.1-12.2c2.7-1.7,5.4-3.5,8.1-5.3c1.4-0.9,2.9-1.7,4.3-2.5
		c1.2-0.7,2.4-1.3,3.5-2.1c0.3-0.2,0.5-0.3,0.8-0.5l0,0c0.1-0.1,0.2-0.1,0.4-0.2c0.1-0.1,0.2-0.1,0.3-0.2l0,0l0,0
		c0.1,0,0.1-0.1,0.1-0.1c0.2-0.1,0.3-0.1,0.3-0.2h0.1c15.2-0.8,30.4-0.7,45.6-1c11.7-0.2,128.7-0.2,140.4,0.8c2,0.2,4,0.5,6.1,0.6
		c1.2,5.7-0.8,12.1,0.7,17.9c0.1,0.3,0.1,0.2-0.1,0.6l-0.5,0.6c-0.1,0.5-0.2,0.2-0.6,0.4c0.4,0.1,0.8,0.1,1.1,0.2
		c0.2,0,0.3,0.2,0.3,0.4c0.5,5.1,0.1,10.4,0.8,15.5c0,0.2-0.1,0.4-0.3,0.5c0,0.2,0,0.4-0.1,0.6c0.2,0.2,0.3,0.4,0.3,0.7
		c0,0.5-0.1,0.9-0.1,1.3c0.5,2.5-0.3,6.1-0.3,7.9c0.1,0.3,0.3,0.7,0.3,1c-0.4,1-1.2,1.8-1.8,2.7c-0.1,0.1-0.2,0.2-0.2,0.3
		c-0.1,0-0.1,0-0.2,0c-0.3,0.1-0.7,0.1-1,0.2c-8.1-0.7-16.8,0.1-24.8,0.4c-2.1,0.1-109.2,0-111.3,0.1c-0.5,0-0.9,0-1.4,0
		c-0.1,0-1.2,0.1-1.2,0c-1.3,0.2-1.6,0.2-2.9,0.2c-0.3,0-0.6,0-0.9,0c-3.9,0.1-7.9-0.1-11.7,0.2c-2.3,0.1-6.5,0-8.8,0.2
		C35,57.5,43,57.3,32.6,57.4c0,0-0.1-0.1-0.1-0.2c-0.6-0.3-1.2-1-1.7-1.3c-3.9-3.1-7.9-6.1-12-8.9c-6.4-4.5-13-9.8-18.7-15
		c-0.1-0.1-0.1-0.1,0-0.2c0-0.1-0.1-0.2-0.1-0.3C-0.4,30.3-0.7,29.1-1.1,27.9z"/>
	
		<linearGradient id="SVGID_00000119818357396628066810000012370245962530618786_" gradientUnits="userSpaceOnUse" x1="197.1299" y1="399.0617" x2="205.4775" y2="399.0617" gradientTransform="matrix(1 1.612813e-03 1.612813e-03 -1 20.6019 422.1852)">
		<stop  offset="0" style="stop-color:#FCBC67"/>
		<stop  offset="1" style="stop-color:#F9A22B"/>
	</linearGradient>
	
		<path style="display:none;opacity:0.5;fill:url(#SVGID_00000119818357396628066810000012370245962530618786_);enable-background:new    ;" d="
		M226.2,23.7c-0.2,0.1-0.4,0.4-0.2,0.5c-2.2-0.3-4.3-0.5-6.5-1.1c-3.1-0.9,1.3-0.3,1.8-0.3c1.8,0,3.6,0.2,5.5,0.3
		C226.5,23.4,226.4,23.5,226.2,23.7z"/>
	
		<linearGradient id="SVGID_00000058551676178492683900000002056674240813376391_" gradientUnits="userSpaceOnUse" x1="201.9275" y1="381.8076" x2="206.4776" y2="381.8076" gradientTransform="matrix(1 1.612813e-03 1.612813e-03 -1 20.6019 422.1852)">
		<stop  offset="0" style="stop-color:#FCBC67"/>
		<stop  offset="1" style="stop-color:#F9A22B"/>
	</linearGradient>
	
		<path style="display:none;opacity:0.5;fill:url(#SVGID_00000058551676178492683900000002056674240813376391_);enable-background:new    ;" d="
		M227.4,41c-0.2,0-0.5-0.1-0.7-0.1s-0.3-0.1-0.5-0.1c-1-0.1-2-0.2-3-0.4c1.3-0.1,2.6-0.1,3.9,0c0.2,0.1,0.4,0.2,0.6,0.3
		C227.6,40.7,227.5,40.9,227.4,41z"/>
	
		<linearGradient id="SVGID_00000114768764653430375860000014961419587955709113_" gradientUnits="userSpaceOnUse" x1="-750.0134" y1="395.6849" x2="-730.7209" y2="294.5455" gradientTransform="matrix(-0.9921 0.1257 -0.1257 -0.9921 -577.0871 468.9998)">
		<stop  offset="0" style="stop-color:#FCBC67"/>
		<stop  offset="1" style="stop-color:#F9A22B"/>
	</linearGradient>
	<path style="fill:url(#SVGID_00000114768764653430375860000014961419587955709113_);" d="M227.4,51.6C212,51.8,91.5,51.8,76.1,52.1
		c-14.5,0.3-29.2,1.3-43.7,1C21.9,44.4,11.6,35.4-0.1,28.2c5.9-4.7,12.6-8.6,18.8-12.8c5.3-3.5,10.6-7,16.1-10.2
		c0.1,0,0.1,0.1,0.2,0.1s0.2,0,0.3,0c0.2,0,0.5-0.1,0.7-0.1c14.9-1.3,29.9-0.5,44.8-0.8c13.5-0.3,132,0.5,145.5,0.8
		c0.2,4.8,0.7,10.3,0.4,15.1c-0.2,3.3-7.1,1.5-9.7,1.8c-0.4,0.1-3.3-0.1-3,0.1c2.6,1.4,8.8,2.3,11.8,2.6c2.2,0.3,1.7,7.7,1.7,9.6
		c0,0.5,0.4,4.9,0.1,5c-0.4,0-0.4,0.3-1,0c-2.1,0.7-4.8,0.4-6.9,0.5c-0.6,0-1.2,0.1-1.8,0.1c3,0.6,6,1.2,8.9,2
		c0.7,0.2,0.9,0.9,0.7,1.6c-0.2,0.8-0.2,1.6-0.3,2.4c0.1,0.5,0.2,1.1,0.2,1.6l0,0C227.5,49.3,227.3,50.9,227.4,51.6z"/>
	<g class="st4">
		
			<linearGradient id="SVGID_00000116936372761125669550000015038509110398491280_" gradientUnits="userSpaceOnUse" x1="-887.3165" y1="336.0735" x2="-784.4865" y2="290.5781" gradientTransform="matrix(-0.9921 0.1257 -0.1257 -0.9921 -577.0871 468.9998)">
			<stop  offset="0" style="stop-color:#FCBC67"/>
			<stop  offset="1" style="stop-color:#F9A22B"/>
		</linearGradient>
		<path style="display:inline;fill:url(#SVGID_00000116936372761125669550000015038509110398491280_);" d="M224.2,45.4
			c1-0.1,2.1-0.2,3.1-0.4c0,0.3,0,0.7-0.1,1v0.1c-0.7,0.2-1.5,0.4-2.1,0.8c-0.2,0.2,0,0.5,0.2,0.6c0.7,0.3,1.4,0.5,2.2,0.6
			c0,0.3,0,0.5,0,0.8c-4-0.3-8.1-0.6-11.5-2.5C218.5,45.3,221.5,45.6,224.2,45.4z"/>
		
			<linearGradient id="SVGID_00000128486979775023745990000014701679191356110512_" gradientUnits="userSpaceOnUse" x1="-758.5325" y1="404.9673" x2="-655.71" y2="359.4751" gradientTransform="matrix(-0.9921 0.1257 -0.1257 -0.9921 -577.0871 468.9998)">
			<stop  offset="0" style="stop-color:#FCBC67"/>
			<stop  offset="1" style="stop-color:#F9A22B"/>
		</linearGradient>
		<path style="display:inline;fill:url(#SVGID_00000128486979775023745990000014701679191356110512_);" d="M29.2,33.9
			c3.4,0.4,6.8,0,10.1,0.5c-2,1.4-5.1,1.3-7.4,1.3c-2.6,0-5.2-0.1-7.9,0.1c-4.2,0.3-8.4,0.4-12.6,0.4c-1.8-1.4-3.7-2.7-5.5-4
			c3.8-0.1,7.7-0.2,11.5,0.1C21.3,32.6,25.2,33.4,29.2,33.9z"/>
		
			<linearGradient id="SVGID_00000049197631839421353010000013934383300012463021_" gradientUnits="userSpaceOnUse" x1="-884.2661" y1="411.4013" x2="-691.5985" y2="326.1587" gradientTransform="matrix(-0.9921 0.1257 -0.1257 -0.9921 -577.0871 468.9998)">
			<stop  offset="0" style="stop-color:#FCBC67"/>
			<stop  offset="1" style="stop-color:#F9A22B"/>
		</linearGradient>
		<path style="display:inline;fill:url(#SVGID_00000049197631839421353010000013934383300012463021_);" d="M24.8,36.2
			c2.8-0.2,5.7,0.1,8.5,0c2.2-0.1,5.1-0.1,6.9-1.7c0.2-0.2,0-0.4-0.2-0.5c-3.8-0.8-7.7-0.2-11.4-0.7s-7.5-1.3-11.2-1.6
			c-4.1-0.3-8.1-0.2-12.2-0.1c-0.9-0.6-1.9-1.3-2.8-1.9c3.5-0.1,7-0.2,10.5-0.1c5.4,0.2,10.8,0.9,16.1,1.6c5,0.7,9.9,1.1,15,0.8
			c5.5-0.3,10.9-0.9,16.4-1.5c10.9-1.1,127.1-1.3,138-1.5c5.5-0.1,10.9,0.1,16.4,0c2.9,0,5.8-0.1,8.7,0.3c1.4,0.2,2.8,0.4,4.2,0.5
			c0,0.2,0,0.5,0,0.7c-18.6-2.1-142.2,1-160.4,3.8c-10.2,1.5-20.4,2.8-30.7,3.2c-7.7,0.3-15.7,0.8-23.4-0.1
			c-0.3-0.3-0.7-0.5-1.1-0.8C16.4,36.6,20.6,36.5,24.8,36.2z"/>
		
			<linearGradient id="SVGID_00000047775259087655607840000006546512275238950537_" gradientUnits="userSpaceOnUse" x1="-899.1552" y1="427.3773" x2="-599.3788" y2="294.7462" gradientTransform="matrix(-0.9921 0.1257 -0.1257 -0.9921 -577.0871 468.9998)">
			<stop  offset="0" style="stop-color:#FCBC67"/>
			<stop  offset="1" style="stop-color:#F9A22B"/>
		</linearGradient>
		<path style="display:inline;fill:url(#SVGID_00000047775259087655607840000006546512275238950537_);" d="M215.9,5.2
			c-3.7,0-7.4,0.4-11.1,0.8C196.1,6.9,82.2,6.5,73.5,5.8C69.1,5.4,64.6,5,60.2,4.5c6.9,0,13.7,0.1,20.6,0
			c11.5-0.2,128.1,0.4,139.6,0.7C219,5.2,217.4,5.2,215.9,5.2z"/>
		
			<linearGradient id="SVGID_00000047750164454413801030000002093784290718650026_" gradientUnits="userSpaceOnUse" x1="-874.1349" y1="420.8136" x2="-656.7084" y2="324.6167" gradientTransform="matrix(-0.9921 0.1257 -0.1257 -0.9921 -577.0871 468.9998)">
			<stop  offset="0" style="stop-color:#FCBC67"/>
			<stop  offset="1" style="stop-color:#F9A22B"/>
		</linearGradient>
		<path style="display:inline;fill:url(#SVGID_00000047750164454413801030000002093784290718650026_);" d="M35,5.3
			c0.1,0,0.2,0,0.3,0c0.2,0,0.5-0.1,0.7-0.1c6.3-0.5,12.5-0.7,18.8-0.7c6.7,0.8,13.3,1.5,20,2c8.8,0.6,122.7,1,131.5,0
			c4.2-0.5,8.3-0.6,12.5-0.7c2.1-0.1,4.1-0.2,6.1-0.5c0.4,0,0.9,0,1.4,0c0,0.4,0.1,0.9,0.1,1.3c-5.1,0.2-10.2,0.9-15.2,1.4
			C201.4,8.9,86.5,8.4,76.7,8C66.9,7.6,57,7.1,47.2,7.4c-5.9,0.2-12,1.6-18,1.2c1.9-1.2,3.7-2.3,5.6-3.4C34.9,5.3,35,5.3,35,5.3z"/>
		
			<linearGradient id="SVGID_00000173867974844159613960000006746111075269978032_" gradientUnits="userSpaceOnUse" x1="-873.5504" y1="367.1886" x2="-770.7208" y2="321.6934" gradientTransform="matrix(-0.9921 0.1257 -0.1257 -0.9921 -577.0871 468.9998)">
			<stop  offset="0" style="stop-color:#FCBC67"/>
			<stop  offset="1" style="stop-color:#F9A22B"/>
		</linearGradient>
		<path style="display:inline;fill:url(#SVGID_00000173867974844159613960000006746111075269978032_);" d="M214.8,10.1
			c2.8-0.2,5.7-0.7,8.5-0.8c1.1-0.1,2.2-0.1,3.3-0.2c0,0.3,0,0.6,0,1c-2,0.2-4,0.3-5.9,0.6c-0.3,0-0.5,0.5-0.1,0.5
			c2,0.4,4.1,0.9,6.1,1.3c0,0.3,0,0.6,0,0.9c-3.5-0.2-7.1-0.3-10.6-0.6c-2.4-0.2-4.7-0.3-7.1-0.4c-2.3-0.1-4.8-0.2-6.9-1.1
			C205.8,9.5,210.9,10.4,214.8,10.1z"/>
		
			<linearGradient id="SVGID_00000048487519562349921500000000832764372836670605_" gradientUnits="userSpaceOnUse" x1="-875.3694" y1="362.9836" x2="-772.7042" y2="317.561" gradientTransform="matrix(-0.9921 0.1257 -0.1257 -0.9921 -577.0871 468.9998)">
			<stop  offset="0" style="stop-color:#FCBC67"/>
			<stop  offset="1" style="stop-color:#F9A22B"/>
		</linearGradient>
		<path style="display:inline;fill:url(#SVGID_00000048487519562349921500000000832764372836670605_);" d="M226.6,10.7
			c0,0.4,0,0.8,0.1,1.3c-1.4-0.3-2.8-0.6-4.2-0.9C223.9,10.9,225.3,10.8,226.6,10.7z"/>
		
			<linearGradient id="SVGID_00000071538628993097900650000017667172049394674816_" gradientUnits="userSpaceOnUse" x1="-875.3024" y1="417.4112" x2="-664.356" y2="324.0815" gradientTransform="matrix(-0.9921 0.1257 -0.1257 -0.9921 -577.0871 468.9998)">
			<stop  offset="0" style="stop-color:#FCBC67"/>
			<stop  offset="1" style="stop-color:#F9A22B"/>
		</linearGradient>
		
			<path style="display:inline;opacity:0.8;fill:url(#SVGID_00000071538628993097900650000017667172049394674816_);enable-background:new    ;" d="
			M28.4,9.1c6.1,0.6,12.3-0.8,18.4-1c9.8-0.3,19.5,0.2,29.3,0.5c9.4,0.4,124,0.9,133.4,0.1c5.6-0.4,11.3-1.4,17-1.6
			c0,0.4,0,0.9,0.1,1.3c-1.3,0.1-2.6,0.1-3.9,0.2c-2.8,0.2-5.5,0.7-8.3,0.8c-4.1,0.1-9.4-0.7-13.1,1.6c-0.2,0.1-0.2,0.5,0,0.6
			c4.2,2.1,9.6,1.4,14.2,1.8c3.8,0.3,7.6,0.5,11.4,0.7c0,0.2,0,0.4,0,0.5c-8.3-0.3-16.6-0.8-24.9-1.3c-9.9-0.6-125-1.1-134.9-1.6
			c-9.8-0.5-19.6-1.1-29.5-0.8c-4.4,0.2-8.8,0.7-13.1,0.7C25.7,10.8,27.1,9.9,28.4,9.1z"/>
		
			<linearGradient id="SVGID_00000000212779939713406670000002906840144871246511_" gradientUnits="userSpaceOnUse" x1="-752.9178" y1="417.5439" x2="-650.1397" y2="372.0714" gradientTransform="matrix(-0.9921 0.1257 -0.1257 -0.9921 -577.0871 468.9998)">
			<stop  offset="0" style="stop-color:#FCBC67"/>
			<stop  offset="1" style="stop-color:#F9A22B"/>
		</linearGradient>
		<path style="display:inline;fill:url(#SVGID_00000000212779939713406670000002906840144871246511_);" d="M17.4,16.3
			c0.4-0.3,0.9-0.6,1.3-0.8c4.4,0.3,8.9-0.2,13.4,0.1C27.1,16.1,22.2,16.2,17.4,16.3z"/>
		
			<linearGradient id="SVGID_00000019674605957810475430000015628303960894317486_" gradientUnits="userSpaceOnUse" x1="-756.304" y1="409.9588" x2="-653.4985" y2="364.4742" gradientTransform="matrix(-0.9921 0.1257 -0.1257 -0.9921 -577.0871 468.9998)">
			<stop  offset="0" style="stop-color:#FCBC67"/>
			<stop  offset="1" style="stop-color:#F9A22B"/>
		</linearGradient>
		<path style="display:inline;fill:url(#SVGID_00000019674605957810475430000015628303960894317486_);" d="M34.9,15.9
			c0.3,0,0.5-0.6,0.1-0.6c-5.1-0.8-10.4-0.2-15.5-0.4c0.4-0.3,0.9-0.6,1.3-0.9c7.7,0.8,15.4-0.6,23.1-1c7.6-0.5,16.3-2.1,23.7,0.8
			c-2.3,0.6-4.6,0.6-7,0.8c-2.5,0.2-4.9,0.6-7.4,1c-5.4,0.9-10.8,1.6-16.3,2.1c-5.4,0.5-10.9,0.9-16.4,0.8c-2.1-0.1-4.1-0.2-6.2-0.3
			c0.7-0.4,1.4-0.9,2-1.3C22.6,16.8,28.8,16.7,34.9,15.9z"/>
		
			<linearGradient id="SVGID_00000167378277698280860000000004280510468340734339_" gradientUnits="userSpaceOnUse" x1="-754.6477" y1="413.7164" x2="-651.8364" y2="368.2293" gradientTransform="matrix(-0.9921 0.1257 -0.1257 -0.9921 -577.0871 468.9998)">
			<stop  offset="0" style="stop-color:#FCBC67"/>
			<stop  offset="1" style="stop-color:#F9A22B"/>
		</linearGradient>
		<path style="display:inline;fill:url(#SVGID_00000167378277698280860000000004280510468340734339_);" d="M45.3,12.4
			c-7.8,0.5-15.9,1.9-23.7,1.2c0.7-0.4,1.3-0.9,2-1.3c4.9,0,9.8-0.6,14.7-0.8c5.7-0.2,11.3,0,16.9,0.2
			C51.8,11.8,48.4,12.2,45.3,12.4z"/>
		
			<linearGradient id="SVGID_00000075854704581776589620000013951134811053500582_" gradientUnits="userSpaceOnUse" x1="-875.3428" y1="416.8039" x2="-682.1683" y2="331.3369" gradientTransform="matrix(-0.9921 0.1257 -0.1257 -0.9921 -577.0871 468.9998)">
			<stop  offset="0" style="stop-color:#FCBC67"/>
			<stop  offset="1" style="stop-color:#F9A22B"/>
		</linearGradient>
		<path style="display:inline;fill:url(#SVGID_00000075854704581776589620000013951134811053500582_);" d="M19.8,19.2
			c5.7,0.2,11.4-0.2,17-0.8c5.7-0.5,11.3-1.3,16.9-2.2c2.6-0.4,5.2-0.8,7.9-1c2.3-0.1,4.6-0.3,6.9-1c0.2-0.1,0.4-0.4,0.1-0.5
			c-1.7-0.8-3.5-1.3-5.4-1.6c1.5,0.1,2.9,0.1,4.4,0.2c10,0.5,125,1,134.9,1.6c8.1,0.5,16.1,1,24.2,1.3c0,0.1,0,0.2,0,0.2
			c-19.3,1-143.7-0.8-163,1.4c-5.4,0.6-10.8,1.6-16.2,2.2c-5.4,0.6-10.8,1-16.2,1.4S20.5,21.3,15.1,22c-2.7,0.4-5.4,0.7-8.1,1
			c2.1-1.4,4.3-2.8,6.4-4.2C15.6,19,17.7,19.1,19.8,19.2z"/>
		
			<linearGradient id="SVGID_00000100349127555137300410000002253238282543510688_" gradientUnits="userSpaceOnUse" x1="-900.0478" y1="411.2491" x2="-634.1158" y2="293.5918" gradientTransform="matrix(-0.9921 0.1257 -0.1257 -0.9921 -577.0871 468.9998)">
			<stop  offset="0" style="stop-color:#FCBC67"/>
			<stop  offset="1" style="stop-color:#F9A22B"/>
		</linearGradient>
		<path style="display:inline;fill:url(#SVGID_00000100349127555137300410000002253238282543510688_);" d="M73.7,21.4
			c-2.9,0.3-5.8,0.5-8.8,0.7c-2.4,0.2-5.1,0.4-7.4-0.4c5.4-1.8,11.2-1.3,16.9-1.8c6.4-0.6,117.9-0.6,124.3-0.7
			c6.4-0.2,12.9,0.1,19.3-0.1c2.9-0.1,5.9-0.3,8.9-0.4c0,0.6,0,1.1-0.1,1.6c0,0.4-0.2,0.8-0.4,1c-9.3-0.3-18.6-0.8-28-0.9
			C191.7,20.4,80.2,20.8,73.7,21.4z"/>
		
			<linearGradient id="SVGID_00000126285849018483731840000002838048505093819037_" gradientUnits="userSpaceOnUse" x1="-875.5452" y1="414.0771" x2="-687.6049" y2="330.9261" gradientTransform="matrix(-0.9921 0.1257 -0.1257 -0.9921 -577.0871 468.9998)">
			<stop  offset="0" style="stop-color:#FCBC67"/>
			<stop  offset="1" style="stop-color:#F9A22B"/>
		</linearGradient>
		
			<path style="display:inline;opacity:0.8;fill:url(#SVGID_00000126285849018483731840000002838048505093819037_);enable-background:new    ;" d="
			M6,23.7c4-0.4,8-0.9,12-1.4c5.4-0.7,10.8-1.1,16.3-1.5c5.4-0.4,10.8-0.8,16.2-1.5s10.8-1.6,16.2-2.1C85,15.4,208.5,17,226.8,16
			c0,0.7,0,1.4,0,2.1c-0.5,0-1.1,0-1.6,0c-3.1,0.1-6.2,0.3-9.3,0.3c-6.5,0-12.9,0-19.4,0.2c-6.3,0.2-117.6,0.5-123.9,0.8
			c-5.4,0.3-11,0.1-16.1,1.9c-0.3,0.1-0.2,0.4,0,0.5c2.2,1,4.6,1.1,6.9,0.9c2.8-0.2,5.6-0.4,8.4-0.7c6.8-0.6,118.5-1.2,125.3-1.2
			c9.5,0.1,19,0.6,28.4,0.9c-2.1,0.9-6.5,0-8.6,0.2c-0.4,0.1-3.3-0.1-3,0.1c0.7,0.4,1.8,0.8,2.9,1.1c-17.2-0.7-139.5-0.9-156.6,1.3
			c-5.3,0.7-10.6,1.5-15.9,1.7c-5.5,0.2-11,0.2-16.4,0.1c-7.7-0.1-15.4-0.2-23.1,0.4c-1.1,0-2.1,0-3.2,0.1C3,25.8,4.5,24.7,6,23.7z"
			/>
		
			<linearGradient id="SVGID_00000028308879617219226640000002320013797498902710_" gradientUnits="userSpaceOnUse" x1="-886.7444" y1="411.6633" x2="-681.3416" y2="320.7862" gradientTransform="matrix(-0.9921 0.1257 -0.1257 -0.9921 -577.0871 468.9998)">
			<stop  offset="0" style="stop-color:#FCBC67"/>
			<stop  offset="1" style="stop-color:#F9A22B"/>
		</linearGradient>
		<path style="display:inline;fill:url(#SVGID_00000028308879617219226640000002320013797498902710_);" d="M195.8,25.5
			C185,25.8,69.2,27.1,58.5,27.8c-11,0.7-21.7,0.1-32.6-0.4c-2.8-0.1-5.6-0.3-8.5-0.4c5.9,0,11.7,0.1,17.6,0.1
			c5.1,0,10.2-0.1,15.3-0.6c5.4-0.5,10.8-1.5,16.2-2c16.3-1.6,137.8-1.2,154.2-0.5c2,0.4,3.9,0.6,5.2,0.8c0.6,0.1,1,0.7,1.2,1.5
			C216.6,25.8,206.2,25.2,195.8,25.5z"/>
		
			<linearGradient id="SVGID_00000026145434140947041620000010622117648628675770_" gradientUnits="userSpaceOnUse" x1="-881.9576" y1="412.3547" x2="-691.4268" y2="328.0575" gradientTransform="matrix(-0.9921 0.1257 -0.1257 -0.9921 -577.0871 468.9998)">
			<stop  offset="0" style="stop-color:#FCBC67"/>
			<stop  offset="1" style="stop-color:#F9A22B"/>
		</linearGradient>
		<path style="display:inline;fill:url(#SVGID_00000026145434140947041620000010622117648628675770_);" d="M2.6,27.7
			c0.8-0.1,1.5-0.1,2.3-0.2c7.4-0.1,14.8,0.2,22.2,0.6c10.9,0.6,21.7,1.1,32.6,0.3c10.8-0.8,126.5-2.1,137.3-2.2
			c10.1-0.2,20.2,0.3,30.2,0.9c0.2,0.7,0.2,1.5,0.3,2.3c-1.5-0.1-3-0.4-4.6-0.6c-5.1-0.7-10.2-0.1-15.3-0.2
			c-5.5-0.1-116.1-0.2-121.6,0s-11,0.5-16.5,0.7c-5.5,0.3-10.9,0.9-16.3,1.5c-5.4,0.5-10.8,1-16.2,0.8c-5.2-0.4-10.2-1.5-15.2-2
			C15,28.8,8.2,28.9,1.4,29.1c-0.5-0.3-0.9-0.6-1.4-0.9C0.1,28.1,0.2,28,0.3,28C1,27.8,1.8,27.7,2.6,27.7z"/>
		
			<linearGradient id="SVGID_00000149371956015135139630000006612905865730247855_" gradientUnits="userSpaceOnUse" x1="-922.1877" y1="402.7427" x2="-639.4005" y2="277.6281" gradientTransform="matrix(-0.9921 0.1257 -0.1257 -0.9921 -577.0871 468.9998)">
			<stop  offset="0" style="stop-color:#FCBC67"/>
			<stop  offset="1" style="stop-color:#F9A22B"/>
		</linearGradient>
		<path style="display:inline;fill:url(#SVGID_00000149371956015135139630000006612905865730247855_);" d="M70.8,36.4
			c2.1-0.1,4.2-0.1,6.3-0.3c2.3-0.2,4.6-0.8,6.9-1.2c2.8-0.5,110.8-0.8,113.6-1c9.8-0.8,20.3-4,29.9-0.2c0,0.3,0,0.5,0,0.7
			c0,0.1,0,0.2,0,0.5c-3-0.2-6.1-0.8-9.1-0.9c-3.8-0.1-7.6-0.2-11.4,0.2c-5.7,0.7-117.5-0.3-122.6,2.6c-0.2,0.1-0.3,0.6,0,0.6
			c3.2,1.1,111.8,1.3,115.1,1.2c3.5-0.1,7-0.2,10.4-0.2c5.9,0,11.8-0.5,17.7-0.5c0,0.8,0,1.4-0.1,1.4c-0.4,0-0.4,0.3-1,0
			c-2.1,0.7-4.8,0.4-6.9,0.5c-0.6,0-1.2,0.1-1.8,0.1c1.2,0.2,2.3,0.5,3.5,0.7c-0.9,0-1.8,0.1-2.7,0c-5.6-0.1-11.3-0.4-16.9-0.4
			c-5.6,0-116.2-0.5-121.7-1.1c-2.8-0.3-5.6-0.6-8.4-0.8c-1.3-0.1-2.6-0.1-3.9-0.1c-1,0-1.9,0-2.7-0.6
			C66.6,36.6,68.9,36.5,70.8,36.4z"/>
		
			<linearGradient id="SVGID_00000142171138035209938730000003241678132490608041_" gradientUnits="userSpaceOnUse" x1="-957.1312" y1="413.6533" x2="-570.7836" y2="242.7201" gradientTransform="matrix(-0.9921 0.1257 -0.1257 -0.9921 -577.0871 468.9998)">
			<stop  offset="0" style="stop-color:#FCBC67"/>
			<stop  offset="1" style="stop-color:#F9A22B"/>
		</linearGradient>
		<path style="display:inline;fill:url(#SVGID_00000142171138035209938730000003241678132490608041_);" d="M200.1,37.9
			C196.9,38,88.5,37.8,85.4,37c2.6-1.2,110.6-1.3,113.4-1.5c3-0.2,5.9-0.4,8.9-0.7c4.1-0.4,8.3-0.5,12.3-0.1c2.5,0.2,5,0.7,7.6,0.8
			c0,0.5,0.1,1.1,0.1,1.7c-5.5,0-11,0.4-16.5,0.5C207.5,37.8,203.9,37.8,200.1,37.9z"/>
		
			<linearGradient id="SVGID_00000020388847553226984710000016941199127878566821_" gradientUnits="userSpaceOnUse" x1="-891.2031" y1="401.8693" x2="-692.548" y2="313.9777" gradientTransform="matrix(-0.9921 0.1257 -0.1257 -0.9921 -577.0871 468.9998)">
			<stop  offset="0" style="stop-color:#FCBC67"/>
			<stop  offset="1" style="stop-color:#F9A22B"/>
		</linearGradient>
		
			<path style="display:inline;opacity:0.8;fill:url(#SVGID_00000020388847553226984710000016941199127878566821_);enable-background:new    ;" d="
			M40.6,38c10.1-0.6,20.2-2,30.2-3.6c17-2.6,139.6-5.2,156.8-3.1c0,0.6,0,1.2,0,1.7c-9.6-3.7-20.5-0.7-30.4,0.3
			c-5.7,0.5-116.3,2.1-122,2.3c-3.3,0.1-8-0.4-10.8,1.9c-0.1,0.1-0.2,0.3-0.1,0.5c1.4,1.2,3.4,0.8,5.2,0.9c3,0.2,6.1,0.5,9.1,0.8
			C84.3,40.3,195.2,41,201,41c5.8,0,11.7,0.5,17.6,0.4c1.6,0,3.2-0.1,4.8-0.2c1.2,0.3,2.3,0.5,3.5,0.8c0.1,0,0.3,0.1,0.4,0.2
			c-1.9,0.1-3.8,0.2-5.7,0.5c-5,0.6-10,1.2-15,1.4c-11,0.4-126.8-0.9-137.5-1.6c-17-1.1-34.1-1.9-51.2-1.4c-1.3-1-2.5-2-3.8-3
			C22.8,39,31.8,38.5,40.6,38z"/>
		
			<linearGradient id="SVGID_00000067954495490602865450000008334828215839335584_" gradientUnits="userSpaceOnUse" x1="-901.8015" y1="399.6695" x2="-694.4899" y2="307.9479" gradientTransform="matrix(-0.9921 0.1257 -0.1257 -0.9921 -577.0871 468.9998)">
			<stop  offset="0" style="stop-color:#FCBC67"/>
			<stop  offset="1" style="stop-color:#F9A22B"/>
		</linearGradient>
		<path style="display:inline;fill:url(#SVGID_00000067954495490602865450000008334828215839335584_);" d="M227.3,44.4
			c-1.7,0.2-3.5,0.4-5.2,0.5c-2.3,0.1-4.8,0.1-6.9,1.3c-0.1,0.1-0.4,0.4-0.1,0.5c3.6,2.2,8,2.5,12.3,2.8c0,0.4,0,0.8,0,1.2
			c-3.1-0.8-6.4-1-9.7-1.2c-4.8-0.2-9.5-0.5-14.2-1.4c-5-0.9-115-1.9-120.1-2.1c-4.9-0.2-9.8-0.2-14.7-0.2
			c-15.9,0-31.8-1.8-47.7-2.2c-0.8-0.7-1.6-1.3-2.5-2c16.6-0.5,33.3,0.2,49.9,1.3C79.1,43.6,195,45,205.7,44.6
			c4.7-0.2,9.4-0.7,14.1-1.2c2.5-0.3,5-0.6,7.5-0.7c0.1,0.3,0.1,0.6,0,0.9C227.4,43.9,227.4,44.1,227.3,44.4z"/>
		
			<linearGradient id="SVGID_00000039116966501071265230000000532466436119967111_" gradientUnits="userSpaceOnUse" x1="-909.7642" y1="400.5753" x2="-695.0507" y2="305.5789" gradientTransform="matrix(-0.9921 0.1257 -0.1257 -0.9921 -577.0871 468.9998)">
			<stop  offset="0" style="stop-color:#FCBC67"/>
			<stop  offset="1" style="stop-color:#F9A22B"/>
		</linearGradient>
		<path style="display:inline;fill:url(#SVGID_00000039116966501071265230000000532466436119967111_);" d="M63.7,49
			c-13.1-0.7-26.2-2.6-39.3-2.4c-0.9-0.8-1.8-1.5-2.7-2.3c15.5,0.4,31,2.1,46.5,2.2c5.3,0,10.5-0.1,15.8,0.2
			c4.9,0.3,114.7,1.2,119.5,2.1c4.6,0.8,9,1.2,13.7,1.3c3.4,0.1,6.9,0.3,10.3,1.2c0,0.1,0,0.2,0,0.3c-6.7,0.1-13.3,0.2-20,0.3
			C194.6,50,76.6,49.7,63.7,49z"/>
		
			<linearGradient id="SVGID_00000170263473065542650720000001730549885169038766_" gradientUnits="userSpaceOnUse" x1="-952.0161" y1="423.5764" x2="-696.2347" y2="310.4102" gradientTransform="matrix(-0.9921 0.1257 -0.1257 -0.9921 -577.0871 468.9998)">
			<stop  offset="0" style="stop-color:#FCBC67"/>
			<stop  offset="1" style="stop-color:#F9A22B"/>
		</linearGradient>
		
			<path style="display:inline;opacity:0.8;fill:url(#SVGID_00000170263473065542650720000001730549885169038766_);enable-background:new    ;" d="
			M64.4,49.6c11.3,0.6,127.9,1,139.2,2.3c-7.5,0.1-120,0.1-127.5,0.2c-14.5,0.3-29.2,1.3-43.7,1c-2.4-2-4.8-4-7.2-6
			C38.2,47,51.3,48.9,64.4,49.6z"/>
	</g>
	
		<linearGradient id="SVGID_00000072961363038818955110000015888073913405991818_" gradientUnits="userSpaceOnUse" x1="11.7051" y1="367.7724" x2="206.2016" y2="367.7724" gradientTransform="matrix(1 1.612813e-03 1.612813e-03 -1 20.6019 422.1852)">
		<stop  offset="0" style="stop-color:#FCBC67"/>
		<stop  offset="1" style="stop-color:#F9A22B"/>
	</linearGradient>
	
		<path style="display:none;opacity:0.5;fill:url(#SVGID_00000072961363038818955110000015888073913405991818_);enable-background:new    ;" d="
		M33.5,56.6c-0.2-0.7-0.4-1.4-0.6-2.1c15.2,0.3,30.6-0.7,45.8-1.1c8.5-0.2,122-0.7,130.5-0.6c3.7,0.1,7.4-0.4,11.1-0.4
		c1.9,0,3.8,0.1,5.7,0.1c0,0,0,0,0.1,0c0.4,0.1,0.9,0.1,1.3,0.1c0,0,0,0.1-0.1,0.1c-0.4,0.6-0.7,1.1-1,1.7l0,0
		c-0.3,0.6-8-0.1-8.8-0.1c-2.9,0-5.9-0.2-8.7,0.1c-5.3,0.5-115.7,0.3-121,0.6c-0.1,0-0.1,0-0.1,0.1c-14.1,0.4-21,0.3-31.3,1.1
		C48.6,56,41,56.8,33.5,56.6C33.4,56.7,33.5,56.7,33.5,56.6z"/>
	
		<linearGradient id="SVGID_00000011020100764154024890000004848580348538194599_" gradientUnits="userSpaceOnUse" x1="-21.6366" y1="379.5814" x2="11.7538" y2="379.5814" gradientTransform="matrix(1 1.612813e-03 1.612813e-03 -1 20.6019 422.1852)">
		<stop  offset="0" style="stop-color:#FCBC67"/>
		<stop  offset="1" style="stop-color:#F9A22B"/>
	</linearGradient>
	
		<path style="display:none;opacity:0.5;fill:url(#SVGID_00000011020100764154024890000004848580348538194599_);enable-background:new    ;" d="
		M-0.4,28.6c0.2,0.2,0.4,0.5,0.7,0.7c4.8,4.2,10.8,7.6,15.7,11.6c5.3,4.3,9.7,7.5,15,11.8c0.1,0.3,1,1,1.3,1.1
		c0.2,0.7,0.5,2,0.7,2.7l0,0h-0.1l0,0c-1.7-0.1-7.6-5.7-8.6-6.4c-3-2.3-6.1-4.6-9.1-7c-4.7-3.9-9.5-8-14.6-11.4
		c-0.1-0.8-0.4-1.6-0.6-2.4C-0.3,29.2-0.3,28.9-0.4,28.6z"/>
	<g class="st29">
		<path class="st30" d="M90.3,36.1l-1.4-3.8l-6.7,0l-1.4,3.8l-3,0l6-16.2l3.5,0l6,16.2L90.3,36.1z M87.9,29.6l-2.4-6.7l-2.4,6.7
			L87.9,29.6z"/>
		<path class="st30" d="M98.7,35.7c-1-0.4-1.9-1-2.6-1.8s-1.3-1.6-1.7-2.7c-0.4-1-0.6-2.1-0.6-3.3s0.2-2.3,0.6-3.3
			c0.4-1,1-1.9,1.7-2.7c0.7-0.8,1.6-1.3,2.7-1.8c1-0.4,2.2-0.6,3.5-0.6c1.2,0,2.3,0.1,3.3,0.4c1,0.3,1.9,0.6,2.6,1l-1.1,2.5
			c-0.6-0.4-1.3-0.7-2.1-0.9c-0.8-0.2-1.7-0.3-2.6-0.3c-0.7,0-1.4,0.1-2.1,0.3c-0.7,0.2-1.2,0.6-1.7,1c-0.5,0.5-0.9,1.1-1.2,1.8
			C97,26.2,96.9,27,96.9,28s0.1,1.8,0.4,2.5s0.7,1.3,1.2,1.8s1.1,0.8,1.7,1.1c0.7,0.2,1.4,0.3,2.1,0.3c0.6,0,1.1-0.1,1.7-0.2
			c0.6-0.1,1.1-0.3,1.6-0.5l0-2.9l-3.6,0l0-2.7l6.5,0l0,7.6c-0.4,0.2-0.8,0.4-1.4,0.6c-0.5,0.2-1.1,0.3-1.6,0.5
			c-0.6,0.1-1.1,0.2-1.7,0.3c-0.6,0.1-1.1,0.1-1.7,0.1C100.9,36.3,99.7,36.1,98.7,35.7z"/>
		<path class="st30" d="M123.2,36.1l-1.4-3.8l-6.7,0l-1.4,3.8l-3,0l6-16.2l3.5,0l6,16.2L123.2,36.1z M120.9,29.6l-2.4-6.7l-2.4,6.7
			L120.9,29.6z"/>
		<path class="st30" d="M132.7,19.9c1.3,0,2.6,0.2,3.8,0.5c1.2,0.3,2.1,0.8,3,1.5c0.8,0.7,1.5,1.5,2,2.5c0.5,1,0.7,2.2,0.7,3.5
			c0,1.3-0.2,2.5-0.7,3.5c-0.5,1-1.1,1.9-1.9,2.6c-0.8,0.7-1.8,1.2-2.9,1.6c-1.1,0.4-2.4,0.5-3.8,0.5l-4.4,0l0-16.2L132.7,19.9z
			 M135.3,33.2c0.8-0.2,1.5-0.5,2-0.9s1-1,1.3-1.7c0.3-0.7,0.5-1.6,0.5-2.6c0-0.9-0.2-1.8-0.5-2.4c-0.3-0.7-0.7-1.2-1.3-1.7
			c-0.6-0.4-1.2-0.8-2-1c-0.8-0.2-1.6-0.3-2.6-0.3l-1.4,0l0,10.9l1.3,0C133.6,33.5,134.5,33.4,135.3,33.2z"/>
		<path class="st30" d="M145,20l2.9,0l0,16.2l-2.9,0L145,20z"/>
		<path class="st30" d="M154.8,29.8l0,6.4l-2.9,0l0-16.2l6.1,0c1.1,0,2,0.1,2.7,0.4c0.7,0.3,1.4,0.6,1.8,1.1c0.5,0.5,0.8,1,1,1.6
			s0.3,1.2,0.3,1.8c0,0.5-0.1,0.9-0.2,1.4c-0.1,0.5-0.3,0.9-0.6,1.3c-0.3,0.4-0.6,0.8-1,1.1c-0.4,0.3-0.9,0.6-1.5,0.8l4.2,6.8
			l-3.2,0l-4-6.4L154.8,29.8z M154.8,27.3l2.6,0c0.5,0,1,0,1.5-0.1c0.4-0.1,0.8-0.2,1.1-0.4c0.3-0.2,0.5-0.4,0.7-0.7
			c0.2-0.3,0.3-0.7,0.3-1.2c0-0.8-0.3-1.4-0.9-1.8c-0.6-0.4-1.5-0.5-2.7-0.5l-2.6,0L154.8,27.3z"/>
	</g>
</g>
</svg>
