<?xml version="1.0" encoding="utf-8"?>
<!-- Generator: Adobe Illustrator 27.0.0, SVG Export Plug-In . SVG Version: 6.00 Build 0)  -->
<svg version="1.1" id="Layer_1" xmlns="http://www.w3.org/2000/svg" xmlns:xlink="http://www.w3.org/1999/xlink" x="0px" y="0px"
	 viewBox="0 0 399.5 98.6" style="enable-background:new 0 0 399.5 98.6;" xml:space="preserve">
<style type="text/css">
	.st0{fill:url(#SVGID_1_);}
	.st1{fill:url(#SVGID_00000023983336923659963850000015500894844201442483_);}
	.st2{fill:url(#SVGID_00000136369736728818343680000003651390244813336498_);}
	.st3{fill:url(#SVGID_00000026874854825101672840000010912932090176197260_);}
	.st4{fill:url(#SVGID_00000167385585701482724390000012144494249988872121_);}
	.st5{fill:url(#SVGID_00000008149256555268340730000017445752338447924906_);}
	.st6{fill:url(#SVGID_00000132769751196290380830000003391198651647481528_);}
	.st7{fill:url(#SVGID_00000040533799539016549870000001632750743624709808_);}
	.st8{fill:url(#SVGID_00000132767339508228393730000014504737644666255518_);}
	.st9{fill:url(#SVGID_00000029735858973904727280000001565688663764779930_);}
</style>
<g>
	<linearGradient id="SVGID_1_" gradientUnits="userSpaceOnUse" x1="5.5706" y1="55.3522" x2="399.8503" y2="55.3522">
		<stop  offset="0" style="stop-color:#5356A5"/>
		<stop  offset="1" style="stop-color:#8D56A3"/>
	</linearGradient>
	<path class="st0" d="M5.6,73.6V21.2h14.1v53c0,3,1.4,4,2.6,4c0.5,0,0.9,0,1.7-0.2l1.7,10.4c-1.6,0.7-3.9,1.2-7.1,1.2
		C8.9,89.6,5.6,83.2,5.6,73.6z"/>
	
		<linearGradient id="SVGID_00000127752193043080483270000007253684866295297462_" gradientUnits="userSpaceOnUse" x1="-1.0162" y1="38.5001" x2="421.6613" y2="38.5001">
		<stop  offset="0" style="stop-color:#5356A5"/>
		<stop  offset="1" style="stop-color:#8D56A3"/>
	</linearGradient>
	<path style="fill:url(#SVGID_00000127752193043080483270000007253684866295297462_);" d="M34.6,35.3l-0.5-12.7h14.2l-0.5,12.7
		l-2.8,19.1h-7.7L34.6,35.3z"/>
	
		<linearGradient id="SVGID_00000145738704278893774620000000139475673277143231_" gradientUnits="userSpaceOnUse" x1="-4.6918" y1="54.7762" x2="416.0266" y2="54.7762">
		<stop  offset="0" style="stop-color:#5356A5"/>
		<stop  offset="1" style="stop-color:#8D56A3"/>
	</linearGradient>
	<path style="fill:url(#SVGID_00000145738704278893774620000000139475673277143231_);" d="M61.8,21.2h13.8v38.5H76l15.1-18.9h15.3
		L89.7,60.4l17.9,28H92.4L81.7,69.8l-6,6.9v11.7H61.8V21.2z"/>
	
		<linearGradient id="SVGID_00000088830681397027777550000001559560663368862871_" gradientUnits="userSpaceOnUse" x1="-11.3281" y1="64.589" x2="389.9773" y2="64.589">
		<stop  offset="0" style="stop-color:#5356A5"/>
		<stop  offset="1" style="stop-color:#8D56A3"/>
	</linearGradient>
	<path style="fill:url(#SVGID_00000088830681397027777550000001559560663368862871_);" d="M111.3,75.2c0-10,8-15.5,26.8-17.5
		c-0.3-4.2-2.4-6.9-7.5-6.9c-4,0-8,1.7-12.6,4.3l-5-9.3c6-3.7,12.9-6.3,20.3-6.3c12.2,0,18.9,7,18.9,21.5v27.2h-11.5l-1-4.9h-0.4
		c-4,3.5-8.5,6-13.9,6C116.8,89.6,111.3,83.2,111.3,75.2z M138.1,74.6v-8.3c-10,1.4-13.3,4.2-13.3,7.8c0,3.1,2.1,4.6,5.5,4.6
		C133.5,78.6,135.6,77.1,138.1,74.6z"/>
	
		<linearGradient id="SVGID_00000011748498804105974540000010024263374574911158_" gradientUnits="userSpaceOnUse" x1="0.8115" y1="64.0131" x2="397.4892" y2="64.0131">
		<stop  offset="0" style="stop-color:#5356A5"/>
		<stop  offset="1" style="stop-color:#8D56A3"/>
	</linearGradient>
	<path style="fill:url(#SVGID_00000011748498804105974540000010024263374574911158_);" d="M164.1,40.8h11.5l1,8.3h0.4
		c3.5-6.4,8.7-9.5,13.5-9.5c2.7,0,4.3,0.4,5.7,1l-2.3,12.2c-1.7-0.4-3.1-0.8-5.1-0.8c-3.6,0-7.9,2.3-10.5,8.8v27.6h-14.1V40.8z"/>
	
		<linearGradient id="SVGID_00000094576026394831551100000012220203932063707557_" gradientUnits="userSpaceOnUse" x1="-4.9261" y1="64.0131" x2="412.0453" y2="64.0131">
		<stop  offset="0" style="stop-color:#5356A5"/>
		<stop  offset="1" style="stop-color:#8D56A3"/>
	</linearGradient>
	<path style="fill:url(#SVGID_00000094576026394831551100000012220203932063707557_);" d="M202.3,40.8h11.5l1,8.3h0.4
		c3.5-6.4,8.7-9.5,13.5-9.5c2.7,0,4.3,0.4,5.7,1L232,52.8c-1.7-0.4-3.1-0.8-5.1-0.8c-3.6,0-7.9,2.3-10.5,8.8v27.6h-14.1V40.8z"/>
	
		<linearGradient id="SVGID_00000160910726861294662720000000847223265134262673_" gradientUnits="userSpaceOnUse" x1="-4.0788" y1="53.7299" x2="401.3784" y2="53.7299">
		<stop  offset="0" style="stop-color:#5356A5"/>
		<stop  offset="1" style="stop-color:#8D56A3"/>
	</linearGradient>
	<path style="fill:url(#SVGID_00000160910726861294662720000000847223265134262673_);" d="M239.4,26.4c0-4.3,3.4-7.4,8.2-7.4
		s8.2,3,8.2,7.4c0,4.3-3.4,7.4-8.2,7.4S239.4,30.7,239.4,26.4z M240.5,40.8h14.1v47.6h-14.1V40.8z"/>
	
		<linearGradient id="SVGID_00000100368491301865648960000013357392555248367507_" gradientUnits="userSpaceOnUse" x1="-0.315" y1="49.3134" x2="403.6879" y2="49.3134">
		<stop  offset="0" style="stop-color:#5356A5"/>
		<stop  offset="1" style="stop-color:#8D56A3"/>
	</linearGradient>
	<path style="fill:url(#SVGID_00000100368491301865648960000013357392555248367507_);" d="M264.2,64.6c0-15.4,11-25,22.5-25
		c13.6,0,20.3,9.9,20.3,22.9c0,2.5-0.3,5.1-0.6,6.2h-28.5c1.3,6.9,6,10.1,12.4,10.1c3.6,0,6.8-1.1,10.3-3.1l4.7,8.5
		c-4.9,3.4-11.2,5.4-16.9,5.4C274.7,89.6,264.2,80.4,264.2,64.6z M268.3,18.4l9.6-9.4l14.7,17.5l-6.9,6.9L268.3,18.4z M294.9,59.4
		c0-5.2-2.3-9-7.9-9c-4.5,0-8.3,3-9.3,9H294.9z"/>
	
		<linearGradient id="SVGID_00000173127611666468638470000003023867468826501290_" gradientUnits="userSpaceOnUse" x1="-0.1344" y1="64.0131" x2="413.0323" y2="64.0131">
		<stop  offset="0" style="stop-color:#5356A5"/>
		<stop  offset="1" style="stop-color:#8D56A3"/>
	</linearGradient>
	<path style="fill:url(#SVGID_00000173127611666468638470000003023867468826501290_);" d="M316.7,40.8h11.5l1,8.3h0.4
		c3.5-6.4,8.7-9.5,13.5-9.5c2.7,0,4.3,0.4,5.7,1l-2.3,12.2c-1.7-0.4-3.1-0.8-5.1-0.8c-3.6,0-7.9,2.3-10.5,8.8v27.6h-14.1V40.8z"/>
	
		<linearGradient id="SVGID_00000147192367119407389560000000996512517123865995_" gradientUnits="userSpaceOnUse" x1="-5.160989e-02" y1="64.589" x2="408.5648" y2="64.589">
		<stop  offset="0" style="stop-color:#5356A5"/>
		<stop  offset="1" style="stop-color:#8D56A3"/>
	</linearGradient>
	<path style="fill:url(#SVGID_00000147192367119407389560000000996512517123865995_);" d="M351.2,64.6c0-15.4,11-25,22.5-25
		c13.6,0,20.3,9.9,20.3,22.9c0,2.5-0.3,5.1-0.6,6.2h-28.5c1.3,6.9,6,10.1,12.4,10.1c3.6,0,6.8-1.1,10.3-3.1l4.7,8.5
		c-4.9,3.4-11.2,5.4-16.9,5.4C361.7,89.6,351.2,80.4,351.2,64.6z M381.9,59.4c0-5.2-2.3-9-7.9-9c-4.5,0-8.3,3-9.3,9H381.9z"/>
</g>
</svg>
